<?xml version="1.0" encoding="UTF-8"?> <svg xmlns="http://www.w3.org/2000/svg" width="101" height="122" viewBox="0 0 101 122" fill="none"><path d="M6.37499 38.125C7.12499 35.625 15.375 31.875 23 30.375L33.75 28.625L43.75 42.375L38 52.5C37.4583 52.7917 35.85 53.475 33.75 53.875C31.65 54.275 28.2083 53.125 26.75 52.5L20 50.625C19.25 50.875 17.25 51.225 15.25 50.625C13.25 50.025 8.49999 44.875 6.37499 42.375C6.12499 41.7917 5.77499 40.125 6.37499 38.125Z" fill="#FFCD00"></path><path opacity="0.2" fill-rule="evenodd" clip-rule="evenodd" d="M6.37499 38.125C5.77499 40.125 6.12499 41.7917 6.37499 42.375C8.49999 44.875 13.25 50.025 15.25 50.625C17.25 51.225 19.25 50.875 20 50.625L26.75 52.5C28.2083 53.125 31.65 54.275 33.75 53.875C35.85 53.475 37.4583 52.7917 38 52.5L40.875 47.4375C39.9167 47.7917 37.15 48.6 33.75 49C29.5 49.5 20.875 46.75 21 45.5C21.1 44.5 25.7083 42.0833 28 41C27.5833 40.8333 26 40.6 23 41C21.4851 41.202 20.5618 42.1383 19.6944 43.0179C18.4146 44.3158 17.2567 45.4901 14.5 44C10.8 42 13.4583 38.25 15.25 36.625C14.375 37.125 12.3 38.45 11 39.75C9.7 41.05 7.37499 39.2083 6.37499 38.125Z" fill="black"></path><path d="M42.875 55.1251C45.675 54.8251 49.2083 51.6667 50.625 50.1251C51.0833 50.6251 52.225 51.9251 53.125 53.1251C54.025 54.3251 55.5833 54.1251 56.25 53.8751V56.3751C56.25 57.3752 57.9167 57.6251 58.75 57.6251C59.4167 59.8751 60.95 64.9251 61.75 67.1251C62.55 69.3251 64.5 69.3751 65.375 69.1251C65.5833 70.7085 66.65 74.9251 69.25 79.1251C71.85 83.3251 78.1667 86.4585 81 87.5001C82.7917 85.5418 87.25 80.5251 90.75 76.1251C95.125 70.6251 97.25 61.5001 97.375 56.3751C97.5 51.2501 93.5 50.1251 93.25 48.5001C93 46.8752 92.5 45.3751 91.375 43.6251C90.25 41.875 73.125 26.5001 71.75 25.7501C70.65 25.1501 69.625 26.0001 69.25 26.5001C68.9167 25.9168 68.05 24.4501 67.25 23.2501C66.45 22.0502 63.25 21.0001 61.75 20.6251C61.0417 20.2085 58.95 19.3251 56.25 19.1251C53.55 18.9251 50.0417 20.5418 48.625 21.3751L47.125 20.6251C46.3333 20.7085 44.375 20.9751 42.875 21.3751C41.375 21.7751 38.1667 23.7918 36.75 24.7501C35.3333 24.5417 32.025 24.2501 30.125 24.7501C28.225 25.2501 24 27.6251 22.125 28.7501V30.1251C23 30.4584 25.825 31.5251 30.125 33.1251C35.5 35.1251 39.25 41.1251 40.125 43.6251C41 46.1251 39.25 50.1251 39.25 51.6251C39.25 52.8251 37.5833 53.1251 36.75 53.1251C37.625 53.9168 40.075 55.4251 42.875 55.1251Z" fill="#EFFAFE"></path><path opacity="0.2" fill-rule="evenodd" clip-rule="evenodd" d="M49.625 39.9999C48.0833 42.2499 43.947 47.2367 39.7351 49.184C39.7137 49.2702 39.6923 49.3555 39.6713 49.4397C39.4444 50.3471 39.25 51.1248 39.25 51.6248C39.25 52.8248 37.5833 53.1248 36.75 53.1248C37.625 53.9165 40.075 55.4248 42.875 55.1248C45.675 54.8248 49.2083 51.6665 50.625 50.1248C51.0833 50.6248 52.225 51.9248 53.125 53.1248C54.025 54.3248 55.5833 54.1249 56.25 53.8749V56.3749C56.25 57.3749 57.9167 57.6249 58.75 57.6249C59.4167 59.8749 60.95 64.9249 61.75 67.1249C62.55 69.3249 64.5 69.3749 65.375 69.1249C65.5833 70.7082 66.65 74.9249 69.25 79.1249C71.85 83.3249 78.1667 86.4582 81 87.4999C82.437 85.9292 85.5894 82.3912 88.587 78.7818C86.058 76.9795 80.275 73.1999 77.375 72.4999C74.475 71.7999 72.4167 65.7082 71.75 62.7499L74.25 60.4999C72.5833 59.1249 68.475 56.1249 65.375 55.1248C62.275 54.1248 58 47.0415 56.25 43.6248C56.25 43.9999 55.725 44.5249 53.625 43.6248C51.525 42.7248 50.0833 40.8332 49.625 39.9999Z" fill="black"></path><path d="M68.75 34.375C72.15 34.375 73.8334 38.2917 74.25 40.25H78C79.875 40.25 80.875 44.625 81.125 47.125C81.375 49.625 80.375 51.125 78.75 52.125C77.125 53.125 69.875 56 66.625 55.875C64.025 55.775 60.7917 54.5833 59.5 54C59.2084 51.2917 58.8 45 59.5 41.5C60.375 37.125 64.5 34.375 68.75 34.375Z" fill="#FE6869"></path><path d="M9.87503 42.375L10.75 44.875C12.35 44.875 13.4167 47.2083 13.7501 48.375L11.7501 52.375L8.00003 53.125L8.75012 48.375H4.75003C4.70836 47.875 4.80003 46.475 5.50003 44.875C6.20003 43.275 7.45836 42.5417 8.00003 42.375H9.87503Z" fill="#4B5359"></path><path d="M20.6251 52.375C20.5251 50.475 22.9168 48.3333 24.1251 47.5C26.7501 47.5 26.8751 51 27.2501 52.375C27.5501 53.475 26.0418 55.4167 25.2501 56.25H20.6251C20.6668 55.75 20.7251 54.275 20.6251 52.375Z" fill="#4B5359"></path><path d="M22.0091 30.3635C22.9591 30.8213 24.0147 31.0679 24.9999 31.4201C25.95 31.7724 26.9 32.1246 27.85 32.5473C29.6797 33.4278 31.4742 34.5197 33.0576 35.7877C34.6761 37.091 36.154 38.5703 37.4558 40.1906C38.1596 41.0711 38.7929 42.0574 39.1448 43.1141C39.5319 44.2412 39.5319 45.4387 39.4263 46.6363C39.2504 48.4327 38.8985 52.3776 36.2595 52.1311C35.9077 52.0958 35.591 52.4833 35.591 52.8003C35.591 53.1877 35.9077 53.4343 36.2595 53.4695C37.4207 53.5752 38.5114 52.9412 39.18 52.0606C39.9189 51.1096 40.2356 49.912 40.4115 48.7145C40.8337 46.0728 40.9745 43.4663 39.6022 41.0711C38.4763 39.0987 36.8225 37.3375 35.0984 35.8582C33.3743 34.3436 31.4742 33.0404 29.4334 31.9837C28.3074 31.3849 27.1463 30.8918 25.95 30.4691C24.7888 30.0464 23.4165 29.5886 22.1498 29.6238C21.8683 29.659 21.6572 30.1873 22.0091 30.3635Z" fill="#181D23"></path><path d="M35.9781 52.1663C35.2392 52.448 34.5706 52.7651 33.7965 52.9412C33.0224 53.1173 32.2131 53.1525 31.4038 53.1173C29.8205 53.0468 28.3426 52.448 27.0759 51.497C26.5129 51.0744 25.7388 52.0606 26.3018 52.4833C27.7445 53.6456 29.5038 54.2444 31.3335 54.3501C33.0224 54.4205 35.0632 53.9626 36.33 52.8003C36.6115 52.5185 36.33 52.0254 35.9781 52.1663Z" fill="#181D23"></path><path d="M24.0849 46.8829C23.2757 47.2704 22.6423 48.0453 22.1145 48.785C21.5867 49.5246 21.1645 50.3348 20.8478 51.1801C20.2496 52.8356 19.933 54.8785 20.4256 56.6044C20.6015 57.2032 21.6219 57.0975 21.5515 56.4635C21.4812 55.6182 21.3756 54.808 21.4108 53.9627C21.4812 53.1526 21.6571 52.3425 21.9386 51.5676C22.2201 50.7927 22.6071 50.0882 23.0294 49.419C23.4868 48.7145 24.1201 48.151 24.6127 47.4465C24.8942 47.0943 24.4016 46.742 24.0849 46.8829Z" fill="#181D23"></path><path d="M20.883 56.71C21.6923 56.9213 22.5016 56.9213 23.3461 56.8156C24.1554 56.71 24.9998 56.5339 25.7036 56.1112C26.1258 55.8646 25.8443 55.125 25.3517 55.3011C24.9998 55.4067 24.648 55.5476 24.2961 55.6885C23.9442 55.7942 23.5572 55.8998 23.1701 55.9351C22.4312 56.0407 21.6923 56.0407 20.9534 56.0055C20.5311 55.9351 20.4607 56.6043 20.883 56.71Z" fill="#181D23"></path><path d="M25.7037 55.9352C26.337 55.1603 26.7944 54.3502 27.1815 53.4344C27.3574 53.0117 27.4982 52.5538 27.6037 52.0959C27.7093 51.6028 27.9204 51.004 27.7093 50.5461C27.5685 50.1939 27.0759 50.2995 26.9 50.5461C26.7592 50.7574 26.7592 51.004 26.7241 51.2506C26.6889 51.4619 26.6537 51.7085 26.6185 51.9198C26.5481 52.3425 26.4074 52.7651 26.3018 53.1878C26.0555 54.0332 25.6685 54.8433 25.2462 55.6182C25.0351 55.8295 25.4573 56.1817 25.7037 55.9352Z" fill="#181D23"></path><path d="M27.1462 51.2857C27.3221 50.4403 27.0758 49.5245 26.6536 48.7849C26.2314 48.01 25.5276 47.3055 24.6832 47.059C24.085 46.8829 23.7331 47.7634 24.2609 48.0452C24.4017 48.1156 24.5776 48.2213 24.7184 48.327C24.8591 48.3974 25.0702 48.5383 25.1406 48.6088C25.2109 48.6792 25.3869 48.8201 25.4924 48.9258C25.6332 49.0667 25.7036 49.1723 25.8091 49.278C26.1962 49.8416 26.4073 50.4756 26.5128 51.18C26.548 51.3561 26.6184 51.497 26.7943 51.497C26.9351 51.5675 27.111 51.4618 27.1462 51.2857Z" fill="#181D23"></path><path d="M10.3975 44.9809C9.83456 45.4035 9.44751 46.0375 9.09565 46.6011C8.7086 47.2351 8.42712 47.9396 8.18081 48.6088C7.72339 49.9473 7.37151 51.5323 7.54744 52.9412C7.61782 53.54 8.49749 53.3286 8.53268 52.8003C8.60305 52.1311 8.56785 51.4618 8.67341 50.7926C8.77897 50.1586 8.91972 49.5246 9.09565 48.9258C9.27158 48.327 9.55306 47.7282 9.83455 47.1647C10.1512 46.5659 10.5735 46.0023 10.8198 45.4035C10.9605 45.1922 10.7142 44.7695 10.3975 44.9809Z" fill="#181D23"></path><path d="M7.75861 53.1174C8.42715 53.2582 9.09569 53.2583 9.79942 53.1878C10.5031 53.0821 11.1717 52.906 11.8402 52.589C12.2625 52.3777 11.981 51.6732 11.5236 51.8141C10.3272 52.272 9.13088 52.5538 7.82898 52.5186C7.51231 52.5538 7.40674 53.0469 7.75861 53.1174Z" fill="#181D23"></path><path d="M12.0512 52.8708C12.5438 52.2368 13.0013 51.5676 13.3531 50.8279C13.705 50.0882 14.0569 49.3133 14.1976 48.5384C14.2328 48.2919 14.1272 48.0101 13.8457 47.9396C13.5994 47.8692 13.3179 48.0101 13.2476 48.2919C13.0364 49.0315 12.8605 49.7712 12.579 50.4757C12.2975 51.1801 11.9457 51.8494 11.5234 52.4834C11.3123 52.7651 11.8049 53.1526 12.0512 52.8708Z" fill="#181D23"></path><path d="M14.0569 48.6089C13.9865 47.834 13.7051 47.1295 13.2828 46.4603C12.8606 45.7911 12.3328 45.2275 11.6642 44.8048C11.4179 44.6287 11.0309 44.7344 10.8901 45.0162C10.7494 45.298 10.8198 45.615 11.1013 45.7911C11.1716 45.8263 11.242 45.8967 11.3124 45.932C11.3124 45.932 11.4179 46.0376 11.3828 45.9672C11.3476 45.932 11.3476 45.932 11.3828 45.9672C11.4179 46.0024 11.4883 46.0376 11.5235 46.0729C11.5587 46.1081 11.5939 46.1081 11.5939 46.1433C11.7346 46.249 11.5587 46.1081 11.6291 46.1785C11.6994 46.249 11.7698 46.2842 11.8402 46.3546C12.0865 46.566 12.3328 46.8125 12.5087 47.0943C12.4735 47.0591 12.5087 47.0943 12.5087 47.1295C12.5439 47.1648 12.5439 47.2 12.5791 47.2352C12.6143 47.3057 12.6846 47.3761 12.7198 47.4465C12.7902 47.5874 12.8958 47.7283 12.9661 47.8692C13.1069 48.151 13.2476 48.4328 13.3532 48.7498C13.4236 48.9259 13.5643 49.0316 13.7402 48.9963C13.881 48.9611 14.0569 48.8202 14.0569 48.6089Z" fill="#181D23"></path><path d="M7.68817 41.8109C6.70295 42.5153 5.92885 43.4664 5.29549 44.4878C4.97881 45.0161 4.7325 45.5445 4.52139 46.1081C4.41583 46.3898 4.31027 46.6716 4.2399 46.9534C4.16952 47.2704 4.06396 47.5874 4.06396 47.9044C4.06396 48.468 4.80289 48.5032 5.014 48.0453C5.11956 47.7987 5.15474 47.4817 5.22512 47.2352C5.29549 46.9886 5.36587 46.7421 5.47143 46.4603C5.64736 45.9319 5.89365 45.4388 6.13996 44.9457C6.66775 43.9595 7.37149 43.1141 8.14559 42.304C8.35671 42.0574 8.00485 41.5643 7.68817 41.8109Z" fill="#181D23"></path><path d="M4.45108 48.6793C5.57703 48.9259 6.80856 48.785 7.93451 48.5384C8.18081 48.5032 8.32154 48.1862 8.25117 47.9749C8.1808 47.7283 7.9345 47.5874 7.6882 47.6579C7.1956 47.7635 6.6678 47.8692 6.14001 47.9396C5.61222 48.0101 5.04925 48.0101 4.52146 48.0453C4.38071 48.0453 4.23996 48.151 4.20477 48.3271C4.20477 48.5032 4.27515 48.6793 4.45108 48.6793Z" fill="#181D23"></path><path d="M10.1161 45.8966C10.1512 45.7909 10.2216 45.6853 10.292 45.5796C10.3272 45.4739 10.3624 45.3683 10.4327 45.2626C10.5031 45.0513 10.5735 44.8399 10.6087 44.5934C10.679 44.1355 10.7142 43.6424 10.679 43.1845C10.6439 42.9027 10.4327 42.6913 10.1512 42.7266C9.83455 42.7618 9.729 43.0436 9.76419 43.3253C9.79937 43.4662 9.83454 43.6776 9.83454 43.8889C9.86973 44.1002 9.86974 44.3116 9.86974 44.5229C9.86974 44.7343 9.86974 44.9456 9.86974 45.1569C9.86974 45.2626 9.86974 45.333 9.86974 45.4387C9.86974 45.5444 9.86974 45.65 9.86974 45.7557C9.86974 45.8614 9.86974 45.9318 9.9753 45.967C9.94011 46.0023 10.0809 45.967 10.1161 45.8966Z" fill="#181D23"></path><path d="M10.2568 43.0084C10.2568 42.9732 10.2568 42.9732 10.2568 43.0084C10.2568 43.0436 10.2568 43.0788 10.292 43.1493C10.292 43.2197 10.292 43.0436 10.2568 43.0084C10.2568 42.9732 10.2568 42.9027 10.2216 42.8675C10.1865 42.7971 10.1161 42.7266 10.0809 42.6914C10.0105 42.5857 9.90495 42.5153 9.83457 42.4096C9.65864 42.2335 9.41234 42.0574 9.20123 41.9165C8.77899 41.6347 8.25119 41.4234 7.7234 41.3529C7.58265 41.3177 7.44192 41.3177 7.30118 41.4234C7.19562 41.4938 7.09006 41.6347 7.05487 41.7756C6.9845 42.0574 7.12523 42.4096 7.44191 42.4801C7.68821 42.5153 7.89934 42.5505 8.11046 42.6209C8.21602 42.6562 8.32156 42.6914 8.42712 42.7266C8.4975 42.7618 8.53268 42.7618 8.60305 42.7971C8.63824 42.7971 8.63824 42.8323 8.67343 42.8323C8.56787 42.7971 8.7438 42.8675 8.67343 42.8323C8.88455 42.9379 9.06048 43.0436 9.2716 43.1493C9.37716 43.2197 9.48272 43.255 9.55309 43.3254C9.58827 43.3606 9.58828 43.3606 9.62347 43.3958C9.65865 43.4311 9.72902 43.4663 9.7994 43.5015C9.83458 43.5015 9.90496 43.5367 9.94015 43.5015C10.0105 43.5015 10.0105 43.5015 9.94015 43.5015C9.90496 43.5015 9.83458 43.4663 9.7994 43.4663C9.7994 43.4663 9.83457 43.4663 9.83457 43.5015C10.1161 43.572 10.3976 43.255 10.2568 43.0084Z" fill="#181D23"></path><path d="M21.3054 51.7437C20.7776 50.7927 20.4257 49.8416 20.4609 48.7497C20.5312 47.6578 20.8831 46.5659 21.5165 45.6854C22.9591 43.6072 25.4926 42.5153 27.7093 41.5643C28.413 41.2473 27.8148 40.1554 27.0759 40.5076C24.5425 41.67 21.7276 42.9028 20.2498 45.4036C19.0886 47.3408 18.596 50.7927 20.8831 52.2016C21.1294 52.3072 21.4461 51.9902 21.3054 51.7437Z" fill="#181D23"></path><path d="M19.8626 50.7574C19.4051 50.687 18.9477 50.7926 18.4903 50.7926C18.0329 50.7926 17.5755 50.7574 17.118 50.6518C16.2384 50.4404 15.3939 50.053 14.7254 49.4542C14.4791 49.2428 14.1272 49.2076 13.8809 49.4542C13.6698 49.6655 13.6346 50.0882 13.8809 50.2995C14.7254 51.004 15.7106 51.5323 16.8014 51.7437C17.3292 51.8493 17.8921 51.8845 18.4199 51.8493C18.9477 51.8141 19.5811 51.7084 20.0033 51.3562C20.2144 51.2153 20.1441 50.7926 19.8626 50.7574Z" fill="#181D23"></path><path d="M10.3622 44.6639C10.0455 42.0222 11.6641 39.8032 13.5994 38.2182C15.7106 36.4923 18.244 35.2947 20.8478 34.5902C21.5516 34.4141 21.2349 33.3574 20.5663 33.4983C17.6458 34.238 14.8661 35.6117 12.6142 37.5842C10.6437 39.2748 8.63808 42.0927 9.79923 44.8048C9.93998 45.0866 10.3974 44.9457 10.3622 44.6639Z" fill="#181D23"></path><path d="M6.94928 42.163C6.70298 41.5994 6.49185 41.0711 6.52704 40.4371C6.56223 39.8031 6.77335 39.2043 7.12522 38.676C7.96969 37.4432 9.37715 36.7035 10.6087 35.9638C13.318 34.3436 16.0978 32.8642 19.0887 31.878C20.7424 31.3496 22.4666 30.9622 24.2259 30.8565C24.9296 30.8213 24.9296 29.6942 24.2259 29.7646C20.7424 30.0112 17.4701 31.1383 14.3385 32.6529C12.7551 33.4278 11.242 34.2731 9.76421 35.1889C8.39193 35.999 6.94928 36.8796 6.06962 38.2533C5.3307 39.4509 4.97882 41.7051 6.38628 42.5857C6.66778 42.7266 7.05484 42.48 6.94928 42.163Z" fill="#181D23"></path><path d="M22.7129 30.2579C22.7129 30.2227 22.7129 30.2227 22.7129 30.1874C22.7129 30.1522 22.7129 30.1522 22.7129 30.1874C22.6777 30.2227 22.6425 30.2931 22.6073 30.3283C22.7832 30.1874 22.748 29.9409 22.7832 29.7295C22.7832 29.7648 22.7832 29.8 22.7832 29.8704C22.8184 29.7295 22.8184 29.5886 22.8184 29.4478C22.8184 29.483 22.8184 29.5182 22.8184 29.5886C22.8536 29.3421 22.924 29.1308 23.0295 28.8842C22.9943 28.9194 22.9944 28.9546 22.9592 29.0251C22.9944 28.9546 23.0295 28.9194 23.0295 28.849C23.1703 28.6024 23.0999 28.2502 22.8536 28.1093C22.7128 28.0388 22.5721 28.0036 22.4314 28.0388C22.2906 28.0741 22.1851 28.1445 22.1147 28.2854C22.0443 28.4615 21.9739 28.6024 21.9388 28.7785C21.9036 28.9546 21.8684 29.1307 21.8684 29.3069C21.8684 29.483 21.8684 29.6591 21.9036 29.8352C21.9036 29.9056 21.9388 29.9761 21.9388 30.0113C21.9739 30.117 22.0091 30.1874 22.0795 30.2579C22.1499 30.3283 22.2202 30.3635 22.2906 30.3988C22.2554 30.3635 22.1851 30.3283 22.1499 30.2931C22.1499 30.2931 22.1499 30.2931 22.1499 30.3283C22.1147 30.2931 22.0795 30.2227 22.0443 30.1874C22.0443 30.2227 22.0795 30.2579 22.0795 30.2931C22.1499 30.434 22.2554 30.5397 22.4314 30.5397C22.6073 30.5749 22.748 30.434 22.7129 30.2579Z" fill="#181D23"></path><path d="M22.2906 28.8841C24.5073 27.5809 26.7593 26.4538 29.2223 25.6789C31.615 24.904 34.2188 24.3756 36.717 24.4461C37.4207 24.4813 37.3855 23.319 36.717 23.3894C34.0428 23.6007 31.439 23.9177 28.9056 24.7631C26.4074 25.5732 24.0147 26.7708 21.9739 28.4262C21.6924 28.6376 22.0091 29.0602 22.2906 28.8841Z" fill="#181D23"></path><path d="M35.4502 24.5164C38.9337 26.2423 42.1356 28.5318 44.6691 31.5257C47.3784 34.6958 49.2081 38.5703 50.0526 42.6561C50.5452 45.0512 50.6156 47.4112 50.4748 49.8415C50.4397 50.5812 51.5304 50.546 51.6008 49.8415C52.0582 45.4035 51.1082 40.7893 49.2785 36.7739C47.5544 33.0051 44.8802 29.6941 41.6078 27.1581C39.8133 25.7844 37.8429 24.6573 35.7317 23.8824C35.3446 23.6711 35.0631 24.3403 35.4502 24.5164Z" fill="#181D23"></path><path d="M50.5453 49.4895C49.5601 50.4405 48.6804 51.4267 47.6249 52.272C46.6396 53.0469 45.5137 53.7514 44.3173 54.1388C42.1006 54.9137 39.3209 54.8081 37.4208 53.2583C37.1393 53.0469 36.7874 53.0117 36.5411 53.2583C36.33 53.4696 36.2596 53.9275 36.5411 54.1388C41.3969 57.9077 48.3286 54.7024 51.2139 49.9826C51.4602 49.5951 50.862 49.1724 50.5453 49.4895Z" fill="#181D23"></path><path d="M50.7212 50.5813C51.7064 51.8493 52.7972 53.0116 53.9232 54.1388C54.3806 54.5967 54.9436 55.0898 55.6473 55.0546C56.3159 55.0193 56.9492 54.5262 56.9492 53.8218C56.9492 53.54 56.7029 53.2934 56.4214 53.2934C56.1047 53.2934 55.9288 53.54 55.8936 53.8218C55.8936 53.7513 55.8233 53.8922 55.8584 53.857C55.8233 53.8922 55.7529 53.9274 55.6825 53.9627C55.5418 53.9979 55.401 53.9627 55.2603 53.857C54.7676 53.5752 54.4158 53.1173 53.9935 52.7299C53.0787 51.8493 52.1287 51.004 51.1082 50.1938C50.8267 49.9825 50.5101 50.2995 50.7212 50.5813Z" fill="#181D23"></path><path d="M55.6824 54.4911C55.7527 55.6182 56.2102 56.9214 57.2306 57.485C58.4621 58.1894 59.9399 57.5202 61.1011 56.9919C61.664 56.7101 61.1714 55.8295 60.6085 56.1113C59.764 56.5692 58.638 57.1328 57.688 56.6749C56.8435 56.2522 56.6676 55.1955 56.3509 54.4206C56.2101 54.1036 55.6472 54.1036 55.6824 54.4911Z" fill="#181D23"></path><path d="M58.3567 57.7314C58.4622 59.3869 58.9196 61.0071 59.4826 62.5569C60.0456 64.1419 60.7845 65.6565 61.629 67.0654C62.3327 68.2982 63.2828 69.5662 64.7606 69.7776C66.344 70.0241 67.857 69.1083 69.1237 68.263C69.7219 67.8755 69.1589 66.8893 68.5607 67.312C67.5051 68.0517 66.1329 69.0027 64.7606 68.6857C63.4587 68.3687 62.755 66.9598 62.1568 65.9031C61.4179 64.5998 60.8197 63.2614 60.2919 61.8877C59.7641 60.4788 59.3771 59.0347 58.9548 57.6258C58.8493 57.344 58.3215 57.3792 58.3567 57.7314Z" fill="#181D23"></path><path d="M65.2181 69.6719C65.1829 70.5173 65.4292 71.3978 65.6403 72.208C65.8514 73.0181 66.0977 73.8634 66.3792 74.6383C66.9774 76.2586 67.7515 77.8084 68.7015 79.2173C70.496 81.9294 72.9591 84.2541 75.8795 85.7687C77.4981 86.614 79.2223 87.1776 81.0168 87.4594C81.3335 87.4946 81.6149 87.3889 81.7205 87.0719C81.7909 86.7901 81.6149 86.4027 81.3334 86.3675C74.8943 85.4517 70.0386 80.5205 67.5756 74.7088C67.2237 73.8634 66.907 73.0181 66.6255 72.1727C66.344 71.2922 66.1681 70.3764 65.781 69.531C65.6403 69.2493 65.2181 69.3902 65.2181 69.6719Z" fill="#181D23"></path><path d="M80.9815 87.4243C83.3038 85.7688 85.3095 83.7259 87.1744 81.5421C89.0393 79.3583 90.693 76.9984 92.1708 74.5328C93.6487 72.0672 94.8802 69.4607 95.9358 66.7838C97.0618 63.8251 98.0822 60.6903 98.047 57.5202C98.0118 54.3854 96.8155 51.2506 94.2117 49.3838C93.5079 48.8907 92.8394 50.053 93.5431 50.5461C95.6191 52.0255 96.6395 54.632 96.7803 57.1328C96.921 60.1971 95.971 63.1911 94.9154 66.0089C93.0505 71.1162 90.306 75.9417 86.9281 80.1684C84.9928 82.5988 82.8112 84.7474 80.6649 87.0016C80.4186 87.1777 80.7 87.6004 80.9815 87.4243Z" fill="#181D23"></path><path d="M79.9611 70.5173C82.8816 67.7347 85.591 64.7408 88.054 61.5355C90.3763 58.5063 92.8745 55.1954 93.5782 51.3561C93.8949 49.5598 93.9301 47.6578 93.2968 45.8966C92.6634 44.1003 91.3967 42.6914 90.0596 41.4233C86.928 38.4646 83.6909 35.6468 80.5241 32.7586C78.7296 31.1383 76.9351 29.5181 75.1406 27.8978C73.698 26.5946 71.7275 24.6573 69.546 25.4675C68.7719 25.7492 69.0885 26.982 69.8978 26.7355C71.622 26.1719 73.2405 28.0035 74.4017 29.025C75.9147 30.3986 77.4277 31.7371 78.9407 33.1108C82.0019 35.8582 85.0983 38.6407 88.1596 41.3881C89.4614 42.5505 90.8337 43.748 91.7134 45.2978C92.5579 46.8124 92.8745 48.6088 92.7338 50.3347C92.4171 54.0331 90.2004 57.2735 88.0892 60.2323C85.5558 63.7545 82.7408 67.1007 79.75 70.2707C79.5389 70.4116 79.7852 70.6582 79.9611 70.5173Z" fill="#181D23"></path><path d="M83.9723 37.4431C83.3038 41.3176 81.8611 44.9808 80.2074 48.5383C78.5888 51.9901 76.935 55.4772 74.9998 58.7881C73.909 60.6197 72.7127 62.3808 71.3052 63.9658C70.883 64.4237 71.5867 65.1282 72.0089 64.6703C74.5424 61.7116 76.4776 58.3654 78.2018 54.9136C79.9963 51.3561 81.826 47.7986 83.0927 44.0298C83.7964 41.9164 84.3242 39.7678 84.5001 37.5488C84.5001 37.2318 84.0075 37.1614 83.9723 37.4431Z" fill="#181D23"></path><path d="M71.5867 81.7534C75.0701 79.64 77.0054 75.9416 78.5888 72.3137C80.4537 68.0517 82.2834 63.6489 83.4797 59.1404C84.1834 56.5339 84.6409 53.8922 84.7112 51.1801C84.7112 50.7574 84.0427 50.7574 84.0427 51.1801C83.8316 55.8647 82.5649 60.4084 80.9463 64.776C80.137 66.9598 79.2573 69.0732 78.3777 71.2218C77.6036 73.0534 76.8294 74.8497 75.809 76.5404C74.6831 78.4072 73.2404 80.1331 71.3755 81.3307C71.1292 81.5068 71.3403 81.8942 71.5867 81.7534Z" fill="#181D23"></path><path d="M71.0237 26.2777C70.9885 29.8 71.1996 33.3222 71.2348 36.8445C71.27 40.3668 71.2348 43.889 71.1293 47.4113C71.0589 49.3838 70.9533 51.3562 70.883 53.3287C70.8478 53.8218 71.5867 53.7866 71.6219 53.3287C71.9386 49.7712 72.0441 46.2489 72.1145 42.6915C72.1497 39.1692 72.1497 35.6469 71.9386 32.1247C71.833 30.1522 71.6923 28.1797 71.4108 26.2425C71.3404 26.0311 71.0237 26.0664 71.0237 26.2777Z" fill="#181D23"></path><path d="M64.2328 69.0731C65.0421 68.1926 65.6403 67.1007 66.1329 66.0088C66.6255 64.9169 67.0126 63.7545 67.2941 62.5569C67.3645 62.1695 66.8015 62.0286 66.7311 62.3808C66.4848 63.5432 66.1329 64.6703 65.6403 65.7622C65.1829 66.8541 64.5495 67.8051 63.9513 68.8266C63.8458 69.0379 64.0921 69.2492 64.2328 69.0731Z" fill="#181D23"></path><path d="M61.3122 55.7943C62.1919 54.6319 63.0364 53.4344 63.916 52.272C64.092 52.0255 63.7049 51.8141 63.529 52.0607C62.6845 53.2583 61.8049 54.4206 60.9604 55.6182C60.8196 55.7943 61.1715 56.0056 61.3122 55.7943Z" fill="#181D23"></path><path d="M37.104 25.1152C40.13 22.9314 43.4727 21.3464 47.2729 21.2055C47.871 21.1703 47.871 20.2545 47.2729 20.2897C43.4727 20.4658 39.4615 21.8747 36.8225 24.7278C36.6466 24.9391 36.8929 25.2913 37.104 25.1152Z" fill="#181D23"></path><path d="M47.273 20.642C49.6304 23.5302 51.7416 26.5594 53.2546 30.0112C54.7325 33.4278 55.6825 37.0557 55.9992 40.7541C56.1751 42.8322 56.1751 44.9104 55.964 46.9533C55.8936 47.5873 56.914 47.5873 56.9492 46.9533C57.6881 39.3804 55.788 31.6667 51.7064 25.2561C50.5453 23.4598 49.2434 21.6986 47.66 20.2545C47.3785 20.0079 47.0618 20.3602 47.273 20.642Z" fill="#181D23"></path><path d="M48.2581 21.7691C49.4192 21.4169 50.5452 20.8886 51.7063 20.5363C52.8675 20.1841 54.099 19.9023 55.2953 19.8319C56.3861 19.7614 57.4769 19.7967 58.5325 20.008C59.0603 20.1137 59.5881 20.2546 60.0807 20.4659C60.6437 20.6772 61.1363 20.9942 61.6641 21.2056C62.1215 21.4169 62.6845 20.8533 62.2271 20.4659C61.3826 19.691 60.1159 19.3035 59.0251 19.057C57.864 18.8104 56.6324 18.7752 55.4713 18.8809C54.2046 19.0218 52.973 19.3035 51.7415 19.691C50.51 20.1137 49.2081 20.5716 48.0469 21.2408C47.8006 21.4521 47.9766 21.8748 48.2581 21.7691Z" fill="#181D23"></path><path d="M61.6289 20.3955C62.3326 25.6436 62.1919 31.0327 61.1011 36.2457C60.9604 36.9149 61.9808 37.1967 62.1215 36.5275C63.1419 31.1736 63.2827 25.6789 62.403 20.2898C62.3326 19.8671 61.5937 19.9728 61.6289 20.3955Z" fill="#181D23"></path><path d="M62.9308 21.1704C65.218 22.051 67.1884 23.7416 68.4199 25.855C68.7366 26.3833 69.5811 25.8902 69.2644 25.3619C67.857 23.1076 65.6402 21.4169 63.1068 20.6773C62.7549 20.5716 62.6142 21.0647 62.9308 21.1704Z" fill="#181D23"></path><path d="M56.8437 53.1526C57.09 51.9902 57.3363 50.7927 57.5474 49.6303C57.5826 49.3838 57.2307 49.2781 57.1603 49.5246C56.914 50.687 56.7029 51.8846 56.4566 53.0469C56.4566 53.2582 56.8085 53.3639 56.8437 53.1526Z" fill="#181D23"></path><path d="M57.5824 52.7298C57.7232 52.4128 57.8991 52.0958 58.0399 51.7788C58.0751 51.6731 58.0751 51.5675 57.9695 51.497C57.8639 51.4618 57.7584 51.4618 57.688 51.5675C57.5473 51.8845 57.3713 52.2015 57.2306 52.5185C57.1954 52.6242 57.1954 52.7298 57.301 52.8003C57.4065 52.8355 57.5121 52.8355 57.5824 52.7298Z" fill="#181D23"></path><path d="M74.4016 40.8598C76.6183 39.6974 78.5184 41.6699 79.574 43.431C80.1721 44.4525 80.7703 45.6148 80.8055 46.8124C80.8407 47.8339 80.524 48.8201 79.9962 49.7007C78.8351 51.6731 76.7943 52.8707 74.6831 53.6456C73.5219 54.0683 72.3256 54.4557 71.1292 54.7727C69.8977 55.125 68.6662 55.4067 67.3995 55.3715C66.0624 55.3363 64.7605 54.9841 63.4938 54.5262C62.1567 54.0331 60.9252 53.2934 59.6233 52.7298C58.8492 52.3776 58.2158 53.4343 58.9547 53.8922C60.1511 54.6318 61.4881 55.2306 62.8252 55.759C64.1271 56.2873 65.4642 56.6395 66.8365 56.7452C68.3143 56.8509 69.757 56.5691 71.1644 56.1816C72.5015 55.7942 73.8738 55.3715 75.1757 54.8784C77.6035 53.9274 79.9258 52.5185 81.2277 50.1586C81.7907 49.1019 82.1426 47.8691 82.037 46.6363C81.9315 45.2626 81.3333 43.9946 80.6296 42.8322C79.9258 41.6699 79.011 40.4723 77.7443 39.8735C76.5128 39.31 74.9997 39.2395 73.909 40.1553C73.5219 40.5428 73.9793 41.1063 74.4016 40.8598Z" fill="#181D23"></path><path d="M74.1553 40.1906C74.1553 39.6975 74.1904 39.2044 74.0849 38.7113C73.9441 38.1829 73.733 37.6898 73.4867 37.2319C72.9589 36.3513 72.22 35.6117 71.3755 35.0481C69.581 33.8505 67.2939 33.6392 65.2531 34.3084C63.0715 35.0129 61.2067 36.5627 60.0103 38.5352C58.7436 40.5781 58.1806 43.0084 58.0399 45.3684C57.8639 48.5032 58.4973 51.6028 59.0603 54.6671C59.2362 55.5125 60.5029 55.1603 60.327 54.3149C59.4473 49.8416 58.4973 44.8752 60.4677 40.5076C61.3122 38.6408 62.6493 37.0558 64.4438 36.1048C66.0976 35.2242 68.068 34.9777 69.7921 35.7173C70.707 36.1048 71.5163 36.7388 72.1144 37.4785C72.4311 37.8307 72.6422 38.2534 72.8534 38.7113C73.0645 39.1692 73.2756 39.6975 73.3108 40.2258C73.346 40.719 74.1201 40.719 74.1553 40.1906Z" fill="#181D23"></path><path d="M74.8238 79.2173C74.4016 79.9217 74.2257 80.8375 74.1201 81.6476C74.0145 82.5282 73.9794 83.3736 74.0849 84.2541C74.1553 84.7825 75.0702 84.6768 75.035 84.1132C74.9998 83.3383 74.9998 82.5282 75.0702 81.7533C75.1053 81.4011 75.1757 81.0489 75.2461 80.6614C75.3517 80.274 75.4572 79.8865 75.5276 79.4638C75.6331 79.0764 75.0702 78.7946 74.8238 79.2173Z" fill="#181D23"></path><path d="M76.2313 79.0765C75.8794 79.9218 75.7035 80.8728 75.5628 81.7886C75.422 82.7044 75.3868 83.6554 75.422 84.6064C75.4572 85.2756 76.5128 85.2756 76.4424 84.6064C76.3721 83.7258 76.3721 82.8101 76.4776 81.9295C76.5832 81.0489 76.7943 80.1684 76.9702 79.323C77.111 78.7595 76.4424 78.6186 76.2313 79.0765Z" fill="#181D23"></path><path d="M77.9203 79.4639C77.7444 79.8513 77.6388 80.274 77.5685 80.6967C77.4629 81.0841 77.3926 81.4716 77.3222 81.8942C77.1814 82.7396 77.1111 83.5497 77.1111 84.395C77.1111 84.9938 78.0259 84.9938 78.0611 84.395C78.0963 83.6201 78.1666 82.81 78.2722 82.0351C78.3074 81.6477 78.3777 81.2602 78.4481 80.908C78.5185 80.5205 78.6592 80.0979 78.6944 79.6752C78.7296 79.2525 78.0963 79.0764 77.9203 79.4639Z" fill="#181D23"></path><path d="M79.5037 80.591C78.7647 82.0351 78.448 83.6906 78.624 85.3108C78.6592 85.5926 78.8351 85.8391 79.1518 85.8391C79.3981 85.8391 79.7148 85.5926 79.6796 85.3108C79.5037 83.8667 79.7148 82.3873 80.313 81.0489C80.4185 80.8023 80.3833 80.5557 80.137 80.4148C79.9259 80.3092 79.6444 80.3796 79.5037 80.591Z" fill="#181D23"></path><path d="M81.1574 81.6476C80.9815 82.2112 80.8759 82.81 80.7352 83.4088C80.5944 84.0075 80.4889 84.5711 80.3481 85.1699C80.2778 85.4517 80.4185 85.7687 80.7352 85.8391C81.0167 85.9096 81.3334 85.7687 81.4037 85.4517C81.5093 84.8529 81.65 84.2893 81.7556 83.6905C81.8612 83.0918 82.0019 82.5282 82.0723 81.9294C82.1075 81.6828 82.0019 81.4363 81.7556 81.3658C81.4741 81.2602 81.2278 81.4011 81.1574 81.6476Z" fill="#181D23"></path><path d="M67.294 69.2141C66.7662 70.7639 66.5199 72.4194 66.5199 74.0396C66.5199 74.6736 67.5051 74.6736 67.5051 74.0396C67.5051 72.4898 67.7514 70.9752 68.1384 69.4607C68.2792 68.8971 67.4699 68.6858 67.294 69.2141Z" fill="#181D23"></path><path d="M69.2292 69.5663C68.2088 71.3979 67.7865 73.6169 67.681 75.6599C67.6458 76.3291 68.7014 76.3291 68.7366 75.6599C68.7718 74.6736 68.9125 73.6874 69.1236 72.7364C69.3699 71.7501 69.6866 70.8343 70.0385 69.8833C70.1792 69.4254 69.4403 69.1437 69.2292 69.5663Z" fill="#181D23"></path><path d="M70.3904 71.0809C69.6867 73.0885 69.2997 75.2019 69.1238 77.3153C69.0886 77.9493 70.0738 77.9493 70.109 77.3153C70.2849 75.2724 70.6719 73.2999 71.2349 71.3274C71.3756 70.7638 70.5664 70.5525 70.3904 71.0809Z" fill="#181D23"></path><path d="M71.9035 72.4546C71.2349 74.7088 70.8127 77.0687 70.496 79.4286C70.4609 79.7104 70.7775 79.957 71.0238 79.957C71.3405 79.957 71.5164 79.7104 71.5516 79.4286C71.8331 77.1744 72.3257 74.9554 72.8183 72.7011C72.9238 72.1375 72.0442 71.891 71.9035 72.4546Z" fill="#181D23"></path><path d="M73.6275 74.9553C72.6774 76.4347 72.2552 78.1606 72.3256 79.9217C72.3256 80.2387 72.5719 80.4853 72.8885 80.4853C73.17 80.4853 73.4867 80.2035 73.4515 79.9217C73.3108 78.3719 73.6978 76.8221 74.4719 75.4837C74.8238 74.8849 73.9793 74.3917 73.6275 74.9553Z" fill="#181D23"></path><path d="M60.6086 58.0838C60.7142 58.0485 60.679 58.0485 60.5734 58.0838C60.5031 58.119 60.4679 58.1542 60.4327 58.2247C60.3623 58.3303 60.3271 58.436 60.2919 58.5417C60.2216 58.7178 60.1864 58.8939 60.116 59.07C60.0104 59.4575 59.9401 59.8449 59.8697 60.2676C59.7641 61.0777 59.7993 61.8526 59.9049 62.6275C59.9401 62.9093 60.2919 63.0502 60.503 62.9797C60.7845 62.9093 60.8901 62.6275 60.8549 62.3809C60.7494 61.7117 60.7494 61.0073 60.8197 60.3028C60.8549 59.9858 60.9253 59.6336 60.9957 59.3166C61.0309 59.1404 61.066 58.9643 61.1364 58.7882C61.1716 58.7178 61.1716 58.6473 61.2068 58.5769C61.242 58.436 61.2068 58.3656 61.1364 58.2247C61.1364 58.2951 61.1364 58.3303 61.1364 58.4008C61.1364 58.3656 61.1364 58.3656 61.1364 58.3303C61.1716 58.0133 60.7846 57.802 60.6086 58.0838Z" fill="#181D23"></path><path d="M61.9105 58.1541C61.629 59.1756 61.5234 60.2675 61.3475 61.2889C61.1716 62.3456 61.0308 63.4023 60.8549 64.459C60.8197 64.7055 60.9253 64.9873 61.2068 65.0577C61.4179 65.1282 61.7697 64.9873 61.8049 64.7055C61.9809 63.6136 62.1216 62.5569 62.2623 61.465C62.4031 60.4084 62.6142 59.3165 62.6494 58.2245C62.6142 57.8371 62.016 57.7666 61.9105 58.1541Z" fill="#181D23"></path><path d="M63.318 60.2675C62.7902 62.2752 62.4383 64.3181 62.0161 66.361C61.8754 66.995 62.8606 67.2768 62.9661 66.6428C63.3532 64.5646 63.8458 62.4865 64.0921 60.4084C64.1976 59.9152 63.4235 59.8448 63.318 60.2675Z" fill="#181D23"></path><path d="M64.4438 61.4298C64.0567 63.367 63.7753 65.3395 63.4234 67.2767C63.353 67.5585 63.4938 67.8755 63.8104 67.946C64.0567 68.0164 64.4438 67.8403 64.479 67.5585C64.7605 65.5508 65.1123 63.5431 65.3586 61.5355C65.429 61.0423 64.5493 60.9367 64.4438 61.4298Z" fill="#181D23"></path><path d="M66.4847 63.2967C66.2384 64.459 65.9921 65.6566 65.7458 66.8189C65.6754 67.1007 65.8161 67.4177 66.1328 67.4881C66.4143 67.5586 66.7662 67.4177 66.8014 67.1007C67.0125 65.9031 67.2236 64.7408 67.4347 63.5432C67.4699 63.2614 67.3643 63.0149 67.0828 62.9092C66.8717 62.874 66.555 63.0501 66.4847 63.2967Z" fill="#181D23"></path><path d="M24.7184 30.5043C25.035 30.5395 25.3165 30.469 25.6332 30.3986C25.9147 30.3282 26.2314 30.2577 26.5128 30.152C27.111 29.9759 27.674 29.7294 28.237 29.4476C28.6944 29.201 28.2722 28.4966 27.8147 28.7431C27.3221 29.0249 26.7943 29.2715 26.2665 29.4828C26.0202 29.5885 25.7387 29.6942 25.4573 29.7646C25.1758 29.8703 24.8943 29.9407 24.6128 30.0816C24.4017 30.1873 24.5072 30.469 24.7184 30.5043Z" fill="#181D23"></path><path d="M27.8852 31.561C28.8352 31.3496 29.7852 31.1383 30.7353 30.8917C30.9464 30.8213 31.0871 30.5747 31.052 30.3634C30.9816 30.1521 30.7353 30.0112 30.5242 30.0464C29.5741 30.2929 28.6593 30.5395 27.7092 30.7861C27.4981 30.8565 27.3925 31.0678 27.4277 31.244C27.4629 31.4905 27.674 31.5962 27.8852 31.561Z" fill="#181D23"></path><path d="M30.1371 32.8642C30.9112 32.7586 31.6853 32.6881 32.4946 32.5825C32.7058 32.5472 32.9169 32.4063 32.9169 32.1598C32.9169 31.9484 32.741 31.7019 32.4946 31.7371C31.7205 31.8428 30.9464 31.9484 30.1371 32.0189C29.926 32.0541 29.7148 32.195 29.7148 32.4416C29.75 32.6529 29.926 32.8642 30.1371 32.8642Z" fill="#181D23"></path><path d="M33.0575 34.6958C33.8317 34.5197 34.6058 34.3436 35.3799 34.1675C35.591 34.1322 35.7318 33.8857 35.6614 33.6743C35.591 33.463 35.3799 33.3573 35.1688 33.3926C34.3946 33.5687 33.6205 33.78 32.8464 33.9913C32.6705 34.0266 32.5297 34.2731 32.6001 34.4492C32.6705 34.6254 32.8464 34.731 33.0575 34.6958Z" fill="#181D23"></path><path d="M34.7466 36.4923C35.4503 36.6332 36.1892 36.457 36.7522 35.9639C36.8929 35.823 36.8929 35.5413 36.7522 35.4356C36.5763 35.2947 36.3651 35.2947 36.2244 35.4356C36.1892 35.4708 36.1892 35.506 36.154 35.506C36.1892 35.4708 36.1892 35.4708 36.154 35.506L36.1188 35.5412C36.0485 35.5765 36.0133 35.6117 35.9429 35.6469C35.8725 35.6821 35.8374 35.7174 35.767 35.7526C35.8725 35.7174 35.767 35.7526 35.7318 35.7526C35.6966 35.7526 35.6614 35.7878 35.6262 35.7878C35.5559 35.823 35.4855 35.823 35.4151 35.823H35.3799C35.3447 35.823 35.3447 35.823 35.4151 35.823C35.3799 35.823 35.3447 35.823 35.3096 35.823C35.2392 35.823 35.1688 35.823 35.0984 35.823C35.0633 35.823 35.0281 35.823 34.9929 35.823H34.9577C35.0281 35.823 34.9929 35.823 34.9577 35.823C34.7818 35.7878 34.5706 35.8583 34.5355 36.0696C34.4651 36.2457 34.5355 36.457 34.7466 36.4923Z" fill="#181D23"></path><path d="M36.8225 38.7464C37.2095 38.676 37.5966 38.6056 37.9836 38.5351C38.3707 38.4647 38.7577 38.359 39.1448 38.2886C39.3911 38.2533 39.5318 37.9715 39.4614 37.725C39.3911 37.4784 39.1448 37.3728 38.8985 37.408C38.5114 37.4784 38.1244 37.5841 37.7373 37.6545C37.3503 37.7602 36.9632 37.8307 36.5762 37.9363C36.365 38.0068 36.2243 38.2181 36.2947 38.4294C36.4002 38.676 36.6114 38.7817 36.8225 38.7464Z" fill="#181D23"></path><path d="M39.4263 41.2472C39.9893 41.1768 40.5171 41.0711 41.08 41.0007C41.1856 41.0007 41.2911 40.895 41.3263 40.7893C41.3967 40.6837 41.3967 40.578 41.3615 40.4723C41.2912 40.2258 41.08 40.1201 40.8337 40.1553C40.3059 40.261 39.7429 40.3314 39.2151 40.4371C39.004 40.4723 38.8633 40.7541 38.9337 40.9302C38.9688 41.0359 39.0392 41.1416 39.1096 41.1768C39.18 41.2824 39.2855 41.2824 39.4263 41.2472Z" fill="#181D23"></path><path d="M40.2355 43.4663C40.7985 43.431 41.3263 43.3254 41.8893 43.2549C42.03 43.2197 42.1356 43.2197 42.2411 43.114C42.3467 43.0084 42.3819 42.8675 42.3819 42.7266C42.3819 42.5857 42.3115 42.48 42.2059 42.4096C42.0652 42.3039 41.9597 42.3039 41.7837 42.3391C41.2559 42.4448 40.6929 42.5152 40.1652 42.6209C39.954 42.6561 39.8133 42.9027 39.8485 43.114C39.8485 43.2901 40.0244 43.4663 40.2355 43.4663Z" fill="#181D23"></path><path d="M40.7283 46.2841C41.3264 46.2136 41.8894 46.1432 42.4876 46.0375C42.5931 46.0375 42.6987 45.8966 42.7691 45.8262C42.8394 45.7205 42.8394 45.5796 42.8042 45.4739C42.7691 45.3683 42.6987 45.2626 42.5931 45.1922C42.4876 45.1217 42.382 45.1217 42.2413 45.1569C41.6783 45.2274 41.1505 45.333 40.5875 45.4387C40.4819 45.4387 40.3764 45.5444 40.3412 45.65C40.306 45.7557 40.2708 45.8262 40.306 45.9318C40.306 46.1079 40.482 46.3193 40.7283 46.2841Z" fill="#181D23"></path><path d="M40.2356 48.3271C40.9393 48.2566 41.643 48.1862 42.3467 48.1158C42.593 48.0805 42.8394 47.9044 42.8394 47.6226C42.8394 47.3761 42.6282 47.0943 42.3467 47.1295C41.6078 47.2352 40.8689 47.3056 40.13 47.4465C39.9189 47.4818 39.7782 47.7283 39.8133 47.9396C39.8133 48.151 40.0245 48.3271 40.2356 48.3271Z" fill="#181D23"></path><path d="M39.4264 51.3915C39.8135 51.4971 40.2357 51.4619 40.6227 51.3915C40.9746 51.321 41.3617 51.1801 41.6432 50.9688C41.8543 50.8279 41.9598 50.5461 41.8191 50.2996C41.6783 50.0882 41.3617 49.9826 41.1505 50.1234C41.0098 50.1939 40.8691 50.2643 40.7283 50.3348C40.7283 50.3348 40.6227 50.37 40.6227 50.4052C40.6931 50.37 40.6931 50.37 40.6579 50.4052C40.6227 50.4052 40.6227 50.4052 40.5876 50.4404C40.5172 50.4757 40.4468 50.4757 40.3764 50.5109C40.3061 50.5461 40.2357 50.5461 40.1653 50.5813C40.1301 50.5813 40.095 50.5813 40.0246 50.6166C39.9894 50.6166 39.9894 50.6166 39.9542 50.6166C40.0246 50.6166 40.0246 50.6166 39.9894 50.6166C39.919 50.6166 39.8486 50.6166 39.7783 50.6166C39.7079 50.6166 39.6375 50.6166 39.5671 50.6518C39.5319 50.6518 39.3912 50.687 39.532 50.6518C39.3208 50.687 39.1449 50.7927 39.1097 51.004C39.1097 51.1449 39.2153 51.321 39.4264 51.3915Z" fill="#181D23"></path><path d="M38.9689 53.8218C39.5319 53.6809 40.0597 53.5048 40.6227 53.3639C40.869 53.2935 41.0449 53.0117 40.9745 52.7652C40.9041 52.5186 40.6227 52.3425 40.3764 52.4129C39.8134 52.5538 39.2856 52.7299 38.7226 52.906C38.4763 52.9765 38.3004 53.2583 38.3708 53.5048C38.4411 53.7514 38.6874 53.8923 38.9689 53.8218Z" fill="#181D23"></path><path d="M42.2413 47.5874C42.1005 48.6089 42.2061 49.6303 42.4172 50.6518C42.5931 51.6732 42.9098 52.6242 43.332 53.5753C43.4376 53.8218 43.7895 53.857 44.0006 53.7514C44.2469 53.6105 44.2821 53.3287 44.1765 53.0821C43.7895 52.2368 43.4728 51.3562 43.2969 50.4404C43.0857 49.5246 43.0506 48.6089 42.945 47.6578C42.9098 47.4817 42.8394 47.3408 42.6283 47.3056C42.4876 47.3056 42.2765 47.4113 42.2413 47.5874Z" fill="#181D23"></path><path d="M45.021 48.1509C45.1617 49.5246 45.2673 50.9335 45.5136 52.3072C45.584 52.8356 46.4637 52.6947 46.4285 52.1663C46.3229 50.7926 46.1118 49.3837 45.9359 48.01C45.9007 47.7987 45.6192 47.6578 45.4433 47.693C45.2321 47.7283 45.021 47.9044 45.021 48.1509Z" fill="#181D23"></path><path d="M46.0765 46.7421C46.2173 48.0805 46.3229 49.419 46.4988 50.7575C46.534 51.0392 46.7099 51.2858 47.0266 51.2858C47.2729 51.2858 47.5544 51.0392 47.5544 50.7575C47.4137 49.419 47.2377 48.0805 47.0618 46.7421C47.0266 46.4955 46.8507 46.2489 46.5692 46.2489C46.2877 46.2842 46.0414 46.4955 46.0765 46.7421Z" fill="#181D23"></path><path d="M48.434 46.4954C48.3636 47.9043 48.5043 49.278 48.8914 50.6164C49.0673 51.2505 50.0174 50.9687 49.8766 50.3347C49.5951 49.0666 49.4192 47.7634 49.4192 46.4602C49.4192 45.8614 48.4692 45.8614 48.434 46.4954Z" fill="#181D23"></path><path d="M52.4102 46.883C52.3398 47.2704 52.375 47.6579 52.4102 48.0453C52.4102 48.4328 52.4454 48.8202 52.4805 49.1725C52.5157 49.9473 52.5509 50.687 52.6213 51.4619C52.6213 51.7437 52.8324 51.9903 53.1491 51.9903C53.3954 51.9903 53.6769 51.7437 53.6769 51.4619C53.6065 50.687 53.5361 49.9473 53.4658 49.1725C53.4306 48.785 53.3954 48.3976 53.3602 48.0453C53.325 47.6931 53.2898 47.2352 53.1843 46.883C53.0083 46.566 52.4805 46.4955 52.4102 46.883Z" fill="#181D23"></path><path d="M54.1694 47.9044C53.9935 49.3838 53.8879 50.8983 53.8528 52.3777C53.8528 52.6595 54.099 52.8708 54.3454 52.8708C54.6269 52.8708 54.8028 52.6595 54.838 52.3777C54.9787 50.8983 55.0491 49.3838 55.0491 47.9044C55.0491 47.6578 54.838 47.4817 54.6269 47.4817C54.3454 47.4817 54.2046 47.6931 54.1694 47.9044Z" fill="#181D23"></path><path d="M55.8584 49.2076C55.788 49.4893 55.7528 49.8063 55.7177 50.0881C55.6825 50.3699 55.6473 50.6517 55.6121 50.9335C55.5417 51.497 55.5065 52.0606 55.4713 52.6241C55.4362 52.8707 55.7177 53.1173 55.964 53.1173C56.2454 53.1173 56.4213 52.9059 56.4565 52.6241C56.4917 52.0606 56.5621 51.5322 56.5973 50.9687C56.5973 50.6869 56.6325 50.4403 56.6325 50.1586C56.6325 49.8768 56.6677 49.595 56.6325 49.3132C56.5973 49.1019 56.4917 48.9258 56.2806 48.9258C56.1047 48.8905 55.8936 49.0314 55.8584 49.2076Z" fill="#181D23"></path><path d="M56.8084 53.7513C56.8084 53.7513 56.8084 53.7865 56.8436 53.8217C56.8436 53.7865 56.8084 53.7513 56.8084 53.716C56.8436 53.7865 56.8788 53.8922 56.8788 53.9626C56.9139 54.0331 56.9139 54.1387 56.9491 54.2092C56.9491 54.1739 56.9491 54.1387 56.9491 54.0683C56.9491 54.1739 56.9491 54.3148 56.9491 54.4205C56.9491 54.3853 56.9491 54.3148 56.9843 54.2796C56.9843 54.3853 56.9491 54.4557 56.914 54.5614C56.8788 54.6671 56.9139 54.8432 56.9491 54.9488C57.0195 55.0545 57.1251 55.1602 57.2658 55.1954C57.5473 55.2658 57.8288 55.125 57.8992 54.8432C57.9696 54.5614 57.9696 54.2444 57.9344 53.9626C57.8992 53.8217 57.864 53.7161 57.8288 53.6104C57.7584 53.4695 57.6529 53.3286 57.5473 53.2229C57.4066 53.0468 57.1251 53.0468 56.9843 53.1877C56.9139 53.2582 56.8436 53.3286 56.8436 53.399C56.738 53.5399 56.7732 53.6456 56.8084 53.7513Z" fill="#181D23"></path><path d="M27.6389 48.8553C27.5686 49.595 27.6741 50.3699 27.8852 51.0743C28.0612 51.7788 28.3778 52.4832 28.7297 53.1525C29.0464 53.716 29.9612 53.1877 29.6093 52.6241C29.2575 52.0253 29.0112 51.4265 28.8001 50.7925C28.5889 50.1233 28.5186 49.4541 28.413 48.7848C28.3778 48.6087 28.1667 48.4678 27.9908 48.5031C27.7797 48.5031 27.6741 48.644 27.6389 48.8553Z" fill="#181D23"></path><path d="M29.6445 49.8064C29.6093 51.0392 29.8556 52.3072 30.313 53.4696C30.4185 53.7513 30.6649 53.9274 30.9815 53.857C31.2278 53.7866 31.4741 53.4696 31.3686 53.1878C30.9463 52.0959 30.7352 50.9335 30.5945 49.8064C30.5593 49.5598 30.3834 49.3485 30.1371 49.3485C29.8556 49.3485 29.6445 49.5598 29.6445 49.8064Z" fill="#181D23"></path><path d="M31.0871 49.8065C31.0519 50.4052 31.1574 51.004 31.263 51.5676C31.3686 52.1311 31.5445 52.6947 31.7204 53.223C31.826 53.4696 32.0723 53.6809 32.3538 53.5753C32.6001 53.5048 32.8464 53.1878 32.7056 52.9413C32.4945 52.4129 32.3186 51.8846 32.1778 51.321C32.0371 50.7575 32.0019 50.2291 31.8964 49.6656C31.8612 49.4542 31.6149 49.3133 31.4038 49.3486C31.263 49.419 31.1223 49.5951 31.0871 49.8065Z" fill="#181D23"></path><path d="M33.3039 48.9963C33.1983 49.3133 33.1631 49.7008 33.1631 50.053C33.128 50.4052 33.128 50.7574 33.1631 51.1097C33.2335 51.8493 33.3391 52.5538 33.6206 53.223C33.7261 53.4696 33.9724 53.6457 34.2539 53.5752C34.5002 53.5048 34.7113 53.223 34.6058 52.9412C34.3947 52.3425 34.2187 51.7085 34.1484 51.0744C34.1132 50.7574 34.078 50.4404 34.078 50.1234C34.078 49.7712 34.1132 49.419 34.1132 49.102C34.0428 48.6441 33.4446 48.5736 33.3039 48.9963Z" fill="#181D23"></path><path d="M34.8169 48.9963C34.7817 49.2781 34.7466 49.5599 34.7466 49.8769C34.7466 50.1587 34.7817 50.4757 34.8521 50.7575C34.9577 51.321 35.1336 51.8846 35.3447 52.4129C35.4503 52.6595 35.8373 52.7299 36.0485 52.5891C36.2948 52.4129 36.3652 52.1312 36.2244 51.8846C36.154 51.7789 36.1188 51.638 36.0485 51.5324C36.0837 51.5676 36.0133 51.4267 36.0133 51.4267C35.9781 51.3563 35.9781 51.321 35.9429 51.2506C35.8725 51.004 35.8022 50.7927 35.7318 50.5461C35.6262 50.053 35.5559 49.5951 35.4855 49.102C35.4503 48.9259 35.3799 48.785 35.1688 48.7498C35.0632 48.7145 34.8521 48.8202 34.8169 48.9963Z" fill="#181D23"></path><path d="M37.0688 48.7145C37.3151 49.6655 37.5614 50.6165 37.8429 51.6027C37.9133 51.8845 38.2299 52.0958 38.5114 51.9902C38.7929 51.9197 39.004 51.6027 38.8985 51.3209C38.5818 50.3699 38.2299 49.4541 37.8781 48.5031C37.8077 48.2918 37.5966 48.1157 37.3503 48.1861C37.1391 48.2566 36.9984 48.5031 37.0688 48.7145Z" fill="#181D23"></path></svg> 