<?xml version="1.0" encoding="UTF-8"?> <svg xmlns="http://www.w3.org/2000/svg" width="101" height="122" viewBox="0 0 101 122" fill="none"><path d="M42.7501 13.5L13.0001 24.75V29.375C12.8126 29.7292 12.2501 30.5875 11.5001 31.1875C10.7501 31.7875 11.1876 32.6042 11.5001 32.9375L13.6876 34.1875C13.9167 36.875 14.4876 42.65 14.9376 44.25C15.3876 45.85 15.1251 55.875 14.9376 60.6875L14.3751 63.0625C28.0417 70.4792 55.7375 85.5 57.1875 86.25C58.6376 87 61.7084 86.5625 63.0625 86.25L87.0001 72L86.1251 44.0625C86.7084 43.3958 88.0001 41.7625 88.5001 40.5625C89.0001 39.3625 87.7084 39.0208 87.0001 39L86.5001 34.25L42.7501 13.5Z" fill="#FE6869"></path><g opacity="0.2"><path fill-rule="evenodd" clip-rule="evenodd" d="M57.1875 86.25C58.0949 86.7193 59.6369 86.7236 60.9959 86.5846L60.25 56.875L13.0001 33.7946L13.6876 34.1875C13.9167 36.875 14.4876 42.65 14.9376 44.25C15.3876 45.85 15.1251 55.875 14.9376 60.6875L14.3751 63.0625C28.0417 70.4792 55.7375 85.5 57.1875 86.25Z" fill="black"></path><path d="M13.0001 29.375C12.9421 29.4844 12.8484 29.642 12.7243 29.8253C12.8909 30.1237 13.1921 30.5612 13.6876 31.1875C15.3375 33.2732 42.9167 46.8482 56.5 53.375L60.25 54.125V49.125L53.25 47.875L40 41.625L13.0001 25.75V29.375Z" fill="black"></path></g><path d="M40 26.5L44.375 29.875L37.25 33.5L44.375 38.25L49.75 34.375L56.625 38.25L62.125 34.375L54.375 29.875L60 26.5L54.375 24.25L51 26.5L47 23.25L40 26.5Z" fill="#EFFAFE"></path><path d="M59.9533 57.2037C61.1889 57.0042 62.3846 56.4456 63.5405 55.9668C64.7362 55.488 65.8921 54.9693 67.0479 54.4507C69.3198 53.4133 71.5917 52.3759 73.8237 51.2588C78.3276 48.9845 82.7518 46.5507 87.0565 43.8775C88.013 43.279 89.1291 42.5609 89.3283 41.4038C89.5276 40.3664 89.0095 39.1296 87.8935 38.97C86.9767 38.8104 86.5782 40.1669 87.4949 40.4063C88.1725 40.5659 87.734 41.4836 87.4152 41.8028C86.6977 42.521 85.7013 42.9598 84.8244 43.4785C82.8316 44.6755 80.8387 45.8326 78.8458 46.9497C74.86 49.1441 70.7946 51.179 66.6494 53.0941C65.4536 53.6527 64.2579 54.1714 63.0622 54.69C61.9063 55.2486 60.6309 55.6875 59.5547 56.4057C59.196 56.685 59.475 57.2835 59.9533 57.2037Z" fill="#181D23"></path><path d="M11.9649 33.7432C15.0738 35.778 18.4218 37.4538 21.6901 39.2093C24.9186 40.9648 28.1869 42.6805 31.4552 44.3961C37.952 47.8673 44.4488 51.3385 50.9854 54.7698C54.2538 56.4854 57.9605 58.1212 61.7071 57.1238C62.6637 56.8844 62.2651 55.4081 61.3086 55.6475C58.1199 56.4854 54.8915 55.049 52.0616 53.6127C48.873 51.9769 45.7242 50.2612 42.5755 48.5855C36.1584 45.1941 29.7414 41.8027 23.3243 38.3714C19.7371 36.4563 16.1101 34.4215 12.3635 32.8654C11.8055 32.626 11.5265 33.4639 11.9649 33.7432Z" fill="#181D23"></path><path d="M11.9648 33.4241C11.9648 33.3842 11.9249 33.3842 11.9249 33.3443C11.8851 33.2246 11.9249 33.3842 11.9249 33.3044C11.9249 33.2645 11.8851 33.2246 11.8851 33.1448C11.8452 33.0251 11.8452 32.9054 11.8053 32.7857C11.8053 32.8655 11.8053 32.7059 11.8053 32.7857C11.8053 32.7458 11.8053 32.7059 11.8053 32.7059C11.8053 32.666 11.8053 32.5862 11.8053 32.5463C11.8053 32.5064 11.8053 32.4266 11.8053 32.3867C11.8053 32.3468 11.8053 32.3468 11.8053 32.3069C11.7655 32.4266 11.8053 32.2271 11.8053 32.3069C11.8452 32.1872 11.8452 32.1074 11.8851 31.9877C11.8851 31.9478 11.9249 31.868 11.9249 31.8281C11.9249 31.8281 11.9648 31.7882 11.9648 31.7483C11.9648 31.7882 11.9249 31.868 11.9648 31.7882C12.0046 31.6685 12.0844 31.5887 12.1242 31.469C12.1641 31.4291 12.2039 31.3892 12.2039 31.3493C12.1242 31.4291 12.2039 31.3892 12.2039 31.3493C12.2438 31.3095 12.2438 31.3095 12.2836 31.2696C12.4829 31.0302 12.5228 30.6711 12.2836 30.4317C12.0445 30.2322 11.6858 30.1923 11.4466 30.4317C10.6096 31.3494 10.49 32.7857 11.2473 33.7832C11.3669 33.9428 11.6061 34.0625 11.8053 33.9428C12.0445 33.863 12.0844 33.6236 11.9648 33.4241Z" fill="#181D23"></path><path d="M12.6027 25.0853C12.523 25.8832 12.4433 26.6812 12.4034 27.4393C12.3635 28.1973 12.244 28.9953 12.2838 29.7534C12.3237 30.4317 12.4831 31.1099 12.9614 31.6685C13.3998 32.1872 14.0774 32.4266 14.755 32.2271C15.4326 32.0276 15.1536 31.07 14.476 31.1897C14.0774 31.2695 13.7187 30.8706 13.5593 30.5514C13.3201 30.0726 13.3998 29.4741 13.3998 28.9554C13.4397 27.6787 13.5194 26.362 13.5194 25.0853C13.4796 24.5267 12.6824 24.5267 12.6027 25.0853Z" fill="#181D23"></path><path d="M13.4793 32.1074C15.1135 33.2245 16.7476 34.3018 18.4615 35.2992C20.0957 36.2568 21.7697 37.1745 23.4437 38.0921C26.8316 39.9275 30.2992 41.7229 33.7668 43.3987C34.3248 43.678 34.8031 42.8401 34.2451 42.6007C27.27 39.2093 20.5341 35.4189 13.7185 31.7483C13.4395 31.5887 13.2402 31.9478 13.4793 32.1074Z" fill="#181D23"></path><path d="M54.3732 53.0543C56.9241 54.5305 60.033 54.8497 62.8629 54.0118C63.3412 53.8522 63.1419 53.1341 62.6636 53.2537C59.9533 53.9719 57.1234 53.7325 54.5326 52.6553C54.2935 52.5356 54.1341 52.9346 54.3732 53.0543Z" fill="#181D23"></path><path d="M80.7989 43.9574C81.7555 43.1195 82.7918 42.3614 83.8679 41.6831C84.9441 41.0049 86.0601 40.4463 87.1761 39.8478C87.6544 39.5685 87.216 38.8902 86.7377 39.1296C85.542 39.6483 84.4658 40.4064 83.4295 41.1645C82.3932 41.9225 81.3968 42.7604 80.48 43.6382C80.2808 43.8377 80.5996 44.1569 80.7989 43.9574Z" fill="#181D23"></path><path d="M87.6145 39.4887C87.6543 38.611 87.5348 37.7332 87.4949 36.8155C87.455 35.9378 87.4152 35.0201 87.455 34.1423C87.455 33.7433 87.0963 33.4242 86.7376 33.4242C86.339 33.4242 85.9803 33.7433 86.0202 34.1423C86.0202 35.06 86.0999 35.9777 86.2194 36.8953C86.339 37.813 86.4586 38.7307 86.8173 39.6084C86.897 40.0473 87.5746 40.0074 87.6145 39.4887Z" fill="#181D23"></path><path d="M12.802 25.0454C15.2333 24.3272 17.5451 23.4095 19.9365 22.5317C22.328 21.6141 24.7194 20.7363 27.1109 19.8186C29.4625 18.9409 31.8141 18.0232 34.2055 17.1454C35.4012 16.7065 36.6368 16.2278 37.8326 15.7889C38.9486 15.35 40.1044 14.8712 41.2603 14.552C42.4162 14.2328 43.4923 14.3924 44.5685 14.8712C45.6845 15.35 46.7607 15.9485 47.8767 16.4672C50.1485 17.5843 52.3806 18.7015 54.6525 19.7787C59.1564 22.0131 63.7001 24.2075 68.204 26.4418C73.3058 28.9554 78.4873 31.3493 83.5093 33.9827C84.3463 34.4215 85.1036 33.1049 84.2666 32.7059C79.6033 30.5514 74.9798 28.1574 70.3563 25.9231C65.7329 23.6489 61.1492 21.4146 56.5258 19.1404C54.2539 18.0232 51.9421 16.906 49.6703 15.7889C48.4745 15.1904 47.3187 14.6318 46.1229 14.0333C45.0866 13.5147 44.0105 13.0758 42.8546 12.9561C41.6589 12.8763 40.503 13.2753 39.387 13.6742C38.1913 14.153 36.9557 14.5919 35.76 15.0707C33.3685 15.9884 30.9771 16.906 28.5856 17.8237C25.8753 18.8611 23.2048 19.8984 20.4945 20.9358C17.7842 21.9732 15.034 22.9706 12.4034 24.2075C11.9251 24.407 12.2839 25.205 12.802 25.0454Z" fill="#181D23"></path><path d="M12.523 25.6837C15.8311 28.0777 19.3386 30.1923 22.8461 32.3069C26.3535 34.3816 29.9008 36.4165 33.488 38.3715C37.1151 40.3265 40.7421 42.2417 44.409 44.1169C46.2026 45.0346 48.036 45.9124 49.8296 46.7901C51.5834 47.628 53.3371 48.426 55.2104 48.9845C58.8773 50.0618 63.2218 49.9022 66.1314 47.1492C66.7292 46.5906 65.8125 45.673 65.2146 46.2315C62.7435 48.5856 59.0367 48.7053 55.888 47.8674C54.0545 47.3886 52.3008 46.5906 50.6268 45.7927C48.873 44.9548 47.1193 44.077 45.3656 43.1992C38.2311 39.6483 31.256 35.8579 24.4005 31.868C20.5343 29.6337 16.7479 27.2797 12.8418 25.1252C12.4831 24.8858 12.1642 25.4444 12.523 25.6837Z" fill="#181D23"></path><path d="M71.1534 44.5159C73.4651 43.1993 75.6174 41.5634 77.8494 40.0473C78.9655 39.2892 80.0815 38.571 81.1975 37.8529C81.7555 37.4938 82.3135 37.1347 82.8715 36.8155C83.4694 36.4564 84.0672 35.9776 84.7049 35.7382C85.6217 35.3792 84.8644 34.1024 84.1071 34.7408C83.5889 35.1797 82.9114 35.5387 82.3135 35.8978C81.7555 36.2569 81.1975 36.616 80.6395 36.9751C79.4836 37.7332 78.3676 38.4513 77.2516 39.2493C75.0594 40.7655 72.7875 42.2816 70.8744 44.1968C70.7149 44.3563 70.9541 44.6356 71.1534 44.5159Z" fill="#181D23"></path><path d="M50.7863 26.5216H50.8261C50.7464 26.5216 50.7066 26.4817 50.6269 26.4817C50.6269 26.4817 50.6269 26.4817 50.6269 26.4418C50.7066 26.4817 50.7464 26.5216 50.7863 26.5216C50.866 26.6013 50.9457 26.6013 51.0653 26.6013C51.145 26.6013 51.2646 26.5615 51.3443 26.5615C51.5037 26.5216 51.6631 26.4418 51.8226 26.4019C52.1813 26.2822 52.5002 26.0827 52.8589 25.9231C53.4966 25.6039 54.0945 25.165 54.6525 24.7261C54.8916 24.5266 54.8916 24.0478 54.6525 23.8483C54.3735 23.609 54.0546 23.609 53.7756 23.8483C53.6959 23.8882 53.656 23.968 53.5763 24.0079C53.5365 24.0478 53.4966 24.0478 53.4966 24.0877C53.377 24.2074 53.2176 24.2872 53.098 24.367C52.819 24.5665 52.54 24.7261 52.261 24.8857C51.982 25.0453 51.703 25.2049 51.424 25.3246C51.2646 25.4044 51.1051 25.4842 50.9856 25.564C50.9059 25.6039 50.8261 25.6438 50.7464 25.7236C50.6269 25.8433 50.587 25.963 50.5471 26.0827C50.587 26.0428 50.6269 25.963 50.6269 25.9231L50.587 25.963C50.308 26.1226 50.5073 26.5216 50.7863 26.5216Z" fill="#181D23"></path><path d="M54.2537 24.7262C55.1306 25.2847 56.0871 25.6837 57.0437 26.1226C57.522 26.3221 58.0003 26.5216 58.4786 26.761C58.9967 26.9605 59.5149 27.3196 60.0729 27.3595C60.591 27.3994 60.9099 26.6413 60.5113 26.3221C60.1127 26.0029 59.5547 25.8433 59.0764 25.6438C58.5583 25.4443 58.08 25.2049 57.5619 25.0055C56.6053 24.6065 55.6487 24.1676 54.6124 23.9282C54.0943 23.8085 53.8551 24.4469 54.2537 24.7262Z" fill="#181D23"></path><path d="M61.3484 26.6013C60.9498 26.2023 60.1527 26.6811 59.7541 26.8806C59.2758 27.12 58.7576 27.3195 58.2793 27.5588C57.8011 27.7982 57.3228 28.0376 56.8046 28.277C56.2865 28.5164 55.7683 28.7558 55.2502 29.075C54.9712 29.2346 54.8516 29.5937 54.9712 29.873C55.0907 30.1523 55.4495 30.3518 55.7285 30.2321C56.8445 29.7932 57.8808 29.1548 58.9171 28.5962C59.4352 28.3169 59.9534 28.0376 60.4317 27.7583C60.6708 27.5987 60.9498 27.479 61.1491 27.2796C61.3882 27.1599 61.5875 26.8407 61.3484 26.6013Z" fill="#181D23"></path><path d="M54.3732 30.9105C55.6885 31.8282 57.1234 32.5463 58.5583 33.2645C59.2757 33.6236 59.9931 33.9428 60.7504 34.262C61.428 34.5812 62.2251 35.06 62.9824 35.0999C63.4607 35.1397 63.7796 34.4216 63.381 34.1024C62.7832 33.6236 61.9063 33.3842 61.2287 33.1049C60.5113 32.7857 59.754 32.4665 59.0365 32.1075C57.6017 31.4292 56.1668 30.7509 54.6921 30.1524C54.2138 30.0327 54.0145 30.6711 54.3732 30.9105Z" fill="#181D23"></path><path d="M62.5041 33.7033C61.3881 34.3018 60.3917 35.0599 59.3155 35.6982C58.7974 36.0174 58.2394 36.3366 57.6814 36.6558C57.1233 36.975 56.5653 37.2144 56.0472 37.5735C55.7682 37.773 55.6486 38.0922 55.7682 38.4113C55.8878 38.6906 56.2465 38.93 56.5255 38.8103C57.1632 38.5709 57.7212 38.2118 58.2792 37.8528C58.8372 37.5336 59.3952 37.1745 59.9134 36.8154C60.9895 36.0972 62.1055 35.379 63.0223 34.4614C63.4607 34.0624 62.9824 33.424 62.5041 33.7033Z" fill="#181D23"></path><path d="M56.0871 38.1721C55.6885 37.7332 55.2102 37.3742 54.7319 37.0151C54.2935 36.6959 53.8551 36.3368 53.3768 36.0575C52.4601 35.4191 51.5433 34.7009 50.5469 34.1424C50.228 33.9429 49.7497 34.0626 49.5505 34.4216C49.3512 34.7807 49.5106 35.1797 49.8295 35.4191C50.7462 36.0974 51.7426 36.656 52.6992 37.2944C53.1775 37.5736 53.6159 37.8529 54.0942 38.1721C54.6124 38.4913 55.0907 38.7706 55.6487 38.9701C56.0871 39.0499 56.3262 38.4913 56.0871 38.1721Z" fill="#181D23"></path><path d="M50.4671 34.1024C50.1483 34.1024 49.8693 34.1024 49.5504 34.1822C49.2714 34.262 48.9525 34.3418 48.6735 34.4614C48.0757 34.6609 47.4778 34.9402 46.9198 35.1796C46.3618 35.419 45.8436 35.7382 45.3654 36.0574C45.0863 36.217 44.8472 36.3766 44.6081 36.5761C44.3291 36.7756 44.0102 36.9751 43.8109 37.2543C43.3326 37.8528 43.8906 38.6109 44.6081 38.2917C44.8871 38.172 45.0863 37.9725 45.3255 37.8129C45.5646 37.6533 45.8038 37.4538 46.0429 37.2942C46.5212 36.9751 47.0394 36.6559 47.5974 36.3766C48.1155 36.0973 48.6337 35.8579 49.1518 35.5786C49.391 35.4589 49.67 35.3392 49.949 35.2195C50.228 35.0998 50.4671 34.9402 50.7461 34.7806C50.9454 34.5811 50.8258 34.0625 50.4671 34.1024Z" fill="#181D23"></path><path d="M44.608 36.9751C44.329 36.8155 44.05 36.6559 43.7311 36.5362C43.4123 36.4165 43.1333 36.2968 42.8144 36.1372C42.2165 35.8579 41.6585 35.5786 41.1005 35.2993C39.9447 34.7008 38.8685 33.9827 37.7924 33.2246C37.4735 32.9852 36.9952 33.1847 36.7959 33.5039C36.5966 33.863 36.7561 34.262 37.0749 34.5014C38.1511 35.2993 39.3069 35.9776 40.5425 36.5362C41.1404 36.8155 41.7781 37.0549 42.4158 37.2943C42.7347 37.414 43.0137 37.5337 43.3326 37.6134C43.6913 37.7331 44.0101 37.7331 44.3689 37.773C44.8471 37.8528 44.9667 37.1746 44.608 36.9751Z" fill="#181D23"></path><path d="M38.2308 33.7034C39.3468 33.1449 40.423 32.5863 41.4992 31.9878C42.5753 31.3893 43.6913 30.8307 44.7276 30.1525C45.3653 29.7535 44.8073 28.7959 44.1298 29.155C43.0536 29.7136 41.9774 30.352 40.9412 30.9903C39.865 31.6287 38.8287 32.2671 37.7924 32.9454C37.3141 33.2247 37.7127 33.9428 38.2308 33.7034Z" fill="#181D23"></path><path d="M44.4885 29.5139C43.8508 28.9154 43.1732 28.317 42.4956 27.7584C42.1767 27.4791 41.818 27.1998 41.4992 26.9205C41.3397 26.8008 41.1803 26.6412 41.0209 26.5215C40.9013 26.4417 40.7817 26.322 40.6622 26.2422C40.5027 26.1225 40.3433 26.0826 40.144 26.0826C39.7056 26.0427 39.3469 26.5614 39.5063 26.9205C39.6259 27.2397 39.865 27.4392 40.144 27.6387C40.3034 27.7584 40.4629 27.8781 40.6622 28.0377C41.0209 28.317 41.3796 28.5963 41.7383 28.8356C42.4557 29.3543 43.1732 29.873 43.8906 30.3917C44.3689 30.671 44.9269 29.9129 44.4885 29.5139Z" fill="#181D23"></path><path d="M40.2237 27.2796C41.4194 26.761 42.5354 26.1625 43.6913 25.564C44.2493 25.2847 44.8073 24.9655 45.3653 24.6862C45.9233 24.367 46.6009 24.1276 47.1191 23.7287C47.3582 23.5691 47.4778 23.2898 47.3582 23.0105C47.2386 22.7711 46.9596 22.5716 46.6806 22.6913C46.0429 22.9307 45.445 23.2898 44.887 23.6489C44.329 23.9681 43.8109 24.2473 43.2529 24.5665C42.1369 25.2049 40.981 25.8034 39.9049 26.5216C39.5063 26.761 39.7454 27.4791 40.2237 27.2796Z" fill="#181D23"></path><path d="M46.2424 23.4893C46.9598 24.2474 47.757 24.9656 48.6339 25.5641C49.4709 26.1625 50.3477 26.761 51.2645 27.2398C51.5833 27.3994 51.942 27.3196 52.1413 27.0004C52.3008 26.6812 52.221 26.2822 51.9022 26.1226C51.0253 25.604 50.1086 25.1252 49.2716 24.5267C48.4346 23.9681 47.5976 23.3297 46.8004 22.7313C46.362 22.452 45.8837 23.1302 46.2424 23.4893Z" fill="#181D23"></path><path d="M85.7411 44.1568C85.5816 44.9947 85.6215 45.8325 85.5816 46.6704C85.5418 47.5482 85.5019 48.4658 85.5019 49.3436C85.5019 51.0592 85.5019 52.7749 85.5019 54.4905C85.5418 57.9617 85.7012 61.4329 85.9005 64.9041C85.9403 65.9015 86.0201 66.899 86.0998 67.8566C86.1795 68.854 86.1795 69.8515 86.3788 70.8091C86.5382 71.6469 87.8136 71.4076 87.8535 70.6096C87.8934 69.7717 87.7339 68.8939 87.6941 68.0561C87.6144 67.2182 87.5745 66.3404 87.5346 65.4627C87.4151 63.747 87.3354 62.0314 87.2556 60.3157C87.0962 56.8446 86.9766 53.3734 86.8969 49.9022C86.8571 48.9446 86.8571 47.9871 86.8172 47.0295C86.7773 46.0719 86.8172 45.0745 86.6976 44.1169C86.5781 43.678 85.8208 43.7179 85.7411 44.1568Z" fill="#181D23"></path><path d="M59.7141 56.6849C59.5547 57.5228 59.5945 58.4005 59.6344 59.2384C59.6344 60.0763 59.6742 60.954 59.6742 61.7919C59.7141 63.5874 59.7539 65.3429 59.7938 67.1383C59.8735 70.6494 59.9134 74.1206 59.9532 77.6317C59.9532 79.6266 59.9532 81.6614 59.9532 83.6564C59.9532 84.6937 61.5475 84.6937 61.5475 83.6564C61.5475 76.6342 61.3483 69.612 60.9895 62.5899C60.9497 61.5924 60.87 60.595 60.7902 59.6374C60.7105 58.6798 60.7105 57.6026 60.4315 56.6849C60.312 56.3657 59.7938 56.3258 59.7141 56.6849Z" fill="#181D23"></path><path d="M12.9612 34.3816C13.1604 36.2169 13.4793 38.0523 13.6387 39.8876C13.7982 41.723 13.8779 43.5583 13.9177 45.3936C14.0373 49.1441 14.117 52.9345 14.2366 56.6849C14.3163 58.8395 14.3562 61.0339 14.4359 63.1884C14.4757 64.1859 16.0302 64.1859 16.0302 63.1884C15.9106 59.3582 15.7512 55.5678 15.6316 51.7375C15.4722 47.987 15.4323 44.1967 15.0337 40.4462C14.8345 38.3715 14.5555 36.2169 13.8779 34.222C13.6786 33.7831 12.8814 33.823 12.9612 34.3816Z" fill="#181D23"></path><path d="M14.5157 64.0264C15.6317 64.8243 16.7477 65.7021 17.9035 66.4203C19.0196 67.1384 20.1356 67.8167 21.2914 68.495C23.6032 69.8914 25.9548 71.248 28.3064 72.5647C33.0096 75.198 37.7925 77.7116 42.6551 80.1454C45.0864 81.3424 47.5177 82.4994 49.949 83.6565C51.1846 84.255 52.4601 84.8135 53.7355 85.3721C54.9312 85.8908 56.0871 86.4494 57.3625 86.8484C58.6778 87.2473 59.9931 87.4069 61.3483 87.1675C62.5839 86.9681 63.7796 86.4095 64.8956 85.8509C67.3269 84.6539 69.7184 83.3772 72.07 82.0605C77.4109 79.108 82.6322 75.9161 87.6942 72.445C88.4515 71.9263 87.734 70.6495 86.9767 71.1682C82.5127 74.1606 77.9689 76.9934 73.3056 79.6267C70.9938 80.9434 68.6821 82.2201 66.3305 83.4171C64.1383 84.5741 61.7867 86.0504 59.196 85.7312C57.9205 85.5716 56.685 85.0529 55.5291 84.5342C54.3334 84.0155 53.1376 83.457 51.9419 82.8984C49.5106 81.7812 47.1192 80.6242 44.6878 79.4671C39.9049 77.1131 35.2017 74.6793 30.5384 72.1258C27.9477 70.6894 25.3968 69.2132 22.8459 67.7369C21.5306 66.9788 20.2551 66.2208 18.9398 65.4627C18.3021 65.0637 17.6644 64.6647 16.9868 64.3455C16.3092 63.9865 15.6317 63.7072 14.9541 63.3481C14.4359 63.0688 14.0772 63.7072 14.5157 64.0264Z" fill="#181D23"></path><path d="M84.0672 69.5723C84.0273 70.6895 83.1903 71.4875 82.3134 72.046C81.2373 72.7243 80.0416 73.2031 78.8857 73.6819C76.3747 74.7193 73.7441 75.597 71.1135 76.3152C70.5156 76.4748 70.7548 77.4324 71.3925 77.2728C74.3419 76.5546 77.1718 75.5172 79.9619 74.2405C81.7953 73.4026 85.0238 72.1258 84.7049 69.6122C84.665 69.1733 84.0672 69.1334 84.0672 69.5723Z" fill="#181D23"></path><path d="M13.9179 60.8344C13.9179 60.8743 13.878 60.8743 13.878 60.9142C13.9179 60.8743 13.9578 60.8344 13.9976 60.7945C13.6389 60.994 13.5592 61.5925 13.599 61.9915C13.599 62.3905 13.7186 62.7495 13.878 63.0687C14.1969 63.747 14.7948 64.2657 15.5521 64.4253C15.7912 64.4652 16.0702 64.3455 16.1101 64.1061C16.1499 63.8667 16.0303 63.5874 15.7912 63.5475C15.7115 63.5076 15.6318 63.5076 15.5919 63.4677C15.5521 63.4677 15.5122 63.4278 15.5122 63.4278C15.4723 63.3879 15.3926 63.348 15.3528 63.3081C15.4325 63.348 15.3129 63.3081 15.3528 63.3081C15.3129 63.2682 15.3129 63.2682 15.2731 63.2682C15.1535 63.1884 15.0738 63.0687 14.9542 62.949C14.9542 62.9889 14.9941 63.0288 14.9542 62.949C14.9542 62.9091 14.9143 62.9091 14.9143 62.8692C14.8745 62.7894 14.8346 62.7495 14.7948 62.6697C14.7948 62.6298 14.7549 62.6298 14.7549 62.5899C14.715 62.55 14.715 62.5101 14.7549 62.55C14.715 62.4702 14.715 62.4303 14.6752 62.3506C14.6353 62.2708 14.6353 62.191 14.6353 62.1511C14.6353 62.1511 14.5955 62.0314 14.6353 62.1112C14.6353 62.191 14.6353 62.0713 14.6353 62.0314C14.6353 61.9516 14.6353 61.9117 14.6353 61.8319C14.6353 61.792 14.6353 61.7521 14.6353 61.7122C14.6353 61.7122 14.6353 61.5526 14.6353 61.6723C14.6353 61.5925 14.6353 61.5526 14.6752 61.4728C14.6752 61.5526 14.6752 61.4728 14.6752 61.4329C14.715 61.3132 14.715 61.1935 14.6752 61.0339C14.6752 61.1137 14.6752 61.1536 14.6752 61.2334C14.6752 61.1935 14.6752 61.1935 14.6752 61.1536C14.6752 60.7147 14.157 60.5152 13.9179 60.8344Z" fill="#181D23"></path><path d="M16.9869 62.9093C19.2189 65.1835 21.9293 66.8194 24.7193 68.3355C27.7485 69.9314 30.8573 71.4077 33.9264 72.8839C35.7598 73.7617 37.5933 74.6794 39.4267 75.5572C39.905 75.7965 40.3434 75.0784 39.8652 74.839C36.6765 73.2829 33.4879 71.7269 30.2993 70.1708C27.4296 68.7744 24.52 67.4178 21.8097 65.7421C20.2552 64.7845 18.7406 63.7472 17.3456 62.5901C17.1065 62.3507 16.7478 62.6699 16.9869 62.9093Z" fill="#181D23"></path><path d="M52.3405 81.103C54.4131 81.7413 56.0871 83.3373 58.1198 84.0954C59.7939 84.7337 61.8665 84.8135 63.2216 83.4969C63.5803 83.1378 63.0223 82.6191 62.6636 82.9383C61.3483 84.215 59.2358 83.856 57.7213 83.1378C56.8444 82.7388 56.0472 82.2201 55.1704 81.7413C54.2935 81.2626 53.4166 80.9434 52.3803 80.8237C52.2209 80.8237 52.1412 81.063 52.3405 81.103Z" fill="#181D23"></path><path d="M63.0623 64.1859H63.1021C63.0623 64.1859 62.9826 64.146 62.9427 64.146C63.1021 64.2657 63.3413 64.2258 63.5406 64.1859C63.7 64.146 63.8594 64.1061 64.0189 64.0662C64.3776 63.9465 64.7363 63.8269 65.0552 63.6673C65.374 63.5077 65.653 63.388 65.932 63.1885C66.2509 62.989 66.5698 62.7895 66.8488 62.5102C67.2872 62.0713 66.7292 61.2733 66.1712 61.6324C66.1313 61.6723 66.0516 61.7122 66.0118 61.7521C66.0516 61.7122 66.0117 61.7521 65.9719 61.7521C65.8922 61.792 65.8125 61.8718 65.7726 61.9117C65.653 61.9915 65.4936 62.1112 65.374 62.191C65.095 62.3905 64.816 62.5501 64.4972 62.7097C64.2182 62.8693 63.9392 63.0289 63.6203 63.1486C63.3014 63.2683 62.9029 63.4279 62.7833 63.7471C62.8231 63.6673 62.863 63.6274 62.9427 63.5476C62.9427 63.5476 62.9029 63.5476 62.9029 63.5875C62.6637 63.7471 62.7833 64.1859 63.0623 64.1859Z" fill="#181D23"></path><path d="M63.5007 61.9116C62.9427 62.9889 63.3014 64.3853 64.2181 65.1434C64.4174 65.303 64.7762 65.3828 64.9754 65.1434C65.1349 64.9439 65.2146 64.5848 64.9754 64.3853C64.8957 64.3056 64.816 64.2258 64.7363 64.146C64.6964 64.1061 64.6964 64.1061 64.6566 64.0662C64.6566 64.0662 64.6167 63.9864 64.6566 64.0263C64.6964 64.1061 64.6566 63.9864 64.6167 63.9864C64.6167 63.9465 64.5769 63.9465 64.5769 63.9066C64.4971 63.8268 64.4573 63.7071 64.4174 63.6273C64.4174 63.5874 64.3776 63.5874 64.3776 63.5475C64.4174 63.6672 64.3377 63.4677 64.3776 63.5475C64.3776 63.5076 64.3377 63.4278 64.3377 63.3879C64.2979 63.2682 64.258 63.1485 64.258 63.0687C64.258 63.0687 64.258 62.9889 64.258 63.0288C64.258 63.1086 64.258 62.9889 64.258 62.9889C64.258 62.949 64.258 62.8692 64.258 62.8293C64.258 62.7894 64.258 62.7096 64.258 62.6697C64.258 62.6298 64.258 62.6298 64.258 62.5899C64.258 62.6697 64.258 62.4702 64.258 62.5899C64.258 62.5101 64.2979 62.4303 64.2979 62.3505C64.2979 62.3904 64.2979 62.3904 64.2979 62.3505C64.2979 62.3106 64.2979 62.2707 64.3377 62.2308C64.3776 62.0313 64.2979 61.8318 64.0986 61.752C63.8594 61.6723 63.6203 61.7521 63.5007 61.9116Z" fill="#181D23"></path><path d="M66.9681 62.5901C67.008 62.8295 66.8884 62.5901 66.9283 62.7497C66.9283 62.8295 67.008 62.9891 67.0479 63.0689C67.0877 63.3482 67.1276 63.6275 67.1674 63.9068C67.2472 64.5451 67.3269 65.1835 67.3667 65.8219C67.4464 67.0588 67.4464 68.2956 67.3269 69.5325C67.2472 70.4501 67.008 71.7269 68.124 72.1259C69.1205 72.4451 70.2365 71.5673 71.0735 71.0885C73.2656 69.8916 75.4578 68.6148 77.6101 67.338C78.6464 66.6997 79.6827 66.0613 80.7589 65.4229C81.1973 65.1436 81.6756 64.9042 81.9945 64.5052C82.3532 64.0664 82.4727 63.5477 82.4727 62.9891C82.393 61.6325 82.114 60.2361 81.9147 58.8795C81.835 58.2012 81.6756 57.5629 81.6756 56.8846C81.6756 56.6452 81.7553 55.8871 82.114 56.1265C82.8315 56.6452 83.509 55.4482 82.7916 54.9296C81.9147 54.2912 80.719 54.9695 80.4001 55.8871C80.2009 56.4058 80.2806 56.9644 80.3603 57.523C80.44 58.2012 80.5596 58.9194 80.6792 59.5977C80.7589 60.2361 80.8784 60.8745 80.9582 61.5128C81.0379 62.0714 81.3169 62.8694 81.1574 63.428C80.998 63.9068 80.2009 64.2259 79.8023 64.4653C79.2044 64.8244 78.6066 65.2234 78.0087 65.5825C75.697 66.979 73.3454 68.3355 70.9938 69.6522C70.4358 69.9714 69.8778 70.2905 69.3197 70.5698C69.2002 70.6097 68.8016 70.9289 68.682 70.8491C68.6422 70.8092 68.682 70.3703 68.682 70.2506C68.8016 68.8941 68.8415 67.5774 68.7219 66.2608C68.682 65.5825 68.6023 64.9042 68.4827 64.186C68.403 63.5477 68.3233 62.7896 68.0044 62.1911C67.7254 61.7522 67.2073 61.4729 66.6891 61.7522C66.2906 61.9517 66.0913 62.4305 66.3304 62.8295C66.45 63.3083 67.0479 63.029 66.9681 62.5901Z" fill="#181D23"></path><path d="M54.1739 55.9268C54.5327 56.7647 55.0508 57.5627 55.5291 58.3607C55.9277 59.0389 56.3262 59.7172 56.7248 60.4354C57.6017 61.9515 58.359 63.5475 59.196 65.0636C59.5547 65.702 60.4714 65.1434 60.1924 64.5051C59.4351 62.9091 58.5981 61.393 57.6814 59.8768C57.2828 59.1985 56.8842 58.5602 56.4857 57.9218C56.0074 57.1238 55.5291 56.246 54.8914 55.5678C54.6124 55.2486 54.0145 55.5678 54.1739 55.9268Z" fill="#181D23"></path><path d="M48.5141 53.2139C51.344 59.1987 54.2536 65.1834 57.2031 71.1283C57.8408 72.4051 58.4785 73.6818 59.196 74.8788C59.5946 75.5172 60.5113 74.9586 60.1924 74.2803C57.2828 68.4551 54.4131 62.59 51.4237 56.8047C50.7462 55.4482 50.0287 54.0916 49.2714 52.775C48.9924 52.2164 48.2351 52.6952 48.5141 53.2139Z" fill="#181D23"></path><path d="M42.9738 51.0194C43.5716 52.7749 44.3289 54.4507 45.0464 56.1663C45.7638 57.8819 46.5211 59.5976 47.2385 61.3132C48.7133 64.7445 50.1481 68.1758 51.7026 71.6071C51.9816 72.2055 53.0179 71.7667 52.7787 71.1682C51.3439 67.7369 49.8691 64.3455 48.3545 60.9142C47.5972 59.2385 46.8798 57.5229 46.1225 55.8471C45.3652 54.1315 44.6478 52.3759 43.7709 50.7401C43.5318 50.2613 42.8143 50.5406 42.9738 51.0194Z" fill="#181D23"></path><path d="M35.4409 46.3513C36.4772 49.8225 38.1513 53.0941 39.7057 56.3658C41.2601 59.6774 42.8943 62.9491 44.3292 66.3006C44.5683 66.8991 44.8473 67.4975 45.0865 68.1359C45.1662 68.3753 45.2459 68.6147 45.3256 68.8541C45.3655 68.9339 45.3655 69.0137 45.4053 69.1334C45.4053 69.1733 45.4053 69.2132 45.4452 69.2531C45.4452 69.0935 45.485 69.3728 45.4452 69.2531C45.5249 70.0112 46.7206 70.0511 46.6409 69.2531C46.5612 68.2955 46.1626 67.3779 45.8039 66.5001C45.206 65.0238 44.5285 63.5875 43.811 62.1112C42.0971 58.5204 40.3036 54.9295 38.6295 51.3386C37.7925 49.5831 37.0352 47.8275 36.2381 46.0321C36.0388 45.5932 35.3214 45.9124 35.4409 46.3513Z" fill="#181D23"></path><path d="M27.908 42.4811C29.1037 45.3538 30.3393 48.1866 31.4952 51.0593C32.7308 54.0916 33.8867 57.1239 35.0027 60.236C35.5607 61.8319 36.1585 63.4279 36.7165 65.0637C36.9557 65.7819 38.1116 65.5026 37.8724 64.7445C35.9592 58.6001 33.5279 52.6153 30.9372 46.7502C30.2596 45.1942 29.5422 43.6381 28.7052 42.1619C28.466 41.723 27.7087 42.0422 27.908 42.4811Z" fill="#181D23"></path><path d="M22.4471 40.0471C23.5631 43.2789 24.998 46.4708 26.3133 49.6228C26.951 51.1789 27.6286 52.7748 28.2663 54.3309C28.904 55.847 29.5019 57.3631 29.8207 58.999C29.9802 59.797 31.136 59.4379 31.0165 58.6798C30.6976 57.044 30.0997 55.4879 29.4222 53.9718C28.7446 52.4157 28.067 50.8597 27.3894 49.3036C26.0343 46.1117 24.7588 42.8401 23.1645 39.7679C22.9652 39.2891 22.2877 39.6083 22.4471 40.0471Z" fill="#181D23"></path><path d="M16.9072 37.0149C18.7406 42.6805 20.7335 48.3062 23.0851 53.7724C23.683 55.2087 24.3606 56.6052 25.0381 58.0016C25.3969 58.7198 26.5129 58.0814 26.1143 57.3632C24.799 54.8496 23.7228 52.2562 22.6467 49.6229C21.4908 46.7901 20.4545 43.9174 19.3784 41.0846C18.8602 39.6482 18.3022 38.2119 17.7442 36.7755C17.5848 36.217 16.7079 36.4165 16.9072 37.0149Z" fill="#181D23"></path><path d="M13.9973 41.4836C14.5155 43.5583 15.2329 45.5532 15.9105 47.5881C16.5881 49.6229 17.2656 51.6178 17.9034 53.6527C18.1425 54.4506 19.3781 54.1315 19.1788 53.2936C18.6208 51.2588 17.8635 49.2239 17.1461 47.229C16.4286 45.2341 15.7112 43.1992 14.9938 41.2043C14.7546 40.6058 13.8379 40.8452 13.9973 41.4836Z" fill="#181D23"></path><path d="M11.0139 62.118C10.3147 62.2019 9.62841 62.3338 8.95974 62.4353C8.29107 62.5368 7.6048 62.6688 6.94904 62.8184C6.70856 62.8827 6.50212 63.1698 6.59718 63.4278C6.67464 63.7163 6.93626 63.8267 7.20725 63.78C7.87592 63.6785 8.53168 63.529 9.18744 63.3794C9.84321 63.2298 10.4814 63.1107 11.1242 62.913C11.3166 62.8616 11.4703 62.6659 11.4362 62.4431C11.4151 62.2684 11.2367 62.0841 11.0139 62.118Z" fill="#181D23"></path><path d="M13.5704 63.9596C11.7579 63.9289 9.89615 64.1948 8.1729 64.7844C7.91482 64.8792 7.72598 65.1358 7.80344 65.4243C7.868 65.6648 8.15544 65.8713 8.44402 65.7942C10.1016 65.2479 11.8108 64.8939 13.567 64.8108C14.1043 64.796 14.1077 63.9447 13.5704 63.9596Z" fill="#181D23"></path><path d="M16.1949 65.1905C14.5033 65.514 12.8117 65.8375 11.1459 66.2571C10.8749 66.3038 10.7295 66.6261 10.794 66.8666C10.8715 67.1551 11.1636 67.2831 11.4041 67.2188C13.0652 66.8777 14.7486 66.4276 16.4144 66.0079C16.974 65.884 16.7545 65.0666 16.1949 65.1905Z" fill="#181D23"></path><path d="M19.799 67.19C18.1085 67.2298 16.3993 67.5838 14.859 68.279C14.6009 68.3738 14.547 68.749 14.6597 68.9765C14.8333 69.2393 15.0996 69.2712 15.3577 69.1764C15.5196 69.1074 15.6639 69.0688 15.8434 68.9692C16.0358 68.9178 16.2152 68.8183 16.4076 68.7668C16.7619 68.6463 17.1467 68.5435 17.5314 68.4406C18.2834 68.2653 19.0483 68.138 19.8085 68.0894C20.0618 68.0732 20.246 67.8951 20.2601 67.6594C20.2131 67.3885 20.0218 67.1562 19.799 67.19Z" fill="#181D23"></path><path d="M22.9315 69.1611C21.4499 69.4027 19.946 69.7533 18.4432 69.8201C18.1112 69.8316 17.8743 70.1011 17.9341 70.4201C17.9764 70.7695 18.299 70.9152 18.6005 70.8861C19.3654 70.7589 20.1303 70.6316 20.8951 70.5044C21.6776 70.3467 22.4296 70.1714 23.1557 69.9C23.6238 69.7233 23.4254 69.0806 22.9315 69.1611Z" fill="#181D23"></path><path d="M26.0123 70.9398C24.4521 71.1766 22.9048 71.4615 21.3058 71.5541C21.0219 71.5527 20.8026 71.7917 20.8014 72.0755C20.8179 72.3288 21.022 72.6092 21.3235 72.5801C22.9706 72.4746 24.6575 72.2297 26.206 71.661C26.6436 71.4667 26.4757 70.8417 26.0123 70.9398Z" fill="#181D23"></path><path d="M29.0416 72.5262C27.6374 73.0563 26.1863 73.3155 24.68 73.1772C24.4136 73.1453 24.1591 73.4453 24.1756 73.6986C24.1744 73.9823 24.4138 74.2018 24.6977 74.2031C26.2873 74.2677 27.9308 73.957 29.288 73.1561C29.647 72.957 29.4135 72.3753 29.0416 72.5262Z" fill="#181D23"></path><path d="M33.2686 74.9262C31.7694 75.1982 30.2702 75.4703 28.7369 75.5195C28.453 75.5181 28.2336 75.7572 28.2325 76.0409C28.2489 76.2942 28.4531 76.5746 28.7546 76.5455C29.5805 76.4535 30.3759 76.3439 31.1759 76.1557C31.976 75.9676 32.715 75.7442 33.4763 75.4118C33.752 75.2865 33.5396 74.8795 33.2686 74.9262Z" fill="#181D23"></path><path d="M36.5174 77.3299C35.674 77.4524 34.8305 77.5748 33.9917 77.6188C33.1224 77.6451 32.2707 77.6409 31.3932 77.5406C31.1269 77.5087 30.8724 77.8087 30.8888 78.0619C30.8877 78.3457 31.1446 78.5347 31.4109 78.5665C32.2885 78.6669 33.1883 78.6582 34.0751 78.6014C34.9796 78.5142 35.9017 78.3964 36.724 78.0993C37.2226 77.9402 37.0113 77.2494 36.5174 77.3299Z" fill="#181D23"></path><path d="M40.3198 79.9723C38.803 80.2748 37.2779 80.4507 35.7364 80.3733C35.4525 80.3719 35.2332 80.6109 35.2321 80.8947C35.2309 81.1784 35.4703 81.3979 35.7542 81.3993C37.3614 81.4333 39.0131 81.2493 40.5264 80.7416C40.9945 80.5649 40.8137 79.8917 40.3198 79.9723Z" fill="#181D23"></path><path d="M40.0024 82.9173C39.6352 82.9897 39.268 83.0622 38.9008 83.1346C38.8222 83.1298 38.7565 83.1731 38.7213 83.2341C38.6556 83.2774 38.6205 83.3384 38.5853 83.3993C38.5149 83.5212 38.4879 83.7088 38.5443 83.8226C38.583 83.9668 38.6698 84.0982 38.7918 84.1687C38.9139 84.2391 39.0711 84.2486 39.2153 84.21C39.5825 84.1376 39.9192 84.0476 40.304 83.9447C40.4483 83.9061 40.5796 83.8194 40.65 83.6976C40.7204 83.5757 40.7298 83.4186 40.691 83.2743C40.6523 83.1301 40.5655 82.9987 40.4435 82.9282C40.4129 82.9106 40.3519 82.8754 40.3038 82.8882C40.2076 82.914 40.0985 82.8916 40.0024 82.9173Z" fill="#181D23"></path><path d="M43.4465 82.3056C42.8436 82.3638 42.284 82.4877 41.6939 82.5939C41.1343 82.7178 40.5619 82.7935 40.0024 82.9173C39.7314 82.964 39.5202 83.3298 39.6152 83.5878C39.6927 83.8763 39.9977 84.0524 40.2863 83.9753C40.8459 83.8514 41.375 83.7099 41.9345 83.5861C42.4941 83.4622 43.0232 83.3207 43.5698 83.1488C43.7798 83.0669 43.9159 82.9016 43.8818 82.6788C43.8783 82.4736 43.6694 82.2718 43.4465 82.3056Z" fill="#181D23"></path><path d="M45.4378 85.6899C45.1668 85.7366 44.8958 85.7833 44.6072 85.8605C44.5591 85.8733 44.4629 85.899 44.4278 85.96C44.3621 86.0033 44.3269 86.0643 44.2917 86.1252C44.2565 86.1862 44.2213 86.2471 44.2166 86.3256C44.212 86.4042 44.2249 86.4523 44.2202 86.5308C44.2589 86.6751 44.3458 86.8065 44.4854 86.8465C44.6074 86.9169 44.747 86.9569 44.8913 86.9183C45.1494 86.8235 45.4379 86.7464 45.696 86.6516C45.7441 86.6387 45.8098 86.5954 45.8579 86.5825C45.9236 86.5392 45.9412 86.5087 45.9764 86.4478C46.0115 86.3868 46.0467 86.3259 46.0338 86.2778C46.0385 86.1993 46.0561 86.1688 46.0127 86.1031C45.9564 85.9893 45.9 85.8755 45.8085 85.8227C45.778 85.8051 45.7475 85.7875 45.6865 85.7522C45.5821 85.6513 45.5035 85.6466 45.4378 85.6899Z" fill="#181D23"></path><path d="M46.0584 85.6012C46.0103 85.6141 45.9798 85.5965 45.9317 85.6093C45.8836 85.6222 45.805 85.6175 45.757 85.6303C45.7264 85.6127 45.7089 85.6432 45.6783 85.6256C45.5822 85.6513 45.5036 85.6465 45.4074 85.6723C45.3593 85.6851 45.2936 85.7285 45.2455 85.7413C45.1798 85.7847 45.1622 85.8151 45.127 85.8761C45.0918 85.937 45.0566 85.998 45.0695 86.046C45.0649 86.1246 45.0473 86.1551 45.0907 86.2208C45.1036 86.2689 45.1341 86.2865 45.147 86.3346C45.1904 86.4003 45.2338 86.4659 45.3253 86.5188C45.3558 86.5364 45.3863 86.554 45.4474 86.5892C45.526 86.594 45.6046 86.5987 45.6832 86.6035C45.7794 86.5778 45.845 86.5344 45.9412 86.5087L45.9893 86.4958C46.0374 86.483 46.0855 86.4701 46.1512 86.4268C46.1993 86.4139 46.2169 86.3834 46.265 86.3706C46.2826 86.3401 46.3307 86.3273 46.3483 86.2968C46.3659 86.2663 46.4316 86.223 46.4187 86.1749C46.4363 86.1444 46.4539 86.1139 46.4409 86.0659C46.4585 86.0354 46.4632 85.9568 46.4503 85.9087C46.4374 85.8607 46.4374 85.8607 46.4245 85.8126C46.394 85.795 46.3811 85.7469 46.3506 85.7293C46.3201 85.7116 46.2767 85.646 46.2286 85.6588C46.1676 85.6236 46.1195 85.6365 46.0584 85.6012Z" fill="#181D23"></path></svg> 