<?xml version="1.0" encoding="UTF-8"?> <svg xmlns="http://www.w3.org/2000/svg" width="100" height="121" viewBox="0 0 100 121" fill="none"><path d="M35.3185 79.584C36.7185 81.184 41.9852 81.7506 44.4435 81.834C49.8434 83.634 59.6935 81.7506 63.9436 80.584C64.2769 80.0007 65.0436 78.534 65.4436 77.334C65.8436 76.134 67.0269 71.6673 67.5686 69.584C67.2769 59.4173 66.5936 37.884 66.1936 33.084C65.6936 27.084 59.1936 25.459 57.1936 23.084C55.5936 21.184 55.0269 18.3757 54.9436 17.209L43.6936 17.834V21.334C43.6936 23.334 42.3186 24.584 39.6936 26.334C37.0686 28.084 36.1935 29.084 34.3185 33.084C32.4435 37.084 32.4435 65.709 32.6935 68.084C32.9435 70.459 33.5685 77.584 35.3185 79.584Z" fill="#4B5359"></path><path fill-rule="evenodd" clip-rule="evenodd" d="M32.6935 68.084C32.5119 66.3585 32.4622 50.777 33.1677 40.8499L32.6935 68.084ZM33.1677 40.8499C33.4332 37.1133 33.8058 34.1779 34.3186 33.084L33.1677 40.8499ZM34.3186 33.084C36.1936 29.084 37.0686 28.084 39.6936 26.334L34.3186 33.084ZM39.6936 26.334C42.3186 24.584 43.6936 23.334 43.6936 21.334L39.6936 26.334ZM43.6936 21.334V17.834V21.334ZM43.6936 17.834L54.9436 17.209L43.6936 17.834ZM54.9436 17.209C55.0269 18.3757 55.5936 21.184 57.1936 23.084L54.9436 17.209ZM57.1936 23.084C57.8055 23.8106 58.8387 24.4671 59.9923 25.2001L57.1936 23.084ZM59.9923 25.2001C62.6094 26.8629 66.3034 28.9197 66.6504 33.084L59.9923 25.2001ZM66.6504 33.084C66.7804 34.6445 66.4836 37.9737 66.6504 42.1059V33.084ZM66.6504 42.1059C66.9593 49.7609 67.2913 60.1718 67.4991 67.2L66.6504 42.1059ZM48.6936 71.334C54.8936 71.334 63.8139 68.578 67.4991 67.2L48.6936 71.334ZM32.6935 68.084C35.4435 69.1673 42.4936 71.334 48.6936 71.334L32.6935 68.084Z" fill="#A7CAFF"></path><path d="M66.6504 42.1059C64.2898 43.0986 57.7436 45.084 50.4436 45.084C43.1436 45.084 35.8846 42.2613 33.1677 40.8499C32.4622 50.777 32.5119 66.3585 32.6935 68.084C35.4435 69.1673 42.4936 71.334 48.6936 71.334C54.8936 71.334 63.8139 68.578 67.4991 67.2C67.2913 60.1718 66.9593 49.7609 66.6504 42.1059Z" fill="#A7CAFF"></path><path opacity="0.2" fill-rule="evenodd" clip-rule="evenodd" d="M54.9436 17.209L50.7967 17.4394C50.4707 18.9042 50.4186 22.609 52.8186 25.709C54.0422 27.2895 55.5986 27.8511 56.9872 28.3521C59.0032 29.0794 60.6656 29.6793 60.4436 33.084C60.3454 34.5901 60.6519 38.4638 61.0431 43.4073C62.1453 57.3365 63.9196 79.7598 59.2056 81.6492C61.0825 81.3034 62.7383 80.9149 63.9436 80.584C64.2769 80.0007 65.0436 78.534 65.4436 77.334C65.8436 76.134 67.0269 71.6673 67.5686 69.584C67.2769 59.4173 66.5936 37.884 66.1936 33.084C65.8466 28.9197 62.6094 26.8629 59.9923 25.2001C58.8387 24.4671 57.8055 23.8106 57.1936 23.084C55.5936 21.184 55.0269 18.3757 54.9436 17.209Z" fill="black"></path><path d="M42.3188 9.14648C43.048 8.47982 45.4938 7.14648 49.4438 7.14648C52.3438 7.14648 54.9438 8.06315 55.8813 8.52148V16.7715C55.1313 17.1673 52.7938 17.959 49.4438 17.959C46.0938 17.959 43.548 17.4173 42.6938 17.1465L42.3188 9.14648Z" fill="#EFFAFE"></path><path d="M44.8181 78.5842C46.5181 75.9842 52.6931 79.6675 55.5681 81.8342C57.868 82.3342 60.2764 85.2925 61.1931 86.7092C61.3181 87.9176 61.2681 90.4842 60.0681 91.0842C58.8681 91.6842 57.9848 92.5009 57.6931 92.8342C56.7348 92.4176 54.3931 91.4842 52.6931 91.0842C50.9931 90.6842 46.7347 87.0842 44.8181 85.3342C44.1097 84.1676 43.1181 81.1842 44.8181 78.5842Z" fill="#7FA2F6"></path><path opacity="0.2" fill-rule="evenodd" clip-rule="evenodd" d="M60.0681 91.0842C60.9646 90.636 61.2193 89.0901 61.2386 87.833C60.6401 88.2076 58.4181 88.732 54.3181 87.833C49.1931 86.7092 44.5322 82.6968 43.9877 80.6405C43.6121 82.6059 44.2929 84.4693 44.8181 85.3342C46.7347 87.0842 50.9931 90.6842 52.6931 91.0842C54.3931 91.4842 56.7348 92.4176 57.6931 92.8342C57.9848 92.5009 58.8681 91.6842 60.0681 91.0842Z" fill="black"></path><path d="M43.4419 17.6867C43.5123 18.7434 43.5123 19.8353 43.2308 20.8567C42.9845 21.8782 42.527 22.8292 41.9289 23.6745C40.5214 25.5766 38.1287 26.3162 36.5102 28.0069C34.9972 29.5567 34.1527 31.6349 33.6601 33.713C33.0971 36.1081 32.8508 38.5737 32.5693 41.0393C31.9711 46.5341 31.6897 52.0992 31.6897 57.6292C31.7248 63.1239 31.9711 68.6539 32.6749 74.0782C32.8508 75.4166 33.0971 76.7199 33.6953 77.9175C34.2231 78.9741 35.0675 79.8547 36.0528 80.4887C37.988 81.7567 40.4159 82.1442 42.6678 82.4612C43.0197 82.4964 43.4067 82.3555 43.5123 82.0033C43.6178 81.6863 43.4067 81.2284 43.0548 81.1579C41.0492 80.8762 38.9732 80.5944 37.1787 79.5729C36.3694 79.115 35.6657 78.5162 35.1731 77.7413C34.5397 76.7551 34.2934 75.5928 34.1175 74.4656C33.7305 71.8592 33.5545 69.2175 33.3786 66.611C33.2027 63.8988 33.0971 61.1867 33.0619 58.4745C32.9915 53.015 33.2379 47.5555 33.8008 42.1312C34.0471 39.6656 34.2934 37.1648 34.786 34.7345C35.2083 32.7268 35.8768 30.6839 37.2491 29.1341C38.1288 28.183 39.2195 27.549 40.2751 26.8798C41.3659 26.1754 42.3159 25.3652 43.0548 24.2733C44.3567 22.4065 45.0605 19.7648 44.3919 17.5458C44.2512 17.0527 43.4067 17.1231 43.4419 17.6867Z" fill="#181D23"></path><path d="M55.7923 81.8625V81.8977C55.7571 82.0739 55.9331 82.2147 56.0738 82.25C57.5165 82.8487 59.2054 82.3909 60.6129 81.8977C62.1611 81.3694 63.6389 80.8058 65.2575 80.8058C65.926 80.8058 65.926 79.8196 65.2575 79.7491C63.7093 79.6083 62.1611 80.2423 60.7185 80.7706C59.2758 81.299 57.8331 81.7216 56.2849 81.5103C56.1442 81.4751 55.9331 81.5103 55.8627 81.6864C55.7923 81.7568 55.7923 81.8273 55.7923 81.8625Z" fill="#181D23"></path><path d="M63.6389 80.9468C66.6297 78.1994 67.4742 73.867 67.7909 69.9925C67.9668 67.9496 67.9316 65.9067 67.8964 63.8285C67.8612 61.2573 67.826 58.686 67.7909 56.1148C67.7205 50.9018 67.6501 45.6889 67.5445 40.5111C67.5094 38.116 67.6501 35.58 67.0871 33.22C66.5945 31.1419 65.3982 29.416 63.8852 27.9366C62.2314 26.2812 60.2961 24.9427 58.7128 23.2168C57.2349 21.5966 55.8626 19.4128 56.2497 17.1233C56.3201 16.7358 56.1441 16.3132 55.7219 16.2075C55.37 16.1018 54.8774 16.3132 54.8071 16.7358C54.0681 21.2091 57.6924 24.4848 60.7888 27.0913C62.3018 28.3593 63.85 29.6978 64.8704 31.4237C66.0315 33.4314 66.0667 35.7561 66.1019 38.0103C66.2075 43.1528 66.313 48.2953 66.3834 53.4378C66.4186 56.0091 66.489 58.5804 66.5242 61.1516C66.5593 63.3706 66.6297 65.6249 66.5945 67.8439C66.5593 70.063 66.3834 72.3172 65.8204 74.501C65.2574 76.6848 64.3426 78.6221 63.0407 80.4536C62.8296 80.8411 63.3574 81.1933 63.6389 80.9468Z" fill="#181D23"></path><path d="M42.1047 9.40948C41.8584 11.8398 42.351 14.235 42.2455 16.6653C42.2103 17.3346 43.2659 17.3346 43.3011 16.6653C43.4066 14.235 42.8788 11.8398 42.8437 9.40948C42.8085 8.95158 42.1399 8.98681 42.1047 9.40948Z" fill="#181D23"></path><path d="M42.5622 17.6164C43.3011 18.0391 44.2159 18.18 45.0252 18.3209C46.0104 18.497 47.0308 18.6026 48.0512 18.6379C50.0569 18.7435 52.168 18.6731 54.1033 18.18C54.9829 17.9686 55.8978 17.6516 56.6015 17.0528C57.0589 16.6654 56.4608 15.8905 55.9682 16.2075C54.1033 17.3346 51.8162 17.546 49.705 17.5812C48.4383 17.6164 47.2067 17.546 45.9752 17.4403C44.9196 17.3346 43.864 17.0528 42.8085 16.9824C42.3862 16.912 42.2455 17.4403 42.5622 17.6164Z" fill="#181D23"></path><path d="M56.2849 17.1936C56.3201 15.996 56.1794 14.7632 56.109 13.5657C56.0386 12.3329 56.0386 11.1353 56.0386 9.90251C56.0386 9.12761 54.8423 9.12761 54.8423 9.90251C54.8423 11.1353 54.8775 12.3681 54.983 13.6361C55.0886 14.8337 55.159 16.1369 55.5108 17.2993C55.6164 17.7219 56.2498 17.6515 56.2849 17.1936Z" fill="#181D23"></path><path d="M55.7922 9.022C55.8274 8.95155 55.8626 8.8811 55.8626 8.84588C55.8626 8.77544 55.8977 8.5641 55.8977 8.74021C55.8977 8.45843 55.8274 8.2471 55.6163 8.07098C55.3348 7.7892 54.9477 7.61309 54.5958 7.4722C53.5754 7.11997 52.3791 7.0143 51.3235 6.97908C48.8957 6.87341 46.2919 6.90864 43.9344 7.50742C43.2658 7.68353 42.2806 7.96532 42.0695 8.74021C41.8232 9.58556 42.738 10.0787 43.4066 10.29C44.3918 10.607 45.4826 10.7127 46.5382 10.8184C47.8049 10.924 49.0716 10.9592 50.3383 10.924C51.6402 10.8888 52.9421 10.7831 54.2088 10.5013C55.0181 10.29 56.1441 9.90256 56.1441 8.91633C56.1792 8.07098 54.8773 8.07098 54.8422 8.91633C54.8422 8.98677 54.8422 8.74021 54.8422 8.8811C54.8422 8.81066 54.9125 8.74021 54.8422 8.81066C54.8422 8.84588 54.7718 8.98677 54.8773 8.74021C54.8421 8.77544 54.807 8.84588 54.7718 8.84588C54.9477 8.74021 54.7366 8.8811 54.7014 8.8811C54.631 8.91633 54.5607 8.95155 54.5255 8.98677C54.4903 8.98677 54.4199 9.022 54.5607 8.98677C54.5255 9.022 54.4551 9.022 54.4199 9.022C54.244 9.09244 54.0681 9.12766 53.8921 9.16289C52.9421 9.40944 52.0624 9.47989 51.042 9.55034C48.8957 9.656 46.6085 9.62078 44.5677 9.19811C44.2159 9.12766 43.864 9.022 43.5121 8.91633C43.3714 8.8811 43.6177 8.98677 43.4418 8.8811C43.4066 8.84588 43.3362 8.81066 43.301 8.81066C43.301 8.84588 43.1603 8.74021 43.301 8.81066C43.3714 8.91633 43.1955 8.63455 43.301 8.81066C43.3362 8.84588 43.3362 8.91633 43.3362 8.98677C43.3362 9.05722 43.3362 9.09244 43.2658 9.16289C43.1251 9.30378 43.3362 9.022 43.2658 9.16289C43.4066 9.022 43.1603 9.19811 43.2658 9.12766C43.301 9.09244 43.3714 9.09244 43.4066 9.05722C43.1251 9.19811 43.7584 8.91633 43.4769 9.022C43.6529 8.95155 43.8288 8.8811 44.0047 8.84588C44.9548 8.5641 45.8344 8.45843 46.7493 8.38799C47.9104 8.28232 49.1068 8.21187 50.2679 8.2471C50.9013 8.2471 51.5346 8.28232 52.168 8.31754C52.731 8.35276 53.2236 8.42321 53.681 8.49366C54.0681 8.5641 54.4551 8.63455 54.807 8.77544C54.9125 8.84588 54.8422 8.77544 54.807 8.77544C54.8422 8.77544 54.8773 8.81066 54.9125 8.81066C54.9477 8.81066 54.9829 8.84588 54.9829 8.84588C54.9125 8.77544 55.0533 8.91633 54.9829 8.84588C55.0181 8.84588 55.0181 8.8811 55.0181 8.8811C55.0533 8.91633 55.0885 8.95155 55.1236 8.98677C55.2644 9.05722 55.2996 9.05722 55.1588 9.022C55.194 9.022 55.1588 9.05722 55.1588 8.98677C55.37 9.23333 55.6514 9.23333 55.7922 9.022Z" fill="#181D23"></path><path d="M43.6882 18.9899C43.8993 19.1661 44.0401 19.3422 44.2512 19.4478C44.4623 19.5887 44.7086 19.6944 44.9549 19.7648C45.4475 19.9762 45.9402 20.1171 46.468 20.2227C47.5236 20.3989 48.5439 20.3989 49.5995 20.2227C50.0921 20.1171 49.881 19.3774 49.3884 19.4478C48.4736 19.624 47.4884 19.624 46.5735 19.4831C46.1161 19.4126 45.6587 19.2717 45.2364 19.1308C45.0253 19.0604 44.8142 18.9899 44.6031 18.8843C44.4975 18.8491 44.392 18.7786 44.2512 18.7434C44.1457 18.7082 44.0049 18.7082 43.8993 18.6377C43.6882 18.5673 43.5123 18.8491 43.6882 18.9899Z" fill="#181D23"></path><path d="M44.0752 11.0649C44.3215 13.1078 44.603 15.1507 44.8141 17.1936C44.8493 17.6867 45.6234 17.6867 45.5882 17.1936C45.4123 15.1155 45.1308 13.0021 44.6382 10.9944C44.603 10.6774 44.0401 10.7126 44.0752 11.0649Z" fill="#181D23"></path><path d="M45.8345 11.3114C45.9049 12.2977 46.0104 13.3191 46.1512 14.3054C46.2919 15.2916 46.3623 16.3131 46.5734 17.2993C46.6438 17.722 47.3475 17.6163 47.3123 17.1936C47.242 16.2074 47.066 15.2212 46.9253 14.1997C46.7845 13.2135 46.6438 12.2272 46.4327 11.241C46.3271 10.924 45.7993 10.9944 45.8345 11.3114Z" fill="#181D23"></path><path d="M47.453 11.7693C47.4179 12.7556 47.5234 13.7418 47.5938 14.728C47.6642 15.7143 47.7345 16.7005 47.8401 17.6867C47.9105 18.1798 48.6845 18.2151 48.6494 17.6867C48.579 16.6653 48.4734 15.679 48.3679 14.6928C48.2623 13.7066 48.1568 12.7203 47.9456 11.7341C47.8753 11.4171 47.453 11.4875 47.453 11.7693Z" fill="#181D23"></path><path d="M49.0366 11.558C48.931 13.4601 49.0014 15.4325 49.318 17.2993C49.3884 17.722 50.0922 17.6163 50.057 17.1937C49.9866 16.2427 49.881 15.3269 49.8107 14.3759C49.7403 13.4248 49.6699 12.4738 49.5995 11.558C49.5643 11.1706 49.0717 11.1706 49.0366 11.558Z" fill="#181D23"></path><path d="M50.9014 11.7694C50.9718 13.6714 50.9718 15.5382 50.9014 17.405C50.8662 17.9686 51.7107 17.9334 51.7459 17.405C51.8867 15.503 51.8163 13.5658 51.4644 11.6637C51.3941 11.382 50.9014 11.4524 50.9014 11.7694Z" fill="#181D23"></path><path d="M53.1182 11.6989C52.9774 12.4385 53.0126 13.2487 53.0126 13.9883C53.0126 14.7632 52.9774 15.5029 52.9774 16.2778C52.9774 16.8766 53.9275 16.8766 53.9275 16.2778C53.9275 15.5029 53.9275 14.7632 53.8923 13.9883C53.8923 13.2487 53.9275 12.4385 53.7867 11.6989C53.7163 11.3466 53.1885 11.3466 53.1182 11.6989Z" fill="#181D23"></path><path d="M54.4199 80.7706C54.2792 80.4536 53.9625 80.2775 53.681 80.1014C53.2939 79.8901 52.9069 79.6787 52.5199 79.5026C51.7809 79.1152 51.0068 78.7629 50.2679 78.4459C48.966 77.8471 47.5234 77.2484 46.0456 77.6006C44.8492 77.8824 43.7584 78.8334 43.6529 80.1366C43.5473 81.5455 44.5677 82.7783 45.5529 83.6237C46.7493 84.6451 48.2271 85.3144 49.7753 85.5609C50.5142 85.6666 50.8309 84.5747 50.092 84.4338C48.6493 84.1872 47.2771 83.5532 46.1863 82.567C45.3066 81.7569 44.1807 80.2423 45.4122 79.2561C46.6085 78.305 48.2271 78.9038 49.4586 79.4674C50.2327 79.8196 51.042 80.1718 51.8161 80.5241C52.2384 80.7002 52.6606 80.8763 53.0828 81.0524C53.4347 81.1933 53.8569 81.3342 54.244 81.2285C54.4199 81.0876 54.4903 80.9115 54.4199 80.7706Z" fill="#181D23"></path><path d="M50.7255 86.0539C51.3589 84.962 52.2385 84.011 53.2941 83.3418C53.8219 83.0248 54.3849 82.743 54.9831 82.5669C55.2646 82.4964 55.5812 82.426 55.8979 82.3556C56.2146 82.3203 56.6017 82.3556 56.9183 82.2499C57.3758 82.0738 57.3758 81.475 56.9183 81.2989C56.6017 81.158 56.109 81.2636 55.7924 81.3341C55.4405 81.3693 55.0886 81.475 54.7719 81.5807C54.0682 81.792 53.4349 82.109 52.8367 82.4964C51.6404 83.3066 50.6903 84.4337 50.2329 85.8074C50.0218 86.1596 50.5496 86.3357 50.7255 86.0539Z" fill="#181D23"></path><path d="M50.2329 85.4552C50.6199 86.0188 51.1829 86.4414 51.7107 86.8289C52.2737 87.2515 52.907 87.639 53.5404 87.9208C54.8071 88.5196 56.1794 88.8366 57.5868 88.907C58.8535 88.9774 60.4017 88.907 61.211 87.7447C61.9499 86.6528 61.387 85.2791 60.648 84.3633C59.698 83.2362 58.0794 82.7783 57.3053 81.5102C56.9183 80.8762 55.8627 81.475 56.2849 82.109C56.9183 83.0953 57.8683 83.6588 58.8183 84.2928C59.5924 84.8212 60.6129 85.7018 60.4721 86.7584C60.2962 87.9208 58.6424 87.8856 57.7628 87.8856C56.5312 87.8503 55.3349 87.6038 54.2089 87.1459C53.5756 86.8993 52.9774 86.6175 52.3792 86.2653C51.7811 85.9131 51.2533 85.42 50.6551 85.0325C50.4088 84.9268 50.0921 85.2086 50.2329 85.4552Z" fill="#181D23"></path><path d="M43.6882 80.4537C43.8641 82.0739 44.0401 83.6589 44.2864 85.2792C44.3215 85.5257 44.6382 85.6666 44.8493 85.5962C45.0956 85.5257 45.2012 85.2792 45.166 85.0326C44.9549 83.4828 44.6734 81.8978 44.3919 80.348C44.3215 79.9958 43.653 80.0662 43.6882 80.4537Z" fill="#181D23"></path><path d="M44.0752 85.1382C45.6234 86.5471 47.4531 87.7095 49.2476 88.8014C49.705 89.0832 50.1273 88.3435 49.6699 88.097C47.8753 87.0403 46.1864 85.8427 44.4271 84.7156C44.1456 84.5394 43.8289 84.9269 44.0752 85.1382Z" fill="#181D23"></path><path d="M49.4235 84.9974C49.0716 85.7018 49.0716 86.5119 49.4235 87.2164C49.529 87.3925 49.7754 87.4629 49.9161 87.3573C50.092 87.2516 50.1624 87.0403 50.0569 86.8642C50.0217 86.8289 50.0217 86.7937 49.9865 86.7585C49.9865 86.7233 49.9865 86.7233 49.9513 86.688C49.9865 86.7233 49.9513 86.7233 49.9513 86.688C49.9161 86.6176 49.9161 86.5471 49.8809 86.4767C49.8809 86.4415 49.8457 86.4063 49.8457 86.371C49.8457 86.371 49.8105 86.2301 49.8457 86.3006C49.8457 86.2301 49.8457 86.1597 49.8457 86.0893C49.8457 86.0188 49.8457 85.9484 49.8457 85.8779C49.8457 85.8779 49.8809 85.737 49.8457 85.8075C49.8457 85.7723 49.8457 85.737 49.8809 85.7018C49.8809 85.6314 49.9161 85.5609 49.9513 85.4905C49.9513 85.4552 49.9865 85.42 49.9865 85.3848C49.9513 85.4552 50.0217 85.3496 50.0217 85.3144C50.092 85.1382 50.0569 84.9269 49.9161 84.8565C49.705 84.786 49.4938 84.8212 49.4235 84.9974Z" fill="#181D23"></path><path d="M49.3884 87.3221C49.5995 87.3925 49.7755 87.463 49.9866 87.5334C50.1977 87.6038 50.3736 87.6743 50.5848 87.7447C50.7959 87.8152 51.007 87.6391 51.007 87.4277C51.007 87.1459 51.007 86.8642 51.007 86.5824C51.007 86.4063 50.8662 86.2301 50.6551 86.2301C50.4792 86.2301 50.3033 86.371 50.3033 86.5824C50.3033 86.8642 50.3385 87.1459 50.3385 87.4277C50.4792 87.3221 50.6199 87.2164 50.7607 87.1107C50.5496 87.0403 50.3736 87.005 50.1625 86.9346C49.9514 86.8642 49.7403 86.8289 49.5644 86.7937C49.4236 86.7585 49.2477 86.8289 49.2125 87.0051C49.1421 87.1459 49.2477 87.2868 49.3884 87.3221Z" fill="#181D23"></path><path d="M47.9104 87.6743C49.2827 89.0832 50.8309 90.2807 52.5902 91.1965C53.4347 91.6192 54.3495 92.0067 55.2644 92.3237C56.1792 92.6407 57.1644 92.9577 58.1497 93.0633C58.6774 93.1338 58.7478 92.2884 58.2904 92.1475C57.4107 91.901 56.4959 91.7249 55.6162 91.4431C54.7366 91.1613 53.8569 90.7739 53.0125 90.3512C51.3235 89.5059 49.7401 88.5196 48.2623 87.322C48.016 87.1459 47.6993 87.4277 47.9104 87.6743Z" fill="#181D23"></path><path d="M60.8944 86.7233C60.7536 87.3573 60.6481 88.0265 60.6481 88.6957C60.6481 89.3298 60.6832 90.0694 60.8592 90.6682C60.9295 90.8795 61.1758 91.0204 61.387 90.9852C61.6333 90.9148 61.7388 90.6682 61.7036 90.4569C61.6333 89.8581 61.4925 89.2593 61.4573 88.6605C61.4221 88.0617 61.4222 87.4277 61.4925 86.8289C61.4925 86.4415 60.9647 86.4063 60.8944 86.7233Z" fill="#181D23"></path><path d="M57.1294 92.5702C58.7127 93.169 60.5776 92.2532 61.1758 90.7034C61.2461 90.5273 61.1054 90.2807 60.9295 90.2455C60.7183 90.1751 60.5424 90.316 60.472 90.4921C60.0146 91.6897 58.5368 92.3589 57.3053 92.0067C56.9183 91.8658 56.7775 92.4293 57.1294 92.5702Z" fill="#181D23"></path><path d="M45.2364 83.0953C45.3771 83.7997 45.4827 84.5042 45.6586 85.2438C45.6938 85.42 45.9401 85.5608 46.116 85.4904C46.3272 85.42 46.4327 85.2438 46.3623 85.0325C46.1864 84.3281 46.0105 83.6236 45.8345 82.9192C45.7993 82.743 45.6234 82.6726 45.4475 82.7078C45.2715 82.7783 45.2012 82.9544 45.2364 83.0953Z" fill="#181D23"></path><path d="M47.0308 83.9759C47.066 84.6803 47.1364 85.3848 47.2068 86.0892C47.242 86.2653 47.3475 86.4062 47.5235 86.4062C47.6994 86.4062 47.8753 86.2653 47.8401 86.0892C47.7698 85.3495 47.6994 84.6099 47.5586 83.9054C47.5235 83.7645 47.3827 83.6941 47.242 83.6941C47.1364 83.7293 47.0308 83.835 47.0308 83.9759Z" fill="#181D23"></path><path d="M32.9914 40.7224C33.66 41.5677 34.6452 42.2017 35.5952 42.6949C36.5804 43.2232 37.636 43.6106 38.6916 43.9277C40.9436 44.5969 43.2659 45.0196 45.553 45.3013C50.3383 45.8649 55.194 45.6183 59.8738 44.6673C62.5128 44.139 65.187 43.4345 67.65 42.3074C68.2482 42.0609 67.826 41.0394 67.1926 41.2507C64.9759 42.0256 62.8295 42.8005 60.5424 43.2936C58.2905 43.822 55.9681 44.139 53.6458 44.3151C49.0364 44.6321 44.3566 44.2447 39.9232 43.1175C38.762 42.8005 37.5657 42.4483 36.4749 41.9552C35.3841 41.4621 34.3989 40.7928 33.4137 40.1236C33.0618 39.877 32.7451 40.4406 32.9914 40.7224Z" fill="#181D23"></path><path d="M31.584 67.5622C36.0879 69.9925 41.2251 71.1901 46.2567 71.6128C51.3236 72.0354 56.4608 71.5423 61.3165 70.2039C62.6184 69.8516 63.9203 69.429 65.1519 68.8302C66.3834 68.2666 67.439 67.4917 68.4242 66.5759C68.9872 66.0476 68.0723 65.1318 67.5797 65.7306C66.0667 67.4565 63.7444 68.3018 61.598 68.9358C59.2405 69.6403 56.8127 70.1334 54.3848 70.38C49.4939 70.9083 44.5326 70.5913 39.7473 69.4642C37.0731 68.8302 34.4341 67.9144 31.8655 66.8929C31.4784 66.6816 31.197 67.3508 31.584 67.5622Z" fill="#181D23"></path><path d="M62.3018 33.7483C62.8647 34.3119 63.4629 34.8403 64.0611 35.3686C64.6593 35.8969 65.2574 36.4253 65.8908 36.9536C66.1019 37.1297 66.3834 37.1649 66.5593 36.9536C66.7353 36.7775 66.7353 36.4605 66.5593 36.2844C65.9612 35.7208 65.3278 35.1925 64.7296 34.6641C64.0963 34.1358 63.4629 33.6075 62.7944 33.0791C62.6184 32.9382 62.3721 33.0439 62.2666 33.1848C62.1258 33.3609 62.1258 33.6075 62.3018 33.7483Z" fill="#181D23"></path><path d="M62.3017 37.0592C62.9351 37.5523 63.5332 38.0454 64.0962 38.6442C64.6592 39.243 65.0814 39.8066 65.4685 40.511C65.6092 40.7576 65.9611 40.8632 66.2074 40.7224C66.4537 40.5815 66.5593 40.2292 66.4185 39.9827C65.9259 39.2782 65.4333 38.609 64.7999 38.0102C64.2018 37.4114 63.5332 36.8479 62.7943 36.4252C62.6184 36.3195 62.3721 36.3547 62.2665 36.5309C62.1609 36.6365 62.1258 36.9183 62.3017 37.0592Z" fill="#181D23"></path><path d="M62.7591 41.4973C63.8147 42.6244 64.9407 43.7163 65.9963 44.8435C66.2074 45.0548 66.5944 45.0548 66.7704 44.8435C66.9815 44.6321 66.9815 44.2799 66.7704 44.0686C65.6444 43.0119 64.5536 41.8848 63.4277 40.8281C63.0054 40.4054 62.3369 41.0394 62.7591 41.4973Z" fill="#181D23"></path><path d="M63.3221 46.4989C63.4629 46.6046 63.6388 46.675 63.7796 46.7807C63.8499 46.8159 63.9203 46.8863 63.9907 46.9216C63.9907 46.9216 64.1314 47.0272 64.0259 46.9568C64.061 46.992 64.0962 46.992 64.1314 47.0272C64.4129 47.2386 64.6592 47.4851 64.9055 47.7669C65.0111 47.9078 65.1518 48.0135 65.2574 48.1544C65.2926 48.1896 65.3278 48.2248 65.3278 48.26C65.3278 48.26 65.4333 48.4009 65.363 48.2953C65.3981 48.3657 65.4685 48.4361 65.5037 48.5066C65.7148 48.8236 65.9259 49.1054 66.1019 49.4224C66.2426 49.6689 66.5945 49.7746 66.8408 49.5985C67.0871 49.4224 67.1575 49.1406 67.0167 48.8588C66.3482 47.4499 65.187 46.2876 63.8147 45.5831C63.5684 45.4422 63.2518 45.5127 63.111 45.7592C63.0406 46.041 63.111 46.358 63.3221 46.4989Z" fill="#181D23"></path><path d="M63.3221 50.7608C64.5888 51.5357 65.6796 52.5924 66.3833 53.8956C66.5241 54.1422 66.9111 54.2478 67.1575 54.1069C67.4038 53.9308 67.5445 53.6138 67.3686 53.332C66.4889 51.9231 65.2925 50.6903 63.8147 49.9154C63.5684 49.8098 63.2869 49.845 63.1461 50.0916C63.0054 50.3381 63.111 50.6551 63.3221 50.7608Z" fill="#181D23"></path><path d="M63.4628 55.9387C63.4628 55.9387 63.6036 56.0091 63.498 55.9387C63.5332 55.9387 63.5684 55.9739 63.6036 55.9739C63.674 56.0091 63.7443 56.0443 63.8147 56.0795C63.9555 56.15 64.061 56.2204 64.2017 56.2909C64.3425 56.3613 64.4481 56.467 64.5888 56.5374C64.5888 56.5374 64.7295 56.6431 64.624 56.5727C64.6592 56.6079 64.6944 56.6079 64.6944 56.6431C64.7647 56.6783 64.7999 56.7488 64.8703 56.784C64.9759 56.8897 65.0814 56.9953 65.187 57.101C65.2574 57.1715 65.2925 57.2067 65.3277 57.2771C65.3629 57.3123 65.3629 57.3476 65.3981 57.3476C65.3277 57.2771 65.4333 57.3828 65.3981 57.3476C65.574 57.5941 65.75 57.8759 65.8907 58.1577C66.0315 58.4042 66.4185 58.5099 66.6648 58.369C66.9463 58.1929 67.0167 57.8759 66.8759 57.5941C66.2426 56.3613 65.0814 55.3751 63.7443 54.9876C63.498 54.9172 63.1813 55.0581 63.1462 55.3399C63.0406 55.6217 63.1814 55.833 63.4628 55.9387Z" fill="#181D23"></path><path d="M63.3925 60.7288C63.674 60.8697 63.9555 61.0458 64.2018 61.2219C64.237 61.2571 64.2722 61.2571 64.3074 61.2924C64.413 61.3628 64.237 61.2219 64.3426 61.2924C64.4129 61.3276 64.4833 61.398 64.5185 61.4332C64.6241 61.5389 64.7648 61.6446 64.8704 61.7503C64.9759 61.8559 65.0815 61.9968 65.1871 62.1025C65.1167 62.032 65.2574 62.2081 65.1871 62.1025C65.2222 62.1377 65.2222 62.1729 65.2574 62.2081C65.2926 62.2786 65.3278 62.349 65.3982 62.3843C65.5037 62.5252 65.5741 62.666 65.6445 62.7717C65.6797 62.8422 65.7149 62.9126 65.75 62.983C65.75 63.0183 65.7852 63.0535 65.7852 63.0887C65.7852 63.1239 65.8556 63.2648 65.8204 63.1239C65.8908 63.2648 65.926 63.3705 66.0667 63.4409C66.1723 63.5114 66.3482 63.5466 66.4889 63.5114C66.7353 63.4409 66.9816 63.1239 66.876 62.8422C66.5945 62.1377 66.2075 61.5037 65.6797 60.9401C65.1519 60.4118 64.5185 59.9891 63.7796 59.7778C63.2518 59.7426 62.9351 60.4822 63.3925 60.7288Z" fill="#181D23"></path><path d="M63.2518 65.2373C63.7444 65.66 64.237 66.1531 64.6592 66.6462C64.6944 66.6815 64.6944 66.7167 64.7296 66.7167C64.8352 66.8576 64.6944 66.6815 64.7648 66.7519C64.8 66.8224 64.8703 66.8928 64.9055 66.9632C65.0111 67.1041 65.0815 67.245 65.187 67.3507C65.363 67.6325 65.5389 67.9495 65.6796 68.2313C65.8204 68.513 66.2075 68.5835 66.4538 68.4426C66.7353 68.2665 66.8056 67.9495 66.6649 67.6677C65.9963 66.3997 65.0111 65.2726 63.8148 64.4624C63.3925 64.2159 62.8295 64.8851 63.2518 65.2373Z" fill="#181D23"></path><path d="M62.8999 70.4503C63.0406 70.5208 63.1462 70.5912 63.2518 70.6969C63.3221 70.7321 63.3573 70.7674 63.4277 70.8026C63.4629 70.8378 63.498 70.8378 63.498 70.873C63.3925 70.8026 63.5332 70.873 63.5332 70.9082C63.7444 71.0844 63.9555 71.2605 64.1666 71.4718C64.3777 71.6831 64.5536 71.8945 64.7296 72.1058C64.7296 72.1058 64.8 72.2115 64.7648 72.141C64.7296 72.0706 64.8 72.1763 64.8 72.1763C64.8352 72.2467 64.8703 72.2819 64.9055 72.3524C64.9759 72.4933 65.0815 72.5989 65.1518 72.7398C65.2926 72.9864 65.6445 73.092 65.9259 72.9512C66.1723 72.8103 66.313 72.458 66.1371 72.1763C65.3981 71.1196 64.4833 70.239 63.3925 69.605C63.1814 69.4641 62.8647 69.5346 62.724 69.7811C62.5832 70.0277 62.6536 70.3095 62.8999 70.4503Z" fill="#181D23"></path><path d="M62.9702 74.0783C63.0406 74.2192 63.1814 74.3601 63.2869 74.4657C63.3925 74.5714 63.4629 74.6771 63.5684 74.7475C63.7795 74.9588 63.9555 75.1702 64.1666 75.3463C64.5537 75.7337 64.9407 76.1564 65.363 76.5439C65.5741 76.72 65.8908 76.7552 66.1019 76.5439C66.2778 76.3325 66.313 76.0155 66.1019 75.8042C65.7148 75.4167 65.2926 75.0293 64.8703 74.6418C64.6592 74.4657 64.4481 74.2544 64.2722 74.0783C64.1666 73.9726 64.061 73.9022 63.9907 73.7965C63.8499 73.6908 63.7444 73.5499 63.5684 73.4795C63.3925 73.409 63.1814 73.409 63.0406 73.5499C62.8999 73.6908 62.8999 73.9022 62.9702 74.0783Z" fill="#181D23"></path><path d="M62.4778 77.037C62.513 77.1779 62.5833 77.2836 62.6889 77.3892C62.7593 77.4597 62.7944 77.5301 62.8648 77.5653C62.9704 77.7062 63.1111 77.8119 63.2167 77.9528C63.463 78.1993 63.6741 78.4459 63.9204 78.6925C64.0963 78.9038 64.4834 78.9038 64.6593 78.6925C64.8353 78.4811 64.8704 78.1289 64.6593 77.9528C64.413 77.7062 64.1667 77.4949 63.9204 77.2483C63.7797 77.1427 63.6741 77.0018 63.5334 76.8961C63.463 76.8257 63.3926 76.7904 63.3574 76.72C63.2519 76.6143 63.1463 76.5087 63.0056 76.5087C62.8648 76.4734 62.7241 76.5087 62.6185 76.6143C62.4426 76.7552 62.4426 76.8961 62.4778 77.037Z" fill="#181D23"></path><path d="M35.4547 74.1135C35.877 74.6771 36.3344 75.2054 36.7566 75.7338C37.1789 76.2621 37.6363 76.7905 38.0937 77.2836C38.2696 77.4597 38.6215 77.4949 38.7974 77.2836C39.0086 77.0722 38.9734 76.7905 38.7974 76.5791C38.3752 76.0508 37.9178 75.5577 37.4604 75.0645C37.0029 74.5714 36.5807 74.0783 36.0881 73.6204C35.9474 73.4795 35.701 73.4443 35.5251 73.5852C35.3844 73.6909 35.314 73.9374 35.4547 74.1135Z" fill="white"></path><path d="M35.7714 70.9787C36.651 72.5637 37.8122 74.0431 39.1844 75.2407C39.3955 75.4168 39.7122 75.452 39.9233 75.2407C40.0993 75.0645 40.1345 74.7123 39.9233 74.501C38.6215 73.3386 37.4603 72.0354 36.5103 70.556C36.2288 70.0982 35.4899 70.5208 35.7714 70.9787Z" fill="white"></path><path d="M35.5251 68.0904C36.651 69.3936 37.777 70.6968 38.9733 71.9296C39.1493 72.141 39.5011 72.1057 39.6771 71.9296C39.8882 71.7183 39.853 71.4013 39.6771 71.2252C38.5511 69.9572 37.3196 68.7244 36.1232 67.4916C35.7362 67.0689 35.138 67.6677 35.5251 68.0904Z" fill="white"></path><path d="M35.4547 63.9694C36.3344 65.4135 37.4955 66.7167 38.8678 67.703C39.0789 67.8791 39.4308 67.7382 39.5715 67.5269C39.7123 67.2451 39.6067 66.9985 39.3956 66.8224C39.2549 66.7168 39.1493 66.6111 38.9734 66.5054C38.8326 66.3645 38.6567 66.2589 38.5159 66.118C38.2345 65.8714 37.953 65.5896 37.6715 65.3078C37.1437 64.7443 36.6511 64.1455 36.2288 63.5115C36.0881 63.3001 35.8418 63.2297 35.6307 63.3354C35.4196 63.5115 35.314 63.7933 35.4547 63.9694Z" fill="white"></path><path d="M35.5954 60.271C36.5455 61.4333 37.601 62.5604 38.4103 63.8285C38.5863 64.1102 38.9381 64.1807 39.1844 63.9694C39.4659 63.758 39.4307 63.4058 39.2548 63.1592C38.7622 62.5604 38.2696 61.9617 37.777 61.3629C37.2492 60.7641 36.7214 60.2005 36.1232 59.7074C35.7362 59.3904 35.2787 59.8835 35.5954 60.271Z" fill="white"></path><path d="M35.5954 56.7136C36.5806 57.9463 37.601 59.1439 38.4807 60.4824C38.6214 60.7289 38.9381 60.7994 39.1844 60.6585C39.3955 60.5176 39.5363 60.2006 39.3604 59.954C38.4455 58.5804 37.3899 57.2419 36.1232 56.1852C35.7362 55.9034 35.2787 56.3613 35.5954 56.7136Z" fill="white"></path><path d="M35.4547 53.2969C36.6158 54.2479 37.5659 55.3751 38.1992 56.7488C38.3048 56.9953 38.6918 57.0658 38.903 56.9249C39.1493 56.784 39.2196 56.467 39.0789 56.2204C38.34 54.8115 37.2492 53.5435 35.8769 52.7686C35.5251 52.5572 35.138 53.0504 35.4547 53.2969Z" fill="white"></path><path d="M35.4196 48.4362C36.4048 49.5986 37.39 50.7609 38.1993 52.0642C38.3401 52.3107 38.6567 52.3812 38.903 52.2403C39.1142 52.0994 39.2549 51.7824 39.079 51.5358C38.5864 50.8666 38.0937 50.2326 37.5308 49.6338C36.9678 49.035 36.4048 48.5067 35.7363 48.0136C35.49 47.8375 35.2437 48.2249 35.4196 48.4362Z" fill="white"></path><path d="M35.8769 44.4208C36.4047 45.09 36.9325 45.7593 37.3899 46.4637C37.8473 47.2034 38.2695 47.9431 38.6214 48.7532C38.727 48.9998 39.114 49.0702 39.3251 48.9293C39.5714 48.7884 39.6066 48.4714 39.5011 48.2249C39.1492 47.4147 38.6918 46.6398 38.1992 45.9002C37.6714 45.1605 37.1084 44.4208 36.4399 43.8572C36.0528 43.505 35.5602 44.0334 35.8769 44.4208Z" fill="white"></path><path d="M36.264 39.8067C37.2844 40.969 38.1993 42.2018 38.903 43.5755C39.0438 43.8221 39.3604 43.8925 39.6067 43.7516C39.8531 43.6107 39.9234 43.2937 39.7827 43.0472C39.0086 41.6383 38.0233 40.2998 36.827 39.2431C36.4399 38.9261 35.9473 39.4192 36.264 39.8067Z" fill="white"></path><path d="M38.9733 38.6091C39.2196 38.8909 39.4659 39.1726 39.7122 39.4544C39.7474 39.5249 39.8177 39.5601 39.8881 39.5601C39.9585 39.5953 40.0289 39.5953 40.0992 39.5953C40.24 39.5953 40.4159 39.5249 40.4863 39.4192C40.5918 39.3135 40.6622 39.1727 40.6622 39.0318C40.6622 38.8909 40.5918 38.75 40.4863 38.6443C40.24 38.3625 39.9937 38.116 39.7122 37.8342C39.6066 37.7285 39.4659 37.6581 39.3251 37.6581C39.1844 37.6581 39.0436 37.7285 38.9381 37.8342C38.8325 37.9399 38.7621 38.0807 38.7621 38.2216C38.7621 38.2569 38.7621 38.3273 38.7973 38.3625C38.8677 38.433 38.9029 38.5386 38.9733 38.6091Z" fill="white"></path><path d="M36.7214 35.9322C37.0733 36.4253 37.4604 36.848 37.8474 37.3059C38.2345 37.7285 38.5862 38.1864 38.9733 38.6091C39.1492 38.8204 39.5716 38.8204 39.7475 38.6091C39.9586 38.3978 39.9586 38.0455 39.7475 37.8342C39.3604 37.4115 38.9734 37.0241 38.5863 36.6014C38.1993 36.1787 37.8122 35.7913 37.39 35.4038C37.214 35.2629 37.0029 35.2277 36.827 35.3686C36.6511 35.4743 36.5807 35.7561 36.7214 35.9322Z" fill="white"></path><path d="M38.6567 32.5156C38.8326 32.7269 39.0085 32.9382 39.2197 33.1496C39.2548 33.1848 39.3252 33.2552 39.3956 33.2552C39.466 33.2905 39.5363 33.2905 39.6067 33.2905C39.6771 33.2905 39.7474 33.2905 39.8178 33.2552C39.8882 33.22 39.9234 33.1848 39.9937 33.1496C40.0993 33.0439 40.1697 32.903 40.1345 32.7621C40.1345 32.6212 40.0993 32.4803 39.9937 32.3747C39.7826 32.1986 39.5715 31.9872 39.3604 31.8111C39.3252 31.7759 39.2548 31.7407 39.2197 31.7054C39.1493 31.6702 39.1141 31.6702 39.0437 31.6702C38.9734 31.6702 38.903 31.6702 38.8678 31.7054C38.7974 31.7407 38.7622 31.7407 38.7271 31.8111C38.6567 31.9168 38.5863 32.0224 38.5863 32.1281C38.5863 32.1633 38.5863 32.1986 38.5863 32.269C38.5511 32.4099 38.5863 32.4803 38.6567 32.5156Z" fill="white"></path><path d="M38.2695 32.0224C38.3047 32.0576 38.3047 32.0928 38.3399 32.1281C38.3751 32.1633 38.4103 32.2337 38.4455 32.269C38.4455 32.3042 38.4807 32.3042 38.4807 32.3394C38.551 32.4099 38.5862 32.4803 38.6566 32.5507C38.6918 32.586 38.7622 32.6212 38.7974 32.6564C38.8677 32.6916 38.9029 32.6916 38.9733 32.6916C39.0437 32.6916 39.114 32.6916 39.1492 32.6564C39.2196 32.6212 39.2548 32.6212 39.29 32.5507C39.3252 32.5155 39.3252 32.4803 39.3603 32.4451C39.3955 32.3746 39.4307 32.3042 39.4307 32.1985C39.4307 32.1633 39.4307 32.1281 39.4307 32.0576C39.3955 31.9872 39.3603 31.9167 39.3252 31.8463C39.2548 31.7758 39.1844 31.7406 39.114 31.6702L39.0789 31.635C39.0437 31.5997 39.0085 31.5645 38.9381 31.5293C38.9029 31.4941 38.8677 31.4941 38.8325 31.4588C38.7974 31.4588 38.7622 31.4236 38.727 31.4236C38.6918 31.4236 38.6214 31.3884 38.5862 31.4236C38.551 31.4236 38.5159 31.4236 38.4807 31.4588C38.4455 31.4588 38.3751 31.4941 38.3399 31.5293C38.3047 31.5645 38.3047 31.5645 38.2695 31.5997C38.2695 31.635 38.2344 31.6702 38.2344 31.7054C38.2344 31.7406 38.1992 31.8111 38.2344 31.8463C38.2344 31.9167 38.2695 31.952 38.2695 32.0224Z" fill="white"></path></svg> 