<?xml version="1.0" encoding="UTF-8"?> <svg xmlns="http://www.w3.org/2000/svg" width="100" height="121" viewBox="0 0 100 121" fill="none"><path opacity="0.3" fill-rule="evenodd" clip-rule="evenodd" d="M33.6928 11.8916V46.1416V71.3916C33.4844 71.9541 33.6178 72.8666 35.8178 72.0166C37.007 71.5571 37.9508 70.9691 38.8008 70.4395C39.9163 69.7444 40.8703 69.15 42.0054 69.0791C43.6054 68.9791 45.0887 69.5791 45.6304 69.8916L46.1304 77.2666C44.9637 77.3916 42.8804 77.7916 43.8804 78.3916C45.1304 79.1416 48.2554 80.3916 49.8804 80.3916C51.5054 80.3916 53.3804 79.8291 53.5679 78.8916C53.7179 78.1416 52.547 77.0791 51.9429 76.6416C51.922 74.6624 51.9679 70.5416 52.3179 69.8916C52.4264 69.6901 52.4465 69.4848 52.4649 69.2966C52.5208 68.7259 52.5612 68.3126 55.0054 68.6416C56.4974 68.8424 57.2517 69.1223 57.9095 69.3663C58.6844 69.6539 59.3252 69.8916 60.8804 69.8916C63.1804 69.8916 64.797 69.3499 65.3179 69.0791L66.4429 13.2666C64.2137 11.7666 57.8429 8.7666 50.1929 8.7666C42.5429 8.7666 36.0053 10.8499 33.6928 11.8916ZM50.1929 11.3916C47.7554 11.3916 44.3804 13.2666 49.6929 13.2666C55.0054 13.2666 53.3179 11.3916 50.1929 11.3916Z" fill="#EFFAFE"></path><path opacity="0.8" d="M34.1934 32.5167C34.3184 29.5167 38.8184 27.7667 49.5684 27.7667C56.2281 27.3663 62.6766 29.7665 65.0684 31.0167C65.235 39.9333 65.4684 58.4667 65.0684 61.2667C64.5684 64.7667 56.1934 65.7667 48.6934 65.7667C42.6934 65.7667 36.5267 63.4333 34.1934 62.2667C34.1517 53.35 34.0934 34.9167 34.1934 32.5167Z" fill="#FE6869"></path><path opacity="0.4" fill-rule="evenodd" clip-rule="evenodd" d="M49.5684 27.7667C38.8184 27.7667 34.3184 29.5167 34.1934 32.5167C34.1934 35.4868 39.9961 35.2419 45.4528 35.0116C46.8856 34.9511 48.2946 34.8916 49.5684 34.8916C55.6934 34.8916 65.0684 34.7041 65.0684 31.0167C62.6766 29.7665 56.2281 27.3663 49.5684 27.7667Z" fill="white"></path><path opacity="0.2" fill-rule="evenodd" clip-rule="evenodd" d="M60.2639 10.4255L60.8804 69.8916C63.1804 69.8916 64.797 69.3499 65.3179 69.0791L66.4429 13.2666C65.3169 12.5089 63.1343 11.3686 60.2639 10.4255Z" fill="black"></path><path d="M33.2093 12.7852C35.5316 12.3273 37.8187 11.5171 40.141 10.9536C42.4633 10.39 44.8208 9.96734 47.1782 9.756C51.5062 9.36855 55.8693 9.65034 60.0213 10.9888C62.2732 11.7285 64.4196 12.8204 66.3548 14.2293C67.0234 14.7224 67.6567 13.5953 66.9882 13.1374C59.4231 7.67787 49.5357 7.60742 40.8095 9.61511C39.4372 9.93212 38.1002 10.2843 36.7983 10.6718C35.4964 11.0592 34.1593 11.4819 32.9278 12.0807C32.5055 12.292 32.8222 12.8556 33.2093 12.7852Z" fill="#181D23"></path><path d="M65.7215 13.7009C65.3696 15.4621 65.3696 17.2937 65.264 19.0548C65.1937 20.8511 65.0881 22.6827 65.0529 24.4791C64.9122 28.1422 64.8066 31.7702 64.7362 35.4333C64.5603 42.7244 64.49 49.9803 64.49 57.2714C64.49 61.3572 64.5251 65.4431 64.5955 69.5289C64.5955 70.4447 66.0029 70.4447 66.0029 69.5289C65.8622 62.273 65.827 55.0524 65.8974 47.7965C65.9678 40.5406 66.0733 33.32 66.3196 26.0641C66.39 24.0212 66.4603 21.9783 66.5307 19.9354C66.6011 17.8924 66.8122 15.8143 66.6011 13.8066C66.5307 13.3839 65.827 13.2078 65.7215 13.7009Z" fill="#181D23"></path><path d="M33.1741 13.1373C32.9981 16.9414 33.2444 20.7454 33.3148 24.5143C33.3852 28.3535 33.4908 32.1576 33.5259 35.9969C33.6315 43.6049 33.5963 51.213 33.4556 58.7859C33.3852 63.0831 33.2796 67.3802 33.1389 71.6774C33.1037 72.6284 34.5463 72.6284 34.5815 71.6774C34.8278 64.0693 34.9334 56.426 34.9686 48.7827C34.9686 41.1746 34.9334 33.5665 34.6871 25.9936C34.6167 23.845 34.5463 21.7317 34.4408 19.5831C34.3352 17.4345 34.2648 15.2507 33.9834 13.1021C33.9482 12.609 33.2093 12.5738 33.1741 13.1373Z" fill="#181D23"></path><path d="M47.2486 12.609C48.0931 12.2215 48.9728 11.9397 49.9228 11.975C50.3802 11.975 50.8376 12.0454 51.2599 12.1511C51.471 12.2215 51.7173 12.292 51.9284 12.3976C52.034 12.4329 52.1395 12.5033 52.2451 12.5738C52.2803 12.609 52.3155 12.609 52.3507 12.6442C52.3859 12.6794 52.3858 12.6794 52.3858 12.609C52.3858 12.5738 52.3858 12.5385 52.421 12.5033C52.3858 12.5385 52.3859 12.5385 52.3507 12.5738C52.2803 12.609 52.2099 12.6442 52.1044 12.6794C51.858 12.7499 51.5766 12.8203 51.3302 12.8555C50.8025 12.9612 50.2395 13.0317 49.7117 13.0317C49.1487 13.0669 48.5857 13.0317 48.0227 12.9612C47.8468 12.926 47.6357 12.926 47.4949 12.8203C47.4597 12.8203 47.3894 12.7499 47.4246 12.7499C47.3542 12.7146 47.5301 12.6442 47.3894 12.7851C47.9172 12.2215 47.0727 11.341 46.5449 11.9397C46.1578 12.3624 46.1227 12.9964 46.4745 13.4896C46.8264 13.9474 47.3894 14.0883 47.9524 14.1236C49.1839 14.2292 50.4154 14.1588 51.6117 13.877C52.1395 13.7713 52.7025 13.6304 53.0896 13.243C53.4766 12.8555 53.4766 12.2568 53.0544 11.9045C52.6673 11.5875 52.1043 11.3762 51.6117 11.2705C51.1191 11.1296 50.5913 11.0592 50.0635 11.0592C48.9024 11.0944 47.7764 11.4114 46.8968 12.1863C46.7208 12.3976 47.0023 12.7147 47.2486 12.609Z" fill="#181D23"></path><path d="M34.8981 17.1527C36.0593 15.2507 37.7482 13.6305 39.9298 13.0669C41.0206 12.7851 42.1817 12.8203 43.2725 13.1373C44.4337 13.4543 45.2782 14.1236 46.1226 14.9337C46.5097 15.3211 46.9319 15.7086 47.4245 15.9904C47.9875 16.3074 48.6209 16.4483 49.2542 16.5539C50.4154 16.7653 51.6469 16.9062 52.8081 16.73C53.371 16.6596 53.8988 16.4835 54.3915 16.2369C54.9896 15.9551 55.447 15.4973 55.9396 15.0746C56.8545 14.2997 57.9805 13.7713 59.1768 13.7009C61.7102 13.4896 64.0326 15.0746 64.877 17.4345C65.0881 17.9981 65.9678 17.7867 65.7919 17.1879C65.0881 15.0041 63.1881 13.243 60.901 12.8203C59.6694 12.5738 58.3675 12.7147 57.2064 13.1726C56.6434 13.4191 56.0804 13.7009 55.5878 14.0883C55.06 14.511 54.6026 15.0041 54.0044 15.3211C52.8784 15.9551 51.471 15.8847 50.2043 15.7086C49.5357 15.6029 48.8672 15.4972 48.269 15.2859C47.6356 15.0394 47.1782 14.6167 46.6856 14.1236C44.9263 12.3624 42.5688 11.5875 40.1057 12.0454C37.5019 12.5033 35.25 14.4406 34.3 16.9062C34.1944 17.2584 34.7222 17.4697 34.8981 17.1527Z" fill="#181D23"></path><path d="M63.927 16.4131C64.1733 19.9354 64.4548 23.4576 64.49 26.9799C64.49 27.4378 65.2289 27.4378 65.1937 26.9799C65.0882 23.4224 64.877 19.8649 64.314 16.3426C64.2789 16.1665 63.927 16.2018 63.927 16.4131Z" fill="#181D23"></path><path d="M32.963 71.6422C33.6667 72.5228 34.8982 72.6637 35.9186 72.3819C37.2205 72.0297 38.2409 71.1491 39.4373 70.5855C40.6336 70.022 41.9707 69.6345 43.3078 69.6698C43.73 69.6698 44.7856 69.6697 44.9263 70.1629C45.0319 70.4799 44.9967 70.8673 45.0319 71.1843C45.0671 71.5718 45.1023 71.9945 45.1374 72.3819C45.2078 73.2272 45.2782 74.0374 45.3486 74.8827C45.4189 75.7633 45.4189 76.6791 45.5949 77.5244C45.7356 78.1936 46.7208 78.0175 46.756 77.3835C46.7912 76.6086 46.6505 75.7633 46.5801 74.9884C46.5097 74.2135 46.4393 73.4386 46.369 72.6637C46.2986 71.8888 46.2282 71.1491 46.1578 70.3742C46.0875 69.705 45.7708 69.1414 45.1022 68.8949C43.8707 68.437 42.3577 68.5426 41.1262 68.8596C39.7539 69.2119 38.5576 69.8811 37.3964 70.6208C36.2705 71.3252 34.6871 72.1706 33.4204 71.2195C33.1037 70.9378 32.7166 71.29 32.963 71.6422Z" fill="#181D23"></path><path d="M52.3857 76.6086C52.3154 74.8475 52.4209 73.0864 52.7728 71.3605C52.8783 70.9378 52.9839 70.5151 53.0895 70.0924C53.195 69.7754 53.2654 69.388 53.5469 69.2119C54.0747 68.8949 54.9896 69.2471 55.5173 69.388C57.1711 69.8459 58.7897 70.4447 60.4786 70.6912C62.1324 70.9025 63.7158 70.7617 65.2288 70.022C65.9677 69.6698 65.2992 68.5074 64.5955 68.8949C62.1324 70.2686 59.0712 69.1062 56.5729 68.3665C55.4822 68.0495 53.934 67.4508 52.8784 68.1552C52.3506 68.5074 52.1043 69.071 51.9283 69.6698C51.7172 70.3742 51.5413 71.1139 51.4357 71.8536C51.1894 73.4738 51.2598 75.1293 51.6116 76.7143C51.7172 77.1722 52.4209 77.0665 52.3857 76.6086Z" fill="#181D23"></path><path d="M33.737 60.7232C33.8777 61.8151 34.3351 62.7662 35.1444 63.541C35.9889 64.3159 37.0093 64.8443 38.1353 65.1613C39.3668 65.5135 40.6335 65.6896 41.9002 65.8305C43.2725 66.0066 44.6096 66.1475 45.9819 66.218C48.7616 66.3941 51.5765 66.3589 54.3562 66.1828C55.6933 66.0771 57.0656 65.9362 58.4027 65.7601C59.5638 65.584 60.7602 65.3726 61.851 64.95C64.2085 63.9989 66.1789 61.7799 65.6511 59.103C65.4752 58.2929 64.2085 58.6451 64.4196 59.4552C64.9122 61.4981 63.1529 63.224 61.3935 63.8933C60.3731 64.2807 59.2824 64.4921 58.2268 64.633C56.9952 64.8091 55.7637 64.95 54.5322 65.0204C52.0339 65.1965 49.5357 65.267 47.0375 65.1261C44.6096 65.0204 42.1465 64.8091 39.7539 64.3864C38.5575 64.1751 37.3612 63.8228 36.3408 63.1536C35.4611 62.5548 34.6166 61.639 34.3703 60.5824C34.2296 60.1949 33.7018 60.371 33.737 60.7232Z" fill="#181D23"></path><path d="M65.8975 31.7702C66.2494 30.6431 65.5104 29.5512 64.49 29.0933C63.9974 28.8467 63.4344 28.7763 62.9066 28.6706C62.2381 28.5649 61.5696 28.4593 60.901 28.3536C58.4028 27.9662 55.8693 27.6491 53.3359 27.473C48.3746 27.0856 43.2726 27.2265 38.4872 28.6354C37.2909 28.9876 36.1297 29.4103 35.0038 29.9034C34.0186 30.3613 33.1389 31.1362 33.2093 32.3338C33.2796 33.4257 34.0186 34.3415 34.9686 34.7993C36.0594 35.3277 37.3613 35.3981 38.5576 35.5038C44.1171 35.9969 49.7117 35.9617 55.236 35.5038C56.7842 35.3629 58.3324 35.222 59.8806 35.0459C61.1825 34.905 62.59 34.8346 63.7863 34.3062C64.8067 33.8483 65.5456 33.003 65.616 31.8759C65.6864 30.9249 65.1586 29.9034 64.1382 29.6921C63.3289 29.516 63.0122 30.6783 63.7863 30.9249C64.3141 31.0657 64.3845 31.8054 64.2085 32.2281C63.927 33.003 62.977 33.2848 62.2733 33.4257C61.2177 33.637 60.0917 33.7427 59.0009 33.8483C57.8046 33.9892 56.6082 34.0949 55.4119 34.2006C50.5914 34.588 45.7005 34.7289 40.8799 34.4119C39.6836 34.3414 38.4521 34.2358 37.2557 34.0597C36.4112 33.954 35.3557 33.7779 34.863 33.003C34.6871 32.7212 34.5464 32.4042 34.6167 32.0872C34.6871 31.6645 35.1093 31.418 35.4964 31.2419C36.4464 30.784 37.4668 30.4317 38.4521 30.1147C42.6744 28.8115 47.1079 28.5649 51.471 28.7763C53.9341 28.8819 56.3971 29.1285 58.8602 29.4455C60.0917 29.5864 61.3232 29.7625 62.59 29.9386C63.3992 30.0443 65.3345 30.2908 65.1234 31.5236C65.0178 32.0872 65.7567 32.2985 65.8975 31.7702Z" fill="#181D23"></path><path d="M64.9475 22.8941C64.9123 22.8941 64.8771 22.8589 64.8419 22.8589C64.9123 22.9293 65.0178 22.9997 65.0882 23.035C64.9827 22.8941 64.8771 22.8236 64.7012 22.7532H64.666C64.7716 22.7884 64.7364 22.7884 64.5956 22.718C64.5252 22.6827 64.4549 22.6827 64.3493 22.6827C64.1734 22.6475 63.9974 22.6475 63.8215 22.6475C63.4697 22.6123 63.1178 22.6123 62.7307 22.6123C62.3789 22.6123 62.0622 22.9293 62.0974 23.2463C62.0974 23.5985 62.3789 23.9156 62.7307 23.8803C63.0826 23.8803 63.4345 23.8451 63.8215 23.8451C63.9974 23.8451 64.1734 23.8099 64.3493 23.8099C64.4197 23.8099 64.4901 23.8099 64.5956 23.7747C64.7364 23.7042 64.7715 23.7042 64.7012 23.7394C64.666 23.7394 64.666 23.7394 64.7012 23.7394C64.8771 23.669 64.9827 23.5985 65.0882 23.4577C65.0178 23.5281 64.9123 23.5985 64.8419 23.6338C64.8771 23.6338 64.9123 23.5985 64.9475 23.5985C65.0882 23.5281 65.229 23.4224 65.229 23.2463C65.229 23.0702 65.1234 22.9293 64.9475 22.8941Z" fill="#181D23"></path><path d="M65.1937 25.4653C64.5603 25.254 63.8214 25.2892 63.1528 25.254C62.5195 25.254 61.8509 25.254 61.2176 25.2892C59.8805 25.3597 58.5082 25.5006 57.1711 25.7119C56.7841 25.7823 56.6082 26.2402 56.6785 26.5572C56.7841 26.9447 57.1711 27.1208 57.523 27.0504C58.7897 26.8038 60.0564 26.6277 61.3583 26.522C61.9917 26.4516 62.6602 26.4163 63.2936 26.3811C63.9269 26.3459 64.5955 26.3811 65.1937 26.2402C65.5807 26.0993 65.5455 25.571 65.1937 25.4653Z" fill="#181D23"></path><path d="M65.3345 28.9171C64.49 28.8467 63.6103 28.8114 62.7658 28.741C62.4492 28.7058 62.1677 29.0228 62.1677 29.3398C62.1677 29.6568 62.4492 29.9738 62.7658 29.9386C63.6455 29.9033 64.49 29.8329 65.3345 29.7624C65.5456 29.7272 65.7919 29.5863 65.7567 29.3398C65.7567 29.0932 65.5808 28.9523 65.3345 28.9171Z" fill="#181D23"></path><path d="M64.3844 32.052C63.9622 31.9815 63.5048 32.052 63.0826 32.052C62.6603 32.0872 62.2029 32.0872 61.7807 32.1577C61.6047 32.1929 61.464 32.2281 61.3584 32.3338C61.2529 32.4394 61.1825 32.6155 61.1825 32.7564C61.1825 33.0734 61.464 33.3904 61.7807 33.3552C62.2733 33.32 62.7307 33.2143 63.2233 33.1439C63.6455 33.0734 64.103 33.003 64.5252 32.8621C64.7363 32.7917 64.8771 32.6155 64.8419 32.369C64.7715 32.1929 64.5956 32.0872 64.3844 32.052Z" fill="#181D23"></path><path d="M64.3844 35.715C63.6103 35.6798 62.8362 35.7503 62.0269 35.8207C61.6399 35.8559 61.3232 36.1377 61.3935 36.5604C61.4287 36.7365 61.4991 36.8774 61.6399 36.9831C61.8158 37.124 61.9917 37.124 62.2029 37.0887C62.977 36.9478 63.7511 36.8422 64.49 36.6308C64.7011 36.5604 64.8418 36.3491 64.8067 36.1377C64.8067 35.8912 64.6307 35.715 64.3844 35.715Z" fill="#181D23"></path><path d="M65.8973 40.4702C65.4047 39.9771 64.4899 39.9419 63.8565 39.8714C63.0824 39.7658 62.3083 39.7305 61.4991 39.7305C60.7601 39.7305 59.986 39.7658 59.2471 39.8362C58.5082 39.9067 57.6286 39.9771 56.9248 40.2589C56.6082 40.3998 56.3619 40.6463 56.4322 40.9985C56.4674 41.3155 56.7489 41.6326 57.1008 41.5973C57.8397 41.5621 58.5786 41.3156 59.3175 41.2451C60.0212 41.1747 60.7249 41.1042 61.3935 41.1042C62.0972 41.1042 62.8009 41.1042 63.4695 41.1747C63.8565 41.2099 64.2084 41.2451 64.5954 41.2803C64.9473 41.3156 65.3343 41.386 65.651 41.2451C66.0029 41.1042 66.1436 40.7168 65.8973 40.4702Z" fill="#181D23"></path><path d="M64.7715 44.0629C64.1381 43.8867 63.4344 43.8515 62.7659 43.8515C62.0973 43.8515 61.3936 43.922 60.725 44.0629C60.3732 44.1333 60.1621 44.556 60.2676 44.873C60.3732 45.2604 60.725 45.4013 61.0769 45.3309C61.3936 45.2604 61.7103 45.2252 61.9917 45.19C62.2029 45.1548 62.5195 45.1195 62.801 45.1195C63.4344 45.0843 64.0326 45.0843 64.6659 45.0139C64.9122 44.9786 65.0882 44.8377 65.1234 44.5912C65.1234 44.3446 64.9826 44.1333 64.7715 44.0629Z" fill="#181D23"></path><path d="M64.6307 47.0568C64.1029 47.092 63.5751 47.1272 63.0121 47.1272C62.7306 47.1272 62.4843 47.1272 62.2029 47.092C62.0621 47.092 61.9565 47.092 61.8158 47.0568C61.7454 47.0568 61.6751 47.0568 61.6399 47.0216C61.6047 47.0216 61.5695 47.0216 61.4991 47.0216C61.5695 47.0216 61.5695 47.0216 61.4991 47.0216C61.3232 46.9863 61.1473 46.9863 60.9713 47.092C60.7954 47.1977 60.6898 47.3738 60.6547 47.5851C60.5843 48.0078 60.901 48.3248 61.3232 48.36C62.4492 48.4657 63.6807 48.3952 64.7362 47.9726C64.9474 47.9021 65.0881 47.6908 65.0529 47.4795C65.0529 47.2329 64.877 47.0568 64.6307 47.0568Z" fill="#181D23"></path><path d="M64.1381 50.8256C64.1029 50.8256 64.1029 50.8256 64.0677 50.8256C64.1733 50.8608 64.2437 50.896 64.3492 50.9312C64.1381 50.6847 63.7862 50.7199 63.4696 50.6847C63.2233 50.6847 62.977 50.6847 62.7658 50.7199C62.2732 50.7551 61.8158 50.7904 61.3232 50.8256C60.901 50.8608 60.5843 51.1778 60.6547 51.6005C60.6898 51.7766 60.7602 51.9175 60.901 52.0584C61.0769 52.1993 61.288 52.1993 61.4991 52.1641C61.9566 52.0936 62.4492 52.0232 62.9066 51.9527C63.1529 51.9175 63.364 51.8823 63.6103 51.8118C63.8918 51.7414 64.2437 51.6709 64.3844 51.3891C64.314 51.4596 64.2437 51.4948 64.1733 51.5653H64.2085C64.3844 51.4948 64.49 51.3539 64.4548 51.1778C64.49 50.9665 64.314 50.8608 64.1381 50.8256Z" fill="#181D23"></path><path d="M65.6512 54.665C65.4401 54.348 65.1586 54.348 64.8067 54.2775C64.4197 54.2423 63.9974 54.2071 63.6104 54.1719C62.7659 54.1366 61.9566 54.1014 61.1122 54.1014C59.4584 54.0662 57.8398 54.031 56.1861 53.9958C55.236 53.9605 55.236 55.4751 56.1861 55.4751C57.8398 55.4751 59.4584 55.4751 61.1122 55.4751C61.9214 55.4751 62.7307 55.4751 63.54 55.4399C63.9271 55.4399 64.3493 55.4046 64.7363 55.3694C65.1234 55.3342 65.4401 55.3342 65.6512 54.982C65.7216 54.9468 65.6864 54.7706 65.6512 54.665Z" fill="#181D23"></path><path d="M64.6307 58.0111C63.751 58.0111 62.9065 58.0815 62.0621 58.152C61.7454 58.1872 61.4287 58.4338 61.4639 58.7508C61.4639 59.0325 61.7454 59.42 62.0621 59.3496C62.9769 59.2439 63.8566 59.103 64.7714 58.9269C65.0177 58.8917 65.1233 58.6099 65.1233 58.3985C65.0529 58.1872 64.8418 58.0111 64.6307 58.0111Z" fill="#181D23"></path><path d="M44.7857 77.5596C45.5949 78.7572 47.1783 79.2856 48.5506 79.2503C49.2895 79.2151 49.9932 79.0742 50.6618 78.7924C50.9784 78.6515 51.2951 78.4754 51.6118 78.2641C51.8933 78.0527 52.2803 77.771 52.4563 77.454C52.6674 77.0313 52.21 76.4325 51.7525 76.7495C51.5062 76.9256 51.2951 77.1722 51.0488 77.3835C50.8025 77.5596 50.5562 77.7005 50.2747 77.8414C49.7469 78.088 49.1488 78.2289 48.5858 78.2289C47.3191 78.2641 46.2283 77.8414 45.2079 77.137C44.9616 76.9609 44.6449 77.3131 44.7857 77.5596Z" fill="#181D23"></path><path d="M45.806 76.9256C44.9615 76.6086 43.9411 77.3483 43.5189 78.0527C43.343 78.2993 43.4837 78.6163 43.6948 78.7924C45.8764 80.3422 48.7969 81.1171 51.4359 80.5887C52.6674 80.3422 53.8637 79.4968 54.0045 78.1584C54.11 76.9256 53.0193 75.7985 51.7525 76.1155C51.0488 76.2916 51.3303 77.3483 52.0692 77.2074C52.3859 77.1369 52.7729 77.3835 52.8785 77.6653C53.0544 78.0527 52.8433 78.5458 52.597 78.8628C51.9636 79.6025 50.7673 79.7082 49.8525 79.7082C47.8468 79.7434 45.8764 79.0742 44.2226 77.9118C44.293 78.1584 44.3634 78.4049 44.3986 78.6515C44.7856 78.0527 45.3134 78.0175 45.8764 77.7709C46.2634 77.5244 46.0875 77.0313 45.806 76.9256Z" fill="#181D23"></path><path d="M46.967 80.2718C46.5448 82.5613 46.3689 85.0973 47.1782 87.3164C47.8467 89.2184 49.1486 90.7682 51.0487 91.5431C51.7876 91.8601 52.1746 90.5569 51.4005 90.3103C49.8171 89.782 48.7264 88.2322 48.2338 86.7176C47.5652 84.6747 47.7763 82.5261 47.706 80.4127C47.6708 79.99 47.0726 79.8844 46.967 80.2718Z" fill="#181D23"></path><path d="M47.5654 80.8706C47.4246 84.3929 48.2691 88.7253 51.8581 90.2751C52.6322 90.6273 53.1248 89.4649 52.3155 89.2184C50.908 88.7605 49.9228 87.422 49.3247 86.1188C48.5506 84.4281 48.5154 82.5613 48.2339 80.7649C48.1284 80.3775 47.5654 80.5183 47.5654 80.8706Z" fill="#181D23"></path><path d="M37.3607 61.9559C38.5922 61.1106 39.7182 60.1596 40.7738 59.1029C40.9497 58.8916 40.9849 58.5394 40.7738 58.3632C40.5627 58.1871 40.246 58.1519 40.0349 58.3632C39.0849 59.4199 38.0293 60.4413 36.9033 61.3571C36.5515 61.6389 37.0089 62.2025 37.3607 61.9559Z" fill="white"></path><path d="M37.607 57.9758C39.3311 56.6726 40.8441 55.158 42.2164 53.5025C42.4275 53.256 42.4627 52.9037 42.2164 52.6572C42.0053 52.4458 41.5831 52.4106 41.3719 52.6572C40.0349 54.3126 38.5922 55.8272 37.0792 57.3066C36.7625 57.6588 37.2199 58.2928 37.607 57.9758Z" fill="white"></path><path d="M38.8737 52.2697C40.246 50.9664 41.6534 49.6984 43.1664 48.5361C43.4127 48.36 43.3776 47.9021 43.1664 47.726C42.9201 47.4794 42.6035 47.5499 42.3572 47.726C40.8793 48.8883 39.4719 50.1563 38.2404 51.6005C37.8181 52.0584 38.4163 52.7276 38.8737 52.2697Z" fill="white"></path><path d="M38.4163 48.2895C38.733 48.36 38.9089 48.2191 39.12 48.043C39.2959 47.9021 39.5071 47.726 39.683 47.5851C40.0349 47.2681 40.4219 46.9863 40.7738 46.6693C41.4775 46.0353 42.1812 45.4365 42.9201 44.8025C43.1664 44.5912 43.1312 44.2037 42.9201 43.9924C42.6738 43.7458 42.3219 43.781 42.1108 43.9924C41.4071 44.6264 40.7386 45.2252 40.0349 45.8592C39.7182 46.1762 39.3663 46.458 39.0496 46.775C38.8737 46.9511 38.6978 47.092 38.5218 47.2681C38.3459 47.4442 38.0996 47.6555 38.1348 47.9373C38.1348 48.043 38.2404 48.2543 38.4163 48.2895Z" fill="white"></path><path d="M39.1904 44.8377C40.9146 43.4993 42.498 42.0199 44.1517 40.611C44.398 40.3997 44.3628 40.0122 44.1517 39.8009C43.9406 39.5896 43.5887 39.5896 43.3424 39.8009C41.759 41.2802 40.1053 42.6892 38.5922 44.2037C38.4163 44.3798 38.4163 44.6616 38.5922 44.8025C38.733 45.0138 38.9793 44.9786 39.1904 44.8377Z" fill="white"></path><path d="M38.0997 40.3645C39.8238 39.0965 41.4776 37.6524 42.9203 36.0673C43.3425 35.6094 42.674 34.905 42.2165 35.3629C40.7035 36.8422 39.1905 38.2864 37.5719 39.6601C37.1848 40.0123 37.6774 40.6815 38.0997 40.3645Z" fill="white"></path><path d="M37.8535 36.5957C39.8239 35.4686 41.6536 34.0244 43.3425 32.5098C43.8352 32.052 43.0963 31.277 42.6036 31.7702C40.9851 33.2847 39.2609 34.6232 37.5016 35.9617C37.1145 36.2435 37.4312 36.8422 37.8535 36.5957Z" fill="white"></path><path d="M38.1347 32.0519C39.0848 31.6645 39.9644 31.0305 40.8089 30.4317C41.6534 29.7977 42.4627 29.1284 43.1664 28.3535C43.659 27.8252 42.8849 27.0503 42.3923 27.5786C41.6886 28.2831 40.9849 28.9523 40.2108 29.5863C39.8589 29.8681 39.4718 30.1499 39.0848 30.4317C38.6625 30.7135 38.2403 30.96 37.8181 31.277C37.6421 31.4179 37.5366 31.594 37.6421 31.8054C37.7125 31.9815 37.9588 32.1224 38.1347 32.0519Z" fill="white"></path><path d="M38.7681 26.9094C39.6126 26.3459 40.3867 25.7119 41.1608 25.1131C41.9349 24.5143 42.709 23.8803 43.4479 23.2463C43.659 23.0702 43.659 22.7179 43.4831 22.5066C43.3423 22.2952 42.9905 22.1896 42.7442 22.3657C41.9349 22.9645 41.1608 23.6337 40.3867 24.2677C39.6478 24.9017 38.8736 25.5357 38.1699 26.2402C37.8532 26.5572 38.3458 27.2264 38.7681 26.9094Z" fill="white"></path><path d="M37.7126 22.26C38.17 22.1543 38.6274 21.943 39.0496 21.7669C39.4719 21.5908 39.8941 21.3794 40.2812 21.1329C41.1256 20.675 41.8998 20.1466 42.6387 19.5831C42.885 19.407 42.8146 19.0195 42.6387 18.8082C42.4276 18.5969 42.1109 18.6321 41.8646 18.8082C41.196 19.3717 40.4923 19.8649 39.7534 20.3228C39.3663 20.5341 39.0145 20.7454 38.6274 20.9568C38.2404 21.1681 37.8181 21.3442 37.4311 21.5908C37.0792 21.8021 37.3255 22.3304 37.7126 22.26Z" fill="white"></path></svg> 