<?xml version="1.0" encoding="UTF-8"?> <svg xmlns="http://www.w3.org/2000/svg" width="101" height="122" viewBox="0 0 101 122" fill="none"><path d="M16.5 20.125L32.75 15.125L40.2501 16.25L84.1251 28.375L86.2501 47.75L88.1251 49.375V52.875L86.2501 53.5C85.9584 55.7083 85.3251 60.6 85.1251 62.5C84.9251 64.4 81.7084 72.5417 80.1251 76.375C79.8751 76.875 77.8501 78.775 71.7501 82.375C65.6501 85.975 58.7084 86.5417 56.0001 86.375C52.0834 84.375 43.1751 79.875 38.8751 77.875C34.5751 75.875 22.9167 67.5417 17.6251 63.625C17.25 61.6667 16.275 57.05 15.3751 54.25C14.4751 51.45 14.3334 47.5 14.375 45.875L12.8749 45.125C12.6666 44.5417 12.2249 42.85 12.1249 40.75C12.0249 38.65 12.5833 36.875 12.8749 36.25L14.375 35.375C14.3333 34.1667 14.275 31.325 14.375 29.625C14.475 27.925 15.8333 22.5833 16.5 20.125Z" fill="#EFFAFE"></path><path fill-rule="evenodd" clip-rule="evenodd" d="M85.125 62.5001C85.325 60.6001 85.9583 55.7084 86.25 53.5001L83 54.2501L60.625 53.5001V58.2501H63.375L66.375 62.5001L65.875 66.0001L56.875 68.7501L49.125 66.0001L40.625 61.2501L23.625 50.5001L17 47.7501L14.3749 45.8751C14.3333 47.5001 14.4751 51.4501 15.375 54.2501C16.2749 57.0501 17.25 61.6667 17.625 63.6251C22.9167 67.5417 34.575 75.8751 38.875 77.8751C43.175 79.8751 52.0833 84.3751 56 86.3751C58.7083 86.5417 65.65 85.9751 71.75 82.3751C77.85 78.7751 79.875 76.8751 80.125 76.3751C81.7083 72.5417 84.925 64.4001 85.125 62.5001Z" fill="#7FA2F6"></path><path d="M55.0926 20.3519L58.6369 21.3313C58.3761 19.6989 58.0582 17.5324 57.875 16.2501C56.75 15.5417 53.6 13.8251 50 12.6251C46.4 11.4251 42.6667 11.3751 41.25 11.5001V16.5264L43.25 17.0791V14.3751L47.875 15.1251L54.75 18.1251L55.0926 20.3519Z" fill="#7FA2F6"></path><path d="M41.25 21.0001C42.05 23.3 42.9167 21.9584 43.25 21.0001V17.0791L41.25 16.5264V21.0001Z" fill="#7FA2F6"></path><path d="M59 26.2501C59.0833 25.6251 59.2 24.1751 59 23.3751C58.9256 23.0776 58.7913 22.2981 58.6369 21.3313L55.0926 20.3519L56 26.2501C56 26.5418 56.375 27.1251 57.875 27.1251C59.375 27.1251 59.25 26.5418 59 26.2501Z" fill="#7FA2F6"></path><path d="M17.25 50.5V44.375C17.6667 44.375 18.85 44.525 20.25 45.125C21.65 45.725 23.5 47.2917 24.25 48L23.5 53.625L17.25 50.5Z" fill="#4B5359"></path><path d="M41.25 61.5V58.5C41.9167 58.5 43.675 58.725 45.375 59.625C47.075 60.525 48.8333 61.8333 49.5 62.375L48.75 69.125C48.0833 68.5417 46.25 67.175 44.25 66.375C42.25 65.575 41.4167 64.7083 41.25 64.375V61.5Z" fill="#4B5359"></path><path opacity="0.4" fill-rule="evenodd" clip-rule="evenodd" d="M78.5 33.375L63.875 38.375C62.625 40.5833 60.225 46.15 60.625 50.75C61.025 55.35 60.7917 57.5 60.625 58H62.375L66 60.625V65.625L63.125 66.625V81.75L76.875 74.75C79 71.125 83.25 61.675 83.25 52.875C83.25 41.875 82.75 33.375 78.5 33.375Z" fill="#0A0A0A"></path><path d="M78.4191 33.6741C79.2987 34.449 80.0377 35.2591 80.6006 36.3158C81.1636 37.3724 81.5155 38.57 81.7618 39.7324C82.3248 42.4445 82.5007 45.2975 82.5359 48.0449C82.6414 53.9623 81.8322 59.8445 80.2136 65.5154C79.2987 68.7206 78.1376 71.8202 76.6949 74.8494C76.3079 75.6947 77.5394 76.4344 77.9616 75.5891C80.6006 70.0239 82.4303 64.0712 83.31 57.9777C83.7322 54.9133 83.9785 51.849 83.9433 48.7494C83.9082 45.8259 83.7322 42.832 83.2044 39.9437C82.7118 37.3724 81.621 34.0967 79.0524 32.8639C78.5598 32.6526 77.9968 33.2866 78.4191 33.6741Z" fill="#181D23"></path><path d="M77.8913 74.0745C77.258 74.2154 76.6598 74.5324 76.0968 74.8494C75.4986 75.1664 74.9005 75.4834 74.3023 75.8004C73.1411 76.4344 71.9448 77.0332 70.7836 77.632C68.391 78.8648 65.9631 79.9567 63.5704 81.1543C62.9723 81.4361 63.3945 82.4928 64.0279 82.2462C66.5261 81.2247 68.9188 79.9567 71.3114 78.7239C72.5078 78.0899 73.7041 77.4559 74.8653 76.7867C75.9912 76.1527 77.2931 75.5539 78.1728 74.6029C78.3839 74.3563 78.1728 74.0041 77.8913 74.0745Z" fill="#181D23"></path><path d="M66.315 60.4433C66.1039 61.3943 66.0335 62.3805 65.9983 63.3668C65.9632 64.353 65.9632 65.3745 66.1039 66.3255C66.2095 66.9242 67.1243 66.7834 67.1243 66.1846C67.1243 65.6915 67.0539 65.2336 67.0187 64.7404C66.9836 64.2826 66.9836 63.8247 66.9836 63.3668C66.9836 62.4158 67.0187 61.4648 67.0187 60.549C67.0539 60.1263 66.4206 60.0206 66.315 60.4433Z" fill="#181D23"></path><path d="M66.4909 64.8814C65.0131 65.4449 63.6056 66.1142 62.0926 66.6073C60.6148 67.1356 59.0666 67.5583 57.5536 67.9105C56.8147 68.0866 57.1313 69.1785 57.8703 69.0376C59.4185 68.6854 60.9667 68.2275 62.4797 67.6639C63.9575 67.1004 65.4705 66.5016 66.8428 65.6915C67.1947 65.4097 66.9484 64.67 66.4909 64.8814Z" fill="#181D23"></path><path d="M86.4417 47.8688C86.6177 46.2838 86.4417 44.5931 86.301 43.0081C86.1954 41.4583 86.0195 39.8732 85.8435 38.3234C85.6676 36.7736 85.4917 35.2238 85.2806 33.6388C85.0694 32.0186 84.7528 30.4336 84.5768 28.8133C84.4713 27.8271 83.0286 28.0032 83.2397 28.9894C83.5564 30.5745 83.7323 32.1947 83.9787 33.8149C84.1898 35.3647 84.4009 36.9145 84.5768 38.4643C84.7528 40.0141 84.9287 41.5991 85.1046 43.1489C85.2806 44.734 85.3861 46.3894 85.7732 47.9392C85.8787 48.3619 86.4065 48.221 86.4417 47.8688Z" fill="#181D23"></path><path d="M78.9822 33.0048C78.2433 32.9344 77.3988 33.2866 76.6951 33.498C75.921 33.7445 75.1469 33.9559 74.3728 34.2376C72.8598 34.7308 71.3467 35.2239 69.8337 35.717C67.3003 36.5271 64.591 37.3372 62.6557 39.2393C62.1279 39.7676 62.902 40.5425 63.465 40.0494C65.4706 38.253 68.0744 37.4781 70.5726 36.668C72.0505 36.1749 73.5283 35.717 75.0413 35.2239C75.745 34.9773 76.484 34.7308 77.1877 34.5194C77.8562 34.3081 78.7007 34.0615 79.2285 33.6036C79.4044 33.3219 79.2285 33.0401 78.9822 33.0048Z" fill="#181D23"></path><path d="M62.8316 38.8166C62.1279 39.8028 61.7056 41.1413 61.3538 42.3036C61.0019 43.5364 60.7556 44.8045 60.5796 46.0725C60.2278 48.679 60.1926 51.3207 60.263 53.9271C60.2982 54.6668 60.2982 55.3713 60.3333 56.1109C60.3685 56.8506 60.3333 57.6607 60.5093 58.3652C60.65 58.8935 61.5649 58.964 61.6704 58.3652C61.776 57.5551 61.6352 56.6745 61.6001 55.8644C61.5649 55.0191 61.5297 54.2089 61.4945 53.3636C61.4593 51.7433 61.4593 50.1231 61.5649 48.5381C61.6704 46.953 61.8464 45.368 62.163 43.8182C62.339 43.0081 62.5149 42.2332 62.7612 41.4583C63.0075 40.6834 63.3242 39.9085 63.5001 39.1336C63.6409 38.6757 63.0779 38.4996 62.8316 38.8166Z" fill="#181D23"></path><path d="M61.1426 58.9639C61.1778 58.9639 61.1778 58.9287 61.213 58.9287C61.2482 58.9287 61.213 58.9287 61.1426 58.9639C61.1426 58.9639 61.2834 58.9287 61.3186 58.8935C61.3889 58.8583 61.4593 58.823 61.5649 58.823C61.7056 58.7878 61.8815 58.7174 62.0223 58.7174H62.0575C62.0927 58.7174 62.0927 58.7174 62.0223 58.7174C62.0575 58.7174 62.1278 58.7174 62.1278 58.7174C62.1982 58.7174 62.3038 58.7174 62.3741 58.7174C62.5853 58.7174 62.7612 58.7174 62.9723 58.6822C63.1482 58.6469 63.289 58.4708 63.3242 58.2947C63.3594 58.1186 63.2538 57.9072 63.1131 57.8368C62.9019 57.7311 62.6556 57.6959 62.4093 57.7311C62.1982 57.7663 61.9871 57.8016 61.776 57.872C61.6 57.9424 61.3889 58.0129 61.213 58.1186C61.1074 58.189 61.0371 58.2595 60.9315 58.3299C60.8963 58.3651 60.8259 58.4004 60.7908 58.4708C60.8259 58.4708 60.7556 58.5412 60.7908 58.4708C60.7556 58.4708 60.7556 58.506 60.7204 58.5413C60.6148 58.6469 60.5796 58.8583 60.6852 58.9639C60.7908 59.0344 60.9667 59.0344 61.1426 58.9639Z" fill="#181D23"></path><path d="M62.5852 58.1539C63.0778 58.8583 63.7464 59.4571 64.3797 60.0559C65.0131 60.6547 65.6113 61.2887 66.2798 61.8523C66.5261 62.0636 66.878 62.0988 67.0891 61.8523C67.3002 61.6409 67.3002 61.2535 67.0891 61.0421C66.4557 60.4433 65.7872 59.915 65.0835 59.3514C64.4149 58.7879 63.7464 58.1891 62.9723 57.7664C62.726 57.5903 62.3741 57.8721 62.5852 58.1539Z" fill="#181D23"></path><path d="M62.9371 66.9243C62.7612 68.1923 62.8315 69.4955 62.8315 70.7988C62.8315 72.0668 62.8315 73.2996 62.8315 74.5676C62.8315 75.8356 62.8315 77.0684 62.8315 78.3364C62.8315 78.9705 62.8315 79.6397 62.8315 80.2737C62.8315 80.9077 62.7963 81.5769 62.8667 82.2109C62.9371 82.9506 63.9575 82.9506 64.0279 82.2109C64.0982 81.5769 64.0279 80.9077 64.0279 80.2737C64.0279 79.6397 63.9927 78.9705 63.9927 78.3364C63.9575 77.0332 63.9575 75.7652 63.9223 74.462C63.8871 73.1587 63.8871 71.8907 63.8519 70.5875C63.8167 69.3194 63.8519 68.0514 63.6408 66.8186C63.5353 66.396 62.9723 66.5721 62.9371 66.9243Z" fill="#181D23"></path><path d="M85.5619 48.1506C86.1601 48.7846 86.8638 49.3482 87.5676 49.947C87.7787 50.1231 88.0954 50.1583 88.3065 49.947C88.4824 49.7709 88.5176 49.3834 88.3065 49.2073C87.9546 48.9255 87.6028 48.6438 87.2157 48.362C86.8286 48.0802 86.4768 47.7632 86.0545 47.5166C85.8786 47.411 85.6675 47.4814 85.5267 47.6223C85.4212 47.7984 85.4212 48.0097 85.5619 48.1506Z" fill="#181D23"></path><path d="M87.3566 49.5242C87.3917 50.1582 87.4269 50.757 87.4621 51.3911C87.4973 52.0251 87.4973 52.6591 87.4973 53.2579C87.4973 53.8567 88.4473 53.8567 88.4473 53.2579C88.4473 52.6238 88.4122 51.9898 88.3418 51.3206C88.2714 50.6866 88.201 50.0174 88.0251 49.3833C87.9195 49.0663 87.3214 49.1368 87.3566 49.5242Z" fill="#181D23"></path><path d="M87.9195 52.3421C86.5472 52.8352 85.175 53.3988 83.8379 53.9623C83.5916 54.068 83.4508 54.2793 83.5564 54.5611C83.662 54.8429 83.9434 54.8781 84.1898 54.7724C85.5268 54.1737 86.8991 53.6101 88.201 52.9409C88.5177 52.7648 88.2714 52.2364 87.9195 52.3421Z" fill="#181D23"></path><path d="M86.3009 53.3283C85.949 54.0328 85.8787 54.8781 85.7379 55.653C85.5972 56.4279 85.4564 57.2381 85.2805 58.013C84.9638 59.6332 84.6471 61.2182 84.2953 62.8032C83.5916 65.9381 82.7471 69.0729 81.5155 72.0316C80.8118 73.7223 79.9674 75.3073 79.1229 76.9628C78.8062 77.5968 79.6859 78.1251 80.0729 77.5263C80.9878 76.1879 81.6915 74.6381 82.2897 73.1235C82.923 71.6089 83.486 70.0591 83.9434 68.4741C84.8934 65.3041 85.562 62.0284 86.0898 58.7879C86.2305 57.9073 86.3713 57.0267 86.4768 56.1109C86.5824 55.2304 86.8287 54.2441 86.7231 53.3636C86.7583 53.1522 86.4065 53.117 86.3009 53.3283Z" fill="#181D23"></path><path d="M80.2136 76.5048C78.8062 77.2797 77.5043 78.3011 76.1672 79.1817C74.7949 80.0623 73.3875 80.9076 71.9448 81.6473C69.0595 83.1619 65.9983 84.3242 62.8667 85.2048C61.0722 85.6979 58.9962 86.4024 57.0961 85.9093C56.3572 85.7332 56.0757 86.8603 56.7795 87.0364C58.574 87.4591 60.4037 87.0012 62.1278 86.5785C63.7816 86.1558 65.4001 85.6627 67.0187 85.0639C70.1855 83.8663 73.2467 82.387 76.0616 80.5202C77.645 79.4987 79.2988 78.3716 80.5303 76.9275C80.7414 76.7161 80.4951 76.3639 80.2136 76.5048Z" fill="#181D23"></path><path d="M49.2847 62.1692C48.9681 63.3315 48.8273 64.4939 48.7569 65.6914C48.7217 66.2902 48.6866 66.889 48.6514 67.4878C48.6162 68.0866 48.5458 68.6854 48.6162 69.2842C48.6866 69.9182 49.5662 69.9534 49.6366 69.2842C49.707 68.6854 49.6366 68.0866 49.6366 67.4878C49.6366 66.9242 49.6718 66.3255 49.6718 65.7619C49.707 64.5995 49.8125 63.402 49.7421 62.2396C49.7773 61.9226 49.3551 61.8522 49.2847 62.1692Z" fill="#181D23"></path><path d="M48.8274 68.7206C46.681 66.713 43.9364 65.2336 41.2271 64.1065C40.5585 63.8247 40.1715 64.7405 40.84 65.0223C42.1771 65.5858 43.479 66.2198 44.7457 66.9595C46.0124 67.664 47.2088 68.4741 48.4403 69.2138C48.757 69.3899 49.1088 68.9672 48.8274 68.7206Z" fill="#181D23"></path><path d="M41.4031 65.0222C41.4031 63.9655 41.2623 62.8736 41.2623 61.8169C41.2623 60.7603 41.3679 59.6684 41.5086 58.6117C41.2623 58.7526 41.0512 58.8935 40.8049 58.9991C43.3031 59.7036 45.8014 60.7603 47.9829 62.2044C48.6163 62.6271 49.2848 61.5352 48.5811 61.1477C46.1884 59.774 43.7606 58.6117 41.1216 57.872C40.8401 57.8015 40.453 57.9777 40.4179 58.2595C40.2771 59.3866 40.2419 60.5489 40.2771 61.7113C40.3475 62.8384 40.4179 64.0008 40.7697 65.0574C40.9105 65.4097 41.4031 65.3744 41.4031 65.0222Z" fill="#181D23"></path><path d="M23.8802 48.7142C23.8098 48.9255 23.7043 49.1368 23.6339 49.3482C23.5987 49.5243 23.5635 49.7356 23.5283 49.9117C23.458 50.3344 23.3876 50.7571 23.3524 51.1797C23.282 52.0251 23.2117 52.8704 23.2117 53.7157C23.2117 54.3145 24.1617 54.3145 24.1265 53.7157C24.0913 52.8704 24.1265 52.0603 24.1617 51.215C24.1969 50.7923 24.2321 50.4048 24.2672 49.9822C24.2672 49.7708 24.3024 49.5947 24.3024 49.3834C24.3376 49.1368 24.2672 48.9255 24.2672 48.7142C24.3376 48.5028 23.9858 48.4676 23.8802 48.7142Z" fill="#181D23"></path><path d="M23.4932 53.2931C22.6135 52.7648 21.7339 52.2364 20.819 51.7433C19.9042 51.2502 19.0245 50.6866 18.0745 50.264C17.5819 50.0526 17.3708 50.7923 17.7226 51.0741C18.1449 51.3559 18.6023 51.5672 19.0245 51.8138C19.482 52.0603 19.9394 52.3069 20.3968 52.5182C21.3116 52.9761 22.2265 53.434 23.1413 53.8567C23.5284 54.0328 23.8451 53.5044 23.4932 53.2931Z" fill="#181D23"></path><path d="M17.8633 50.4753C17.8281 49.2777 17.6521 48.1153 17.5466 46.9178C17.5114 46.3894 17.4058 45.8259 17.4762 45.2975C17.5466 44.8396 17.8281 44.8396 18.2151 44.9453C19.2355 45.1919 20.2207 45.7202 21.1004 46.2485C22.0504 46.7769 22.9653 47.4109 23.8449 48.0801C24.3024 48.4323 24.9357 47.6574 24.4783 47.27C23.4579 46.4247 22.4023 45.685 21.206 45.0862C20.643 44.8044 20.0448 44.5226 19.4818 44.2761C18.954 44.0647 18.4262 43.8534 17.8633 43.8534C17.3355 43.8534 16.7725 44.0647 16.5262 44.5931C16.2447 45.1214 16.3854 45.7906 16.4558 46.3894C16.5965 47.7983 16.7373 49.2425 17.1947 50.5809C17.3003 50.8979 17.8633 50.8627 17.8633 50.4753Z" fill="#181D23"></path><path d="M56.2869 85.7683C53.7183 84.4299 51.009 83.338 48.4052 82.07C45.8014 80.8372 43.2328 79.5339 40.6642 78.1602C35.5621 75.3777 30.636 72.3133 25.8859 68.9671C23.2117 67.0651 20.6079 65.0927 18.0745 63.0145C17.5115 62.5566 16.667 63.3667 17.2652 63.8246C21.8394 67.523 26.5896 70.9748 31.5509 74.1096C36.5122 77.2445 41.6494 80.027 46.9274 82.5278C49.883 83.9015 52.909 85.3104 56.0758 86.191C56.3573 86.2967 56.5332 85.9092 56.2869 85.7683Z" fill="#181D23"></path><path d="M18.5319 63.8598C18.5671 63.1554 18.1449 62.3805 17.9338 61.7465C17.6874 61.0772 17.4763 60.408 17.2652 59.7388C16.8078 58.3299 16.4559 56.921 16.1392 55.4768C15.5059 52.6238 15.0485 49.6651 15.0133 46.7064C15.0133 45.8963 13.6762 45.8963 13.7466 46.7064C13.9577 49.7356 14.2744 52.7295 14.9781 55.6882C15.33 57.1323 15.717 58.6117 16.2096 60.0206C16.4559 60.7602 16.7022 61.4647 17.0189 62.1691C17.2652 62.8032 17.5115 63.6133 18.0393 64.0712C18.1801 64.2825 18.5319 64.1416 18.5319 63.8598Z" fill="#181D23"></path><path d="M57.2369 68.6502C54.985 68.1571 52.8386 67.2413 50.8682 66.0437C50.4107 65.7619 50.0237 66.5016 50.4459 66.7482C52.5219 67.9105 54.7739 68.6854 57.1314 69.0376C57.3777 69.0376 57.4832 68.7206 57.2369 68.6502Z" fill="#181D23"></path><path d="M40.8401 61.359C38.3419 59.4218 35.7029 57.6959 33.1343 55.9347C30.5305 54.1736 27.9267 52.4125 25.3229 50.6866C24.7951 50.3344 24.3025 51.1797 24.8303 51.5319C27.4341 53.2578 30.0379 55.019 32.6768 56.7449C35.2806 58.4708 37.9196 60.2319 40.629 61.7817C40.8753 61.9226 41.0512 61.5351 40.8401 61.359Z" fill="#181D23"></path><path d="M16.667 47.5166C16.5967 47.4461 16.5615 47.4109 16.5263 47.3052C16.4911 47.1996 16.3856 47.0939 16.3152 47.0234C16.1744 46.8825 16.0689 46.7769 15.9281 46.636C15.6466 46.3894 15.33 46.1077 15.0485 45.8611C14.767 45.6145 14.4503 45.368 14.1688 45.1214C14.0281 45.0158 13.8873 44.8749 13.7466 44.7692C13.6762 44.6987 13.5706 44.5931 13.5003 44.5226C13.3947 44.417 13.2892 44.3817 13.1484 44.3465C12.7262 44.2056 12.4095 44.6987 12.5854 45.051C12.6558 45.1566 12.691 45.2271 12.7965 45.3328C12.9021 45.4032 13.0077 45.4736 13.1132 45.5441C13.254 45.6498 13.3947 45.7554 13.5003 45.8611C13.8169 46.1077 14.1336 46.3542 14.4151 46.6008C14.7318 46.8473 15.0133 47.0587 15.33 47.3052C15.4707 47.4109 15.6466 47.5518 15.8226 47.6575C15.9281 47.7279 16.0337 47.7983 16.1393 47.7983C16.2448 47.8336 16.3152 47.8688 16.3856 47.904C16.6319 48.0449 16.843 47.7279 16.667 47.5166Z" fill="#181D23"></path><path d="M13.8169 44.6988C13.3594 43.2899 12.902 41.881 12.7965 40.4016C12.7261 38.9223 12.902 37.4429 13.3946 36.034C13.6409 35.2943 12.4798 34.9773 12.2335 35.717C11.2834 38.6405 11.4242 42.4445 13.3594 44.9453C13.5354 45.1919 13.8872 44.9453 13.8169 44.6988Z" fill="#181D23"></path><path d="M12.9372 36.3862C13.1132 36.4566 13.3243 36.4919 13.5354 36.4919C13.7817 36.4566 14.028 36.4214 14.2743 36.3158C14.6614 36.1396 14.978 35.8226 15.2243 35.4704C15.3651 35.2239 15.2947 34.8364 15.0132 34.6955C14.7317 34.5546 14.4151 34.6251 14.2391 34.9069C14.2039 34.9421 14.1688 34.9773 14.1688 35.0125C14.2039 34.9773 14.2391 34.9421 14.2743 34.9069C14.1688 35.0477 14.028 35.1886 13.8873 35.2943C13.9224 35.2591 13.9576 35.2239 13.9928 35.1886C13.8521 35.2943 13.6761 35.4 13.465 35.5056C13.5002 35.5056 13.5354 35.4704 13.6058 35.4704C13.3946 35.5409 13.1835 35.6465 12.9724 35.6818C12.8317 35.717 12.6909 35.8931 12.6909 36.0692C12.6557 36.2101 12.7613 36.351 12.9372 36.3862Z" fill="#181D23"></path><path d="M65.6112 61.5352C64.4501 61.7113 63.3241 62.0635 62.163 62.3101C61.0018 62.5214 59.8055 62.7327 58.6091 62.6975C58.011 62.6975 58.0814 63.6133 58.7147 63.5429C59.911 63.3667 61.1426 63.2611 62.3389 63.0145C63.4649 62.768 64.7316 62.4862 65.752 61.8874C65.9279 61.7465 65.7872 61.5 65.6112 61.5352Z" fill="#181D23"></path><path d="M56.2517 62.9441C50.7275 59.9502 45.1328 57.0971 39.6789 54.0328C34.225 50.9684 28.8063 47.7631 23.458 44.4522C20.4671 42.5854 17.4763 40.7186 14.5206 38.7814C14.0632 38.4643 13.641 39.2393 14.0984 39.521C19.3764 42.9376 24.7247 46.2486 30.1434 49.4186C35.5621 52.5886 41.0512 55.653 46.5755 58.6117C49.7071 60.2672 52.8035 61.9226 56.0054 63.4372C56.2869 63.5429 56.5684 63.1202 56.2517 62.9441Z" fill="#181D23"></path><path d="M14.6965 36.7736C15.2947 37.4429 16.0336 37.9712 16.7021 38.4996C17.3706 39.0279 18.0744 39.5562 18.8133 40.0493C20.2911 41.0708 21.8041 41.9514 23.3875 42.7615C23.845 43.008 24.2672 42.3036 23.8098 42.057C22.2616 41.2821 20.7485 40.3664 19.2707 39.4153C18.567 38.9222 17.8281 38.4291 17.1595 37.936C16.4558 37.4076 15.7873 36.8089 15.0483 36.3157C14.7669 36.1044 14.4854 36.5271 14.6965 36.7736Z" fill="#181D23"></path><path d="M59.1018 26.0308C58.9963 26.1364 58.8907 26.1716 58.75 26.2421C58.6092 26.3125 58.5037 26.383 58.3629 26.4534C58.3277 26.4534 58.2925 26.4887 58.2574 26.4887C58.2222 26.5239 58.2925 26.4887 58.2222 26.4887C58.1518 26.5239 58.0814 26.5239 58.0111 26.5591C57.9407 26.5943 57.8703 26.5943 57.7999 26.5943C57.7296 26.5943 57.8351 26.5943 57.7647 26.5943C57.7296 26.5943 57.6944 26.5943 57.6592 26.5943C57.5184 26.5943 57.3777 26.5943 57.2369 26.5943C57.0962 26.5943 57.3425 26.6295 57.2018 26.5943C57.1666 26.5943 57.1314 26.5943 57.0962 26.5591C57.0258 26.5591 56.9555 26.5239 56.8851 26.4887C56.8499 26.4887 56.8147 26.4534 56.7795 26.4534C56.8499 26.4887 56.7443 26.4182 56.7795 26.4534C56.7092 26.4182 56.6388 26.383 56.5684 26.3478C56.5332 26.3125 56.498 26.3125 56.498 26.2773C56.4277 26.2069 56.4628 26.2421 56.498 26.2773C56.4277 26.2069 56.3925 26.1716 56.3221 26.1012C56.1462 25.9251 55.8295 25.9251 55.6536 26.1012C55.4776 26.2773 55.4776 26.5943 55.6536 26.7704C56.2165 27.334 57.0258 27.5806 57.7999 27.4749C58.187 27.4397 58.5388 27.2988 58.8555 27.1227C59.0315 27.017 59.2074 26.8761 59.3129 26.7C59.4185 26.5591 59.4889 26.383 59.5241 26.2069C59.6296 26.0308 59.2778 25.8546 59.1018 26.0308Z" fill="#181D23"></path><path d="M56.3221 26.2421C56.1462 24.8684 55.8999 23.53 55.7943 22.1563C55.6888 20.7826 55.6184 19.4089 55.6536 18C55.6536 17.2603 54.5276 17.2603 54.4924 18C54.4924 19.4089 54.5628 20.8178 54.7388 22.2267C54.9147 23.6004 55.161 25.0093 55.6184 26.3478C55.7592 26.6648 56.3573 26.6296 56.3221 26.2421Z" fill="#181D23"></path><path d="M55.4424 18.0352C53.6479 16.9433 51.6423 16.2389 49.6367 15.5696C48.6514 15.2526 47.631 14.9356 46.6458 14.6539C46.1532 14.513 45.6254 14.3721 45.1328 14.2664C44.8513 14.196 44.605 14.1255 44.3235 14.0551C44.042 14.0199 43.7957 14.0551 43.5142 14.0903C43.3383 14.0903 43.1624 14.196 43.1624 14.3721C42.9512 15.4288 42.9161 16.5207 42.8105 17.6126C42.7049 18.7045 42.7401 19.8316 42.5642 20.9235C42.4234 21.7688 43.7253 21.8745 43.6902 21.0644C43.655 19.9725 43.7605 18.8454 43.8309 17.7535C43.8661 16.6616 43.9716 15.5344 43.9013 14.4425C43.7253 14.5482 43.5142 14.6539 43.3383 14.7595C43.5846 14.9004 43.7605 15.0413 44.0068 15.147C44.2531 15.2174 44.4994 15.2526 44.7458 15.3231C45.2384 15.464 45.7662 15.5696 46.2588 15.7105C47.2792 15.9923 48.2644 16.2741 49.2496 16.6263C51.22 17.2603 53.1553 18.0705 55.1609 18.6692C55.548 18.7749 55.7591 18.2466 55.4424 18.0352Z" fill="#181D23"></path><path d="M42.9512 21.2404C42.916 21.2757 42.916 21.2757 42.9512 21.2404C42.916 21.2404 42.916 21.2405 42.916 21.2757C42.8808 21.2757 42.8456 21.3109 42.8104 21.3109C42.7401 21.3109 42.6697 21.3461 42.5993 21.3461H42.5641C42.5289 21.3461 42.5289 21.3461 42.5641 21.3461C42.5289 21.3461 42.4937 21.3461 42.4586 21.3461C42.3882 21.3461 42.3178 21.3461 42.2826 21.3461C42.2474 21.3461 42.2123 21.3461 42.2123 21.3461H42.1771C42.2474 21.3461 42.2474 21.3461 42.2123 21.3461C42.1419 21.3461 42.0715 21.3109 42.0011 21.3109C41.966 21.3109 41.9308 21.2757 41.8956 21.2757C41.8604 21.2757 41.8604 21.2757 41.9308 21.2757C41.9308 21.2757 41.8956 21.2757 41.8956 21.2404C41.8252 21.2052 41.79 21.17 41.7197 21.1348C41.5437 21.0291 41.2622 21.0996 41.1919 21.2757C41.0863 21.4518 41.1215 21.6983 41.3326 21.804C41.6493 21.9801 42.0011 22.0506 42.353 22.0153C42.5289 22.0153 42.6697 21.9801 42.8456 21.9097C43.0215 21.8392 43.1623 21.7336 43.3382 21.6279C43.4438 21.5575 43.4438 21.3813 43.3734 21.2757C43.1975 21.2052 43.0567 21.2052 42.9512 21.2404Z" fill="#181D23"></path><path d="M41.3678 21.2757C41.5789 19.6203 41.5437 17.8943 41.5789 16.2036C41.6493 14.5129 41.6141 12.8223 41.79 11.1316C41.8604 10.3567 40.5585 10.3214 40.5585 11.1316C40.5937 14.5129 40.2066 17.9648 40.7696 21.3109C40.8752 21.6984 41.3326 21.5927 41.3678 21.2757Z" fill="#181D23"></path><path d="M59.4536 25.5376C59.5592 22.3676 59.1018 19.268 58.1166 16.2389C57.9054 15.5696 56.8499 15.8514 57.0962 16.5206C58.0814 19.4089 58.6795 22.4733 58.8555 25.5376C58.8907 25.8898 59.4185 25.8898 59.4536 25.5376Z" fill="#181D23"></path><path d="M57.6239 16.0275C55.3368 14.5129 52.8385 13.2097 50.2699 12.2587C47.5958 11.2724 44.816 10.8145 41.9307 10.9554C41.1566 10.9907 41.1918 12.1882 41.9307 12.1178C44.6753 11.9064 47.3846 12.3643 49.9884 13.2449C52.5219 14.1255 54.8794 15.4287 57.272 16.6263C57.6591 16.8024 57.9758 16.2741 57.6239 16.0275Z" fill="#181D23"></path><path d="M83.4156 27.4396C82.7119 27.1226 81.9378 26.9113 81.1637 26.7C80.4248 26.4534 79.6507 26.2421 78.9118 25.9955C77.3988 25.5376 75.8506 25.0797 74.3023 24.6218C71.2059 23.7413 68.1447 22.8607 65.0483 21.9801C63.3242 21.487 61.5649 21.0291 59.8407 20.5008C59.137 20.2894 58.8203 21.4166 59.5241 21.5927C62.6205 22.4028 65.6817 23.3186 68.7781 24.1991C71.8745 25.0797 74.9357 25.9603 78.0321 26.7704C78.8766 26.9817 79.7211 27.1931 80.5655 27.4396C81.4452 27.651 82.3249 27.9327 83.2045 28.0384C83.5564 28.0736 83.6971 27.5805 83.4156 27.4396Z" fill="#181D23"></path><path d="M54.7739 19.9725C54.035 19.585 53.1905 19.4089 52.3812 19.1623C51.5367 18.9158 50.7274 18.6692 49.883 18.4227C48.2292 17.9295 46.5403 17.366 44.8513 17.0137C44.2531 16.8729 44.042 17.7182 44.605 17.9295C46.2588 18.4931 47.9477 18.8806 49.6367 19.3032C50.4811 19.5146 51.3256 19.7611 52.1701 19.9725C52.9794 20.1838 53.7887 20.4656 54.6331 20.5008C54.9146 20.5008 55.0202 20.0781 54.7739 19.9725Z" fill="#181D23"></path><path d="M41.403 16.0275C41.3678 16.0275 41.3678 15.9923 41.3326 15.9923C41.3678 16.0275 41.4382 16.098 41.4734 16.1332C41.3678 15.9218 41.1919 15.8514 40.9807 15.7457C40.8048 15.6401 40.6289 15.5696 40.4178 15.4639C40.0307 15.2878 39.6789 15.1469 39.2918 14.9708C38.5529 14.6538 37.7788 14.3016 37.0399 13.9846C36.7232 13.8437 36.3713 13.9141 36.2306 14.2664C36.0898 14.6186 36.301 14.9356 36.6176 15.0413C37.3917 15.3583 38.1306 15.6401 38.9047 15.9571C39.2918 16.098 39.6789 16.2741 40.0307 16.415C40.2066 16.4854 40.4178 16.5558 40.5937 16.6263C40.8048 16.6967 41.0159 16.7672 41.2271 16.6967C41.1567 16.6967 41.0863 16.6967 41.0159 16.6967C41.0511 16.6967 41.0863 16.732 41.0863 16.732C41.5085 16.8024 41.79 16.2036 41.403 16.0275Z" fill="#181D23"></path><path d="M40.629 16.415C39.9956 16.2037 39.2919 16.1332 38.6234 15.9924C37.99 15.8867 37.3567 15.7458 36.7585 15.5697C35.4566 15.2527 34.2251 14.83 32.9232 14.4425C32.2194 14.2312 32.0083 15.2527 32.6417 15.4992C33.9084 15.9923 35.2455 16.3094 36.5474 16.5911C37.2159 16.732 37.8493 16.8377 38.5178 16.9434C39.1864 17.049 39.8901 17.1547 40.5586 17.0843C40.8753 16.9786 40.9809 16.5207 40.629 16.415Z" fill="#181D23"></path><path d="M33.9435 14.4073C33.2046 14.4073 32.3953 14.5834 31.6564 14.6891C30.8823 14.83 30.1082 15.0061 29.3341 15.1822C27.8562 15.5345 26.3784 15.9219 24.9006 16.3798C21.9449 17.2956 19.0245 18.4227 16.2095 19.6907C15.5058 20.0077 16.104 21.0996 16.8429 20.7474C19.5874 19.4794 22.4375 18.3875 25.3228 17.4365C26.7655 16.9786 28.2081 16.5559 29.6508 16.1685C30.3897 15.9924 31.1286 15.8162 31.8675 15.6049C32.6064 15.4288 33.3805 15.2879 34.0842 15.0061C34.3657 14.9357 34.3657 14.4426 33.9435 14.4073Z" fill="#181D23"></path><path d="M16.3855 20.3599C15.8225 21.487 15.5058 22.7551 15.1891 23.9526C14.8724 25.1854 14.5909 26.4534 14.3798 27.7215C13.9576 30.2575 13.7113 32.8287 13.6409 35.4C13.6409 36.2101 14.8724 36.2101 14.9076 35.4C14.9428 32.8992 15.1539 30.4336 15.541 27.968C15.7521 26.7352 15.9984 25.5376 16.2447 24.3401C16.5262 23.1073 16.9132 21.9097 17.1244 20.6769C17.1947 20.2542 16.6318 19.902 16.3855 20.3599Z" fill="#181D23"></path><path d="M15.541 20.4303C15.9984 21.5575 16.8781 22.2971 17.8985 22.8607C19.13 23.5652 20.4319 24.0935 21.7338 24.6923C24.5135 25.9603 27.3285 27.2283 30.1786 28.4611C31.7971 29.1656 33.3805 29.8348 34.9991 30.504C35.2806 30.6097 35.6325 30.3631 35.7028 30.1166C35.8084 29.7996 35.5973 29.5178 35.3158 29.4121C32.5712 28.3202 29.8619 27.1579 27.1877 25.9955C24.5487 24.8684 21.8746 23.706 19.2708 22.5085C18.1096 21.9449 16.9133 21.3109 16.2095 20.1838C15.9632 19.902 15.4003 20.0781 15.541 20.4303Z" fill="#181D23"></path><path d="M56.7444 58.9287C56.5333 53.5044 56.5685 48.1154 56.9203 42.6911C56.9555 41.9866 55.8999 41.9866 55.8295 42.6911C55.4425 48.0801 55.5481 53.5397 56.1814 58.9287C56.2166 59.281 56.7444 59.281 56.7444 58.9287Z" fill="#181D23"></path><path d="M54.4572 38.6757C53.1553 37.0203 51.1849 36.1045 49.2496 35.4352C47.2088 34.7308 45.0625 34.2377 43.1272 33.2867C42.6346 33.0401 42.2124 33.7798 42.705 34.0263C46.4347 35.8931 50.9738 36.0692 54.1054 39.0279C54.3165 39.2393 54.6332 38.9223 54.4572 38.6757Z" fill="#181D23"></path><path d="M60.8963 36.1045C60.0166 36.2453 59.1017 36.3158 58.2221 36.1749C58.011 36.1397 57.7999 36.2453 57.7647 36.4919C57.7295 36.7385 57.9054 36.8794 58.1165 36.9146C59.1017 37.0203 60.087 36.9498 61.0018 36.5976C61.3537 36.4919 61.2129 36.0692 60.8963 36.1045Z" fill="#181D23"></path><path d="M56.6387 68.8967C56.322 69.4603 56.3924 70.3408 56.322 70.9748C56.2517 71.6793 56.2165 72.3837 56.1813 73.0882C56.1109 74.5323 56.0054 76.0117 55.935 77.4558C55.8646 78.9 55.7942 80.3793 55.7239 81.8234C55.6535 83.2676 55.5127 84.7469 55.5479 86.191C55.5831 87.0364 56.7443 87.0012 56.8498 86.191C57.0258 84.7469 56.9906 83.2676 57.0258 81.8234C57.061 80.3793 57.1313 78.9 57.1665 77.4558C57.2017 76.0117 57.2369 74.5323 57.2721 73.0882C57.2721 72.3837 57.3073 71.6793 57.3073 70.9748C57.3073 70.3056 57.4128 69.4955 57.1313 68.8967C57.061 68.6502 56.7443 68.6854 56.6387 68.8967Z" fill="#181D23"></path><path d="M53.5776 68.3332C53.5424 68.8615 53.6831 69.3194 53.8239 69.8125C53.9646 70.3057 54.1405 70.7636 54.3165 71.2215C54.6683 72.1725 55.0906 73.0883 55.548 74.004C55.8647 74.6028 56.7795 74.0745 56.4628 73.4757C56.0054 72.6304 55.5832 71.7498 55.2313 70.8692C55.0554 70.4466 54.8795 69.9887 54.7387 69.566C54.5628 69.0729 54.422 68.615 54.1405 68.1923C53.9998 67.9105 53.6127 68.0162 53.5776 68.3332Z" fill="#181D23"></path><path d="M50.7977 67.5231C51.2552 69.2138 51.9589 70.834 52.6274 72.4543C53.3312 74.0745 54.0701 75.6947 54.9497 77.2093C55.3016 77.8081 56.2165 77.2798 55.8998 76.6458C55.0905 75.096 54.2812 73.5462 53.5775 71.9964C52.8386 70.4113 52.2404 68.7911 51.5367 67.2061C51.3607 66.8186 50.6922 67.1004 50.7977 67.5231Z" fill="#181D23"></path><path d="M48.3348 69.1785C48.5459 70.0943 49.0034 70.9396 49.3904 71.7849C49.7775 72.7007 50.1645 73.6165 50.5516 74.5323C51.2905 76.3287 51.9942 78.1603 52.6979 79.9918C52.9442 80.6258 53.9998 80.3793 53.7535 79.71C53.085 77.808 52.3461 75.9764 51.5368 74.1449C51.1497 73.2291 50.7275 72.3485 50.3053 71.4327C49.883 70.5522 49.496 69.6012 48.8978 68.8263C48.6867 68.5445 48.2644 68.8615 48.3348 69.1785Z" fill="#181D23"></path><path d="M42.8105 67.3117C43.5846 69.0376 44.4642 70.693 45.2735 72.3837C46.118 74.0744 46.8921 75.7651 47.7014 77.4558C47.9829 78.0898 48.9329 77.5262 48.6514 76.8922C47.8773 75.1663 47.0329 73.5109 46.1884 71.8202C45.3439 70.1647 44.4642 68.474 43.4087 66.9242C43.1272 66.6072 42.6346 66.9242 42.8105 67.3117Z" fill="#181D23"></path><path d="M36.0195 60.866C36.4769 62.0283 37.0399 63.1202 37.5677 64.2474C38.0955 65.3745 38.5881 66.4664 39.1159 67.5935C40.1363 69.8478 41.1215 72.1372 42.1068 74.4267C42.3531 74.9902 43.3735 74.5676 43.1272 74.004C42.1771 71.7146 41.1567 69.4603 40.1363 67.206C39.6085 66.0789 39.0807 64.987 38.5529 63.8951C37.99 62.768 37.4622 61.6409 36.7936 60.549C36.5121 60.1968 35.8436 60.4081 36.0195 60.866Z" fill="#181D23"></path><path d="M28.8415 55.7235C29.8619 58.2947 31.1286 60.7603 32.2546 63.2611C33.4157 65.7971 34.5769 68.3332 35.7732 70.834C36.0899 71.468 36.9695 70.9044 36.6881 70.3056C35.5621 67.8048 34.3658 65.304 33.1694 62.8385C32.5712 61.6409 32.0083 60.4081 31.4101 59.2105C30.8119 57.9425 30.2138 56.6745 29.5452 55.4417C29.3693 55.0543 28.6656 55.3008 28.8415 55.7235Z" fill="#181D23"></path><path d="M22.8951 52.2365C23.5636 54.7021 24.5136 57.0972 25.4988 59.4571C26.4841 61.8171 27.5397 64.1418 28.7008 66.396C29.0175 67.03 30.0027 66.4665 29.686 65.8324C28.5601 63.5782 27.5045 61.324 26.4841 59.0345C25.4988 56.7098 24.6192 54.3499 23.634 52.0252C23.458 51.5673 22.7543 51.7434 22.8951 52.2365Z" fill="#181D23"></path><path d="M18.4615 52.4478C18.6726 53.3988 19.0597 54.3145 19.3763 55.2303C19.693 56.1461 20.0449 57.0619 20.3967 57.9777C21.1005 59.8093 21.8746 61.6056 22.6839 63.3668C23.0005 64.036 23.9858 63.4724 23.6691 62.768C22.8598 61.0068 22.0857 59.2105 21.3468 57.4141C20.9949 56.5336 20.643 55.653 20.2912 54.7372C19.9393 53.8567 19.6578 52.9056 19.2356 52.0251C19.0597 51.6376 18.3559 51.9899 18.4615 52.4478Z" fill="#181D23"></path><path d="M14.6966 50.5809C14.9781 51.8137 15.5059 53.0113 16.0337 54.1384C16.5615 55.3007 17.1245 56.4279 17.7226 57.555C18.0745 58.189 19.0597 57.6254 18.7078 56.9914C18.0745 55.8995 17.5115 54.8076 16.9837 53.6805C16.4559 52.5534 16.0337 51.391 15.5059 50.2639C15.2596 49.806 14.591 50.123 14.6966 50.5809Z" fill="#181D23"></path><path d="M49.7422 37.302C49.8126 38.2883 50.0941 39.2393 50.3404 40.1903C50.5867 41.1765 50.8682 42.1275 51.1849 43.0785C51.8182 44.9453 52.5923 46.8121 53.5072 48.5733C53.8238 49.1368 54.6331 48.6437 54.3868 48.0801C53.5424 46.319 52.7683 44.5579 52.0997 42.7263C51.783 41.8457 51.5015 40.9299 51.2201 40.0142C50.9386 39.0984 50.7626 38.1121 50.4459 37.1963C50.3052 36.8441 49.707 36.8441 49.7422 37.302Z" fill="#181D23"></path><path d="M45.4143 34.8012C45.1328 36.2101 45.731 37.619 46.2939 38.887C46.8569 40.2255 47.4903 41.4935 48.1236 42.7967C48.757 44.1 49.3903 45.4032 49.883 46.7417C50.4108 48.0801 50.7978 49.4186 51.1145 50.8275C51.2552 51.4967 52.1701 51.1797 52.0997 50.5457C51.7126 47.7984 50.4459 45.1919 49.2496 42.7615C48.6162 41.5287 47.9829 40.2959 47.4199 39.0279C46.8217 37.7599 46.0476 36.351 46.1884 34.9068C46.2588 34.4489 45.5198 34.3433 45.4143 34.8012Z" fill="#181D23"></path><path d="M40.5234 34.3785C41.0512 35.9283 41.7197 37.4077 42.3531 38.9223C42.9864 40.4368 43.655 41.9514 44.2883 43.466C45.5902 46.4951 46.8569 49.5243 48.2292 52.5534C48.4755 53.0818 49.3904 52.6943 49.1792 52.166C47.9125 49.1368 46.6106 46.1429 45.2735 43.1138C44.605 41.6344 43.9716 40.1198 43.3031 38.6405C42.6346 37.1259 42.0012 35.5761 41.2271 34.132C41.016 33.7093 40.3826 33.9559 40.5234 34.3785Z" fill="#181D23"></path><path d="M35.914 32.4413C36.5474 35.6465 37.7437 38.7461 39.0456 41.7048C39.679 43.1842 40.4179 44.6283 41.1568 46.0724C41.8605 47.4461 42.4939 48.8903 42.6346 50.44C42.705 51.1093 43.7606 51.1445 43.6902 50.44C43.5847 48.8198 43.0217 47.3757 42.318 45.9316C41.6142 44.4874 40.8401 43.0785 40.1716 41.6344C38.7641 38.57 37.7085 35.4352 36.6529 32.2299C36.5122 31.7721 35.8437 31.9482 35.914 32.4413Z" fill="#181D23"></path><path d="M28.1378 29.1656C29.299 32.0891 30.6009 34.9421 31.762 37.8656C32.9232 40.7891 33.9436 43.783 34.9992 46.777C35.2103 47.411 36.2307 47.1644 36.0196 46.4952C35.0695 43.466 33.9788 40.4721 32.7824 37.5134C31.6213 34.5899 30.3546 31.6312 28.8415 28.8486C28.6304 28.4964 27.9619 28.7429 28.1378 29.1656Z" fill="#181D23"></path><path d="M22.7543 26.5591C23.7395 29.4121 25.0062 32.2299 26.1673 35.0125C26.7303 36.3862 27.3285 37.7951 27.8915 39.1688C28.4545 40.5073 28.9823 41.8457 29.2637 43.2899C29.4045 43.9943 30.4249 43.6773 30.3193 43.0081C30.0378 41.5639 29.5101 40.1903 28.9119 38.8518C28.3137 37.4781 27.7155 36.1044 27.1174 34.7308C25.921 31.9129 24.7951 29.0247 23.3876 26.3125C23.2469 25.9251 22.6135 26.1717 22.7543 26.5591Z" fill="#181D23"></path><path d="M18.0744 24.9036C19.7985 30.2927 22.156 35.4704 24.6894 40.5073C25.0061 41.1413 25.9913 40.5777 25.6395 39.9437C23.0005 35.0125 20.8893 29.87 18.8485 24.657C18.6726 24.2344 17.8985 24.4105 18.0744 24.9036Z" fill="#181D23"></path><path d="M15.8578 27.7567C16.2096 29.2712 16.6671 30.7506 17.0893 32.2299C17.5115 33.7093 17.9338 35.2239 18.3912 36.7032C18.6023 37.4077 19.6931 37.1259 19.5172 36.3862C19.0949 34.9069 18.6375 33.4275 18.1801 31.9482C17.7227 30.4688 17.2652 28.9895 16.7374 27.5101C16.5263 26.9818 15.717 27.1931 15.8578 27.7567Z" fill="#181D23"></path><path d="M73.7042 34.8716C72.8245 40.2607 72.6838 45.7907 72.6486 51.2502C72.6134 56.7449 72.7893 62.2397 73.2116 67.6992C73.4227 70.7988 73.7394 73.9336 74.0912 77.0332C74.1264 77.4206 74.3727 77.7376 74.795 77.7376C75.1468 77.7376 75.5339 77.4206 75.4987 77.0332C74.1968 66.1141 73.7745 55.1247 74.0912 44.1352C74.1968 41.0708 74.3375 38.0065 74.3375 34.9773C74.3375 34.5899 73.7745 34.4842 73.7042 34.8716Z" fill="#181D23"></path><path d="M68.4966 37.0555C68.3559 38.4644 68.4262 39.8733 68.4262 41.2822C68.4262 42.6911 68.4262 44.1 68.4614 45.5089C68.4966 48.3267 68.4966 51.1445 68.5318 53.9271C68.567 59.4923 68.567 65.0575 68.567 70.6227C68.567 72.2077 68.567 73.7927 68.5318 75.3778C68.5318 76.9628 68.4262 78.5478 68.4966 80.1328C68.5318 81.0134 69.7633 80.9782 69.8337 80.1328C69.9393 78.7239 69.8689 77.315 69.9041 75.9061C69.9041 74.4972 69.9041 73.0883 69.9393 71.6794C69.9393 68.8616 69.9393 66.0438 69.9393 63.2612C69.9041 57.6255 69.8689 52.0251 69.7281 46.3895C69.6929 44.8045 69.6578 43.2194 69.5874 41.6344C69.517 40.0846 69.517 38.4996 69.3059 36.9498C69.2355 36.4567 68.5318 36.6328 68.4966 37.0555Z" fill="#181D23"></path><path d="M64.3797 38.9223C64.2038 40.613 64.2741 42.3389 64.2389 43.9943C64.2389 45.6146 64.2389 47.27 64.2389 48.8903C64.2389 52.2364 64.3093 55.5474 64.3093 58.8935C64.3093 59.7741 65.6816 59.7741 65.6464 58.8935C65.6112 55.5474 65.576 52.2364 65.5057 48.8903C65.4705 47.27 65.4353 45.6146 65.3649 43.9943C65.3297 42.3037 65.3297 40.5777 65.1186 38.9223C65.0834 38.4292 64.4149 38.4292 64.3797 38.9223Z" fill="#181D23"></path><path d="M64.6965 66.3607C64.5557 66.9594 64.6261 67.5935 64.6261 68.1922C64.6261 68.791 64.6261 69.425 64.6613 70.0238C64.6613 71.2566 64.6965 72.5246 64.6965 73.7574C64.6965 74.9902 64.6965 76.1878 64.6613 77.4206C64.6261 78.6886 64.6613 79.9918 64.5557 81.2598C64.4854 82.1052 65.8928 82.1052 65.8576 81.2598C65.8225 80.0271 65.8928 78.759 65.8928 77.5263C65.8928 76.2935 65.8928 75.0254 65.8576 73.7926C65.8225 72.5598 65.7873 71.3623 65.7521 70.1295C65.7169 69.4955 65.6817 68.8615 65.6465 68.2275C65.6113 67.6287 65.6113 66.9594 65.4354 66.3959C65.2947 66.0084 64.802 65.9732 64.6965 66.3607Z" fill="#181D23"></path><path d="M81.1285 36.6328C79.4396 36.8441 77.7506 37.4429 76.1321 37.9713C74.4431 38.4996 72.7542 39.0632 71.0652 39.6619C67.7577 40.8243 64.4502 42.0923 61.213 43.4308C60.8963 43.5717 60.6852 43.8534 60.7908 44.2057C60.8612 44.4874 61.2482 44.7692 61.5649 44.6283C64.802 43.2546 68.1096 41.9866 71.4171 40.7891C73.0708 40.1903 74.7246 39.6267 76.3784 39.0632C78.0321 38.4996 79.7915 38.0769 81.3397 37.3373C81.6563 37.1611 81.5156 36.5624 81.1285 36.6328Z" fill="#181D23"></path><path d="M82.7823 40.8595C81.2693 41.0004 79.7562 41.4935 78.3136 41.8809C76.8006 42.3036 75.2876 42.7615 73.7745 43.2194C70.8189 44.1352 67.8984 45.1214 64.9779 46.1781C63.3242 46.7769 61.6704 47.4813 60.0167 48.0449C59.2074 48.3267 59.6648 49.5242 60.4741 49.172C61.8815 48.538 63.3594 48.0449 64.802 47.4813C66.2447 46.953 67.7225 46.4247 69.1651 45.9315C72.0856 44.9101 75.0413 43.9943 77.9969 43.1137C79.6507 42.6206 81.3748 42.2684 82.923 41.5639C83.3453 41.4583 83.1693 40.8243 82.7823 40.8595Z" fill="#181D23"></path><path d="M82.2544 45.4384C81.3396 45.5793 80.4599 45.8963 79.5803 46.1781C78.7006 46.4599 77.821 46.7769 76.9413 47.0939C75.2523 47.6575 73.5634 48.2562 71.8393 48.8198C68.391 49.9822 64.9075 51.0741 61.4593 52.166C60.6852 52.4125 61.037 53.6101 61.7759 53.3635C65.2594 52.2364 68.7429 51.0741 72.2263 49.9117C73.9505 49.3129 75.6746 48.7141 77.3987 48.1153C78.2784 47.7983 79.158 47.5166 80.0025 47.1643C80.847 46.8473 81.7266 46.5303 82.5007 46.0724C82.8878 45.8611 82.6415 45.4032 82.2544 45.4384Z" fill="#181D23"></path><path d="M83.3805 50.6867C81.7971 50.9684 80.2489 51.4616 78.7007 51.9194C77.1173 52.3773 75.5691 52.8705 73.9857 53.3636C70.8893 54.3146 67.8281 55.2656 64.7317 56.2166C62.9723 56.745 61.213 57.2733 59.4185 57.8369C58.6444 58.0834 58.9963 59.281 59.7352 59.0344C65.9632 57.062 72.2264 55.1599 78.4544 53.1875C80.2137 52.6239 81.9378 52.0956 83.5916 51.3559C84.049 51.1445 83.7323 50.6162 83.3805 50.6867Z" fill="#181D23"></path><path d="M82.8174 56.2518C82.1137 56.2518 81.41 56.5688 80.7766 56.7801C80.1081 56.9915 79.4395 57.2028 78.771 57.4142C77.3987 57.8368 76.0265 58.2595 74.619 58.6469C73.2467 59.0344 71.8745 59.3866 70.5022 59.7036C69.7985 59.8797 69.0595 60.0559 68.3558 60.1968C67.6521 60.3377 66.878 60.4081 66.2094 60.6547C65.6465 60.866 65.6816 61.817 66.3502 61.7818C67.0539 61.7466 67.7928 61.5 68.4966 61.3591C69.2003 61.183 69.9392 61.0421 70.6429 60.866C72.0856 60.5138 73.493 60.1615 74.9005 59.7389C76.3079 59.3514 77.7154 58.8935 79.1229 58.4356C79.8266 58.1891 80.5303 57.9777 81.1989 57.6959C81.8322 57.4494 82.5359 57.238 83.0637 56.8154C83.2748 56.6392 83.0989 56.2518 82.8174 56.2518Z" fill="#181D23"></path><path d="M81.4804 61.7114C80.0378 61.9932 78.5951 62.4863 77.1877 62.909C75.7802 63.3316 74.3376 63.7895 72.9301 64.2122C70.08 65.0575 67.2299 65.9733 64.3446 66.6073C63.5705 66.7835 63.9224 68.0162 64.6613 67.7697C67.5466 66.8891 70.4319 66.1494 73.3172 65.2689C74.7246 64.8462 76.1673 64.3883 77.5747 63.9304C78.9822 63.4725 80.4248 63.0146 81.7619 62.3454C82.1489 62.1693 81.8675 61.6409 81.4804 61.7114Z" fill="#181D23"></path><path d="M79.334 67.0652C76.1672 68.298 73.0005 69.4603 69.7281 70.3409C68.1799 70.7635 66.6317 71.0805 65.1187 71.468C64.415 71.6441 63.6761 71.8906 63.0075 72.1372C62.2686 72.419 61.6001 72.8416 60.8963 73.1939C60.1574 73.5813 60.9315 74.7437 61.6352 74.1449C62.163 73.687 62.9371 73.4052 63.6057 73.1587C64.3094 72.8769 65.0131 72.7008 65.7521 72.4894C67.3003 72.102 68.8485 71.7498 70.3967 71.3271C73.5986 70.4465 76.7302 69.3194 79.7211 67.8401C80.1081 67.664 79.8266 66.8891 79.334 67.0652Z" fill="#181D23"></path><path d="M78.032 33.7445C77.7153 39.0631 77.8209 44.3818 77.8561 49.7004C77.8561 54.9486 77.8913 60.232 77.9265 65.4801C77.9265 68.4741 77.9616 71.4328 77.9616 74.4267C77.9616 75.3072 79.3339 75.3072 79.3339 74.4267C79.2635 63.8599 79.1932 53.2579 79.0876 42.6911C79.0524 39.6972 79.0172 36.7385 78.8061 33.7445C78.7357 33.2866 78.0672 33.2866 78.032 33.7445Z" fill="#181D23"></path></svg> 