<?xml version="1.0" encoding="UTF-8"?> <svg xmlns="http://www.w3.org/2000/svg" width="101" height="122" viewBox="0 0 101 122" fill="none"><path d="M52 14H7L8.5 68H92L93.75 12.5C82.8333 13 59.2 14 52 14Z" fill="#EFFAFE"></path><path opacity="0.2" d="M83.125 64.5C83.325 66 82.5417 67.4583 82.125 68H14.7501C14.7084 67.7083 14.55 66.775 14.25 65.375C13.95 63.975 15.0417 62.4583 15.625 61.875H79.875C80.875 62.125 82.925 63 83.125 64.5Z" fill="black"></path><path d="M12.25 58.25V18C16.5833 18.5 27 19.5 34 19.5C42.75 19.5 53.25 18 64 18H88.5L85.5 58.25H12.25Z" fill="#A7CAFF"></path><path d="M75.75 20.875C75.75 18.975 79 20.6666 80.625 21.75C81.9167 21.0833 84.525 20.15 84.625 21.75C84.725 23.3499 82 25.3333 80.625 26.125C79 25.1667 75.75 22.775 75.75 20.875Z" fill="#FE6869"></path><path d="M6.89214 13.7726C6.69352 17.3184 6.72662 20.8973 6.75973 24.4431C6.79283 27.9889 6.82593 31.5679 6.82593 35.1137C6.89214 42.2384 6.95835 49.33 7.02456 56.4548C7.05766 60.4645 7.09077 64.4742 7.12388 68.484C7.12388 68.8485 7.45491 69.1799 7.81906 69.1799C18.8097 68.9479 29.8003 68.7822 40.7909 68.6828C51.7153 68.5834 62.6728 68.5503 73.5972 68.5834C79.7546 68.6165 85.8789 68.6497 92.0363 68.716C92.9301 68.716 92.9301 67.3573 92.0363 67.3573C81.0457 67.2247 70.055 67.1916 59.0644 67.2247C48.14 67.2579 37.1825 67.3241 26.2581 67.4898C20.1007 67.5893 13.9764 67.6887 7.81906 67.8212C8.05079 68.0532 8.28252 68.2852 8.51425 68.5171C8.44804 61.3924 8.38183 54.3008 8.31562 47.176C8.24941 40.0513 8.18321 32.9597 8.0839 25.8349C8.05079 21.8252 8.01769 17.8154 7.71975 13.8057C7.71975 13.2092 6.92525 13.2092 6.89214 13.7726Z" fill="#181D23"></path><path d="M92.599 67.9869C93.0625 60.829 93.3273 53.6711 93.5591 46.5132C93.7908 39.3222 93.9894 32.1312 94.1549 24.9402C94.2542 20.8973 94.3205 16.8544 94.3867 12.8115C94.3867 12.447 94.0556 12.0825 93.6915 12.1156C82.4361 12.8447 71.1806 13.3086 59.9252 13.5406C48.7028 13.7725 37.5136 13.8057 26.2913 13.5737C20.0015 13.4412 13.7117 13.2423 7.42187 12.9772C6.49496 12.9441 6.49496 14.4022 7.42187 14.4353C18.6773 14.9324 29.9327 15.1975 41.2213 15.1975C52.4436 15.1975 63.6328 14.9987 74.8552 14.5347C81.145 14.2696 87.4348 13.9382 93.6915 13.5406C93.4598 13.3086 93.228 13.0766 92.9963 12.8447C92.897 20.0026 92.7646 27.1936 92.5659 34.3514C92.3673 41.5425 92.1356 48.7335 91.9038 55.9245C91.7714 59.9674 91.639 64.0103 91.5397 68.0531C91.4735 68.7159 92.5328 68.6828 92.599 67.9869Z" fill="#181D23"></path><path d="M11.3282 17.3184C11.2289 18.677 11.262 20.0689 11.2951 21.4607C11.3282 22.7862 11.3613 24.1117 11.3944 25.4373C11.4606 28.0883 11.5268 30.7394 11.6261 33.3573C11.7916 38.6926 11.9241 44.061 12.0896 49.3963C12.1889 52.4118 12.2551 55.4606 12.3544 58.4761C12.3875 59.3046 13.6455 59.3046 13.6124 58.4761C13.2813 47.7393 12.9834 37.0025 12.6192 26.2326C12.553 24.7414 12.5199 23.2501 12.4537 21.7589C12.3875 20.2345 12.3544 18.7102 12.1227 17.1858C12.0565 16.7219 11.3613 16.8876 11.3282 17.3184Z" fill="#181D23"></path><path d="M12.917 58.7082C22.3517 59.0727 31.7864 59.0064 41.2542 59.0395C50.6889 59.0727 60.1237 59.0395 69.5915 58.9733C74.8881 58.9401 80.1517 58.8739 85.4484 58.8407C85.7794 58.8407 86.0443 58.5425 86.0774 58.2111C86.5408 47.7394 87.1698 37.3008 87.9312 26.8622C88.1629 23.946 88.3616 21.0299 88.6264 18.1468C88.6595 17.7492 88.2953 17.4841 87.9312 17.4509C78.1654 16.2579 68.3004 16.7882 58.5346 17.3846C53.6021 17.6829 48.6696 18.0143 43.704 18.1468C38.7714 18.2794 33.8058 18.18 28.8733 18.0143C23.2787 17.8155 17.684 17.4509 12.0894 17.1195C11.1956 17.0533 11.1956 18.4782 12.0894 18.5445C22.0207 19.141 31.952 19.7706 41.8832 19.6049C51.7152 19.4392 61.5471 18.4119 71.3791 18.18C76.9075 18.0474 82.4359 18.18 87.9312 18.8427C87.6995 18.6108 87.4677 18.3788 87.236 18.1468C86.3753 28.5854 85.6801 39.024 85.1835 49.4626C85.0511 52.3787 84.9187 55.2949 84.8194 58.2111C85.018 58.0123 85.2166 57.8134 85.4484 57.5815C76.0137 57.7471 66.579 57.7803 57.1112 57.8134C47.6765 57.8466 38.2418 57.8466 28.774 57.7803C23.4773 57.7472 18.2137 57.6809 12.917 57.7803C12.3212 57.8134 12.3543 58.675 12.917 58.7082Z" fill="#181D23"></path><path d="M15.1019 67.4899C15.0357 66.6614 14.9033 65.7998 15.0357 64.9713C15.1682 64.1429 15.4992 63.3475 16.0289 62.7179C16.1944 62.5191 16.2275 62.2209 16.0289 61.9889C15.8633 61.8232 15.4992 61.7901 15.3006 61.9889C14.6716 62.7842 14.2412 63.7121 14.1088 64.7062C13.9764 65.6672 13.9764 66.794 14.5723 67.6224C14.7047 67.8544 15.1351 67.7881 15.1019 67.4899Z" fill="#181D23"></path><path d="M17.3531 62.2539C19.3724 62.4859 21.4249 62.4528 23.4774 62.4528C25.5298 62.4528 27.5492 62.4528 29.6016 62.4528C33.6404 62.4528 37.646 62.4528 41.6847 62.4196C49.7952 62.3865 57.8727 62.3534 65.9832 62.3202C70.5516 62.2871 75.1199 62.3202 79.7214 62.2539C80.3173 62.2539 80.3173 61.326 79.7214 61.326C71.6109 61.2929 63.5004 61.3923 55.4229 61.4254C47.3124 61.4586 39.235 61.4917 31.1244 61.558C28.8734 61.5911 26.5892 61.5911 24.3381 61.6243C22.0208 61.6574 19.7035 61.5911 17.3862 61.8563C17.0883 61.9225 17.0883 62.2208 17.3531 62.2539Z" fill="#181D23"></path><path d="M80.0524 62.1876C81.0125 62.3533 81.8732 62.9167 82.3035 63.7783C82.767 64.673 82.6345 65.7666 82.0718 66.5619C81.7738 67.0258 82.5021 67.4235 82.8001 66.9927C83.4952 65.9323 83.5615 64.5405 82.9656 63.4138C82.4028 62.3533 81.3104 61.6574 80.1186 61.6243C79.8207 61.6243 79.7214 62.1545 80.0524 62.1876Z" fill="#181D23"></path><path d="M84.9849 64.673C85.4153 64.7062 85.8787 64.6068 86.3091 64.5405C86.7394 64.4742 87.1367 64.408 87.567 64.3417C87.8649 64.2754 88.0636 63.9109 87.9643 63.6458C87.8649 63.3475 87.567 63.1819 87.2691 63.2481C86.8718 63.3144 86.4415 63.4138 86.0442 63.5132C85.6139 63.6126 85.1835 63.7121 84.7863 63.9109C84.6208 63.9772 84.5546 64.2091 84.5877 64.3748C84.6539 64.5405 84.7863 64.673 84.9849 64.673Z" fill="#181D23"></path><path d="M12.1558 31.0376C13.7448 32.1311 15.9959 30.8719 16.1283 29.0161C15.7972 29.0493 15.4662 29.1155 15.1351 29.1487C15.6317 30.673 16.0952 32.2306 16.5917 33.7549C16.7241 34.1526 17.32 34.2851 17.5518 33.8875C18.2801 32.4625 18.8759 30.9713 19.3725 29.4469C19.0415 29.4469 18.6773 29.4469 18.3463 29.4469C18.5449 30.5405 18.8759 31.6009 19.3725 32.5951C19.538 32.9596 20.1339 32.9596 20.2994 32.5951C20.7298 31.6672 21.1601 30.7393 21.5905 29.8115C21.2594 29.7783 20.9284 29.712 20.5642 29.6789C21.4581 34.6497 22.4843 39.5541 23.676 44.4586C23.8416 45.1545 24.8347 44.9557 24.9009 44.2929C25.1326 40.0512 25.3975 35.7764 25.5961 31.5347C25.2319 31.6672 24.9009 31.8329 24.5368 31.9654C24.8678 32.2968 25.2319 32.6614 25.563 32.9927C25.894 33.3241 26.4568 33.1584 26.5892 32.7276C26.7878 32.1643 27.0858 31.6672 27.5161 31.2696C27.1851 31.2364 26.8872 31.2033 26.5561 31.137C26.9203 31.7003 27.2844 32.2968 27.6486 32.8602C27.8141 33.0922 28.0458 33.1916 28.3437 33.1253C30.661 32.6945 32.9783 32.4625 35.2956 32.3963C35.097 32.2637 34.8984 32.098 34.6998 31.9654C35.3287 33.9206 35.9577 35.8758 36.5867 37.8309C36.7522 38.3612 37.6791 38.4606 37.7785 37.8309C37.9109 37.0356 38.0433 36.2072 38.1757 35.4118C38.3081 34.6828 38.3412 33.8543 38.573 33.1584C38.6392 32.9265 38.7385 32.8933 38.9702 32.8933C39.3675 32.8602 39.7978 32.8933 40.1951 32.8933C40.9896 32.8933 41.7841 32.8933 42.5786 32.8602C42.8434 32.8602 43.1082 32.6614 43.1744 32.3963C43.3069 31.866 43.4393 31.3358 43.6048 30.8056C43.2407 30.8387 42.8434 30.905 42.4793 30.9382C42.7772 31.6009 43.2407 32.098 43.8365 32.4957C44.0683 32.6614 44.3662 32.5619 44.5979 32.3963C45.0283 32.0317 45.4586 31.6672 45.9221 31.3027C45.6242 31.3027 45.3262 31.3027 45.0614 31.3027C45.5579 31.7003 46.0545 32.098 46.5511 32.5288C46.7828 32.7276 47.2132 32.827 47.4118 32.5288C48.5042 31.1701 49.2987 29.6126 49.7622 27.9226C49.3649 27.9226 48.9677 27.9226 48.5704 27.9226C49.4974 33.2247 50.4243 38.5268 51.3843 43.7959C51.4505 44.1272 51.8147 44.3261 52.1126 44.2598C52.4767 44.1935 52.6423 43.9615 52.6754 43.597C53.1719 39.7861 53.6685 35.9421 54.1651 32.098C53.8671 32.2968 53.6023 32.5288 53.3044 32.7276C55.3568 33.4567 57.6079 31.7998 57.7403 29.712C57.31 29.7783 56.8796 29.8446 56.4493 29.8777C56.7141 30.7062 57.1113 31.5015 57.641 32.1974C57.972 32.6282 58.4686 32.6282 58.7666 32.1974C59.2962 31.5015 59.8259 30.8056 60.3556 30.1097C59.9583 30.0434 59.5611 30.0103 59.1638 29.944C59.3293 30.8056 59.7266 31.5678 60.2562 32.2637C60.4218 32.4957 60.819 32.4957 61.0507 32.3631C61.7128 31.9655 62.408 31.5678 63.0701 31.1701C62.7391 31.0376 62.4411 30.905 62.1101 30.7725C63.8315 34.9148 64.9902 39.2559 65.6191 43.6964C65.7185 44.3592 66.844 44.3592 66.9433 43.6964C67.6054 39.5541 68.2013 35.445 68.8302 31.3027C68.4992 31.4352 68.1682 31.5678 67.804 31.7003C69.9558 32.9596 73.0345 31.6341 73.5973 29.215C73.1669 29.1487 72.7034 29.0824 72.2731 29.0493C72.3724 30.1097 72.7696 31.0376 73.4648 31.7998C73.6966 32.0649 74.16 32.0317 74.4249 31.7998C75.0207 31.2364 75.5835 30.6399 76.1794 30.0766C75.8483 30.0434 75.4842 29.9772 75.1532 29.944C75.4511 30.6068 75.7821 31.2364 76.0801 31.8992C76.2787 32.2968 76.8415 32.2968 77.1063 32.0317C77.5367 31.6341 78.0001 31.2364 78.4305 30.8056C78.0663 30.7062 77.7022 30.6068 77.338 30.5074C78.2981 34.3846 79.2581 38.2617 80.2181 42.1389C80.3836 42.7686 81.4099 42.8017 81.5423 42.1389C82.2375 38.5931 82.9327 35.0805 83.6278 31.5347C83.3299 31.7003 83.0651 31.866 82.7671 32.0317C84.4224 32.2968 86.0776 32.1311 87.6666 31.5347C87.9976 31.4021 88.2625 31.0707 88.13 30.7062C88.0307 30.3748 87.6335 30.1097 87.3024 30.2423C85.9783 30.7393 84.5548 30.905 83.1644 30.7062C82.8003 30.6399 82.3699 30.8056 82.3037 31.2033C81.6085 34.7491 80.9464 38.2617 80.2512 41.8075C80.6816 41.8075 81.145 41.8075 81.5754 41.8075C80.6153 37.9304 79.6222 34.0863 78.6291 30.2091C78.4967 29.712 77.8677 29.5795 77.5367 29.9109C77.1063 30.3085 76.6429 30.7062 76.2125 31.137C76.5435 31.1701 76.9077 31.2364 77.2387 31.2696C76.9408 30.6068 76.6097 29.9771 76.3118 29.3144C76.1132 28.9167 75.5504 28.9167 75.2856 29.1818C74.6897 29.7452 74.1269 30.3417 73.531 30.905C73.8621 30.905 74.16 30.905 74.4911 30.905C74.0607 30.4079 73.7628 29.7783 73.7297 29.0824C73.6635 28.3534 72.571 28.0883 72.4055 28.9167C72.0414 30.5074 70.022 31.4021 68.5985 30.5736C68.2675 30.3748 67.6385 30.5405 67.5723 30.9713C66.9433 35.1136 66.3143 39.2228 65.6853 43.3651C66.1157 43.3651 66.546 43.3651 67.0095 43.3651C66.3805 38.9245 65.1557 34.6165 63.4342 30.4742C63.2687 30.1097 62.8715 29.8446 62.4742 30.0766C61.8121 30.4742 61.117 30.8719 60.4549 31.2696C60.7197 31.3027 60.9845 31.3358 61.2494 31.369C60.8521 30.8387 60.6204 30.2423 60.488 29.6126C60.3556 29.0161 59.5942 29.0493 59.2962 29.4469C58.7665 30.1428 58.2369 30.8387 57.7072 31.5347C58.0714 31.5347 58.4686 31.5347 58.8328 31.5347C58.3693 30.905 58.0052 30.2423 57.7734 29.5132C57.5417 28.7842 56.5155 28.9499 56.4824 29.6789C56.383 30.9713 54.8934 31.8329 53.7016 31.4021C53.2382 31.2364 52.9071 31.6672 52.8409 32.0317C52.3443 35.8426 51.8478 39.6867 51.3512 43.5307C51.7816 43.4645 52.2119 43.3982 52.6423 43.3651C51.6822 38.0629 50.7222 32.7939 49.7622 27.4918C49.6629 26.8621 48.7029 26.9284 48.5704 27.4918C48.1732 28.983 47.5111 30.3748 46.5511 31.5678C46.849 31.5678 47.147 31.5678 47.4118 31.5678C46.9152 31.1701 46.4187 30.7725 45.9221 30.3417C45.6573 30.1097 45.3262 30.1097 45.0614 30.3417C44.631 30.7062 44.2007 31.0707 43.7372 31.4352C44.0021 31.4021 44.2338 31.369 44.4986 31.3358C44.0683 31.0707 43.8034 30.6731 43.6048 30.2423C43.3731 29.7452 42.6117 29.9109 42.4793 30.3748C42.3468 30.905 42.1813 31.4352 42.0489 31.9654C42.2475 31.7998 42.4462 31.6672 42.6448 31.5015C41.7179 31.5015 40.7909 31.5015 39.864 31.5347C39.1026 31.5347 38.1757 31.4352 37.6791 32.1643C37.2488 32.7939 37.2488 33.7549 37.1495 34.5171C36.984 35.4781 36.8515 36.4391 36.686 37.4333C37.0833 37.4333 37.4805 37.4333 37.8778 37.4333C37.2488 35.4781 36.6198 33.523 35.9908 31.6009C35.9246 31.369 35.6929 31.137 35.395 31.1701C32.9452 31.2364 30.5286 31.5015 28.112 31.9323C28.3437 32.0317 28.5755 32.1311 28.8072 32.1974C28.4431 31.6341 28.0789 31.0376 27.7148 30.4742C27.5161 30.1428 27.0527 30.0766 26.7547 30.3417C26.1589 30.905 25.7285 31.5678 25.4968 32.33C25.8278 32.2306 26.192 32.1643 26.523 32.0649C26.192 31.7003 25.8609 31.369 25.4968 31.0044C25.0995 30.6068 24.4705 30.9382 24.4374 31.4352C24.1726 35.677 23.974 39.9518 23.7423 44.1935C24.1395 44.1272 24.5368 44.0941 24.9671 44.0278C23.7423 39.1565 22.6498 34.2189 21.7229 29.2812C21.6236 28.8173 20.8953 28.7179 20.6967 29.1487C20.2663 30.0766 19.8359 31.0044 19.4387 31.9323C19.7366 31.9323 20.0677 31.9323 20.3656 31.9323C19.9353 31.0044 19.6373 30.0434 19.4387 29.0493C19.3394 28.4859 18.5449 28.5853 18.4125 29.0493C17.9821 30.5074 17.4193 31.8992 16.7242 33.2579C17.0552 33.291 17.3531 33.3573 17.6842 33.3904C17.1876 31.866 16.691 30.3085 16.1945 28.7842C16.029 28.254 15.2676 28.3534 15.2014 28.9167C15.1351 30.0766 13.5793 30.8056 12.5861 30.2754C12.0896 30.1428 11.7585 30.7393 12.1558 31.0376Z" fill="#181D23"></path><path d="M81.5422 21.9578C82.1711 21.6927 82.8332 21.1624 83.5615 21.4607C84.1905 21.7258 84.0581 22.3554 83.6939 22.7862C83.1311 23.4158 82.3698 23.8466 81.7077 24.3437C80.9132 24.9071 80.1187 25.5035 79.3242 26.0669C79.0593 26.2657 78.9269 26.5971 79.0924 26.9285C79.258 27.1936 79.6883 27.3593 79.9532 27.1605C80.9132 26.4314 81.8732 25.7024 82.8332 24.9402C83.6277 24.3106 84.5877 23.7141 84.985 22.7199C85.3491 21.7589 84.7864 20.7979 83.8263 20.4997C82.8994 20.2014 81.7408 20.6654 81.1449 21.4276C80.9463 21.6927 81.2442 22.0903 81.5422 21.9578Z" fill="#181D23"></path><path d="M80.6155 21.0961C80.1189 20.4334 79.2582 20.0689 78.4637 19.9363C77.603 19.8037 76.7092 19.9032 75.9478 20.3008C75.5505 20.4997 75.2195 20.831 75.1202 21.2618C75.0209 21.792 75.2526 22.256 75.5836 22.6205C75.8816 22.9519 76.2788 23.2501 76.6099 23.5484C77.0071 23.8798 77.4044 24.2443 77.8016 24.5757C78.6624 25.3379 79.5231 26.1663 80.45 26.8954C80.6817 27.061 81.079 26.9616 81.2445 26.7297C81.4431 26.4977 81.41 26.1332 81.2114 25.9343C80.4831 25.1722 79.5893 24.4763 78.7948 23.7804C78.3644 23.4158 77.9672 23.0513 77.5368 22.6536C77.1727 22.3554 76.7423 22.0572 76.4775 21.6595C76.4444 21.6264 76.4112 21.5269 76.4112 21.4938C76.4112 21.5269 76.3119 21.5601 76.4443 21.4607C76.5106 21.4275 76.643 21.3281 76.7092 21.295C77.0733 21.1293 77.4706 21.063 77.8347 21.063C78.232 21.063 78.6292 21.0961 78.9934 21.1956C79.3906 21.3281 79.7879 21.4938 80.1852 21.6595C80.45 21.8583 80.8141 21.3944 80.6155 21.0961Z" fill="#181D23"></path><path d="M13.1158 51.4839C17.0221 54.0024 22.1532 53.1408 26.3575 51.8816C31.1907 50.4235 36.1563 48.0707 41.3537 48.8991C43.7703 49.2968 45.9883 50.2578 48.2394 51.1525C50.5898 52.1135 52.9402 52.8757 55.4561 53.174C58.0051 53.4722 60.6203 53.3396 63.1363 52.7763C65.5529 52.2129 67.8371 51.2519 70.1875 50.5229C72.5048 49.7939 74.9214 49.3299 77.338 49.8601C79.6884 50.3572 81.8402 51.4839 84.1906 51.8816C84.7533 51.981 85.3161 52.0141 85.912 52.0141C86.4417 52.0141 86.4417 51.1525 85.912 51.1857C83.4954 51.2188 81.3105 50.1915 79.0594 49.4956C77.9339 49.1642 76.7752 48.8991 75.6166 48.866C74.4579 48.8328 73.2662 48.9654 72.1075 49.2305C69.724 49.7276 67.4729 50.6886 65.1556 51.4176C62.7059 52.213 60.2231 52.6437 57.6741 52.6106C55.125 52.5775 52.6091 52.0473 50.2256 51.1525C47.9083 50.2909 45.6903 49.2305 43.3399 48.5677C40.9233 47.905 38.5067 47.8718 36.057 48.2695C33.5411 48.7003 31.0914 49.5619 28.6747 50.3904C24.3381 51.8484 19.5711 53.2734 15.0358 51.749C14.473 51.5502 13.9434 51.3514 13.4137 51.0863C13.0827 50.8874 12.8509 51.2851 13.1158 51.4839Z" fill="#181D23"></path></svg> 