<?xml version="1.0" encoding="UTF-8"?> <svg xmlns="http://www.w3.org/2000/svg" width="100" height="121" viewBox="0 0 100 121" fill="none"><path d="M41.6133 34.2832C43.4133 32.3832 46.6966 32.4082 48.1133 32.6582C49.4466 34.0749 52.1383 37.2582 52.2383 38.6582C52.3383 40.0582 51.7799 41.3249 51.4883 41.7832L63.9883 55.1582L58.5552 61.5762L46.1305 47.6455L43.4883 45.1582L38.8633 40.1582C39.0299 38.9915 39.8133 36.1832 41.6133 34.2832Z" fill="#4B5359"></path><path d="M75.6128 53.9082C78.9128 55.8082 75.5711 60.5332 73.4878 62.6582C67.6127 68.9082 63.2378 70.9082 59.1128 69.9082C54.9878 68.9082 59.9878 59.4082 62.1128 56.4082C64.2378 53.4082 71.4878 51.5332 75.6128 53.9082Z" fill="#EFFAFE"></path><path d="M26.0496 17.6505C23.7403 18.7549 22.9957 21.7921 22.9121 23.1726L38.5999 40.2409C38.6835 39.2369 39.4784 36.6516 41.9884 34.3423C44.4985 32.0331 46.883 32.3761 47.7615 32.8363L31.6972 16.27C30.7769 16.27 28.3589 16.5461 26.0496 17.6505Z" fill="#FEB103"></path><path opacity="0.4" d="M32.3633 16.7833L67.9883 53.7833C61.9883 54.8833 58.8216 59.4916 57.9883 61.6583L23.1133 23.0333C23.2799 22.4917 23.9883 20.7833 25.4883 18.2833C26.9883 15.7833 30.6966 16.2416 32.3633 16.7833Z" fill="white"></path><path opacity="0.4" fill-rule="evenodd" clip-rule="evenodd" d="M60.5927 57.775L24.901 19.291C23.7995 21.241 23.2565 22.5677 23.1133 23.0331L57.9883 61.6581C58.3648 60.6792 59.2175 59.2019 60.5927 57.775Z" fill="white"></path><path d="M64.2383 59.2832C62.6383 60.3832 61.7383 62.6582 61.4883 63.6582L74.9883 78.5332C75.3216 79.2415 76.3383 81.1332 77.7383 83.0332C79.4883 85.4082 83.7383 84.1582 86.2383 81.4082C88.7383 78.6582 88.9883 74.9082 87.4883 71.9082C86.2883 69.5082 82.9883 69.7415 81.4883 70.1582L68.4883 57.1582C67.7383 57.4082 65.8383 58.1832 64.2383 59.2832Z" fill="#4B5359"></path><path d="M23.3985 23.3201C23.5715 22.8699 23.779 22.4544 23.952 22.0042C24.125 21.554 24.3326 21.1038 24.5747 20.7228C25.059 19.8917 25.6817 19.1645 26.4428 18.5758C28.1034 17.3291 30.2829 16.9135 32.2548 17.3983C33.1196 17.6061 33.5002 16.2555 32.6353 16.0477C30.2482 15.4936 27.6536 15.9438 25.7163 17.4329C24.8169 18.1256 24.0212 18.9913 23.4677 19.9956C23.1909 20.4804 22.9833 21.0345 22.8104 21.554C22.6374 22.1427 22.6374 22.6275 22.7412 23.2162C22.845 23.5279 23.2947 23.5972 23.3985 23.3201Z" fill="#181D23"></path><path d="M31.7358 17.2944C32.1163 17.987 32.7044 18.5411 33.2234 19.1298C33.8115 19.7185 34.365 20.3419 34.9531 20.9306C36.0947 22.0734 37.2018 23.2162 38.3434 24.359C40.6267 26.6793 42.9099 28.9649 45.1932 31.2851C49.7598 35.891 54.3609 40.4969 58.9274 45.1028C61.5221 47.7001 64.1167 50.332 66.7113 52.9293C67.3686 53.5873 68.3719 52.583 67.7146 51.925C63.1134 47.3191 58.5469 42.7132 53.9457 38.1074C49.3446 33.5015 44.7781 28.8956 40.1769 24.2898C38.8623 22.9738 37.5823 21.6925 36.2677 20.3765C35.645 19.7531 34.9877 19.1298 34.365 18.5065C33.7077 17.8485 33.0504 17.1559 32.2547 16.7057C31.9433 16.5325 31.5282 16.9134 31.7358 17.2944Z" fill="#181D23"></path><path d="M22.499 23.0429C23.3639 24.3935 24.5401 25.571 25.6472 26.7484C26.7542 27.9605 27.8612 29.1726 28.9683 30.35C31.1824 32.7395 33.3618 35.129 35.5759 37.5186C40.0041 42.2976 44.4668 47.0766 48.895 51.8903C51.3858 54.5915 53.9113 57.2927 56.4021 59.9939C56.9902 60.6519 57.9589 59.6822 57.3708 59.0242C52.9426 54.2452 48.4799 49.4661 44.0517 44.6871C39.6235 39.9081 35.1608 35.1291 30.698 30.35C29.4526 28.9994 28.1726 27.6488 26.9272 26.3329C25.6818 25.0169 24.5055 23.597 23.0525 22.5235C22.7412 22.2464 22.2915 22.7313 22.499 23.0429Z" fill="#181D23"></path><path d="M43.4635 44.4102C43.4289 44.5141 43.4289 44.5141 43.4635 44.4102C43.4635 44.3409 43.4635 44.2717 43.4635 44.2024C43.4289 44.0639 43.3251 43.96 43.2559 43.8215C43.1522 43.6137 43.083 43.4059 43.0138 43.1981C42.91 42.7133 42.9792 42.2285 43.083 41.7783C43.3597 40.7047 44.0516 39.7697 44.8473 39.0424C46.4733 37.5533 48.8258 36.8607 51.0053 37.3802C51.801 37.588 52.1469 36.3412 51.3512 36.1335C49.2409 35.6486 46.9922 36.0642 45.1587 37.2416C43.4289 38.3498 41.9067 40.2199 41.7684 42.367C41.7338 42.9211 41.8375 43.5098 42.1143 43.9946C42.2527 44.237 42.4257 44.4448 42.6332 44.618C42.737 44.7219 42.8754 44.7911 43.0138 44.7911C43.0484 44.7911 43.1176 44.7565 43.1522 44.7565C43.1868 44.7565 43.1867 44.7565 43.2213 44.7219C43.2905 44.6872 43.2905 44.6872 43.1868 44.7219C43.3943 44.7565 43.5673 44.5487 43.4635 44.4102Z" fill="#181D23"></path><path d="M39.1045 40.393C39.3812 39.4233 39.6234 38.4883 40.1077 37.5879C40.5574 36.7221 41.2148 35.9256 41.9758 35.2676C42.7715 34.6443 43.7056 34.1941 44.6742 33.9517C45.1586 33.8131 45.6429 33.7439 46.1618 33.7439C46.7153 33.7093 47.3034 33.8478 47.857 33.7785C48.3759 33.7092 48.4451 32.8781 47.9953 32.6703C47.4764 32.3933 46.7499 32.4279 46.1618 32.4625C45.5391 32.4972 44.9164 32.5664 44.3283 32.7396C43.1521 33.0513 42.0796 33.6054 41.1456 34.3672C39.4504 35.7525 38.0666 38.1766 38.4126 40.393C38.4472 40.7393 39.0007 40.7047 39.1045 40.393Z" fill="#181D23"></path><path d="M26.6851 17.2598C26.6505 17.1906 26.6159 17.1213 26.5813 17.052C26.5813 17.1559 26.6159 17.2598 26.6159 17.3637C26.6159 17.2598 26.6505 17.1559 26.6159 17.052C26.5813 16.9482 26.5467 16.8789 26.4775 16.8096C26.5121 16.8789 26.4083 16.6711 26.4083 16.6365C26.3737 16.5672 26.3392 16.5326 26.3046 16.4633C26.1316 16.2209 25.924 15.9785 25.7164 15.8054C25.4743 15.5976 25.1975 15.4244 24.8862 15.3552C24.7478 15.3205 24.6094 15.2859 24.471 15.2859C24.1597 15.2513 23.9521 15.4244 23.7791 15.6668C23.9175 15.5976 24.0213 15.5283 24.1597 15.4591C23.7099 15.4937 23.2948 15.6322 22.9834 15.9785C22.8105 16.1517 22.7067 16.3594 22.6721 16.5672C22.6029 16.8789 22.8105 17.1559 22.9489 17.433C23.2256 17.8832 23.537 18.3334 23.8483 18.7489C24.0213 18.9567 24.1943 19.1299 24.3672 19.3376C24.5402 19.5108 24.7478 19.6839 24.9208 19.8917C25.1283 20.1341 25.5435 20.0649 25.7164 19.8225C25.924 19.5801 25.8548 19.1991 25.5781 19.026C25.3705 18.9221 25.1975 18.6797 25.0245 18.5065C24.817 18.2987 24.644 18.0909 24.4364 17.8485C24.1251 17.433 23.8137 16.9481 23.5716 16.4633C23.5716 16.6018 23.6062 16.7057 23.6062 16.8443C23.6062 16.775 23.6408 16.7404 23.6408 16.6711C23.6062 16.775 23.6753 16.6365 23.6753 16.6019C23.6753 16.5672 23.7099 16.5672 23.7099 16.5326C23.6754 16.5672 23.6754 16.5672 23.7099 16.5326C23.7445 16.498 23.7791 16.4633 23.8137 16.4287C23.8483 16.4287 23.8483 16.3941 23.8137 16.4287C23.8483 16.4287 23.8483 16.3941 23.8829 16.3941C23.9175 16.3594 23.9867 16.3248 24.0213 16.3248C23.9521 16.3594 24.0905 16.2902 24.1251 16.2902C24.1943 16.2902 24.2289 16.2556 24.2981 16.2556C24.1597 16.2209 24.0213 16.1863 23.8829 16.1517C24.0559 16.3594 24.2289 16.4287 24.471 16.4287C24.644 16.4287 24.4018 16.3941 24.5056 16.4287C24.5402 16.4287 24.5748 16.4633 24.644 16.4633C24.644 16.4633 24.7824 16.5326 24.6786 16.4633C24.7132 16.498 24.7824 16.498 24.817 16.5326C24.8516 16.5672 24.9208 16.6019 24.9554 16.6019C24.9899 16.6365 25.0245 16.6365 25.0591 16.6711C25.0245 16.6365 25.0245 16.6365 25.0591 16.6711C25.2321 16.8096 25.4051 16.9828 25.5435 17.1213C25.5781 17.1559 25.6127 17.1906 25.6473 17.2252C25.6818 17.2598 25.8202 17.3983 25.7856 17.3291C25.8894 17.4676 25.9932 17.5369 26.2008 17.5715C26.1316 17.5369 26.097 17.5022 26.0278 17.4676C26.0624 17.5022 26.1316 17.5715 26.1662 17.6408C26.27 17.7793 26.5121 17.7793 26.6505 17.6754C26.7197 17.6061 26.7543 17.433 26.6851 17.2598Z" fill="#181D23"></path><path d="M23.2601 15.5975C22.9141 15.0434 22.5681 14.5586 22.1184 14.0737C21.7033 13.5889 21.2536 13.1387 20.8384 12.6885C19.9735 11.7535 19.0741 10.7838 18.2092 9.84881C16.4449 7.94413 14.6805 6.03944 12.9162 4.16939C12.4319 3.64993 11.6708 4.44643 12.1551 4.93126C13.9194 6.83594 15.7184 8.706 17.4827 10.6107C18.3476 11.5457 19.2125 12.4461 20.0773 13.3811C20.5271 13.8313 20.9422 14.3162 21.3919 14.7664C21.6341 15.0088 21.8762 15.2512 22.1184 15.4936C22.3606 15.7014 22.6373 15.8745 22.8795 16.0477C23.1217 16.1516 23.433 15.8399 23.2601 15.5975Z" fill="#181D23"></path><path d="M71.2087 52.306C70.0325 52.1675 68.8563 52.5484 67.7492 52.8947C66.746 53.241 65.7773 53.6912 64.8432 54.2453C63.0443 55.2843 61.3838 56.6002 60.0692 58.1932C57.5437 61.2407 55.0183 66.5738 58.6162 69.7945C60.5535 71.526 63.3903 71.526 65.5006 70.1062C66.2616 69.5867 65.4314 68.4439 64.7049 69.0673C63.2865 70.2447 61.0032 70.1408 59.6194 68.998C58.9275 68.4093 58.4086 67.6128 58.1664 66.747C57.8897 65.7427 58.0972 64.7038 58.4086 63.7341C59.481 60.2364 62.0757 57.3275 65.1892 55.4574C67.0919 54.3146 69.2022 53.5527 71.3471 52.964C71.6931 52.8601 71.5547 52.3406 71.2087 52.306Z" fill="#181D23"></path><path d="M74.0802 62.2103C76.4327 61.1367 77.9549 58.02 77.1592 55.4919C76.4327 53.1371 73.7689 51.3709 71.3472 52.202C70.517 52.4791 70.8629 53.795 71.6932 53.518C73.4921 52.9293 75.464 54.2452 75.9484 56.0114C76.5711 58.1931 75.1527 60.2363 73.5959 61.6216C73.2846 61.9332 73.6997 62.3834 74.0802 62.2103Z" fill="#181D23"></path><path d="M55.814 59.6822C56.2637 60.0285 56.748 60.3748 57.2323 60.6865C57.3707 60.7558 57.5783 60.7211 57.6475 60.5826C57.7167 60.4441 57.6821 60.2709 57.5437 60.1671C57.094 59.8554 56.6097 59.5783 56.1253 59.3013C56.0216 59.232 55.8832 59.2667 55.814 59.3706C55.7448 59.4398 55.7448 59.613 55.814 59.6822Z" fill="#181D23"></path><path d="M65.4315 51.8558C65.4315 51.9943 65.4315 52.1675 65.4315 52.306C65.4315 52.3752 65.4661 52.4791 65.5353 52.5138C65.6045 52.583 65.6737 52.6176 65.7429 52.6176C65.8121 52.6176 65.9158 52.583 65.9504 52.5138C66.0196 52.4445 66.0542 52.3752 66.0542 52.306C66.0542 52.1675 66.0542 51.9943 66.0542 51.8558C66.0542 51.7865 66.0196 51.7173 65.985 51.648C65.9504 51.6134 65.8466 51.5441 65.7775 51.5788C65.7083 51.5788 65.6391 51.6134 65.5699 51.648C65.4661 51.7173 65.4315 51.7865 65.4315 51.8558Z" fill="#181D23"></path><path d="M45.3317 39.8389C45.9198 41.1548 46.8885 42.3669 47.7534 43.5097C48.6183 44.6525 49.5177 45.7607 50.4518 46.8343C52.3545 49.0506 54.361 51.1285 56.5059 53.1024C57.7513 54.2452 58.9967 55.3188 60.3113 56.3577C60.7265 56.704 61.3492 56.0807 60.934 55.7343C56.4367 52.0981 52.3199 47.9771 48.7566 43.4058C47.7534 42.1245 46.8539 40.7046 45.7123 39.5618C45.5047 39.354 45.2279 39.5964 45.3317 39.8389Z" fill="#181D23"></path><path d="M47.0959 41.7437C48.0992 41.3974 49.1025 41.0164 50.1057 40.6008C50.3133 40.497 50.4517 40.3238 50.3479 40.0814C50.2441 39.839 50.0019 39.8043 49.7944 39.9082C48.8257 40.3238 47.8224 40.7394 46.8538 41.2242C46.5424 41.3281 46.75 41.8476 47.0959 41.7437Z" fill="#181D23"></path><path d="M49.8635 40.4276C51.0052 41.709 52.216 42.8864 53.4268 44.0984C54.603 45.2759 55.7793 46.488 56.9209 47.7C59.2388 50.1588 61.4875 52.6868 63.667 55.2495C64.0129 55.6651 64.6356 55.0764 64.2897 54.6262C62.0756 52.0635 59.8269 49.5701 57.4744 47.1113C56.3328 45.8992 55.1566 44.6872 53.9457 43.5097C52.7349 42.2977 51.5241 41.1202 50.2095 40.0467C49.9673 39.8735 49.6559 40.1852 49.8635 40.4276Z" fill="#181D23"></path><path d="M44.6398 41.1549C45.0203 42.0206 45.2971 42.921 45.5046 43.856C45.5392 44.0638 45.7814 44.2023 45.9889 44.1331C46.1965 44.0638 46.3003 43.856 46.2657 43.6482C46.0581 42.644 45.6776 41.709 45.1933 40.8432C45.1241 40.7047 44.9165 40.6354 44.7435 40.7393C44.6052 40.8086 44.5706 40.9817 44.6398 41.1549Z" fill="#181D23"></path><path d="M45.7124 43.5099C45.2281 43.7869 44.7438 44.0639 44.294 44.341C44.121 44.4449 44.0518 44.6873 44.1556 44.8604C44.2594 45.0335 44.5016 45.1374 44.6746 44.9989C45.1589 44.6526 45.6086 44.3063 46.0584 43.96C46.1622 43.8562 46.1622 43.683 46.093 43.5791C45.9892 43.4752 45.8162 43.4406 45.7124 43.5099Z" fill="#181D23"></path><path d="M50.1752 37.761C50.8671 37.8649 51.5243 38.3151 51.7665 38.9731C52.0087 39.6311 51.8011 40.4276 51.3168 40.9124C50.9708 41.2934 51.5243 41.8475 51.9049 41.5012C52.6314 40.8085 52.8736 39.7004 52.493 38.7653C52.1125 37.8649 51.2476 37.2416 50.2789 37.2069C49.933 37.1723 49.8292 37.6917 50.1752 37.761Z" fill="#181D23"></path><path d="M45.2973 41.051C45.3319 41.0164 45.3319 40.9818 45.3665 40.9472L45.3319 40.9818C45.3319 41.0164 45.2973 41.0164 45.2973 41.051C45.3665 40.9818 45.4011 40.9471 45.4356 40.8779C45.4702 40.8433 45.4702 40.8086 45.5048 40.774C45.5048 40.8086 45.4702 40.8086 45.4702 40.8433L45.5048 40.8086C45.5394 40.774 45.5394 40.7394 45.574 40.7047C45.574 40.6701 45.6086 40.6355 45.6086 40.6355C45.6432 40.5662 45.6432 40.497 45.6432 40.4277C45.6432 40.3931 45.6086 40.3238 45.574 40.2892C45.5394 40.2546 45.5048 40.2546 45.4702 40.2199C45.401 40.1853 45.3319 40.1853 45.2627 40.2199C45.2281 40.2199 45.1935 40.2546 45.1589 40.2892C45.1243 40.3238 45.0897 40.3584 45.0897 40.4277C45.0897 40.4623 45.0551 40.497 45.0551 40.5316C45.0551 40.5662 45.0205 40.6008 45.0205 40.6355C45.0205 40.6701 44.9859 40.7048 44.9859 40.7394V40.774C44.9859 40.8086 44.9859 40.8433 44.9859 40.8433C44.9859 40.8779 44.9859 40.8779 44.9859 40.9125C44.9859 40.8779 44.9859 40.8433 44.9859 40.8086C44.9859 40.8433 44.9513 40.8779 44.9513 40.9125C44.9513 40.9472 44.9513 41.0164 44.9859 41.051C45.0205 41.0857 45.0551 41.1203 45.0897 41.1203C45.1243 41.1203 45.1589 41.1549 45.2281 41.1203C45.2281 41.1549 45.2627 41.1203 45.2973 41.051Z" fill="#181D23"></path><path d="M45.9199 43.683C47.6151 45.5877 49.4486 47.3885 51.2475 49.2239C53.0464 51.0593 54.8454 52.8601 56.6443 54.6955C56.9557 55.0072 57.4054 54.5223 57.0941 54.2453C55.2951 52.4099 53.4962 50.6091 51.6972 48.7737C49.8983 46.9729 48.134 45.1029 46.2312 43.3713C46.0237 43.1635 45.7123 43.4752 45.9199 43.683Z" fill="#181D23"></path><path d="M56.4021 59.9247C56.6443 60.2363 56.8518 60.548 57.094 60.8597C57.0594 60.8251 57.0594 60.8251 57.0248 60.7904C57.094 60.8943 57.1632 60.9982 57.2324 61.1367C57.3708 61.3445 57.6129 61.4138 57.8205 61.2406C57.9935 61.1021 58.0281 60.8251 57.8551 60.6519C57.7513 60.5827 57.6821 60.4788 57.5783 60.4095C57.5091 60.3056 57.4054 60.2363 57.3362 60.1325C57.1632 59.9593 56.9902 59.7861 56.8173 59.5784C56.7135 59.4745 56.5405 59.4745 56.4021 59.5437C56.3675 59.613 56.2983 59.7861 56.4021 59.9247Z" fill="#181D23"></path><path d="M65.4313 58.955C67.0227 61.483 68.96 63.8033 70.7936 66.1235C72.5925 68.4092 74.4952 70.6255 76.5709 72.6341C77.0553 73.1189 77.8164 72.357 77.332 71.8722C75.2563 69.8983 73.3536 67.7165 71.5547 65.4656C69.6865 63.1799 67.9222 60.7212 65.8465 58.6087C65.6389 58.4356 65.293 58.7126 65.4313 58.955Z" fill="#181D23"></path><path d="M65.8464 57.8122C64.8086 58.1239 63.9091 58.9204 63.1826 59.7169C62.3869 60.5481 61.7296 61.5177 61.2107 62.522C60.6917 63.5955 60.2766 64.8769 60.7955 66.0197C61.2453 66.9547 62.2485 67.6127 63.2864 67.3356C63.8745 67.1971 63.6324 66.2621 63.0442 66.4352C62.1448 66.6777 61.4874 65.708 61.4528 64.9115C61.4182 63.9419 61.9026 62.9722 62.3869 62.1411C62.8367 61.3792 63.3902 60.6519 64.0129 60.0286C64.6356 59.3706 65.3967 58.8858 66.0194 58.2278C66.227 58.02 66.054 57.743 65.8464 57.8122Z" fill="#181D23"></path><path d="M65.2585 58.8165C66.1925 58.4702 67.1266 58.1586 68.0607 57.8815C68.9256 57.6045 69.8596 57.3274 70.7937 57.4659C71.451 57.5698 71.9699 57.9161 72.2467 58.5395C72.4542 59.0243 72.4196 59.5784 72.0045 59.9593C71.5548 60.3056 72.2121 60.9982 72.6618 60.6173C73.9418 59.5091 73.0423 57.4313 71.6585 56.8772C70.6207 56.4617 69.4445 56.6694 68.4412 57.0504C67.2996 57.4659 66.2271 57.9854 65.1201 58.5049C64.8779 58.5395 65.0509 58.8858 65.2585 58.8165Z" fill="#181D23"></path><path d="M63.0789 61.4485C64.4627 63.1107 66.0194 64.6691 67.4724 66.2968C68.9254 67.9244 70.3438 69.5867 71.7276 71.2836C72.039 71.6645 72.5925 71.1104 72.2811 70.7295C70.8973 69.0326 69.4789 67.3703 67.9914 65.7773C66.5038 64.1843 65.0162 62.5566 63.3556 61.1714C63.1481 60.9636 62.9059 61.2407 63.0789 61.4485Z" fill="#181D23"></path><path d="M61.1069 63.7688C61.5567 64.5307 62.214 65.1886 62.7675 65.8812C63.321 66.5392 63.8745 67.1972 64.4627 67.8552C65.5351 69.1365 66.6421 70.3832 67.7492 71.6299C68.8562 72.8766 69.9287 74.0887 71.0703 75.2661C71.6238 75.8548 72.2119 76.4435 72.7655 76.9976C73.3882 77.5863 74.0801 78.1404 74.6336 78.7984C75.1179 79.3525 75.9482 78.4521 75.2909 77.9673C74.6336 77.5171 74.0801 76.8591 73.4919 76.305C72.9038 75.7509 72.3503 75.1622 71.7968 74.5735C70.6552 73.3961 69.5481 72.184 68.4411 70.9373C67.3686 69.7252 66.2962 68.4785 65.1891 67.2665C64.601 66.6085 64.0475 65.9851 63.4594 65.3272C62.8713 64.6692 62.2832 63.9419 61.6259 63.3878C61.3145 63.18 60.8994 63.4225 61.1069 63.7688Z" fill="#181D23"></path><path d="M68.5103 57.5352C70.2054 59.8209 72.2465 61.8987 74.2876 63.8726C75.3255 64.8769 76.3633 65.8812 77.4357 66.8509C78.5082 67.8205 79.6498 68.7209 80.6877 69.6906C81.2412 70.2101 82.0023 69.3097 81.3449 68.8248C80.1687 67.9937 79.1309 66.9548 78.0584 65.9851C77.0206 65.0501 76.0173 64.115 75.0141 63.1454C72.973 61.1714 71.0703 59.059 68.9946 57.1543C68.7178 56.9465 68.2681 57.2236 68.5103 57.5352Z" fill="#181D23"></path><path d="M86.9495 71.9069C86.4306 70.5909 85.1506 69.7944 83.8014 69.6213C82.2447 69.4135 80.7225 69.9329 79.4771 70.8333C76.9862 72.5995 74.7721 75.7509 74.8413 78.9369C74.8759 80.426 75.464 81.8805 76.5711 82.8848C77.6435 83.8198 78.9927 84.3393 80.4111 84.4432C83.4901 84.651 86.1193 82.5731 87.5376 80.0105C89.1982 76.9976 89.475 72.9458 87.1571 70.21C86.569 69.552 85.6004 70.5217 86.1885 71.1796C87.8836 73.1536 87.7798 76.0972 86.8804 78.3828C85.9809 80.6338 84.0436 82.8156 81.5181 83.1619C79.2695 83.4735 76.8132 82.2961 76.2251 79.9758C75.5678 77.3439 77.3322 74.5388 79.1311 72.7727C80.169 71.7684 81.4836 70.868 82.9365 70.7987C84.2858 70.7295 85.6349 71.2143 86.4998 72.2532C86.6728 72.3917 87.0533 72.184 86.9495 71.9069Z" fill="#181D23"></path><path d="M26.3391 21.5193V21.5539C26.3391 21.5193 26.3737 21.4847 26.3737 21.45C26.3391 21.5193 26.3045 21.5886 26.2699 21.6578C26.2699 21.6924 26.2699 21.6924 26.2699 21.6578C26.2353 21.7271 26.2007 21.7964 26.2007 21.8656C26.2007 21.9695 26.2007 22.0734 26.2353 22.1773C26.2699 22.4197 26.2699 22.6621 26.3045 22.9045C26.3391 23.3894 26.3045 23.8396 26.2699 24.3244C26.2699 24.6014 26.5466 24.8785 26.8234 24.8785C27.1348 24.8785 27.3423 24.6361 27.3769 24.3244C27.4115 23.8049 27.3769 23.3201 27.3077 22.8006C27.2731 22.5582 27.2385 22.3158 27.1694 22.0388C27.1348 21.9002 27.1002 21.7617 27.031 21.6232C26.9964 21.5886 26.9618 21.5193 26.9272 21.4847C26.858 21.45 26.858 21.45 26.9272 21.4847C26.8926 21.4154 26.858 21.3808 26.7888 21.3462C26.7542 21.3462 26.7196 21.3115 26.685 21.2769C26.7196 21.3115 26.7542 21.3462 26.7542 21.3462C26.7542 21.3462 26.7542 21.3115 26.7196 21.3115C26.6504 21.2076 26.3045 21.3115 26.3391 21.5193Z" fill="white"></path><path d="M28.0341 22.6967C27.9995 23.3547 28.0687 24.0127 28.1032 24.6707C28.1378 25.3286 28.1724 25.9866 28.2416 26.6446C28.2762 26.9216 28.4492 27.164 28.7605 27.164C29.0373 27.164 29.314 26.9216 29.2794 26.6446C29.2103 25.9866 29.1411 25.294 29.0719 24.636C29.0027 23.9434 28.9335 23.2508 28.7605 22.5928C28.6567 22.1426 28.0341 22.2812 28.0341 22.6967Z" fill="white"></path><path d="M29.9714 24.9131C29.7293 26.1251 29.7639 27.4411 30.006 28.6532C30.0752 28.9302 30.4212 29.1033 30.6633 29.0341C30.9747 28.9302 31.1131 28.6532 31.0439 28.3761C30.8363 27.2679 30.7671 26.1944 30.8017 25.0516C30.8017 24.5667 30.0752 24.4282 29.9714 24.9131Z" fill="white"></path><path d="M31.6665 27.3372C31.6319 27.9259 31.6319 28.5146 31.6665 29.1033C31.7011 29.7267 31.7357 30.3154 31.8049 30.9388C31.8395 31.1812 32.1508 31.3197 32.3584 31.3197C32.6006 31.2851 32.8082 31.0773 32.8082 30.8349C32.8082 30.2462 32.7736 29.6574 32.7044 29.0687C32.6352 28.4454 32.566 27.8566 32.4622 27.2333C32.4276 27.0255 32.1854 26.9216 32.0125 26.9216C31.8395 26.9562 31.7011 27.1294 31.6665 27.3372Z" fill="white"></path><path d="M33.6037 29.4498C33.9497 30.4541 34.1919 31.3891 34.1573 32.428C34.1573 32.6704 34.3994 32.9475 34.6416 32.9128C34.9183 32.9128 35.1259 32.7051 35.1259 32.428C35.1259 31.3198 34.8837 30.1078 34.2264 29.1727C34.1227 29.0342 33.9497 28.965 33.7767 29.0342C33.6383 29.1035 33.5346 29.2766 33.6037 29.4498Z" fill="white"></path><path d="M35.8181 32.5318C35.8181 32.5665 35.8181 32.6011 35.8181 32.5318C35.8181 32.5665 35.8181 32.6357 35.8181 32.7396C35.8181 32.7743 35.8527 32.8435 35.8527 32.8781C35.8873 32.982 35.9218 33.0859 35.9564 33.1898C36.0256 33.4322 36.0948 33.64 36.1294 33.8824C36.1294 33.9171 36.1294 33.9171 36.1294 33.8824C36.1294 33.9171 36.1294 33.9517 36.1294 33.9863C36.1294 34.0556 36.1294 34.0902 36.1294 34.1595C36.1294 34.2634 36.1294 34.4019 36.1294 34.5058C36.1294 34.6097 36.1294 34.7482 36.1294 34.8521C36.1294 34.9214 36.1294 34.956 36.1294 35.0253C36.1294 35.0945 36.1294 35.0945 36.1294 35.0253C36.1294 35.0599 36.1294 35.0945 36.1294 35.1291C36.0948 35.3716 36.1986 35.6832 36.4754 35.7179C36.7175 35.7871 37.0289 35.6486 37.0635 35.3716C37.1673 34.8175 37.1327 34.2634 37.0635 33.6747C37.0289 33.4322 36.9597 33.1898 36.8905 32.9474C36.8559 32.8089 36.7867 32.6704 36.7176 32.5318C36.683 32.4626 36.6484 32.3933 36.5792 32.324C36.4754 32.2548 36.4754 32.2548 36.51 32.2548C36.4754 32.2202 36.4754 32.2202 36.4408 32.1855C36.337 32.0816 36.1294 32.047 36.0256 32.1163C35.8181 32.1855 35.7835 32.3587 35.8181 32.5318Z" fill="white"></path><path d="M38.2051 34.5405C38.2051 35.0599 38.3781 35.614 38.5164 36.1335C38.6202 36.6529 38.7586 37.1724 38.8624 37.6572C38.9316 37.9343 39.2429 38.1074 39.4851 38.0035C39.7618 37.8996 39.9002 37.6572 39.831 37.3802C39.6927 36.8607 39.5543 36.3759 39.4159 35.8564C39.2775 35.337 39.1737 34.7829 38.9316 34.2981C38.7932 33.9518 38.2051 34.1249 38.2051 34.5405Z" fill="white"></path><path d="M40.2462 36.8954C40.2808 36.9646 40.2808 37.0685 40.3154 37.1378C40.35 37.2071 40.35 37.2417 40.3846 37.2763C40.4537 37.4148 40.4883 37.5187 40.5229 37.6226C40.6267 37.865 40.6959 38.1074 40.7651 38.3498C40.7997 38.4884 40.8343 38.5922 40.8689 38.7308C40.8689 38.8 40.9035 38.8347 40.9035 38.9039C40.9035 38.9385 40.9035 38.9732 40.9035 39.0078C40.9035 38.9732 40.9035 38.9732 40.9035 39.0424C40.9035 39.1117 40.9035 39.181 40.9381 39.2502C40.9381 39.2848 40.9381 39.3541 40.9727 39.3887C40.9727 39.458 40.9727 39.458 40.9727 39.4234C41.0073 39.5619 41.0073 39.7004 41.0073 39.8389C41.0073 40.0813 41.2148 40.3238 41.4916 40.3238C41.7683 40.3238 41.9413 40.116 41.9759 39.8389C42.0105 39.2502 41.9413 38.6615 41.7684 38.1074C41.6992 37.8304 41.5608 37.5534 41.4224 37.2763C41.3532 37.1378 41.284 37.0339 41.2148 36.8954C41.1802 36.8261 41.1456 36.7915 41.111 36.7222C41.0419 36.653 40.9727 36.5837 40.9381 36.5491C40.5921 36.272 40.1424 36.5144 40.2462 36.8954Z" fill="white"></path><path d="M42.7024 38.9038C42.737 39.2502 42.8062 39.5965 42.8754 39.9428C42.9446 40.2891 43.0484 40.6354 43.1522 40.9817C43.3251 41.6397 43.4981 42.3323 43.7057 42.9903C43.8787 43.6137 44.8819 43.3712 44.709 42.7133C44.536 42.0553 44.3284 41.3627 44.1208 40.7047C44.017 40.393 43.9132 40.0467 43.8095 39.735C43.7057 39.3887 43.6019 39.0424 43.4289 38.7307C43.2559 38.3844 42.7024 38.5229 42.7024 38.9038Z" fill="white"></path><path d="M45.5392 41.8822C45.5046 42.1938 45.7121 42.5055 45.8159 42.7479C45.9197 43.025 46.0235 43.2674 46.0927 43.5444C46.1273 43.6829 46.1619 43.7868 46.1619 43.9253C46.1619 43.96 46.1619 43.9946 46.1965 44.0293C46.1965 43.9946 46.1965 43.9946 46.1965 44.0639C46.1965 44.1331 46.1965 44.2024 46.2311 44.2716C46.2657 44.5487 46.2657 44.8257 46.2657 45.1028C46.2657 45.3452 46.4732 45.5876 46.7154 45.6222C46.9576 45.6569 47.2343 45.5184 47.2689 45.2413C47.3035 44.895 47.3381 44.5833 47.3035 44.237C47.2689 43.8907 47.1997 43.579 47.0959 43.2327C46.9922 42.9211 46.8884 42.6094 46.75 42.3324C46.6808 42.1938 46.6116 42.0553 46.5078 41.9168C46.3694 41.709 46.2311 41.5705 46.0235 41.4666C45.7467 41.432 45.5392 41.6397 45.5392 41.8822Z" fill="white"></path><path d="M47.9262 44.3409C48.376 45.5876 48.6527 46.8343 48.7911 48.1503C48.8257 48.4273 49.0333 48.7044 49.3446 48.7044C49.6214 48.7044 49.8981 48.462 49.8981 48.1503C49.8635 46.6958 49.483 45.2413 48.8603 43.96C48.5835 43.4751 47.7187 43.8214 47.9262 44.3409Z" fill="white"></path><path d="M50.3825 46.8343C50.4863 47.4923 50.7284 48.1157 50.9014 48.739C51.109 49.3624 51.3166 49.9858 51.5587 50.6091C51.6625 50.8862 51.9047 51.0593 52.216 50.99C52.4928 50.9208 52.6658 50.6091 52.5966 50.332C52.4236 49.6741 52.1814 49.0507 51.9393 48.4273C51.6971 47.804 51.4895 47.146 51.1436 46.5226C51.0398 46.3495 50.7976 46.2802 50.6246 46.3495C50.4171 46.4534 50.3479 46.6265 50.3825 46.8343Z" fill="white"></path><path d="M53.3231 49.397C53.4961 50.1242 53.7037 50.8515 53.8767 51.6133C54.0496 52.3406 54.1534 53.1025 54.2918 53.8643C54.3956 54.453 55.3988 54.3145 55.3643 53.7258C55.2951 52.9293 55.1567 52.1328 54.9491 51.3363C54.7415 50.5744 54.4994 49.8125 54.188 49.0853C53.9113 48.6005 53.1848 48.9468 53.3231 49.397Z" fill="white"></path><path d="M55.8485 52.0635C56.0215 53.2756 56.2982 54.4877 56.575 55.6997C56.6442 56.0114 56.9901 56.2192 57.3015 56.1153C57.6128 56.0114 57.7858 55.6998 57.7166 55.3881C57.4399 54.2453 57.1631 53.0678 56.748 51.925C56.6788 51.7172 56.4712 51.544 56.229 51.5787C56.0561 51.6479 55.8139 51.8211 55.8485 52.0635Z" fill="white"></path><path d="M58.3046 54.8686C58.27 55.2495 58.2354 55.6305 58.2354 56.0114C58.2354 56.1499 58.3046 56.2884 58.4084 56.3923C58.5122 56.4962 58.6506 56.5655 58.7889 56.5655C58.9273 56.5655 59.0657 56.4962 59.1695 56.3923C59.2733 56.2884 59.3425 56.1499 59.3425 56.0114C59.3425 55.6305 59.3079 55.2495 59.2733 54.8686C59.2733 54.7301 59.2387 54.6262 59.1349 54.5223C59.0657 54.453 58.9273 54.3837 58.7889 54.3837C58.6506 54.3837 58.5468 54.4184 58.443 54.5223C58.4084 54.5569 58.4084 54.5915 58.3738 54.6262C58.3046 54.6954 58.3046 54.7647 58.3046 54.8686Z" fill="white"></path></svg> 