<?xml version="1.0" encoding="UTF-8"?> <svg xmlns="http://www.w3.org/2000/svg" width="101" height="122" viewBox="0 0 101 122" fill="none"><path opacity="0.3" d="M17.698 32.6157C14.8345 31.4952 18.0714 27.6358 23.3002 21.7843C25.1677 18.6718 30.3968 16.4308 32.1398 16.8043C33.5342 17.1031 33.2188 18.8378 32.8868 19.6678L77.3332 65.2347C79.7194 67.4964 83.4835 73.0284 79.4497 77.0622C75.4159 81.096 70.4649 79.7389 68.4937 78.5562C54.9647 64.9442 27.2096 37.1227 24.4208 34.7323C21.632 32.3419 20.7688 32.3252 20.6858 32.6157C20.6443 32.9892 19.9887 33.5122 17.698 32.6157Z" fill="white"></path><path opacity="0.3" fill-rule="evenodd" clip-rule="evenodd" d="M77.3332 65.2347L32.8868 19.6678C31.9661 20.7785 29.6499 23.65 27.7499 26.25C25.9222 28.751 22.5205 31.3697 20.873 32.4899C20.7625 32.5007 20.7044 32.5505 20.6858 32.6157C20.7453 32.5762 20.8078 32.5342 20.873 32.4899C21.254 32.4526 22.2587 32.8791 24.4208 34.7323C27.2096 37.1227 54.9647 64.9442 68.4937 78.5562C70.4649 79.7389 75.4159 81.096 79.4497 77.0622C83.4835 73.0284 79.7194 67.4964 77.3332 65.2347Z" fill="white"></path><path fill-rule="evenodd" clip-rule="evenodd" d="M77.3332 65.2347L53.9668 41.2792C52.6861 41.9778 49.4749 43.8 46.8749 45.5C44.2749 47.2 42.9144 50.9185 42.5591 52.5653C51.5073 61.4912 61.7617 71.7829 68.4937 78.5562C70.4649 79.7389 75.4159 81.096 79.4497 77.0622C83.4835 73.0284 79.7194 67.4964 77.3332 65.2347Z" fill="#FE6869"></path><path opacity="0.2" d="M46.6247 46.2499C48.9247 43.0498 52.583 42.4165 54.1247 42.4999C54.1247 43.7499 53.5248 46.7749 51.1249 48.875C48.125 51.5001 44.25 54.75 43.375 53.25C42.5 51.75 43.7498 50.2499 46.6247 46.2499Z" fill="white"></path><path d="M17.4123 32.7998C17.487 32.8745 17.5368 32.9244 17.6115 32.9991C17.5866 32.9742 17.8357 33.1734 17.7609 33.0987C17.6364 33.024 17.985 33.2233 17.9601 33.1984C17.8356 33.1237 17.985 33.2233 18.0597 33.2482C18.2838 33.323 18.5328 33.3729 18.7817 33.3731C19.4538 33.3983 20.0761 33.1746 20.6983 32.9011C22.3409 32.2049 23.7841 31.0108 25.1526 29.8913C26.7451 28.5478 28.2379 27.055 29.6062 25.4376C30.8004 24.0442 31.9447 22.5014 32.7654 20.834C33.2876 19.7638 33.8344 18.2705 33.1369 17.1749C32.4144 16.0543 30.9706 16.1033 29.8755 16.5011C28.2079 17.0728 26.7647 18.1175 25.421 19.2122C23.8036 20.5307 22.3107 21.9737 20.9424 23.5413C19.6985 24.9845 18.4795 26.5521 17.5842 28.2444C17.0122 29.3643 16.3409 30.8825 16.8145 32.1523C16.9142 32.4511 17.0886 32.725 17.3128 32.9491C17.9603 33.5967 18.9556 32.6015 18.308 31.9539C18.2831 31.929 18.1337 31.7796 18.2582 31.9041C18.3578 32.0037 18.2333 31.8792 18.2084 31.8543C18.1835 31.8294 18.1585 31.7547 18.1336 31.7298C18.1586 31.904 18.1087 31.6551 18.1336 31.7298C18.1087 31.6551 18.0587 31.3066 18.0838 31.5306C18.0588 31.4061 18.0836 31.2817 18.0587 31.1572C18.0586 31.1074 18.0835 31.0327 18.0835 30.9829C18.0834 30.8834 18.0586 31.1074 18.0834 30.9332C18.1083 30.8087 18.1331 30.6345 18.1828 30.4851C18.2325 30.3358 18.2822 30.1865 18.307 30.062C18.3319 29.9874 18.3567 29.9127 18.3816 29.838C18.3816 29.7882 18.4313 29.7385 18.4313 29.6887C18.3816 29.7882 18.4064 29.7136 18.4562 29.6638C19.1275 28.1457 20.1225 26.7023 21.0927 25.4831C22.3117 23.9652 23.6801 22.547 25.1482 21.2284C26.442 20.084 27.7111 19.064 29.2291 18.2433C29.3785 18.1438 29.5278 18.0941 29.702 18.0195C29.7767 17.9946 29.8762 17.9449 29.9509 17.92C29.9758 17.8952 30.0256 17.8952 30.0505 17.8703C30.0007 17.8703 29.9758 17.8951 30.0505 17.8703C30.3242 17.746 30.598 17.6714 30.8967 17.6218C30.9465 17.6218 31.0211 17.597 31.0709 17.597C31.1705 17.597 30.9465 17.6218 31.1207 17.597C31.2452 17.5722 31.3696 17.5971 31.4692 17.5972C31.6435 17.6222 31.3448 17.5722 31.519 17.5972C31.5688 17.5972 31.5937 17.6222 31.6435 17.6222C31.8427 17.7219 31.6933 17.6222 31.6435 17.6222C31.6684 17.6471 31.7431 17.672 31.768 17.6969C31.9423 17.8713 31.8427 17.7218 31.768 17.6969C31.7929 17.7218 31.8427 17.7716 31.8676 17.7965C31.8925 17.8214 31.9424 17.8713 31.9673 17.8962C31.8178 17.7467 31.9423 17.8713 31.9922 17.9211C32.0171 17.946 32.0171 17.9958 32.0669 18.0456C32.042 17.9709 31.9672 17.8464 32.0669 18.0456C32.0669 18.0954 32.0918 18.1203 32.0919 18.1701C32.1417 18.3194 32.0918 18.0705 32.0919 18.2198C32.0919 18.3194 32.1169 18.4439 32.0921 18.5684C32.0921 18.5684 32.0673 18.7924 32.0921 18.6679C32.0921 18.5683 32.0673 18.7924 32.0673 18.8422C32.0177 19.1409 31.8933 19.4146 31.8188 19.6884C31.7939 19.7133 31.7939 19.7631 31.7691 19.788C31.8437 19.6635 31.7939 19.7631 31.7691 19.788C31.7442 19.8626 31.7194 19.9373 31.6696 19.9871C31.595 20.1613 31.5204 20.3355 31.4209 20.4848C31.222 20.8332 31.0479 21.1567 30.8489 21.5051C30.4012 22.2517 29.9037 22.8987 29.3563 23.5456C28.1373 25.0635 26.7938 26.5066 25.3756 27.8252C24.032 29.0692 22.763 30.139 21.2201 31.0841C20.9215 31.2831 20.5979 31.4572 20.2744 31.6313C20.15 31.7059 20.0006 31.7556 19.8762 31.8302C19.8015 31.8551 19.7269 31.88 19.6771 31.9297C19.6522 31.9546 19.6025 31.9546 19.5776 31.9795C19.6771 31.9297 19.5029 32.0043 19.5776 31.9795C19.3287 32.0789 19.1047 32.1535 18.8309 32.228C18.7811 32.228 18.6069 32.2528 18.7562 32.2529C18.7065 32.2528 18.6567 32.2528 18.6069 32.2528C18.5571 32.2528 18.5073 32.2527 18.4575 32.2527C18.3082 32.2526 18.4077 32.2527 18.4077 32.2527C18.3579 32.2527 18.333 32.2278 18.2833 32.2277C17.9596 32.1529 18.3331 32.2775 18.1588 32.2028C18.0841 32.1778 18.2335 32.2277 18.1339 32.1779C18.109 32.1529 18.0343 32.128 18.0094 32.1031C17.5113 31.8041 17.1632 32.4512 17.4123 32.7998Z" fill="#181D23"></path><path d="M42.9638 53.9724C43.0385 54.0471 43.0883 54.1467 43.1631 54.2214C43.2129 54.2713 43.2627 54.3211 43.3125 54.3211C43.163 54.2215 43.3623 54.3709 43.437 54.3959C43.5366 54.4457 43.6362 54.4955 43.7357 54.4956C43.8104 54.5205 43.8851 54.5454 43.9598 54.5206C43.7855 54.4956 44.0345 54.5455 44.1092 54.5207C44.5821 54.5458 45.0799 54.4465 45.503 54.2724C46.7972 53.7752 47.917 52.9045 48.9621 52.0587C50.1565 51.0636 51.301 49.9689 52.2961 48.7745C53.2166 47.7046 54.0873 46.535 54.709 45.2658C55.1317 44.3947 55.5294 43.2498 54.9813 42.3534C54.4083 41.432 53.2632 41.3817 52.3174 41.6799C51.048 42.0527 49.9282 42.8735 48.8831 43.6696C47.6389 44.6149 46.5193 45.6848 45.4744 46.8791C44.529 47.9739 43.5836 49.1683 42.9371 50.4624C42.4895 51.3584 42.042 52.5032 42.391 53.4991C42.4907 53.7481 42.6402 53.9971 42.8394 54.1964C43.487 54.8439 44.4822 53.8487 43.8346 53.2012C43.8097 53.1763 43.7848 53.1514 43.7599 53.1264C43.8347 53.2012 43.8347 53.251 43.7848 53.1514C43.7599 53.1265 43.7599 53.0767 43.735 53.0518C43.7599 53.1264 43.6603 52.9272 43.735 53.0518C43.7101 52.9771 43.6851 52.9024 43.6851 52.8028C43.735 53.002 43.6851 52.753 43.685 52.6534C43.685 52.6037 43.685 52.5539 43.6849 52.5041C43.685 52.5539 43.6849 52.3547 43.6849 52.5041C43.7098 52.3796 43.7097 52.2801 43.7595 52.1805C43.7843 52.0561 43.8091 51.9814 43.8589 51.8818C43.8837 51.8072 43.9831 51.5085 43.9334 51.6578C44.4058 50.5379 45.1521 49.4927 45.8487 48.5969C46.7691 47.4772 47.7643 46.4322 48.8592 45.4868C49.8047 44.6409 50.7253 43.9195 51.895 43.3475C51.9946 43.2978 52.119 43.2232 52.2186 43.1735C52.2434 43.1486 52.4177 43.074 52.343 43.0988C52.2683 43.1237 52.4425 43.0491 52.4923 43.0491C52.7163 42.9745 52.9155 42.9249 53.1146 42.8752C53.3137 42.8255 53.0648 42.8752 53.239 42.8504C53.3386 42.8504 53.4382 42.8505 53.5377 42.8505C53.4382 42.8505 53.5129 42.8754 53.6124 42.8754C53.6373 42.9004 53.7618 42.9253 53.6622 42.8755C53.5626 42.8256 53.6871 42.9004 53.712 42.9253C53.8117 43.0249 53.5875 42.8505 53.7618 42.9751C53.7868 43 53.8864 43.0996 53.7867 43C53.712 42.8755 53.7868 43.0498 53.8117 43.0249C53.8366 43.0498 53.8366 43.0996 53.8615 43.1245C53.8117 43.0249 53.8366 43 53.8366 43.0996C53.8366 43.1494 53.8615 43.1743 53.8616 43.2241C53.8615 43.0747 53.8865 43.2988 53.8616 43.2241C53.8616 43.3237 53.8617 43.4232 53.8617 43.473C53.8617 43.5726 53.8617 43.5726 53.8617 43.473C53.8617 43.5228 53.8617 43.5726 53.8369 43.6473C53.7872 43.8464 53.7375 44.0455 53.6629 44.2695C53.663 44.3193 53.6132 44.4188 53.663 44.3193C53.6381 44.394 53.5884 44.4437 53.5884 44.4935C53.5138 44.6179 53.4889 44.7424 53.4143 44.8668C53.2651 45.1157 53.1407 45.3397 52.9915 45.5885C52.6433 46.136 52.295 46.5839 51.9218 47.0567C51.0014 48.1764 50.0062 49.2214 48.9611 50.1668C47.9658 51.0625 47.0701 51.8088 45.9253 52.5052C45.6765 52.6545 45.4525 52.7788 45.2285 52.9032C45.129 52.9529 45.0294 53.0026 44.9299 53.0524C44.8801 53.0523 44.8303 53.1021 44.7805 53.1021C44.681 53.1518 44.8552 53.0772 44.7059 53.1269C44.6561 53.1269 44.6063 53.1767 44.5565 53.1766C44.5068 53.1766 44.2579 53.2761 44.4072 53.2264C44.3325 53.2512 44.2081 53.276 44.1334 53.3009C44.0836 53.3009 44.0588 53.3258 44.009 53.3257C44.1085 53.3258 43.9592 53.3257 44.009 53.3257C43.9094 53.3257 43.8596 53.3257 43.76 53.3256C43.9343 53.3506 43.5111 53.2259 43.6356 53.3006C43.6605 53.3256 43.5609 53.2757 43.6356 53.3006C43.6107 53.2757 43.5609 53.2757 43.5359 53.2508C43.2123 53.1262 42.6898 53.5989 42.9638 53.9724Z" fill="#181D23"></path><path d="M20.1756 33.0252C21.3458 33.449 22.4663 33.9724 23.4873 34.6948C24.4585 35.3674 25.3053 36.2142 26.1521 37.061C28.3438 39.203 30.5107 41.3698 32.7024 43.5616C37.1108 47.97 41.5441 52.4033 45.9276 56.8365C50.2613 61.22 54.595 65.6035 58.9038 69.962C61.0458 72.104 63.1628 74.2708 65.3297 76.4376C66.301 77.409 67.1977 78.5047 68.3183 79.277C69.165 79.8749 70.2107 80.2737 71.2314 80.4485C73.3226 80.7981 75.5629 80.4507 77.4792 79.4809C79.0968 78.6602 80.2661 77.3415 80.9623 75.6491C81.7081 73.8571 81.9311 71.8409 81.4572 69.9239C81.2077 68.8782 80.7343 67.9569 80.0866 67.1102C79.414 66.2386 78.5424 65.4664 77.7703 64.6943C74.2585 61.1826 70.7716 57.6459 67.2598 54.0844C63.4741 50.2488 59.6883 46.4133 55.9025 42.5778C52.2164 38.8419 48.5302 35.106 44.8441 31.3701C43.1256 29.6515 41.4319 27.9081 39.7632 26.1896C38.8915 25.3179 37.9948 24.4213 37.0982 23.5745C36.5005 23.0265 35.9277 22.4537 35.3797 21.8061C35.1057 21.4824 34.7569 20.835 34.6322 20.4117C34.333 19.5154 32.9392 19.8632 33.2135 20.7844C33.6623 22.2285 34.6835 23.2994 35.7544 24.3206C37.448 25.9146 39.1167 27.5833 40.7356 29.252C44.2723 32.8385 47.809 36.4249 51.3706 40.0363C55.1315 43.8469 58.8674 47.6327 62.6532 51.4184C66.2646 55.0298 69.8262 58.6412 73.4376 62.2526C75.0814 63.8964 76.7252 65.5402 78.369 67.184C79.7887 68.6036 80.4866 70.3465 80.4129 72.3629C80.3639 73.956 79.7923 75.7232 78.7723 76.9424C77.5782 78.3358 75.6617 79.0567 73.8695 79.255C71.8035 79.4779 69.7869 79.0039 68.3174 77.5344C66.2004 75.4174 64.0834 73.3004 61.9912 71.1585C57.7322 66.8497 53.4732 62.541 49.2143 58.2323C44.9055 53.8737 40.5718 49.54 36.2381 45.2064C34.0464 43.0146 31.8795 40.8478 29.6629 38.6809C27.8199 36.8876 26.0265 34.8953 23.8103 33.525C22.7645 32.8772 21.6689 32.4783 20.4739 32.2288C19.8515 32.0542 19.6528 32.8507 20.1756 33.0252Z" fill="#181D23"></path><path d="M27.5882 22.2254C27.9866 22.3749 28.4098 22.4498 28.8082 22.5496C29.2065 22.6494 29.6297 22.7243 30.053 22.849C30.3019 22.8989 30.6006 22.7497 30.6502 22.5008C30.6999 22.2518 30.5753 21.9282 30.3014 21.9031C29.8782 21.8282 29.455 21.7533 29.0318 21.6784C28.6085 21.6035 28.1604 21.5038 27.6874 21.4786C27.4883 21.4785 27.3141 21.6527 27.2893 21.8269C27.2894 21.9763 27.4139 22.1506 27.5882 22.2254Z" fill="#181D23"></path><path d="M29.5309 24.0684C30.1284 24.1185 30.6263 24.1686 31.2238 24.3182C31.4976 24.393 31.7715 24.4679 32.0703 24.5676C32.3193 24.6673 32.5434 24.7421 32.8173 24.9165C33.0414 25.0411 33.3649 24.9666 33.5142 24.7177C33.6385 24.4937 33.5886 24.1452 33.3147 24.0206C32.1693 23.4723 30.8498 23.0983 29.5803 23.2221C29.3562 23.2469 29.1572 23.3961 29.1573 23.6451C29.1325 23.8691 29.3069 24.0434 29.5309 24.0684Z" fill="#181D23"></path><path d="M33.2166 27.0576C33.2415 27.0327 33.1668 27.0575 33.2166 27.0576C33.2913 27.0825 33.3162 27.0576 33.3411 27.0825C33.4407 27.0826 33.5403 27.1324 33.6399 27.1325C33.6399 27.1325 33.7394 27.1325 33.6897 27.1325C33.6399 27.1325 33.7394 27.1325 33.7394 27.1325C33.8141 27.1574 33.8888 27.1326 33.9635 27.1575C34.2622 27.2075 34.5361 27.2823 34.81 27.3571C34.9345 27.3821 35.059 27.4568 35.1834 27.4818C35.2083 27.5067 35.2581 27.5067 35.283 27.5316C35.2084 27.5067 35.3577 27.5565 35.283 27.5316C35.3577 27.5565 35.4076 27.6064 35.4573 27.6064C35.7312 27.731 35.9802 27.8805 36.2293 28.03C36.4783 28.1794 36.8765 28.0801 37.0008 27.8063C37.1252 27.5326 37.0752 27.184 36.7764 27.0345C36.2286 26.7355 35.631 26.4863 35.0086 26.3117C34.4111 26.162 33.7638 26.0621 33.1166 26.1116C32.8926 26.1363 32.6686 26.3105 32.6687 26.5594C32.7685 26.8582 32.9677 27.0077 33.2166 27.0576Z" fill="#181D23"></path><path d="M35.6827 30.1705C35.7574 30.1456 35.8321 30.1208 35.9068 30.1457C35.9068 30.1457 36.0312 30.1209 35.9814 30.1209C36.0312 30.1209 36.0312 30.1209 36.081 30.1209C36.2553 30.0961 36.4046 30.0962 36.554 30.0963C36.7033 30.0963 36.8527 30.0964 37.0021 30.0965C37.1016 30.0966 37.1763 30.1215 37.251 30.0966C37.3008 30.0967 37.3008 30.0967 37.3506 30.0967C37.251 30.0966 37.4004 30.0967 37.4004 30.0967C37.6991 30.1466 37.9979 30.1966 38.2718 30.3212C38.3465 30.3461 38.4211 30.371 38.4958 30.396C38.6452 30.4458 38.3962 30.3462 38.5208 30.4209C38.5457 30.4458 38.5954 30.4458 38.6203 30.4707C38.7697 30.5206 38.9191 30.6202 39.0437 30.695C39.2927 30.8445 39.666 30.77 39.7904 30.4962C39.9147 30.2225 39.8647 29.8739 39.5908 29.7493C38.3458 29.1014 36.8023 28.9015 35.4334 29.3738C34.9356 29.5229 35.1351 30.2698 35.6827 30.1705Z" fill="#181D23"></path><path d="M39.3684 32.9605C39.3684 32.9605 39.468 32.9605 39.4182 32.9605C39.3933 32.9356 39.3933 32.9356 39.4182 32.9605C39.468 32.9605 39.4929 32.9854 39.5427 32.9855C39.5924 32.9855 39.692 32.9855 39.7418 32.9856C39.8912 32.9856 39.9907 32.9857 40.1401 32.9858C40.2646 33.0107 40.389 32.9859 40.5135 33.0109C40.5633 33.0109 40.638 33.0358 40.7127 33.0109C40.5882 32.986 40.7873 33.0359 40.7127 33.0109C40.7624 33.011 40.7873 33.0359 40.8122 33.011C41.0612 33.0609 41.3102 33.1108 41.5591 33.2105C41.5591 33.2105 41.7583 33.2604 41.7334 33.2853C41.7583 33.3102 41.8081 33.3102 41.833 33.3351C41.9575 33.4099 42.082 33.4348 42.2065 33.5096C42.4555 33.6591 42.804 33.5597 42.9532 33.3108C43.1024 33.062 43.0027 32.7134 42.7537 32.5639C42.2308 32.2898 41.683 32.0904 41.0606 32.0154C40.7619 31.9655 40.4383 31.9404 40.1645 31.9651C39.9902 31.9899 39.8409 31.9899 39.6666 32.0147C39.592 32.0395 39.5422 32.0395 39.4675 32.0644C39.3928 32.0892 39.368 32.1141 39.2933 32.139C39.368 32.1141 39.2684 32.1638 39.2435 32.1389C39.0444 32.1886 38.92 32.3628 38.945 32.5869C38.9949 32.786 39.1692 32.9604 39.3684 32.9605Z" fill="#181D23"></path><path d="M42.6555 35.5511C42.7053 35.5511 42.7551 35.5511 42.8049 35.5512C42.7302 35.5262 42.6555 35.5013 42.6057 35.5013C42.7053 35.5511 42.8049 35.601 42.9045 35.601C42.9543 35.601 43.0289 35.5762 43.0787 35.5762C43.1783 35.5763 43.3028 35.5514 43.4023 35.5515C43.6015 35.5516 43.8504 35.6015 44.0745 35.5767C44.0247 35.5767 43.9749 35.5767 44.0247 35.5767C44.0496 35.6016 44.0745 35.5767 44.0994 35.6016C44.1492 35.6016 44.2239 35.6266 44.2736 35.6266C44.3981 35.6516 44.4728 35.6765 44.5973 35.7015C44.7218 35.7264 44.8214 35.7763 44.921 35.8261C44.9708 35.8261 45.0206 35.8759 45.0704 35.8759C44.9708 35.8261 45.1451 35.9009 45.0704 35.8759C45.0953 35.9008 45.1451 35.9009 45.17 35.9258C45.2945 36.0005 45.419 36.0255 45.5683 35.9758C45.6927 35.9509 45.8421 35.8515 45.9167 35.727C46.041 35.503 45.991 35.1047 45.7171 34.9801C45.2192 34.7807 44.7212 34.6311 44.1486 34.5561C43.9246 34.5311 43.6756 34.531 43.4516 34.5558C43.3022 34.5557 43.1778 34.5805 43.0035 34.6053C42.8293 34.6301 42.68 34.6798 42.5307 34.8291C42.6054 34.8042 42.6551 34.7545 42.7298 34.7296C42.68 34.7296 42.6551 34.7545 42.5804 34.7794C42.4062 34.8539 42.2569 35.0032 42.282 35.2273C42.282 35.3767 42.4564 35.551 42.6555 35.5511Z" fill="#181D23"></path><path d="M45.9184 39.0628C46.1425 39.0878 46.3914 39.0879 46.5905 39.088C46.6901 39.0881 46.8146 39.113 46.9142 39.1131C46.9639 39.1131 47.0387 39.138 47.0884 39.1381C47.0137 39.1131 47.0636 39.1629 47.0884 39.1381C47.1382 39.1381 47.1382 39.1381 47.188 39.1381C47.6361 39.1881 48.0843 39.3377 48.5075 39.5122C48.7565 39.6119 49.1049 39.4129 49.1546 39.1142C49.2042 38.8155 49.0547 38.5665 48.7559 38.4668C48.2829 38.2923 47.785 38.1925 47.2871 38.1424C46.7892 38.0924 46.2913 38.0921 45.7935 38.2412C45.5944 38.2909 45.47 38.5149 45.495 38.6892C45.5698 38.9132 45.7193 39.0627 45.9184 39.0628Z" fill="#181D23"></path><path d="M47.9856 40.9806C48.2843 41.0305 48.6079 41.1053 48.9067 41.1553C49.2054 41.2052 49.5291 41.2303 49.8278 41.2802C49.9523 41.3052 50.0767 41.2803 50.2261 41.2306C50.3505 41.156 50.45 41.0067 50.4748 40.8325C50.4996 40.708 50.4498 40.5586 50.3501 40.459C50.2505 40.3096 50.1011 40.2597 49.9518 40.2597C49.6281 40.2346 49.3045 40.2095 49.0058 40.2094C48.6822 40.1843 48.3834 40.1842 48.0598 40.1591C47.8607 40.159 47.6865 40.3332 47.6617 40.5074C47.6618 40.7066 47.7864 40.9307 47.9856 40.9806Z" fill="#181D23"></path><path d="M73.9434 77.6867C73.9433 77.6369 73.9184 77.612 73.9184 77.5623C73.9184 77.4627 73.8935 77.5373 73.9184 77.5623C73.9184 77.5125 73.9183 77.4627 73.8934 77.4378C73.8685 77.3631 73.8685 77.2635 73.8435 77.1888C73.8186 77.1141 73.8186 77.0146 73.7936 76.9399C73.7936 76.8901 73.7687 76.8652 73.7687 76.8154L73.7686 76.7656C73.7686 76.7158 73.7936 76.8901 73.7935 76.7905C73.7685 76.4669 73.7434 76.1432 73.793 75.7948C73.8179 75.6703 73.7182 75.5209 73.6186 75.4213C73.519 75.3217 73.3696 75.2718 73.2451 75.2468C72.9713 75.2716 72.6976 75.4955 72.6977 75.7942C72.7228 76.1676 72.7479 76.541 72.8228 76.9145C72.8976 77.2879 73.0721 77.6116 73.2465 77.9353C73.3461 78.0847 73.5204 78.1595 73.6946 78.0849C73.8938 78.085 73.9932 77.8859 73.9434 77.6867Z" fill="white"></path><path d="M71.3787 76.4159C71.453 75.694 71.4028 74.997 71.3278 74.275C71.2778 73.9265 71.2279 73.6277 71.1282 73.2792C71.0533 72.9057 70.9037 72.5572 70.7542 72.2086C70.6545 71.9596 70.306 71.9096 70.082 71.9842C69.8331 72.0836 69.7088 72.3574 69.7587 72.6064C69.9332 73.2288 70.1327 73.8761 70.2326 74.5234C70.3574 75.1458 70.4075 75.7432 70.4327 76.4154C70.4328 76.6643 70.6321 76.8636 70.881 76.8637C71.1798 76.8638 71.329 76.6648 71.3787 76.4159Z" fill="white"></path><path d="M68.5145 73.6015C68.6631 72.1578 68.513 70.7139 68.2136 69.3197C68.1636 69.021 67.815 68.8216 67.5163 68.9211C67.2425 68.9956 67.0187 69.3191 67.1184 69.6179C67.243 69.9415 67.3179 70.2652 67.3678 70.6137C67.3928 70.788 67.4427 70.9374 67.4677 71.1117C67.4926 71.1863 67.4926 71.2859 67.5176 71.3606C67.5176 71.4104 67.5176 71.4602 67.5425 71.4851C67.5425 71.4851 67.5675 71.6096 67.5426 71.5349C67.6176 72.207 67.6677 72.9041 67.6432 73.5762C67.6433 73.8251 67.8426 74.0244 68.0915 74.0245C68.3404 74.0246 68.4897 73.8256 68.5145 73.6015Z" fill="white"></path><path d="M65.999 71.0859C66.073 69.7168 65.9229 68.3227 65.5737 66.9783C65.4989 66.7044 65.1752 66.4802 64.8765 66.5796C64.5778 66.679 64.4037 66.9528 64.4785 67.2764C64.8277 68.5711 65.0275 69.766 65.1028 71.0854C65.1778 71.658 65.9993 71.6336 65.999 71.0859Z" fill="white"></path><path d="M63.1846 68.3712C63.7065 66.604 63.3818 64.6373 62.46 63.1183C62.3105 62.8693 61.962 62.7695 61.7131 62.9188C61.4642 63.068 61.3648 63.4165 61.5143 63.6655C62.3614 65.0101 62.636 66.5786 62.4128 68.1965C62.388 68.4206 62.4628 68.6446 62.7118 68.6945C62.8861 68.7195 63.1101 68.5952 63.1846 68.3712Z" fill="white"></path><path d="M60.0963 65.233C60.5187 63.8143 60.3685 62.221 59.7953 60.8516C59.6706 60.5777 59.2723 60.4779 59.0234 60.6272C58.7497 60.8013 58.7001 61.1 58.7998 61.3987C58.8497 61.5481 58.7749 61.3241 58.8247 61.4237C58.8496 61.4486 58.8496 61.4983 58.8746 61.5233C58.8995 61.5979 58.9244 61.6726 58.9493 61.7473C58.9992 61.8967 59.0491 62.0461 59.099 62.2453C59.1488 62.3947 59.1738 62.5689 59.1988 62.6934C59.2237 62.7681 59.2237 62.8677 59.2487 62.9424C59.2487 62.9922 59.2487 62.9922 59.2487 62.9424C59.2487 62.9922 59.2487 63.042 59.2488 63.0917C59.2738 63.4154 59.2989 63.739 59.2742 64.0626C59.2494 64.2368 59.2494 64.3862 59.2246 64.5604C59.2247 64.6102 59.1998 64.6351 59.1998 64.6849C59.2247 64.6102 59.1998 64.6849 59.1998 64.7347C59.175 64.8093 59.175 64.9089 59.1502 64.9836C59.1005 65.2325 59.2251 65.5064 59.499 65.5812C59.748 65.6311 59.9968 65.4819 60.0963 65.233Z" fill="white"></path><path d="M57.0577 62.2442C57.2067 61.5473 57.2312 60.8752 57.1313 60.1781C57.0813 59.8296 57.0313 59.481 56.9316 59.1325C56.8318 58.7839 56.6823 58.4353 56.5328 58.0868C56.4331 57.8876 56.1343 57.7878 55.9352 57.8873C55.7361 57.9868 55.562 58.2107 55.6617 58.4597C55.886 59.0324 56.0855 59.6797 56.1854 60.2772C56.1854 60.327 56.2103 60.3519 56.1854 60.3768C56.1854 60.3768 56.2104 60.5012 56.2104 60.4514C56.2103 60.4017 56.2353 60.5261 56.2104 60.551C56.2105 60.6008 56.2354 60.6257 56.2354 60.6755C56.2355 60.8249 56.2604 60.9991 56.2605 61.1485C56.2856 61.4721 56.2609 61.7957 56.2361 62.1193C56.1866 62.6172 56.9334 62.7171 57.0577 62.2442Z" fill="white"></path><path d="M54.2932 59.4797C54.6658 58.0112 54.5654 56.5175 54.1913 55.0486C54.1165 54.7747 53.7927 54.5505 53.4941 54.6499C53.2203 54.7245 52.9964 55.048 53.0961 55.3467C53.2208 55.6704 53.2956 55.9941 53.3705 56.3177C53.3954 56.492 53.4453 56.6414 53.4703 56.8156C53.4953 56.9899 53.4702 56.7161 53.4952 56.8903C53.4953 56.9401 53.5201 56.965 53.4953 56.9899C53.4953 57.0895 53.5203 57.1642 53.5203 57.2638C53.5454 57.5874 53.5455 57.9359 53.5457 58.2844C53.521 58.608 53.4963 58.9814 53.4715 59.2552C53.4219 59.5041 53.5465 59.7282 53.7955 59.8279C53.9697 59.8529 54.2435 59.7286 54.2932 59.4797Z" fill="white"></path><path d="M51.653 56.8395C51.9508 55.0474 51.8503 53.2052 51.3764 51.4375C51.3016 51.1637 51.0028 50.9643 50.6792 51.0389C50.4054 51.1134 50.1815 51.4369 50.2813 51.7357C50.8049 53.354 50.9551 55.0468 50.8315 56.7644C50.8069 57.1876 51.5537 57.2876 51.653 56.8395Z" fill="white"></path><path d="M48.4651 53.6515C48.8626 52.1084 48.7124 50.4155 48.3133 48.872C48.2385 48.5981 47.9147 48.3739 47.6161 48.4733C47.3174 48.5727 47.1184 48.8713 47.2181 49.1701C47.3179 49.5187 47.4176 49.917 47.4925 50.2904C47.5174 50.3651 47.5175 50.4647 47.5424 50.5394C47.5425 50.5892 47.5425 50.639 47.5674 50.6639C47.5674 50.6639 47.5923 50.7884 47.5674 50.7635C47.5924 50.8879 47.6174 51.112 47.6175 51.3111C47.6677 52.058 47.6681 52.8048 47.6187 53.5515C47.5691 54.0494 48.3409 54.1245 48.4651 53.6515Z" fill="white"></path><path d="M44.8287 49.9654C45.0519 48.2479 44.9763 46.5302 44.5772 44.8373C44.5024 44.5634 44.1786 44.3392 43.8799 44.4387C43.5813 44.5381 43.3823 44.8367 43.482 45.1355C43.8811 46.6791 44.0064 48.1976 43.9076 49.8405C43.8829 50.0645 44.107 50.2887 44.3311 50.3137C44.5053 50.3387 44.7791 50.2144 44.8287 49.9654Z" fill="white"></path><path d="M41.7155 46.9517C42.3118 44.861 42.2858 42.6455 41.8366 40.5044C41.6869 39.8073 40.5668 40.0806 40.7663 40.7777C41.2403 42.7445 41.2663 44.8107 41.0433 46.8269C40.9937 47.275 41.5912 47.325 41.7155 46.9517Z" fill="white"></path><path d="M38.5276 43.714C39.0246 42.121 39.0486 40.3536 38.5997 38.7602C38.5249 38.4864 38.2012 38.2622 37.9025 38.3616C37.6038 38.461 37.4048 38.7596 37.5046 39.0584C37.6043 39.4069 37.7041 39.8053 37.779 40.1787C37.779 40.2783 37.8288 40.3779 37.8289 40.4775C37.8289 40.5272 37.8289 40.4277 37.8289 40.5272C37.8289 40.577 37.829 40.6268 37.8539 40.7015C37.8789 40.8758 37.879 41.0749 37.8791 41.2741C37.9044 42.0458 37.855 42.7925 37.6811 43.5144C37.6314 43.7633 37.756 43.9874 37.9801 44.0622C38.229 44.1121 38.453 43.938 38.5276 43.714Z" fill="white"></path><path d="M35.4641 40.7999C35.5636 40.6008 35.6133 40.3519 35.6629 40.1527C35.7126 39.9536 35.7374 39.7296 35.7871 39.4807C35.8615 39.0077 35.911 38.5597 35.9606 38.1116C36.0099 37.2155 35.9597 36.3691 35.8845 35.4978C35.8346 35.1492 35.6104 34.8753 35.2121 34.9249C34.8636 34.9745 34.6398 35.298 34.7146 35.6714C34.7396 35.8955 34.7646 36.02 34.8145 36.2191C34.8395 36.4432 34.8396 36.6423 34.8646 36.8664C34.8897 37.2896 34.89 37.6879 34.9151 38.1111C34.9153 38.5094 34.8906 38.9326 34.8659 39.3557C34.8411 39.5798 34.8413 39.7789 34.7916 39.978C34.7668 40.1523 34.7171 40.4012 34.7172 40.6003C34.7422 40.7746 34.8419 40.9738 35.0411 41.0237C35.1655 41.0486 35.3895 40.9741 35.4641 40.7999Z" fill="white"></path><path d="M32.3507 37.5871C32.8479 36.2431 32.9965 34.7993 32.8215 33.3803C32.7964 33.0567 32.5474 32.8076 32.1989 32.8572C31.8504 32.9069 31.7012 33.2055 31.7511 33.5042C31.7512 33.554 31.7761 33.5789 31.7761 33.6287C31.7761 33.6287 31.8011 33.7532 31.7761 33.6785C31.8011 33.7532 31.8011 33.8528 31.8012 33.9026C31.8261 34.0768 31.8262 34.2262 31.8512 34.4004C31.8514 34.749 31.8764 35.0726 31.8517 35.446C31.8272 36.1181 31.7279 36.7155 31.6038 37.3875C31.5541 37.5867 31.6787 37.8108 31.8779 37.8607C32.0771 37.9105 32.2761 37.7613 32.3507 37.5871Z" fill="white"></path><path d="M29.2376 34.6232C29.4116 34.2996 29.4612 33.9014 29.5357 33.528C29.5853 33.1298 29.6847 32.7315 29.7093 32.3083C29.7836 31.5367 29.833 30.7899 29.8077 30.0182C29.8076 29.7195 29.5585 29.4704 29.2598 29.4703C28.986 29.495 28.6625 29.7189 28.7124 30.0177C28.7626 30.7645 28.8128 31.5113 28.7882 32.2332C28.7635 32.6066 28.7637 32.9551 28.739 33.3285C28.7143 33.7018 28.6398 34.0752 28.6649 34.4486C28.6651 34.7473 29.0883 34.9218 29.2376 34.6232Z" fill="white"></path></svg> 