<?xml version="1.0" encoding="UTF-8"?> <svg xmlns="http://www.w3.org/2000/svg" width="101" height="122" viewBox="0 0 101 122" fill="none"><path d="M27.75 13.25C36.35 11.85 44.8333 15.1666 48 17C49.9792 18.375 54.775 21.7875 58.125 24.4375C62.3125 27.75 64 33.4375 64.4375 38.125C64.7875 41.875 63.9583 46.1875 63.5 47.875L90.5 55.5L93.5625 55.9375L88.5 64.125L80.0625 65.625L78.5 80.375L72.5625 83.375C68.7917 81.8542 60.8 78.575 59 77.625C57.2 76.675 49.7917 72.0625 46.3125 69.875V69C45.0417 69.3333 41.5 70 37.5 70H24.75L12 60.25C10.8333 56.4167 8.3 46.65 7.5 38.25C6.7 29.85 11.6667 19.4167 14.25 15.25C15.1667 15.1667 19.15 14.65 27.75 13.25Z" fill="#EFFAFE"></path><path d="M39.125 65.625C44.225 66.3251 46.8333 65.3334 47.5 64.75L46.6249 69.125C44.9583 69.2917 41.125 69.75 39.125 70.25C37.125 70.75 29.125 70.4583 25.3749 70.25C21.1666 66 13.4749 53.6 16.3749 38C19.9999 18.5 35.8749 17.375 41.6249 16C46.2147 14.9025 52.8452 19.521 55.6065 21.9835C54.3306 20.8532 49.785 18.625 41.6249 18.625C31.3749 18.625 22 27.25 19.875 44C17.75 60.75 32.75 64.75 39.125 65.625Z" fill="#7FA2F6"></path><path d="M45.5 43.25L35.25 45.125L76.75 57.75L92.25 55.5L45.5 43.25Z" fill="#7FA2F6"></path><g opacity="0.2"><path fill-rule="evenodd" clip-rule="evenodd" d="M77.5 65.625L78.5 61.875C77.9167 61.7917 76.65 61.35 76.25 60.25C75.85 59.15 75.6667 58.125 75.625 57.75L35.5 45.75V47.875C36.9167 48.0833 39.825 48.95 40.125 50.75C40.425 52.55 40.8333 53.6667 41 54L48 56.625L46.3125 69V69.875C49.7917 72.0625 57.2 76.675 59 77.625C60.8 78.575 68.7917 81.8542 72.5625 83.375V65L77.5 65.625Z" fill="black"></path><path d="M56.875 45.75C57.7917 43.0833 58.8 37.05 55.5 34.25C51.375 30.75 48.25 28.375 44.625 28.25C41.725 28.15 37.8333 29.2083 36.25 29.75C38.7083 29.5 43.825 29.525 44.625 31.625C45.2982 33.392 46.6676 35.165 47.5565 36.1544C47.7281 36.3212 47.8771 36.4807 48 36.625C47.8745 36.4995 47.724 36.3409 47.5565 36.1544C46.3903 35.021 44.1793 33.5526 42 34.25C39.5 35.05 37.9583 36.1667 37.5 36.625C36.375 37.75 34.125 40.325 34.125 41.625C34.125 42.925 35.0417 44.9167 35.5 45.75L46.3125 43.25L56.875 45.75Z" fill="black"></path><path d="M7.5 38.25C8.3 46.65 10.8333 56.4167 12 60.25L24.75 70C22.2083 65.25 16.975 54.75 16.375 50.75C15.775 46.75 16.125 41.8333 16.375 39.875L7.5 38.25Z" fill="black"></path></g><path d="M34.5673 46.0345C37.2063 46.9855 39.9508 47.7252 42.625 48.5353C45.264 49.3102 47.9029 50.0851 50.5419 50.8952C55.8902 52.4802 61.2034 54.0653 66.5517 55.6151C69.5778 56.4956 72.639 57.3058 75.665 58.3272C76.4743 58.609 76.8613 57.2353 76.0169 57.024C73.3075 56.3195 70.5982 55.4389 67.924 54.6641C65.285 53.8892 62.646 53.1143 60.0071 52.3394C54.6587 50.7544 49.3456 49.2045 43.9972 47.6195C40.9712 46.739 37.9452 45.7175 34.8488 45.0131C34.145 44.8017 33.8987 45.788 34.5673 46.0345Z" fill="#181D23"></path><path d="M75.9113 58.3976C77.3188 58.3976 78.7614 58.1511 80.1689 57.9397C81.6115 57.7284 83.019 57.5171 84.4616 57.341C87.3117 56.9535 90.197 56.6717 93.0471 56.4252C93.8564 56.3547 93.8564 55.0867 93.0471 55.122C90.1618 55.3685 87.2413 55.6855 84.356 56.073C82.9134 56.2491 81.5059 56.4956 80.0985 56.7422C78.6558 56.9888 77.178 57.2353 75.8409 57.7989C75.5242 57.9045 75.5594 58.3976 75.9113 58.3976Z" fill="#181D23"></path><path d="M91.886 55.1572C90.9712 54.805 90.0915 54.488 89.1415 54.2062C88.2266 53.9596 87.2766 53.6779 86.3617 53.4313C84.532 52.9382 82.7023 52.4451 80.8727 51.9519C77.1781 50.9657 73.4835 49.9795 69.7537 48.9932C66.0592 48.007 62.3646 47.0208 58.6348 46.0345C56.77 45.5414 54.9051 45.0483 53.0402 44.5552C52.1253 44.3086 51.1753 44.0621 50.2605 43.8155C49.8734 43.7098 49.4512 43.6042 49.0641 43.4985C48.853 43.4281 48.6419 43.3928 48.4308 43.3224C48.1493 43.2519 47.9382 43.3224 47.6919 43.3224C47.4104 43.3224 47.1641 43.1815 46.8826 43.1463C46.6715 43.111 46.4603 43.0758 46.2492 43.0406C45.7214 42.9702 45.1936 42.9349 44.6658 42.8997C43.6454 42.8645 42.625 42.9702 41.6046 43.1111C39.5638 43.3928 37.5582 43.8507 35.5174 44.0268C35.1303 44.0621 34.8136 44.3438 34.8136 44.7313C34.8136 45.0835 35.1303 45.471 35.5174 45.4357C39.1416 45.0835 42.6602 43.8859 46.3548 44.3086C46.6715 44.3438 47.1289 44.3438 47.4456 44.4495C47.6567 44.52 47.8326 44.6961 48.0437 44.7665C48.29 44.837 48.5715 44.9074 48.853 44.9779C49.7327 45.2244 50.6123 45.4357 51.5272 45.6823C53.3921 46.1754 55.2569 46.6685 57.1218 47.1617C64.511 49.1341 71.8649 51.1066 79.2541 53.0791C81.3301 53.6426 83.3709 54.171 85.4469 54.7345C86.4673 55.0163 87.4877 55.2629 88.5081 55.5447C89.5989 55.8264 90.6897 56.0378 91.7804 56.2139C92.2379 56.1787 92.4842 55.3686 91.886 55.1572Z" fill="#181D23"></path><path d="M93.4695 55.7912C93.0824 55.756 92.8713 56.073 92.6602 56.3548C92.4139 56.707 92.1676 57.0945 91.9213 57.4467C91.4287 58.2216 90.936 58.9613 90.4786 59.7362C90.0212 60.4759 89.5286 61.2155 89.0712 61.9552C88.5786 62.6949 88.0156 63.4346 87.5933 64.2447C87.2766 64.8787 88.1211 65.6536 88.6489 65.0548C89.2823 64.3151 89.7397 63.4698 90.2675 62.6597C90.7953 61.8495 91.2879 61.0394 91.7805 60.2293C92.2731 59.4192 92.7306 58.6443 93.188 57.7989C93.3991 57.4115 93.751 56.9184 93.8213 56.4957C93.8565 56.2139 93.7861 55.7912 93.4695 55.7912Z" fill="#181D23"></path><path d="M88.6137 63.7515C88.0507 63.681 87.4877 63.7867 86.9248 63.8571C86.3618 63.9276 85.7636 63.998 85.2006 64.1037C84.0747 64.2446 82.9839 64.3855 81.8579 64.5264C80.7319 64.6673 79.6412 64.7729 78.5152 64.9138C77.9522 64.9843 77.354 65.0195 76.7911 65.09C76.2281 65.1252 75.5947 65.09 75.1021 65.3718C74.6095 65.6183 74.7854 66.358 75.2429 66.4989C75.7707 66.675 76.404 66.4989 76.967 66.4637C77.53 66.4285 78.1282 66.358 78.6911 66.2876C79.8523 66.1819 80.9782 66.0058 82.1394 65.8649C83.2654 65.724 84.3561 65.5126 85.4469 65.3365C86.0099 65.2309 86.5729 65.1252 87.1359 64.9843C87.6989 64.8786 88.297 64.7377 88.7896 64.4912C89.1767 64.2798 88.9656 63.7867 88.6137 63.7515Z" fill="#181D23"></path><path d="M34.708 45.788C34.7432 45.9641 34.7784 46.1402 34.8136 46.3163C34.8136 46.3516 34.8136 46.3868 34.8487 46.422C34.8487 46.3163 34.8487 46.4572 34.8487 46.4572C34.8487 46.5629 34.8487 46.6333 34.8839 46.739C34.8839 46.9151 34.8839 47.056 34.8839 47.2321C34.8839 47.3378 34.8839 47.4082 34.8487 47.5139C34.8487 47.5139 34.8487 47.6548 34.8487 47.5491C34.8487 47.5843 34.8487 47.6548 34.8136 47.69C34.7784 47.9366 34.8839 48.1831 35.1302 48.2536C35.3414 48.2888 35.658 48.1831 35.6932 47.9366C35.834 47.1265 35.7636 46.2459 35.3765 45.5062C35.3062 45.3301 35.095 45.2949 34.9191 45.3653C34.7432 45.4358 34.6376 45.6119 34.708 45.788Z" fill="#181D23"></path><path d="M35.1654 48.6057C35.7988 48.7466 36.4321 48.8523 37.0303 49.1341C37.6285 49.3806 38.1563 49.7329 38.6137 50.1907C39.0711 50.6134 39.4582 51.1417 39.7397 51.7053C40.0212 52.2336 40.2323 52.9029 40.1971 53.5017C40.1619 53.8539 40.549 54.1357 40.8656 54.1004C41.2175 54.0652 41.4286 53.713 41.3582 53.3608C41.2879 53.0085 41.2527 52.6563 41.1471 52.3041C41.0416 51.9519 40.8656 51.5644 40.6897 51.2474C40.3378 50.5782 39.8452 49.9794 39.2822 49.4511C38.1915 48.4649 36.6433 47.69 35.1302 47.9365C34.8136 47.9717 34.8136 48.5353 35.1654 48.6057Z" fill="#181D23"></path><path d="M40.1619 53.5369C41.0767 54.347 42.3786 54.8049 43.4694 55.298C44.5954 55.7911 45.7214 56.2843 46.8473 56.7422C49.1344 57.6932 51.4567 58.6442 53.779 59.5247C58.4588 61.3211 63.1738 62.9766 67.9592 64.4912C70.6333 65.3365 73.3075 66.1466 75.9817 66.9215C76.7558 67.1328 77.1076 65.9353 76.3335 65.6887C66.7628 62.9766 57.3329 59.7009 48.114 55.932C46.8121 55.4037 45.5454 54.8401 44.2435 54.3118C43.012 53.8187 41.7101 53.1142 40.4082 52.9381C40.0915 52.9381 39.9508 53.3608 40.1619 53.5369Z" fill="#181D23"></path><path d="M75.3835 58.1863C75.3835 60.0179 76.5095 61.7086 78.1633 62.5188C78.4448 62.6596 78.7614 62.5892 78.9022 62.3074C79.0429 62.0609 78.9725 61.6734 78.6911 61.5677C78.5151 61.4973 78.3392 61.3916 78.1633 61.286C77.9873 61.1803 77.8466 61.0746 77.741 61.0042C77.4595 60.7576 77.1429 60.4406 76.9669 60.1941C76.5095 59.56 76.1928 58.8556 76.0521 58.0807C76.0169 57.6932 75.3835 57.7637 75.3835 58.1863Z" fill="#181D23"></path><path d="M78.2336 62.0256C77.9521 62.6596 77.7762 63.3641 77.5651 64.0333C77.354 64.7025 77.1429 65.3717 77.0021 66.041C76.8614 66.675 77.7762 66.9215 77.9521 66.3228C78.1633 65.6535 78.304 64.9843 78.4799 64.2798C78.6207 63.6106 78.8318 62.9062 78.9022 62.2017C78.9725 61.8495 78.3744 61.6734 78.2336 62.0256Z" fill="#181D23"></path><path d="M47.516 56.0025C47.2345 57.024 47.1641 58.1159 47.0586 59.1726C46.953 60.2997 46.8474 61.3916 46.7419 62.5187C46.4956 64.7025 46.1789 66.8864 45.7918 69.0702C45.6511 69.9155 46.9178 70.2678 47.0586 69.4224C47.4456 67.2034 47.7623 64.9491 47.9734 62.6949C48.079 61.603 48.1845 60.4758 48.2197 59.3487C48.2549 58.2216 48.3253 57.0944 48.079 56.0025C48.0438 55.6855 47.5864 55.7208 47.516 56.0025Z" fill="#181D23"></path><path d="M45.9676 70.2677C47.4806 71.4301 49.1344 72.3811 50.7882 73.3673C52.4067 74.3535 54.0605 75.3045 55.7495 76.2203C59.0922 78.0519 62.4701 79.7778 65.9183 81.3981C67.8536 82.3139 69.8592 83.1592 71.7945 84.075C72.6037 84.4624 73.0964 83.2648 72.2519 82.9478C70.4926 82.2434 68.7684 81.4333 67.0443 80.6232C65.3202 79.813 63.596 79.0029 61.9071 78.1223C58.5644 76.4317 55.2568 74.6353 52.0197 72.7685C50.1548 71.7118 48.3251 70.5143 46.4251 69.5633C45.8973 69.2463 45.5454 69.9155 45.9676 70.2677Z" fill="#181D23"></path><path d="M79.3245 66.0763C79.1485 67.2034 79.0782 68.3305 78.9726 69.4576C78.8671 70.62 78.7967 71.7471 78.6559 72.9095C78.4448 75.1989 78.1281 77.4884 77.917 79.8131C77.8466 80.5528 79.0782 80.7289 79.1837 79.9892C79.5356 77.735 79.7115 75.375 79.8523 73.0856C79.9226 71.9584 79.993 70.8313 80.0282 69.7042C80.0634 68.5419 80.1338 67.3443 80.0282 66.1467C80.0634 65.7592 79.3949 65.6184 79.3245 66.0763Z" fill="#181D23"></path><path d="M79.0429 79.8131C78.9374 79.8483 78.8318 79.8131 78.691 79.8835C78.5503 79.954 78.4447 80.0244 78.304 80.0949C78.0225 80.271 77.7762 80.4119 77.5299 80.588C77.0373 80.905 76.5095 81.222 75.9817 81.5038C74.9261 82.0674 73.8353 82.5253 72.7094 82.9832C72.3927 83.1241 72.1464 83.4058 72.2519 83.7581C72.3575 84.0751 72.7093 84.3217 73.026 84.216C74.2576 83.7933 75.4539 83.1945 76.5447 82.5253C77.0725 82.2082 77.6003 81.856 78.0929 81.4686C78.3744 81.2572 78.6207 81.0459 78.867 80.8345C78.9725 80.7289 79.0781 80.6232 79.1485 80.5175C79.254 80.4119 79.254 80.271 79.3244 80.1301C79.4652 79.9187 79.2188 79.7426 79.0429 79.8131Z" fill="#181D23"></path><path d="M72.8149 83.124C73.5187 77.7701 73.589 72.3106 73.589 66.8863C73.589 66.1115 72.3575 66.1115 72.3575 66.8863C72.3575 72.3106 72.0408 77.6997 72.0408 83.124C72.0408 83.6171 72.7446 83.5819 72.8149 83.124Z" fill="#181D23"></path><path d="M46.9177 57.8341C45.651 58.3624 44.3843 58.7499 43.012 58.7851C41.6749 58.8556 40.373 58.6442 39.1063 58.292C36.8544 57.658 34.7432 56.4252 33.0191 54.8402C29.3949 51.5292 27.5652 46.7389 28.2337 41.843C28.9023 36.8766 31.9283 32.4737 36.4674 30.2899C40.9712 28.1061 46.4603 28.2118 50.753 30.8183C55.2921 33.5657 58.107 38.8843 56.8051 44.2029C56.6644 44.8369 56.4181 45.5062 56.1717 46.1049C55.9958 46.4572 56.0662 46.8798 56.4181 47.0912C56.7347 47.2673 57.2625 47.1968 57.4033 46.8446C58.6348 44.062 58.8459 40.892 58.0014 37.9685C57.2273 35.2563 55.5736 32.7908 53.392 30.9944C49.0641 27.4369 43.1528 26.4859 37.8396 28.247C35.2358 29.0924 32.8432 30.5717 31.0135 32.6147C29.1838 34.6223 27.8819 37.0879 27.2133 39.7296C26.5448 42.3713 26.4744 45.1539 27.1429 47.7956C27.7763 50.3669 29.0782 52.7268 30.8023 54.664C32.5617 56.6365 34.7432 58.1511 37.1711 59.1373C39.7397 60.1588 42.8713 60.6519 45.5103 59.7009C46.214 59.4543 46.8122 59.1373 47.3751 58.6442C47.6918 58.3272 47.34 57.658 46.9177 57.8341Z" fill="#181D23"></path><path d="M46.4251 64.1037C42.2731 65.4421 37.6637 64.7025 33.582 63.5049C29.8523 62.413 26.2633 60.511 23.941 57.3057C19.5778 51.3883 19.5778 43.1814 21.689 36.4187C23.9058 29.4094 28.8319 22.9284 35.9395 20.4629C42.8361 18.0677 50.9993 19.3357 56.5588 24.1612C61.9071 28.7754 64.6868 36.2778 63.6664 43.2519C63.5257 44.1324 63.3498 44.9778 63.1034 45.8231C62.8571 46.7389 64.2646 47.0912 64.5109 46.2106C66.5869 38.8491 64.4757 30.607 59.3737 24.9361C54.0957 19.0892 45.7214 16.7645 38.0859 18.3847C34.2506 19.1948 30.7319 21.0616 27.8467 23.7033C24.9262 26.4155 22.7094 29.8321 21.1964 33.4952C18.2759 40.5045 17.6778 49.1693 21.3724 56.0377C23.3428 59.7009 26.5448 62.3073 30.3449 63.8923C32.3505 64.7377 34.4617 65.3013 36.6081 65.6535C38.8952 66.0762 41.2527 66.3227 43.575 66.0057C44.7009 65.8648 45.7565 65.5478 46.8121 65.0899C47.4103 64.8433 47.0233 63.8923 46.4251 64.1037Z" fill="#181D23"></path><path d="M58.283 24.3373C55.6089 19.6879 50.1902 16.7292 45.0178 15.8486C39.4583 14.8624 33.8285 16.0248 29.0431 18.9835C24.2226 21.9422 20.3873 26.4859 18.1001 31.6636C15.3556 37.8276 14.7926 44.7664 15.7427 51.3883C16.6575 57.6579 18.8391 64.2094 23.0614 69.0701C23.554 69.6689 24.117 70.1972 24.68 70.7255C25.3485 71.3595 26.3338 70.3381 25.6652 69.7393C21.1614 65.5478 18.8039 59.56 17.5723 53.6778C16.2353 47.3025 16.376 40.5749 18.5224 34.411C20.3169 29.3037 23.6244 24.6543 27.9875 21.4138C32.2803 18.2438 37.4527 16.5531 42.7658 16.9758C47.903 17.3984 52.7588 19.6527 56.2422 23.492C56.6645 23.9851 57.1219 24.443 57.5089 24.9361C57.8608 25.394 58.5294 24.8304 58.283 24.3373Z" fill="#181D23"></path><path d="M24.1169 70.6904C26.967 71.1483 29.9578 71.1483 32.8431 71.0426C35.7636 70.9722 38.6489 70.7256 41.5342 70.3734C42.3435 70.2677 43.1879 70.162 43.9972 70.0211C44.8417 69.8802 45.6862 69.7041 46.5307 69.5985C47.5159 69.4928 47.2696 68.0486 46.3547 68.2952C44.9473 68.6474 43.4694 68.8236 42.062 69.0349C40.6545 69.2462 39.2471 69.3871 37.8044 69.528C34.9191 69.8098 32.069 69.9507 29.1837 69.9859C27.53 70.0211 25.8762 69.9859 24.2225 70.0211C23.8354 70.0564 23.7299 70.6199 24.1169 70.6904Z" fill="#181D23"></path><path d="M23.8706 68.7531C23.2372 67.6964 22.1816 66.8863 21.2668 66.0762C20.3168 65.2661 19.3667 64.4912 18.3815 63.7163C16.4111 62.1313 14.3703 60.6871 12.3646 59.1726C11.6609 58.609 10.8516 59.9122 11.6257 60.4053C13.6665 61.7438 15.6018 63.2584 17.537 64.773C18.4871 65.5126 19.4371 66.2875 20.3871 67.0624C20.8797 67.4499 21.3372 67.8021 21.8298 68.1896C22.3224 68.577 22.815 68.9644 23.378 69.211C23.6947 69.3871 24.0817 69.0701 23.8706 68.7531Z" fill="#181D23"></path><path d="M52.1253 17.1519C51.1049 16.4123 49.8382 15.9191 48.6419 15.4965C47.4807 15.0738 46.2844 14.6863 45.0881 14.3693C42.6602 13.7001 40.2323 13.2422 37.7341 12.9252C32.7376 12.256 27.6356 12.3264 22.6743 13.0661C19.8594 13.4536 17.0445 14.0876 14.3351 14.9329C13.4555 15.2147 13.8073 16.5884 14.7222 16.3418C24.1521 13.4536 34.2506 13.1718 43.8213 15.4965C45.1936 15.8135 46.5307 16.2009 47.8678 16.6236C49.1697 17.0463 50.5068 17.5746 51.879 17.7859C52.2309 17.8564 52.442 17.3985 52.1253 17.1519Z" fill="#181D23"></path><path d="M14.8981 15.1795C12.7517 16.9758 11.2387 19.6175 10.1127 22.1536C8.95159 24.7953 8.17749 27.5779 7.72006 30.4309C6.77003 36.8062 7.47376 43.2519 8.84603 49.5216C9.6905 53.2904 10.7109 57.024 11.7665 60.7576C12.0128 61.6382 13.3851 61.2507 13.1388 60.3702C11.2739 53.9596 9.40901 47.4434 8.77566 40.7511C8.24786 35.0098 8.74047 29.0924 10.8165 23.6681C11.3795 22.2592 12.048 20.8503 12.8221 19.5471C13.6314 18.1734 14.5814 16.9406 15.4963 15.6374C15.7426 15.2851 15.1796 14.9329 14.8981 15.1795Z" fill="#181D23"></path><path d="M60.9572 40.3284C60.9572 40.3284 60.9924 40.3284 60.9924 40.2932C60.922 40.2932 60.8516 40.3284 60.7812 40.3284C60.8164 40.3284 60.8516 40.3284 60.8868 40.3284C60.9924 40.3284 61.1331 40.258 61.1683 40.1523C61.3442 39.8353 61.1683 39.4479 60.8516 39.307C60.6405 39.2366 60.4294 39.2365 60.2535 39.3774C60.0775 39.5183 59.972 39.6592 59.9016 39.8706C59.796 40.1523 59.8312 40.4341 59.972 40.7159C60.0775 40.9272 60.2534 41.1385 60.4646 41.2794C60.8516 41.5612 61.4498 41.6316 61.872 41.3146C62.0831 41.1385 62.2591 40.9272 62.3294 40.6454C62.3998 40.3989 62.3646 40.1523 62.3294 39.941C62.2591 39.6945 62.1535 39.4479 61.9776 39.2718C61.7665 39.0604 61.485 38.9196 61.1683 38.9196C61.0275 38.9196 60.8868 38.99 60.7812 39.0957C60.6757 39.2013 60.6053 39.3422 60.6053 39.4831C60.6053 39.7649 60.8516 40.0467 61.1331 40.0115C61.1683 40.0115 61.2035 40.0115 61.2387 40.0115C61.2035 40.0115 61.1331 40.0114 61.0979 39.9762C61.1683 39.9762 61.2035 40.0115 61.2387 40.0115C61.2035 39.9762 61.1683 39.9762 61.0979 39.941C61.1683 39.9762 61.2035 40.0114 61.2739 40.0467C61.2387 40.0114 61.2035 39.9762 61.1683 39.9762C61.2387 40.0114 61.2739 40.0819 61.309 40.1171C61.2739 40.0819 61.2387 40.0467 61.2387 40.0115C61.2739 40.0819 61.3442 40.1523 61.3794 40.2228C61.3794 40.1876 61.3442 40.1523 61.3442 40.1171C61.3794 40.1876 61.3794 40.258 61.4146 40.3637C61.4146 40.3285 61.4146 40.258 61.3794 40.2228C61.3794 40.2932 61.3794 40.3637 61.3794 40.4341C61.3794 40.3989 61.3794 40.3284 61.4146 40.2932C61.4146 40.3637 61.3794 40.4341 61.3794 40.5045C61.3794 40.4693 61.4146 40.4341 61.4146 40.3989C61.3794 40.4341 61.3794 40.5046 61.3442 40.5398C61.3794 40.5046 61.3794 40.4693 61.4146 40.4341C61.3794 40.4693 61.3442 40.5046 61.309 40.5398C61.3442 40.5046 61.3794 40.5046 61.4146 40.4693C61.3794 40.5046 61.309 40.5398 61.2739 40.5398C61.309 40.5398 61.3442 40.5045 61.3794 40.5045C61.309 40.5398 61.2739 40.5398 61.2035 40.5398C61.2387 40.5398 61.2739 40.5398 61.3442 40.5398C61.2739 40.5398 61.2035 40.5398 61.1331 40.5398C61.1683 40.5398 61.2035 40.5398 61.2739 40.5398C61.2035 40.5398 61.1331 40.5046 61.0276 40.4693C61.0627 40.4693 61.0979 40.5045 61.1331 40.5045C61.0627 40.4693 60.9924 40.4341 60.922 40.3637C60.9572 40.3989 60.9924 40.3989 61.0276 40.4341C60.9572 40.3989 60.922 40.3284 60.8516 40.258C60.8868 40.2932 60.8868 40.3285 60.922 40.3637C60.8868 40.2932 60.8516 40.258 60.8164 40.1876C60.8164 40.2228 60.8516 40.258 60.8516 40.2932C60.8164 40.2228 60.8164 40.1876 60.8164 40.1171C60.8164 40.1523 60.8164 40.1875 60.8164 40.258C60.8164 40.1875 60.8164 40.1171 60.8164 40.0467C60.8164 40.0819 60.8164 40.1171 60.8164 40.1876C60.8164 40.1171 60.8516 40.0819 60.8516 40.0467C60.8516 40.0819 60.8164 40.1171 60.8164 40.1523C60.8164 40.1171 60.8516 40.0819 60.8868 40.0467C60.8516 40.0819 60.8516 40.1171 60.8164 40.1523C60.8516 40.1171 60.8516 40.0819 60.8868 40.0819C60.8516 40.1171 60.8164 40.1171 60.7812 40.1523C60.8164 40.1523 60.8164 40.1171 60.8516 40.1171C60.8164 40.1171 60.7812 40.1523 60.7461 40.1523C60.7812 40.1523 60.8516 40.1171 60.8868 40.0819C60.8516 40.0819 60.8164 40.1171 60.7812 40.1171C60.8164 40.1171 60.8164 40.1171 60.8516 40.0819C60.8164 40.0819 60.7812 40.0819 60.7461 40.0819H60.7812C60.7461 40.0819 60.7109 40.0819 60.6757 40.0819H60.7109C60.6405 40.0819 60.6053 40.0467 60.6757 40.0819C60.7109 40.1171 60.6053 40.0114 60.6405 40.0467C60.6757 40.0819 60.6053 39.9762 60.6053 40.0115C60.6053 40.0115 60.6053 40.0467 60.6405 40.0467C60.6053 39.9762 60.6053 39.9762 60.6053 40.0115C60.6053 40.0467 60.6053 40.0114 60.6053 39.941C60.6053 40.0114 60.6053 40.0467 60.6405 40.1171C60.6757 40.1523 60.6757 40.1876 60.7109 40.1876C60.7109 40.0819 60.6757 39.9762 60.6757 39.8353C60.6757 39.8706 60.6757 39.8706 60.7109 39.8001C60.6053 39.9058 60.6053 40.0467 60.6757 40.1523C60.7109 40.3637 60.8516 40.3989 60.9572 40.3284Z" fill="#181D23"></path><path d="M10.7812 47.6548C10.4997 48.1479 10.2886 48.7114 10.0775 49.2046C9.86636 49.7329 9.62005 50.226 9.44412 50.7544C9.37375 51.0009 9.51449 51.2827 9.7608 51.3531C9.97192 51.4588 10.3238 51.3884 10.3942 51.1418C10.6053 50.6135 10.8164 50.0499 10.9923 49.5216C11.1683 48.9932 11.3794 48.4649 11.4849 47.9366C11.5201 47.7604 11.4497 47.5491 11.2738 47.4786C11.0979 47.4434 10.8868 47.5139 10.7812 47.6548Z" fill="#181D23"></path><path d="M13.7721 46.9856C13.4202 47.4435 13.1739 47.9718 12.8924 48.5002C12.6109 49.0285 12.3294 49.5921 12.0127 50.1204C11.7313 50.6487 11.4146 51.1771 11.1331 51.6702C10.8164 52.1985 10.4294 52.7269 10.2534 53.3257C10.1127 53.8188 10.746 54.2062 11.0979 53.8188C11.4849 53.3961 11.7664 52.7973 12.0479 52.269C12.3294 51.7407 12.6109 51.1771 12.8924 50.6135C13.1387 50.0852 13.4202 49.5216 13.6665 48.9933C13.9128 48.4649 14.2295 47.8661 14.2999 47.2674C14.335 46.9856 14.0184 46.7038 13.7721 46.9856Z" fill="#181D23"></path><path d="M15.0037 48.3945C14.4056 49.6272 13.8426 50.8953 13.2444 52.128C12.6462 53.3608 11.9425 54.5584 11.2388 55.7912C10.8869 56.4252 11.8369 56.9888 12.224 56.3548C12.9629 55.1572 13.5963 53.8892 14.1593 52.5859C14.7222 51.3179 15.25 49.9795 15.6019 48.641C15.6723 48.2888 15.1797 48.0422 15.0037 48.3945Z" fill="#181D23"></path><path d="M15.7777 52.4099C15.074 53.6427 14.4406 54.9459 13.7721 56.2139C13.1036 57.482 12.3998 58.75 11.7313 60.018C11.3794 60.652 12.3295 61.2156 12.7165 60.5815C13.4202 59.3135 14.0888 58.0103 14.7221 56.6718C15.3555 55.3686 15.9537 54.0654 16.4111 52.6917C16.5166 52.3042 15.9537 52.0929 15.7777 52.4099Z" fill="#181D23"></path><path d="M16.8685 57.2001C16.5167 57.5171 16.2352 57.9045 15.9889 58.292C15.7074 58.6794 15.4611 59.0669 15.25 59.4543C14.7925 60.2644 14.3703 61.145 14.0536 62.0256C13.9481 62.3074 14.1592 62.6596 14.4407 62.73C14.7574 62.8005 15.0388 62.6244 15.1444 62.3426C15.4259 61.5325 15.7426 60.7223 16.1648 59.9474C16.3759 59.56 16.5871 59.1726 16.7982 58.7851C17.0093 58.3977 17.2908 58.0454 17.4667 57.6228C17.6075 57.2705 17.1852 56.9183 16.8685 57.2001Z" fill="#181D23"></path><path d="M17.4315 60.7576C17.1852 61.286 16.9389 61.7791 16.6574 62.2722C16.5166 62.5187 16.3759 62.7653 16.2352 63.0119C16.1648 63.1175 16.0944 63.2584 15.9888 63.3641C15.9537 63.4345 15.9185 63.505 15.8481 63.5402C15.8129 63.5754 15.8129 63.6107 15.7777 63.6459C15.8129 63.6107 15.8129 63.6107 15.7777 63.6459C15.5314 63.9277 15.5314 64.3151 15.8481 64.5617C16.1296 64.773 16.587 64.7026 16.7278 64.3855C16.8685 64.1038 17.0444 63.8572 17.1852 63.6107C17.3259 63.3641 17.4667 63.0823 17.5722 62.8358C17.8537 62.2722 18.0648 61.7086 18.2408 61.1098C18.3111 60.8985 18.1704 60.652 17.9593 60.5463C17.8537 60.4758 17.537 60.5463 17.4315 60.7576Z" fill="#181D23"></path><path d="M35.7636 44.4847C35.3414 43.9916 35.0247 43.4632 34.884 42.794C34.7432 42.1248 34.8136 41.4203 34.9895 40.7863C35.4822 39.2717 36.8544 38.1798 38.1211 37.3345C39.5286 36.3835 41.0416 35.4677 42.7657 35.362C44.3139 35.2916 45.8621 35.8199 46.9881 36.8766C48.29 38.1094 48.9234 39.9057 48.7826 41.6669C48.7122 42.4418 49.9438 42.4418 50.0141 41.6669C50.1901 39.7648 49.5215 37.8276 48.2548 36.3835C47.0233 34.9746 45.1936 34.1644 43.3287 34.094C41.2175 33.9883 39.3175 35.0098 37.6285 36.1369C36.0803 37.1584 34.5673 38.4264 33.8988 40.2227C33.3006 41.843 33.5821 44.3086 35.3766 45.013C35.7988 45.2948 35.9748 44.7312 35.7636 44.4847Z" fill="#181D23"></path><path d="M38.9656 36.1369C38.2971 37.3345 37.7341 38.5673 37.1007 39.8001C36.4674 40.9977 35.7636 42.1953 35.0599 43.3576C34.708 43.9212 35.6229 44.4495 35.9748 43.886C36.6785 42.6884 37.347 41.4556 37.9804 40.2228C38.6137 38.99 39.2471 37.7572 39.7045 36.4539C39.8101 36.0312 39.1767 35.7495 38.9656 36.1369Z" fill="#181D23"></path><path d="M42.0621 35.4677C41.2528 36.8062 40.6546 38.2856 40.0213 39.6945C39.7046 40.3989 39.3527 41.1034 39.036 41.843C38.8601 42.1953 38.7194 42.5475 38.5434 42.8997C38.4027 43.252 38.1916 43.6042 38.1212 43.9564C38.0508 44.3791 38.6138 44.8722 38.9657 44.4495C39.4231 43.8507 39.6694 43.0406 39.9509 42.3714C40.2676 41.6317 40.5843 40.8568 40.9361 40.1171C41.5695 38.673 42.2732 37.2289 42.7306 35.7143C42.8362 35.3269 42.2732 35.1155 42.0621 35.4677Z" fill="#181D23"></path><path d="M44.5955 35.9961C44.2436 36.6301 43.8918 37.2289 43.5751 37.8629C43.2584 38.4617 42.9769 39.0604 42.625 39.624C41.9565 40.8568 41.2176 42.0191 40.4787 43.1815C40.0916 43.7803 41.0416 44.3086 41.4287 43.745C42.2028 42.5827 42.9065 41.3499 43.5399 40.0819C43.8566 39.4479 44.1381 38.8491 44.4195 38.1799C44.701 37.5107 44.9122 36.8767 45.0881 36.1722C45.1936 35.9257 44.7362 35.7143 44.5955 35.9961Z" fill="#181D23"></path><path d="M46.3547 36.8766C46.0732 37.4402 45.9325 38.0742 45.7565 38.6377C45.5454 39.2717 45.2991 39.8705 45.0176 40.4693C44.7361 41.0329 44.4546 41.5964 44.1028 42.16C43.7509 42.7236 43.3287 43.2167 43.012 43.7802C42.7305 44.2733 43.399 44.7665 43.7861 44.379C44.2787 43.9211 44.6306 43.2871 44.9824 42.7235C45.3343 42.16 45.651 41.526 45.9325 40.9272C46.2139 40.3284 46.4251 39.6944 46.601 39.0604C46.7769 38.4264 46.988 37.6867 46.9529 37.0175C46.9177 36.7357 46.4954 36.5596 46.3547 36.8766Z" fill="#181D23"></path><path d="M48.3956 38.6377C47.7975 39.3774 47.3049 40.2227 46.8826 41.0328C46.4252 41.8782 46.0382 42.7587 45.6863 43.6393C45.5807 43.9211 45.7919 44.2381 46.0733 44.3085C46.39 44.379 46.6363 44.2029 46.7419 43.9211C47.0234 43.0757 47.3752 42.2656 47.7623 41.4907C48.1493 40.6806 48.642 39.9409 49.0642 39.1308C49.2401 38.7434 48.7123 38.2502 48.3956 38.6377Z" fill="#181D23"></path><path d="M49.3455 58.0455C49.0992 58.4681 48.8881 58.926 48.6066 59.3487C48.5362 59.4544 48.4659 59.5601 48.3955 59.6305C48.4307 59.5953 48.3955 59.6305 48.3603 59.6657C48.3251 59.701 48.3251 59.701 48.2899 59.7362C48.2548 59.7714 48.2196 59.8418 48.1492 59.8771C48.0788 59.9827 47.9733 60.0532 47.9029 60.1588C47.8677 60.1941 47.7973 60.2645 47.7621 60.2997C47.727 60.335 47.6918 60.335 47.6918 60.3702C47.4455 60.5463 47.3399 60.8633 47.551 61.1099C47.727 61.3212 48.114 61.3917 48.3251 61.1451C48.7122 60.7224 49.064 60.2997 49.3455 59.8066C49.4863 59.5601 49.627 59.3135 49.7326 59.0317C49.7678 58.9261 49.8381 58.7852 49.8733 58.6795C49.9085 58.5386 49.9437 58.3977 49.9437 58.2568C49.9789 58.0807 49.9085 57.9398 49.7678 57.8694C49.627 57.8341 49.4159 57.9046 49.3455 58.0455Z" fill="#181D23"></path><path d="M51.5624 58.5034C51.0698 58.8908 50.7179 59.4192 50.3309 59.9123C49.9438 60.4054 49.5568 60.9337 49.1697 61.4269C48.4308 62.4483 47.6567 63.4346 46.9178 64.456C46.7419 64.7026 46.8826 65.0548 47.1289 65.1957C47.4104 65.3718 47.6919 65.2309 47.8678 64.9844C48.6068 63.9629 49.3457 62.9414 50.0846 61.92C50.4365 61.3916 50.8235 60.8985 51.1754 60.3702C51.5272 59.877 51.8791 59.3839 52.1254 58.7851C52.231 58.4681 51.8087 58.3272 51.5624 58.5034Z" fill="#181D23"></path><path d="M53.8143 59.3487C52.7587 60.6872 51.7383 62.0256 50.7179 63.3993C50.1901 64.0686 49.6974 64.773 49.1697 65.4422C48.677 66.1115 48.1141 66.7807 47.6566 67.5204C47.3752 67.9783 48.0437 68.5066 48.4307 68.1192C48.9937 67.4852 49.4863 66.7807 49.9789 66.1115C50.4716 65.407 50.9993 64.7378 51.492 64.0333C52.5124 62.6596 53.5328 61.286 54.4828 59.8771C54.7643 59.4896 54.1309 58.9613 53.8143 59.3487Z" fill="#181D23"></path><path d="M56.5237 60.6871C55.2218 61.9903 54.0958 63.5049 52.8994 64.9491C51.7031 66.3932 50.5068 67.8373 49.3808 69.2815C48.9938 69.7746 49.6623 70.5143 50.1197 70.0212C51.3512 68.577 52.5476 67.0977 53.7439 65.6183C54.9051 64.1742 56.1718 62.73 57.2274 61.1802C57.4385 60.7928 56.8755 60.3701 56.5237 60.6871Z" fill="#181D23"></path><path d="M59.233 61.9552C57.0514 64.6321 54.905 67.3442 52.6531 69.986C52.2309 70.4791 52.9346 71.2187 53.392 70.7256C55.6791 68.1191 57.9663 65.3718 59.9719 62.5187C60.2534 62.0608 59.5848 61.5325 59.233 61.9552Z" fill="#181D23"></path><path d="M63.3499 62.3073C61.872 63.6458 60.5701 65.1956 59.3034 66.7454C58.6701 67.4851 58.0719 68.26 57.4737 69.0349C56.8755 69.845 56.207 70.6551 55.7144 71.5005C55.4329 71.9936 56.1366 72.5924 56.5237 72.1345C57.157 71.3948 57.72 70.5847 58.283 69.7746C58.8812 68.9645 59.5145 68.1895 60.1127 67.4146C61.3442 65.8648 62.7165 64.4207 63.948 62.8709C64.2999 62.4834 63.7721 61.9551 63.3499 62.3073Z" fill="#181D23"></path><path d="M65.9888 64.0333C64.6869 65.2661 63.5961 66.7454 62.4701 68.1543C61.3441 69.5632 60.2182 70.9722 59.0922 72.4163C58.7052 72.9094 59.5496 73.5786 59.9367 73.0855C61.0627 71.6766 62.1886 70.2325 63.3146 68.8236C64.4406 67.4147 65.6369 66.041 66.5869 64.5264C66.8684 64.1037 66.3054 63.7163 65.9888 64.0333Z" fill="#181D23"></path><path d="M68.7333 65.4421C68.4166 65.583 68.1352 65.9353 67.8889 66.217C67.6074 66.4988 67.3611 66.8158 67.1147 67.0976C66.587 67.7316 66.0592 68.3656 65.5665 68.9997C64.5813 70.2677 63.6313 71.5709 62.7516 72.9446C62.3646 73.5434 63.3146 74.1069 63.7017 73.5082C64.5813 72.1697 65.4962 70.8665 66.4462 69.5984C66.9036 68.9644 67.3962 68.3656 67.8537 67.7669C68.1 67.4499 68.3463 67.1328 68.5926 66.8158C68.8389 66.5341 69.1204 66.2171 69.2611 65.8296C69.3667 65.5478 68.9796 65.3365 68.7333 65.4421Z" fill="#181D23"></path><path d="M72.2872 67.0624C70.8797 68.3657 69.6834 69.9155 68.4519 71.3596C67.2203 72.8389 65.9888 74.3183 64.7925 75.7976C64.335 76.3612 65.1443 77.1361 65.5666 76.5725C66.7981 75.0579 68.0296 73.5434 69.2611 72.0288C70.4927 70.5495 71.7946 69.1053 72.8854 67.5203C73.1668 67.1681 72.6039 66.7807 72.2872 67.0624Z" fill="#181D23"></path><path d="M71.9001 71.6414C71.4778 71.9584 71.1611 72.4868 70.8093 72.9094C70.4574 73.3673 70.1055 73.79 69.7537 74.2479C69.0148 75.1284 68.2759 75.9738 67.4314 76.7487C66.9388 77.2418 67.7129 78.0167 68.2055 77.5236C68.9796 76.6783 69.7537 75.7977 70.4574 74.9171C70.8093 74.4592 71.1611 74.0013 71.513 73.5434C71.8297 73.0855 72.2519 72.5924 72.3927 72.0289C72.4279 71.7471 72.1112 71.4653 71.9001 71.6414Z" fill="#181D23"></path><path d="M72.0057 74.0366C71.5483 74.6001 71.126 75.1637 70.7038 75.7625C70.6334 75.8681 70.5982 76.0795 70.6334 76.1851C70.6686 76.326 70.7742 76.4669 70.8797 76.5021C71.0205 76.5726 71.1612 76.6078 71.302 76.5726C71.4427 76.5374 71.5483 76.4317 71.6186 76.326C72.0057 75.7625 72.3927 75.2341 72.7446 74.6706C72.8853 74.4593 72.815 74.1775 72.6039 74.0366C72.4983 73.8605 72.1816 73.8605 72.0057 74.0366Z" fill="#181D23"></path><path d="M37.4525 47.373V47.4082C37.4173 47.4787 37.4525 47.4082 37.4525 47.373C37.4525 47.4082 37.4525 47.4787 37.4173 47.5139C37.4173 47.5843 37.3821 47.6548 37.347 47.7252C37.347 47.7604 37.3118 47.7957 37.3118 47.8309C37.3118 47.8661 37.347 47.7252 37.3118 47.7957C37.3118 47.7957 37.3118 47.8309 37.2766 47.8309C37.2414 47.9013 37.2062 47.9718 37.171 48.007L37.1358 48.0422C37.1007 48.0775 37.2062 47.9718 37.171 48.007C37.1358 48.0422 37.1358 48.0422 37.1007 48.0774C37.0655 48.1127 36.9951 48.1831 36.9599 48.2183C36.8895 48.2536 37.0303 48.1479 36.9951 48.2183C36.9951 48.2183 36.9599 48.2183 36.9599 48.2536C36.9247 48.2888 36.8895 48.2888 36.8543 48.324C36.784 48.3592 36.7136 48.3945 36.6784 48.4297C36.5729 48.4649 36.5025 48.6058 36.4673 48.6762C36.4321 48.7819 36.4673 48.9228 36.5025 48.9933C36.5729 49.0989 36.6432 49.1694 36.7488 49.2046C36.8544 49.2398 36.9599 49.2046 37.0655 49.1694C37.734 48.8876 38.1914 48.1127 38.1211 47.4082C38.1211 47.3026 38.0859 47.2321 38.0155 47.1617C37.9451 47.0912 37.8396 47.056 37.7692 47.056C37.5933 47.0208 37.4525 47.1616 37.4525 47.373Z" fill="#181D23"></path><path d="M39.9509 47.69C39.5287 48.324 39.212 49.0284 38.8601 49.7329C38.7194 49.9794 38.8249 50.3317 39.1064 50.4373C39.3879 50.543 39.6694 50.4021 39.775 50.1203C40.0213 49.4159 40.3731 48.7114 40.5491 47.9718C40.6195 47.5843 40.1268 47.373 39.9509 47.69Z" fill="#181D23"></path><path d="M42.6602 48.5706C42.4139 48.641 42.2027 48.7467 41.9916 48.8875C41.7805 49.0284 41.5694 49.2045 41.3935 49.3807C41.2175 49.5568 41.0768 49.7681 40.936 49.9794C40.7953 50.1908 40.7249 50.4725 40.6545 50.7191C40.5842 50.9656 40.7249 51.2474 41.0064 51.3179C41.2879 51.3883 41.499 51.2474 41.6046 50.9656C41.6046 50.9304 41.6398 50.8952 41.6398 50.8952C41.6398 50.8952 41.6749 50.7895 41.6398 50.86C41.6046 50.9304 41.6398 50.86 41.6398 50.8247C41.6398 50.7895 41.6749 50.7895 41.6749 50.7543C41.7101 50.6487 41.7805 50.5782 41.8157 50.4725C41.8509 50.4021 41.9213 50.2964 41.9564 50.226C41.9916 50.1908 42.0268 50.1555 42.062 50.0851C42.0268 50.1203 41.9916 50.1555 42.062 50.1203C42.0972 50.0851 42.0972 50.0851 42.1324 50.0499C42.2731 49.909 42.4139 49.7329 42.5546 49.6272C42.5898 49.6272 42.5898 49.592 42.625 49.592C42.5546 49.6624 42.6602 49.5568 42.625 49.592C42.6602 49.5568 42.7305 49.5215 42.7657 49.4863C42.8361 49.4511 42.9065 49.4159 42.9417 49.3454C42.8713 49.4159 43.012 49.275 42.9417 49.3454C42.9768 49.3454 42.9768 49.3102 43.012 49.3102C43.188 49.2045 43.2583 48.9932 43.188 48.7819C43.0824 48.641 42.8361 48.5001 42.6602 48.5706Z" fill="#181D23"></path><path d="M44.8769 49.4511C44.8065 49.5216 44.7362 49.592 44.6658 49.6624C44.5602 49.8033 44.701 49.592 44.6658 49.6977L44.6306 49.7329C44.5954 49.7681 44.5602 49.8033 44.5602 49.8386C44.4547 49.9795 44.3139 50.0851 44.2084 50.226C43.9621 50.4726 43.7158 50.7192 43.4343 50.9305C43.4694 50.8953 43.5046 50.8953 43.5398 50.86C43.5046 50.86 43.5046 50.8953 43.4694 50.8953C43.3639 50.9657 43.2935 51.0714 43.2231 51.177C43.188 51.3179 43.2231 51.4941 43.3287 51.5997C43.3991 51.7054 43.5046 51.7758 43.6454 51.7758C43.8213 51.8111 43.9269 51.7406 44.0676 51.635C44.3491 51.3884 44.6306 51.1418 44.8769 50.86C45.0177 50.6839 45.1584 50.5078 45.264 50.3317C45.2991 50.2612 45.3695 50.1908 45.4047 50.0851C45.4751 49.9795 45.5103 49.8738 45.5454 49.7329C45.6158 49.592 45.5103 49.3807 45.3695 49.275C45.1936 49.3102 44.9825 49.3102 44.8769 49.4511Z" fill="#181D23"></path><path d="M47.7975 50.226C47.5864 50.2965 47.3752 50.4021 47.1993 50.543C47.0234 50.6839 46.8474 50.8248 46.7067 51.0009C46.39 51.3531 46.1789 51.7406 46.0382 52.1985C45.9678 52.445 46.1437 52.762 46.39 52.8325C46.6363 52.9029 46.953 52.762 47.0234 52.4802C47.0586 52.3746 47.0586 52.3041 47.0937 52.1985C47.0937 52.1632 47.1289 52.128 47.1289 52.0928C47.1289 52.0576 47.1993 51.9871 47.1289 52.128C47.1289 52.0928 47.1289 52.0928 47.1641 52.0576C47.1993 51.9871 47.2345 51.9167 47.3049 51.811C47.3401 51.7758 47.3401 51.7406 47.3752 51.7053L47.4104 51.6701C47.34 51.7758 47.4808 51.5997 47.4104 51.6701C47.516 51.5292 47.6567 51.4236 47.7975 51.2827C47.903 51.2122 47.8327 51.2475 47.7975 51.2827L47.8327 51.2474C47.903 51.2122 47.9734 51.1418 48.0086 51.1066C47.9734 51.1418 47.9382 51.177 47.9734 51.1418L48.0086 51.1066C48.0438 51.0714 48.079 51.0361 48.1493 51.0361C48.3253 50.9305 48.3956 50.6839 48.3253 50.5078C48.2197 50.2612 48.0086 50.1556 47.7975 50.226Z" fill="#181D23"></path><path d="M50.2956 51.177C49.979 51.3179 49.6975 51.5293 49.416 51.7406C49.1345 51.9519 48.9234 52.2337 48.7474 52.5155C48.6771 52.586 48.6771 52.7621 48.7122 52.8677C48.7474 52.9734 48.7826 53.0438 48.8882 53.1143C48.9585 53.1847 49.0641 53.22 49.1697 53.22C49.2752 53.22 49.416 53.1847 49.4863 53.0791C49.6271 52.903 49.7678 52.7621 49.9086 52.5859C50.0493 52.445 50.2253 52.3042 50.4012 52.1633C50.366 52.1985 50.3308 52.1985 50.2956 52.2337C50.366 52.1985 50.4364 52.1281 50.5068 52.0928C50.4716 52.1281 50.4364 52.1281 50.4012 52.1633C50.5068 52.0928 50.6123 51.9872 50.7531 51.9167C50.929 51.8111 51.0346 51.5293 50.8938 51.3179C50.7531 51.1418 50.5068 51.0714 50.2956 51.177Z" fill="#181D23"></path><path d="M53.181 52.0576C52.7587 52.6564 52.3717 53.2904 51.9494 53.8892C51.8087 54.1005 51.9143 54.488 52.1254 54.5937C52.3717 54.7346 52.6884 54.6641 52.8291 54.4175C53.2162 53.7835 53.6032 53.1495 53.9551 52.5155C54.0606 52.3042 54.0254 52.0224 53.7791 51.8815C53.568 51.7758 53.3217 51.8815 53.181 52.0576Z" fill="#181D23"></path><path d="M57.4385 53.3609C57.4033 53.4665 57.3681 53.537 57.3329 53.6426C57.3329 53.6074 57.3681 53.5722 57.3681 53.537C57.3329 53.6074 57.2977 53.6779 57.2625 53.7483C57.2625 53.7131 57.2977 53.6778 57.2977 53.6426C57.2273 53.8187 57.157 53.9596 57.0514 54.1005C57.0866 54.0653 57.0866 54.0301 57.1218 53.9949C57.0162 54.1357 56.9107 54.2414 56.7699 54.3471C56.8051 54.3119 56.8403 54.3119 56.8755 54.2767C56.8051 54.3471 56.6995 54.4175 56.594 54.4528C56.3829 54.5584 56.3125 54.8754 56.418 55.0868C56.5588 55.2981 56.8403 55.3686 57.0514 55.2629C57.3681 55.0868 57.6496 54.805 57.8607 54.5232C57.9663 54.3823 58.0366 54.2062 58.107 54.0301C58.1774 53.854 58.2126 53.6779 58.2126 53.5018C58.2126 53.3961 58.1422 53.2552 58.0718 53.22C58.0014 53.1495 57.9311 53.1143 57.8255 53.1143C57.6848 53.0438 57.4736 53.1847 57.4385 53.3609Z" fill="#181D23"></path><path d="M60.1829 53.6778C60.007 53.9244 59.8663 54.1357 59.7255 54.3823C59.5848 54.6288 59.444 54.8754 59.3033 55.1219C59.1977 55.3333 59.2329 55.6503 59.4792 55.7559C59.7255 55.8968 59.9718 55.7912 60.1126 55.5798C60.2533 55.3333 60.4292 55.1219 60.57 54.8754C60.7107 54.6288 60.8515 54.3823 60.9922 54.1357C61.0978 53.9244 61.0626 53.6074 60.8163 53.5017C60.57 53.396 60.3237 53.4665 60.1829 53.6778Z" fill="#181D23"></path><path d="M62.9628 54.8754C62.4702 55.4742 62.0479 56.1434 61.6257 56.7774C61.485 56.9888 61.5905 57.341 61.8016 57.4467C62.0479 57.5875 62.3294 57.5171 62.4702 57.2705C62.8572 56.6365 63.2795 56.0378 63.6313 55.3685C63.7369 55.1924 63.7017 54.9459 63.5258 54.805C63.385 54.6993 63.1035 54.6993 62.9628 54.8754Z" fill="#181D23"></path><path d="M66.974 54.9811C66.024 55.5799 65.3906 56.5661 65.0036 57.5876C64.898 57.8694 65.1091 58.2216 65.3906 58.2568C65.7073 58.3273 65.9888 58.1512 66.0592 57.8694C66.0943 57.7989 66.0943 57.7637 66.1295 57.6933C66.1295 57.658 66.1295 57.6581 66.1647 57.6228C66.1647 57.6228 66.1999 57.5172 66.1647 57.5876C66.1295 57.658 66.1647 57.5524 66.1647 57.5524C66.1647 57.5172 66.1999 57.5172 66.1999 57.4819C66.2351 57.4467 66.2351 57.3763 66.2703 57.341C66.3758 57.1297 66.5166 56.9184 66.6221 56.707C66.6573 56.6718 66.6925 56.6014 66.7277 56.5662C66.7277 56.5662 66.7629 56.5309 66.7629 56.4957C66.7277 56.5309 66.7277 56.5661 66.7277 56.5309C66.7277 56.5309 66.7277 56.4957 66.7629 56.4957C66.8333 56.39 66.9036 56.3196 67.0092 56.2139C67.1499 56.0378 67.3259 55.8617 67.5018 55.6856C67.6777 55.5095 67.6777 55.2629 67.537 55.0868C67.4314 54.9107 67.1851 54.8402 66.974 54.9811Z" fill="#181D23"></path><path d="M69.7537 56.249C69.4722 56.5308 69.2259 56.8478 68.9796 57.1296C68.6981 57.4466 68.4518 57.7989 68.2055 58.1511C68.1351 58.2216 68.1351 58.3977 68.1703 58.5033C68.2055 58.609 68.2407 58.6794 68.3462 58.7499C68.5222 58.8908 68.8037 58.8908 68.9444 58.7147C69.2259 58.3977 69.5074 58.0807 69.7537 57.7284C70 57.4114 70.2463 57.0944 70.4222 56.7422C70.5278 56.5661 70.4574 56.3547 70.3167 56.2138C70.1056 56.1081 69.8945 56.1081 69.7537 56.249Z" fill="#181D23"></path><path d="M74.0466 57.9398C73.7299 58.3977 73.378 58.8556 73.0613 59.3135C72.991 59.4192 72.9558 59.5953 72.991 59.7362C73.0261 59.8771 73.1317 59.9827 73.2373 60.0532C73.5188 60.1941 73.8002 60.1236 73.9762 59.877C74.2929 59.3839 74.5743 58.926 74.8558 58.4329C74.9966 58.2216 74.9262 57.8693 74.6799 57.7637C74.5743 57.6932 74.4336 57.658 74.2929 57.7285C74.2225 57.7637 74.1521 57.8341 74.0466 57.9398Z" fill="#181D23"></path></svg> 