										<svg width="367" height="360" viewBox="0 0 367 360" fill="none" xmlns="http://www.w3.org/2000/svg">
											<g class="window-clouds">
												<g opacity="0.9">
													<path
														d="M53.8452 130.025H22.0889L34.5268 128.306C34.615 127.542 34.4209 125.555 32.939 123.721C31.457 121.888 36.7321 124.485 39.5549 126.013C39.0256 125.345 38.8668 123.263 42.4658 120.283C46.9646 116.558 55.6976 126.3 58.344 126.013C60.9903 125.727 60.9903 130.025 53.8452 130.025Z"
														fill="white" />
													<path
														d="M103.53 112.332C101.255 113.478 103.861 115.054 105.449 115.699L137.735 116.917C138.087 116.773 138.872 116.243 139.19 115.269C139.587 114.051 138.462 112.69 136.808 111.688C135.485 110.885 133.831 112.022 133.17 112.69C133.192 112.189 132.455 110.241 129.332 106.459C125.429 101.731 121.062 102.233 116.762 102.662C113.322 103.006 114.447 106.196 115.439 107.748C115.13 107.748 114.248 107.591 113.19 106.96C111.866 106.172 110.676 106.459 108.558 107.748C106.865 108.78 109.264 111.234 110.676 112.332C110.279 112.094 109.022 111.53 107.169 111.186C104.854 110.757 106.375 110.9 103.53 112.332Z"
														fill="white" />
												</g>
												<g opacity="0.9">
													<path
														d="M138.468 116.143C138.794 114.753 138.251 113.168 137.131 112.366C135.974 111.544 134.365 111.661 133.317 112.6C133.244 112.679 133.136 112.64 133.1 112.542C132.051 109.215 129.846 106.397 127.099 104.577C125.725 103.657 124.207 102.991 122.616 102.62C120.971 102.248 119.127 102.111 117.5 102.678C116.561 103.011 115.711 103.618 115.187 104.538C114.699 105.399 114.5 106.495 114.88 107.454C114.916 107.551 114.843 107.727 114.717 107.669C113.976 107.336 113.198 107.062 112.403 106.906C111.644 106.749 110.812 106.612 110.035 106.71C108.553 106.906 108.282 108.706 108.896 109.939C109.294 110.722 109.909 111.328 110.505 111.916C110.632 112.033 110.469 112.229 110.343 112.15C109.095 111.485 107.703 111.152 106.33 111.191C105.968 111.211 105.625 111.231 105.281 111.309C104.974 111.368 104.631 111.407 104.341 111.544C104.07 111.661 103.293 112.366 103.817 112.62C103.98 112.698 103.835 112.953 103.673 112.874C103.13 112.62 103.438 111.955 103.745 111.642C104.251 111.113 105.046 111.035 105.715 110.957C107.36 110.761 109.023 111.094 110.505 111.896C110.451 111.974 110.397 112.052 110.343 112.131C109.294 111.113 108.119 109.861 108.372 108.178C108.481 107.512 108.824 106.886 109.403 106.612C110.144 106.26 111.066 106.416 111.843 106.514C112.873 106.671 113.867 106.964 114.825 107.395C114.771 107.473 114.717 107.532 114.663 107.61C113.976 105.868 114.898 103.911 116.289 102.972C117.862 101.915 119.886 101.876 121.676 102.13C125.038 102.62 128.201 104.479 130.479 107.18C131.762 108.706 132.774 110.506 133.389 112.463C133.317 112.444 133.244 112.424 133.172 112.405C134.076 111.602 135.323 111.328 136.426 111.7C137.51 112.052 138.342 113.011 138.667 114.186C138.848 114.851 138.866 115.556 138.703 116.221C138.649 116.338 138.45 116.28 138.468 116.143Z"
														fill="white" />
													<path
														d="M145.699 117.023C140.131 116.886 134.582 116.71 129.015 116.534C123.484 116.358 117.952 116.182 112.421 116.006C109.294 115.908 106.167 115.81 103.04 115.693C102.913 115.693 102.913 115.477 103.04 115.477C108.607 115.653 114.156 115.849 119.724 116.025C125.255 116.201 130.786 116.397 136.317 116.573C139.444 116.671 142.571 116.788 145.699 116.925C145.753 116.925 145.753 117.023 145.699 117.023Z"
														fill="white" />
													<path
														d="M61.7553 130.429C61.7372 129.079 61.0865 127.767 60.0562 126.985C59.0259 126.202 57.7064 126.065 56.5315 126.515C55.8627 126.769 55.2843 127.219 54.8324 127.806C54.7782 127.865 54.6878 127.846 54.6517 127.787C52.9164 124.891 50.3136 122.62 47.313 121.387C45.8128 120.761 44.186 120.37 42.5773 120.409C41.0047 120.448 39.3056 120.977 38.2753 122.346C37.3173 123.638 36.9557 125.654 37.9499 127.043C38.0403 127.18 37.8776 127.356 37.7872 127.219C36.6123 125.732 34.5517 125.223 32.9068 126.026C32.9249 125.967 32.943 125.908 32.943 125.849C33.4491 127.024 34.154 128.08 35.0397 128.961C35.1301 129.039 35.0578 129.176 34.9493 129.176C31.3523 129.509 27.7555 129.842 24.1765 130.194C23.1643 130.292 22.134 130.39 21.1218 130.488C20.9591 130.507 20.9591 130.214 21.1218 130.214C24.7188 129.881 28.3156 129.548 31.8946 129.216C32.9068 129.118 33.9371 129.02 34.9493 128.922C34.9132 129 34.8951 129.079 34.8589 129.137C33.9552 128.257 33.2322 127.18 32.7261 125.986C32.708 125.928 32.708 125.83 32.7622 125.81C34.4975 124.949 36.6846 125.458 37.9318 127.043C37.8776 127.102 37.8053 127.141 37.7511 127.2C36.8654 125.947 36.9919 124.225 37.6426 122.894C38.4199 121.348 39.884 120.507 41.4385 120.252C43.1376 119.959 44.909 120.272 46.5358 120.82C48.1265 121.368 49.6267 122.19 50.9643 123.247C52.4826 124.44 53.8021 125.928 54.8324 127.65C54.7782 127.65 54.7059 127.63 54.6517 127.63C55.4832 126.515 56.8207 125.928 58.1402 126.006C59.4597 126.104 60.6347 126.926 61.3215 128.159C61.7011 128.844 61.918 129.627 61.918 130.429C61.9361 130.566 61.7553 130.566 61.7553 130.429Z"
														fill="white" />
													<path
														d="M67.178 131.447C64.9185 130.918 62.5868 130.762 60.2731 130.683C57.9233 130.605 55.5555 130.566 53.2056 130.507C48.4517 130.39 43.7161 130.253 38.9622 130.135C36.287 130.057 33.6118 129.998 30.9366 129.92C30.81 129.92 30.81 129.705 30.9366 129.705C35.7085 129.822 40.4985 129.959 45.2705 130.096C50.0425 130.233 54.8142 130.331 59.5682 130.488C62.1168 130.566 64.7017 130.703 67.1961 131.31C67.3226 131.31 67.2865 131.466 67.178 131.447Z"
														fill="white" />
												</g>
												<path opacity="0.9"
													d="M350.182 123.453C351.832 122.484 353.148 124.335 353.599 125.382C349.703 125.705 340.92 126.311 336.955 126.143C332.991 125.975 323.706 126.07 319.559 126.138L319.43 125L323.37 124.478C323.043 124.137 322.072 123.251 320.807 122.437C319.226 121.419 321.214 120.146 322.864 119.999C324.184 119.882 327.768 120.336 329.395 120.578C328.749 119.581 327.622 117.161 328.283 115.457C329.109 113.327 333.922 114.638 339.67 116.546C344.269 118.073 346.802 123.227 347.493 125.613C347.702 125.297 348.532 124.422 350.182 123.453Z"
													fill="white" />
												<g opacity="0.9">
													<path
														d="M358.866 125.098C353.999 125.499 349.099 125.725 344.22 125.792C339.378 125.855 334.542 125.781 329.709 125.529C326.956 125.398 324.197 125.208 321.454 124.978C321.308 124.973 321.36 124.732 321.487 124.739C326.352 125.145 331.224 125.413 336.117 125.521C340.975 125.633 345.835 125.568 350.703 125.384C353.436 125.281 356.143 125.102 358.869 124.921C358.959 124.912 358.974 125.087 358.866 125.098Z"
														fill="white" />
													<path
														d="M352.936 126.217C352.477 124.907 351.372 123.9 350.084 123.698C348.757 123.48 347.383 124.171 346.616 125.37C346.569 125.453 346.44 125.427 346.413 125.332C345.128 121.63 342.501 118.577 339.321 116.681C336.142 114.786 332.385 113.971 328.82 114.729C328.285 114.843 327.639 114.929 327.22 115.326C326.782 115.724 326.749 116.376 326.87 116.934C327.139 118.145 328.155 118.965 328.46 120.172C328.486 120.267 328.423 120.372 328.313 120.364C326.584 119.892 324.797 119.603 323.012 119.531C322.593 119.515 322.173 119.499 321.758 119.521C321.378 119.541 320.968 119.622 320.727 119.981C320.323 120.553 320.651 121.404 321.056 121.874C321.622 122.543 322.452 122.89 323.018 123.56C323.081 123.652 323.019 123.776 322.929 123.785C321.49 123.933 320.055 124.138 318.627 124.422C318.66 124.38 318.709 124.316 318.741 124.273C318.717 125.651 317.337 126.697 316.134 126.23C315.966 126.169 316.088 125.901 316.256 125.962C317.253 126.352 318.462 125.442 318.489 124.299C318.483 124.221 318.532 124.157 318.604 124.149C320.031 123.866 321.466 123.66 322.905 123.512C322.876 123.594 322.845 123.656 322.816 123.738C322.249 123.068 321.44 122.739 320.873 122.069C320.449 121.582 320.165 120.825 320.379 120.154C320.633 119.322 321.498 119.253 322.187 119.242C323.15 119.241 324.119 119.319 325.091 119.436C326.193 119.578 327.302 119.799 328.381 120.101C328.332 120.165 328.283 120.229 328.235 120.293C327.952 119.143 327.032 118.372 326.697 117.247C326.567 116.788 326.506 116.303 326.647 115.836C326.786 115.35 327.138 115.019 327.575 114.817C328.029 114.614 328.529 114.523 328.994 114.436C329.458 114.349 329.925 114.282 330.41 114.232C331.348 114.156 332.276 114.179 333.211 114.28C336.971 114.72 340.588 116.63 343.257 119.541C344.742 121.159 345.928 123.101 346.66 125.247C346.587 125.235 346.531 125.221 346.457 125.209C347.079 124.222 348.113 123.585 349.209 123.453C350.287 123.323 351.359 123.744 352.155 124.547C352.593 124.994 352.932 125.549 353.15 126.175C353.139 126.255 352.964 126.332 352.936 126.217Z"
														fill="white" />
												</g>
												<path opacity="0.9"
													d="M238.031 124.021C239.681 123.052 240.996 124.903 241.448 125.95C237.552 126.273 228.769 126.878 224.804 126.711C220.839 126.543 211.554 126.638 207.407 126.706L207.279 125.568L211.219 125.046C210.892 124.705 209.92 123.818 208.655 123.005C207.074 121.987 209.063 120.714 210.713 120.567C212.033 120.45 215.616 120.904 217.243 121.145C216.598 120.149 215.471 117.729 216.132 116.025C216.957 113.895 221.771 115.206 227.519 117.114C232.117 118.641 234.65 123.795 235.342 126.181C235.551 125.865 236.38 124.99 238.031 124.021Z"
													fill="white" />
												<g opacity="0.9">
													<path
														d="M246.715 125.666C241.848 126.066 236.947 126.293 232.069 126.36C227.227 126.423 222.391 126.348 217.557 126.096C214.804 125.965 212.046 125.776 209.302 125.546C209.157 125.541 209.208 125.3 209.336 125.307C214.201 125.713 219.072 125.981 223.966 126.089C228.823 126.201 233.684 126.136 238.552 125.952C241.284 125.849 243.992 125.67 246.718 125.489C246.808 125.48 246.823 125.655 246.715 125.666Z"
														fill="white" />
													<path
														d="M240.785 126.785C240.326 125.475 239.221 124.468 237.932 124.266C236.606 124.048 235.232 124.739 234.465 125.938C234.418 126.021 234.289 125.995 234.262 125.9C232.976 122.198 230.349 119.145 227.17 117.249C223.99 115.353 220.233 114.539 216.668 115.297C216.134 115.411 215.487 115.497 215.068 115.893C214.631 116.292 214.597 116.944 214.718 117.502C214.988 118.713 216.003 119.533 216.309 120.74C216.335 120.835 216.272 120.94 216.162 120.932C214.432 120.46 212.646 120.171 210.86 120.099C210.441 120.083 210.022 120.066 209.607 120.089C209.227 120.109 208.816 120.19 208.575 120.549C208.172 121.121 208.5 121.972 208.904 122.442C209.471 123.111 210.3 123.458 210.867 124.128C210.93 124.22 210.868 124.344 210.778 124.353C209.338 124.5 207.904 124.706 206.476 124.99C206.509 124.947 206.557 124.883 206.59 124.841C206.565 126.219 205.186 127.265 203.983 126.798C203.814 126.737 203.936 126.469 204.105 126.53C205.101 126.92 206.311 126.01 206.338 124.867C206.331 124.789 206.38 124.725 206.452 124.717C207.88 124.434 209.314 124.228 210.754 124.08C210.725 124.162 210.694 124.224 210.665 124.306C210.098 123.636 209.288 123.306 208.722 122.637C208.298 122.15 208.014 121.393 208.227 120.722C208.482 119.89 209.347 119.821 210.036 119.809C210.998 119.809 211.967 119.887 212.94 120.004C214.042 120.146 215.15 120.367 216.23 120.669C216.181 120.733 216.132 120.797 216.083 120.861C215.801 119.711 214.88 118.94 214.546 117.814C214.415 117.356 214.355 116.871 214.496 116.404C214.635 115.918 214.987 115.587 215.423 115.385C215.878 115.182 216.378 115.091 216.842 115.004C217.307 114.917 217.773 114.85 218.259 114.8C219.196 114.724 220.124 114.747 221.059 114.848C224.82 115.288 228.436 117.198 231.105 120.109C232.59 121.726 233.777 123.669 234.509 125.815C234.435 125.803 234.38 125.789 234.306 125.777C234.928 124.79 235.961 124.153 237.057 124.021C238.135 123.891 239.207 124.312 240.004 125.115C240.442 125.562 240.781 126.117 240.999 126.743C240.988 126.823 240.813 126.9 240.785 126.785Z"
														fill="white" />
												</g>
											</g>
											<g class="window-clouds-2">
												<g opacity="0.9">
													<path
														d="M53.8452 130.025H22.0889L34.5268 128.306C34.615 127.542 34.4209 125.555 32.939 123.721C31.457 121.888 36.7321 124.485 39.5549 126.013C39.0256 125.345 38.8668 123.263 42.4658 120.283C46.9646 116.558 55.6976 126.3 58.344 126.013C60.9903 125.727 60.9903 130.025 53.8452 130.025Z"
														fill="white" />
													<path
														d="M103.53 112.332C101.255 113.478 103.861 115.054 105.449 115.699L137.735 116.917C138.087 116.773 138.872 116.243 139.19 115.269C139.587 114.051 138.462 112.69 136.808 111.688C135.485 110.885 133.831 112.022 133.17 112.69C133.192 112.189 132.455 110.241 129.332 106.459C125.429 101.731 121.062 102.233 116.762 102.662C113.322 103.006 114.447 106.196 115.439 107.748C115.13 107.748 114.248 107.591 113.19 106.96C111.866 106.172 110.676 106.459 108.558 107.748C106.865 108.78 109.264 111.234 110.676 112.332C110.279 112.094 109.022 111.53 107.169 111.186C104.854 110.757 106.375 110.9 103.53 112.332Z"
														fill="white" />
												</g>
												<g opacity="0.9">
													<path
														d="M138.468 116.143C138.794 114.753 138.251 113.168 137.131 112.366C135.974 111.544 134.365 111.661 133.317 112.6C133.244 112.679 133.136 112.64 133.1 112.542C132.051 109.215 129.846 106.397 127.099 104.577C125.725 103.657 124.207 102.991 122.616 102.62C120.971 102.248 119.127 102.111 117.5 102.678C116.561 103.011 115.711 103.618 115.187 104.538C114.699 105.399 114.5 106.495 114.88 107.454C114.916 107.551 114.843 107.727 114.717 107.669C113.976 107.336 113.198 107.062 112.403 106.906C111.644 106.749 110.812 106.612 110.035 106.71C108.553 106.906 108.282 108.706 108.896 109.939C109.294 110.722 109.909 111.328 110.505 111.916C110.632 112.033 110.469 112.229 110.343 112.15C109.095 111.485 107.703 111.152 106.33 111.191C105.968 111.211 105.625 111.231 105.281 111.309C104.974 111.368 104.631 111.407 104.341 111.544C104.07 111.661 103.293 112.366 103.817 112.62C103.98 112.698 103.835 112.953 103.673 112.874C103.13 112.62 103.438 111.955 103.745 111.642C104.251 111.113 105.046 111.035 105.715 110.957C107.36 110.761 109.023 111.094 110.505 111.896C110.451 111.974 110.397 112.052 110.343 112.131C109.294 111.113 108.119 109.861 108.372 108.178C108.481 107.512 108.824 106.886 109.403 106.612C110.144 106.26 111.066 106.416 111.843 106.514C112.873 106.671 113.867 106.964 114.825 107.395C114.771 107.473 114.717 107.532 114.663 107.61C113.976 105.868 114.898 103.911 116.289 102.972C117.862 101.915 119.886 101.876 121.676 102.13C125.038 102.62 128.201 104.479 130.479 107.18C131.762 108.706 132.774 110.506 133.389 112.463C133.317 112.444 133.244 112.424 133.172 112.405C134.076 111.602 135.323 111.328 136.426 111.7C137.51 112.052 138.342 113.011 138.667 114.186C138.848 114.851 138.866 115.556 138.703 116.221C138.649 116.338 138.45 116.28 138.468 116.143Z"
														fill="white" />
													<path
														d="M145.699 117.023C140.131 116.886 134.582 116.71 129.015 116.534C123.484 116.358 117.952 116.182 112.421 116.006C109.294 115.908 106.167 115.81 103.04 115.693C102.913 115.693 102.913 115.477 103.04 115.477C108.607 115.653 114.156 115.849 119.724 116.025C125.255 116.201 130.786 116.397 136.317 116.573C139.444 116.671 142.571 116.788 145.699 116.925C145.753 116.925 145.753 117.023 145.699 117.023Z"
														fill="white" />
													<path
														d="M61.7553 130.429C61.7372 129.079 61.0865 127.767 60.0562 126.985C59.0259 126.202 57.7064 126.065 56.5315 126.515C55.8627 126.769 55.2843 127.219 54.8324 127.806C54.7782 127.865 54.6878 127.846 54.6517 127.787C52.9164 124.891 50.3136 122.62 47.313 121.387C45.8128 120.761 44.186 120.37 42.5773 120.409C41.0047 120.448 39.3056 120.977 38.2753 122.346C37.3173 123.638 36.9557 125.654 37.9499 127.043C38.0403 127.18 37.8776 127.356 37.7872 127.219C36.6123 125.732 34.5517 125.223 32.9068 126.026C32.9249 125.967 32.943 125.908 32.943 125.849C33.4491 127.024 34.154 128.08 35.0397 128.961C35.1301 129.039 35.0578 129.176 34.9493 129.176C31.3523 129.509 27.7555 129.842 24.1765 130.194C23.1643 130.292 22.134 130.39 21.1218 130.488C20.9591 130.507 20.9591 130.214 21.1218 130.214C24.7188 129.881 28.3156 129.548 31.8946 129.216C32.9068 129.118 33.9371 129.02 34.9493 128.922C34.9132 129 34.8951 129.079 34.8589 129.137C33.9552 128.257 33.2322 127.18 32.7261 125.986C32.708 125.928 32.708 125.83 32.7622 125.81C34.4975 124.949 36.6846 125.458 37.9318 127.043C37.8776 127.102 37.8053 127.141 37.7511 127.2C36.8654 125.947 36.9919 124.225 37.6426 122.894C38.4199 121.348 39.884 120.507 41.4385 120.252C43.1376 119.959 44.909 120.272 46.5358 120.82C48.1265 121.368 49.6267 122.19 50.9643 123.247C52.4826 124.44 53.8021 125.928 54.8324 127.65C54.7782 127.65 54.7059 127.63 54.6517 127.63C55.4832 126.515 56.8207 125.928 58.1402 126.006C59.4597 126.104 60.6347 126.926 61.3215 128.159C61.7011 128.844 61.918 129.627 61.918 130.429C61.9361 130.566 61.7553 130.566 61.7553 130.429Z"
														fill="white" />
													<path
														d="M67.178 131.447C64.9185 130.918 62.5868 130.762 60.2731 130.683C57.9233 130.605 55.5555 130.566 53.2056 130.507C48.4517 130.39 43.7161 130.253 38.9622 130.135C36.287 130.057 33.6118 129.998 30.9366 129.92C30.81 129.92 30.81 129.705 30.9366 129.705C35.7085 129.822 40.4985 129.959 45.2705 130.096C50.0425 130.233 54.8142 130.331 59.5682 130.488C62.1168 130.566 64.7017 130.703 67.1961 131.31C67.3226 131.31 67.2865 131.466 67.178 131.447Z"
														fill="white" />
												</g>
												<path opacity="0.9"
													d="M350.182 123.453C351.832 122.484 353.148 124.335 353.599 125.382C349.703 125.705 340.92 126.311 336.955 126.143C332.991 125.975 323.706 126.07 319.559 126.138L319.43 125L323.37 124.478C323.043 124.137 322.072 123.251 320.807 122.437C319.226 121.419 321.214 120.146 322.864 119.999C324.184 119.882 327.768 120.336 329.395 120.578C328.749 119.581 327.622 117.161 328.283 115.457C329.109 113.327 333.922 114.638 339.67 116.546C344.269 118.073 346.802 123.227 347.493 125.613C347.702 125.297 348.532 124.422 350.182 123.453Z"
													fill="white" />
												<g opacity="0.9">
													<path
														d="M358.866 125.098C353.999 125.499 349.099 125.725 344.22 125.792C339.378 125.855 334.542 125.781 329.709 125.529C326.956 125.398 324.197 125.208 321.454 124.978C321.308 124.973 321.36 124.732 321.487 124.739C326.352 125.145 331.224 125.413 336.117 125.521C340.975 125.633 345.835 125.568 350.703 125.384C353.436 125.281 356.143 125.102 358.869 124.921C358.959 124.912 358.974 125.087 358.866 125.098Z"
														fill="white" />
													<path
														d="M352.936 126.217C352.477 124.907 351.372 123.9 350.084 123.698C348.757 123.48 347.383 124.171 346.616 125.37C346.569 125.453 346.44 125.427 346.413 125.332C345.128 121.63 342.501 118.577 339.321 116.681C336.142 114.786 332.385 113.971 328.82 114.729C328.285 114.843 327.639 114.929 327.22 115.326C326.782 115.724 326.749 116.376 326.87 116.934C327.139 118.145 328.155 118.965 328.46 120.172C328.486 120.267 328.423 120.372 328.313 120.364C326.584 119.892 324.797 119.603 323.012 119.531C322.593 119.515 322.173 119.499 321.758 119.521C321.378 119.541 320.968 119.622 320.727 119.981C320.323 120.553 320.651 121.404 321.056 121.874C321.622 122.543 322.452 122.89 323.018 123.56C323.081 123.652 323.019 123.776 322.929 123.785C321.49 123.933 320.055 124.138 318.627 124.422C318.66 124.38 318.709 124.316 318.741 124.273C318.717 125.651 317.337 126.697 316.134 126.23C315.966 126.169 316.088 125.901 316.256 125.962C317.253 126.352 318.462 125.442 318.489 124.299C318.483 124.221 318.532 124.157 318.604 124.149C320.031 123.866 321.466 123.66 322.905 123.512C322.876 123.594 322.845 123.656 322.816 123.738C322.249 123.068 321.44 122.739 320.873 122.069C320.449 121.582 320.165 120.825 320.379 120.154C320.633 119.322 321.498 119.253 322.187 119.242C323.15 119.241 324.119 119.319 325.091 119.436C326.193 119.578 327.302 119.799 328.381 120.101C328.332 120.165 328.283 120.229 328.235 120.293C327.952 119.143 327.032 118.372 326.697 117.247C326.567 116.788 326.506 116.303 326.647 115.836C326.786 115.35 327.138 115.019 327.575 114.817C328.029 114.614 328.529 114.523 328.994 114.436C329.458 114.349 329.925 114.282 330.41 114.232C331.348 114.156 332.276 114.179 333.211 114.28C336.971 114.72 340.588 116.63 343.257 119.541C344.742 121.159 345.928 123.101 346.66 125.247C346.587 125.235 346.531 125.221 346.457 125.209C347.079 124.222 348.113 123.585 349.209 123.453C350.287 123.323 351.359 123.744 352.155 124.547C352.593 124.994 352.932 125.549 353.15 126.175C353.139 126.255 352.964 126.332 352.936 126.217Z"
														fill="white" />
												</g>
												<path opacity="0.9"
													d="M238.031 124.021C239.681 123.052 240.996 124.903 241.448 125.95C237.552 126.273 228.769 126.878 224.804 126.711C220.839 126.543 211.554 126.638 207.407 126.706L207.279 125.568L211.219 125.046C210.892 124.705 209.92 123.818 208.655 123.005C207.074 121.987 209.063 120.714 210.713 120.567C212.033 120.45 215.616 120.904 217.243 121.145C216.598 120.149 215.471 117.729 216.132 116.025C216.957 113.895 221.771 115.206 227.519 117.114C232.117 118.641 234.65 123.795 235.342 126.181C235.551 125.865 236.38 124.99 238.031 124.021Z"
													fill="white" />
												<g opacity="0.9">
													<path
														d="M246.715 125.666C241.848 126.066 236.947 126.293 232.069 126.36C227.227 126.423 222.391 126.348 217.557 126.096C214.804 125.965 212.046 125.776 209.302 125.546C209.157 125.541 209.208 125.3 209.336 125.307C214.201 125.713 219.072 125.981 223.966 126.089C228.823 126.201 233.684 126.136 238.552 125.952C241.284 125.849 243.992 125.67 246.718 125.489C246.808 125.48 246.823 125.655 246.715 125.666Z"
														fill="white" />
													<path
														d="M240.785 126.785C240.326 125.475 239.221 124.468 237.932 124.266C236.606 124.048 235.232 124.739 234.465 125.938C234.418 126.021 234.289 125.995 234.262 125.9C232.976 122.198 230.349 119.145 227.17 117.249C223.99 115.353 220.233 114.539 216.668 115.297C216.134 115.411 215.487 115.497 215.068 115.893C214.631 116.292 214.597 116.944 214.718 117.502C214.988 118.713 216.003 119.533 216.309 120.74C216.335 120.835 216.272 120.94 216.162 120.932C214.432 120.46 212.646 120.171 210.86 120.099C210.441 120.083 210.022 120.066 209.607 120.089C209.227 120.109 208.816 120.19 208.575 120.549C208.172 121.121 208.5 121.972 208.904 122.442C209.471 123.111 210.3 123.458 210.867 124.128C210.93 124.22 210.868 124.344 210.778 124.353C209.338 124.5 207.904 124.706 206.476 124.99C206.509 124.947 206.557 124.883 206.59 124.841C206.565 126.219 205.186 127.265 203.983 126.798C203.814 126.737 203.936 126.469 204.105 126.53C205.101 126.92 206.311 126.01 206.338 124.867C206.331 124.789 206.38 124.725 206.452 124.717C207.88 124.434 209.314 124.228 210.754 124.08C210.725 124.162 210.694 124.224 210.665 124.306C210.098 123.636 209.288 123.306 208.722 122.637C208.298 122.15 208.014 121.393 208.227 120.722C208.482 119.89 209.347 119.821 210.036 119.809C210.998 119.809 211.967 119.887 212.94 120.004C214.042 120.146 215.15 120.367 216.23 120.669C216.181 120.733 216.132 120.797 216.083 120.861C215.801 119.711 214.88 118.94 214.546 117.814C214.415 117.356 214.355 116.871 214.496 116.404C214.635 115.918 214.987 115.587 215.423 115.385C215.878 115.182 216.378 115.091 216.842 115.004C217.307 114.917 217.773 114.85 218.259 114.8C219.196 114.724 220.124 114.747 221.059 114.848C224.82 115.288 228.436 117.198 231.105 120.109C232.59 121.726 233.777 123.669 234.509 125.815C234.435 125.803 234.38 125.789 234.306 125.777C234.928 124.79 235.961 124.153 237.057 124.021C238.135 123.891 239.207 124.312 240.004 125.115C240.442 125.562 240.781 126.117 240.999 126.743C240.988 126.823 240.813 126.9 240.785 126.785Z"
														fill="white" />
												</g>
											</g>
										</svg>