<svg width="2075" height="80" viewBox="0 0 2075 80" fill="none" xmlns="http://www.w3.org/2000/svg">
<g opacity="0.1">
<path d="M1221.5 75.7687H1132.69L1167.47 71.3276C1167.72 69.3539 1167.18 64.2221 1163.03 59.485C1158.89 54.748 1173.64 61.4588 1181.54 65.4064C1180.06 63.6793 1179.61 58.3008 1189.68 50.6031C1202.26 40.981 1226.69 66.1465 1234.09 65.4064C1241.49 64.6662 1241.49 75.7687 1221.5 75.7687Z" fill="white"/>
<path d="M1360.47 30.0635C1354.1 33.0242 1361.39 37.0951 1365.83 38.7605L1456.13 41.9062C1457.12 41.5361 1459.32 40.1668 1460.2 37.6502C1461.31 34.5045 1458.17 30.9887 1453.54 28.3982C1449.84 26.3257 1445.22 29.2617 1443.37 30.9887C1443.43 29.6935 1441.37 24.6603 1432.63 14.8902C1421.72 2.67744 1409.5 3.97275 1397.48 5.083C1387.85 5.97119 1391 14.2117 1393.78 18.2209C1392.91 18.2209 1390.44 17.8138 1387.48 16.1855C1383.78 14.15 1380.45 14.8902 1374.53 18.2209C1369.79 20.8855 1376.51 27.2262 1380.45 30.0635C1379.34 29.4467 1375.83 27.9911 1370.65 27.1029C1364.17 25.9926 1368.43 26.3627 1360.47 30.0635Z" fill="white"/>
</g>
<g opacity="0.6">
<path d="M1458.18 39.9053C1459.09 36.3158 1457.58 32.2208 1454.44 30.148C1451.21 28.0246 1446.71 28.3279 1443.78 30.7546C1443.57 30.9569 1443.27 30.8558 1443.17 30.603C1440.24 22.0084 1434.07 14.7283 1426.39 10.0266C1422.54 7.65041 1418.3 5.93149 1413.85 4.97092C1409.25 4.01035 1404.09 3.65646 1399.54 5.12259C1396.91 5.98205 1394.54 7.54929 1393.07 9.92544C1391.7 12.1499 1391.15 14.9811 1392.21 17.4583C1392.31 17.7111 1392.11 18.1661 1391.75 18.0144C1389.68 17.155 1387.51 16.4472 1385.28 16.0428C1383.16 15.6383 1380.83 15.2844 1378.66 15.5372C1374.52 16.0428 1373.76 20.6939 1375.48 23.879C1376.59 25.9012 1378.31 27.4685 1379.98 28.9852C1380.33 29.2885 1379.87 29.7941 1379.52 29.5918C1376.03 27.8729 1372.14 27.0135 1368.3 27.1146C1367.29 27.1651 1366.33 27.2157 1365.36 27.4179C1364.51 27.5696 1363.54 27.6707 1362.74 28.0246C1361.98 28.3279 1359.8 30.148 1361.27 30.8052C1361.72 31.0074 1361.32 31.6647 1360.87 31.4624C1359.35 30.8052 1360.21 29.0863 1361.07 28.2774C1362.48 26.9124 1364.71 26.7101 1366.58 26.5079C1371.18 26.0023 1375.83 26.8618 1379.98 28.9346C1379.82 29.1368 1379.67 29.3391 1379.52 29.5413C1376.59 26.9124 1373.3 23.6768 1374.01 19.3289C1374.31 17.61 1375.27 15.9922 1376.89 15.2844C1378.96 14.3744 1381.54 14.7788 1383.72 15.0316C1386.6 15.4361 1389.38 16.1944 1392.06 17.3067C1391.91 17.5089 1391.75 17.6606 1391.6 17.8628C1389.68 13.3633 1392.26 8.30764 1396.15 5.88093C1400.55 3.15089 1406.21 3.04978 1411.22 3.70702C1420.62 4.97092 1429.47 9.77377 1435.84 16.7505C1439.43 20.6939 1442.26 25.3451 1443.98 30.4007C1443.78 30.3502 1443.57 30.2996 1443.37 30.2491C1445.9 28.1763 1449.39 27.4685 1452.47 28.429C1455.51 29.3391 1457.83 31.8163 1458.74 34.8497C1459.25 36.5686 1459.3 38.3886 1458.84 40.1075C1458.69 40.4109 1458.13 40.2592 1458.18 39.9053Z" fill="white"/>
<path d="M1478.41 42.1804C1462.84 41.8265 1447.32 41.3715 1431.74 40.9164C1416.27 40.4614 1400.8 40.0064 1385.33 39.5514C1376.59 39.2987 1367.84 39.0459 1359.1 38.7425C1358.74 38.7425 1358.74 38.1864 1359.1 38.1864C1374.67 38.6414 1390.19 39.147 1405.76 39.602C1421.23 40.057 1436.7 40.5626 1452.17 41.0176C1460.91 41.2703 1469.66 41.5737 1478.41 41.9276C1478.56 41.9276 1478.56 42.1804 1478.41 42.1804Z" fill="white"/>
<path d="M1243.63 76.8114C1243.58 73.3231 1241.76 69.9358 1238.87 67.9135C1235.99 65.8913 1232.3 65.5374 1229.02 66.7002C1227.15 67.3574 1225.53 68.5202 1224.26 70.0369C1224.11 70.1885 1223.86 70.138 1223.76 69.9863C1218.91 62.504 1211.63 56.6395 1203.23 53.4544C1199.04 51.8366 1194.49 50.8255 1189.99 50.9266C1185.59 51.0277 1180.84 52.3927 1177.96 55.9317C1175.28 59.2684 1174.27 64.4757 1177.05 68.0652C1177.3 68.4191 1176.84 68.8741 1176.59 68.5202C1173.3 64.6779 1167.54 63.3635 1162.94 65.4363C1162.99 65.2846 1163.04 65.1329 1163.04 64.9813C1164.46 68.0146 1166.43 70.7447 1168.91 73.0197C1169.16 73.2219 1168.96 73.5758 1168.65 73.5758C1158.59 74.4353 1148.53 75.2947 1138.52 76.2047C1135.69 76.4575 1132.81 76.7103 1129.98 76.9631C1129.52 77.0137 1129.52 76.2553 1129.98 76.2553C1140.04 75.3958 1150.1 74.5364 1160.11 73.6769C1162.94 73.4241 1165.82 73.1714 1168.65 72.9186C1168.55 73.1208 1168.5 73.323 1168.4 73.4747C1165.87 71.1997 1163.85 68.4191 1162.44 65.3351C1162.38 65.1835 1162.38 64.9307 1162.54 64.8801C1167.39 62.6557 1173.51 63.9701 1177 68.0652C1176.84 68.2169 1176.64 68.318 1176.49 68.4696C1174.01 65.234 1174.37 60.7851 1176.19 57.3473C1178.36 53.3533 1182.46 51.1794 1186.8 50.5221C1191.56 49.7638 1196.51 50.5727 1201.06 51.9883C1205.51 53.4039 1209.7 55.5272 1213.45 58.2573C1217.69 61.3412 1221.38 65.1835 1224.26 69.6324C1224.11 69.6324 1223.91 69.5819 1223.76 69.5819C1226.08 66.7002 1229.83 65.1835 1233.52 65.3857C1237.21 65.6385 1240.49 67.7618 1242.41 70.9469C1243.48 72.7164 1244.08 74.7386 1244.08 76.8114C1244.13 77.1653 1243.63 77.1653 1243.63 76.8114Z" fill="white"/>
<path d="M1258.79 79.4403C1252.47 78.0753 1245.95 77.6709 1239.48 77.4686C1232.91 77.2664 1226.29 77.1653 1219.71 77.0136C1206.42 76.7103 1193.17 76.3564 1179.88 76.0531C1172.39 75.8508 1164.91 75.6992 1157.43 75.497C1157.08 75.497 1157.08 74.9408 1157.43 74.9408C1170.78 75.2442 1184.17 75.598 1197.52 75.9519C1210.87 76.3058 1224.21 76.5586 1237.51 76.9631C1244.64 77.1653 1251.87 77.5192 1258.84 79.0865C1259.2 79.0865 1259.1 79.4909 1258.79 79.4403Z" fill="white"/>
</g>
<path opacity="0.1" d="M2050.33 58.791C2054.94 56.2876 2058.62 61.0696 2059.88 63.7736C2048.99 64.6095 2024.42 66.1732 2013.33 65.7402C2002.24 65.3071 1976.27 65.5512 1964.68 65.7274L1964.32 62.7887L1975.34 61.4405C1974.42 60.5583 1971.7 58.2682 1968.17 56.1658C1963.74 53.5377 1969.31 50.2473 1973.92 49.8692C1977.61 49.5667 1987.64 50.739 1992.19 51.363C1990.38 48.7877 1987.23 42.5366 1989.08 38.1348C1991.39 32.6324 2004.85 36.0186 2020.93 40.9495C2033.79 44.8941 2040.87 58.2077 2042.81 64.3715C2043.39 63.5544 2045.71 61.2944 2050.33 58.791Z" fill="white"/>
<g opacity="0.6">
<path d="M2074.61 63.0413C2061 64.0748 2047.29 64.6602 2033.65 64.8333C2020.11 64.997 2006.58 64.8035 1993.06 64.1524C1985.36 63.8142 1977.65 63.325 1969.97 62.7304C1969.57 62.7181 1969.71 62.0951 1970.07 62.1121C1983.68 63.1612 1997.3 63.8532 2010.99 64.133C2024.57 64.4223 2038.17 64.254 2051.78 63.7788C2059.42 63.513 2067 63.0506 2074.62 62.5835C2074.87 62.5597 2074.92 63.0127 2074.61 63.0413Z" fill="white"/>
<path d="M2058.03 65.9302C2056.74 62.5478 2053.65 59.9455 2050.05 59.423C2046.34 58.8598 2042.5 60.6451 2040.35 63.7425C2040.22 63.9581 2039.86 63.8908 2039.78 63.6439C2036.19 54.0815 2028.84 46.1942 2019.95 41.2969C2011.05 36.3996 2000.55 34.2957 1990.58 36.2543C1989.08 36.5481 1987.27 36.7698 1986.1 37.7948C1984.88 38.8245 1984.78 40.5093 1985.12 41.9498C1985.88 45.0779 1988.72 47.196 1989.57 50.3145C1989.64 50.5614 1989.47 50.8321 1989.16 50.8103C1984.32 49.5921 1979.33 48.8458 1974.33 48.658C1973.16 48.6165 1971.99 48.575 1970.83 48.6341C1969.76 48.6838 1968.62 48.8939 1967.94 49.8209C1966.81 51.2989 1967.73 53.4972 1968.86 54.7106C1970.45 56.4396 1972.77 57.3375 1974.35 59.0664C1974.53 59.3038 1974.35 59.6249 1974.1 59.6487C1970.07 60.0295 1966.06 60.5613 1962.07 61.2944C1962.16 61.1842 1962.3 61.0189 1962.39 60.9088C1962.32 64.47 1958.46 67.1709 1955.1 65.9656C1954.62 65.8071 1954.97 65.1147 1955.44 65.2732C1958.22 66.2792 1961.61 63.928 1961.68 60.9754C1961.66 60.7741 1961.8 60.6088 1962 60.5897C1966 59.8566 1970.01 59.3248 1974.03 58.944C1973.95 59.1549 1973.87 59.3154 1973.78 59.5262C1972.2 57.7972 1969.94 56.9449 1968.35 55.216C1967.16 53.957 1966.37 52.0008 1966.97 50.2685C1967.68 48.1192 1970.1 47.941 1972.03 47.9111C1974.72 47.9105 1977.43 48.1112 1980.15 48.4126C1983.23 48.7813 1986.33 49.3513 1989.35 50.1322C1989.21 50.2975 1989.08 50.4628 1988.94 50.628C1988.15 47.6557 1985.58 45.6649 1984.64 42.7572C1984.27 41.573 1984.11 40.3195 1984.5 39.1143C1984.89 37.8587 1985.87 37.0038 1987.09 36.4821C1988.36 35.9557 1989.76 35.7217 1991.06 35.4973C1992.36 35.2729 1993.67 35.0988 1995.03 34.9703C1997.65 34.7731 2000.24 34.8323 2002.86 35.0929C2013.37 36.231 2023.49 41.165 2030.96 48.6857C2035.11 52.8633 2038.43 57.8816 2040.47 63.4262C2040.27 63.3949 2040.11 63.3589 2039.91 63.3276C2041.65 60.7764 2044.54 59.1318 2047.6 58.7911C2050.62 58.4552 2053.61 59.5428 2055.84 61.6173C2057.07 62.7709 2058.02 64.2047 2058.63 65.8228C2058.6 66.0289 2058.11 66.2275 2058.03 65.9302Z" fill="white"/>
</g>
<g opacity="0.1">
<path d="M91.8663 72.3985H3.04761L37.8349 67.9575C38.0816 65.9838 37.5389 60.852 33.394 56.1149C29.2491 51.3778 44.0029 58.0887 51.8979 62.0362C50.4176 60.3092 49.9735 54.9307 60.0396 47.233C72.6223 37.6109 97.0474 62.7764 104.449 62.0362C111.85 61.2961 111.85 72.3985 91.8663 72.3985Z" fill="white"/>
<path d="M230.83 26.6934C224.465 29.6541 231.756 33.725 236.197 35.3903L326.496 38.536C327.482 38.166 329.678 36.7967 330.566 34.2801C331.677 31.1344 328.531 27.6186 323.905 25.0281C320.204 22.9556 315.578 25.8916 313.728 27.6186C313.79 26.3233 311.73 21.2902 302.996 11.52C292.078 -0.692679 279.866 0.602637 267.838 1.71288C258.216 2.60108 261.362 10.8416 264.138 14.8508C263.274 14.8508 260.807 14.4437 257.846 12.8154C254.145 10.7799 250.815 11.5201 244.893 14.8508C240.156 17.5154 246.867 23.8561 250.815 26.6934C249.704 26.0766 246.189 24.621 241.008 23.7328C234.531 22.6225 238.787 22.9926 230.83 26.6934Z" fill="white"/>
</g>
<g opacity="0.6">
<path d="M328.547 36.5352C329.457 32.9457 327.94 28.8506 324.806 26.7778C321.57 24.6545 317.071 24.9578 314.138 27.3845C313.936 27.5868 313.633 27.4856 313.532 27.2329C310.6 18.6383 304.432 11.3582 296.747 6.65644C292.905 4.2803 288.658 2.56137 284.209 1.6008C279.609 0.640234 274.452 0.286338 269.902 1.75247C267.273 2.61193 264.897 4.17918 263.431 6.55532C262.066 8.7798 261.51 11.611 262.571 14.0882C262.673 14.341 262.47 14.796 262.116 14.6443C260.044 13.7849 257.87 13.0771 255.645 12.6726C253.522 12.2682 251.196 11.9143 249.023 12.1671C244.877 12.6726 244.119 17.3238 245.837 20.5089C246.95 22.5311 248.669 24.0984 250.337 25.6151C250.691 25.9184 250.236 26.4239 249.882 26.2217C246.394 24.5028 242.501 23.6434 238.659 23.7445C237.648 23.795 236.687 23.8456 235.726 24.0478C234.867 24.1995 233.906 24.3006 233.097 24.6545C232.339 24.9578 230.165 26.7778 231.631 27.4351C232.086 27.6373 231.682 28.2945 231.227 28.0923C229.71 27.4351 230.57 25.7162 231.429 24.9073C232.845 23.5422 235.069 23.34 236.94 23.1378C241.54 22.6322 246.191 23.4917 250.337 25.5645C250.185 25.7667 250.034 25.9689 249.882 26.1712C246.95 23.5422 243.664 20.3066 244.371 15.9588C244.675 14.2399 245.635 12.6221 247.253 11.9143C249.326 11.0043 251.904 11.4087 254.078 11.6615C256.96 12.066 259.74 12.8243 262.42 13.9365C262.268 14.1388 262.116 14.2904 261.965 14.4927C260.044 9.99316 262.622 4.93752 266.515 2.51082C270.913 -0.219222 276.575 -0.320333 281.58 0.336899C290.984 1.60081 299.831 6.40365 306.201 13.3804C309.791 17.3238 312.622 21.975 314.341 27.0306C314.138 26.9801 313.936 26.9295 313.734 26.879C316.262 24.8062 319.75 24.0984 322.834 25.0589C325.867 25.9689 328.193 28.4462 329.103 31.4796C329.608 33.1985 329.659 35.0185 329.204 36.7374C329.052 37.0408 328.496 36.8891 328.547 36.5352Z" fill="white"/>
<path d="M348.769 38.8102C333.198 38.4563 317.677 38.0013 302.106 37.5463C286.636 37.0913 271.166 36.6363 255.696 36.1813C246.95 35.9285 238.204 35.6757 229.457 35.3724C229.103 35.3724 229.103 34.8163 229.457 34.8163C245.029 35.2713 260.549 35.7769 276.12 36.2319C291.591 36.6869 307.061 37.1924 322.531 37.6474C331.277 37.9002 340.023 38.2036 348.769 38.5575C348.921 38.5575 348.921 38.8102 348.769 38.8102Z" fill="white"/>
<path d="M113.989 73.4413C113.938 69.9529 112.118 66.5656 109.237 64.5434C106.355 62.5211 102.665 62.1673 99.3784 63.3301C97.5078 63.9873 95.8903 65.1501 94.6264 66.6668C94.4747 66.8184 94.2219 66.7679 94.1208 66.6162C89.2674 59.1339 81.9877 53.2693 73.5955 50.0843C69.3993 48.4665 64.8495 47.4554 60.35 47.5565C55.9517 47.6576 51.1995 49.0226 48.3178 52.5616C45.6383 55.8983 44.6272 61.1056 47.4078 64.6951C47.6605 65.049 47.2056 65.504 46.9528 65.1501C43.6667 61.3078 37.9035 59.9933 33.3029 62.0661C33.3534 61.9145 33.404 61.7628 33.404 61.6111C34.8195 64.6445 36.791 67.3746 39.2682 69.6496C39.521 69.8518 39.3188 70.2057 39.0155 70.2057C28.9549 71.0652 18.8951 71.9246 8.88506 72.8346C6.05393 73.0874 3.1724 73.3402 0.34128 73.593C-0.113722 73.6435 -0.113722 72.8852 0.34128 72.8852C10.4019 72.0257 20.4617 71.1663 30.4717 70.3068C33.3029 70.054 36.1844 69.8012 39.0155 69.5485C38.9144 69.7507 38.8638 69.9529 38.7627 70.1046C36.2349 67.8296 34.2128 65.049 32.7973 61.965C32.7467 61.8134 32.7467 61.5606 32.8984 61.51C37.7517 59.2856 43.8688 60.6 47.3572 64.6951C47.2055 64.8467 47.0033 64.9478 46.8516 65.0995C44.3744 61.8639 44.7283 57.415 46.5483 53.9771C48.7222 49.9832 52.8172 47.8093 57.165 47.152C61.9173 46.3937 66.8716 47.2026 71.4216 48.6182C75.8705 50.0337 80.0664 52.1571 83.8075 54.8872C88.0542 57.9711 91.7447 61.8134 94.6264 66.2623C94.4747 66.2623 94.2725 66.2117 94.1208 66.2117C96.4464 63.33 100.187 61.8134 103.878 62.0156C107.568 62.2684 110.855 64.3917 112.776 67.5768C113.837 69.3462 114.444 71.3685 114.444 73.4413C114.494 73.7952 113.989 73.7952 113.989 73.4413Z" fill="white"/>
<path d="M129.156 76.0702C122.836 74.7052 116.315 74.3007 109.843 74.0985C103.271 73.8963 96.6486 73.7952 90.0763 73.6435C76.7801 73.3402 63.5352 72.9863 50.239 72.683C42.7567 72.4807 35.2744 72.3291 27.7922 72.1268C27.4383 72.1268 27.4383 71.5707 27.7922 71.5707C41.1389 71.874 54.5359 72.2279 67.8827 72.5818C81.2294 72.9357 94.5755 73.1885 107.872 73.593C115 73.7952 122.229 74.1491 129.206 75.7163C129.56 75.7163 129.459 76.1208 129.156 76.0702Z" fill="white"/>
</g>
<path opacity="0.1" d="M920.687 55.4209C925.302 52.9175 928.982 57.6995 930.245 60.4035C919.348 61.2394 894.783 62.8031 883.694 62.37C872.605 61.937 846.636 62.1811 835.037 62.3573L834.678 59.4186L845.698 58.0704C844.782 57.1881 842.066 54.8981 838.528 52.7957C834.105 50.1676 839.668 46.8771 844.282 46.4991C847.974 46.1966 857.997 47.3689 862.548 47.9929C860.741 45.4176 857.591 39.1665 859.438 34.7647C861.748 29.2623 875.211 32.6485 891.287 37.5793C904.148 41.524 911.233 54.8376 913.167 61.0014C913.751 60.1843 916.072 57.9243 920.687 55.4209Z" fill="white"/>
<g opacity="0.6">
<path d="M944.976 59.6712C931.362 60.7047 917.656 61.2901 904.012 61.4632C890.469 61.6269 876.943 61.4334 863.424 60.7822C855.724 60.444 848.01 59.9549 840.336 59.3602C839.929 59.348 840.073 58.725 840.43 58.742C854.037 59.7911 867.661 60.4831 881.348 60.7629C894.934 61.0522 908.528 60.8838 922.143 60.4087C929.786 60.1429 937.359 59.6805 944.983 59.2134C945.235 59.1896 945.278 59.6426 944.976 59.6712Z" fill="white"/>
<path d="M928.389 62.5601C927.105 59.1777 924.015 56.5753 920.411 56.0529C916.701 55.4897 912.858 57.275 910.714 60.3724C910.582 60.588 910.22 60.5207 910.146 60.2738C906.55 50.7114 899.202 42.8241 890.31 37.9268C881.417 33.0295 870.909 30.9256 860.938 32.8842C859.442 33.178 857.635 33.3997 856.463 34.4247C855.24 35.4544 855.145 37.1391 855.484 38.5797C856.237 41.7078 859.078 43.8259 859.932 46.9444C860.006 47.1913 859.828 47.462 859.522 47.4402C854.684 46.222 849.687 45.4757 844.693 45.2879C843.521 45.2464 842.349 45.2049 841.187 45.264C840.125 45.3136 838.977 45.5238 838.303 46.4508C837.173 47.9288 838.092 50.1271 839.222 51.3405C840.808 53.0695 843.127 53.9673 844.713 55.6963C844.887 55.9337 844.715 56.2547 844.463 56.2785C840.436 56.6594 836.424 57.1911 832.431 57.9243C832.522 57.8141 832.659 57.6488 832.75 57.5386C832.681 61.0999 828.823 63.8008 825.459 62.5955C824.987 62.437 825.327 61.7446 825.799 61.9031C828.586 62.9091 831.969 60.5578 832.045 57.6053C832.026 57.404 832.163 57.2387 832.364 57.2196C836.358 56.4865 840.37 55.9547 844.396 55.5739C844.315 55.7847 844.228 55.9453 844.147 56.1561C842.561 54.4271 840.297 53.5748 838.712 51.8458C837.526 50.5868 836.732 48.6307 837.33 46.8984C838.041 44.7491 840.461 44.5709 842.388 44.541C845.079 44.5404 847.79 44.7411 850.51 45.0425C853.591 45.4112 856.692 45.9812 859.711 46.7621C859.575 46.9274 859.438 47.0926 859.301 47.2579C858.512 44.2856 855.937 42.2948 855.002 39.3871C854.636 38.2029 854.467 36.9494 854.861 35.7441C855.25 34.4886 856.235 33.6336 857.456 33.112C858.726 32.5856 860.126 32.3516 861.425 32.1272C862.724 31.9028 864.028 31.7287 865.387 31.6002C868.009 31.403 870.604 31.4622 873.219 31.7227C883.737 32.8609 893.852 37.7949 901.317 45.3156C905.47 49.4932 908.788 54.5114 910.836 60.0561C910.63 60.0248 910.474 59.9888 910.268 59.9575C912.007 57.4063 914.899 55.7617 917.964 55.421C920.979 55.0851 923.977 56.1727 926.204 58.2472C927.43 59.4008 928.378 60.8346 928.989 62.4527C928.957 62.6588 928.468 62.8574 928.389 62.5601Z" fill="white"/>
</g>
</svg>
