<?xml version="1.0" encoding="UTF-8"?> <svg xmlns="http://www.w3.org/2000/svg" width="46" height="33" viewBox="0 0 46 33" fill="none"><path fill-rule="evenodd" clip-rule="evenodd" d="M4.17139 5.81163L6.17139 0.81163C8.54639 2.01996 13.5964 5.21163 14.7964 8.31163C15.9964 11.4116 16.8797 15.02 17.1714 16.4366V25.5616V31.8116H0.171387L1.42139 15.5616H10.1714C10.5464 12.7283 9.87139 6.81163 4.17139 5.81163ZM31.0825 5.81163L33.0825 0.81163C35.4575 2.01996 40.5075 5.21163 41.7075 8.31163C42.9075 11.4116 43.7909 15.02 44.0825 16.4366V25.5616V31.8116H27.0825L28.3325 15.5616H37.0825C37.4575 12.7283 36.7825 6.81163 31.0825 5.81163Z" fill="#FE6869"></path><path d="M9.09864 16.7672C6.77756 16.7672 4.45647 16.7672 2.13538 16.7672C2.49247 16.4107 2.67102 16.2324 3.02811 15.8759C2.67102 21.224 2.31393 26.7504 2.13538 32.0985C1.77829 31.742 1.59975 31.5637 1.24266 31.2072C6.9561 30.8506 12.8481 30.6724 18.5615 30.6724C18.2044 31.0289 18.0259 31.3854 17.6688 31.742C16.9546 26.7504 16.7761 21.7588 16.9546 16.589C16.9546 15.5193 18.7401 15.5193 18.7401 16.589C18.5615 21.4023 18.7401 26.3939 19.2757 31.2072C19.2757 31.742 19.0972 32.2768 18.383 32.2768C12.6695 32.0985 6.77756 32.2768 1.06411 32.8116C0.528478 32.8116 0.171387 32.4551 0.171387 31.9203C0.528477 26.5721 0.885568 21.0457 1.06411 15.6976C1.06411 15.1628 1.4212 14.8063 1.95684 14.8063C4.27793 14.8063 6.59902 14.8063 8.9201 14.8063C10.3485 14.9845 10.3485 16.7672 9.09864 16.7672Z" fill="#181D23"></path><path d="M10.527 15.6976C11.0626 11.7757 8.56301 7.67544 4.63501 6.60581C3.92083 6.42754 3.74229 5.35792 4.45647 5.00137C5.52774 4.11002 6.24192 2.68385 6.06337 1.25769C5.88483 0.722874 6.42047 -0.16848 7.13465 0.188062C14.2765 2.86212 19.2757 9.99296 19.2757 17.4803C19.2757 18.55 17.4903 18.55 17.4903 17.4803C17.3117 10.706 12.8481 4.28829 6.59901 1.7925C6.9561 1.43596 7.31319 1.07942 7.67028 0.722874C8.02737 3.04039 7.13465 5.17965 5.34919 6.60581C5.34919 6.071 5.17065 5.53619 5.17065 5.00137C9.81282 6.42754 13.0266 11.0626 12.3125 15.8759C12.1339 16.9455 10.3485 16.9455 10.527 15.6976Z" fill="#181D23"></path><path d="M34.9946 16.7672C32.6735 16.7672 30.3524 16.7672 28.0313 16.7672C28.3884 16.4107 28.567 16.2324 28.9241 15.8759C28.567 21.224 28.2099 26.7504 28.0313 32.0985C27.6742 31.742 27.4957 31.5637 27.1386 31.2072C32.8521 30.8506 38.744 30.6724 44.4575 30.6724C44.1004 31.0289 43.9219 31.3854 43.5648 31.742C42.8506 26.7504 42.672 21.7588 42.8506 16.589C42.8506 15.5193 44.636 15.5193 44.636 16.589C44.4575 21.4023 44.636 26.3939 45.1717 31.2072C45.1717 31.742 44.9931 32.2768 44.2789 32.2768C38.5655 32.0985 32.6735 32.2768 26.9601 32.8116C26.4244 32.8116 26.0673 32.4551 26.0673 31.9203C26.4244 26.5721 26.7815 21.0457 26.9601 15.6976C26.9601 15.1628 27.3172 14.8063 27.8528 14.8063C30.1739 14.8063 32.495 14.8063 34.8161 14.8063C36.2444 14.9845 36.2444 16.7672 34.9946 16.7672Z" fill="#181D23"></path><path d="M36.423 15.6976C36.9586 11.7757 34.459 7.67544 30.531 6.60581C29.8168 6.42754 29.6382 5.35792 30.3524 5.00137C31.4237 4.11002 32.1379 2.68385 31.9593 1.25769C31.7808 0.722874 32.3164 -0.16848 33.0306 0.188062C40.1724 2.86212 45.1717 9.99296 45.1717 17.4803C45.1717 18.55 43.3862 18.55 43.3862 17.4803C43.2077 10.706 38.744 4.28829 32.495 1.7925C32.852 1.43596 33.2091 1.07942 33.5662 0.722874C33.9233 3.04039 33.0306 5.17965 31.2451 6.60581C31.2451 6.071 31.0666 5.53619 31.0666 5.00137C35.7088 6.42754 38.9226 11.0626 38.2084 15.8759C38.0299 16.9455 36.2444 16.9455 36.423 15.6976Z" fill="#181D23"></path></svg> 