<?xml version="1.0" encoding="UTF-8"?> <svg xmlns="http://www.w3.org/2000/svg" width="46" height="33" viewBox="0 0 46 33" fill="none"><path fill-rule="evenodd" clip-rule="evenodd" d="M4.60889 5.81163L6.60889 0.81163C8.98389 2.01996 14.0339 5.21163 15.2339 8.31163C16.4339 11.4116 17.3172 15.02 17.6089 16.4366V25.5616V31.8116H0.608887L1.85889 15.5616H10.6089C10.9839 12.7283 10.3089 6.81163 4.60889 5.81163ZM31.52 5.81163L33.52 0.81163C35.895 2.01996 40.945 5.21163 42.145 8.31163C43.345 11.4116 44.2284 15.02 44.52 16.4366V25.5616V31.8116H27.52L28.77 15.5616H37.52C37.895 12.7283 37.22 6.81163 31.52 5.81163Z" fill="#FEB103"></path><path d="M9.53614 16.7672C7.21506 16.7672 4.89397 16.7672 2.57288 16.7672C2.92997 16.4107 3.10852 16.2324 3.46561 15.8759C3.10852 21.224 2.75143 26.7504 2.57288 32.0985C2.21579 31.742 2.03725 31.5637 1.68016 31.2072C7.3936 30.8506 13.2856 30.6724 18.999 30.6724C18.6419 31.0289 18.4634 31.3854 18.1063 31.742C17.3921 26.7504 17.2136 21.7588 17.3921 16.589C17.3921 15.5193 19.1776 15.5193 19.1776 16.589C18.999 21.4023 19.1776 26.3939 19.7132 31.2072C19.7132 31.742 19.5347 32.2768 18.8205 32.2768C13.107 32.0985 7.21506 32.2768 1.50161 32.8116C0.965978 32.8116 0.608887 32.4551 0.608887 31.9203C0.965977 26.5721 1.32307 21.0457 1.50161 15.6976C1.50161 15.1628 1.8587 14.8063 2.39434 14.8063C4.71543 14.8063 7.03652 14.8063 9.3576 14.8063C10.786 14.9845 10.786 16.7672 9.53614 16.7672Z" fill="#181D23"></path><path d="M10.9645 15.6976C11.5001 11.7757 9.00051 7.67544 5.07251 6.60581C4.35833 6.42754 4.17979 5.35792 4.89397 5.00137C5.96524 4.11002 6.67942 2.68385 6.50087 1.25769C6.32233 0.722874 6.85797 -0.16848 7.57215 0.188062C14.714 2.86212 19.7132 9.99296 19.7132 17.4803C19.7132 18.55 17.9278 18.55 17.9278 17.4803C17.7492 10.706 13.2856 4.28829 7.03651 1.7925C7.3936 1.43596 7.75069 1.07942 8.10778 0.722874C8.46487 3.04039 7.57215 5.17965 5.78669 6.60581C5.78669 6.071 5.60815 5.53619 5.60815 5.00137C10.2503 6.42754 13.4641 11.0626 12.75 15.8759C12.5714 16.9455 10.786 16.9455 10.9645 15.6976Z" fill="#181D23"></path><path d="M35.4321 16.7672C33.111 16.7672 30.7899 16.7672 28.4688 16.7672C28.8259 16.4107 29.0045 16.2324 29.3616 15.8759C29.0045 21.224 28.6474 26.7504 28.4688 32.0985C28.1117 31.742 27.9332 31.5637 27.5761 31.2072C33.2896 30.8506 39.1815 30.6724 44.895 30.6724C44.5379 31.0289 44.3594 31.3854 44.0023 31.742C43.2881 26.7504 43.1095 21.7588 43.2881 16.589C43.2881 15.5193 45.0735 15.5193 45.0735 16.589C44.895 21.4023 45.0735 26.3939 45.6092 31.2072C45.6092 31.742 45.4306 32.2768 44.7164 32.2768C39.003 32.0985 33.111 32.2768 27.3976 32.8116C26.8619 32.8116 26.5048 32.4551 26.5048 31.9203C26.8619 26.5721 27.219 21.0457 27.3976 15.6976C27.3976 15.1628 27.7547 14.8063 28.2903 14.8063C30.6114 14.8063 32.9325 14.8063 35.2536 14.8063C36.6819 14.9845 36.6819 16.7672 35.4321 16.7672Z" fill="#181D23"></path><path d="M36.8605 15.6976C37.3961 11.7757 34.8965 7.67544 30.9685 6.60581C30.2543 6.42754 30.0757 5.35792 30.7899 5.00137C31.8612 4.11002 32.5754 2.68385 32.3968 1.25769C32.2183 0.722874 32.7539 -0.16848 33.4681 0.188062C40.6099 2.86212 45.6092 9.99296 45.6092 17.4803C45.6092 18.55 43.8237 18.55 43.8237 17.4803C43.6452 10.706 39.1815 4.28829 32.9325 1.7925C33.2895 1.43596 33.6466 1.07942 34.0037 0.722874C34.3608 3.04039 33.4681 5.17965 31.6826 6.60581C31.6826 6.071 31.5041 5.53619 31.5041 5.00137C36.1463 6.42754 39.3601 11.0626 38.6459 15.8759C38.4674 16.9455 36.6819 16.9455 36.8605 15.6976Z" fill="#181D23"></path></svg> 