<svg width="836" height="954" fill="none" xmlns="http://www.w3.org/2000/svg"><path d="M371.802 624.802c-13.766 8.398-25.636 27.166-29.85 35.5l-6.305 17.649c2.977-5.4 11.866-19.036 23.601-30.38 14.67-14.18 78.445-32.226 98.009-34.571 19.564-2.346 59.938 3.789 78.25 4.75 18.312.961 58.75 2.5 58.75-18.5 0-20.348-32.5-27.847-55.75-20.25-17.967 5.871-27.336-2.969-37.317-10.755-9.981-7.787-7.946-22.707-37.183-7.995-29.237 14.712-15.138 13.591-27 24.75-11.863 11.16-15.394 5.26-23.5 6.5-8.107 1.24-14.208 6.212-20.002 16.72-5.794 10.509-4.497 6.085-21.703 16.582zm-24.073 19.844c1.035-1.057 2.071-2.548 2.98-4.478 5.938-8.965 14.787-22.57 18.039-28.468 4.829-8.757 9.198-39.464-9.63-49.845-18.828-10.381-17.728-15.484-20.736-29.703-3.008-14.22 8.686-32.324 3.247-47.313-5.439-14.989-35.287-24.023-51.049-32.713-15.763-8.691-15.752-20.104-24.816-45.085-9.065-24.982-16.594-10.291-40.721-22.452-24.128-12.16-13.266 12.67-6.272 27.945s25.973 27.452 38.659 45.866c12.686 18.414 45.261 59.783 77.582 113.003 21.763 35.835 20.53 58.505 15.697 68.765a1212.07 1212.07 0 0 1-2.98 4.478zm62.488-140.262c5.922 17.425 1.519 34.525-1.422 40.896 17.549-38.009 48.674-78.111 56.462-84.78 9.734-8.336 13.688-10.749 10.5-20.5-3.189-9.751-10.943-7.716-17.618-14.251-6.674-6.534 9.389-30.801 12.118-42.999 2.728-12.199-11.093-15.816-22.039-21.851-10.947-6.035-8.201-13.086-17.789-19.514-9.588-6.428-11.548 3.34-25.543.762-13.995-2.577-5.619-10.52-17.969-15.046-12.35-4.525-2.88 10.403-.686 28.17 2.194 17.768 21.886 40.044 23.446 56.891 1.56 16.847-17.701 22.785-22.452 40.721-4.75 17.935 15.588 29.719 22.992 51.501zm80.54-212.884c9.726 16.325 15.042 34.344 16.63 44.926l32.832-59.549c11.83-21.455 22.105-18.676 31.038-34.877 8.932-16.201.409-32.733 0-39.239-.41-6.506 6.43-12.556 8.75-31.261 2.319-18.705-9.561-33.677-25.25-49.75-15.69-16.072-57.045-42.575-64.292-46-7.248-3.424-12.578 9.38-18.709 6-6.13-3.38-2.077-6-13.75-6-9.576 0-18.693 14.838-23.75 31-5.721 18.29 7.301 40.88 13.75 53 6.45 12.12 27.903 22.481 32 43.011 4.072 20.404-3.16 31.355-9.876 41.523l-.124.187c-5.631 8.527 8.592 26.623 20.751 47.029z" fill="#7DCA78"/><path d="M718.439 258.091c-21.448-.863-41.018 10.882-48.121 16.862l-96.485 34.16c3.125-14.644.658-64.156 19.421-76.649 23.455-15.616 43.9-.918 58.001 4.573 14.102 5.491 22.158-19.142 43.502-26.787 21.343-7.645 18.054 4.2 36.534 12.105s51.08-18.085 60.083 2.866c9.004 20.951-46.124 33.95-72.935 32.87zM607.007 483.392c-34.662-1.753-104.344 23.513-121.5 34.608l-9.446-31.554c5.865-8.566 13.589-24.025 28.418-27.725 18.537-4.625 22.851 12.977 38.278 7.779 15.426-5.197-4-23.322 15-31 14.423-5.828 21.88 3.668 37.25 11 15.37 7.332 34.587-9.858 54-14 19.412-4.142 27.307 6.018 46 19.75s18.459 23.088 5.75 27.5c-12.71 4.412-50.424 5.833-93.75 3.642zM475.74 627.867c-16.464-5.617-34.733-7.367-45.983-7.367 18.563 1.246 25.25 18.35 25.25 24.75 0 9.75-6.25 23 0 50 2.107 9.105 27.967 33.012 44 35 16.032 1.988 2.269-7.889-4.5-28.75-6.77-20.861 1.559-19.737 10.25-35.5 7.667-13.907-7.482-30.786-29.017-38.133z" fill="#008361"/><path d="M509.256 330c1.455 17.246-4.988 43.25-18.999 76.985 8.623-6.665 35.37-32.441 54.233-38.485 23.578-7.555 85.72-31.158 108.03-40.555 22.309-9.396 68.081-24.007 67.737-32.945-.651-16.916-24.061-6.709-36.5-9-12.44-2.291-4.738-14.309-20.5-23-15.763-8.691-26.482 16.534-43.75 23-17.269 6.466-22.314-6.829-38.953-16.003-16.638-9.174-5.731 3.733-18.047 9.503-12.317 5.771-13.743-3.621-38.23-6.845-24.487-3.223-16.838 35.789-15.021 57.345zm-40.849-32.5c5.002 9.153 1.767 53.467-3.713 71l-17.893-9.512c-.224-9.259-1.418-34.738-13.794-61.488-13.984-30.223-45.607-76.902-76.021-110.799-30.413-33.897-28.117-29.777-21.268-44.271s-6-23.292 2.601-36.821c8.601-13.528 39.911 42.56 48.702 57.684 8.79 15.124 31.497 23.647 44.15 31.765 12.653 8.118 10.817 25.947 7.29 46.841-3.526 20.894 23.692 44.16 29.946 55.601zm-38.4 214.25c-12.054 17.618-26.303 56.226-30.365 71.877 13.115-13.627 48.259-18.48 68.765-20.877 25.632-2.996 55.056-3.741 60.85-14.25 5.794-10.509-15.343-15.985-33.25-27-17.908-11.015-6.881-20.812-19-35.75-10.75-13.25-30.75 2.25-47 26zm-37.413 24.598c8.433 12.871-10.965 53.715-21.718 72.528-1.504-14.532-5.854-50.274-11.223-76.987-6.713-33.391-36.857-73.991-69.471-97.682-32.615-23.692-38.352-25.713-45.694-43.464-7.342-17.751 24.724-13.775 46.101-11.124 21.377 2.65 21.656 29.069 34.039 43.89 12.383 14.82 15.55 2.863 34.153 18.83 18.603 15.966 9.316 57.664 14.907 74.45 5.59 16.785 8.364 3.469 18.906 19.559zM290.798 685.769c16.761-7.203 6.087-40.037-1.344-55.554-16.89-6.647-56.889-21.087-81.769-25.67-31.1-5.727-6.276 11.385 1.065 29.136 7.342 17.751-19.502 6.376-12.553 22.768 6.949 16.393 16.516 1.113 44.718 12.095 28.203 10.981 28.932 26.228 49.883 17.225zm58.205-22.721c-11.543 10.993-15.432 23.846-15.934 28.898 1.309 1.769 4.361 4.517 6.1 1.365 2.172-3.941 33.971-7.249 46.585-3.72 12.614 3.529 9.547-6.441 20.286-11.939 10.739-5.499 16.772.528 25.967 5.598 7.356 4.056 16.372-1.158 20-3.25-.524-1.811 1.85-5.287 2.5-14.75.811-11.828 3.846-22.418-6.982-36.952-10.828-14.535-11.811-9.131-23.768-12.298s-35.667 7.22-48.618 12.07c-12.951 4.849-5.794 10.508-5.006 21.506.788 10.997-6.703-.27-21.13 13.472z" fill="#55A250"/><path fill-rule="evenodd" clip-rule="evenodd" d="M544.49 426.54c-36.681 10.608-53.116 9.349-69.044 19.599 5.061-7.78 0-10.426-7.039-14.158 3.469-8.364 5.154-21.64 21.85-24.996 8.154-1.639 19.407 2.421 23 4.265 3.762 1.932 7.66 5.008 16 2.596 6.415-1.855 14.652-17.103 21.382-23.313 10.37-9.569 27.527-13.096 37.618-7.533 5.393 2.974 21.028 20.163 26.394 23.985 11.19 7.969 11.673 6.573 27.106 4.265 9-1.345 10.43-.811 15.979-1.636 11.356-1.688 20.415-3.248 30.482 9.955 8.547 11.21 5.478 26.53-4.462 28.069-.811-.638-1.044-3.585-17-11.925-15.956-8.341-29.879-1.711-34.846 2.646-17.359-5.959-53.213-21.712-87.42-11.819z" fill="#55A250"/><path d="M287.507 628.523c-9.983-5.299-20.115-10.203-30.801-13.978-10.663-3.694-21.659-6.411-32.861-8.013a110.127 110.127 0 0 0-8.285-.949c-1.359-.135-2.747-.217-4.107-.352-1.121-.072-2.323-.121-3.403.104-4.828.956-4.897 6.653-4.037 10.541.991 4.643 3.195 9.067 2.409 13.96-.717 4.52-4.414 7.261-8.088 9.469-1.699.975-3.45 1.921-4.996 3.117.22-.152-.278.256-.36.28-.138.128-.277.256-.445.437-.139.128-.278.256-.446.437-.058.104-.168.18-.226.285 0 0-.283.39-.167.181.057-.105-.255.337-.284.39l-.288.523-.174.314c.092-.29.029-.052 0 0-.063.239-.097.425-.16.663-.189.715-.14 1.493.047 2.143l.165.568c.094.325.076.11.023.082.076.11.1.191.176.301.099.191.227.33.326.522.076.11.1.191.176.301.128.139-.076-.11.076.11.279.359.588.666.978.949.181.168.338.255.518.423.286.225.157.086.053.029.157.086.233.196.39.283a24.788 24.788 0 0 0 2.618 1.443c.971.468 1.5.623 2.61.962a36.1 36.1 0 0 0 3.418.86c2.836.676 5.73 1.247 8.595 1.871 5.783 1.277 11.589 2.634 17.095 4.783 10.961 4.268 20.334 11.415 30.227 17.621 4.853 3.085 9.955 5.967 15.328 8.11.053.029.21.115 0 0 .105.057.291.092.396.149.29.092.5.208.791.3.529.155 1.029.363 1.587.465a26.65 26.65 0 0 0 3.155.716c1.116.205 1.755.285 2.905.304.482-.007.964-.015 1.394-.051.267.011.51-.059.778-.049.133.006.673-.106.51-.059.459-.089.946-.23 1.405-.319l.731-.211a.812.812 0 0 0 .272-.123l.273-.123a4.52 4.52 0 0 0 1.177-.648l.66-.455s.249-.204.111-.076c.11-.076.22-.152.277-.256 1.969-1.714 3.025-4 3.632-6.464.614-2.598.773-5.241.852-7.86.073-2.486.042-5.03-.152-7.526-.642-9.981-3.031-19.765-6.917-28.94-.468-1.009-.883-1.989-1.351-2.998-.544-1.119-.977-2.314-1.602-3.409-1.023-1.861 1.858-3.619 2.851-1.705.597 1.148 1.303 2.22 1.87 3.42.619 1.229 1.158 2.482 1.696 3.734a119.536 119.536 0 0 1 2.759 7.257 93.16 93.16 0 0 1 3.557 15.343 88.091 88.091 0 0 1 .956 15.48c-.121 5.668-.838 12.169-5.256 16.219-7.753 7.128-19.499 2.427-27.417-1.665-10.802-5.546-20.287-13.234-30.974-18.989-5.265-2.835-10.771-4.983-16.595-6.556-5.824-1.572-11.775-2.668-17.685-4.084-4.214-1.026-8.639-2.783-11.386-6.345-2.642-3.505-2.024-8.217 1.096-11.276 1.476-1.439 3.285-2.49 5.093-3.542l2.713-1.576c.794-.45 1.785-1.133 2.312-1.593 1.581-1.382 2.57-2.68 2.976-4.778.405-2.097-.113-4.5-.672-6.583-1.252-4.787-3.162-9.868-1.331-14.799.904-2.506 2.669-4.469 5.244-5.302 2.495-.809 5.29-.429 7.851-.246 11.735 1.008 23.397 3.136 34.715 6.509 11.213 3.315 22.279 7.64 32.57 13.246 2.513 1.386 4.945 2.795 7.291 4.361 1.35 1.018.225 3.06-1.218 2.333z" fill="#181D23"/><path d="M252.898 638.664c1.166-.381 2.175-.849 3.289-1.259a95.25 95.25 0 0 1 3.365-1.149c2.088-.692 4.2-1.303 6.26-1.943 4.009-1.203 8.094-2.296 12.197-3.175 8.206-1.757 16.641-2.568 24.899-.951 7.99 1.606 15.349 5.595 20.469 12.036 4.816 6.001 7.709 13.263 9.225 20.79.939 4.614 1.337 9.34 1.602 14.061.236 4.773.339 9.54.203 14.245-.039 2.3-3.442 2.404-3.589.07-.263-4.105-.177-8.223-.33-12.404-.159-4.047-.427-8.019-1.015-12.03-1.074-7.215-3.356-14.345-7.476-20.371-1.896-2.753-4.28-5.364-7.01-7.348-3.12-2.266-6.667-3.881-10.347-4.885-7.649-2.101-15.744-1.785-23.509-.331-4.475.81-8.885 1.998-13.318 3.104-2.298.576-4.573 1.234-6.842 1.758-1.242.271-2.512.595-3.754.866s-2.56.432-3.802.703c-1.224.486-1.764-1.382-.517-1.787z" fill="#181D23"/><path d="M279.94 635.685c-3.959 5.942-5.596 13.369-3.872 20.396.323 1.271-1.626 1.835-1.95.564-1.731-7.509-.143-15.714 4.704-21.781.532-.594 1.627.146 1.118.821zm-7.585 3.602c-2.075 3.02-4.15 6.041-5.806 9.293a61.274 61.274 0 0 0-4.236 10.159c-.402 1.349-2.576.833-2.174-.516 2.294-7.133 5.901-14.293 11.099-19.757.532-.594 1.574.117 1.117.821zm-10.582 1.608c-5.507 1.196-11.056 2.097-16.563 3.293-5.508 1.197-10.945 2.637-16.335 4.24-1.247.405-1.811-1.544-.563-1.949a191.344 191.344 0 0 1 16.543-4.125c5.479-1.144 11.167-2.173 16.747-2.51.592-.083.792.915.171 1.051zm.877-3.819c-5.945-1.229-11.816-2.964-17.688-4.699-5.842-1.787-11.626-3.679-17.377-5.757-.633-.213-1.065-.792-.904-1.455.131-.61.85-1.17 1.454-.905 5.751 2.078 11.477 4.075 17.343 5.943 5.813 1.84 11.713 3.523 17.556 5.31 1.005.281.65 1.792-.384 1.563zm37.553 29.718c1.488.274 2.773.914 4.082 1.636l3.77 2.079c2.537 1.467 5.074 2.933 7.582 4.453 5.044 2.986 10.06 6.024 15.105 9.011 10.008 5.995 20.068 12.02 30.048 18.068l8.466 5.078 4.207 2.524c.652.428 1.356.884 2.008 1.312.494.341.884.624 1.188 1.065.227.33.484.608.74.886.746.753.071 2.224-1.039 1.885-.715-.189-1.464-.193-2.121-.487-.71-.323-1.443-.727-2.124-1.102l-3.683-2.236-7.524-4.558c-5.015-3.038-10.06-6.024-15.076-9.063-10.008-5.996-20.04-12.073-30.019-18.121-2.822-1.693-5.615-3.438-8.408-5.182a134.085 134.085 0 0 1-4.149-2.629c-1.461-.942-2.87-1.855-3.913-3.182-.374-.684-.017-1.58.86-1.437z" fill="#181D23"/><path d="M379.29 715.792c-3.944 8.886-8.335 17.594-12.779 26.273a1159.08 1159.08 0 0 1-13.629 25.463c-9.296 16.86-18.958 33.518-29.039 49.945-5.644 9.246-11.416 18.353-17.27 27.484-.514.809-1.518 1.143-2.355.681-.786-.433-1.196-1.546-.682-2.355 10.529-16.249 20.639-32.728 30.464-49.433 9.714-16.629 19.062-33.46 28.148-50.435 5.121-9.535 10.032-19.185 15.281-28.581.64-1.286 2.391-.252 1.861.958z" fill="#181D23"/><path d="M307.541 840.848c-5.28 6.852-13.729 10.66-22.157 11.954-9.641 1.511-19.363-.298-28.399-3.846-8.589-3.37-16.688-8.245-23.815-14.018-6.533-5.241-12.384-11.471-16.861-18.582-4.454-7.03-7.482-14.913-8.327-23.162a38.067 38.067 0 0 1-.225-3.06c-.053-2.009 3.002-2.1 3.107-.062.327 7.827 2.779 15.392 6.599 22.209 3.948 6.956 9.241 13.084 15.292 18.331 6.488 5.694 13.873 10.38 21.678 13.932 8.433 3.899 17.779 6.389 27.145 5.749 8.076-.531 16.063-3.501 22.295-8.736a44.554 44.554 0 0 0 2.334-2.127c.886-.741 2.04.51 1.334 1.418zm-99.479-56.964c7.149-12.718 14.484-25.402 21.632-38.12a1788.558 1788.558 0 0 0 21.033-38.519c3.879-7.283 7.81-14.538 11.428-21.965.847-1.786 3.704-.279 2.722 1.501-3.498 6.469-6.84 13.025-10.338 19.494-3.388 6.393-6.91 12.781-10.404 19.117-7.072 12.828-14.221 25.546-21.631 38.12-4.194 7.11-8.439 14.191-12.894 21.157-.654.937-2.12.129-1.548-.785zm151.699-80.225c3.755 1.115 7.188 2.939 10.274 5.391 2.62 2.059 5.781 4.622 6.28 8.174.232 1.562-.338 3.091-1.712 3.972-1.425.853-3.18.568-4.686.079-3.831-1.224-7.628-2.635-11.343-4.069a253.536 253.536 0 0 1-43.469-21.713c-3.812-2.375-7.566-4.854-11.18-7.462-3.749-2.613-7.631-5.231-10.928-8.414-.903-.839.207-2.481 1.33-1.793 3.235 2.057 6.24 4.533 9.389 6.747a340.564 340.564 0 0 0 9.324 6.369c6.39 4.138 13.005 7.99 19.713 11.552 6.707 3.561 13.565 6.728 20.537 9.684 3.501 1.453 7.031 2.852 10.566 4.119 1.819.662 3.639 1.324 5.436 1.904 1.029.363 2.628 1.177 3.771.714 1.195-.433.545-2.226.147-2.991-.87-1.641-2.263-2.955-3.631-4.187-3.047-2.772-6.481-5.212-10.007-7.361-.5-.207-.287-.841.189-.715z" fill="#181D23"/><path d="M365.667 707.189c.733.404 1.466.808 2.17 1.264.39.284.694.724.539 1.253-.584 2.546-3.61 2.584-5.719 2.446a67.759 67.759 0 0 1-7.744-1.061c-5.044-1.006-9.986-2.57-14.754-4.447-9.717-3.924-18.73-9.371-27.35-15.285-4.947-3.41-9.756-6.949-14.535-10.54-.961-.734.259-2.451 1.301-1.74 8.138 5.92 16.195 11.864 24.818 17.028 8.466 5.078 17.418 9.399 26.979 11.871a86.261 86.261 0 0 0 8.124 1.611c1.33.188 2.69.323 3.997.429.72.056 2.428.178 2.68-.775l.306 1.056c-.676-.509-1.241-1.094-1.887-1.655-.613-.747.266-1.97 1.075-1.455z" fill="#181D23"/><path d="M310.093 675.729c-2.181-.998-4.932-2.447-7.346-1.661-.354.147-.817.369-1.205.701.138-.128-.139.128-.168.181-.11.075-.168.18-.307.308-.11.076-.168.181-.255.338.168-.181-.086.157-.115.209l-.346.629c.144-.262-.058.104-.035.186-.057.104-.063.238-.068.372-.006.133-.006.133 0 0-.029.052-.006.133-.034.186-.006.133-.011.267.012.348-.018-.215.047.162.047.162l.047.163c-.076-.11-.076-.11 0 0 .246.545.167 1.184-.384 1.563-.493.275-1.318.161-1.563-.384-.959-2.099-.171-4.395 1.625-5.795a5.928 5.928 0 0 1 3.05-1.322c1.237-.138 2.567.049 3.782.446 1.425.513 2.71 1.153 3.99 1.927.995.549.221 1.829-.727 1.443zm22.071 11.485c-.113 2.806-.279 5.582-.444 8.359-.079.639-.449 1.186-1.146 1.211-.563.031-1.238-.478-1.211-1.146.246-2.8.493-5.6.791-8.371.022-.534.363-1.029.979-1.031.51-.059 1.081.392 1.031.978zm90.762-70.876c9.649-1.03 19.349 3.295 25.888 10.382 3.31 3.532 5.868 7.81 7.288 12.416 1.538 5.013 1.647 10.262 1.171 15.461-.512 5.386-1.557 10.749-2.306 16.071-.71 5.003-1.135 10.231-.294 15.269 1.646 9.647 7.455 17.561 14.527 24.054 3.768 3.443 7.692 6.358 11.859 9.201a166.568 166.568 0 0 0 6.495 4.196c1.931 1.201 3.91 2.566 5.987 3.506 1.628.761 3.796 1.41 5.591 1.375l.644-.054c.325-.094.082-.024 0 0 .082-.024.215-.018.296-.042.215-.018.407-.117.569-.164.081-.024.325-.094 0 0 .11-.076.273-.123.383-.199.11-.076.498-.408.22-.151.168-.181.307-.309.474-.49-.144.262.168-.18 0 0l.145-.262a3.42 3.42 0 0 0 .323-.709c.286-1.139.039-2.3-.29-3.437-.399-1.381-1.014-2.744-1.575-4.078-1.223-2.859-2.638-5.619-4.023-8.431-2.567-5.375-4.861-10.873-5.478-16.812-.265-2.74-.152-5.546.467-8.277.733-2.941 2.096-5.536 3.853-7.98 1.752-2.312 3.79-4.397 5.699-6.622 1.823-2.067 3.627-4.35 4.536-6.989 1.582-4.727.144-9.548-2.419-13.692-2.89-4.666-7.147-8.584-11.624-11.734-4.866-3.434-10.298-6.088-15.944-8.108-11.849-4.144-24.392-5.665-36.799-6.566-3.097-.205-6.135-.515-9.26-.667-.801-.033-1.5-.623-1.52-1.453.003-.749.651-1.553 1.453-1.52 3.177.181 6.36.229 9.508.462 3.282.24 6.616.508 9.893.88 6.367.712 12.805 1.667 19.059 3.203 12.083 2.975 23.836 8.158 32.739 17.026 3.781 3.792 7.129 8.369 8.522 13.643.671 2.623.831 5.306.189 7.956-.682 2.97-2.259 5.582-4.121 7.97-3.499 4.488-8.36 8.227-10.084 13.83-1.603 5.261-.708 10.944 1.068 16.02 2.087 5.998 5.345 11.481 7.815 17.281 1.176 2.696 2.451 5.584 1.955 8.588-.416 2.365-2.204 4.247-4.531 4.876-4.439 1.24-9.162-1.091-12.898-3.356-4.44-2.721-8.851-5.494-13.036-8.553-8.19-5.949-16.065-13.09-20.618-22.292a37.932 37.932 0 0 1-3.922-14.93c-.262-5.47.546-10.897 1.457-16.266 1.629-9.889 3.802-20.64-.851-30.033-4.157-8.436-12.407-14.897-21.67-16.795-2.255-.492-4.491-.769-6.82-.756-1.249-.211-1.226-2.11.01-2.248z" fill="#181D23"/><path d="M438.586 620.876c-3.985-2.061-8.18-2.872-12.646-2.944-4.681-.055-9.308.535-13.982.962-5.051.493-10.073.933-15.176 1.396-4.459.41-8.964.656-13.27 1.902-3.846 1.156-7.678 3.276-9.775 6.832-2.039 3.45-1.498 7.299-1.41 11.102.082 3.937-.631 7.709-4.021 10.141-3.169 2.281-7.269 2.41-10.801 3.74-6.955 2.584-12.633 8.671-14.764 15.757-.305.924-.505 1.906-.676 2.836-.372 1.912-3.26 1.207-2.889-.705 1.444-7.943 6.682-15.092 13.772-19.035a26.627 26.627 0 0 1 5.608-2.37c1.868-.54 3.836-.889 5.681-1.511 1.601-.551 3.189-1.45 4.131-2.911.913-1.408 1.117-3.139 1.21-4.795.109-4.036-.531-8.076 1.123-11.943 1.741-4.025 5.39-6.929 9.34-8.643 4.193-1.785 8.762-2.27 13.273-2.65l15.466-1.305c4.889-.445 9.806-.943 14.684-1.121 4.5-.113 9.281.132 13.399 2.198.971.468 1.856 1.092 2.735 1.85.647.561-.227 1.65-1.012 1.217zm13.423 60.11c-5.161 5.894-14.354 4.239-20.848 2.024-7.099-2.48-13.884-6.767-21.677-6.626-1.713.011-3.519.313-5.125.998-1.798.784-3.269 2.09-4.559 3.563-1.626 1.835-3.043 3.785-5.053 5.202a14.278 14.278 0 0 1-4.906 2.211c-3.702.895-7.595.524-11.319-.027-3.829-.609-7.566-1.509-11.4-1.984-4.207-.544-8.555-.211-12.664.801-4.242 1.007-8.115 2.832-11.796 5.172-.933.578-1.732 1.161-2.642 1.821-1.187.915-2.872-1.106-1.656-2.074 6.759-5.696 15.606-8.738 24.41-8.732 4.094.004 8.104.781 12.113 1.558 3.638.709 7.328 1.446 11.056 1.248 1.689-.093 3.413-.371 5.02-1.056 1.769-.731 3.263-1.956 4.577-3.348 1.678-1.806 3.124-3.808 5.134-5.226 1.46-1.038 3.229-1.77 4.959-2.182 7.666-1.645 15.285 1.873 22.148 4.906 3.471 1.504 7.111 2.828 10.888 3.408 3.405.512 7.051.338 10.065-1.414a16.704 16.704 0 0 0 2.121-1.494c.834-.769 1.744.552 1.154 1.251z" fill="#181D23"/><path d="M331.867 692.581c6.833-6.201 13.765-12.21 21.21-17.664 7.115-5.227 14.632-9.821 22.728-13.483 7.66-3.492 15.613-6.276 23.754-8.41 8.089-2.163 16.342-3.758 24.665-5.109a564.196 564.196 0 0 1 25.211-3.374c1.022-.119 2.067-.158 3.141-.248 1.637-.122 2.169 2.629.445 2.908-4.202.687-8.423 1.159-12.62 1.713-4.168.501-8.365 1.055-12.486 1.719-8.185 1.222-16.299 2.689-24.301 4.695-7.973 1.954-15.886 4.418-23.507 7.59-7.893 3.295-15.476 7.513-22.574 12.338-8.501 5.76-16.419 12.319-24.488 18.657-.881.607-1.873-.69-1.178-1.332z" fill="#181D23"/><path d="M447.962 643.251c-14.918 2.289-29.807 4.527-44.464 8.326-13.602 3.493-26.914 8.443-39.01 15.771-6.637 3.987-12.795 8.717-18.341 14.194-.724.693-1.778-.366-1.107-1.088 9.922-9.824 22.019-17.151 34.865-22.494 13.664-5.713 28.119-9.145 42.647-11.718 8.41-1.508 16.857-2.586 25.279-3.746.645-.054.641.695.131.755zm23.307-11.934c6.904 1.348 10.094 9.184 9.516 15.556-.712 7.732-5.18 14.35-7.241 21.68-1.034 3.731-1.462 7.728-.248 11.47.381 1.166-1.377 1.631-1.787.517-2.194-6.672.305-13.556 2.933-19.685 2.86-6.549 6.471-13.843 3.794-21.122-1.23-3.342-3.789-6.254-7.288-7.091-.767-.218-.504-1.439.321-1.325z" fill="#181D23"/><path d="M477.875 639.397c-3.579-4.158-7.911-7.571-12.757-10.174-1.257-.693-.189-2.63 1.068-1.938 5.027 2.772 9.342 6.585 12.795 11.22.484.608-.593 1.448-1.106.892z" fill="#181D23"/><path d="M470.728 638.119c-1.138-1.651-2.195-3.326-3.524-4.878-1.277-1.524-2.635-3.023-4.16-4.343-.903-.839.463-2.202 1.314-1.392 3.017 2.824 5.827 6.149 7.604 9.86.502.823-.703 1.524-1.234.753zm-134.912 27.486c4.209-9.491 9.518-18.377 14.826-27.262 5.337-8.937 10.908-17.678 16.507-26.471 11.082-17.377 22.299-34.748 32.415-52.725 10.059-17.873 19.076-36.457 25.454-55.95 5.826-17.749 9.297-36.181 10.236-54.849a212.07 212.07 0 0 0-4.391-54.448 390.073 390.073 0 0 0-1.445-6.668c-.529-2.136 2.749-3.128 3.331-.964 4.691 17.744 6.673 36.316 6.337 54.634-.265 18.561-3.045 37.102-8.098 54.935-5.697 19.868-14.167 38.822-23.97 56.973-9.918 18.36-21.145 35.999-32.477 53.579-11.36 17.634-22.64 35.243-33.034 53.477-1.294 2.223-2.692 4.388-4.12 6.605-.629 1.018-2.014.186-1.571-.866z" fill="#181D23"/><path d="M413.728 521.074c2.535-9.8 5.89-19.352 8.821-29.002 2.902-9.597 5.594-19.31 7.676-29.155 1.974-9.153 3.495-18.351 4.273-27.686.755-8.801.843-17.628.181-26.459-.69-8.779-2.158-17.508-4.572-26.009-.306-1.056-.611-2.112-.946-3.115-.399-1.381 1.713-1.992 2.194-.634 2.815 8.516 4.55 17.256 5.45 26.15.9 8.894.969 17.809.318 26.667-.586 9.236-1.973 18.439-3.756 27.493-2.035 10.007-4.599 19.859-7.535 29.642-2.907 9.731-5.948 19.457-9.646 28.888-.449 1.187-.951 2.344-1.481 3.553-.19.715-1.19.301-.977-.333zm14.308-142.729c-4.405-10.213-10.389-19.793-17.565-28.325-.921-1.054.642-2.65 1.562-1.596 5.691 6.893 10.5 14.392 14.324 22.44a87.195 87.195 0 0 1 2.961 6.89c.316.789-.965 1.38-1.282.591z" fill="#181D23"/><path d="M432.656 447.735c-2.931-10.288-7.62-20.11-13.74-28.947-.858-1.292 1.199-2.547 2.109-1.226 6.139 9.051 10.55 19.13 13.146 29.779.177.917-1.233 1.368-1.515.394z" fill="#181D23"/><path d="M411.33 532.11c-.422-17.438-4.862-34.771-13.182-50.146-4.306-8.041-9.529-15.904-11.602-24.899-1.961-8.455-1.184-17.79 4.683-24.592 2.835-3.285 6.492-5.707 9.74-8.627 3.11-2.792 5.539-5.959 6.402-10.125 1.596-7.724-1.636-15.855-4.864-22.756-6.263-13.284-15.413-25.294-19.849-39.415-1.068-3.388-1.811-6.87-2.124-10.388a36.275 36.275 0 0 1-.105-5.383c.115-2.19.311-4.403 1.089-6.433 1.539-3.657 5.477-5.105 9.122-3.914 3.698 1.219 6.157 3.941 8.223 7.128 2.014 3.159 4.059 6.88 7.819 7.861 2.941.734 6.156-.019 9.127-.703 3.296-.777 6.65-1.659 10.089-1.333 4.346.416 7.78 2.855 10.485 6.122 2.758 3.296 4.936 7.023 8.11 9.934 2.709 2.517 5.921 4.493 9.081 6.44 6.138 3.726 13.236 7.571 16.498 14.285 1.754 3.63 2.185 7.555 1.518 11.488-.667 3.934-2.397 7.691-4.279 11.228-3.412 6.312-7.667 12.296-8.444 19.651-.339 3.09.066 6.318 1.782 8.903 2.469 3.819 7.426 4.982 11.364 6.88 3.281 1.604 6.647 4.415 7.512 8.17 1.09 4.834-2.191 8.555-5.473 11.661-14.555 13.892-27.671 29.26-39.047 45.929-2.786 4.063-5.467 8.183-8.02 12.443-1.173 1.879-4.158.234-2.985-1.646 10.375-17.084 22.525-33.053 36.201-47.703 3.386-3.664 6.899-7.188 10.518-10.655 2.588-2.465 6.764-5.83 5.107-9.884-1.335-3.399-5.202-5.053-8.278-6.408-4.077-1.769-8.201-3.702-10.392-7.777-3.388-6.238-1.664-13.822 1.016-19.923 3.009-6.944 8.147-12.919 9.865-20.369.808-3.447.61-7.175-.974-10.369-1.537-3.033-3.931-5.377-6.633-7.413-5.92-4.493-12.945-7.478-18.438-12.624-3.122-2.882-5.196-6.551-7.877-9.736-2.426-2.908-5.412-5.169-9.263-5.244-6.446-.072-12.758 3.822-19.21 1.903-4.099-1.235-6.612-4.601-8.801-8.061-1.787-2.829-3.701-5.796-6.927-6.755-1.296-.374-2.522-.503-3.537.098-1.588.9-2.051 3.102-2.231 4.915a37.23 37.23 0 0 0 .317 10.075c1.143 6.843 3.905 13.35 7.084 19.472 3.377 6.505 7.219 12.788 10.707 19.217 3.587 6.621 7.181 13.724 8.593 21.193.745 4.098.974 8.389-.233 12.435-1.269 4.284-4.029 7.678-7.382 10.541-3.214 2.734-6.737 5.161-9.543 8.393-2.586 3.081-3.974 6.959-4.425 10.874-.913 8.714 2.499 17.014 6.478 24.533 2.191 4.076 4.545 8.104 6.654 12.203a106.882 106.882 0 0 1 5.12 11.767c2.912 8.092 4.74 16.542 5.545 25.111.397 4.111.416 8.286.25 12.427-.235 1.168-1.977 1.232-1.981.001zm-65.016 114.703c.862-8.127 1.295-16.219.74-24.376-.531-8.077-1.869-16.052-3.828-23.891-4.201-16.654-11.273-32.433-19.718-47.331-8.924-15.64-19.274-30.427-29.902-44.958-11.036-15.029-22.623-29.679-34.765-43.815a725.31 725.31 0 0 0-37.899-41.105c-1.567-1.616-3.216-3.207-4.812-4.77-1.491-1.505.8-3.929 2.344-2.395 13.325 13.355 26.262 27.042 38.666 41.324 12.352 14.252 24.205 28.912 35.503 44.086 10.943 14.704 21.63 29.745 30.95 45.535 8.922 15.024 16.575 30.987 21.276 47.848 4.371 15.724 6.201 32.095 4.075 48.334-.295 2.022-.614 3.963-1.096 5.95-.2.982-1.601.551-1.534-.436zm5.249-45.309c-.53-2.136-1.14-4.248-1.751-6.359-.611-2.112-1.059-4.271-1.67-6.383-1.193-4.276-2.467-8.529-3.903-12.735a171.745 171.745 0 0 0-10.584-24.27c-3.704-7.027-7.988-13.622-12.104-20.397-3.918-6.393-7.667-12.967-10.518-19.932-2.675-6.665-4.423-13.773-4.185-21.016.038-.935.075-1.87.165-2.776.051-.587.392-1.082 1.007-1.084.535.022 1.157.502 1.084 1.007-.692 7.198.574 14.314 3.029 21.13 2.555 7.007 6.252 13.551 10.088 19.968 3.988 6.637 8.249 13.15 11.935 19.962 4.265 7.745 7.874 15.812 10.885 24.095 1.495 4.101 2.85 8.33 4.071 12.554 1.169 4.195 2.229 8.466 2.829 12.826l.429 3.309c.141.487-.666.588-.807.101zm-46.098-116.633l-.675 6.797c-.203 1.731-.145 3.606-.749 5.322-.42 1.133-1.247 2.385-2.612 2.383-.749-.003-1.372-.483-1.885-1.039-.688-.857-1.294-1.738-1.982-2.595a461.185 461.185 0 0 0-15.697-19.579c-10.832-12.8-22.3-25.063-34.411-36.656-6.828-6.564-13.823-12.947-21.015-19.097-.879-.758.377-2.045 1.256-1.287a501.503 501.503 0 0 1 35.085 33.204 489.224 489.224 0 0 1 31.554 36.514c1.399 1.796 2.746 3.563 4.094 5.33.659.909 1.347 1.767 2.006 2.676.432.58.863 1.159 1.424.513.423-.519.664-1.205.796-1.815.205-1.116.225-2.265.378-3.41.231-2.399.49-4.851.772-7.221.148-1.011 1.809-1.051 1.661-.04z" fill="#181D23"/><path d="M222.607 420.547c-4.569-4.84-9.284-10.034-11.216-16.561-1.749-5.744-.935-12.669 3.261-17.183 9.058-9.618 23.977-.641 32.728 4.662 5.906 3.529 11.576 7.611 16.186 12.748 4.61 5.136 7.556 11.062 9.593 17.647 1.937 6.393 3.41 13.009 7.255 18.542 3.617 5.204 8.845 8.974 14.342 12.005 11.677 6.437 24.912 10.048 35.433 18.58 9.695 7.803 15.461 20.131 15.361 32.571-.05 5.912-1.617 11.602-3.051 17.298-1.336 5.272-2.788 10.753-2.154 16.291 1.536 13.683 17.8 16.506 25.542 25.622 7.818 9.226 8.318 22.064 6.386 33.494-1.191 6.99-3.312 13.809-5.719 20.402-2.711 7.518-5.922 14.828-9.343 22.023-1.667 3.519-3.467 7.032-5.187 10.522-1.073 2.071-4.267.31-3.193-1.761 6.976-13.768 13.644-27.844 17.83-42.742 2.997-10.637 4.943-23.083.333-33.544-2.503-5.614-6.9-9.404-11.986-12.686-5.296-3.398-11.032-6.492-14.673-11.777-6.652-9.607-2.369-21.584.13-31.813 1.347-5.539 2.078-11.076 1.264-16.782-.809-5.84-3.069-11.524-6.377-16.42-7.23-10.541-19.471-15.583-30.724-20.558-11.411-5.062-23.509-10.982-29.354-22.671-2.999-5.954-4.205-12.559-6.391-18.749-2.162-6.108-5.722-11.416-10.493-15.89-4.846-4.584-10.561-8.213-16.344-11.469-4.788-2.709-9.995-5.648-15.619-6.222-2.585-.265-5.249.11-7.498 1.464-2.359 1.431-3.954 3.829-4.782 6.445-1.943 6.371.401 12.647 3.85 18.031 1.711 2.718 3.722 5.261 5.682 7.775.327.522-.583 1.181-1.072.706z" fill="#181D23"/><path d="M363.172 563.73c-1.927-8.641-3.639-17.301-6.105-25.83-2.443-8.447-5.264-16.83-8.6-25.019a193.325 193.325 0 0 0-6.2-13.523c-.397-.766-.226-1.695.539-2.093.684-.374 1.748-.197 2.093.539 3.876 8.078 7.422 16.383 10.371 24.904 2.925 8.441 5.305 17.127 7.012 25.919.951 4.963 1.768 9.92 2.075 14.936.001.616-1.049.788-1.185.167zm-39.039-92.532c-8.588-12.04-18.473-23.089-29.781-32.67-3.186-2.643-6.429-5.182-9.81-7.593-.6-.399-.916-1.188-.541-1.869.318-.576 1.269-.939 1.868-.54 12.306 8.765 23.31 19.27 32.513 31.308 2.566 3.395 5.022 6.865 7.258 10.488.578.933-.9 1.757-1.507.876z" fill="#181D23"/><path d="M292.252 437.507c-5.56-4.158-10.923-8.548-16.233-12.91-1.112-.954.474-2.469 1.563-1.596 5.392 4.338 10.702 8.7 15.787 13.347.827.729-.285 1.755-1.117 1.159z" fill="#181D23"/><path d="M253.007 396.616c-3.887-2.485-4.154-7.821-2.128-11.62 2.517-4.689 8.638-6.503 13.461-7.326 9.804-1.559 19.845.29 28.629 4.792 8.679 4.444 16.182 11.516 20.647 20.259 2.431 4.755 3.738 10.186 6.853 14.567 3.599 4.988 9.761 6.815 15.157 9.039 19.086 7.86 33.042 26.138 35.698 46.583 1.185 9.12.088 18.415.925 27.548.396 4.11 1.165 8.289 3.105 11.953a20.29 20.29 0 0 0 3.546 4.96c2.081 2.171 4.641 3.719 7.028 5.581 3.918 3.048 6.615 7.197 7.867 11.985 1.206 4.624 1.117 9.491.418 14.226-1.707 11.145-8.035 20.765-11.38 31.415-.863 2.802-1.568 5.69-1.872 8.595-.09.906-.685 1.738-1.678 1.806-.831.02-1.844-.744-1.806-1.679 1.141-11.729 7.428-21.645 11.133-32.575 2.732-8.052 4.094-17.952-.333-25.65-1.25-2.191-2.922-3.864-4.866-5.414-2.283-1.805-4.791-3.324-6.795-5.385-2.931-2.982-4.975-6.703-6.26-10.689-2.606-8.401-1.973-17.474-2.053-26.121-.003-4.576-.192-9.187-1.136-13.667a53.934 53.934 0 0 0-4.701-13.516c-4.337-8.604-10.854-16.226-18.88-21.607-4.534-3.046-9.406-4.981-14.408-7.056-2.762-1.182-5.414-2.439-7.801-4.301-2.154-1.666-3.915-3.797-5.264-6.18-2.628-4.521-3.893-9.657-6.469-14.149-2.249-3.971-5.181-7.568-8.617-10.623-6.896-6.192-15.702-10.159-24.939-11.361-4.607-.56-9.352-.376-13.942.643-4.347.949-9.682 3.197-10.34 8.228-.272 2.103.397 4.11 2.085 5.383.914.572-.075 1.87-.884 1.356z" fill="#181D23"/><path d="M411.891 529.483c-1.423 3.449-3.004 6.81-4.637 10.143-1.632 3.333-3.265 6.666-4.95 9.97a695.124 695.124 0 0 1-10.611 19.617c-2.073 3.636-4.17 7.191-6.295 10.799-.688 1.123-2.52.112-1.833-1.011 7.659-12.777 14.766-25.791 21.641-39.002 1.916-3.723 3.751-7.423 5.771-11.088.265-.605 1.156-.114.914.572zm-54.318 106.196c5.459-9.281 11.33-18.197 17.778-26.795 6.447-8.598 13.413-16.774 20.74-24.615 7.327-7.84 15.091-15.235 23.24-22.213 8.177-7.03 16.687-13.672 25.471-19.821a310.825 310.825 0 0 1 27.148-16.918c1.176-.648 2.353-1.297 3.582-1.916 1.832-.97 3.566 1.829 1.705 2.852-9.385 5.135-18.543 10.6-27.427 16.558a305.374 305.374 0 0 0-25.335 19.078 319.557 319.557 0 0 0-23.351 21.673c-7.426 7.649-14.544 15.605-21.248 23.925-6.675 8.268-12.96 16.82-18.803 25.683-.74 1.094-1.427 2.217-2.167 3.312-.538.727-1.794.034-1.333-.803z" fill="#181D23"/><path d="M403.979 575.782c5.187-7.177 11.781-13.441 18.569-19.189 6.816-5.801 14.065-11.022 21.768-15.582 4.359-2.581 8.765-4.999 13.346-7.117 1.119-.543 2.176 1.132 1.028 1.728-8.02 3.771-15.794 8.088-23.089 13.147a158.341 158.341 0 0 0-20.452 16.785c-3.566 3.496-6.952 7.16-10.442 10.766-.388.332-1.011-.148-.728-.538z" fill="#181D23"/><path d="M445.932 543.404c6.273-8.9 10.613-19.001 12.809-29.671.2-.982 1.711-.627 1.511.356-2.149 10.832-6.843 21.079-13.592 29.853-.312.442-1.04-.095-.728-.538zm-.875 7.779c6.983-4.616 14.738-7.783 22.985-9.244 2.345-.414 4.766-.718 7.153-.836 1.474-.074 1.517 2.202.042 2.276-10.353.574-20.593 3.667-29.479 9.01-.742.478-1.471-.675-.701-1.206z" fill="#181D23"/><path d="M397.498 584.567c2.003-1.9 4.087-3.823 6.347-5.445 2.26-1.622 4.619-3.052 7.082-4.425 4.899-2.693 10.153-4.917 15.467-6.63 10.982-3.572 22.452-5.304 33.953-6.474 12.575-1.26 25.17-1.69 37.779-3.136 6.13-.716 12.29-1.485 18.266-3.038 4.84-1.223 10.052-3.743 11.203-9.049 1.218-5.678-4.639-8.429-8.833-10.605-6.108-3.163-12.163-6.297-18.3-9.407-5.375-2.759-11.075-5.423-14.42-10.75-2.288-3.651-3.266-7.945-4.063-12.072-.798-4.126-1.375-8.405-3.008-12.377-.685-1.607-1.736-3.415-2.89-4.666-1.591-1.697-3.604-2.875-5.853-3.501-5.295-1.417-10.795.262-15.275 3.186-5.03 3.303-8.894 8.205-12.613 12.846a199.11 199.11 0 0 0-21.184 32.973c-6.008 11.64-10.916 23.886-14.529 36.506-.873 3.069-1.774 6.19-2.514 9.265-.476 1.854-3.364 1.149-2.888-.705.802-3.313 1.576-6.573 2.564-9.852.96-3.226 1.943-6.371 3.059-9.511 2.21-6.36 4.71-12.629 7.524-18.724 5.629-12.19 12.386-23.827 20.261-34.643 3.799-5.279 7.731-10.553 12.251-15.162 4.162-4.328 9.237-8.084 15.227-9.288 5.449-1.092 11.324-.107 15.5 3.835 3.146 2.963 4.721 7.041 5.733 11.149 1.06 4.271 1.527 8.625 2.696 12.82.558 2.083 1.232 3.957 2.336 5.794 1.302 2.22 3.05 4.003 5.209 5.535 2.759 1.931 5.807 3.338 8.797 4.85 3.147 1.599 6.212 3.221 9.359 4.819 3.147 1.599 6.213 3.221 9.36 4.819 2.571 1.281 5.299 2.649 7.246 4.814 1.818 2.027 2.866 4.585 2.567 7.356-.27 2.719-1.47 5.266-3.263 7.281-4.01 4.549-10.482 5.76-16.088 6.766-12.752 2.323-25.654 3.062-38.59 3.986-12.129.823-24.263 1.78-36.119 4.46-10.991 2.475-21.851 6.319-31.308 12.576-2.336 1.511-4.671 3.023-6.831 4.836-.858.688-1.941-.319-1.217-1.012zm-27.641 58.43c-4.289 2.825-8.548 5.597-12.609 8.752-4.085 3.074-7.965 6.396-11.74 9.777-1.112 1.025-2.761-.566-1.701-1.621 3.757-3.595 7.771-6.912 12.018-10.033 4.218-3.068 8.535-5.945 13.156-8.382.956-.497 1.785.848.876 1.507z" fill="#181D23"/><path d="M435.554 617.088c7.998-3.238 16.524-4.955 25.064-5.709 8.621-.777 17.234-.671 25.883-.135 8.835.569 17.654 1.54 26.444 2.563 8.685.965 17.399 1.878 26.129 2.389 8.731.512 17.453.542 26.162-.392 4.22-.472 8.394-1.107 12.554-2.09 4.457-1.025 9.36-2.487 12.525-5.999 2.83-3.151 3.107-7.368 1.741-11.33-1.413-4.124-4.351-7.588-7.583-10.394-7.268-6.26-16.954-9.621-26.518-9.363-5.25.109-10.338 1.537-15.422 2.831-4.973 1.218-10.04 2.112-15.215 1.716-9.689-.631-19.058-4.567-26.205-11.171-1.782-1.597-3.263-3.369-4.738-5.275-.484-.608-.122-1.637.481-1.988.713-.426 1.504-.126 1.988.482 5.773 7.484 14.669 12.526 23.857 14.314 4.753.914 9.625.869 14.425-.035 5.421-1.04 10.601-2.758 16.093-3.554 9.932-1.42 20.352.98 28.75 6.429 7.408 4.768 15.135 12.92 13.975 22.453-1.255 10.574-13.656 13.5-22.333 14.997-8.707 1.55-17.584 2.049-26.436 1.88-8.984-.174-17.89-.988-26.79-1.935-8.766-.941-17.551-2.098-26.351-2.853-8.772-.808-17.555-1.349-26.341-1.141-8.6.243-17.203 1.235-25.583 3.306a107.661 107.661 0 0 0-6.196 1.704c-1.033.387-1.474-1.29-.36-1.7zm17.836-48.202c-2.971.684-5.341 2.381-7.308 4.711-2.054 2.486-3.717 5.256-5.433 7.996-1.769 2.712-3.676 5.553-6.248 7.617-2.931 2.344-6.395 3.302-10.117 3.366-3.99.053-7.923-.613-11.853-.049-3.767.517-7.439 1.975-10.574 4.07-3.379 2.166-6.012 5.084-8.103 8.505-1.259 2.037-2.467 4.102-4.244 5.717-1.639 1.486-3.61 2.584-5.523 3.577-1.966.965-3.903 1.877-5.716 3.062-1.867 1.156-3.634 2.503-5.325 3.96-3.382 2.915-6.432 6.218-9.377 9.578-.729.827-1.487 1.706-2.216 2.533-1.122 1.293-3.028-.576-1.905-1.869 5.867-6.802 11.954-13.756 20.018-17.981 1.995-1.017 4.065-1.924 5.931-3.079a14.845 14.845 0 0 0 4.788-4.598c1.254-1.903 2.351-3.893 3.815-5.68 1.238-1.503 2.633-2.918 4.18-4.114 3.07-2.472 6.676-4.307 10.546-5.382 3.923-1.047 7.854-.996 11.885-.753 3.712.203 7.586.359 10.931-1.621 2.741-1.629 4.771-4.196 6.534-6.775 3.492-4.971 6.705-11.665 12.965-13.608a10.526 10.526 0 0 1 2.264-.39c.621-.136.787 1.048.085 1.207zm38.681-54.801c12.223-5.824 24.868-10.801 37.635-15.505 12.656-4.629 25.454-8.77 38.581-11.774 13.208-3.028 26.606-4.79 40.17-5.368 13.454-.502 26.9-.122 40.327.044 13.428.166 26.866.065 40.177-1.541 1.666-.173 3.309-.428 4.975-.602 1.829-.221 2.268 2.821.486 3.204-6.581 1.287-13.45 1.733-20.127 2.08-6.678.347-13.397.397-20.139.367-13.485-.061-26.897-.628-40.369-.34-13.339.292-26.61 1.578-39.697 4.262-13.169 2.708-26.089 6.577-38.764 10.991-12.675 4.414-25.191 9.53-37.749 14.35-1.549.58-3.202 1.102-4.751 1.682-1.003.334-1.793-1.33-.755-1.85z" fill="#181D23"/><path d="M670.105 483.678c-16.61-.213-33.157-.665-49.756-1.146-4.653-.107-9.352-.376-14.009-.35-.697.026-.903-.839-.352-1.218 11.558-8.58 24.926-14.251 38.295-19.306 3.858-1.423 7.715-2.847 11.596-4.189 1.357-.481 1.916 1.602.611 2.112-6.711 2.513-13.417 4.892-20.029 7.596a222.426 222.426 0 0 0-19.385 8.908 137.634 137.634 0 0 0-10.359 6.032l-.352-1.218c4.165.248 8.311.281 12.481.395l12.511.343c8.259.252 16.518.504 24.724.728 4.705.135 9.351.376 14.027.564.453.045.45.794-.003.749z" fill="#181D23"/><path d="M641.403 481.372c-5.89 1.396-12.195.446-17.396-2.627a.536.536 0 0 1-.212-.731l1.056-2.285c.294-.658 1.289-.109.994.548-.351.762-.703 1.524-1.107 2.257l-.212-.731c4.935 3.062 10.966 4.134 16.636 2.891.488-.141.699.59.241.678zm-4.84-18.713c-11.685 9.057-26.098 12.785-40.393 15.555-7.336 1.417-14.795 2.562-22.108 4.061-8.014 1.657-15.836 3.831-23.522 6.626-9.344 3.451-18.402 7.743-27.302 12.121-1.148.596-2.228-1.16-1.028-1.727 15.429-7.675 31.284-14.637 48.207-18.211 14.468-3.084 29.377-4.491 43.598-8.735 7.855-2.36 15.453-5.614 22.122-10.403.388-.332.814.381.426.713z" fill="#181D23"/><path d="M541.308 494.872a112.18 112.18 0 0 1-7.495 4.06c-2.239 1.088-4.616 2.303-7.013 2.688-2.182.368-4.414-.043-5.703-1.915-1.19-1.68-1.204-4.009.534-5.304.8-.583 1.577.733.829 1.345-1.326 1.044-.291 3.253.803 3.993 1.537 1.052 3.806.527 5.407-.024 4.258-1.407 8.328-3.464 12.189-5.637.469-.356.971.467.449.794zm-66.153-9.3c1.339-2.675 2.677-5.351 4.226-7.911a73.7 73.7 0 0 1 5.086-7.369c3.384-4.279 7.419-8.131 12.231-10.667 4.267-2.29 9.117-3.781 14.013-3.744 2.515.021 5.095.419 7.496 1.265 2.954 1.082 5.647 2.636 8.341 4.189 4.288 2.501 8.948 5.07 14.12 4.235 1.939-.297 3.876-1.209 5.09-2.793 1.301-1.74 1.526-4.006 1.45-6.096-.089-2.439-.504-4.784-.54-7.194-.089-2.439.327-4.804 1.301-7.066 2.024-4.414 6.085-7.569 10.516-9.291 10.655-4.094 21.72 1.597 30.421 7.486 4.819 3.272 9.8 6.496 15.92 6.047 5.179-.354 10.195-2.64 14.881-4.7 9.592-4.27 19.111-9.4 29.747-10.363 10.392-.893 20.56 2.46 29.393 7.739 9.304 5.54 17.412 12.878 25.026 20.49 3.578 3.542 8.155 7.5 6.617 13.138-1.354 5.057-6.026 8.08-10.935 9.06-2.537.513-5.19.621-7.792.757-2.09.076-2.123-3.083-.085-3.188 4.691-.213 10.185-.393 13.599-4.109 1.343-1.445 2.277-3.387 2.062-5.35-.281-2.339-2.162-4.128-3.758-5.69-7.307-7.306-14.885-14.488-23.487-20.187-8.159-5.386-17.551-9.404-27.482-9.348-10.197.044-19.509 4.674-28.561 8.832-4.744 2.164-9.545 4.433-14.652 5.645-2.512.595-5.096.946-7.681.681-2.904-.304-5.625-1.189-8.22-2.552-5.084-2.666-9.457-6.375-14.599-8.937-4.59-2.325-9.665-3.894-14.902-3.436-4.43.357-8.801 2.589-11.642 6.007a11.976 11.976 0 0 0-2.502 5.653c-.33 2.208-.02 4.495.237 6.754.485 4.568.577 9.603-3.327 12.845-3.516 2.909-8.504 3.163-12.799 2.161-5.643-1.405-10.221-5.363-15.478-7.715-4.286-1.885-9.066-2.131-13.605-1.083-10.456 2.496-17.986 10.703-23.689 19.438-1.595 2.398-3.191 4.796-4.681 7.252-.485.756-1.794.034-1.356-.885zm-2.599-47.792c2.062-5.35 4.967-10.371 7.843-15.34 2.957-4.992 6.019-9.927 9.262-14.693a315.262 315.262 0 0 1 20.887-27.606c7.446-8.799 15.387-17.257 23.788-25.188a331.136 331.136 0 0 1 26.433-22.433c9.165-6.963 18.743-13.562 28.742-19.315 1.235-.753 2.493-1.425 3.751-2.097 1.971-1.098 3.752 1.864 1.804 3.043-9.842 5.839-19.485 12.061-28.721 18.781-9.154 6.697-17.929 13.944-26.238 21.584a314.45 314.45 0 0 0-23.975 24.538 304.579 304.579 0 0 0-21.099 26.875c-6.532 9.371-12.384 19.117-18.264 28.916-.746 1.228-1.491 2.456-2.288 3.655-.648.803-2.316.361-1.925-.72z" fill="#181D23"/><path d="M489.947 411.933c2.032-3.932 4.535-7.605 7.038-11.277 2.502-3.673 5.081-7.236 7.741-10.821 5.181-7.044 10.676-13.915 16.322-20.565 11.351-13.405 23.605-25.971 36.709-37.727 7.384-6.581 14.971-12.912 22.838-18.884.469-.356 1.26-.056 1.564.384.379.551.114 1.155-.384 1.563a381.722 381.722 0 0 0-39.635 34.613c-12.324 12.322-23.879 25.478-34.421 39.398-2.967 3.895-5.858 7.9-8.696 11.933-2.81 3.982-5.41 8.078-8.4 11.892-.359.28-.878-.142-.676-.509z" fill="#181D23"/><path d="M530.023 359.061c11.342-12.523 14.927-29.8 16.309-46.175.403-4.694.673-9.393.913-14.04.043-1.069 1.72-1.51 2.02-.32 1.573 6.807 2.147 13.815 1.786 20.785a73.096 73.096 0 0 1-1.279 10.492c-.605 3.08-1.583 6.091-2.189 9.171-.537 2.708-.776 5.99 1.525 8.01.879.758-.348 1.993-1.257 1.287-2.258-1.723-2.761-4.527-2.52-7.193.257-3.067 1.311-5.968 2.021-8.991 1.616-6.892 2.168-13.962 1.756-21.017a71.39 71.39 0 0 0-1.74-11.951l2.02-.321c-.869 16.932-1.788 34.45-9.898 49.779-2.257 4.217-4.957 8.123-8.227 11.577-.834.77-1.941-.319-1.24-1.093zm34.841-15.27c14.165-8.85 30.563-13.328 46.778-16.609 4.614-.938 9.251-1.795 13.808-2.629.621-.135 1.225.13 1.413.78.165.568-.158 1.278-.779 1.413-16.176 2.962-32.648 5.965-47.989 12.118a119.21 119.21 0 0 0-12.658 5.994c-.603.35-1.204-.664-.573-1.067z" fill="#181D23"/><path d="M503.33 389.27c8.321-5.927 17.224-11.055 26.298-15.747 9.102-4.745 18.427-9.027 27.822-13.064 18.923-8.069 38.281-14.944 57.714-21.708 19.433-6.765 38.994-13.39 58.164-20.914 9.518-3.765 18.988-7.693 28.261-12.002 2.319-1.111 4.61-2.17 6.958-3.333 2.319-1.111 4.61-2.17 6.73-3.663 1.681-1.19 3.493-2.991 3.503-5.238.005-2.114-1.61-3.892-3.28-4.949-6.029-3.802-14.159-1.935-20.876-1.269-3.547.366-7.141.569-10.645-.134-3.609-.76-6.74-2.76-8.812-5.814-2.55-3.795-3.024-8.631-5.574-12.427-2.422-3.657-6.805-5.118-11.01-5.046-10.36.092-17.714 8.6-24.877 15.029-7.082 6.405-16.059 12.038-25.998 9.631-10.363-2.505-17.332-11.536-26.078-16.973-3.107-1.918-8.121-4.341-10.716-.377-1.398 2.164-2.163 4.542-3.928 6.505-1.458 1.654-3.353 2.862-5.394 3.717-4.165 1.732-8.909 1.916-13.319 1.123-5.578-1.028-10.715-3.723-15.844-5.937-4.287-1.885-9.183-3.902-14.001-3.213-1.805.302-3.655 1.058-4.76 2.565-1.555 2.079-1.65 5.099-1.938 7.603-1.246 9.69-1.186 19.487-1.015 29.208.399 19.338 1.984 39.125-2.687 58.124-1.124 4.638-2.695 9.097-4.609 13.436-.381.814-1.541 1.062-2.274.658-.838-.462-.986-1.431-.658-2.275 7.898-18.04 7.722-38.278 7.161-57.569-.265-10.046-.663-20.097-.231-30.169.199-4.942.636-9.822 1.341-14.691.432-2.766 1.108-5.602 3.222-7.577 1.586-1.515 3.599-2.317 5.781-2.685 5.172-.835 10.236 1.001 14.946 2.984 5.211 2.19 10.237 4.961 15.81 6.122 4.167.864 8.882.732 12.709-1.255 1.803-.917 3.355-2.246 4.413-3.916 1.49-2.456 2.271-5.234 4.722-6.955 3.801-2.684 8.813-.877 12.339 1.272 4.649 2.837 8.755 6.534 13.035 9.918 3.941 3.129 8.313 6.222 13.328 7.28 4.591.961 9.21-.111 13.286-2.302 9.136-4.931 15.171-13.893 24.103-19.073 4.11-2.377 8.85-3.792 13.706-3.436 4.775.379 9.271 2.38 12.054 6.372 2.655 3.854 3.071 8.795 5.726 12.648 1.867 2.805 4.758 4.125 8.006 4.55 3.486.489 7.172-.005 10.667-.4 3.791-.436 7.558-.953 11.322-.722 3.897.238 7.792 1.224 10.872 3.81 1.863 1.574 3.218 3.823 3.412 6.319.165 2.549-1.111 4.986-2.841 6.763-1.87 1.905-4.281 3.307-6.682 4.441-2.319 1.111-4.586 2.251-6.958 3.333a389.061 389.061 0 0 1-14.498 6.481c-19.144 8.221-38.745 15.166-58.369 22.03-19.758 6.858-39.511 13.583-59.029 21.12-19.355 7.49-38.242 15.989-56.364 26.071-4.406 2.419-8.736 4.948-13.066 7.476-1.177.649-2.181-.998-1.08-1.756zm-24.792 54.13c2.5-.943 4.901-2.078 7.372-2.969 2.471-.89 4.971-1.833 7.495-2.695 4.965-1.7 9.931-3.4 14.973-4.99 10.001-3.157 20.173-5.879 30.423-7.875 10.249-1.996 20.576-3.266 30.994-3.462 10.203-.178 20.364.713 30.365 2.881 9.897 2.111 19.578 5.605 28.45 10.565 1.099.607 2.17 1.265 3.241 1.924.861.543 1.219 1.628.728 2.518-.462.838-1.628 1.219-2.518.728a98.35 98.35 0 0 0-27.221-11.184c-9.671-2.397-19.582-3.491-29.559-3.599-10.14-.06-20.295.896-30.266 2.636-10.215 1.81-20.3 4.374-30.292 7.264-10.02 2.941-19.794 6.428-29.738 9.48-1.247.405-2.489.676-3.736 1.081-1.491.475-2.097-1.77-.711-2.303z" fill="#181D23"/><path d="M687.501 443.086c6.287-5.955 4.786-15.864.259-22.388-5.595-7.932-15.841-10.031-24.975-9.81-5.116.116-10.178.875-15.245 1.768-4.852.876-9.704 1.751-14.605 1.848-4.901.097-9.875-.665-14.307-2.904-4.171-2.095-7.678-5.394-10.75-8.863-6.067-6.827-11.35-15.202-20.142-18.821-8.374-3.387-18.254-1.938-26.15 2.106-9.37 4.734-16.534 12.527-23.065 20.534-2.591 3.214-5.432 6.632-9.253 8.485-2.047.988-4.235 1.489-6.477 1.345-2.533-.236-4.905-1.134-7.133-2.294-2.228-1.16-4.317-2.449-6.603-3.504-2.024-.911-4.14-1.531-6.319-1.914-4.224-.758-8.677-.483-12.82.715-9.179 2.655-16.176 10.268-18.579 19.457a29.628 29.628 0 0 0-.89 6.815c.001 1.98-3.054 2.072-3.054.091-.121-10.308 5.178-20.29 13.807-25.911 7.778-5.065 18.047-6.231 26.78-3.123 2.401.846 4.6 2.058 6.852 3.3 2.147 1.183 4.265 2.419 6.653 2.917 4.429 1.008 8.143-1.519 11.13-4.583 3.519-3.659 6.467-7.768 9.882-11.484 3.663-3.921 7.636-7.534 12.092-10.539 8.142-5.48 18.033-8.56 27.876-7.094 4.788.728 9.178 2.671 13.021 5.609 3.895 2.967 7.06 6.76 10.121 10.496 3.061 3.736 6.145 7.553 9.93 10.596 3.785 3.042 8.262 4.828 13.061 5.289 5.065.471 10.15-.207 15.136-1.077 5.172-.835 10.297-1.833 15.528-2.158 9.661-.681 21.118.583 28.18 7.958 3.083 3.202 5.245 7.33 6.194 11.677.831 3.94.701 8.511-1.372 12.147-.953 1.728-2.377 3.196-3.976 4.363-.532.594-1.424-.512-.787-1.049z" fill="#181D23"/><path d="M484.996 437.879c9.664-5.391 20.407-9.027 31.09-11.808 10.764-2.805 21.804-4.501 32.964-5.176 6.224-.392 12.484-.354 18.682-.078 1.44.112 1.511 2.336.071 2.224a166.628 166.628 0 0 0-32.895 1.46c-10.901 1.568-21.659 4.239-32.055 7.862-5.835 2.039-11.577 4.404-17.238 6.745-.788.316-1.303-.855-.619-1.229zm68.001-19.314c9.596-3.039 18.651-7.946 26.377-14.406a74.691 74.691 0 0 0 6.201-5.798c.95-.979 2.522.503 1.544 1.534-7.206 7.497-15.898 13.356-25.403 17.469a75.186 75.186 0 0 1-8.226 2.907c-1.056.305-1.497-1.372-.493-1.706zm67.439 11.92l5.416-.906c.296-.041.563-.03.825.114.209.115.466.393.536.637.112.54-.129 1.226-.75 1.361-1.806.302-3.558.633-5.363.935-.297.042-.564.031-.825-.113-.262-.145-.466-.394-.537-.637-.193-.517.077-1.255.698-1.391zm-175.354-73.398c-.59-6.607-.861-13.174-1.829-19.716a155.166 155.166 0 0 0-4.168-19.436c-3.677-13.02-8.979-25.57-15.214-37.542-6.907-13.231-14.962-25.865-23.348-38.272-8.688-12.847-17.707-25.466-26.616-38.162-9.212-13.136-18.425-26.271-27.585-39.378-1.166-1.599-2.252-3.222-3.418-4.821-1.19-1.68 1.551-3.309 2.741-1.629 9.288 13.246 18.524 26.463 27.812 39.709 9.009 12.886 18.098 25.75 27.048 38.741 8.519 12.412 16.76 25.081 23.934 38.322 6.602 12.174 12.271 24.926 16.367 38.177 3.932 12.683 6.548 26.142 6.358 39.488-.012 1.632-.181 3.177-.379 4.775-.142.877-1.578.632-1.703-.256z" fill="#181D23"/><path d="M399.125 233.635c-7.631-7.211-14.984-14.679-22.25-22.304-7.243-7.544-14.371-15.297-21.417-23.074-3.969-4.441-7.938-8.883-11.878-13.377-.793-.915.492-2.254 1.285-1.339a1347.406 1347.406 0 0 0 20.999 23.458 1249.513 1249.513 0 0 0 21.556 22.945l12.324 12.94c.49.475-.182 1.197-.619.751z" fill="#181D23"/><path d="M382.65 219.431c-13.687-12.326-27.091-25.041-38.52-39.604-4.863-6.164-10.268-12.831-12.448-20.519-.963-3.33-1.166-6.924.089-10.192 1.411-3.797 4.578-6.693 5.303-10.732 1.009-5.793-1.989-11.748-3.755-17.091-.979-2.929-1.767-5.958-1.91-9.041-.175-3.647.642-7.976 4.015-10.008 2.771-1.681 6.223-1.007 8.916.546 3.09 1.704 5.473 4.315 7.776 6.95 5.17 5.855 9.511 12.345 13.633 18.987 8.015 12.954 15.163 26.863 25.797 37.915 5.395 5.569 11.646 9.835 18.482 13.536 6.783 3.671 13.873 7.034 19.883 11.986 5.671 4.697 9.675 10.933 10.878 18.287 1.137 6.977-.03 14.049-1.03 20.94-.948 6.919-1.738 13.926.072 20.796 1.77 6.574 5.418 12.34 9.483 17.722 8.486 11.234 19.048 21.427 22.873 35.416 3.938 14.529.933 30.01-3.272 44.077a355.19 355.19 0 0 1-3.398 10.622c-.673 2.087-3.986 1.284-3.313-.803 4.485-13.708 8.951-28.247 8.172-42.81-.411-7.054-2.251-13.872-5.668-20.058-3.266-5.965-7.656-11.253-11.941-16.483-4.286-5.231-8.676-10.519-12.051-16.408-3.376-5.89-5.418-12.341-5.544-19.17-.122-6.963 1.279-13.837 2.064-20.71.746-6.553.839-13.534-2.154-19.622-3.296-6.529-9.274-10.918-15.471-14.539-6.563-3.823-13.554-6.995-19.857-11.289-12.45-8.503-20.958-21.182-28.607-33.934-3.964-6.555-7.737-13.21-11.95-19.562-2.043-3.106-4.196-6.136-6.487-9.038-2.216-2.792-4.56-5.723-7.303-8.055-1.887-1.655-4.832-3.62-7.484-2.897-3.435.906-3.599 5.662-3.34 8.536.536 5.963 3.474 11.406 4.875 17.163.689 2.837 1.052 5.769.51 8.611-.251 1.568-.821 3.098-1.571 4.459-1.097 1.99-2.689 3.638-3.734 5.657-3.475 6.55.551 14.232 4.182 19.784 9.886 15.009 22.559 27.937 35.247 40.463 3.088 3.068 6.228 6.165 9.316 9.233.618.613-.164 1.412-.758.879z" fill="#181D23"/><path d="M448.589 335.124c-1.281-10.061 1.009-20.405 6.568-28.879.798-1.199 2.735-.131 1.937 1.068-5.438 8.131-8.031 18.035-7.193 27.783.073.859-1.211.834-1.312.028z" fill="#181D23"/><path d="M445.045 320.129c2.323-5.206 5.223-10.093 8.646-14.692.908-1.275 2.648.026 1.688 1.272-3.417 4.465-6.445 9.214-9.13 14.084-.433.785-1.556.097-1.204-.664zm-38.218-77.058c-.08-8.647-.026-17.289-.002-25.878-.022-1.446 2.283-1.541 2.277-.042-.135 8.665-.241 17.278-.48 25.885-.072 1.121-1.733 1.161-1.795.035zm80.668 164.642c3.797-9.24 7.856-18.336 12.02-27.374.646-1.419 2.74-.265 2.094 1.154-4.163 9.039-8.38 18.048-12.858 26.913-.485.756-1.637.121-1.256-.693zm19.882-69.126c-1.767-18.59-10.637-35.565-20.119-51.308-4.788-8.033-9.878-15.892-14.556-24.001-2.301-4-4.73-8.139-5.372-12.794-.356-2.45-.15-4.93.72-7.25.956-2.477 2.412-4.747 3.997-6.878 2.809-3.981 5.317-7.787 6.446-12.559.974-4.242 1.017-8.656.388-12.963-1.4-9.102-5.609-17.567-10.848-25.03-6.026-8.512-13.293-16.137-19.539-24.497-5.891-7.89-10.629-16.511-13.081-26.056a70.23 70.23 0 0 1-1.501-27.865c1.227-8.541 3.934-17.29 9.324-24.218 4.459-5.735 11.592-10.747 19.228-8.994 2.174.516 4.193 1.56 6.125 2.762 1.856 1.092 3.887 2.485 6.048 2.652 3.654.308 6.476-3.325 9.555-4.7 2.099-.96 4.248-1.14 6.411-.358 2.529.985 4.73 2.813 6.971 4.322 4.947 3.41 9.871 6.74 14.818 10.15 9.534 6.485 19.125 12.866 28.514 19.613 16.467 11.742 32.628 25.773 39.19 45.572 2.815 8.517 3.832 17.817 1.95 26.679-.984 4.51-2.759 8.72-5.005 12.671-2.276 4.003-5.287 8.35-4.761 13.215.257 2.259 1.269 4.387 2.176 6.457.982 2.18 1.936 4.413 2.455 6.816.92 4.399.708 8.993-.352 13.393-2.378 9.886-8.833 18.002-16.35 24.577-4.106 3.608-8.515 6.776-12.872 9.973-.718.559-1.852.139-2.33-.603-.503-.823-.169-1.799.602-2.33 8.465-6.189 17.456-12.839 23.066-21.899 4.576-7.309 7.037-16.603 4.112-25.043-1.507-4.45-4.342-8.471-4.009-13.408.303-4.885 3.014-9.058 5.375-13.218 4.378-7.692 5.948-16.112 5.042-24.872-.881-8.679-4.126-17.159-8.807-24.52-5.534-8.786-13.055-16.073-21.061-22.604-8.396-6.814-17.522-12.801-26.427-18.94-9.662-6.624-19.3-13.167-28.961-19.791-1.851-1.226-3.989-3.292-6.347-3.226-1.608.069-3.068 1.107-4.337 2.046-3.413 2.352-6.844 4.488-11.123 3.085-4.04-1.34-7.303-4.71-11.643-5.259-3.277-.373-6.351.868-8.993 2.689-6.467 4.423-10.056 11.798-12.169 19.099-2.574 8.754-3.264 17.932-2.103 26.971 1.156 9.172 4.333 18.024 9.207 25.9 5.377 8.7 12.324 16.285 18.749 24.197 5.988 7.467 11.455 15.26 14.731 24.304 2.935 8.173 4.144 17.374 1.558 25.78-.673 2.087-1.532 4.139-2.571 6.024-1.323 2.275-2.959 4.377-4.491 6.537-1.532 2.159-3.017 4.481-3.63 7.079-.516 2.174-.311 4.403.299 6.515 1.245 4.305 3.79 8.234 6.044 12.072 2.354 4.028 4.765 7.952 7.199 11.957 9.336 15.389 19.242 31.229 23.103 48.993.926 4.265 1.555 8.572 1.755 12.916.028 1.312-1.686 1.323-1.8.168z" fill="#181D23"/><path d="M547.7 272.264c-2.988 1.084-5.758 2.765-8.068 4.974-.892.874-2.308-.521-1.416-1.395a22.727 22.727 0 0 1 9.014-5.204c1.056-.305 1.502 1.238.47 1.625zm-26.479.968c-2.379-4.725-3.854-9.976-5.281-15.065-1.428-5.088-2.449-10.294-3.337-15.495-1.875-10.593-2.996-21.315-4.035-32.062-.987-10.717-1.84-21.429-3.123-32.105-1.265-10.46-2.908-20.856-5.548-31.051-2.593-10.033-6.156-19.918-11.278-28.955-.625-1.095-1.303-2.22-1.927-3.316-.981-1.564 1.569-3.094 2.469-1.506 5.308 9.072 9.329 18.868 12.161 28.963 2.907 10.206 4.736 20.636 6.105 31.155 1.364 10.652 2.247 21.312 3.181 32 .935 10.689 1.974 21.435 3.553 32.069a215.377 215.377 0 0 0 7.022 30.978c.405 1.247.729 2.518 1.052 3.789.212.731-.664 1.204-1.014.601z" fill="#181D23"/><path d="M525.434 272.278c-5.666-15.482-10.862-31.32-11.665-47.944-.808-16.49 3.384-32.887 11.876-47.049 4.76-7.891 10.771-14.954 17.779-20.854.608-.484 1.415-.585 1.98-.001.489.475.609 1.497.001 1.981-12.425 10.15-21.474 24.21-26 39.603-2.264 7.696-3.336 15.708-3.257 23.74.107 7.979 1.311 15.949 3.113 23.701 2.05 8.914 4.773 17.721 7.606 26.452.34.87-1.122 1.293-1.433.371z" fill="#181D23"/><path d="M542.211 156.65c-4.345 6.89-9.342 13.352-14.828 19.34-1.343 1.444-2.714 2.941-4.162 4.328-1.256 1.288-2.517 2.709-4.03 3.718-1.101.759-2.516 1.344-3.87 1.076-1.592-.332-2.445-1.758-2.786-3.244-.384-1.781-.576-3.662-.878-5.467-.301-1.806-.656-3.64-1.01-5.474-.761-3.696-1.522-7.393-2.417-11.096-1.818-7.352-3.909-14.581-6.377-21.745-2.755-8.006-5.893-15.812-9.518-23.478-.568-1.201 1.16-2.228 1.727-1.028 6.134 13.146 11.097 26.806 14.76 40.843 1.858 7.032 3.362 14.211 4.599 21.379.279 1.724.505 3.419.783 5.143.266 1.376.828 2.71 2.452 2.24 1.434-.371 2.522-1.477 3.552-2.48a152.278 152.278 0 0 0 4.18-4.113 176.777 176.777 0 0 0 17.014-20.457c.335-.361 1.097-.009.809.515z" fill="#181D23"/><path d="M507.782 170.304c-7.46-15.447-17.727-29.643-30.095-41.514-3.477-3.351-7.152-6.469-10.965-9.46-.466-.393-.434-1.195-.017-1.579.474-.489 1.114-.41 1.579-.017 6.824 5.333 13.086 11.312 18.793 17.803 5.758 6.521 10.799 13.601 15.207 21.085a138.973 138.973 0 0 1 6.675 13.033c.345.737-.78 1.414-1.177.649zm66.869 99.887c2.511-13.841 5.997-29.33 17.169-38.942 9.816-8.516 23.575-9.943 35.799-6.48 3.017.844 5.994 2.007 8.804 3.351 3.018 1.46 5.893 3.181 8.941 4.588 2.756 1.316 5.762 2.427 8.887 2.579 2.992.147 5.887-.646 8.466-2.228 5.594-3.334 9.565-8.928 14.267-13.368 5.147-4.878 11.132-9.293 18.013-11.371 6.445-1.908 13.879-1.77 19.872 1.603 3.351 1.847 5.724 4.726 8.375 7.348 2.47 2.454 5.182 4.223 8.576 5.002 6.579 1.442 13.402-.531 19.591-2.717 6.434-2.257 12.964-4.938 19.898-5.007 5.703-.065 11.744 2.105 15.642 6.303a13.957 13.957 0 0 1 3.631 7.532c.458 3.257-.426 6.593-2.142 9.334-3.6 5.662-9.814 9.132-15.957 11.48-5.626 2.156-11.521 3.685-17.43 4.865-11.978 2.408-24.165 3.336-36.216 4.885-11.674 1.483-23.509 3.63-34.254 8.63a82.734 82.734 0 0 0-7.577 4.083c-1.866 1.156-3.595-1.777-1.728-2.933 9.991-6.234 21.445-9.546 33.007-11.57 11.776-2.041 23.696-2.98 35.509-4.592 5.787-.837 11.527-1.837 17.232-3.267 5.785-1.453 11.72-3.301 16.902-6.384 4.909-2.96 10.138-7.861 9.211-14.107-.712-4.899-5.23-8.346-9.723-9.731-5.895-1.816-12.052-.432-17.749 1.48-6.428 2.123-12.668 4.896-19.495 5.638-3.361.4-6.863.312-10.118-.595-3.494-.97-6.467-2.883-9.014-5.447-2.47-2.455-4.686-5.247-7.827-6.979-2.723-1.501-5.85-2.269-8.975-2.422-6.708-.216-12.995 2.394-18.395 6.245-5.51 3.926-9.838 9.05-14.55 13.758-4.515 4.475-9.997 8.348-16.624 8.108-6.708-.216-12.556-3.85-18.321-6.892-10.512-5.454-23.156-7.783-34.419-3.205-13.085 5.28-18.831 19.045-22.524 31.688-.965 3.36-1.906 6.801-2.685 10.195-.426 1.267-2.28.791-2.069-.458z" fill="#181D23"/><path d="M754.541 248.182c-5.403 1.254-10.824 2.294-16.226 3.548a354.932 354.932 0 0 0-15.9 4.07c-10.612 3.025-21.112 6.59-31.395 10.752-5.765 2.284-11.46 4.811-17.079 7.448-.545.246-1.184.167-1.563-.384-.275-.493-.161-1.318.384-1.563a314.558 314.558 0 0 1 31.012-12.534 304.343 304.343 0 0 1 32.185-9.088c6.076-1.361 12.199-2.56 18.381-3.247.621-.136.769.833.201.998zm-146.953 35.457c2.802-11.769 5.842-23.475 8.882-35.181.884-3.336 1.796-6.725 2.68-10.061.407-1.482 2.686-.909 2.307.521a1778.42 1778.42 0 0 1-9.493 35.05c-.965 3.359-1.9 6.667-2.865 10.027-.253.953-1.764.598-1.511-.356z" fill="#181D23"/><path d="M613.653 287.871a43.337 43.337 0 0 1-3.575-26.209c.25-1.569 2.744-1.014 2.412.579-1.617 8.257-.631 16.994 2.809 24.626.543 1.119-1.103 2.123-1.646 1.004zm64.242-25.005c14.076-5.963 28.761-11.795 40.18-22.227a63.05 63.05 0 0 0 8.489-9.452c.37-.548.996-.817 1.625-.47.523.288.839 1.077.469 1.624-8.702 13.432-23.427 21.563-37.775 27.649a234.38 234.38 0 0 1-12.401 4.907c-.516.193-1.168-.235-1.309-.722-.164-.568.206-1.116.722-1.309z" fill="#181D23"/><path d="M687.755 262.567a564.873 564.873 0 0 1 4.63-13.97c.426-1.267 2.495-.809 2.04.51-1.471 4.651-3.024 9.325-4.577 13.999-.426 1.268-2.547.781-2.093-.539zM490.398 690.613c-1.257-.693-.188-2.63 1.068-1.937 1.257.693.189 2.63-1.068 1.937zm-21.912-375.107c-.146 1.626-.582 3.161-.966 4.724-.413 1.616-.797 3.18-1.21 4.795-.797 3.18-1.67 6.249-2.519 9.399a422.436 422.436 0 0 1-5.788 18.794c-1.185 3.512-2.341 6.971-3.631 10.425-.391 1.081-2.141.663-1.749-.419a498.336 498.336 0 0 0 11.889-37.415c.471-1.72.941-3.441 1.36-5.19.447-1.802.842-3.632 1.551-5.29.184-.581 1.113-.41 1.063.177zm-5.603-12.375c-1.155 7.42-2.921 14.708-4.819 21.991-1.841 7.178-3.973 14.264-6.343 21.287-1.311 3.988-2.652 8.028-4.306 11.896-.357.895-1.886.325-1.581-.599 1.213-3.564 2.584-7.041 3.798-10.605 1.156-3.459 2.313-6.918 3.364-10.435a333.175 333.175 0 0 0 5.866-21.414c.969-4.109 1.884-8.247 2.8-12.384.218-.768 1.329-.429 1.221.263zm-4.888-8.225c-1.863 5.732-3.807 11.488-5.537 17.225a289.759 289.759 0 0 0-4.717 17.472c-.831 3.366-1.529 6.736-2.279 10.078-.229 1.034-1.764.598-1.563-.384 2.354-11.948 5.666-23.777 9.608-35.259a146.466 146.466 0 0 1 3.622-9.542c.231-.419 1.021-.119.866.41zm-5.538-17.323c-1.771 5.441-3.251 10.975-4.308 16.605-.998 5.526-1.229 11.271-2.495 16.786-.739 3.075-1.845 5.947-3.713 8.468-.509.675-1.679-.175-1.222-.879 3.104-4.639 3.94-10.118 4.613-15.55.679-5.566 1.625-11.121 3.048-16.549.821-3.098 1.775-6.191 2.909-9.116.271-.738 1.358-.48 1.168.235zm-6.773-5.92c-2.484 11.194-5.236 22.376-7.906 33.535-.229 1.034-1.792.65-1.563-.384 2.67-11.159 5.34-22.318 8.249-33.414.166-.796 1.438-.504 1.22.263zm-4.382-8.151c-.1 1.174-.55 2.36-.836 3.499l-.947 3.575c-.602 2.33-1.286 4.685-1.888 7.015-1.286 4.685-2.6 9.423-3.886 14.107-.282 1.006-1.845.622-1.564-.384 1.286-4.684 2.601-9.422 3.939-14.078.655-2.302 1.338-4.656 1.94-6.987.339-1.11.655-2.302.994-3.412.316-1.191.555-2.493 1.08-3.569.265-.605 1.248-.405 1.168.234zm-5.392-18.949c-1.43 4.946-2.889 9.945-4.081 14.955a223.815 223.815 0 0 0-3.075 15.237c-.148 1.011-1.711.627-1.511-.355 1.692-10.128 4.057-20.362 7.447-30.101.247-.819 1.467-.556 1.22.264zm-5.243-33.957c-.07 1.737-.488 3.486-.773 5.241-.314 1.807-.598 3.562-.912 5.369-.598 3.562-1.278 7.147-1.905 10.761a1352.97 1352.97 0 0 1-4.061 21.112c-.806 4.062-1.53 8.1-2.522 12.128-.252.953-1.711.627-1.511-.355.627-3.614 1.464-7.113 2.196-10.67.703-3.504 1.434-7.06 2.138-10.565a1362.33 1362.33 0 0 0 4.061-21.111c.4-1.964.748-3.957 1.148-5.921.348-1.994.567-4.126 1.235-6.079.155-.529.956-.497.906.09zm-7.156-18.352c-1.991 7.574-2.889 15.272-3.683 23.027-.823 7.808-1.779 15.61-3.694 23.294-1.084 4.318-2.254 8.794-4.024 12.871-.352.761-1.643.255-1.395-.565 1.172-3.86 2.501-7.633 3.54-11.499 1.039-3.865 1.839-7.793 2.535-11.779 1.241-7.577 1.791-15.262 2.899-22.845.654-4.282 1.471-8.611 2.869-12.756.131-.61 1.085-.358.953.252zm-10.243-6.808c-.268 3.334-.832 6.71-1.367 10.034-.535 3.324-1.071 6.647-1.687 9.994-1.233 6.694-2.652 13.354-4.175 19.956-.9 3.737-1.747 7.503-2.885 11.177-.305.925-1.711.627-1.511-.355 1.494-6.55 3.256-13.089 4.727-19.72 1.443-6.578 2.78-13.215 3.932-19.885.661-3.801 1.137-7.635 1.932-11.43.045-.453 1.032-.386 1.034.229zm-13.093-9.813c.005 3.212-.31 6.383-.573 9.584-.315 3.172-.63 6.344-1.049 9.458-.897 6.333-2.062 12.655-3.569 18.857-.837 3.498-1.807 6.992-2.83 10.456-.281 1.006-1.926.645-1.615-.413 3.567-12.166 6.128-24.614 7.517-37.162.412-3.596.61-7.174.97-10.799.055-.721 1.182-.782 1.149.019zm-12.47-7.968c.253 3.007.101 6.132.006 9.152a208.613 208.613 0 0 1-.714 9.097 137.06 137.06 0 0 1-3.327 18.171c-.832 3.365-1.849 6.696-2.971 9.969-.333.977-1.978.616-1.616-.413 3.837-11.54 6.353-23.535 7.139-35.733.244-3.415.222-6.842.385-10.234.027-.668 1.072-.706 1.098-.009zm-10.931-18.316c-.959 12.512-2.423 24.95-4.02 37.383a685.195 685.195 0 0 1-1.47 10.592c-.177 1.063-1.74.679-1.564-.384 1.731-12.428 3.353-24.78 4.764-37.247.355-3.491.762-6.954 1.145-10.498.051-.586 1.224-.486 1.145.154zm-9.627-10.156c-.146 6.952-.692 13.888-1.106 20.829a1409.84 1409.84 0 0 1-.634 10.438c-.187 3.311-.321 6.651-.746 9.899-.494 3.619-1.516 7.084-3.72 9.966-.566.78-1.917-.238-1.35-1.018 3.879-5.303 3.735-12.347 4.145-18.539.431-6.727.891-13.505 1.375-20.203.26-3.816.469-7.662.863-11.472.056-.721 1.148-.597 1.173.1zm-11.595-21.072c.349 3.948.24 7.984.16 11.968-.051 3.932-.236 7.858-.421 11.785a318.082 318.082 0 0 1-2.235 23.62c-.578 4.392-1.237 8.808-2.135 13.161-.177 1.063-1.793.65-1.616-.413 1.276-7.763 2.499-15.555 3.351-23.415.875-7.779 1.349-15.574 1.609-23.351.125-4.437.064-8.909.241-13.317-.025-.697.968-.764 1.046-.038zm-9.01 13.74c.109 1.289-.026 2.648-.103 3.903-.078 1.255-.103 2.538-.18 3.793-.16 2.643-.291 5.233-.451 7.876a599.074 599.074 0 0 1-1.158 15.475c-.252 2.933-.504 5.867-.837 8.824-.118.959-1.797.784-1.731-.203.925-10.346 1.902-20.664 2.722-31.067.112-1.441.252-2.934.311-4.403.112-1.441.119-2.939.364-4.375.131-.61 1.009-.467 1.063.177zm-6.936 10.104c-.338 7.051-.808 14.097-1.198 21.12-.101 1.173-1.895 1.208-1.795.035.471-7.046.89-14.121 1.494-21.162.09-.906 1.565-.98 1.499.007zm293.616 186.942c-3.943 3.561-7.776 7.046-11.283 11.053-.561.647-1.487-.274-.926-.92 3.53-3.926 7.35-7.759 11.597-10.88.441-.304 1.029.362.612.747zm-9.598.443c-4.809 5.132-9.176 10.576-13.078 16.414-.514.808-1.823.087-1.309-.722a114.007 114.007 0 0 1 13.589-16.473c.527-.461 1.273.292.798.781zm-8.447-.902c-2.513 3.94-5.289 7.735-8.14 11.421-2.851 3.685-5.836 7.365-9.182 10.709-.724.694-1.726-.337-1.107-1.088 2.951-3.494 6.058-6.901 8.933-10.505 2.904-3.657 5.621-7.348 8.368-11.091.509-.675 1.585-.15 1.128.554zm-11.035 1.563c-3.587 4.031-7.099 8.171-10.559 12.34-1.689 2.073-3.349 4.094-5.038 6.167-1.718 2.125-3.36 4.36-5.183 6.428-.561.646-1.679-.175-1.222-.879 1.561-2.212 3.331-4.308 5.049-6.434a369.329 369.329 0 0 1 5.201-6.213 383.528 383.528 0 0 1 10.849-12.248c.538-.728 1.464.193.903.839zm-11.629 1.031c-3.197 4.313-6.576 8.459-9.878 12.715-3.355 4.227-6.657 8.483-10.064 12.681-.677.856-1.859-.342-1.212-1.146 3.274-4.203 6.652-8.349 10.03-12.495 3.378-4.146 6.652-8.349 10.135-12.437.422-.519 1.412.164.989.682zm-11.87-3.609c-2.86 4.568-6.011 9.044-9.028 13.526-3.017 4.481-6.034 8.962-9.08 13.496-1.734 2.526-3.392 5.162-5.231 7.631-.595.832-2.067.157-1.466-.809 2.86-4.568 6.063-9.015 9.132-13.468 3.07-4.452 6.087-8.934 9.185-13.438 1.734-2.527 3.445-5.134 5.284-7.602.485-.757 1.718-.145 1.204.664zm-12.286 2.717c-5.806 11.273-12.449 22.085-19.768 32.388-2.041 2.834-4.012 5.913-6.39 8.493-.562.647-1.76-.151-1.246-.96 1.658-2.636 3.683-5.07 5.55-7.591 1.845-2.601 3.689-5.203 5.481-7.834a326.558 326.558 0 0 0 10.007-15.921c1.784-3.113 3.54-6.173 5.22-9.344.352-.762 1.608-.069 1.146.769zm-16.15 10.964c-3.277 4.953-6.711 9.819-9.859 14.91-3.201 5.063-6.164 10.189-9.103 15.396-.491.89-1.905.111-1.414-.779 2.864-5.317 5.96-10.438 9.19-15.553 3.201-5.063 6.506-10.068 10.202-14.79.37-.547 1.383.217.984.816zm-15.093 14.619c-4.273 5.769-8.156 11.822-11.358 18.249-.468.972-1.986.134-1.466-.808 3.365-6.475 7.282-12.713 11.95-18.332.509-.675 1.383.216.874.891zm-3.471-6.83c-.607 1.1-1.399 2.165-2.057 3.236-.711 1.042-1.341 2.06-2.052 3.102a4429.09 4429.09 0 0 1-4.166 6.442c-2.687 4.254-5.321 8.537-7.851 12.877l-4.372 7.558c-.549.995-2.067.158-1.518-.837 5.041-8.896 10.396-17.618 16.089-26.086.798-1.199 1.595-2.398 2.445-3.568.798-1.199 1.624-2.45 2.55-3.51.37-.547 1.226.129.932.786zm-12.025-1.099c-.852 2.535-2.156 5.025-3.246 7.496-1.118 2.524-2.289 5.019-3.46 7.515-2.342 4.99-4.712 10.033-7.159 14.965-1.425 2.833-2.85 5.666-4.328 8.47-.52.942-1.904.11-1.414-.78 4.946-9.836 9.839-19.701 14.47-29.711.645-1.419 1.262-2.786 1.908-4.205.646-1.419 1.269-2.919 2.019-4.28.37-.548 1.451-.156 1.21.53zm-4.978-85.086c-.2.982-.238 1.917-.572 2.894a50.014 50.014 0 0 1-.995 2.796l-1.986 5.46c-1.353 3.692-2.625 7.361-4.03 11.024-.386.948-1.897.592-1.564-.384 1.301-3.721 2.683-7.466 4.036-11.158.661-1.82 1.323-3.639 2.038-5.43.357-.896.662-1.82 1.019-2.716.179-.448.305-.924.617-1.367.26-.471.624-.884.884-1.355.168-.181.563-.031.553.236zm-1.389-9.369c-.736 2.325-1.739 4.64-2.632 6.879-.951 2.343-1.82 4.663-2.771 7.007a1258.86 1258.86 0 0 0-5.298 13.943c-.99 2.663-1.981 5.326-3 8.041-.328.843-1.734.546-1.459-.326 3.402-9.39 7.043-18.717 10.869-28.009 1.095-2.606 2.114-5.321 3.419-7.811.312-.442.998-.201.872.276zm-1.214-9.067c-2.064 4.734-4.256 9.329-6.32 14.063-2.064 4.733-4.104 9.549-6.011 14.369-1.1 2.739-2.201 5.478-3.249 8.245-.328.844-1.734.546-1.377-.349 3.685-9.78 7.818-19.382 12.213-28.839 1.257-2.652 2.544-5.357 3.906-7.951.265-.605 1.103-.143.838.462zm-2.341-10.986c-1.779 4.959-3.9 9.798-6.074 14.608-2.203 4.862-4.563 9.637-7.132 14.297-.433.786-1.69.093-1.257-.692 2.436-4.666 4.819-9.36 7.045-14.141 2.227-4.781 4.215-9.625 6.284-14.492.317-.576 1.318-.161 1.134.42zm-1.747-10.454c-1.577 4.593-3.577 9.089-5.549 13.532-2.001 4.496-4.106 8.934-6.421 13.256-.462.838-1.719.145-1.309-.722 2.181-4.328 4.31-8.684 6.334-13.099 2.024-4.414 3.758-8.92 5.73-13.363.27-.739 1.456-.29 1.215.396zm.233-15.779c-2.029 4.548-4.402 8.975-6.641 13.407-2.239 4.433-4.454 8.946-6.746 13.35-.461.838-1.637.122-1.256-.693 2.186-4.461 4.507-8.917 6.798-13.321 2.291-4.403 4.455-8.946 6.955-13.234.294-.657 1.185-.166.89.491zm-1.646-11.627a844.549 844.549 0 0 1-10.376 25.754c-.323.71-1.643.255-1.343-.535 3.317-8.618 6.902-17.224 10.562-25.721.213-.633 1.399-.184 1.157.502zm-2.267-11.492c-1.363 3.96-2.936 7.803-4.486 11.728-1.549 3.925-3.047 7.879-4.701 11.747-.323.709-1.561.231-1.291-.507 1.469-3.902 3.07-7.798 4.591-11.671 1.602-3.896 3.099-7.85 4.806-11.688.317-.576 1.265-.19 1.081.391zm-1.911-18.328c-1.131 4.156-2.901 8.233-4.479 12.21-1.636 4.083-3.273 8.165-5.223 12.074-.409.866-1.718.144-1.309-.722 1.712-3.972 3.477-7.915 5.136-11.916 1.66-4.001 3.029-8.094 4.741-12.066.346-.628 1.347-.213 1.134.42zm-6.483-11.152a358.272 358.272 0 0 1-4.996 19.093c-.276.872-1.601.551-1.325-.321 1.541-6.387 3.35-12.764 5.287-19.001.16-.663 1.143-.463 1.034.229zm-5.868-11.77a96.178 96.178 0 0 1-2.151 10.216 75.819 75.819 0 0 1-1.482 4.918c-.547 1.61-1.07 3.302-1.802 4.878-.352.762-1.591.284-1.344-.536.495-1.639 1.175-3.244 1.721-4.854.547-1.611 1.041-3.25 1.535-4.889.988-3.279 1.82-6.644 2.488-9.962.161-.663 1.195-.434 1.035.229zm-8.16-7.367c-1.006 5.044-2.227 10.106-3.552 15.111-.252.953-1.763.598-1.511-.355a262.128 262.128 0 0 1 3.843-15.019c.165-.796 1.386-.533 1.22.263zm-6.932-6.621c-1.434 3.715-2.473 7.581-2.768 11.583-.072 1.121-1.698.975-1.545-.169.486-4.102 1.396-8.106 3.074-11.892.294-.658 1.48-.208 1.239.478zm-8.196-11.142c-.319 1.941-.905 3.871-1.357 5.806-.453 1.936-.958 3.842-1.463 5.749-.252.953-1.763.598-1.511-.356.505-1.906 1.062-3.784 1.596-5.742.505-1.907 1.01-3.813 1.649-5.714.212-.634 1.195-.434 1.086.257zm-4.945-10.1c-.704 1.524-1.431 2.966-1.977 4.577a23.04 23.04 0 0 0-1.053 4.881c-.045.453-.59.699-.933.578-.425-.097-.647-.561-.578-.933.255-1.702.697-3.371 1.273-5.033.599-1.582 1.308-3.239 2.273-4.619.399-.599 1.289-.108.995.549zm-5.062-1.221a8.37 8.37 0 0 1-1.075 5.416c-.346.628-1.422.103-.995-.548a7.98 7.98 0 0 0 .92-4.887c-.042-.296.265-.605.532-.595.372.069.576.318.618.614zm184.98 321.566c-2.322 1.86-4.849 3.471-7.324 5.111-2.503 1.692-5.059 3.355-7.562 5.048-.852.554-1.681-.791-.829-1.345 2.474-1.64 4.949-3.28 7.476-4.891 2.474-1.64 4.925-3.361 7.522-4.728.551-.379 1.297.373.717.805zm-5.593-3.972c-2.533 1.745-5.374 3.182-8.058 4.707-2.683 1.524-5.396 3.101-8.104 4.544-.794.45-1.495-.756-.753-1.234a351.786 351.786 0 0 1 8.133-4.597c2.736-1.496 5.426-3.154 8.233-4.405.597-.217 1.128.553.549.985zm-6.118-6.241c-5.725 3.945-11.398 7.918-17.17 11.7-.771.531-1.524-.704-.753-1.235 5.62-4.002 11.473-7.807 17.222-11.67.718-.56 1.471.674.701 1.205zm-8.942-1.243c-6.086 3.609-12.073 7.409-17.728 11.597-.799.583-1.576-.733-.776-1.316 5.707-4.159 11.67-8.04 17.931-11.347.632-.403 1.286.64.573 1.066zm-9.752-2.372c-6.489 2.976-12.5 6.695-18.183 10.935-.718.56-1.419-.645-.701-1.205 5.555-4.38 11.775-7.983 18.259-10.826.736-.345 1.413.779.625 1.096zm-9.367-3.321c-5.81 4.717-12.004 9.017-18.496 12.743-.823.502-1.6-.814-.777-1.316 6.435-3.621 12.542-7.764 18.347-12.348.689-.507 1.644.361.926.921zm-8.648-1.9c-4.743 2.164-9.458 4.275-14.05 6.66-4.591 2.384-9.113 5.012-13.506 7.779-.852.554-1.681-.791-.829-1.345 4.422-2.819 8.967-5.366 13.64-7.774 4.644-2.355 9.364-4.6 14.225-6.358.679-.241 1.147.768.52 1.038zm-16.01-7.121c-8.416 6.967-17.449 13.32-27.003 18.636-.794.45-1.547-.785-.753-1.235 9.321-5.512 18.367-11.517 26.882-18.293.579-.431 1.482.408.874.892zm-15.696-2.987c-2.061 2.005-4.25 3.87-6.387 5.764-2.108 1.842-4.135 3.661-6.243 5.503-4.244 3.736-8.437 7.501-12.758 11.127-.747.612-1.778-.366-1.054-1.059 4.221-3.818 8.547-7.577 12.844-11.285 4.298-3.707 8.467-7.553 12.915-11.041.499-.408 1.158.502.683.991zm-11.393-1.502c-7.872 8.086-16.595 15.362-25.668 22.035a163.029 163.029 0 0 1-7.845 5.438c-.823.502-1.577-.733-.777-1.316 9.196-6.401 18.106-13.026 26.462-20.504 2.386-2.099 4.696-4.307 7.03-6.434.503-.542 1.301.239.798.781zm-25.224 13.677a248.051 248.051 0 0 0-20.425 18.097c-.642.67-1.726-.337-1.054-1.059 6.547-6.427 13.479-12.436 20.82-17.948.492-.275 1.128.554.659.91zm-14.98 1.163c-8.579 8.379-17.52 16.422-26.251 24.58-.805.717-1.936-.452-1.212-1.146 8.836-8.101 17.596-16.312 26.613-24.245.579-.431 1.377.35.85.811zm-14.976.414c-6.697 6.822-13.598 13.395-20.499 19.968-.753.746-1.912-.371-1.16-1.117 6.849-6.602 13.727-13.256 20.809-19.661.556-.513 1.406.297.85.81zm179.923 65.608c-.302.175-.527.46-.829.635-.301.175-.602.351-.927.445-.656.321-1.23.619-1.885.941-1.258.672-2.516 1.343-3.75 2.097-2.441 1.454-4.753 3.046-7.065 4.639-.77.531-1.419-.646-.753-1.234 2.265-1.756 4.682-3.291 7.175-4.716 1.205-.701 2.434-1.32 3.664-1.94.655-.321 1.281-.59 1.908-.859.353-.147.626-.27.951-.364.354-.146.754-.13 1.16-.247.488-.141.681.375.351.603zm-9.516-.945c-2.992 1.217-5.88 2.492-8.651 4.174-2.742 1.629-5.256 3.588-7.671 5.739-.694.641-1.725-.337-1.083-1.007 4.783-4.464 10.764-8.13 17.042-9.858.731-.211.99.682.363.952zm-6.359-3.575c-6.406 3.569-12.584 7.469-18.383 11.918-.799.584-1.576-.732-.776-1.316a130.017 130.017 0 0 1 18.558-11.616c.655-.322 1.285.64.601 1.014zm-4.376-8.284c-9.461 7.005-19.33 13.512-29.573 19.335-.905.525-1.705-.872-.8-1.397 10.19-5.852 20.159-12.168 29.748-19.034.66-.455 1.285.64.625 1.096zm-14.545-6.313c-4.286 3.44-8.858 6.655-13.296 9.875-4.52 3.244-9.015 6.568-13.535 9.812-2.59 1.849-5.127 3.727-7.717 5.577-.881.606-1.681-.791-.853-1.426 8.934-6.545 17.996-12.951 27.059-19.357 2.561-1.797 5.069-3.622 7.706-5.309.464-.222 1.105.472.636.828zm-18.568 1.233c-8.12 6.926-16.985 13.098-26.044 18.755a214.75 214.75 0 0 1-7.953 4.764c-.904.526-1.756-.9-.852-1.425 9.339-5.298 18.298-11.146 26.954-17.434 2.48-1.773 4.855-3.605 7.311-5.459.388-.333 1.001.415.584.799zm-17.865-2.271c-7.772 6.913-15.648 13.768-23.524 20.622a1268.595 1268.595 0 0 1-6.712 5.859c-.805.716-2.121-.487-1.235-1.228 8.004-6.716 15.88-13.571 23.832-20.315 2.3-1.942 4.57-3.831 6.869-5.772.58-.431 1.378.35.77.834zm-15.186.299c-8.811 6.817-17.389 13.831-25.588 21.395-2.334 2.128-4.563 4.313-6.763 6.445-.752.746-1.964-.4-1.211-1.146 7.942-7.842 16.479-15.152 25.342-21.941 2.515-1.959 5.052-3.837 7.666-5.605.55-.38 1.023.496.554.852zm-18.087-.755c-9.07 9.269-18.473 18.15-27.7 27.332-2.594 2.598-5.082 5.254-7.804 7.714-.776.665-1.859-.342-1.159-1.117 2.211-2.4 4.602-4.632 6.941-6.893 2.286-2.289 4.596-4.498 6.906-6.706 4.678-4.522 9.327-8.991 14.029-13.432 2.669-2.488 5.367-5.029 8.06-7.436.498-.408 1.092.124.727.538zm-20.386 6.512c-9.448 9.334-16.729 20.682-26.566 29.732-2.751 2.512-5.624 4.752-8.782 6.765-.962.631-1.891-.905-.929-1.536 11.297-6.744 19.055-17.965 27.607-27.657 2.441-2.818 5.04-5.55 7.843-8.033.556-.513 1.354.268.827.729zm-17.269 6.182c-8.319 9.888-17.104 19.383-26.146 28.599-2.541 2.627-5.186 5.197-7.751 7.743-.752.746-2.016-.429-1.183-1.198 9.275-9.02 18.212-18.294 26.973-27.87 2.436-2.685 4.902-5.422 7.367-8.16.422-.518 1.273.292.74.886zm-13.799 1.746c-8.47 9.668-17.046 19.278-25.465 28.974-2.412 2.767-4.773 5.562-7.209 8.247-.729.827-1.86-.343-1.212-1.146 8.343-9.807 16.994-19.306 25.646-28.806a692.293 692.293 0 0 1 7.442-8.05c.527-.461 1.273.292.798.781zm-15.793.783c-1.561 2.212-3.384 4.279-5.102 6.405-1.747 2.177-3.517 4.274-5.316 6.422-3.517 4.274-7.116 8.572-10.633 12.846-.677.856-1.94-.319-1.235-1.227 3.541-4.193 7.11-8.438 10.703-12.602 1.771-2.097 3.512-4.141 5.282-6.237 1.771-2.096 3.546-4.326 5.445-6.284.417-.384 1.226.13.856.677zm-9.101-1.945a158.217 158.217 0 0 0-12.025 16.857c-.601.966-2.119.129-1.519-.837 3.773-5.977 7.936-11.67 12.513-16.998.619-.752 1.621.279 1.031.978zm-81.56 50.346c-.752-4.58-1.481-9.078-2.64-13.54-1.158-4.463-2.56-8.854-4.287-13.152-.416-.98 1.209-1.45 1.543-.446 3.239 8.613 5.871 17.711 6.516 26.943.107.673-1.025.868-1.132.195zm3.982-7.841c-.559-2.083-1.007-4.242-1.536-6.378a328.62 328.62 0 0 0-1.733-6.144c-1.28-4.119-2.721-8.192-4.407-12.193-.339-.87 1.013-1.217 1.381-.4a122.43 122.43 0 0 1 4.32 12.35c1.227 4.091 2.42 8.367 2.944 12.616.136.621-.805.717-.969.149zm3.326-9.5c-1.305-4.816-2.447-9.679-3.885-14.501a358.762 358.762 0 0 0-4.454-14.336c-.311-.922 1.122-1.292 1.38-.399 3.097 9.491 6.003 19.081 8.044 28.878.211.731-.874 1.089-1.085.358zm3.399-11.986a496.218 496.218 0 0 1-9.053-30.391c-.229-.945 1.204-1.316 1.462-.422 2.664 10.276 5.63 20.377 8.729 30.484.159.702-.95.978-1.138.329zm2.941-11.898c-3.44-9.612-6.584-19.265-9.832-28.976-.287-.841 1.093-1.241 1.381-.4 3.144 9.654 6.421 19.313 9.374 29.066.188.649-.706.908-.923.31zm1.446-17.978c-2.295-4.134-4.098-8.542-5.82-12.973-1.721-4.431-3.171-8.985-4.457-13.586-.23-.946 1.232-1.369 1.462-.423a154.627 154.627 0 0 0 4.253 13.337c1.67 4.403 3.611 8.682 5.553 12.962.345.736-.617 1.367-.991.683zm3.72-20.617c-2.393-3.709-4.455-7.646-6.437-11.606-1.929-3.931-3.719-7.991-5.376-12.045-.339-.87 1.042-1.269 1.381-.399a149.576 149.576 0 0 0 5.271 11.987c1.877 3.902 4.027 7.682 6.066 11.537.35.603-.554 1.129-.905.526zm.205-17.708c-1.261-1.924-2.359-3.895-3.509-5.895a682.064 682.064 0 0 1-3.405-5.837l-6.833-11.755c-.502-.823.814-1.6 1.316-.777 2.278 3.919 4.555 7.837 6.804 11.808 1.127 1.919 2.225 3.89 3.352 5.808 1.151 2 2.33 3.948 3.399 5.971.293.708-.669 1.338-1.124.677zm-.28-18.315c-6.414-8.18-12.134-17-16.764-26.312-.421-.847.843-1.652 1.316-.777 4.792 9.265 10.297 18.104 16.544 26.464.455.66-.641 1.285-1.096.625zm-6.806-21.71c-1.55-1.4-2.902-3.034-4.203-4.638a82.98 82.98 0 0 1-3.814-4.971c-2.485-3.418-4.668-7.012-6.632-10.757-.42-.846.814-1.599 1.235-.753a107.736 107.736 0 0 0 6.475 10.671 71.331 71.331 0 0 0 3.837 5.051c1.301 1.605 2.659 3.105 3.878 4.733.379.55-.392 1.081-.776.664zm-6.03-18.413c-3.94-4.494-7.579-9.163-11.299-13.809-.688-.857.528-1.825 1.187-.915 3.639 4.669 7.441 9.291 10.883 14.193.332.388-.386.948-.771.531zm-37.136 209.89c-.748 1.977-1.735 3.891-2.589 5.81-.882 1.971-1.845 3.966-2.727 5.938-1.846 3.967-3.61 7.91-5.561 11.819-.38.814-1.637.121-1.256-.693 1.764-3.943 3.604-7.776 5.473-11.662.906-1.89 1.841-3.833 2.746-5.723.935-1.943 1.793-3.996 2.833-5.881.317-.576 1.294-.242 1.081.392zm-1.799-10.483c-.586 1.93-1.463 3.768-2.183 5.693a215.509 215.509 0 0 0-2.078 5.75 201.568 201.568 0 0 0-3.574 11.685c-.253.953-1.764.598-1.511-.356a167.501 167.501 0 0 1 3.713-11.812c.639-1.901 1.382-3.745 2.102-5.669.772-1.896 1.416-3.931 2.478-5.734.289-.524 1.213-.219 1.053.443zm.845-11.687c-3.594 7.509-6.763 15.115-9.462 22.982-.305.924-1.816.569-1.511-.356a167.93 167.93 0 0 1 9.821-23.261c.404-.733 1.504-.127 1.152.635zm-1.329-12.203c-.712 2.407-1.796 4.745-2.695 7.117-.869 2.32-1.686 4.669-2.556 6.989-1.663 4.75-3.273 9.529-4.884 14.308-.276.872-1.682.574-1.377-.35 1.453-4.866 3.197-9.639 4.942-14.413.869-2.32 1.767-4.692 2.637-7.012.951-2.343 1.744-4.773 2.904-7.001.37-.548 1.213-.219 1.029.362zm-2.182-6.939c-.812 2.216-2.019 4.281-2.936 6.439-.945 2.21-1.89 4.42-2.702 6.635-1.704 4.454-3.118 9-4.294 13.609-.253.953-1.682.574-1.459-.327 1.205-4.661 2.7-9.23 4.433-13.737.864-2.186 1.757-4.425 2.726-6.554.496-1.023.94-2.076 1.517-3.123.554-1.128 1.056-2.286 1.767-3.328.283-.39 1.132-.195.948.386zm-3.091-12.969c-1.63 5.929-3.789 11.702-5.739 17.592-1.921 5.836-3.923 11.697-5.844 17.534-.305.924-1.816.569-1.511-.356 1.95-5.889 4.033-11.773 6.035-17.633 1.973-5.808 3.818-11.755 6.135-17.442.16-.663 1.108-.277.924.305zm-4.621-10.195c-1.567 5.691-3.372 11.318-5.125 16.974-1.753 5.657-3.454 11.342-5.178 16.946-.281 1.005-1.926.645-1.616-.413l5.259-16.969c1.753-5.656 3.454-11.341 5.312-16.94.323-.71 1.543-.446 1.348.402zm-1.85-17.201c-1.829 5.546-3.925 11.081-5.858 16.57-1.963 5.541-3.978 11.053-5.94 16.593-.334.977-1.897.593-1.563-.384l6.131-16.693c2.015-5.512 3.977-11.052 6.178-16.53.184-.581 1.265-.19 1.052.444zm-6.613-15.868c-2.864 10.643-6.07 21.164-9.068 31.802-.281 1.005-1.926.645-1.615-.413 3.206-10.522 6.151-21.188 9.491-31.705.242-.686 1.41-.451 1.192.316zm-2.323-10.771c-1.671 9.593-4.434 19.062-7.72 28.243-.933 2.558-1.894 5.169-2.96 7.722-.386.948-1.8.168-1.414-.78 3.624-8.926 6.591-18.146 8.948-27.498.642-2.65 1.231-5.329 1.873-7.979.195-.849 1.415-.586 1.273.292zm-5.481-8.758c-1.006 5.045-2.436 9.991-3.681 14.972-1.244 4.981-2.54 9.933-3.784 14.914-.282 1.006-1.845.622-1.564-.384 1.297-4.952 2.622-9.956 3.919-14.908 1.296-4.953 2.436-9.991 3.97-14.88.19-.715 1.277-.457 1.14.286zm-6.177-8.116c-1.031 4.347-2.515 8.65-3.866 12.957-1.351 4.308-2.702 8.616-4.024 12.871-.334.977-1.897.593-1.563-.384 1.432-4.331 2.811-8.691 4.215-12.97 1.403-4.279 2.649-8.644 4.343-12.831.207-.5.998-.201.895.357zm-6.475-7.325c-.936 5.287-2.295 10.478-3.736 15.692-1.493 5.185-3.091 10.312-4.846 15.353-.334.976-1.979.616-1.616-.413a239.383 239.383 0 0 0 4.98-15.348c1.493-5.185 2.8-10.404 4.16-15.595.213-.633 1.166-.381 1.058.311zm-9.824-4.597c-.322 4.67-1.393 9.337-2.458 13.87a155.363 155.363 0 0 1-3.923 13.677c-.333.977-1.897.593-1.563-.384 1.571-4.459 2.904-8.981 4.051-13.538 1.146-4.557 1.869-9.211 2.963-13.797-.007-.482.928-.444.93.172zm-7.98-9.179c.27 9.912-2.328 19.95-6.777 28.762-.41.867-1.771.116-1.309-.721 2.233-4.299 3.943-8.887 5.148-13.548 1.181-4.743 1.723-9.565 1.945-14.426.056-.721 1.02-.735.993-.067zm-7.388-3.937c-1.714 8.682-3.748 17.324-5.648 25.971-.229 1.035-1.845.622-1.564-.384 2.034-8.642 3.934-17.289 6.125-25.845.137-.744 1.224-.486 1.087.258zm-6.927-8.736c-1.626 9.141-3.49 18.218-5.302 27.324-.229 1.035-1.873.674-1.644-.36 1.864-9.078 3.675-18.184 5.806-27.25.19-.715 1.277-.457 1.14.286zm-10.577-5.831c.221 3.809-.231 7.725-.782 11.449-.557 3.858-1.404 7.624-2.437 11.356-.282 1.005-1.926.645-1.616-.413a100.547 100.547 0 0 0 2.537-11.165c.58-3.776.84-7.593 1.287-11.375.074-.505.951-.363 1.011.148zm-6.547-9.55c.442 8.983-.94 18.053-4.142 26.461-.415 1-2.06.639-1.645-.361 3.092-8.332 4.649-17.1 4.446-26.02-.015-.964 1.298-.991 1.341-.08zm-8.228-6.994c.154 10.122-1.032 20.323-3.277 30.215-.258 1.087-1.955.697-1.697-.39 2.268-9.81 3.444-19.744 3.795-29.792.032-.802 1.211-.835 1.179-.033zm-7.349-4.257c-.886 8.047-1.876 16.035-2.762 24.081-.124 1.092-1.792.65-1.645-.36 1.125-7.984 2.115-15.972 3.239-23.955.166-.796 1.276-.457 1.168.234zm-8.723-2.01c.148 6.295.215 12.613.119 18.978-.014 1.017-1.541 1.062-1.527.046-.067-6.318.081-12.655.229-18.991.003-.749 1.182-.782 1.179-.033zm-6.833-6.43c-.519 2.923-.561 5.972-.064 8.909.219 1.213-1.476 1.439-1.643.255-.463-3.123-.386-6.358.301-9.461.171-.93 1.548-.58 1.406.297zM732.33 250.82a30.367 30.367 0 0 1-1.774 2.846c-.6.966-1.201 1.932-1.907 2.84-.451.571-1.359-.135-1.013-.763.496-1.024 1.202-1.932 1.826-2.817.653-.937 1.254-1.903 1.96-2.811.393-.466 1.197.182.908.705zm-3.938-3.878c-2.339 2.261-3.927 5.141-4.486 8.383-.142.877-1.548.58-1.377-.35.645-3.399 2.406-6.593 5.094-8.867.498-.408 1.296.374.769.834zm-5.597-1.242c-2.602 3.481-4.581 7.442-5.555 11.685-.252.953-1.763.598-1.511-.355 1.304-4.47 3.289-8.565 6.14-12.251.561-.646 1.435.246.926.921zm-5.919-.533a81.3 81.3 0 0 1-8.287 14.412c-.538.728-1.795.035-1.257-.693 3.284-4.471 6.074-9.282 8.444-14.325.352-.762 1.452-.156 1.1.606zm-7.385.64c-3.01 4.963-6.02 9.926-9.111 14.913-.543.862-1.904.111-1.361-.75 3.062-4.935 6.177-9.84 9.32-14.798.509-.676 1.608-.07 1.152.635z" fill="#181D23"/><path d="M700.512 247.479c-3.558 5.958-7.378 11.772-11.093 17.644-.515.809-1.905.111-1.362-.751 3.768-5.842 7.431-11.743 11.355-17.499.428-.652 1.504-.127 1.1.606zm-8.941.737c-1.627 3.2-3.36 6.341-5.121 9.535-1.732 3.142-3.411 6.312-5.225 9.477-.433.786-1.637.122-1.204-.664 1.68-3.17 3.412-6.312 5.225-9.477 1.732-3.141 3.464-6.283 5.33-9.419.323-.71 1.37-.132.995.548zm-6.291-.601c-2.084 3.904-4.273 7.75-6.252 11.711a247.483 247.483 0 0 0-5.624 12.057c-.386.948-1.799.168-1.361-.751 3.511-8.101 7.422-16.186 12.137-23.623.428-.652 1.475-.074 1.1.606zm-7.938.403a554.32 554.32 0 0 1-8.671 17.956c-.38.814-1.585.15-1.204-.664 2.838-6.014 5.781-11.971 8.776-17.898.404-.733 1.422-.103 1.099.606zm-7.051 1.643c-3.313 4.523-5.969 9.34-7.548 14.683-.224.9-1.683.574-1.459-.327 1.637-5.447 4.286-10.746 8.123-14.98.417-.385 1.225.13.884.624zm-7.442.744c-2.447 4.933-5.184 9.774-7.921 14.614-.433.786-1.637.122-1.257-.693 2.551-4.875 5.236-9.744 8.13-14.498.376-.681 1.423-.103 1.048.577zm-7.077-1.034c-2.618 5.863-5.835 11.326-9.552 16.582-.653.937-1.981.001-1.246-.96 3.735-5.041 6.929-10.586 9.646-16.257.404-.733 1.504-.127 1.152.635zm-7.962-1.658c-.764 2.377-1.791 4.611-2.765 6.873-1.003 2.315-1.954 4.658-3.009 6.944-.974 2.262-2.001 4.495-3.056 6.781-.502 1.157-1.085 2.338-1.638 3.467-.554 1.128-1.032 2.367-1.796 3.38-.422.518-1.404.318-1.238-.478.315-1.192.95-2.344 1.423-3.449a76.919 76.919 0 0 0 1.581-3.362l3.166-6.857c1.026-2.233 2.053-4.467 3.027-6.729 1.032-2.367 1.983-4.71 3.119-7.019.422-.519 1.399-.185 1.186.449zm-9.681 5.176c-4.711 10.649-9.712 21.206-14.475 31.825-.443 1.053-2.066.158-1.57-.866 4.972-10.504 9.816-21.147 14.893-31.594.38-.814 1.503-.127 1.152.635zm-7.775 2.337c-4.086 9.764-8.329 19.441-12.467 29.176-.415 1-1.934.163-1.519-.837 4.296-9.649 8.434-19.384 12.782-29.003.381-.815 1.504-.127 1.204.664zm-7.713 1.482c-3.799 8.625-7.68 17.273-11.561 25.921-.472 1.105-2.095.21-1.623-.895 3.986-8.59 7.89-17.157 11.927-25.719.41-.866 1.666-.173 1.257.693zM475.905 520.124c-2.187 2.481-3.856 5.385-5.13 8.438-.323.709-1.509.26-1.238-.478 1.255-3.268 3.168-6.242 5.518-8.77.532-.594 1.383.216.85.81zm-2.282-7.13c-.785 1.548-1.57 3.095-2.511 4.556-.89 1.489-1.832 2.95-2.721 4.439-1.832 2.951-3.559 5.959-5.547 8.822-.567.78-1.771.116-1.309-.721 1.755-3.061 3.773-5.977 5.657-8.898l2.825-4.382c.942-1.461 1.96-2.812 3.007-4.214.254-.338.772.084.599.398zm-.362-9.621c-2.638 5.032-5.485 9.948-8.28 14.893-2.795 4.946-5.642 9.862-8.437 14.807-.491.891-1.904.111-1.361-.75 2.847-4.917 5.694-9.833 8.594-14.721 2.847-4.916 5.642-9.861 8.699-14.662.288-.524 1.074-.091.785.433zm1.464-12.439c-6.271 5.555-9.405 13.591-12.889 21.024-3.748 8.038-7.788 15.984-12.037 23.814-.578 1.048-1.781 4.344-3.613 3.334-1.362-.751.048-3.183 1.23-1.984.641.694-.279 1.621-.978 1.031.244-.071.54-.112.755-.131-.006.134-.029.053-.181-.167.09-.907-.335.361-.013-.349.145-.262.37-.547.515-.809l1.443-2.618c.924-1.675 1.795-3.38 2.748-5.107a349.225 349.225 0 0 0 5.113-10.017c1.691-3.438 3.41-6.928 5.048-10.394 1.465-3.153 2.93-6.305 4.709-9.284 1.958-3.427 4.387-6.594 7.381-9.177.579-.431 1.325.321.769.834zm-10.564-.157c-6.937 13.449-13.508 27.1-19.264 41.132-.801 1.948-1.602 3.896-2.38 5.925-.777 2.03-1.502 4.088-2.385 6.059-.351.762-1.671.308-1.395-.564.528-1.826 1.347-3.559 2.033-5.298l2.143-5.372c1.423-3.449 2.928-6.921 4.403-10.34 3.062-6.915 6.309-13.796 9.766-20.561 1.974-3.828 3.977-7.708 6.136-11.501.294-.657 1.237-.138.943.52zm-10.878 1.649c-9.055 12.213-12.788 27.156-18.167 41.123-1.52 3.873-3.018 7.826-5.091 11.463-.49.89-1.799.168-1.361-.751 1.638-3.466 3.276-6.933 4.676-10.462 1.4-3.53 2.666-7.065 3.932-10.6 2.533-7.07 5.013-14.169 8.441-20.882 1.916-3.723 4.123-7.354 6.772-10.672.399-.6 1.249.21.798.781zm-12.314 10.075c-4.737 13.297-9.764 26.502-14.687 39.764-1.381 3.745-2.792 7.542-4.174 11.286-.391 1.081-2.141.663-1.697-.389 5.085-13.31 10.118-26.648 15.203-39.958l4.302-11.147c.184-.581 1.266-.19 1.053.444zm-13.564 15.189c-3.255 9.744-6.563 19.459-9.871 29.174-.915 2.773-1.882 5.517-2.825 8.343-.362 1.029-2.059.639-1.697-.39a5392.9 5392.9 0 0 1 10.162-29.081c.967-2.744 1.963-5.541 2.93-8.285.223-.901 1.548-.58 1.301.239zm144.394 91.287c-2.626 1.42-4.844 3.337-6.444 5.869-.428.652-1.475.074-1.048-.578 1.763-2.578 4.126-4.758 7.014-6.033.545-.246 1.023.496.478.742zm-2.9-4.399c-3.745 3.944-7.49 7.888-11.31 11.721-.585.566-1.54-.302-.927-.92 3.745-3.944 7.67-7.72 11.543-11.524.446-.437 1.14.286.694.723zm-6.278-3.597l-7.655 8.683c-2.5 2.924-4.923 5.957-7.475 8.852-.59.698-1.621-.28-1.031-.979 2.371-3.062 4.975-5.928 7.527-8.822 2.552-2.895 5.208-5.731 7.836-8.516.527-.46 1.273.292.798.782zm-8.13-3.459c-5.751 6.593-11.165 13.44-16.45 20.426-.509.675-1.679-.175-1.171-.85 5.158-7.125 10.839-13.961 16.799-20.438.452-.571 1.273.292.822.862zm-6.289-3.33c-3.129 3.941-6.409 7.663-9.824 11.379-3.385 3.664-6.876 7.27-10.599 10.679-.695.641-1.726-.337-1.031-.978 3.514-3.525 7.132-6.992 10.547-10.708 3.438-3.635 6.747-7.409 10.028-11.13.561-.647 1.331.187.879.758zm-9.683-.765c-3.553 3.845-7.183 7.579-10.759 11.342-3.577 3.763-7.154 7.526-10.836 11.232-.642.67-1.726-.337-1.054-1.06 3.577-3.763 7.258-7.468 10.887-11.202 3.63-3.735 7.259-7.469 10.993-11.146.527-.46 1.273.293.769.834zm-10.902-.412c-2.613 3.749-5.592 7.295-8.566 10.708-3.055 3.436-6.268 6.786-9.632 9.915-.752.746-1.964-.4-1.159-1.117 3.312-3.158 6.519-6.374 9.626-9.782 3.079-3.355 5.977-6.878 8.875-10.4.365-.414 1.197.181.856.676zm-6.018-4.069c-7.793 7.447-15.586 14.894-23.478 22.15-.694.641-1.778-.366-1.054-1.059 7.793-7.447 15.789-14.645 23.711-21.953.526-.461 1.377.349.821.862zm-12.264-3.143c-3.847 4.502-8.032 8.749-12.217 12.996a806.776 806.776 0 0 1-12.527 12.689c-.723.693-1.778-.366-1.107-1.088 4.185-4.247 8.394-8.413 12.579-12.66 4.185-4.247 8.213-8.581 12.527-12.689.498-.408 1.168.234.745.752zm-10.523-1.842c-6.702 8.936-14.469 17.08-22.768 24.453-.776.665-1.83-.395-1.106-1.088 8.379-7.397 16.036-15.465 23.181-24.088.393-.466 1.034.229.693.723zm-9.049-5.877c-7.006 8.496-14.273 16.847-21.64 25.007-2.1 2.324-4.23 4.7-6.406 6.914-.643.67-1.674-.308-1.084-1.007 3.646-4.135 7.419-8.131 11.065-12.266a783.397 783.397 0 0 0 10.936-12.405c2.048-2.353 4.125-4.758 6.173-7.111.637-.536 1.488.274.956.868zm-12.202-2.016c-7.536 9.705-15.747 18.901-24.443 27.49-2.477 2.389-4.984 4.83-7.538 7.109-.695.641-1.778-.366-1.054-1.059 4.452-4.237 8.928-8.392 13.199-12.796a310.707 310.707 0 0 0 12.402-13.577 303.45 303.45 0 0 0 6.635-7.949c.399-.599 1.25.211.799.782zm-13.176-8.425c-7.441 12.011-16.215 23.218-25.81 33.563a211.005 211.005 0 0 1-8.457 8.651c-.695.641-1.726-.337-1.054-1.059 9.98-9.928 19.313-20.417 27.639-31.804 2.377-3.195 4.649-6.449 6.897-9.784.312-.442 1.074-.091.785.433zm-17.394 8.639c-7.523 10.054-15.622 19.79-24.001 29.167a323.987 323.987 0 0 1-7.194 7.846c-.671.722-1.725-.337-1.054-1.059 8.612-9.181 16.938-18.586 24.851-28.357 2.198-2.748 4.425-5.549 6.623-8.297.428-.652 1.174.101.775.7zm-21.249 14.64a238.848 238.848 0 0 1-17.069 21.176c-.672.723-1.726-.337-1.055-1.059a231.217 231.217 0 0 0 17.106-20.747c.422-.518 1.417.03 1.018.63zm-12.83-.383c-5.31 8.27-11.115 16.198-17.153 23.93-.648.803-1.807-.314-1.16-1.117 6.161-7.459 11.909-15.283 17.266-23.39.399-.6 1.475-.075 1.047.577zm-11.487 8.824c-4.329 6.489-8.839 12.81-13.377 19.184-.538.728-1.794.035-1.257-.693 4.515-6.455 9.001-12.857 13.696-19.144.423-.519 1.307.106.938.653zm-27.818 21.6c-.473 1.105-.893 2.239-1.418 3.315l-1.575 3.228-3.221 6.213c-1.073 2.071-2.199 4.113-3.325 6.155-1.155 2.094-2.205 4.246-3.592 6.144-.538.728-1.719.145-1.309-.722 1.05-2.152 2.361-4.159 3.54-6.173 1.178-2.013 2.304-4.055 3.43-6.097 1.126-2.042 2.251-4.084 3.325-6.155.577-1.047 1.102-2.123 1.68-3.17.577-1.048 1.207-2.066 1.784-3.113.231-.419.859-.073.681.375zm-9.609 8.016c-3.412 6.312-6.905 12.648-10.317 18.96-.49.89-1.904.111-1.413-.779 3.569-6.226 7.114-12.533 10.735-18.729.376-.681 1.37-.132.995.548zm88.034 42.802c-1.254 1.903-2.741 3.61-4.124 5.374-1.411 1.816-2.822 3.633-4.286 5.42-.537.728-1.621-.279-1.031-.978 1.383-1.764 2.817-3.499 4.2-5.263 1.382-1.765 2.741-3.61 4.304-5.206.445-.437 1.307.106.937.653zm1.763-13.229c-2.584 3.696-5.296 7.253-8.061 10.781-2.741 3.61-5.43 7.248-8.275 10.8-.619.751-1.622-.28-1.055-1.06 2.66-3.586 5.477-7.085 8.189-10.642 2.765-3.528 5.425-7.114 8.37-10.475.364-.413 1.144.154.832.596zm-.263-9.431c-3.968 4.845-7.936 9.69-11.747 14.621-3.84 4.983-7.419 10.111-11.078 15.263-.538.727-1.824.087-1.309-.722 5.415-8.212 11.482-15.996 17.7-23.56 1.828-2.201 3.628-4.35 5.532-6.441.584-.565 1.354.269.902.839zm-2.139-6.027c-3.84 4.984-7.732 9.939-11.415 15.009-3.736 5.041-7.314 10.169-10.84 15.326-.566.78-1.904.11-1.361-.751a406.254 406.254 0 0 1 17.473-23.89c1.747-2.178 3.522-4.407 5.322-6.556.451-.571 1.22.263.821.862zm-3.227-4.92c-.052-.029-1.931 2.759-2.156 3.045-.793 1.065-1.532 2.159-2.325 3.224-1.503 2.107-3.029 4.133-4.533 6.241-3.058 4.185-6.117 8.37-9.228 12.527-1.729 2.392-3.533 4.675-5.314 7.038-.48.623-1.598-.198-1.17-.85 6.435-8.946 13.079-17.778 19.776-26.58.96-1.246 1.867-2.521 2.88-3.738.508-.675 1.461-2.403 2.503-1.692.524.289.119 1.022-.433.785zm-5.006-5.286c-1.81 2.416-3.853 4.635-5.767 6.994-1.886 2.305-3.772 4.611-5.553 6.975a293.966 293.966 0 0 0-10.545 14.668c-.625.885-2.038.106-1.466-.808 3.387-5.028 6.954-9.889 10.679-14.663a231.479 231.479 0 0 1 5.715-7.022c1.967-2.33 3.91-4.74 6.163-6.844.527-.46 1.115.206.774.7zm-4.498-4.596c-1.647 2.369-3.586 4.646-5.338 6.957a419.19 419.19 0 0 0-5.303 6.771c-3.557 4.593-7.09 9.268-10.7 13.833-.508.675-1.783-.233-1.274-.908 3.452-4.651 7.061-9.216 10.641-13.728 1.776-2.23 3.552-4.46 5.409-6.713 1.885-2.306 3.719-4.641 5.733-6.808.364-.413 1.173.101.832.596z" fill="#181D23"/><path d="M418.394 655.147c-1.15 1.96-2.613 3.748-3.972 5.593-1.388 1.898-2.747 3.743-4.134 5.641-2.747 3.743-5.412 7.463-8.158 11.206-.625.884-1.9-.023-1.223-.879 2.747-3.743 5.517-7.405 8.234-11.096 1.359-1.845 2.718-3.69 4.1-5.454 1.359-1.846 2.723-3.825 4.262-5.502.452-.571 1.179-.033.891.491zm-4.28-3.384c-2.605 4.23-5.577 8.259-8.392 12.374-2.815 4.115-5.63 8.23-8.393 12.373-1.595 2.398-3.161 4.744-4.756 7.141-.543.862-2.038.106-1.414-.779 5.583-8.392 11.271-16.727 17.139-24.894 1.618-2.316 3.237-4.633 4.984-6.81.341-.495 1.121.071.832.595zm-11.439 2.296c-.698 1.39-1.658 2.636-2.513 3.94-.856 1.303-1.763 2.578-2.619 3.882a255.907 255.907 0 0 1-5.388 7.544c-1.839 2.468-3.649 4.884-5.487 7.352-1.92 2.492-3.788 5.012-5.836 7.365-.562.647-1.732-.203-1.223-.879 1.839-2.468 3.864-4.902 5.755-7.341 1.891-2.44 3.782-4.879 5.569-7.376 1.867-2.521 3.706-4.989 5.522-7.539l2.723-3.824c.878-1.222 1.681-2.555 2.665-3.719.422-.519 1.121.071.832.595zm-9.934.804c-.814-.38-1.635.737-2.034 1.337-.774 1.28-1.548 2.56-2.293 3.788l-4.471 7.367c-3.039 5.015-6.101 9.95-9.192 14.937-.572.913-1.986.134-1.414-.78 5.298-8.617 10.596-17.235 16.05-25.767.856-1.303 2.372-3.062 4.036-1.871.542.504-.077 1.255-.682.989zm-10.222 3.309c-1.811 3.78-4.099 7.435-6.329 10.985a145.495 145.495 0 0 1-7.291 10.25c-.618.751-1.754-.285-1.106-1.088a175.095 175.095 0 0 0 7.284-10.117c2.306-3.44 4.298-7.053 6.447-10.579.399-.599 1.289-.108.995.549zm-12.154 9.412c-2.138 3.259-4.276 6.518-6.385 9.725-.515.809-1.824.087-1.309-.722 2.19-3.23 4.328-6.489 6.49-9.667.538-.727 1.69-.092 1.204.664zm57.915-35.321c-2.976 2.797-5.848 5.652-8.463 8.784-2.614 3.133-4.92 6.573-6.936 10.104-.491.891-1.957.082-1.414-.779 4.246-7.081 9.578-13.905 16.153-19.019.47-.356 1.105.473.66.91z" fill="#181D23"/><path d="M415.985 633.882c-4.798 6.845-9.701 13.632-14.499 20.477-.682.99-2.033-.028-1.299-.989 5.008-6.729 9.911-13.517 14.889-20.194.342-.495 1.279.159.909.706zm-11.395 5.188a35.515 35.515 0 0 0-9.626 11.762c-.438.919-1.852.139-1.414-.78 2.465-4.717 5.948-8.806 10.299-11.868.551-.38 1.239.478.741.886zm-6.843 1.143c-3.101 3.889-5.677 8.067-7.707 12.615-.438.919-1.8.168-1.361-.751a63.947 63.947 0 0 1 8.089-12.814c.538-.727 1.516.222.979.95zm89.801 77.983c-.757.879-1.539 1.677-2.297 2.557-.225.285-.76.263-1.016-.014-.257-.278-.345-.737.014-1.017.834-.769 1.644-1.62 2.425-2.418.25-.204.627-.269.883.009.204.249.217.598-.009.883zm-2.794-5.706c-.777 2.03-2.05 3.718-3.764 5.094-.249.204-.697.025-.849-.195-.175-.301-.054-.644.195-.848a10.19 10.19 0 0 0 3.389-4.413c.265-.605 1.294-.242 1.029.362zm-3.505-2.683c-1.748 1.562-3.474 3.205-5.223 4.767-.584.566-1.511-.355-.874-.891 1.802-1.533 3.55-3.095 5.352-4.629.498-.408 1.272.293.745.753zm-4.119-6.026c-2.077 2.405-4.283 4.671-6.383 6.995-.614.617-1.592-.332-.979-.949 2.205-2.267 4.411-4.533 6.64-6.718.445-.437 1.168.235.722.672zm-3.948-6.957a44.813 44.813 0 0 0-8.46 11.381c-.433.786-1.637.122-1.204-.664 2.315-4.322 5.281-8.217 8.813-11.527.585-.565 1.407.298.851.81zm-1.947-9.471c-4.115 4.491-7.688 9.485-10.685 14.797-.462.838-1.771.116-1.256-.693 3.107-5.388 6.813-10.377 11.143-14.886.48-.622 1.33.188.798.782zm-3.987-9.982a1135.313 1135.313 0 0 1-11.527 16.449c-.567.78-1.824.087-1.309-.722 3.885-5.436 7.799-10.925 11.736-16.333.532-.594 1.58-.017 1.1.606zm-3.25-8.346c-3.999 4.281-7.742 8.84-10.938 13.77-.485.756-1.742.063-1.256-.693 3.358-4.977 7.106-9.669 11.448-13.83.498-.408 1.191.316.746.753zm-.781-7.873c-3.417 4.466-6.731 8.989-10.224 13.344-.59.699-1.488-.274-.979-.949 3.365-4.495 6.912-8.821 10.405-13.176.428-.652 1.249.211.798.781zM460.4 650.04c-1.799 2.149-3.627 4.35-5.427 6.499-.532.594-1.435-.245-.874-.892 1.8-2.149 3.651-4.268 5.531-6.441.423-.518 1.221.264.77.834zM276.432 623.1c-.045.453-.09.906-.164 1.412-.068.371-.166.796-.234 1.168-.195.848-.337 1.725-.561 2.626-.389 1.697-.726 3.423-1.168 5.091-.224.901-1.63.604-1.459-.326.337-1.726.727-3.423 1.116-5.12.195-.848.39-1.697.555-2.493l.293-1.273c.126-.476.328-.843.454-1.32.294-.657 1.276-.457 1.168.235zm-6.87-5.495c-.74 6.42-1.829 12.852-2.836 19.261-.171.929-1.578.632-1.459-.327.926-6.385 1.829-12.852 2.993-19.174.171-.93 1.415-.585 1.302.24zm-6.752.852c-.772 7.221-2.212 14.416-3.862 21.494-.229 1.035-1.792.651-1.564-.384 1.703-7.05 2.928-14.226 4.101-21.431.114-.825 1.358-.48 1.325.321zm-5.243 1.957c-.552 1.744-1.29 3.453-1.842 5.198-.552 1.744-1.08 3.569-1.446 5.347-.842 3.632-1.312 7.333-1.463 11.074-.043 1.068-1.704 1.109-1.661.04.18-3.793.708-7.599 1.607-11.336.476-1.854.952-3.708 1.586-5.475.633-1.768 1.271-3.669 2.166-5.292.289-.524 1.266-.19 1.053.444zm-7.04-3.95c-.909 4.62-2.084 9.229-3.179 13.815-1.094 4.585-2.217 9.223-3.312 13.809-.229 1.034-1.873.674-1.616-.413 1.095-4.586 2.27-9.195 3.446-13.804 1.176-4.609 2.27-9.195 3.603-13.717.213-.634 1.218-.352 1.058.31zm-7.664-1.084c-.644 5.379-1.527 10.696-2.329 15.989-.831 5.346-1.633 10.639-2.516 15.955-.176 1.064-1.821.703-1.644-.36.883-5.317 1.737-10.581 2.62-15.898.883-5.316 1.685-10.61 2.754-15.892.113-.825 1.2-.567 1.115.206zm-7.702 1.215c-1.781 9.669-3.719 19.252-5.604 28.864-.206 1.115-1.955.697-1.75-.419 2.019-9.606 3.905-19.218 6.029-28.766.194-.848 1.467-.556 1.325.321zm-5.901-.318c-1.237 5.463-2.631 10.839-3.839 16.25a711.342 711.342 0 0 0-3.496 16.371c-.205 1.116-1.955.697-1.749-.418a492.4 492.4 0 0 1 3.6-16.314c1.289-5.434 2.631-10.839 4.263-16.152.247-.82 1.386-.533 1.221.263zm-9.791-3.418c-1.028 5.578-2.212 11.07-3.187 16.678-1.027 5.578-1.84 11.138-2.6 16.728-.153 1.144-1.874.674-1.697-.39.76-5.589 1.654-11.173 2.734-16.722 1.079-5.55 2.211-11.071 3.797-16.546.131-.611 1.061-.439.953.252zm-7.658 6.088c-.299 2.771-.998 5.526-1.536 8.234-.508 2.655-1.069 5.282-1.548 7.885-1.046 5.364-2.172 10.751-3.218 16.115-.234 1.168-2.036.721-1.749-.419 1.127-5.387 2.224-10.721 3.403-16.08.561-2.626 1.069-5.282 1.682-7.88.59-2.679 1.051-5.497 1.827-8.142.218-.767 1.224-.486 1.139.287zm-8.496 16.276l-.404.733a.542.542 0 0 1-.197.233.454.454 0 0 1-.22.152c-.081.023-.163.047-.267-.011-.082.024-.186-.034-.291-.092a.675.675 0 0 1-.332-.388.676.676 0 0 1 .074-.505c.144-.262.259-.472.404-.733a.677.677 0 0 1 .388-.333c.081-.023.162-.047.267.011.081-.023.186.034.238.063a.683.683 0 0 1 .333.388c.075.11.094.325.007.482z" fill="#181D23"/></svg>