<svg xmlns="http://www.w3.org/2000/svg" xmlns:xlink="http://www.w3.org/1999/xlink" width="307" height="433" fill="none"><path fill-rule="evenodd" d="M97.604 160.295c-13.965 3.468-26.497 7.492-32.37 12.208s-8.555 10.544-8.6 15.353c-.037 3.847.817 7.183 1.25 8.37-.986.246-3.367 1.646-4.994 5.27s-1.603 6.906-1.387 8.093c-4.085 1.526-14.428 5.882-23.12 11.098s-14.073 10.374-15.676 12.3c-.046-1.018-.63-3.274-2.6-4.162-2.45-1.1-6.936 1.387-8.925 6.983s.647 7.815 2.82 8.277c1.74.37 2.8.154 3.098 0-.324.724-1 2.423-1.064 3.422-.092 1.248.647 9.017 13.4 12.44s25.665 2.497 34.497 1.804c7.066-.555 18.327-2.975 23.075-4.116 1.17 1.264 3.83 3.95 5.087 4.578s3.453 1.434 4.393 1.757c.092 3.993.694 13.8 2.358 21.04 2.08 9.063 5.595 19.838 9.156 25.896l2.96 5.18-10.127 22.66c-1.434 2.728-5.965 16.693-5.595 22.242s1.295 8.694 2.728 10.6c1.147 1.517 4.208 4.116 5.595 5.225-2.667.047-9.332 1.526-14.66 7.076-6.66 6.936-9.156 13.456-10.035 20.763s4.948 18.312 14.15 20.716c7.362 1.924 14.258.185 16.786-.925 1.032-.54 3.31-1.86 4.162-2.82s1.834-2.19 2.22-2.682c-.06 1.726.5 5.78 3.237 8.184 3.422 3.006 10.312 6.428 17.896 4.532s18.127-6.566 21.087-19.56c2.367-10.396-4.285-17.218-7.908-19.33 2.25.062 7.65-.333 11.237-2.404 4.486-2.6 10.174-6.937 13.596-11.977s8.693-14.382 11.93-21.55c2.6-5.734 4.41-13.118 4.994-16.093 3.037 1.002 11.09 2.627 19.006 1.1s16.093-4.486 19.19-5.78c-.555 3.76-1.498 12.985-.832 19.79.832 8.51 2.358 13.457 5.456 17.388 2.48 3.144 4.208 4.485 4.763 4.763-1.17.323-3.764 1.507-4.763 3.653-.347.745-.97 1.808-1.686 3.034-1.864 3.186-4.372 7.474-4.372 10.145 0 3.7 1.388 14.75 11.746 19.052s17.064 2.543 24.88-3.607 6.797-15.63 6.38-18.774-2.266-7.076-4.624-10.405c-1.887-2.664-3.684-3.76-4.347-3.977 1.156-1.187 3.644-4.19 4.347-6.705s.91-5.18.925-6.197c.693 1.28 2.987 4.356 6.612 6.428s7.646 2.6 9.203 2.6c-.956.925-2.997 3.67-3.515 7.26-.647 4.485-.416 15.352.416 17.572s2.96 5.827 5.596 6.844l.045.017c2.655 1.025 8.31 3.208 13.69 1.093 5.4-2.127 14.196-7.353 15.167-19.93s-9.202-18.173-11.237-19.052l-5.364-2.404c.725-1.557 2.257-5.42 2.6-8.417.416-3.745-1.434-16.416-3.515-24.184s-7.537-20.255-9.803-22.844c-.866-1-1.604-2.034-2.296-3.013-1.118-1.582-2.117-2.996-3.346-3.74-1.6-.962-3.2-1.695-3.792-1.942 1.526-1.88 4.754-5.993 5.457-7.4s4.794-9.988 6.752-14.104c1.3-3.283 3.847-10.895 3.514-15.075-.416-5.225-1.896-13.965-5.595-17.248-2.96-2.627-4.162-3.407-4.393-3.47l8.693-18.404 6.243-15.954c1.495.432 5.114 1.082 7.63.23l.72-.24c3.134-1.03 7.472-2.453 8.158-7.252.74-5.18-4.44-10.913-8.88-11.93s-12.347-.832-14.52 5.55c-1.74 5.106.354 8.848 1.618 10.08l1.48.925-15.722 35.977c-1.234-.493-4.45-1.332-7.446-.74-3.745.74-12.67 6.567-16.924 14.705-3.404 6.51-5.272 13.35-5.78 15.954-1.942-.848-6.594-2.654-9.664-3.098-3.84-.555-15.076-1.896-22.798-.23-2.446.527-5.56 1.086-8.82 1.673-7.037 1.265-14.763 2.653-17.955 4.107-1.505.685-3.116 1.256-4.76 1.838-3.457 1.223-7.06 2.5-10.13 5.006-3.625 2.96-8.354 7.43-10.266 9.295-.585-1.434-2.07-4.8-3.33-6.798s-6.104-8.755-8.37-11.884c1.773-1.31 5.688-4.338 7.168-5.966 1.85-2.034 7.03-9.202 8.74-15.815s1.526-9.896.6-15.907-10.36-23.353-21.688-32.463c-6.643-5.34-9.485-6.935-10.475-7.108 3.73-2.31 10.5-8.038 10.89-14.58.51-8.51-5.18-14.567-14.566-17.99s-22.428-2.728-26.775-1.896zm15.353 217.433c5.4-1.33 8.91-4.655 9.988-6.15 0 1.927.093 6.557.463 9.665s2.774 5.61 3.93 6.474c-1.464 0-5.114.388-8 1.942s-4.963 5.025-5.64 6.566c-.062-1.957-.722-6.714-2.868-10.08s-5.456-6.027-6.843-6.937c.74.062 3.57-.148 8.97-1.48z" fill="#ffcd00"/><g opacity=".05" fill="#000"><path fill-rule="evenodd" d="M100.994 316.065l-.014.022c3.846 6.785 10.59 12.624 22.797 13.18 9.767.444 19.546-4.87 23.214-7.584.48 0 1.246-.92 1.493-4.058.102-1.292.117-2.96-.013-5.098-.1-1.817-.483-3.486-1.13-4.982-2.61-6.04-9.687-9.28-21.992-8.243-13.225 1.115-20.72 11.223-24.356 16.764zm27.06-121.306l-.438.264c-.037-.2.077-.327.438-.264z"/><path d="M147.342 307.544c.646 1.496 1.02 3.165 1.13 4.982.13 2.137.115 3.806.013 5.098.24.5.512.99.82 1.47l.66-.644c2.315-2.4 6.144-7.6 7.017-13.784.962-6.807-.648-12.147-1.573-13.965-2.87 3.473-6.95 10.07-8.065 16.844z"/><path d="M149.303 319.093c6.067 9.47 24.5 18.373 32.97 21.64 1.62-7.584 2.248-23.842-8.185-28.208-9.892-4.14-19.8 1.872-24.126 5.923a15.86 15.86 0 0 1-.66.644zm-39.49-74.728l-.132-.013c-2.956-.278-7.258-.682-12.816 2.325-5.642 3.052-9.433 7.5-10.358 17.294 2.56.987 9.064 1.924 14.613-2.22s8.107-13.318 8.693-17.387z"/><path d="M143.708 272.018c-3.345-5.642-11.422-17.665-16.97-20.625-6.936-3.7-13.965-6.75-16.925-7.028-1.017 8.077-3.437 22.442 14.058 30.057 7.86 3.422 17.202-.7 19.838-2.404zm-66.682-14.382c1.17 1.264 3.83 3.95 5.087 4.578s3.453 1.434 4.393 1.757c.925-9.803 4.717-14.242 10.358-17.294 5.558-3.007 9.86-2.603 12.816-2.325.088-.427.238-1.54.132-2.577-.132-1.295-10.728-27.376-23.306-37.734l-13.4 1.017c-5.2.154-16.823 1.276-21.595 4.532 4.825 13.225 16.685 41.35 25.526 48.046z"/><path d="M86.506 204.04c-12.578-10.358-23.63-10.36-28.624-7.815 1.187 2.05 4.153 6.317 6.52 6.983s6.782 1.5 8.694 1.85l13.4-1.017zm162.347 99.812c-1.642-1.404-3.184-3.278-4.57-5.578-2.82.448-2.956-1.193-10.632 4.17-5.435 3.798-9.25 19.237-13.18 33.62 7.288-2.183 19.776-10.497 25.1-14.382v-7.214c0-3.7 2.18-8.62 3.272-10.616z"/><use xlink:href="#B"/><use xlink:href="#C"/><path d="M239.8 272.1c-.847 2.466-1.896 9.434.694 17.572 1.05 3.3 2.334 6.18 3.788 8.592 4.084-.65 6.743.434 8.392 2.187 1.015-.538 2.29-1.047 4.143-1.79l.047-.02c.154-3.483-.555-11.67-4.624-16.554s-9.99-8.694-12.44-9.99z"/><path d="M255.014 306.792c5.827.752 5.457-.277 8.23-1.48 2.22-.96 4.625-3.607 5.55-4.81-2.435-1.233-8.23-3.33-11.93-1.85 0 4.44-1.233 7.276-1.85 8.14z"/><use xlink:href="#D"/><use xlink:href="#E"/><path d="M288.956 364.642c-3.144-.293-10.506 1.017-14.797 8.6 3.822-.062 12.134-1.868 14.797-8.6zm-35.884 12.485c-4.778-2.142-16.1-4.966-23.214.88 3.777 3.067 13.706 7.186 23.214-.88z"/></g><g opacity=".1" fill="#000"><use xlink:href="#B"/><use xlink:href="#C"/><use xlink:href="#D"/><use xlink:href="#E"/><path fill-rule="evenodd" d="M100.994 316.065l-.014.022c.053.077.07.1.014-.022zm47.5 1.56c.102-1.292.117-2.96-.013-5.098-.1-1.817-.483-3.486-1.13-4.982-.567 3.443-.37 6.933 1.142 10.08zm-20.43-122.865l-.438.264c-.037-.2.077-.327.438-.264z"/></g><path d="M285.627 200.342c-3.92-4.8 1.85-9.25 8.14-8.694 1.593 1.328-1.664 1.818-3.885 3.884-2.42 2.253-2.132 7.414-4.254 4.8zm-36.44 56.23c2.22-3.7 10-15.353 17.018-10 1.85 3.7-4.8 4.07-8.88 8.88s-8.14 16.832-11.098 14.612.74-9.803 2.96-13.502zM174.1 282.1c8.324-4.625 39.584-12.024 41.248-6.474 1.295 4.254-35.33 13.317-42.728 14.797s-6.844-3.7 1.48-8.323zm79.167 54c2.96 0 16.462 24.23 10.728 26.82S247.337 335 253.257 336.1zm-29.78 9.998c3.515-1.664 12.578 24.417 8.14 26.636s-10.358-14.428-8.14-26.636zm52.347 33.1c4.254 0 5.18 17.757 0 16.648s-4.624-15.353 0-16.648zm-46.058 3.7c3.515 3.514-2.404 25.156-6.3 18.127s4.44-22.567 6.3-18.127zm-73.433-61.78c-3.33-3.144-29.4 32.185-26.45 39.03s30.15-34.6 26.45-39.03zm-32 72.14c-4.8-3.33-16.462 17.572-14.243 20.347s19.052-15.538 14.243-20.347zm-34.405-9.25c-6.66-4.8-19.052 11.84-17.202 17.018s20.162-12.208 17.202-17.018zm12.208-56.23c-4.8-.925-14.982 23.492-11.098 27.93s15.168-24.046 11.098-27.93zm-8.878-42.543c4.994-3.144 18.312 18.497 13.133 24.97s-15.168-18.312-13.133-24.97zm-32-74.358c-.185 6.3-34.035 26.08-35.514 19.422s29.595-21.642 35.514-19.422zm53.456-12.208c4.255-3.145 17.388-2.035 16.278 4.254s-19.74-2.88-16.278-4.254zm-19.976-34.035c4.254 5.92-26.45 20.347-25.526 13.503s18.682-14.613 25.526-13.503z" opacity=".3" fill="#fff"/><g opacity=".15" fill="#000"><path fill-rule="evenodd" d="M53.95 261.752c-8.832.693-21.734 1.618-34.497-1.804 57.433 9.48 90.45-29.64 90.45-47.028 4.716 3.33 7.398 11.005 6.66 18.127-.71 6.818-8.2 12.28-14.722 17.035l-.862.63c-5.364 3.922-18.204 7.584-23.954 8.925-4.748 1.14-16.01 3.56-23.075 4.116zm73.665-66.73l.438-.264c-.36-.063-.475.063-.438.264z"/><path d="M143.708 272.018c1.773-1.3 5.688-4.338 7.168-5.966 1.85-2.034 7.03-9.202 8.74-15.815s1.526-9.896.6-15.907-10.36-23.353-21.688-32.463c10.035 12.8 28.532 54.336-7.075 73.943 3.603 0 5.97-.312 7.6-.772 2.974-.84 3.508-2.174 4.653-3.02zm-4.763-91.838c.5-8.5-5.18-14.567-14.566-18 14.908 28.227-28.347 40.278-51.838 42.775 4.87-.493 16.074-1.184 21.92 0s11.807 4.624 14.057 6.196c-.678-1.634-1.905-5.55-1.387-8.138.647-3.237 2.775-5.55 7.86-8.265 4.07-2.172 10.112-.73 12.625.264-.037-.2.077-.327.438-.264 3.73-2.3 10.5-8.038 10.9-14.58z"/><path d="M155.407 290.7c-.585-1.434-2.07-4.8-3.33-6.798s-6.104-8.755-8.37-11.884c-1.145.846-1.68 2.18-4.653 3.02 16.352 26.852 13.763 48.77-20.457 53.95 4.22.683 8.913.423 13.538-.69 6.016-1.447 11.918-4.336 16.52-8.467 6.416-5.76 7.77-13.503 8.694-17.943.74-3.55-.987-8.94-1.943-11.2z"/><path d="M85.257 360.988c.37 5.55 1.295 8.694 2.728 10.6 1.147 1.517 4.208 4.116 5.595 5.225 1.234.782 2.88 1.326 4.54 1.697 2.27.508 4.565.7 5.865.708.74.062 3.57-.148 8.97-1.48s8.9-4.655 9.988-6.15c.617-3.16 2.867-11.995 6.936-22.058s14.212-23.984 18.775-29.687c-4.602 4.13-10.504 7.02-16.52 8.467-.867 7.995-3.985 24.425-11.873 33.613-9.863 11.5-28.654 15.684-35.006-.925zm55.26 31.77c2.25.062 7.65-.333 11.237-2.404 4.486-2.6 10.174-6.937 13.596-11.977s8.693-14.382 11.93-21.55c2.6-5.734 4.4-13.118 4.994-16.093.898-2.802 1.685-7.514 1.117-12.523-.563-4.967-2.458-10.226-6.897-14.205 3.607 14.294-4.162 55.306-35.977 78.75z"/><path d="M109.442 427.115c3.422 3.006 10.312 6.428 17.896 4.532s18.127-6.566 21.087-19.56c1.18-5.177.12-9.467-1.685-12.73-1.822-3.3-4.404-5.54-6.223-6.6-1.236.116-2.555-.04-3.872-.37a40.86 40.86 0 0 1 1.216 4.262c3.05 13.37.716 33.2-28.42 30.466zm-26.404-1.757c7.362 1.924 14.258.185 16.786-.925 1.032-.54 3.3-1.86 4.162-2.82a65.39 65.39 0 0 0 2.22-2.682c0-.817.333-4.098 1.665-10.682s4.44-10.76 5.827-12.024c-.062-1.957-.722-6.714-2.868-10.08s-5.456-6.027-6.843-6.937c-1.3-.018-3.595-.2-5.865-.708 6.888 11.18 13.513 36.204-15.084 46.858zm172.624-15.075c7.815-6.15 6.797-15.63 6.38-18.774-.332-2.5-1.577-5.52-3.265-8.326-.427-.7-.883-1.407-1.36-2.08-1.887-2.664-3.684-3.76-4.347-3.977-.938 1-3.1 2.66-6.002 3.67a35.3 35.3 0 0 1 3.381 5.01c5.324 9.55 7.515 23.87-12.6 30.186 6.66 1.062 11.916-1.078 17.802-5.7zm34.738-4.253c5.4-2.127 14.196-7.353 15.167-19.93.574-7.428-2.74-12.42-5.968-15.445-1.736 1.525-3.872 2.615-6.194 3.372 6.73 5.452 10.336 15.648-3.005 32.004z"/><path d="M294.32 367.046l-5.364-2.404c-.755 1.325-2.283 3.263-4.5 4.965 2.863.735 6.16 2.175 8.93 4.418 2.322-.757 4.458-1.847 6.194-3.372-2.238-2.097-4.435-3.247-5.27-3.607z"/><path d="M274.16 373.243c-.297.287-.698.75-1.126 1.358 4.46.947 13.277 1.733 20.362-.576-2.77-2.243-6.066-3.683-8.93-4.418-2.566 1.978-6.05 3.636-10.307 3.636zm-32.094 8.417c-5.4 0-10.4-2.436-12.208-3.653a7.43 7.43 0 0 0-1.086.4c2.556 3.808 9.982 9.507 21.68 7.4a35.3 35.3 0 0 0-3.381-5.01c-1.5.516-3.177.862-5.004.862zm-105.42 10.727c-3.768-.94-7.525-3.287-9.307-4.67 1.632 2.317 5.4 6.263 10.523 8.932a40.86 40.86 0 0 0-1.216-4.262zm45.63-51.653c3.037 1.002 11.1 2.627 19.006 1.1s16.093-4.486 19.2-5.78c4.27-1.66 13.15-5.756 20.396-10.878 1.833-1.295 3.56-2.655 5.084-4.06 4.742-4.37 7.637-8.553 9.274-12.95a25.97 25.97 0 0 0 .502-1.478c.488-1.592.823-3.216 1.032-4.892.304-2.435.342-4.98.197-7.686-21.734 34.1-49.506 30.063-73.565 34.1.568 5-.22 9.72-1.117 12.523z"/><path d="M288.956 364.642c.725-1.557 2.257-5.42 2.6-8.417.416-3.745-1.434-16.416-3.515-24.184s-7.537-20.255-9.803-22.844c-.604-.69-1.146-1.407-1.653-2.1-.81.6-3.06 2.448-3.99 2.85 10.636 19.607 16.5 25.465 11.88 59.67 2.207-1.702 3.735-3.64 4.5-4.965z"/><path d="M272.586 302.445c-1.6-.962-3.2-1.695-3.792-1.942-.497.69-1.333 1.703-2.362 2.724 2.206.76 3.51 3.81 6.154 6.7.93-.402 3.178-2.24 3.99-2.85l-.643-.903c-1.118-1.582-2.117-2.996-3.346-3.74z"/><path d="M261.303 306.7c-3.107.96-5.012.4-5.576 0l-.502 1.478c3.9 1.408 11.06 4.48 17.36 1.76-2.645-2.9-3.948-5.95-6.154-6.7-1.46 1.448-3.307 2.9-5.13 3.473zm-40.833 29.364l-.832 5.78c5.255.257 16.97-3.098 21.228-5.78-.4-4.695.092-7.387 0-10.878-7.247 5.122-16.127 9.217-20.396 10.878z"/><path d="M247.07 332.04c-1.1-5.596-1.12-6.66-1.12-10.914-1.523 1.404-3.25 2.764-5.084 4.06.092 3.49-.4 6.183 0 10.878 2.683-.367 4.964-3.265 6.203-4.023z"/><path d="M253.072 377.127c1.156-1.187 3.644-4.2 4.347-6.705s.9-5.18.925-6.197c-3.333-6.412-10.764-25.045-11.274-32.184-1.24.758-3.52 3.656-6.203 4.023 1.354 15.87 5.4 37.324 12.205 41.063zm15.722-76.624l5.457-7.4c.703-1.406 4.794-9.988 6.752-14.104 1.3-3.283 3.847-10.895 3.514-15.075-.416-5.225-1.896-13.965-5.595-17.248-2.96-2.627-4.162-3.407-4.393-3.47 7.676 10.867 3.973 54.377-17.77 58.6a28.85 28.85 0 0 1-1.032 4.892c.564.4 2.47.96 5.576 0 1.822-.564 3.67-2.025 5.13-3.473 1.03-1.02 1.865-2.035 2.362-2.724zm20.67-91.653c1.495.432 5.114 1.082 7.63.23l.72-.24c3.134-1.03 7.472-2.453 8.158-7.252.74-5.18-4.44-10.913-8.88-11.93 5.796 5 12.384 15.862-7.63 19.2z"/><path d="M274.53 243.208l8.693-18.404 6.243-15.954-1.62-1.202-15.26 34.543 1.943 1.017zM7.986 232.156c-2.405.093-5.364 6.844-2.682 8.14s-.647-6.66 2.682-8.14zm4.717.834c-.046-1.018-.63-3.274-2.6-4.162 1.702 11.024-3.36 14.767-6.104 15.26 1.74.37 2.8.154 3.098 0 .626-.2 1.187-.537 1.7-.95a6.82 6.82 0 0 0 .895-.895c.482-.576.893-1.238 1.244-1.946a13.15 13.15 0 0 0 .274-.589 15.84 15.84 0 0 0 .546-1.453 20.77 20.77 0 0 0 .948-5.264z"/><path d="M12.703 232.99a20.77 20.77 0 0 1-.948 5.264l-.546 1.453-.274.59c-.35.708-.762 1.37-1.244 1.946-.275.33-.573.63-.895.895-.502.414-1.064.74-1.7.95-.258.577-.732 1.77-.952 2.737a9.01 9.01 0 0 0 1.679-.512 10.8 10.8 0 0 0 1.458-.732c.387-.232.775-.497 1.157-.797a11.09 11.09 0 0 0 1.349-1.257c1.085-1.194 2.015-2.745 2.563-4.718a14.3 14.3 0 0 0 .454-2.51c.144-1.545.077-3.3-.268-5.255l-1.846 1.946z"/><path d="M14.816 236.298a14.3 14.3 0 0 1-.454 2.51c4.765-1.443 10.264-3.505 8.052-4.432-1.865-.78-5.015.48-7.597 1.922zm-2.113 8.252c-.365-.345-.663-.688-.904-1.023a11.09 11.09 0 0 1-1.349 1.257c1.695 3.704 4.998 3.2 6.322 2.726 1.572-.573-1.665-.685-4.07-2.96zm-3.4 1.03a10.8 10.8 0 0 1-1.458.732c1.414 2.7 4.262 3.716 5.7 3.417 1.78-.37-2.326-2.22-3.843-3.7-.153-.15-.285-.3-.4-.45z"/></g><g fill="#181d23"><path d="M13.13 233.172c6.116-5.684 12.894-10.59 20.18-14.716 7.207-4.088 14.88-7.32 22.828-9.655 8.025-2.375 16.36-3.854 24.736-4.205 8.414-.35 17.49.545 24.736 5.256 6.233 4.088 11.102 11.25 10.712 18.92-.35 7.552-5.882 13.392-11.92 17.324-3.194 2.102-6.66 3.776-10.167 5.256-4.207 1.79-8.53 3.348-12.894 4.7a129.95 129.95 0 0 1-26.684 5.256c-8.998.818-18.114.74-27.112-.31-4.207-.468-8.53-1.1-12.388-2.88-1.91-.896-3.584-2.064-5.103-3.504-1.402-1.363-2.727-2.96-3.272-4.866-.545-1.87-.234-3.738.74-5.373.273-.428-.43-.818-.662-.39-.974 1.674-1.402 3.542-.974 5.45.4 1.83 1.48 3.465 2.727 4.828 2.883 3.192 6.66 5.1 10.79 6.15 4.285 1.1 8.804 1.518 13.206 1.83 4.675.35 9.35.468 14.024.312 9.3-.312 18.62-1.557 27.658-3.776 4.558-1.13 9.037-2.492 13.4-4.05 4.1-1.48 8.142-3.115 12.037-5.1 6.505-3.31 13.09-7.98 15.97-14.95 1.442-3.465 1.714-7.28.857-10.94-.857-3.737-2.805-7.124-5.337-10.005-5.687-6.423-14.1-9.188-22.477-9.85-4.48-.35-8.96-.156-13.4.31-4.246.428-8.414 1.13-12.583 2.063-8.336 1.87-16.4 4.71-24.074 8.448s-14.88 8.37-21.464 13.782c-1.597 1.324-3.155 2.686-4.675 4.088-.35.39.195.934.584.584z"/><path d="M11.688 238.622c-1.13 3.076-3.895 6.23-7.557 5.295-1.52-.4-2.65-1.596-3-3.115s0-3.153.506-4.632c.818-2.375 2.22-4.555 4.246-6.074 1.013-.778 2.298-1.4 3.623-1.13 1.13.273 1.87 1.13 2.26 2.14.506 1.285.584 2.687.506 4.05-.04 1.168-.195 2.375-.584 3.465-.156.467.584.662.74.195.4-1.1.584-2.297.623-3.465.078-1.363 0-2.803-.428-4.127-.4-1.168-1.1-2.258-2.26-2.764-1.363-.623-2.883-.272-4.13.467-2.415 1.44-4.168 3.932-5.142 6.502-1.17 2.998-1.558 7.397 2.026 8.954 1.792.78 3.934.506 5.57-.545 1.83-1.168 3-3.037 3.74-5.022.156-.467-.584-.662-.74-.195zm-4.714-6.735c-.662.4-1.13 1.1-1.48 1.752-.43.78-.78 1.635-1.13 2.492-.273.7-.623 1.44-.7 2.22-.117.895.234 1.83.896 2.452.623.584 1.48.818 2.26.43.935-.468 1.48-1.636 1.9-2.53.234-.545.43-1.1.506-1.674.04-.3 0-.584.04-.895l.273-1.752c.078-.584.078-1.285-.273-1.83-.467-.662-1.285-.662-1.987-.506-.506.117-.273.856.195.74.4-.077.935-.155 1.17.234.195.35.156.857.117 1.246-.04.467-.156.934-.234 1.4-.078.545-.04 1.13-.156 1.636-.195.895-.74 1.907-1.324 2.647-.506.623-1.208.895-1.87.35-.545-.467-.857-1.285-.74-1.985.117-.584.4-1.207.584-1.8a17.63 17.63 0 0 1 1.013-2.336c.312-.584.7-1.324 1.286-1.674.467-.195.078-.857-.35-.623z"/><path d="M12.623 238.4c2.883-2.18 6.35-3.465 9.972-3.66.506-.04.506-.817 0-.78-3.74.195-7.362 1.48-10.362 3.738-.4.35 0 1.012.4.7zm-2.183 2.023c-.35 1.363.4 2.803 1.17 3.893.857 1.168 1.987 2.258 3.3 2.842.467.195.857-.467.4-.662-1.17-.545-2.18-1.48-2.96-2.5-.7-.896-1.44-2.18-1.17-3.348.117-.507-.623-.7-.74-.234zm-1.557 2.842c.078.973.273 1.908.818 2.725.584.935 1.402 1.713 2.18 2.492.35.35.896-.195.545-.545-.7-.74-1.48-1.44-2.026-2.297-.467-.74-.623-1.557-.74-2.414-.04-.195-.156-.4-.4-.4-.195.04-.4.194-.4.428zm103.075-28.925c-4.52-2.336-5.493-8.37-3.662-12.77 2.26-5.5 8.648-7.592 14.14-7.203 6.7.468 12.388 4.555 17.102 8.994 4.908 4.632 9.427 9.8 13.166 15.455 3.623 5.5 6.467 11.602 7.402 18.142.935 6.463-.195 13.042-2.96 18.96-2.805 5.917-7.167 11.173-12.504 14.988-2.65 1.908-5.6 3.348-8.804 3.97-2.805.545-5.726.506-8.53-.078-5.766-1.168-11.102-4.594-14.22-9.655-3.506-5.723-3.3-12.536-2.96-18.998l.233-4.7c0-.506-.78-.506-.78 0-.194 6.62-1.246 13.548.935 19.972 2.026 6.034 6.817 10.667 12.7 13.003 5.57 2.18 11.92 2.22 17.412-.234 3.273-1.48 6.194-3.737 8.765-6.2 2.415-2.336 4.558-4.944 6.3-7.786 3.545-5.684 5.6-12.302 5.53-18.998-.116-6.852-2.376-13.432-5.765-19.35-3.467-6.073-7.986-11.485-12.816-16.507-4.752-4.866-10.245-9.772-17.062-11.33-5.688-1.285-12.66-.234-16.478 4.594-3.078 3.893-3.428 10.083-.312 14.054a7.89 7.89 0 0 0 2.766 2.297c.43.273.818-.4.4-.623z"/><path d="M72.847 204.363c-4.714.117-9.622-1.596-12.738-5.295-2.883-3.426-3.623-8.098-2.844-12.42.818-4.633 3.194-8.72 6.583-11.913 3.545-3.387 7.947-5.762 12.466-7.67 4.79-2.025 9.778-3.62 14.842-4.867 5.18-1.284 10.44-2.14 15.776-2.258 5.26-.117 10.557.467 15.582 2.025 4.52 1.44 8.96 3.62 12.232 7.085 1.558 1.635 2.805 3.582 3.428 5.723.662 2.18.7 4.516.117 6.735-1.17 4.516-4.44 8.292-8.064 11.096a27.28 27.28 0 0 1-2.882 1.985c-.43.273-.04.934.39.662 4.13-2.53 7.947-6.034 10.13-10.395 1.012-2.063 1.675-4.36 1.636-6.657 0-2.336-.663-4.594-1.83-6.58-2.376-4.088-6.506-6.97-10.752-8.877-4.947-2.18-10.284-3.31-15.7-3.58-11.024-.584-22.087 2.14-32.332 5.995-9.115 3.426-18.737 8.798-21.776 18.726-1.325 4.282-1.325 9.1.74 13.16 2.22 4.32 6.7 7.046 11.414 7.825a18.06 18.06 0 0 0 3.545.233c.545.04.545-.74.04-.74z"/><path d="M57.226 196.265c-4.05 2.492-6.3 7.358-5.96 12.07a13.29 13.29 0 0 0 .935 3.854c.195.467.857.078.662-.4-2.22-5.217-.117-11.874 4.713-14.833.467-.312.078-.973-.35-.7zm33.15 56.1c-3.623 4.4-4.13 10.044-3.934 15.533.234 6.074.935 12.147 2.182 18.103 1.285 6.074 3.194 12.03 5.6 17.714 1.208 2.88 2.6 5.723 4.1 8.487 1.402 2.53 2.883 5.06 4.597 7.358 1.675 2.22 3.584 4.244 5.843 5.88 2.377 1.713 5.142 2.842 7.986 3.465 5.726 1.284 11.96.817 17.608-.7 5.57-1.48 10.83-4.205 14.958-8.254 3.857-3.776 6.74-8.642 7.83-13.976 1.17-5.567.234-11.25-1.948-16.43-2.26-5.45-5.687-10.317-9.27-14.988a108.1 108.1 0 0 0-2.61-3.309c-.3-.4-.857.155-.545.545 3.584 4.477 7.1 9.032 9.817 14.093 2.648 4.905 4.48 10.316 4.285 15.923-.195 5.372-2.3 10.5-5.57 14.715-3.467 4.44-8.18 7.67-13.4 9.694-5.337 2.064-11.258 2.92-16.985 2.492-2.92-.234-5.843-.857-8.492-2.063-2.57-1.168-4.8-2.88-6.7-4.945-1.9-2.024-3.467-4.282-4.9-6.657a94.26 94.26 0 0 1-4.207-7.825c-2.6-5.45-4.714-11.173-6.233-17.013-1.558-5.84-2.532-11.835-2.96-17.87-.4-5.295-.935-11.096 1.325-16.118a15.58 15.58 0 0 1 2.103-3.426c.4-.233-.156-.817-.467-.428z"/><path d="M147.173 321.857c2.727-2.57 5.53-5.06 8.648-7.124 2.96-1.947 6.3-3.543 9.894-3.855 3.35-.31 6.623.584 9.388 2.53 2.688 1.908 4.714 4.633 6.038 7.592 3.35 7.474 1.83 16.078-.272 23.67-2.143 7.786-5.18 15.34-9 22.463-3.428 6.385-7.44 12.653-12.777 17.597-4.79 4.4-10.79 7.67-17.413 7.708-5.61.04-11.608-2.024-15.192-6.5-4.792-5.957-3.31-14.366-1.714-21.218 1.597-6.93 4.285-13.51 7.635-19.738 3.39-6.307 7.44-12.224 11.453-18.142l3.116-4.594c.273-.428-.4-.817-.662-.39-4.246 6.268-8.61 12.42-12.466 18.96-3.662 6.2-6.74 12.73-8.804 19.66-1.1 3.698-1.947 7.475-2.376 11.33-.467 3.932-.35 8.02 1.325 11.68 2.493 5.373 8.063 8.565 13.712 9.46 2.96.468 6.038.4 8.96-.31 3.273-.78 6.39-2.336 9.155-4.282 5.882-4.127 10.323-10.006 13.985-16.118 4.285-7.124 7.79-14.755 10.362-22.658 2.57-7.942 4.87-16.78 2.882-25.11-1.48-6.267-6.038-12.38-12.543-13.976-7.402-1.83-14.375 2.53-19.828 7.086-1.442 1.207-2.805 2.452-4.168 3.737-.234.35.31.895.662.545z"/><path d="M100.193 316.68l-9.037 20.867c-2.766 6.58-5.26 13.432-5.92 20.595-.35 3.465-.35 7.085.896 10.395 1.013 2.647 2.727 5.022 4.87 6.85 4.947 4.205 11.647 5.334 17.92 3.97 1.675-.35 3.3-.895 4.87-1.557 1.208-.506 2.455-.934 3.662-1.48 2.22-.935 4.207-2.14 5.532-4.166.4-.584.7-1.207 1.013-1.87.194-.467-.468-.856-.663-.4-.506 1.207-1.207 2.297-2.103 3.23-.818.78-1.753 1.402-2.766 1.908-1.052.545-2.18.934-3.272 1.363-1.403.545-2.766 1.168-4.207 1.596-6.038 1.907-12.894 1.48-18.192-2.22-2.298-1.596-4.207-3.777-5.415-6.307-1.44-3.037-1.675-6.424-1.48-9.733.4-6.97 2.65-13.665 5.26-20.05 2.727-6.736 5.726-13.354 8.648-20l1.13-2.57c.117-.467-.545-.856-.74-.428zM127.9 387.7c-1.675-.896-3.584-.4-5.26.35-.974.428-1.87.973-2.766 1.518s-1.753 1.052-2.532 1.713c-1.675 1.402-3 3.154-4.168 4.984-1.324 2.024-2.493 4.165-3.545 6.384-1.753 3.816-3.194 7.903-3.623 12.108-.4 3.582-.077 7.397 1.637 10.6.857 1.596 2.064 2.96 3.544 3.97 1.87 1.285 4.1 2.025 6.272 2.492a26.81 26.81 0 0 0 13.128-.584c4.1-1.207 7.83-3.465 10.946-6.385 2.96-2.764 5.454-6.23 6.545-10.16 1.013-3.62.896-7.747.04-11.407-.818-3.543-2.532-6.93-5.376-9.304-.7-.584-1.44-1.1-2.26-1.558-.43-.233-.82.43-.4.662 6.467 3.66 8.375 11.602 7.752 18.53-.35 3.932-2.26 7.553-4.8 10.473-2.57 2.998-5.844 5.5-9.427 7.124-3.857 1.8-8.18 2.57-12.466 2.297-4.05-.272-8.6-1.323-11.414-4.438-2.337-2.57-3.116-6.112-3.155-9.5-.04-3.815.896-7.514 2.22-11.057 1.558-4.165 3.662-8.33 6.4-11.874 1.285-1.674 2.766-3.036 4.558-4.087 1.636-.974 3.3-2.064 5.22-2.453.857-.156 1.714-.117 2.493.3.467.195.857-.467.428-.7z"/><path d="M94.818 376.7c-2.376-.74-5.064.156-7.285 1.1-2.6 1.13-5.064 2.647-7.285 4.4-2.415 1.947-4.48 4.44-6.155 7.047-1.87 2.92-3.3 6.112-4.324 9.42-.974 3.232-1.636 6.502-1.208 9.85a20.42 20.42 0 0 0 3.389 9.032c3.78 5.567 10.206 8.837 16.867 9.227 3.155.194 6.35-.273 9.3-1.324 2.765-.973 5.57-2.453 7.4-4.8.43-.545.78-1.13 1.1-1.713.195-.467-.468-.856-.662-.4-1.208 2.57-3.7 4.283-6.233 5.45a22.72 22.72 0 0 1-8.61 2.064c-6.466.233-13.05-2.297-17.257-7.24-2.065-2.414-3.506-5.334-4.207-8.4a18.4 18.4 0 0 1-.467-4.593c.04-1.636.35-3.193.74-4.8 1.597-6.424 4.753-12.536 9.583-17.13 1.83-1.752 4.012-3.192 6.233-4.36s4.8-2.336 7.362-2.297c.506 0 1.013.078 1.48.234.506.116.7-.623.234-.78zm19.126 19.973c.507-2.57-.078-5.256-1.1-7.63-1.1-2.57-2.688-4.983-4.714-6.93-1.052-1.013-2.18-1.87-3.467-2.53-.428-.234-.857.428-.4.662 2.26 1.168 4.1 2.998 5.57 5.022 1.52 2.14 2.727 4.555 3.272 7.163.273 1.324.35 2.687.078 4.05-.117.467.623.7.74.195zm41.8-105.27c3.545-5.256 8.6-9.227 14.18-12.108 5.727-2.96 11.92-4.866 18.153-6.384 3.234-.78 6.467-1.402 9.74-2.025 4.13-.778 8.298-1.48 12.505-1.908 7.87-.856 16.05-.856 23.684 1.48 6.038 1.83 11.765 5.14 16.05 9.85 4.402 4.828 6.856 11.096 6.622 17.636-.234 6.93-3.194 13.626-7.48 19-4.52 5.684-10.557 9.927-16.907 13.314-3.272 1.752-6.66 3.27-10.1 4.672-3.584 1.48-7.246 2.842-10.946 3.97-7.48 2.336-15.465 3.815-23.295 2.725-1.87-.272-3.74-.7-5.57-1.246-.467-.155-.7.584-.195.74 7.674 2.375 15.816 1.87 23.568.078 3.973-.934 7.87-2.18 11.686-3.62a146.48 146.48 0 0 0 10.557-4.36c6.74-3.115 13.284-6.97 18.582-12.224 4.986-4.945 8.765-11.213 10.245-18.103 1.402-6.62.4-13.5-3.233-19.232-3.428-5.45-8.765-9.54-14.57-12.147-6.934-3.114-14.608-4.05-22.165-3.776-8.102.272-16.205 1.752-24.113 3.387-6.505 1.323-12.972 2.997-19.088 5.567-5.882 2.5-11.453 5.917-15.777 10.667-1.05 1.168-1.986 2.375-2.843 3.66-.273.428.428.817.7.4z"/><path d="M240.587 272.142c.662-6.034 2.882-11.796 6.27-16.857 1.675-2.53 3.662-4.867 5.805-7.008 2.18-2.14 4.48-4.243 7.362-5.41 3.116-1.246 6.7-1.596 9.895-.35.155.04.39-.04.428-.194a804.2 804.2 0 0 0 12.583-28.342l3.39-8.098c.194-.467-.546-.662-.74-.195-3.895 9.46-7.946 18.843-12.153 28.187l-3.7 8.058c.156-.078.31-.116.428-.194-2.882-1.1-6.116-.974-9.037-.078-1.52.467-2.96 1.13-4.246 2.024-1.286.857-2.454 1.947-3.623 2.998-4.558 4.282-8.375 9.382-10.79 15.183-1.363 3.27-2.22 6.735-2.6 10.278-.116.506.663.467.74 0z"/><path d="M285.735 205.764c-3.077-1.868-4.012-5.878-3.155-9.226 1.013-3.894 4.44-6.307 8.297-6.89 4.208-.623 8.687.817 11.687 3.893 1.48 1.518 2.6 3.465 2.922 5.606.31 2.102-.35 4.243-1.714 5.88-3.273 3.97-9.233 4.477-13.946 3.27-.468-.117-.702.623-.195.74 4.558 1.168 10.167.818 13.75-2.49 1.636-1.518 2.766-3.582 2.922-5.84s-.702-4.516-1.987-6.307c-2.727-3.776-7.363-5.84-11.998-5.684-4.207.156-8.415 2.297-10.1 6.307-1.597 3.893-.7 9.07 3.078 11.368.467.312.857-.39.428-.623z"/><path d="M289.24 208.528c-3.233 9.266-7.05 18.337-11.453 27.096l-3.817 7.32c-.234.428.428.817.662.39 4.714-8.604 8.843-17.52 12.427-26.668a273 273 0 0 0 2.921-7.903c.195-.506-.584-.7-.74-.234z"/><path d="M273.426 243.294c4.947 1.946 8.14 6.735 9.62 11.68 1.753 5.957 1.247 12.458-.428 18.337-.896 3.075-2.182 5.917-3.467 8.837-1.09 2.492-2.18 4.983-3.428 7.397-1.286 2.492-2.766 4.867-4.48 7.047l-2.6 3.504c-2.454 3.27-5.726 6.034-9.894 6.657a15.22 15.22 0 0 1-1.909.117c-.507 0-.507.778 0 .778 2.415 0 4.752-.623 6.817-1.87 1.753-1.05 3.272-2.452 4.597-4.01.973-1.168 1.83-2.453 2.765-3.7.74-.973 1.48-1.908 2.182-2.92.818-1.168 1.597-2.375 2.298-3.62 1.364-2.414 2.493-4.945 3.584-7.436 1.286-2.92 2.688-5.8 3.7-8.838 2.025-6.112 2.843-12.808 1.363-19.154-1.207-5.1-4.05-10.2-8.765-12.808-.584-.312-1.168-.584-1.753-.818-.467-.116-.662.623-.194.818z"/><path d="M266.608 300.523c4.52.117 7.947 3.62 10.323 7.124 1.403 2.064 2.572 4.244 3.7 6.424a123.32 123.32 0 0 1 3.389 7.28c2.026 4.905 3.623 9.966 4.83 15.144s2.064 10.55 2.26 15.884c.195 5.06-.662 10.2-3.973 14.2-2.844 3.504-7.05 5.84-11.57 6.268-4.713.428-9.583-1.168-13.09-4.36-3.74-3.426-5.96-8.293-7.947-12.887-4.324-10.005-7.09-20.71-8.14-31.573l-.312-3.932c-.04-.506-.818-.506-.78 0 .662 11.25 3.117 22.425 7.285 32.897 1.013 2.57 2.103 5.1 3.35 7.553 1.13 2.297 2.415 4.477 4.05 6.462 3.155 3.815 7.674 6.23 12.622 6.62 4.635.35 9.232-1.168 12.777-4.166 1.714-1.44 3.155-3.23 4.207-5.217 1.246-2.336 1.87-4.905 2.142-7.514.273-2.764.117-5.567-.194-8.33a93.69 93.69 0 0 0-1.169-8.059c-1.013-5.45-2.493-10.823-4.44-16-1.91-5.1-4.207-10.045-6.934-14.755-2.18-3.777-5.142-7.787-9.388-9.305-.974-.35-2.026-.545-3.077-.545-.43 0-.43.78.077.78z"/><path d="M220.564 332.952c-1.286 6.97-1.753 14.094-1.364 21.14.35 6.307 1.052 12.886 4.636 18.26 2.922 4.36 7.324 7.825 12.388 9.265 5.103 1.44 10.478.584 14.802-2.452 4.17-2.88 7.246-7.475 7.558-12.614a10.4 10.4 0 0 0-.039-1.908c-.04-.506-.818-.506-.78 0 .428 5.023-2.104 9.733-5.883 12.926-3.934 3.27-9.076 4.67-14.1 3.62-5.025-1.012-9.505-4.126-12.544-8.214a23.59 23.59 0 0 1-3.545-6.969c-.973-3.23-1.363-6.58-1.597-9.927-.506-6.813-.272-13.665.78-20.4.117-.857.273-1.674.43-2.53.117-.467-.623-.7-.74-.195zm53.72 39.398c-5.22 5.762-4.714 14.288-4.13 21.53.156 2.063.43 4.127 1.325 5.995.662 1.402 1.675 2.648 2.844 3.7 2.454 2.14 5.6 3.3 8.803 3.66 6.934.818 13.8-2.686 18.075-8.06 4.44-5.528 6.155-12.847 3.974-19.66-2.104-6.618-7.402-12.185-14.024-14.482a26.9 26.9 0 0 0-2.532-.701c-.506-.117-.7.662-.195.74 6.662 1.323 12.27 6.15 15.076 12.263 1.402 3.037 2.064 6.385 1.83 9.733s-1.403 6.618-3.195 9.46c-3.506 5.567-9.66 9.8-16.36 10.005-3.116.078-6.3-.622-8.998-2.22-2.844-1.674-4.792-4.32-5.454-7.552-.4-2.025-.467-4.088-.584-6.113-.117-1.83-.156-3.62-.078-5.45.156-3.504.78-7.124 2.6-10.16.467-.74.974-1.48 1.597-2.14.273-.4-.273-.934-.584-.545z"/><path d="M230.147 377.762c-3.467 1.012-5.727 4-7.363 7.047-.935 1.752-1.753 3.58-2.532 5.41-.857 2.064-1.558 4.205-1.675 6.463-.195 4.088 1.714 8.136 4.168 11.25a23.71 23.71 0 0 0 8.492 6.696c3.273 1.518 6.934 2.336 10.557 2.14 3.584-.155 7.05-1.284 10.1-3.114 6.115-3.66 10.44-10.16 10.868-17.364.39-7.046-2.805-14.287-8.414-18.648-.7-.545-1.403-1.012-2.143-1.44-.428-.273-.818.428-.39.662 5.882 3.465 9.66 10.005 10.128 16.78.467 6.93-2.805 13.548-8.22 17.792-2.687 2.102-5.843 3.58-9.193 4.204-3.428.662-6.973.35-10.284-.7-6.778-2.18-12.855-7.748-14.57-14.794-.546-2.22-.43-4.4.156-6.58.545-2.024 1.44-3.97 2.337-5.878 1.402-3.037 3.038-6.346 5.92-8.215.7-.467 1.44-.778 2.22-1.012.546-.078.35-.857-.155-.7z"/></g><g fill="#fff"><path d="M77.093 170.454c-2.18 1.75-3.662 4.32-4.13 7.085-.078.506.662.7.74.195a10.83 10.83 0 0 1 3.934-6.735c.4-.312-.156-.857-.545-.545zm4.324-.507c-1.83 1.986-3.35 4.244-4.44 6.736-.195.467.468.856.662.4 1.052-2.414 2.532-4.633 4.324-6.58.312-.35-.234-.896-.545-.546z"/><path d="M71.406 176.177l13-3.426c.467-.117.273-.896-.195-.74l-13 3.426c-.506.117-.273.856.195.74zm-37.63 43.875c-2.26 1.674-3.662 4.36-3.7 7.163 0 .506.78.506.78 0 0-2.53 1.247-5.022 3.3-6.5.4-.273 0-.935-.4-.662zm5.375-2.22a12.74 12.74 0 0 0-4.908 7.903c-.078.506.662.7.74.195.545-2.96 2.142-5.645 4.558-7.436.4-.273 0-.935-.4-.662z"/><path d="M28.7 226.943c4.675-2.57 9.74-4.4 14.96-5.528.506-.117.273-.857-.195-.74-5.298 1.13-10.4 2.998-15.153 5.606-.428.234-.04.895.4.662zm86.48-24.76c.74-2.142 2.6-3.777 4.753-4.36.467-.117.272-.895-.195-.74-2.454.622-4.48 2.53-5.298 4.905-.195.467.545.662.74.195zm3.663.895c1.285-2.375 3.4-4.283 5.882-5.256.467-.194.273-.934-.195-.74-2.727 1.05-4.986 3.036-6.35 5.606-.234.428.428.817.662.4z"/><path d="M115.113 199.03c3.3-.662 6.817.35 9.3 2.647.35.35.935-.194.546-.545-2.688-2.5-6.467-3.542-10.1-2.842-.467.078-.272.818.234.74zm22.633 145.602c2.103-3.816 5.103-7.086 8.687-9.538.428-.273.04-.974-.4-.662a28.98 28.98 0 0 0-8.96 9.85c-.234.4.428.78.662.35zm2.688.662a26.85 26.85 0 0 1 6.856-8.098c.4-.312-.156-.857-.546-.545a27.36 27.36 0 0 0-6.972 8.253c-.273.428.4.818.662.4z"/><path d="M139.538 338.675c3-.428 6.077.312 8.6 1.986.428.272.818-.4.4-.662-2.726-1.8-6-2.492-9.232-2.063-.467.038-.234.778.234.74zm-2.493 2.103c3-.43 6.077.3 8.6 1.985.428.273.818-.4.4-.662-2.727-1.8-6-2.5-9.232-2.063-.468.04-.273.817.234.74zm32.527-52.558c5.103-4.4 11.492-7.24 18.192-8.058.506-.078.506-.857 0-.78-5.376.662-10.596 2.53-15.115 5.528-1.285.857-2.493 1.752-3.622 2.764-.4.312.155.857.545.545zm4.752.662c3.467-2.88 7.714-4.7 12.154-5.333.507-.078.273-.818-.194-.74-4.597.623-8.92 2.57-12.505 5.567-.4.273.156.818.545.506z"/><path d="M172.533 282.653c3.038 1.635 5.96 3.543 8.687 5.645.4.312.934-.233.545-.545-2.805-2.14-5.726-4.088-8.843-5.762-.428-.233-.818.43-.4.662zm6.193-2.53c2.57.545 4.792 2.22 5.96 4.555.234.428.896.04.663-.4a9.57 9.57 0 0 0-6.428-4.905c-.467-.117-.662.623-.195.74zm-79.234 51.31c-2.26 3.7-4.012 7.708-5.22 11.874-.156.467.623.7.74.195 1.17-4.127 2.883-8.06 5.142-11.72.273-.4-.4-.778-.662-.35zm2.6.078l-4.363 10.472c-.195.468.545.662.74.195l4.363-10.472c.195-.468-.545-.662-.74-.195z"/><path d="M95.207 335.872l7.48 1.635c.507.117.702-.662.195-.74l-7.48-1.635c-.467-.117-.662.622-.195.74zm-1.52 4.672c2.298.662 4.636 1.1 7.012 1.168.506.04.506-.74 0-.78a29.08 29.08 0 0 1-6.817-1.168c-.468-.116-.662.662-.195.78zM77.64 398.28a22.95 22.95 0 0 1 9.583-9.383c.428-.233.04-.895-.4-.66-4.168 2.14-7.635 5.528-9.895 9.655-.234.467.428.856.7.4zm3.582-.585c1.558-2.647 3.895-4.8 6.66-6.073.468-.195.078-.896-.4-.662-2.883 1.362-5.337 3.582-6.934 6.346-.273.428.4.817.662.4z"/><path d="M81.183 387.417a13.68 13.68 0 0 0 6.39 6.852c.428.234.857-.428.4-.662a13.24 13.24 0 0 1-6.116-6.579c-.195-.467-.857-.078-.662.4zm-2.533 6.23c1.285.584 2.415 1.518 3.233 2.686a.48.48 0 0 0 .545.156c.156-.117.273-.35.156-.545-.896-1.285-2.104-2.336-3.506-2.96-.195-.078-.428-.04-.545.156-.156.117-.078.4.117.506zm43.63 3.114c-3.467 1.635-5.804 5.177-6.077 8.954-.04.506.74.506.78 0 .234-3.543 2.493-6.774 5.687-8.293.43-.233.04-.895-.4-.66zm1.325.468c-2.22 2.88-3.817 6.23-4.713 9.733-.117.467.623.7.74.194.857-3.465 2.454-6.735 4.635-9.577.312-.35-.35-.74-.662-.35z"/><path d="M116.438 401.12l6.154 1.48c.507.117.702-.623.195-.74l-6.155-1.48c-.506-.117-.7.623-.194.74zm-1.52 3.583a7.37 7.37 0 0 0 5.805 1.362c.506-.078.272-.856-.195-.74-1.83.35-3.74-.155-5.18-1.284-.156-.117-.43-.04-.546.155-.155.156-.077.4.117.507zM251.22 260.618c1.403-4.36 4.9-7.942 9.272-9.42.467-.156.272-.896-.195-.74-4.597 1.596-8.297 5.334-9.817 9.967-.194.467.585.66.74.194zm3.08.545c1.52-3.62 4.246-6.618 7.674-8.526.428-.233.04-.895-.4-.66-3.622 1.985-6.466 5.177-8.024 8.954-.195.506.545.7.74.233z"/><path d="M254.766 252.52l6.116 3.542c.43.234.818-.428.4-.662l-6.116-3.542c-.43-.273-.818.4-.4.662zm-3.546 3.465l5.532 2.88c.43.234.857-.467.4-.662l-5.532-2.88c-.43-.234-.818.428-.4.66zm34.944-56.878a9.61 9.61 0 0 1 5.181-4.711c.467-.194.273-.934-.195-.74-2.415.934-4.48 2.725-5.6 5.06-.273.428.4.817.623.4zm2.688.545c.273-1.44 1.636-2.492 3.077-2.453.507 0 .507-.778 0-.778-1.753-.04-3.467 1.284-3.817 3.036-.04.195.078.43.272.468.195.077.43-.04.468-.273z"/><path d="M286.164 195.058l4.13 4.127c.35.35.896-.195.546-.545l-4.13-4.127c-.35-.4-.896.156-.545.545zm-30.307 152.416c.04 3.893 1.558 7.708 4.246 10.55.35.35.896-.195.546-.545-2.533-2.686-4.013-6.307-4.013-10.005 0-.467-.78-.467-.78 0zm2.843-1.44a10.51 10.51 0 0 0 2.766 9.305c.35.35.895-.195.545-.545a9.71 9.71 0 0 1-2.571-8.526c.117-.506-.662-.74-.74-.234z"/><path d="M255.156 352.145a13.1 13.1 0 0 0 5.531-3.036c.35-.35-.194-.896-.545-.545-1.48 1.362-3.272 2.336-5.18 2.842-.506.117-.273.856.195.74zm1.324 2.755a13.1 13.1 0 0 0 5.532-3.037c.35-.35-.195-.896-.545-.545-1.48 1.362-3.273 2.336-5.18 2.842-.507.117-.273.856.194.74zm-31.436.827c-.234 3.387.506 6.774 2.103 9.772.234.428.896.04.663-.4-1.56-2.88-2.22-6.152-2.026-9.383.078-.506-.7-.506-.74 0zm4.556.506c-.818 3.232-.7 6.657.273 9.85.156.467.896.272.74-.195-.935-3.075-1.05-6.346-.272-9.46.117-.467-.624-.7-.74-.195z"/><path d="M223.914 362.54a11.62 11.62 0 0 0 7.09-.35c.467-.195.273-.935-.195-.74-2.142.818-4.48.973-6.7.35-.507-.155-.7.584-.195.74zm.506-3.192c2.338.623 4.83.506 7.1-.35.468-.194.273-.934-.195-.74-2.142.817-4.48.973-6.7.35-.467-.156-.662.584-.195.74zm.702 34.726c.04-3.036 1.908-5.878 4.635-7.202.468-.234.04-.895-.4-.662-3 1.44-4.986 4.594-5.025 7.864-.04.506.74.506.78 0zm1.948.74c.818-3.192 2.766-5.995 5.454-7.903.4-.272 0-.973-.4-.662a14.93 14.93 0 0 0-5.844 8.37c-.117.468.663.7.78.195z"/><path d="M225.98 387.456c1.792 1.1 3.35 2.53 4.635 4.166.117.155.43.116.546 0 .155-.156.117-.4 0-.545-1.325-1.713-2.96-3.154-4.792-4.283-.4-.272-.818.4-.4.662zm-2.65 2.258c1.792 1.1 3.35 2.53 4.635 4.166.117.155.43.116.546 0 .156-.156.117-.4 0-.545-1.325-1.713-2.96-3.154-4.792-4.283-.428-.272-.818.4-.4.662zm52.784-10.472a11.73 11.73 0 0 0-1.675 8.058c.077.506.818.273.74-.194-.4-2.57.194-5.256 1.597-7.475.3-.428-.4-.818-.662-.4zm3.896.155c-1.675 1.947-2.532 4.555-2.298 7.125.04.506.818.506.78 0-.234-2.375.506-4.75 2.064-6.58.312-.35-.233-.895-.545-.545z"/></g><g opacity=".2" fill="#181d23"><path d="M90.96 252.56c2.065-3.815 6.155-5.917 10.245-6.93 4.246-1.05 8.765-.857 12.972.233 8.882 2.258 16.127 8.098 21.776 15.145 3.233 4 6 8.4 8.57 12.886.234.428.935.04.662-.4-4.674-8.136-10.1-16.117-17.607-21.918-7.1-5.4-16.4-8.643-25.36-6.97-4.675.896-9.544 3.193-11.92 7.553-.234.467.43.857.662.4zM58.2 197.394c1.247-1.557 3.194-1.986 5.103-2.024 2.065 0 4.13.4 6.155.817 4.207.896 8.336 2.336 12.037 4.555 2.104 1.285 4.012 2.803 5.687 4.594.35.35.896-.195.545-.545-3.077-3.3-7.012-5.684-11.22-7.32-2.142-.818-4.324-1.48-6.544-1.986-2.104-.467-4.285-.895-6.466-.934-2.142 0-4.44.467-5.882 2.22-.273.467.273 1.012.584.623z"/><path d="M51.07 209.618a185.22 185.22 0 0 0 11.414 26.318 170.02 170.02 0 0 0 7.207 12.341c2.298 3.62 4.675 7.32 7.635 10.473s6.74 5.722 11.22 5.878c.507 0 .507-.778 0-.778-3.973-.117-7.362-2.336-10.1-5.06-2.96-2.96-5.26-6.502-7.518-10.006-5.064-7.864-9.544-16.117-13.323-24.682-2.142-4.828-4.05-9.733-5.765-14.677-.195-.467-.935-.273-.78.194zm35.45-5.333c3.272 4.32 6.778 8.37 10.05 12.7 3.584 4.672 6.857 9.616 9.35 15 1.597 3.426 2.92 7.008 3.895 10.706.117.467.896.272.74-.195-1.675-6.268-4.285-12.224-7.674-17.752-3-4.867-6.505-9.344-10.1-13.743l-5.6-7.047c-.273-.428-.974-.077-.662.35z"/><path d="M87.22 265.018c4.558.622 9.232-.195 13.167-2.6 4.012-2.453 6.934-6.307 8.53-10.667 1.052-2.88 1.558-5.957 1.636-9.032 0-.506-.78-.506-.78 0-.117 4.983-1.44 10.005-4.402 14.093-2.57 3.504-6.27 6.034-10.48 7.085-2.454.623-4.986.74-7.518.4-.428-.078-.662.662-.156.74zm14.103 51.505a31.5 31.5 0 0 1 9.972-10.784c3.662-2.452 7.83-4.126 12.115-5.138a38.19 38.19 0 0 1 5.921-.935c1.87-.155 3.818-.194 5.688.078 3.895.584 7.635 2.414 10.167 5.528 2.883 3.582 3.506 8.332 2.688 12.73-.117.662-.273 1.323-.467 1.985-.117.467.623.7.74.195 1.285-4.633 1.285-9.772-1.325-13.976-2.18-3.504-5.804-5.88-9.777-6.9-3.896-.973-8.064-.623-11.96.078-4.44.817-8.725 2.375-12.62 4.67-4.324 2.53-8.025 6.035-10.752 10.24-.4.584-.74 1.168-1.05 1.8-.273.467.4.857.662.428z"/><path d="M155.47 289.817c-2.843 4.087-5.376 8.448-7.245 13.042-.818 1.985-1.52 4.165-1.597 6.306-.04 1.713.272 3.465.662 5.14.428 1.79.974 3.738 2.025 5.295.273.428.935.04.663-.39-.896-1.324-1.364-2.92-1.792-4.438-.43-1.674-.78-3.426-.78-5.178-.04-2.025.584-4 1.285-5.88.857-2.258 1.948-4.438 3.117-6.58a79.81 79.81 0 0 1 4.323-6.969c.312-.35-.39-.74-.662-.35z"/><path d="M149.16 319.988c2.26 4.244 6 7.164 10 9.694 2.142 1.363 4.285 2.725 6.467 3.97a82.27 82.27 0 0 0 7.674 3.777c2.92 1.245 5.92 2.335 8.96 3.387.468.155.663-.584.195-.74-5.26-1.8-10.48-3.815-15.348-6.463-2.26-1.246-4.44-2.647-6.66-4-1.948-1.207-3.857-2.452-5.6-3.893-2.026-1.713-3.74-3.737-4.986-6.073-.234-.506-.935-.117-.7.35zm90.726-50.104a37.65 37.65 0 0 0-.351 17.675c.623 2.88 1.597 5.723 2.883 8.37.662 1.362 1.363 2.686 2.18 3.932.818 1.285 1.714 2.608 2.805 3.698 2.493 2.53 5.92 3.193 9.3 3.7.506.078.7-.662.195-.74-2.883-.428-6-.895-8.26-2.842-1.168-1.012-2.064-2.258-2.92-3.504-.818-1.207-1.558-2.452-2.22-3.737a37.55 37.55 0 0 1-4.051-16.663c-.04-3.27.4-6.54 1.208-9.693.116-.468-.624-.662-.78-.195z"/><path d="M266.686 299.822c-2.415-1.324-5.142-2.024-7.907-1.79-2.338.195-4.636.973-6.623 2.22-1.87 1.13-3.545 2.686-4.596 4.594-1.208 2.22-1.715 4.75-1.948 7.24-.35 3.387-.234 6.852.31 10.2.078.506.818.273.74-.194-.468-2.803-.585-5.684-.43-8.526.156-2.492.506-5.06 1.48-7.397 1.714-3.97 5.883-6.62 10.1-7.28 2.92-.468 5.882.116 8.492 1.557.428.31.818-.39.39-.623z"/><path d="M220.953 334.938c1.13-5.684 2.65-11.3 4.597-16.702 1.714-4.827 3.623-9.85 6.856-13.86 1.247-1.557 2.727-3.076 4.48-4.05 1.1-.623 2.26-1.012 3.467-1.324 2.766-.74 5.804-.895 8.57-.116 1.52.428 2.922 1.206 4.012 2.374 1.247 1.324 1.87 3.115 2.065 4.906.04.506.818.506.78 0-.195-1.713-.7-3.387-1.753-4.8-.896-1.168-2.065-2.102-3.428-2.686-2.766-1.246-6-1.285-8.92-.74-1.363.234-2.726.623-4.012 1.207-1.52.662-2.805 1.635-4.012 2.764-3.74 3.582-5.882 8.448-7.752 13.198a112.3 112.3 0 0 0-5.688 19.66c-.117.428.624.623.74.156zm67.9 29.16c-5.18.117-10.245 2.453-13.712 6.307a19.18 19.18 0 0 0-2.532 3.582c-.234.428.428.817.662.4 2.376-4.36 6.583-7.6 11.375-8.876 1.363-.35 2.804-.584 4.207-.584.506-.04.506-.818 0-.818zm-36.15 12.613c-5.6-2.414-12.3-3.465-18.23-1.557-1.636.545-3.195 1.285-4.597 2.297-.4.272 0 .973.4.662 4.908-3.543 11.452-3.738 17.18-2.336a27.1 27.1 0 0 1 4.83 1.635c.468.156.857-.506.43-.7z"/></g><path d="M96.6 1.687l.545 35.934v28.73L96.96 92.32l-.04 28.147.467 34.765.117 4.984c0 .506.78.506.78 0l-.545-35.934V95.55l.195-25.967.04-28.147-.468-34.766-.117-4.983c0-.467-.78-.467-.78 0z" fill="url(#A)"/><path d="M95.87 160.993c5.6 4.166 9.077 10.6 10.713 17.286.818 3.387 1.208 6.89 1.208 10.394 0 3.31-.35 6.658-1.442 9.81-1.168 3.426-3.233 6.58-6.544 8.214-.467.234-.04.896.39.662 6.272-3.075 8.103-10.784 8.337-17.168.272-7.203-1.09-14.6-4.558-20.945-1.91-3.465-4.48-6.54-7.674-8.916-.428-.31-.818.35-.428.662z" fill="url(#A)"/><path d="M98.752 160.838c3.78 3.387 6.934 7.474 9.232 12.03 2.338 4.633 3.74 9.772 3.74 14.99a30.25 30.25 0 0 1-1.363 8.954c-.156.467.584.7.74.195 1.636-5.178 1.792-10.706.623-16-1.13-5.14-3.467-10.005-6.583-14.25-1.714-2.336-3.7-4.516-5.844-6.462-.35-.35-.935.233-.545.545z" fill="url(#A)"/><path d="M278.373 1.298l.312 44.77.74 39.048.896 37.18.78 38.658.39 43.993v5.995c0 .506.78.506.78 0l-.31-44.888-.74-39.125-.896-37.18-.78-38.62-.4-43.875V1.26c0-.467-.78-.467-.78.04z" fill="url(#A)"/><path d="M281.723 211.565c-.234 1.518.507 3.114 1.91 3.815 1.402.74 3.194.428 4.285-.7.35-.35-.195-.895-.545-.545-.857.857-2.26 1.13-3.35.584-1.05-.545-1.714-1.79-1.558-2.958.04-.195-.04-.43-.272-.468-.156-.04-.43.078-.468.273z" fill="url(#A)"/><path d="M283.866 210.047c.272.856 1.246 1.284 2.064 1.48.857.234 1.83.35 2.727.156.506-.117.273-.857-.195-.74-.194.04-.233.04-.428.04h-.585c-.39-.04-.818-.078-1.207-.195a2.9 2.9 0 0 1-1.091-.428c-.156-.078-.234-.156-.35-.273l-.078-.077c-.04-.078 0 .04-.04-.04-.04-.04-.04-.078-.078-.117 0-.04 0-.04 0 0 0-.04 0-.04-.04-.078-.117-.39-.857-.195-.7.273z" fill="url(#A)"/><g fill="#181d23"><path d="M90.844 424.402l1.675 1.752c.156.194.468-.078.273-.273l-1.675-1.752c-.195-.194-.468.078-.273.273zm1.364-1.908c.04.04.04.117.078.156l-.078.078s.04.078.078.078c.04.077.117.155.156.194l.35.467.7.896 1.402 1.752c.156.194.428-.078.273-.273l-1.9-2.414-.467-.584c-.117-.155-.273-.4-.468-.467-.4-.155-.623.43-.234.545.273 0 .35-.4.117-.428zm1.13-.934a55.33 55.33 0 0 0 4.09 4.438c.195.156.468-.117.273-.273a54.99 54.99 0 0 1-4.09-4.438c-.156-.194-.428.078-.273.273zm1.247-1.44l4.48 4.4c.195.155.467-.117.273-.273l-4.48-4.4c-.195-.195-.467.078-.273.272zm2.016-1.285l4.83 4.593c.195.156.467-.116.273-.272l-4.83-4.594c-.195-.195-.468.078-.273.273zm1.918-1.947l4.558 4.127c.195.155.467-.117.273-.273l-4.558-4.127c-.156-.194-.428.078-.273.273zm2.182-.895l3.66 3.62c.195.195.468-.117.273-.272l-3.662-3.62c-.155-.195-.428.078-.272.273zm2.025-2.375c.974 1.246 2.143 2.297 3.467 3.114.195.117.4-.194.195-.35-1.285-.818-2.454-1.87-3.4-3.076-.156-.194-.428.117-.273.312zm.857-2.88l2.416 2.842c.155.195.428-.078.272-.273l-2.415-2.842c-.156-.194-.428.117-.273.273zm.935-2.22l1.792 1.985c.156.195.43-.078.273-.272l-1.792-1.986c-.156-.155-.428.117-.273.273zm.896-2.492l1.83 1.635c.195.156.468-.116.273-.272l-1.83-1.635c-.195-.156-.468.116-.273.272zm1.13-1.87l1.753 1.52c.078.078.195.078.273 0s.078-.195 0-.273l-1.753-1.518c-.078-.078-.195-.078-.273 0s-.078.234 0 .272zm.7-2.335l1.83 1.83c.195.195.468-.116.273-.272l-1.83-1.83c-.195-.156-.468.117-.273.273zm.896-3.777l2.143 2.375c.155.195.428-.078.272-.272l-2.142-2.375c-.156-.195-.43.078-.273.272zm.312-3.23l2.804 2.647c.195.156.468-.116.273-.272l-2.805-2.647c-.194-.156-.467.116-.272.272zm.388-2.92l3.272 2.88c.195.156.468-.117.273-.272l-3.272-2.88c-.156-.195-.43.077-.273.272zm0-3.62l2.377 2.18c.194.155.467-.117.272-.273l-2.376-2.18c-.156-.195-.43.078-.273.273zm.08-2.804a6.1 6.1 0 0 1 1.364 1.635c.116.233.467.04.35-.195-.35-.662-.857-1.246-1.44-1.713-.078-.078-.195-.078-.273 0s-.078.234 0 .273zm7.4 43.604l1.13.7c.078.04.234.04.273-.078.04-.078.04-.194-.078-.272l-1.13-.7c-.078-.04-.233-.04-.272.078-.04.078 0 .195.078.273zm1.286-.468l1.402 1.168c.078.078.195.078.273 0s.078-.194 0-.272l-1.402-1.168c-.078-.078-.195-.078-.273 0s-.078.194 0 .272zm.896-1.246l2.922 2.686c.195.156.467-.117.272-.273l-2.92-2.686c-.195-.156-.468.117-.273.273zm1.44-1.05a20.39 20.39 0 0 1 3.428 3.426c.156.195.43-.077.273-.272a20.35 20.35 0 0 0-3.428-3.426c-.195-.156-.467.117-.273.272zm1.637-.546l3.4 3.66c.155.194.428-.078.272-.273l-3.4-3.66c-.195-.195-.467.078-.272.272zm1.986.156l3.078 3.27c.155.195.428-.078.272-.272l-3.077-3.27c-.156-.195-.43.077-.273.272zm1.792.04c.935.74 1.792 1.596 2.57 2.492.156.194.43-.078.273-.273-.78-.934-1.636-1.752-2.57-2.492a.19.19 0 0 0-.273 0c-.078.04-.078.195 0 .273zm1.91-.663c.935.74 1.792 1.596 2.6 2.492.156.194.428-.078.273-.273a20.26 20.26 0 0 0-2.6-2.49c-.078-.078-.195-.078-.273 0s-.078.194 0 .272zm2.133-.857l2.493 2.22c.194.155.467-.117.272-.273l-2.493-2.22c-.195-.195-.467.117-.272.273zm1.568-1.48c1.012.662 1.908 1.52 2.688 2.453.077.078.194.078.272 0s.078-.195 0-.273a12.24 12.24 0 0 0-2.766-2.53c-.194-.117-.4.195-.194.35zm2.064-1.244l2.493 2.57c.156.195.43-.078.273-.273a31.07 31.07 0 0 0-2.493-2.569c-.195-.156-.467.117-.273.273zm1.403-1.052l2.493 2.57c.156.195.467-.078.272-.273l-2.493-2.57c-.155-.156-.467.117-.272.272zm1.44-1.984l2.727 3.075c.156.195.428-.077.272-.272l-2.726-3.076c-.156-.194-.43.078-.273.273zm1.48-1.83l2.65 2.803c.156.195.43-.078.273-.272l-2.65-2.803c-.156-.195-.43.077-.273.272zm1.364-1.9a32.55 32.55 0 0 0 3.116 3.037c.195.156.468-.117.273-.272-1.1-.935-2.143-1.986-3.117-3.037-.155-.195-.428.078-.272.272zm1.324-2.412c.974.856 1.83 1.8 2.532 2.842.156.194.468 0 .35-.195-.74-1.1-1.636-2.063-2.6-2.92-.195-.156-.468.117-.273.273zm1.09-2.725c.974 1.1 1.83 2.22 2.65 3.425.156.195.467 0 .35-.194-.818-1.246-1.714-2.414-2.687-3.504-.195-.195-.468.078-.312.273zm.428-2.413a12.76 12.76 0 0 1 2.455 3.114c.116.234.467.04.35-.194a12.4 12.4 0 0 0-2.493-3.193c-.234-.155-.506.117-.312.273zm.897-2.337a10.22 10.22 0 0 1 2.104 2.725c.117.234.467.04.35-.195-.585-1.05-1.325-1.985-2.182-2.803-.195-.155-.467.117-.273.273zm.428-2.686l1.675 2.336c.078.077.156.116.273.078.078-.04.116-.195.078-.273l-1.676-2.336c-.077-.078-.155-.117-.272-.078-.078.04-.117.195-.078.273zm.35-1.83l1.325 1.8c.078.078.156.117.273.078.078-.04.116-.195.078-.273l-1.325-1.8c-.078-.078-.156-.117-.273-.078-.078.078-.116.195-.078.273zm-41.876-23.592c.04 0 .078.04.117.04-.04 0 0 0 .04 0 0 0 .04 0 .04.038.078.04.117.078.156.078s.077.04.077.078l.04.04c-.04-.04.04.04 0 0 .04.04.117.078.156.156.04.04.078.117.156.156l.04.04c.04.038.04.038.04.077.04.04.078.117.117.195 0 .04.04.078.04.117 0 0 .04.04 0 .04v.04c.04.078.117.155.234.116.077-.038.155-.155.116-.233-.233-.623-.74-1.1-1.363-1.324-.078-.04-.234.04-.234.117.078.117.156.234.234.234zm1.013-1.013c.545.35.935.896 1.13 1.558.078.233.43.155.4-.117-.195-.74-.662-1.363-1.285-1.8-.234-.117-.43.234-.234.35z"/><path d="M103.232 375.193l1.83 1.83c.194.195.467-.116.272-.272l-1.83-1.83c-.156-.156-.43.117-.273.273zm1.285-.896l2.532 2.375c.195.156.468-.117.273-.272l-2.532-2.375c-.195-.156-.467.117-.273.272zm2.26-1.167l2.96 3.037c.156.195.43-.078.273-.272l-2.96-3.037c-.155-.195-.428.078-.272.272zm2.843-1.052l2.844 2.414c.195.156.468-.117.273-.273l-2.844-2.413c-.195-.156-.467.117-.273.272zm2.65-1.44c.624.973 1.442 1.83 2.416 2.414.194.116.428-.195.194-.35a7.18 7.18 0 0 1-2.298-2.297c-.078-.195-.43 0-.312.234zm2.103-.858a12.69 12.69 0 0 1 2.103 1.986c.156.194.43-.078.273-.273a18.26 18.26 0 0 0-2.18-2.063c-.078-.078-.234 0-.273.078s0 .194.078.272zm2.415-1.75c.896.468 1.558 1.285 1.9 2.22.078.234.467.117.4-.116-.4-1.05-1.13-1.908-2.103-2.453-.234-.078-.43.234-.195.35zm1.286-1.714l1.636 2.375c.155.195.467 0 .35-.194l-1.636-2.375c-.156-.234-.506-.04-.35.194zm1.286-1.44l1.987 1.985c.195.195.467-.077.273-.272l-1.987-1.986c-.156-.155-.43.117-.273.273zm.583-2.96l1.753 2.414c.078.078.156.117.273.078.078-.04.117-.195.078-.273l-1.753-2.413c-.078-.078-.156-.117-.273-.078s-.155.194-.078.272zm.897-2.14l1.987 2.375c.078.078.195.078.273 0s.078-.195 0-.273l-1.987-2.375a.193.193 0 1 0-.273.273zm.545-1.976c.623.623 1.168 1.363 1.597 2.142.117.233.467.04.35-.195-.43-.818-.974-1.557-1.637-2.22-.233-.156-.506.117-.3.272zm.39-3.085c.74.895 1.364 1.87 1.87 2.92.117.233.468.04.35-.195-.546-1.05-1.17-2.063-1.9-2.998-.195-.233-.468.078-.312.273zm.896-2.335l2.143 2.725c.078.078.195.078.272 0s.078-.194 0-.272l-2.142-2.726a.19.19 0 0 0-.273 0c-.117.078-.078.195 0 .273zm.818-2.22l1.987 2.725c.156.195.468 0 .35-.194l-1.987-2.726c-.156-.194-.468 0-.35.195zm.78-2.024l1.792 2.57c.156.195.468 0 .35-.195l-1.792-2.57c-.156-.195-.467 0-.35.195zm.74-1.908c.7.623 1.246 1.4 1.558 2.258a.16.16 0 0 0 .233.117c.078-.04.156-.156.117-.234a7.06 7.06 0 0 0-1.675-2.453c-.156-.155-.428.117-.233.312zm1.1-1.478c.624.584 1.1 1.284 1.442 2.063.04.078.117.156.233.117.078-.04.195-.156.117-.234-.35-.856-.857-1.635-1.52-2.258-.195-.117-.467.156-.273.312zm.585-1.637c.623.43 1.1 1.052 1.324 1.752.078.234.468.117.4-.116-.273-.818-.818-1.48-1.52-1.986-.077-.078-.233 0-.272.078-.04.117 0 .233.078.272zm1.247-2.57l1.208 2.22c.117.234.467.04.35-.195l-1.207-2.22c-.156-.233-.507-.04-.35.195zm.934-1.986a5.26 5.26 0 0 1 1.364 1.83c.038.078.194.117.272.078.117-.04.117-.156.078-.272a5.29 5.29 0 0 0-1.402-1.908c-.078-.078-.195-.078-.273 0-.117.078-.117.195-.04.272zm.936-2.49l1.52 2.492c.117.194.468 0 .35-.195l-1.52-2.492c-.156-.194-.468 0-.35.195zm1.323-2.025l1.442 2.18c.156.194.467 0 .35-.195l-1.44-2.18c-.156-.195-.506 0-.35.194zm1.56-1.868l1.168 1.713c.078.078.156.117.273.078.078-.04.117-.195.078-.273l-1.17-1.713c-.078-.078-.156-.117-.272-.078-.078.04-.156.156-.078.273zm1.324-1.558l.974 1.752c.117.234.468.04.35-.194l-.974-1.752c-.117-.234-.468-.04-.35.194zm.818-.74l1.1 1.285a.193.193 0 1 0 .273-.273l-1.1-1.285c-.078-.078-.195-.078-.273 0s-.078.195 0 .273zm1.17-2.064l.195.545c0 .04.04.078.078.117s.116.04.155.04c.078-.04.156-.117.117-.233l-.195-.545c0-.04-.04-.078-.077-.117s-.117-.04-.156-.04c-.078.04-.156.156-.117.233zm7.05 62.367l.467.584c.04.04.078.04.156.04.04 0 .117-.04.156-.04.04-.04.078-.078.04-.156 0-.038-.04-.077-.04-.155l-.468-.584c-.04-.04-.078-.04-.156-.04-.04 0-.116.04-.155.04-.04.04-.078.078-.04.155 0 .078 0 .117.04.156zm.74-.622c.04 0 .117.04.156.04s.04 0 .078.04h.04c.116.04.194.117.272.156.04 0 .04.04.078.04l.156.156.117.116c0 .04.04.04.04.078l.04.04c-.04-.04.04.04 0 0 .078.078.156.117.272.078.078-.04.117-.195.078-.273-.3-.4-.7-.7-1.207-.817-.117-.04-.234.04-.234.117-.078.117 0 .194.117.233zm1.013-.818l1.207 1.323c.078.078.195.078.273 0s.078-.194 0-.272l-1.208-1.324c-.078-.078-.194-.078-.272 0s-.04.195 0 .273zm1.1-1.206a4.89 4.89 0 0 1 1.56 1.4c.077.078.155.117.272.078.078-.04.117-.194.078-.272-.467-.623-1.013-1.168-1.675-1.52-.234-.155-.428.195-.234.312zm1.793-.74l1.442 1.48c.194.194.467-.078.272-.273l-1.44-1.48c-.195-.156-.467.116-.273.272zm1.908-3.074l2.026 2.725c.078.078.156.117.272.078.078-.04.117-.195.078-.273l-2.025-2.725c-.078-.078-.156-.117-.273-.078-.078.04-.156.195-.078.273zm2.182-.936c.584.857 1.285 1.674 2.064 2.336.195.156.468-.117.273-.272-.78-.662-1.44-1.44-2.026-2.258-.117-.195-.428 0-.3.194zm2.23-1.596l1.636 1.986a.19.19 0 0 0 .273 0c.078-.078.078-.195 0-.273l-1.636-1.985c-.078-.078-.195-.078-.273 0s-.078.194 0 .272zm1.47-1.868l1.792 2.375c.078.078.156.117.273.078.078-.04.117-.195.078-.272l-1.792-2.375c-.078-.078-.156-.117-.273-.078s-.156.195-.078.272zm1.442-1.285l1.597 2.375c.156.194.467 0 .35-.195l-1.597-2.375c-.156-.195-.506 0-.35.195zm1.402-2.335a13.46 13.46 0 0 0 1.83 2.57c.156.195.428-.078.273-.272a13.85 13.85 0 0 1-1.792-2.492c-.078-.194-.43 0-.312.195zm1.596-2.337c.584.856 1.286 1.674 2.065 2.375.195.155.467-.117.272-.273a10.15 10.15 0 0 1-1.986-2.297c-.117-.194-.468 0-.35.195zm1.87-2.92c.506 1.1 1.13 2.102 1.792 3.115.156.194.467 0 .35-.195a22.12 22.12 0 0 1-1.792-3.115c-.117-.233-.468-.038-.35.195zm.975-1.79l2.337 2.92c.156.195.43-.078.273-.272l-2.337-2.92c-.156-.195-.43.078-.273.272zm1.325-2.492a23.89 23.89 0 0 0 2.104 3.075c.156.195.428-.078.273-.272-.78-.935-1.442-1.947-2.065-2.998-.117-.234-.467-.04-.312.195zm.973-1.518l1.948 2.57c.078.078.156.117.273.078.078-.04.116-.195.078-.273l-1.948-2.57c-.078-.078-.156-.117-.273-.078-.078.04-.117.194-.078.272zm1.09-3.075l1.597 2.57c.117.195.468 0 .35-.194l-1.597-2.57a.201.201 0 0 0-.351.195zm1.256-1.44l1.442 2.336c.117.195.467 0 .35-.194l-1.44-2.336c-.156-.195-.467 0-.35.194zm.692-3.386c.74.935 1.363 2.025 1.792 3.154.077.233.467.117.4-.117-.467-1.207-1.13-2.297-1.9-3.3-.116-.195-.428.078-.272.272zm.974-1.714l2.142 3.115c.156.195.468 0 .35-.195l-2.143-3.114a.2.2 0 0 0-.35.194zm.896-2.49a9.94 9.94 0 0 1 2.298 4.088c.078.233.428.155.4-.117-.428-1.596-1.246-3.076-2.415-4.244-.156-.155-.428.117-.272.273zm1.012-2.765a15.45 15.45 0 0 1 2.221 3.465c.117.233.428.038.35-.195a17.47 17.47 0 0 0-2.298-3.582c-.156-.156-.428.117-.273.312zm1.48-2.686l1.792 3.465c.116.234.467.04.35-.194l-1.792-3.465c-.117-.234-.467-.04-.35.194zm.39-2.842a20.21 20.21 0 0 1 2.337 3.582c.117.234.468.04.35-.195a22.71 22.71 0 0 0-2.376-3.66c-.195-.195-.468.078-.312.272zm.974-3.152c.896 1.012 1.597 2.14 2.065 3.387.078.234.467.117.4-.117-.506-1.323-1.246-2.53-2.18-3.58-.156-.156-.43.116-.273.3zm.896-.35c.662.545 1.208 1.245 1.52 2.024.04.078.195.117.273.078.117-.078.117-.156.078-.273-.35-.817-.896-1.557-1.597-2.102-.078-.078-.195-.078-.273 0-.078.04-.078.195 0 .273zm-46.356-13.94l.7.428c.078.04.234.04.273-.077.038-.078.038-.195-.078-.273l-.702-.428c-.078-.04-.233-.04-.272.078-.04.078-.04.194.078.272zm.974-.66h.078c.038 0 .077 0 .116.04.04 0 .078.04.078.04h.04s.04 0 .04.04c.04 0 .04.04.078.04 0 0 .04 0 .04.04-.04-.04.04.04 0 0 .04.04.117.078.156.156.04.04.078.04.156.04.04 0 .117-.04.156-.04.038-.04.077-.078.038-.156 0-.04-.038-.078-.038-.156-.195-.272-.507-.428-.857-.428-.117 0-.195.078-.195.195-.078.117 0 .194.117.194zm1.012-.585l1.247.935c.078.078.234 0 .273-.078.04-.117 0-.195-.078-.273l-1.247-.934c-.078-.078-.234 0-.272.078-.078.117-.04.195.077.272zm1.208-.855c.818.428 1.558 1.012 2.104 1.752.077.078.155.117.272.078.078-.04.117-.195.078-.273a6.2 6.2 0 0 0-2.259-1.868c-.195-.156-.4.194-.195.3zm1.636-.974l1.987 1.635c.078.078.195.078.272 0s.078-.195 0-.273l-1.986-1.635c-.078-.078-.195-.078-.273 0s-.078.195 0 .273zm1.636-1.1a12.67 12.67 0 0 1 1.948 1.868c.078.078.195.078.273 0s.077-.194 0-.272a17.81 17.81 0 0 0-1.948-1.869c-.078-.078-.195-.078-.273 0-.078.04-.078.195 0 .273zm1.714-1.013c.74.78 1.558 1.44 2.454 1.986a.2.2 0 0 0 .195-.35c-.857-.545-1.675-1.168-2.376-1.908-.156-.195-.43.078-.273.272zm1.792-2.258l2.688 2.025c.078.078.234 0 .273-.078.078-.117 0-.195-.078-.273l-2.688-2.024c-.078-.078-.234 0-.273.078-.078.117-.04.233.078.272zm2.883-1.4l3.038 1.87a.201.201 0 0 0 .195-.351l-3.038-1.87a.201.201 0 0 0-.195.351zm2.297-1.87l2.182 1.83c.078.078.194.078.272 0s.078-.195 0-.273l-2.18-1.83c-.078-.078-.195-.078-.273 0s-.078.233 0 .272zm1.637-2.53l2.182 2.725c.078.078.194.078.272 0s.078-.195 0-.273l-2.18-2.725c-.078-.078-.195-.078-.273 0s-.078.195 0 .273zm-2.92-37.803l-.234 2.726c-.04.233.35.233.4 0l.234-2.726c.04-.233-.35-.233-.4 0zm1.284.74l-.428 3.815c-.04.234.35.234.4 0l.43-3.815c0-.233-.4-.233-.4 0zm.975 2.18a27.15 27.15 0 0 1-.273 3.97c-.04.234.35.234.4 0l.273-3.97c0-.272-.4-.272-.4 0zm1.44 1.79l-.506 5.022c-.04.234.35.35.4.117l.546-5.1c0-.272-.43-.272-.43-.04zm1.014 3.27l-.4 4.36c-.04.233.35.233.4 0l.4-4.36c0-.233-.4-.233-.4 0zm1.44 1.83l-.428 4.36c-.04.234.35.234.4 0l.428-4.36c.04-.272-.35-.272-.4 0zm1.637 1.987c.04 1.557-.195 3.153-.624 4.67-.078.234.312.35.4.117.428-1.557.662-3.153.623-4.75 0-.312-.4-.312-.4-.04zm1.597 1.8c.04.935-.04 1.908-.195 2.842-.04.234.35.35.4.117a14.98 14.98 0 0 0 .194-2.96c-.04-.233-.428-.233-.4 0zm-75.222-35.233l-.74 1.44c-.04.078-.04.195.078.273.078.04.234.04.273-.078l.74-1.44c.04-.077.04-.194-.078-.272-.078-.04-.234 0-.273.078zm2.065-1.402l-1.363 2.102c-.117.195.195.4.35.195l1.363-2.102c.117-.234-.234-.428-.35-.195zm1.48-.505c-.234.7-.623 1.363-1.17 1.83-.195.156.078.428.273.272.584-.545 1.052-1.245 1.285-2.024.04-.234-.35-.3-.4-.078zm2.65-1.714l-1.44 2.725c-.117.234.234.43.35.195l1.44-2.725c.078-.195-.234-.428-.35-.195zm2.142-1.286l-2.065 3.777c-.117.233.234.428.35.194l2.065-3.776c.117-.195-.234-.4-.35-.195zm2.142-.544l-1.44 3.076c-.117.234.234.428.35.195l1.44-3.076c.117-.234-.234-.428-.35-.195zm3.43-1.284l-1.987 3.426a.201.201 0 0 0 .351.194l1.987-3.426c.117-.194-.234-.428-.35-.194zm2.22-1.362l-1.714 4.516c-.078.234.273.35.4.117l1.714-4.516c.078-.273-.312-.35-.4-.117zm3.155-1.48l-2.142 4.438c-.117.233.234.428.35.194l2.142-4.438c.117-.233-.234-.428-.35-.194zm1.753-.584a29.04 29.04 0 0 0-1.48 4.01c-.078.233.312.35.4.116.4-1.362.857-2.647 1.44-3.932.078-.194-.234-.428-.35-.194zm2.376-1.206a35.63 35.63 0 0 1-1.48 3.543c-.117.233.234.428.35.194.584-1.207 1.1-2.414 1.52-3.66.078-.195-.3-.312-.4-.078zm2.57-2.687c-.624 1.635-1.1 3.3-1.364 5.06-.04.233.35.35.4.116a25.63 25.63 0 0 1 1.363-5.061c.078-.272-.3-.35-.4-.116zm2.337-1.673l-1.013 4.67c-.04.234.312.35.4.117l1.013-4.672c.04-.233-.35-.35-.4-.116zm2.182-1.792c-.507 1.596-.857 3.23-.974 4.944-.04.234.35.234.4 0 .117-1.635.468-3.27.974-4.828.04-.233-.312-.35-.4-.116zm2.336-1.635c-.234 1.596-.584 3.192-1.13 4.7-.078.234.312.35.4.117.506-1.518.896-3.114 1.13-4.7 0-.272-.35-.4-.4-.116zm1.754-1.48l-.585 3.62c-.038.233.35.35.4.117l.584-3.62c.04-.234-.35-.35-.4-.117zm2.026-2.336c-.233 1.13-.4 2.297-.428 3.504 0 .234.4.234.4 0 .038-1.13.155-2.258.428-3.387.04-.233-.312-.35-.4-.117zm2.025-1.05c-.04-.04-.04-.04 0 0s.04.04.04.078c0 0 0 .04.04.04v.04c0 .04.04.078.04.117v.155c0 .04 0 .078-.04.117v.04c0-.04 0 .04 0 0v.04c0 .04-.04.078-.078.117-.078.078 0 .233.078.272.117.04.195 0 .273-.077.117-.156.156-.35.156-.546s-.078-.4-.195-.583c-.078-.078-.195-.078-.273 0-.117 0-.117.077-.04.194zm33.93-13.08l-.273 1.8c0 .117.04.195.117.234s.234-.04.234-.117l.272-1.8c0-.117-.04-.195-.116-.233s-.195.038-.234.116zm.74 1.13a4.67 4.67 0 0 1-.351 2.297c-.04.117.04.195.117.234.117.04.195-.04.234-.117.312-.74.43-1.596.35-2.414.04-.233-.35-.272-.35 0zm1.208 1.05l-.624 2.687c-.04.233.312.35.4.116l.623-2.686c.04-.272-.312-.35-.4-.117zm.817 1.363a11.11 11.11 0 0 0-1.052 3.504c-.04.233.35.35.4.117.156-1.207.507-2.336 1.013-3.426.117-.234-.234-.43-.35-.195zm.74 2.258l-.896 3.815c-.04.234.3.35.4.117l.896-3.815c.04-.273-.3-.4-.4-.117zm1.13 2.842c-.7 1.246-1.168 2.608-1.44 4.05-.04.233.312.35.4.117a13.49 13.49 0 0 1 1.402-3.932c.117-.273-.234-.468-.35-.234z"/><path d="M154.496 227.877l-1.48 4.36c-.078.234.312.35.4.117l1.48-4.36c.078-.234-.312-.35-.4-.117zm.78 2.92c-.43 1.4-.974 2.803-1.637 4.127-.116.233.234.428.35.194.662-1.362 1.247-2.764 1.675-4.204.04-.273-.312-.35-.4-.117zm.894 2.14l-2.103 4.7c-.078.233.273.35.4.117l2.065-4.633c.117-.234-.234-.428-.35-.195zm.508 2.492c-.857 1.48-1.597 2.997-2.182 4.594-.078.233.273.35.4.116.584-1.557 1.285-3.036 2.142-4.477.117-.233-.194-.428-.35-.233zm.156 2.88c-.974 1.4-1.83 2.88-2.65 4.4-.117.233.234.428.35.195l2.65-4.4c.117-.194-.194-.4-.35-.194zm.272 2.765l-3.622 5.8c-.117.194.194.4.35.194l3.623-5.8c.117-.194-.234-.4-.35-.194zm-.428 4.125l-3.4 4.945c-.156.194.195.4.35.194l3.4-4.944c.117-.195-.233-.4-.35-.195zm-1.168 4.05a15.21 15.21 0 0 1-2.804 3.699c-.195.156.077.428.272.272 1.17-1.1 2.143-2.374 2.883-3.776.117-.195-.234-.4-.35-.195zm-.624 2.998l-3.428 4.36c-.156.195.117.467.273.273l3.428-4.36c.155-.195-.117-.468-.273-.273zm-1.13 3.465l-2.727 3.62c-.155.195.195.4.35.195l2.727-3.62c.156-.195-.195-.4-.35-.195zm-1.168 3.27l-2.377 3.076c-.155.194.117.467.273.272l2.376-3.075c.156-.195-.117-.468-.272-.273zm-2.766 4.32c-.273.273-.507.623-.546 1.013 0 .117.04.233.117.233.078.04.234-.04.234-.116s.04-.156.078-.273c0-.04 0-.04.04-.078v-.04c0-.04.04-.078.078-.117s.04-.077.078-.116l.04-.04v-.04a.48.48 0 0 1 .194-.195c.078-.078.078-.195 0-.272-.116-.04-.233-.04-.3.038zM89.1 202.455l-.74 1.635c-.04.078-.04.195.078.273.078.04.234.04.273-.078l.74-1.635c.04-.078.04-.195-.078-.273-.078-.04-.234 0-.273.078zm2.183-.35l-1.1 1.635c-.078.078 0 .233.078.272s.195 0 .273-.078l1.1-1.635c.078-.078 0-.233-.078-.272-.117-.04-.234 0-.273.078zm1.637-.585c-.74.778-1.247 1.752-1.52 2.803-.078.233.312.35.4.116.273-.973.74-1.868 1.44-2.608.156-.195-.117-.467-.312-.3zm2.843-.817a28.38 28.38 0 0 1-1.948 3.932.201.201 0 0 0 .351.195 26.03 26.03 0 0 0 1.987-4.049c.078-.195-.312-.3-.4-.078zm1.87-.233l-1.83 4.165c-.117.234.234.428.35.195l1.83-4.166c.078-.194-.273-.4-.35-.194zm2.143-.35l-2.415 5.412c-.117.233.234.428.35.194l2.415-5.4c.078-.234-.233-.428-.35-.195zm3.428-1.286l-3.04 7.242c-.078.233.273.35.4.116l3-7.163c.078-.234-.233-.428-.35-.195zm2.377-.428c-.078 1.48-.74 2.842-1.402 4.127s-1.286 2.608-1.48 4.05c-.04.233.35.233.4 0 .35-2.92 2.727-5.178 2.883-8.176 0-.272-.4-.272-.4 0zm3.505-.934l-4.246 10.472c-.078.234.273.35.4.117l4.247-10.472c.077-.234-.312-.35-.4-.117zm2.845-2.258l-.896 1.8c-.04.078-.04.194.078.272.078.04.233.04.272-.078l.896-1.8c.04-.077.04-.194-.078-.272-.078-.04-.233 0-.272.078zm10.7-5.374l-.78 1.986c-.04.117.04.194.117.233.117.04.195-.04.234-.116l.78-1.986c.04-.117-.04-.195-.117-.233s-.195.038-.234.116zm1.17-.544a6.96 6.96 0 0 1-.818 2.103.201.201 0 0 0 .351.194c.4-.662.7-1.4.857-2.18.038-.234-.35-.35-.4-.117zm1.558-1.284c-.195 1.13-.506 2.22-.935 3.27-.04.117.04.194.117.233.117.04.195-.04.234-.116a15.78 15.78 0 0 0 .935-3.271c.04-.233-.312-.35-.35-.116z"/><path d="M126.916 186.376l-1.207 4.166c-.078.234.3.35.4.117l1.208-4.166c.04-.233-.312-.35-.4-.117zm1.714-1.986c-.272 1.713-.662 3.387-1.168 5.06-.078.234.3.35.4.117a38.21 38.21 0 0 0 1.17-5.06c.04-.234-.35-.35-.4-.117zm1.987-1.8l-1.208 5.412c-.038.233.312.35.4.116l1.208-5.4c.04-.273-.35-.35-.4-.117zm1.793-1.946c-.234 1.752-.623 3.503-1.17 5.177-.078.234.312.35.4.117a30.65 30.65 0 0 0 1.169-5.294c.04-.273-.35-.234-.4 0zm1.362-1.44c-.077 1.596-.4 3.154-.857 4.633-.077.234.312.35.4.117a17.7 17.7 0 0 0 .896-4.75c0-.272-.4-.272-.43 0zm1.558-2.18l-.546 4.516c-.04.234.35.234.4 0l.545-4.516c.04-.273-.35-.273-.4 0zm.897-1.518l-.43 3.075c0 .117.04.195.117.234s.234-.04.234-.117l.428-3.076c0-.116-.04-.194-.117-.233s-.233.04-.233.117zm.7-1.05v1.1c0 .116.078.194.195.194s.194-.078.194-.194v-1.1c0-.117-.078-.195-.194-.195-.117.04-.195.117-.195.195zm45.616 162.03a55.88 55.88 0 0 1 5.26-2.725c.234-.117.04-.428-.195-.35l-5.26 2.725c-.234.117-.04.467.195.35zm2.57.545l4.48-2.608c.233-.117.04-.467-.195-.35l-4.48 2.6c-.234.155-.04.506.195.35zm2.688 0l6.272-3.776c.233-.117 0-.467-.195-.35l-6.272 3.777c-.195.155 0 .506.195.35zm2.767.35c-.195 0-.35.233-.234.428.156.233.428.078.623-.04l1.987-1.363 4.012-2.764c.195-.156 0-.467-.195-.35l-3.116 2.14-1.52 1.05-1.17.78c-.078.04-.117.078-.195.155-.04 0-.04.04-.077.04-.078.04-.078.117 0 .195-.04 0-.078.04-.156.04h.04c.272.04.272-.35 0-.3zm2.297 1.1c2.22-1.713 4.52-3.27 6.856-4.75.195-.117 0-.467-.195-.35a69.3 69.3 0 0 0-6.856 4.749c-.195.156 0 .506.195.35zm3.35-.116l6.233-4.322c.195-.155 0-.467-.195-.35l-6.233 4.32c-.233.156-.04.507.195.35zm3.078.116a54.26 54.26 0 0 1 7.518-5.45c.234-.117 0-.467-.195-.35-2.688 1.635-5.22 3.465-7.596 5.528-.195.156.078.428.273.273zm4.44-.895c-.04-.233-.35-.233-.467-.04-.156.234.117.43.35.4.155-.04.3-.195.467-.273l.545-.428 1.1-.818 4.324-3.3c.195-.156 0-.506-.195-.35l-3.194 2.413-1.558 1.168-.818.623c-.117.117-.273.195-.4.312-.078.04-.117.117-.195.155l-.077.078c-.117.04-.117.156-.04.273-.04 0-.117 0-.156-.04s-.078-.078-.078-.117v.04c.078.273.467.156.4-.078zm3.895-.662l8.064-6.112c.194-.156 0-.506-.195-.35l-8.064 6.112c-.195.156 0 .506.195.35zm4.598-1.518c-.234-.078-.468.117-.35.35.195.35.584-.04.74-.194l6.116-5.06c.195-.156-.078-.43-.273-.273l-4.713 3.893-.78.662c-.078.078-.818.623-.78.7 0 .04.04.078.04.156 0 .04-.04.04-.04.077h-.156c.234.156.428-.194.195-.3zm4.44-1.168c2.22-2.18 4.636-4.166 7.207-5.917.195-.156 0-.468-.195-.35-2.6 1.8-5.064 3.777-7.284 5.996-.195.194.078.467.272.272zm4.714-1.597a59.62 59.62 0 0 1 5.61-5.256c.195-.156-.077-.428-.272-.272a59.74 59.74 0 0 0-5.61 5.255c-.156.156.117.468.273.273zm4.714-2.374c1.597-1.674 3.272-3.27 5.064-4.7.194-.155-.078-.428-.273-.272a57.91 57.91 0 0 0-5.064 4.711c-.195.194.078.467.273.272zm3.7-1.713l4.753-4.672c.195-.194-.078-.467-.273-.272l-4.752 4.672c-.195.155.077.428.272.272zm3-1.363c1.324-1.675 2.804-3.232 4.363-4.7.194-.156-.078-.428-.273-.273a50.16 50.16 0 0 0-4.363 4.71c-.156.195.117.467.273.273zm4.402-3.114a16.25 16.25 0 0 1 3.895-3.582c.195-.116 0-.467-.195-.35-1.558 1.012-2.92 2.258-4.05 3.737-.156.195.195.4.35.195zm3.038-1.286c.468-1.012 1.13-1.907 1.987-2.686.195-.156-.078-.428-.273-.272-.857.778-1.558 1.713-2.026 2.764-.116.233.195.428.312.194z"/><path d="M242.223 320.806c.04-.117.117-.195.195-.312 0-.04.04-.04.04-.077l.038-.04a.54.54 0 0 0 .117-.156l.234-.234.117-.116c.04 0 .04-.04.078-.04l.04-.04c.078-.078.117-.156.078-.273-.04-.078-.195-.117-.273-.078-.428.312-.74.7-1.013 1.13-.04.078-.04.234.078.273.117.078.234.04.273-.04zm22.944-23.32l1.636-.467c.234-.078.156-.428-.117-.4l-1.636.467c-.233.078-.156.467.117.4zm.935-1.636l1.987-1.1c.233-.117.04-.467-.195-.35l-1.987 1.1c-.194.155 0 .506.195.35zm1.286-1.8l2.882-1.285c.234-.116.04-.428-.194-.35l-2.883 1.285c-.234.117-.04.467.195.35zm1.48-2.14l2.883-1.518c.233-.117.04-.468-.195-.35l-2.883 1.52c-.234.116-.04.467.195.35zm1.362-2.57c1.208-.506 2.416-1.1 3.506-1.8.195-.117 0-.468-.194-.35-1.1.7-2.22 1.285-3.428 1.752-.234.117-.117.467.116.4zm1.443-2.687c.974-.3 1.908-.74 2.766-1.285.194-.116 0-.467-.195-.35-.818.545-1.714.934-2.688 1.246-.195.078-.117.467.117.4zm.74-1.79c1.285-.467 2.493-1.168 3.506-2.063.195-.156-.078-.428-.273-.273a10.72 10.72 0 0 1-3.35 1.986c-.195.04-.117.428.117.35zm1.13-2.764c1.285-.545 2.493-1.246 3.583-2.024.195-.156 0-.467-.194-.35-1.13.818-2.338 1.48-3.584 2.025-.234.117 0 .467.195.35zm.457-2.063c1.558-.623 3.038-1.363 4.44-2.258.195-.117 0-.467-.195-.35a23.02 23.02 0 0 1-4.363 2.219c-.195.116-.117.506.117.4zm1.373-2.063l3.078-1.8c.234-.117.04-.467-.195-.35l-3.077 1.8c-.195.117 0 .467.194.35zm-.038-2.102c1.558-.74 3.116-1.557 4.557-2.452.195-.117 0-.468-.195-.35a36.78 36.78 0 0 1-4.557 2.453c-.234.117-.04.467.195.35zm.74-2.337l3.505-2.063c.234-.117.04-.467-.194-.35l-3.506 2.063c-.234.156-.04.506.195.35zm1.13-2.647l2.532-1.8c.195-.155 0-.467-.194-.35l-2.532 1.8a.2.2 0 0 0 .194.35zm.506-2.726l2.726-1.83c.195-.156 0-.467-.194-.35l-2.727 1.83c-.195.156 0 .468.195.35zm.74-2.724l1.987-1.285c.194-.156 0-.467-.195-.35l-1.987 1.284c-.195.156 0 .506.195.35zm0-1.83l2.92-1.44c.234-.116.04-.428-.194-.35l-2.922 1.44c-.234.116-.04.467.195.35zm.702-2.18l1.792-1.285c.078-.078.117-.156.078-.272-.04-.078-.195-.117-.273-.078l-1.792 1.284c-.078.078-.117.156-.078.273.078.117.195.156.273.078zm.35-2.726l1.285-.74c.078-.04.117-.195.078-.273s-.156-.116-.273-.077l-1.285.74c-.078.04-.117.195-.078.273.078.117.195.117.273.078zm-.156-1.83l1.44-.74c.078-.04.117-.194.078-.272s-.156-.117-.273-.078l-1.44.74c-.078.04-.117.195-.078.273.04.117.156.156.273.078z"/><path d="M280.282 254.7l.896-.7c.078-.078.078-.195 0-.273a.19.19 0 0 0-.273 0l-.896.7c-.078.078-.078.195 0 .273s.195.04.273 0zm.468 65.833c0 .545-.156 1.05-.4 1.52a.2.2 0 0 0 .35.194c.312-.545.468-1.13.468-1.713-.04-.272-.43-.272-.43 0z"/><path d="M281.256 321.623c0 .818-.273 1.597-.78 2.22-.077.078 0 .234.078.273.117.04.195 0 .273-.078.506-.7.78-1.557.818-2.414 0-.272-.39-.272-.39 0z"/><path d="M281.645 323.025l-1.363 3.776c-.078.234.272.35.4.117l1.364-3.776c.078-.234-.312-.35-.4-.117zm.74 1.83c-.428 1.284-.935 2.53-1.48 3.737-.117.234.234.428.35.195a35.59 35.59 0 0 0 1.519-3.815c.04-.273-.312-.4-.4-.117z"/><path d="M282.54 326.646l-1.48 4.516c-.078.233.312.35.4.116l1.48-4.516c.078-.233-.312-.35-.4-.116zm1.287 2.647l-1.87 4.127c-.117.233.233.428.35.194l1.87-4.126c.078-.195-.273-.4-.35-.195zm.39 2.257c-.506 1.362-1.13 2.647-1.87 3.893a.201.201 0 0 0 .351.195 22.31 22.31 0 0 0 1.909-4.01c.04-.195-.312-.312-.4-.078zm.857 1.792a22.29 22.29 0 0 1-1.441 4.671c-.117.234.234.43.35.195a22.36 22.36 0 0 0 1.481-4.75c0-.272-.35-.35-.4-.116zm.74 2.18a23.59 23.59 0 0 1-1.675 4.827c-.117.234.234.43.35.195.74-1.596 1.324-3.23 1.714-4.944.04-.234-.312-.312-.4-.078zm.817 2.648l-2.688 5.645c-.116.234.234.428.35.195l2.688-5.645c.117-.234-.234-.428-.35-.195zm-.3 3.698l-1.636 4.165c-.078.234.272.35.4.117l1.636-4.166c.078-.233-.272-.35-.4-.116zm.7 2.142a35.35 35.35 0 0 1-2.532 5.178.2.2 0 0 0 .35.194 44.25 44.25 0 0 0 2.57-5.294c.078-.195-.3-.312-.4-.078z"/><path d="M287.8 347.435l-3.116 5.606a.2.2 0 0 0 .35.195l3.117-5.607c.117-.194-.195-.4-.35-.194zm-.312 3.815c-.935 1.674-1.908 3.27-3.038 4.828-.156.194.195.4.35.194l3.038-4.827c.117-.195-.234-.4-.35-.195zm-.388 3.465c-.896 1.908-1.948 3.698-3.117 5.4-.155.195.195.4.35.195 1.208-1.713 2.26-3.504 3.116-5.4.117-.234-.233-.43-.35-.195zm-.4 3.582l-2.376 3.62c-.156.195.195.4.35.195l2.376-3.62c.117-.194-.234-.4-.35-.194zm-.74 2.53l-1.1 2.375c-.038.078-.04.195.078.272.078.04.234.04.273-.077l1.1-2.375c.04-.078.04-.195-.078-.273-.078-.04-.234 0-.273.078zm-39.9-29.665l-.428 1.8c-.078.234.3.35.4.117l.43-1.8c.078-.233-.312-.35-.4-.116zm.35 1.518c-.04.623-.234 1.207-.584 1.674-.078.078 0 .233.078.272s.194 0 .272-.077c.4-.545.623-1.207.623-1.87.04-.273-.35-.273-.4 0z"/><path d="M246.47 334.237c-.195.934-.545 1.87-1.1 2.647-.156.195.195.4.35.195.545-.817.935-1.752 1.13-2.764 0-.195-.35-.312-.4-.078zm.7 1.947c-.7 1.05-1.208 2.22-1.52 3.465-.078.233.3.35.4.116a11.93 11.93 0 0 1 1.481-3.387c.155-.194-.195-.4-.35-.194zm.312 1.986l-1.56 3.66c-.077.233.234.428.35.194l1.558-3.66c.117-.234-.233-.428-.35-.195zm.935 2.257c-.468 1.285-1.1 2.57-1.792 3.738a.2.2 0 0 0 .35.194 19.33 19.33 0 0 0 1.83-3.854c.078-.234-.273-.3-.4-.078zm.428 2.648c.234.233 0 .66-.117.895l-.623 1.1-1.285 2.258a.2.2 0 0 0 .35.195l1.48-2.648c.312-.506 1.052-1.518.468-2.063-.156-.156-.43.117-.273.273zm1.17 2.452a15.67 15.67 0 0 1-2.337 3.97c-.156.195.116.467.272.273 1.013-1.246 1.83-2.648 2.454-4.127.078-.234-.3-.35-.4-.117zm.39 2.336a7.45 7.45 0 0 1-2.142 3.854c-.195.156.078.467.272.273 1.13-1.1 1.9-2.492 2.22-4 .078-.234-.312-.35-.35-.117zm.817 2.764c.273.156-.116.74-.194.934l-1.987 3.855c-.117.233.234.428.35.194l1.597-3.075c.233-.428.506-.896.662-1.363.117-.3.117-.7-.195-.895-.234-.117-.428.194-.234.35zm1.443 2.686c-.74 1.908-1.753 3.7-2.922 5.373-.156.195.195.4.35.195 1.207-1.713 2.22-3.543 2.96-5.5.078-.233-.3-.3-.4-.078zm.78 3.932c-.74 1.48-1.597 2.92-2.65 4.244-.156.195.117.467.273.272 1.05-1.362 1.947-2.803 2.687-4.32.117-.195-.194-.428-.3-.195zm.662 2.22c-.584 1.362-1.363 2.608-2.376 3.698-.156.195.117.467.272.272a12.99 12.99 0 0 0 2.455-3.854c.117-.272-.273-.35-.35-.116zm-.194 4.205a23.27 23.27 0 0 0-2.727 3.699.201.201 0 0 0 .351.194c.78-1.285 1.675-2.5 2.688-3.58.117-.195-.156-.507-.312-.312zm-.196 2.763l-2.376 2.53c-.156.194.117.467.273.272l2.376-2.53c.195-.195-.078-.467-.273-.273zm-.856 2.18l-2.26 2.648c-.156.194.117.467.273.272l2.26-2.647c.156-.195-.117-.467-.272-.273zm-.935 2.257c-.702.545-1.286 1.285-1.676 2.103-.038.077-.038.194.078.272.078.04.234.04.273-.078.312-.778.857-1.44 1.52-1.946.078-.078.117-.156.078-.273-.04-.078-.155-.117-.272-.078zm-.195 1.56l-1.636 2.18c-.078.078 0 .233.078.272.117.04.194 0 .272-.078l1.636-2.18c.078-.078 0-.233-.077-.272-.117-.04-.195 0-.273.078zm20.724-130.732l.74-.35c.078-.04.117-.194.078-.272-.078-.078-.156-.117-.273-.078l-.74.35c-.078.04-.117.195-.078.273.078.078.195.117.273.078zm.584-.974l1.13-.856c.078-.078.078-.195 0-.273s-.195-.078-.273 0l-1.13.857c-.077.078-.077.195 0 .272s.195.078.273 0zm.7-1.907l1.286-.896c.078-.078.117-.155.078-.272-.04-.078-.195-.117-.273-.078l-1.285.895c-.078.078-.117.156-.078.273.078.078.194.156.272.078zm1.13-1.674l1.1-.896c.078-.078.078-.194 0-.272s-.195-.078-.273 0l-1.1.895c-.078.078-.078.195 0 .273s.195.078.273 0zm.857-1.947l1.1-.545c.078-.04.117-.195.078-.272-.078-.078-.156-.117-.273-.078l-1.1.545c-.078.04-.117.194-.078.272.078.078.195.117.273.078zm.974-1.986c.467-.04.935-.234 1.208-.623a.19.19 0 0 0 0-.273c-.078-.078-.195-.078-.273 0s-.117.156-.195.195c0 0-.04 0-.04.04-.04 0-.04.04-.078.04-.04.04-.078.04-.117.078-.04 0-.04.04-.078.04h-.04c-.038 0-.077.038-.155.038-.04 0-.078.04-.156.04h-.117c-.117 0-.195.078-.195.195.078.156.156.234.234.234zm.818-1.128l1.1-.545c.078-.04.117-.195.078-.273-.078-.078-.156-.117-.273-.078l-1.1.545c-.078.04-.117.195-.078.273.078.078.195.117.273.078zm1.052-1.986c.428-.156.78-.428 1.012-.817.078-.078 0-.234-.077-.273-.117-.04-.195 0-.273.078 0 0 0 .04-.04.04l-.04.04c-.04.04-.078.078-.078.117-.078.077-.156.116-.195.194.04-.04-.04 0 0 0 0 0-.04 0-.04.04-.04 0-.04.04-.078.04-.038.04-.077.04-.116.078s-.078.04-.117.078c-.04 0-.04.04-.078.04h-.078c-.078.04-.156.117-.117.233.117.078.234.156.312.117zm1.1-2.53c.468-.117.896-.43 1.208-.818.078-.078 0-.233-.078-.272-.117-.04-.195 0-.273.077 0 0 0 .04-.038.04 0 .04-.04.04-.04.04l-.273.273c-.04 0-.04.04-.078.04-.078.078-.195.117-.273.155h-.04c.04 0-.04.04 0 0-.04 0-.04 0-.078.04-.04 0-.116.04-.155.04-.117.04-.156.156-.117.234.04.156.156.195.233.156zm1.17-1.674l.896-.74c.078-.078.078-.195 0-.273a.19.19 0 0 0-.273 0l-.896.74c-.078.078-.078.195 0 .273a.19.19 0 0 0 .273 0zm.507-1.947l.74-.35c.078-.04.117-.195.078-.273-.078-.078-.156-.117-.273-.078l-.74.35c-.078.04-.117.194-.078.272.078.117.195.117.273.078zm.896-1.675l.934-.7c.078-.078.117-.155.078-.272-.04-.078-.194-.117-.272-.078l-.935.7c-.078.077-.117.155-.078.272.078.117.195.156.273.078zm.934-2.14l.896-.545c.078-.04.117-.195.078-.273s-.156-.117-.272-.078l-.896.545c-.078.04-.117.195-.078.273.078.117.195.156.272.078zm.4-1.752l1.208-.78c.078-.04.116-.155.078-.272-.04-.078-.156-.117-.273-.078l-1.208.78c-.078.038-.117.155-.078.272.078.078.195.156.273.078zm1.13-2.063l1.1-.896c.078-.078.078-.195 0-.272s-.194-.078-.272 0l-1.1.895c-.078.078-.078.195 0 .273s.156.077.273 0zm.428-2.142c.585-.155 1.13-.506 1.52-.934.078-.078.078-.195 0-.273s-.194-.077-.272 0c-.35.43-.818.7-1.364.857-.117.04-.155.156-.117.234 0 .077.117.155.234.116zm1.48-2.18l.546-.35c.04-.04.078-.078.078-.117s0-.117-.04-.156c-.04-.078-.195-.116-.273-.078l-.545.35c-.04.04-.078.078-.078.117s0 .116.04.155c.078.078.195.117.272.078zm15.388-15.728l-1.286 1.05c-.078.078-.078.195 0 .273s.195.078.273 0l1.285-1.052c.078-.077.078-.194 0-.272s-.195-.04-.272 0zm.7.817c-1.013.546-1.948 1.168-2.883 1.87-.078.078-.117.156-.078.273.04.078.195.117.273.078.896-.7 1.87-1.324 2.883-1.87.233-.117.04-.467-.195-.35zm.585 1.168c-1.1.78-2.22 1.44-3.428 1.986-.234.117-.04.428.195.35 1.207-.545 2.376-1.207 3.428-1.985.195-.156 0-.506-.195-.35zm-.39 1.713l-3.974 1.87c-.234.117-.04.428.195.35l3.973-1.87c.234-.117.04-.428-.194-.35zm-.35 1.52a27.87 27.87 0 0 0-4.363 2.375c-.195.155 0 .467.195.35 1.363-.934 2.844-1.713 4.363-2.375.233-.117.04-.428-.195-.35zm.04 1.908l-6.038 2.842c-.234.117-.04.43.195.35l6.038-2.842c.233-.117.04-.467-.195-.35zm-2.064 2.024l-5.414 2.414c-.234.116-.04.428.194.35l5.415-2.414c.234-.117.04-.467-.195-.35zm-2.883 167.092c-.195.507-.468.935-.78 1.363-.078.078 0 .234.077.273.117.04.195 0 .273-.078.35-.467.584-.935.818-1.48.04-.116-.04-.194-.117-.233-.156 0-.233.04-.272.155zm1.1.468c-.272.467-.662.856-1.1 1.206-.078.078-.078.195 0 .273s.194.078.272 0a3.96 3.96 0 0 0 1.13-1.285c.04-.078.04-.233-.078-.272-.078-.04-.195 0-.234.078zm.703.546c-.468.778-1.013 1.48-1.636 2.102-.195.195.116.467.272.273a11.2 11.2 0 0 0 1.675-2.181c.156-.194-.195-.4-.3-.194zm.154 1.478c-.194.662-.545 1.246-1.05 1.713-.195.156.077.467.272.273.546-.507.935-1.168 1.13-1.908.078-.195-.312-.312-.35-.078zm.896 1.052l-1.753 2.764c-.116.195.195.4.35.195l1.753-2.764c.117-.195-.195-.4-.35-.195zm.4 1.45c-.623 1.13-1.402 2.14-2.298 3.036-.195.195.077.468.272.273.935-.934 1.753-1.986 2.376-3.115.078-.194-.233-.4-.35-.194z"/><path d="M300.8 379.32l-2.337 3.27c-.156.194.194.4.35.194l2.338-3.27c.155-.195-.195-.4-.35-.195zm.702 1.4l-2.922 3.815c-.155.195.195.4.35.195l2.922-3.815c.156-.195-.195-.4-.35-.195zm.35 2.103c-1.208 1.635-2.532 3.232-3.896 4.75-.155.195.117.467.273.272l3.973-4.827c.117-.195-.194-.4-.35-.195z"/><path d="M302.252 385.042l-4.285 4.75c-.155.195.117.467.273.272l4.285-4.75c.195-.195-.078-.467-.273-.273zM301.98 388l-5.18 5.528c-.156.195.116.467.272.273l5.18-5.528c.195-.195-.117-.468-.272-.273zm-.74 3.038l-4.713 4.905c-.195.156.078.467.273.273l4.713-4.906c.156-.156-.117-.467-.273-.272zm-1.325 3.232l-4.324 4.75c-.156.194.117.467.273.272l4.324-4.75c.156-.195-.117-.468-.273-.273zm-2.142 3.503l-1.948 2.22c-.156.195.117.467.272.272l1.948-2.22c.195-.194-.078-.467-.272-.272zm-39.463-10.98l-.974 1.752c-.117.234.234.428.35.195l.974-1.752c.078-.234-.234-.428-.35-.195zm.118 1.44a4.76 4.76 0 0 1-1.091 2.219c-.156.194.117.467.273.272.623-.662 1.013-1.518 1.208-2.413.038-.195-.35-.312-.4-.078zm.43 1.285l-1.87 3.037c-.117.195.194.428.35.195l1.87-3.037c.117-.234-.234-.428-.35-.195zm.116 2.14l-2.532 3.62c-.155.195.195.4.35.195l2.532-3.62a.201.201 0 0 0-.351-.194zm.195 1.986l-3.934 5.178c-.156.195.195.4.35.195l3.935-5.178c.156-.195-.195-.4-.35-.195zm-.272 2.92l-4.325 4.944c-.155.195.117.467.273.273 1.52-1.558 2.96-3.232 4.324-4.945.156-.194-.117-.467-.272-.272zm-.586 2.686l-5.298 5.567c-.194.156.078.43.273.273 1.87-1.752 3.623-3.62 5.298-5.567.156-.195-.117-.467-.273-.273zm-1.206 2.998l-5.65 5.956c-.195.156.078.468.273.273l5.648-5.957c.156-.194-.117-.467-.272-.272zm-1.52 3.348l-5.26 5.4c-.194.195.078.468.273.273l5.26-5.4c.195-.195-.078-.468-.273-.273zm-4.012 5.217l-.896.895c-.078.078-.078.195 0 .273s.195.078.273 0l.896-.896c.078-.078.078-.194 0-.272s-.195-.078-.273 0z"/></g><defs><linearGradient id="A" x1="192.325" y1=".913" x2="192.325" y2="215.781" gradientUnits="userSpaceOnUse"><stop offset=".468" stop-color="#353535" stop-opacity="0"/><stop offset=".802" stop-color="#353535"/></linearGradient><path id="B" d="M255.014 306.792c-2.133-.275-4.217-1.28-6.16-2.94-1.09 1.997-3.272 6.917-3.272 10.616v7.214c2.805-2.867 8.62-9.86 9.433-14.9z"/><path id="C" d="M248.853 303.852c1.394-1.746 2.326-2.6 3.82-3.39-1.65-1.753-4.308-2.836-8.392-2.187 1.387 2.3 2.93 4.174 4.57 5.578z"/><path id="D" d="M255.014 306.792c.617-.863 1.85-3.7 1.85-8.14l-.047.02-4.143 1.79c1.684 1.79 2.317 4.277 2.34 6.33z"/><path id="E" d="M248.853 303.852c1.944 1.66 4.028 2.665 6.16 2.94-.023-2.054-.656-4.542-2.34-6.33-1.495.792-2.427 1.645-3.82 3.39z"/></defs></svg>