<svg xmlns="http://www.w3.org/2000/svg" width="101" height="122" fill="none"><path d="M6.375 38.125c.75-2.5 9-6.25 16.625-7.75l10.75-1.75 10 13.75L38 52.5c-.542.292-2.15.975-4.25 1.375s-5.542-.75-7-1.375L20 50.625a8.68 8.68 0 0 1-4.75 0c-2-.6-6.75-5.75-8.875-8.25-.25-.583-.6-2.25 0-4.25z" fill="#ffcd00"/><path opacity=".2" fill-rule="evenodd" d="M6.375 38.125c-.6 2-.25 3.667 0 4.25 2.125 2.5 6.875 7.65 8.875 8.25a8.68 8.68 0 0 0 4.75 0l6.75 1.875c1.458.625 4.9 1.775 7 1.375S37.458 52.792 38 52.5l2.875-5.062c-.958.354-3.725 1.163-7.125 1.563-4.25.5-12.875-2.25-12.75-3.5.1-1 4.708-3.417 7-4.5-.417-.167-2-.4-5 0-1.515.202-2.438 1.138-3.306 2.018-1.28 1.298-2.438 2.472-5.194.982-3.7-2-1.042-5.75.75-7.375-.875.5-2.95 1.825-4.25 3.125s-3.625-.542-4.625-1.625z" fill="#000"/><path d="M42.875 55.125c2.8-.3 6.333-3.458 7.75-5l2.5 3c.9 1.2 2.458 1 3.125.75v2.5c0 1 1.667 1.25 2.5 1.25l3 9.5c.8 2.2 2.75 2.25 3.625 2 .208 1.583 1.275 5.8 3.875 10S78.167 86.46 81 87.5c1.792-1.958 6.25-6.975 9.75-11.375 4.375-5.5 6.5-14.625 6.625-19.75S93.5 50.125 93.25 48.5s-.75-3.125-1.875-4.875S73.125 26.5 71.75 25.75c-1.1-.6-2.125.25-2.5.75-.333-.583-1.2-2.05-2-3.25s-4-2.25-5.5-2.625c-.708-.417-2.8-1.3-5.5-1.5s-6.208 1.417-7.625 2.25l-1.5-.75c-.792.083-2.75.35-4.25.75s-4.708 2.417-6.125 3.375c-1.417-.208-4.725-.5-6.625 0s-6.125 2.875-8 4v1.375l8 3c5.375 2 9.125 8 10 10.5s-.875 6.5-.875 8c0 1.2-1.667 1.5-2.5 1.5.875.792 3.325 2.3 6.125 2z" fill="#effafe"/><path opacity=".2" fill-rule="evenodd" d="M49.625 40c-1.542 2.25-5.678 7.237-9.9 9.184l-.064.256c-.227.907-.42 1.685-.42 2.185 0 1.2-1.667 1.5-2.5 1.5.875.792 3.325 2.3 6.125 2s6.333-3.458 7.75-5c.458.5 1.6 1.8 2.5 3s2.458 1 3.125.75v2.5c0 1 1.667 1.25 2.5 1.25.667 2.25 2.2 7.3 3 9.5s2.75 2.25 3.625 2c.208 1.583 1.275 5.8 3.875 10S78.167 86.458 81 87.5c1.437-1.57 4.59-5.11 7.587-8.718-2.53-1.802-8.312-5.582-11.212-6.282s-4.958-6.792-5.625-9.75l2.5-2.25c-1.667-1.375-5.775-4.375-8.875-5.375S58 47.042 56.25 43.625c0 .375-.525.9-2.625 0s-3.542-2.792-4-3.625z" fill="#000"/><path d="M68.75 34.375c3.4 0 5.083 3.917 5.5 5.875H78c1.875 0 2.875 4.375 3.125 6.875s-.75 4-2.375 5-8.875 3.875-12.125 3.75c-2.6-.1-5.833-1.292-7.125-1.875-.292-2.708-.7-9 0-12.5.875-4.375 5-7.125 9.25-7.125z" fill="#fe6869"/><path d="M9.875 42.375l.875 2.5c1.6 0 2.667 2.333 3 3.5l-2 4-3.75.75.75-4.75h-4c-.042-.5.05-1.9.75-3.5s1.958-2.333 2.5-2.5h1.875zm10.75 10c-.1-1.9 2.292-4.042 3.5-4.875 2.625 0 2.75 3.5 3.125 4.875.3 1.1-1.208 3.042-2 3.875h-4.625c.042-.5.1-1.975 0-3.875z" fill="#4b5359"/><g fill="#181d23"><path d="M22.01 30.364c.95.458 2.006.704 2.99 1.057l2.85 1.127c1.83.88 3.624 1.972 5.208 3.24 1.618 1.303 3.096 2.783 4.398 4.403.704.88 1.337 1.867 1.69 2.923.387 1.127.387 2.325.282 3.522-.176 1.796-.528 5.74-3.167 5.495-.352-.035-.67.352-.67.67 0 .387.317.634.67.67 1.16.106 2.252-.528 2.92-1.41.74-.95 1.056-2.15 1.23-3.346.422-2.642.563-5.248-.81-7.643-1.126-1.972-2.78-3.734-4.504-5.213-1.724-1.515-3.624-2.818-5.665-3.874-1.126-.6-2.287-1.092-3.483-1.515-1.16-.423-2.533-.88-3.8-.845-.28.035-.493.564-.14.74z"/><path d="M35.978 52.166c-.74.282-1.407.6-2.182.775s-1.583.2-2.393.176c-1.583-.07-3.06-.67-4.328-1.62-.563-.423-1.337.564-.774.986 1.443 1.162 3.202 1.76 5.032 1.867 1.7.07 3.73-.387 4.996-1.55.282-.282 0-.775-.352-.634zm-11.893-5.283c-.8.388-1.443 1.162-1.97 1.902a10.47 10.47 0 0 0-1.267 2.395c-.598 1.655-.915 3.698-.422 5.424.176.6 1.196.493 1.126-.14-.07-.845-.176-1.656-.14-2.5a9.42 9.42 0 0 1 .528-2.395c.28-.775.668-1.48 1.1-2.15.457-.704 1.1-1.268 1.583-1.972.282-.352-.2-.705-.528-.564z"/><path d="M20.883 56.7c.81.21 1.62.21 2.463.106.81-.106 1.654-.282 2.358-.704.422-.247.14-.986-.352-.8-.352.106-.704.247-1.056.387-.352.106-.74.21-1.126.247-.74.106-1.478.106-2.217.07-.422-.07-.493.6-.07.705z"/><path d="M25.704 55.935c.633-.775 1.09-1.585 1.478-2.5a8.46 8.46 0 0 0 .422-1.338c.106-.493.317-1.092.106-1.55-.14-.352-.633-.247-.81 0-.14.21-.14.458-.176.704l-.106.67c-.07.423-.21.845-.317 1.268-.246.845-.633 1.655-1.056 2.43-.21.21.21.563.457.317z"/><path d="M27.146 51.286c.176-.845-.07-1.76-.493-2.5-.422-.775-1.126-1.48-1.97-1.726-.598-.176-.95.704-.422.986a3.14 3.14 0 0 1 .457.282 2.11 2.11 0 0 1 .422.282c.07.072.246.2.352.317.14.14.2.246.317.352.387.564.598 1.198.704 1.902.035.176.106.317.282.317.14.07.317-.035.352-.2zM10.398 44.98c-.563.423-.95 1.057-1.302 1.62-.387.634-.67 1.338-.915 2.008-.457 1.338-.8 2.923-.633 4.332.07.6.95.387.985-.14l.14-2.008c.106-.634.246-1.268.422-1.867s.457-1.198.74-1.76c.317-.6.74-1.162.985-1.76.14-.2-.106-.634-.422-.423z"/><path d="M7.76 53.117c.67.14 1.337.14 2.04.07.704-.106 1.372-.282 2.04-.6.422-.21.14-.916-.317-.775-1.196.458-2.393.74-3.695.704-.317.035-.422.528-.07.6z"/><path d="M12.05 52.87c.493-.634.95-1.303 1.302-2.043s.704-1.515.845-2.29c.035-.247-.07-.528-.352-.6-.246-.07-.528.07-.598.352l-.67 2.184c-.282.704-.633 1.374-1.056 2.008-.21.282.28.67.528.387z"/><path d="M14.057 48.6c-.07-.775-.352-1.48-.774-2.15s-.95-1.233-1.62-1.655c-.246-.176-.633-.07-.774.2s-.07.6.2.775c.07.035.14.106.2.14 0 0 .105.106.07.035-.035-.035-.035-.035 0 0s.106.07.14.106.07.035.07.07c.14.106-.035-.035.035.035s.14.106.2.176c.246.2.493.458.668.74-.035-.035 0 0 0 .035.035.035.035.07.07.106.035.07.105.14.14.2.07.14.176.282.246.423l.387.88c.07.176.2.282.387.246.14-.035.317-.176.317-.387zm-6.37-6.8c-.985.704-1.76 1.656-2.393 2.677a9.75 9.75 0 0 0-.774 1.62l-.28.845c-.07.317-.176.634-.176.95 0 .564.74.6.95.14.106-.247.14-.564.2-.8l.246-.775c.176-.528.422-1.02.67-1.515.528-.986 1.232-1.832 2.006-2.642.2-.247-.14-.74-.457-.493z"/><path d="M4.45 48.68c1.126.247 2.357.106 3.483-.14.246-.035.387-.352.317-.564a.45.45 0 0 0-.563-.317l-1.548.282c-.528.07-1.1.07-1.62.106-.14 0-.282.106-.317.282 0 .176.07.352.246.352zm5.666-2.783c.035-.106.106-.2.176-.317a1.27 1.27 0 0 1 .14-.317c.07-.2.14-.423.176-.67.07-.458.105-.95.07-1.4-.035-.282-.246-.493-.528-.458-.317.035-.422.317-.387.6a2.46 2.46 0 0 1 .07.564c.035.2.035.423.035.634v1.233c0 .106 0 .176.106.2-.035.035.106 0 .14-.07z"/><path d="M10.257 43.008c0-.035 0-.035 0 0s0 .07.035.14c0 .07 0-.106-.035-.14 0-.035 0-.106-.035-.14-.035-.07-.106-.14-.14-.176-.07-.106-.176-.176-.246-.282-.176-.176-.422-.352-.633-.493a3.59 3.59 0 0 0-1.478-.564c-.14-.035-.28-.035-.422.07a.64.64 0 0 0-.246.352c-.07.282.07.634.387.705.246.035.457.07.67.14l.317.106c.07.035.106.035.176.07.035 0 .035.035.07.035-.106-.035.07.035 0 0l.598.317c.106.07.2.106.28.176l.07.07c.035.035.106.07.176.106.035 0 .106.035.14 0h0c-.035 0-.106-.035-.14-.035 0 0 .035 0 .035.035.282.07.563-.246.422-.493zm11.048 8.736c-.528-.95-.88-1.902-.844-2.994.07-1.092.422-2.184 1.056-3.064 1.443-2.078 3.976-3.17 6.193-4.12.704-.317.106-1.4-.633-1.057-2.533 1.162-5.348 2.395-6.826 4.896-1.16 1.937-1.654 5.4.633 6.798.246.106.563-.2.422-.458z"/><path d="M19.863 50.757c-.457-.07-.915.035-1.372.035s-.915-.035-1.372-.14c-.88-.2-1.724-.6-2.393-1.198-.246-.2-.598-.247-.844 0-.2.2-.246.634 0 .845.845.704 1.83 1.233 2.92 1.444.528.106 1.1.14 1.618.106s1.16-.14 1.583-.493c.2-.14.14-.564-.14-.6zm-9.5-6.093c-.317-2.642 1.302-4.86 3.237-6.446 2.1-1.726 4.645-2.924 7.248-3.628.704-.176.387-1.233-.282-1.092-2.92.74-5.7 2.113-7.952 4.086-1.97 1.7-3.976 4.508-2.815 7.22.14.282.598.14.563-.14zm-3.412-2.5c-.246-.564-.457-1.092-.422-1.726s.246-1.233.598-1.76c.844-1.233 2.252-1.973 3.483-2.712 2.7-1.62 5.5-3.1 8.48-4.086 1.654-.528 3.378-.916 5.137-1.02.704-.035.704-1.162 0-1.092-3.483.247-6.756 1.374-9.887 2.888-1.583.775-3.096 1.62-4.574 2.536-1.372.8-2.815 1.7-3.695 3.064-.74 1.198-1.1 3.452.317 4.332.28.14.67-.106.563-.423z"/><path d="M22.713 30.258v-.07c0-.035 0-.035 0 0-.035.035-.07.106-.106.14.176-.14.14-.387.176-.6v.14c.035-.14.035-.282.035-.423v.14a2.69 2.69 0 0 1 .211-.704c-.035.035-.035.07-.07.14.035-.07.07-.106.07-.176.14-.247.07-.6-.176-.74-.14-.07-.282-.106-.422-.07s-.246.106-.317.247c-.07.176-.14.317-.176.493a2.72 2.72 0 0 0-.07.528c0 .176 0 .352.035.528 0 .07.035.14.035.176.035.106.07.176.14.247s.14.106.21.14c-.035-.035-.106-.07-.14-.106v.035c-.035-.035-.07-.106-.106-.14 0 .035.035.07.035.106.07.14.176.247.352.247.176.035.317-.106.282-.282z"/><path d="M22.29 28.884c2.217-1.303 4.47-2.43 6.932-3.205 2.393-.775 4.997-1.303 7.495-1.233.704.035.67-1.127 0-1.057-2.674.21-5.278.528-7.81 1.374-2.498.8-4.89 2.008-6.932 3.663-.282.21.035.634.317.458z"/><path d="M35.45 24.516c3.483 1.726 6.685 4.015 9.22 7.01 2.71 3.17 4.54 7.045 5.383 11.13.493 2.395.563 4.755.422 7.185-.035.74 1.056.704 1.126 0 .457-4.438-.493-9.052-2.322-13.068-1.724-3.77-4.398-7.08-7.67-9.616-1.794-1.374-3.765-2.5-5.876-3.276-.387-.21-.67.458-.28.634z"/><path d="M50.545 49.5l-2.92 2.782c-.985.775-2.11 1.48-3.308 1.867-2.217.775-4.996.67-6.897-.88-.282-.21-.633-.247-.88 0-.21.21-.282.67 0 .88 4.856 3.77 11.788.564 14.673-4.156.246-.387-.352-.8-.67-.493z"/><path d="M50.72 50.58c.985 1.268 2.076 2.43 3.202 3.558.457.458 1.02.95 1.724.916.67-.035 1.302-.528 1.302-1.233 0-.282-.246-.528-.528-.528-.317 0-.493.247-.528.528 0-.07-.07.07-.035.035-.035.035-.106.07-.176.106-.14.035-.28 0-.422-.106-.493-.282-.845-.74-1.267-1.127l-2.885-2.536c-.28-.21-.598.106-.387.387z"/><path d="M55.682 54.49c.07 1.127.528 2.43 1.548 2.994 1.23.704 2.71.035 3.87-.493.563-.282.07-1.162-.493-.88-.844.458-1.97 1.022-2.92.564-.845-.423-1.02-1.48-1.337-2.254-.14-.317-.704-.317-.67.07z"/><path d="M58.357 57.73c.106 1.655.563 3.276 1.126 4.825.563 1.585 1.302 3.1 2.146 4.508.704 1.233 1.654 2.5 3.132 2.712 1.583.246 3.096-.67 4.363-1.515.598-.388.035-1.374-.563-.95-1.056.74-2.428 1.69-3.8 1.374-1.302-.317-2.006-1.726-2.604-2.783-.74-1.303-1.337-2.642-1.865-4.015-.528-1.41-.915-2.853-1.337-4.262-.105-.282-.633-.247-.598.106z"/><path d="M65.218 69.672c-.035.845.21 1.726.422 2.536l.74 2.43a21.54 21.54 0 0 0 2.322 4.579c1.794 2.712 4.258 5.037 7.178 6.55a16.63 16.63 0 0 0 5.137 1.691c.317.035.598-.07.704-.388.07-.282-.106-.67-.387-.704-6.44-.916-11.295-5.847-13.758-11.66-.352-.845-.67-1.69-.95-2.536-.282-.88-.457-1.796-.844-2.642-.14-.282-.563-.14-.563.14z"/><path d="M80.982 87.424c2.322-1.656 4.328-3.698 6.193-5.882s3.52-4.544 4.996-7.01 2.71-5.072 3.765-7.75c1.126-2.96 2.146-6.093 2.11-9.264-.035-3.135-1.23-6.27-3.835-8.136-.704-.493-1.372.67-.67 1.162 2.076 1.48 3.096 4.086 3.237 6.587.14 3.064-.81 6.058-1.865 8.876-1.865 5.107-4.61 9.933-7.987 14.16-1.935 2.43-4.117 4.58-6.263 6.833-.246.176.035.6.317.423z"/><path d="M79.96 70.517c2.92-2.783 5.63-5.777 8.093-8.982 2.322-3.03 4.82-6.34 5.524-10.18.317-1.796.352-3.698-.28-5.46-.633-1.796-1.9-3.205-3.237-4.473-3.132-2.96-6.37-5.776-9.535-8.665l-5.383-4.86c-1.443-1.303-3.413-3.24-5.595-2.43-.774.282-.458 1.514.352 1.268 1.724-.564 3.343 1.268 4.504 2.3l4.54 4.086 9.22 8.277c1.302 1.162 2.674 2.36 3.554 3.9.845 1.515 1.16 3.31 1.02 5.037-.317 3.698-2.533 6.94-4.645 9.898-2.533 3.522-5.348 6.868-8.34 10.038-.21.14.035.387.21.247z"/><path d="M83.972 37.443c-.67 3.874-2.1 7.538-3.765 11.095C78.6 52 76.935 55.477 75 58.788c-1.1 1.832-2.287 3.593-3.695 5.178-.422.458.28 1.162.704.704 2.534-2.96 4.47-6.305 6.193-9.757 1.794-3.558 3.624-7.115 4.9-10.884.704-2.113 1.232-4.262 1.407-6.48 0-.317-.493-.387-.528-.106zm-12.385 44.3c3.483-2.113 5.42-5.812 7.002-9.44 1.865-4.262 3.695-8.665 4.9-13.173.704-2.606 1.16-5.248 1.232-7.96 0-.423-.67-.423-.67 0-.2 4.685-1.478 9.228-3.096 13.596-.8 2.184-1.7 4.297-2.57 6.446-.774 1.832-1.548 3.628-2.57 5.32-1.126 1.867-2.57 3.593-4.433 4.8-.246.176-.035.564.2.423zm-.563-55.475c-.035 3.522.176 7.045.2 10.567s0 7.045-.106 10.567l-.246 5.917c-.035.493.704.458.74 0 .317-3.557.422-7.08.493-10.637.035-3.522.035-7.045-.176-10.567-.106-1.972-.246-3.945-.528-5.882-.07-.2-.387-.176-.387.035zm-6.79 42.795c.8-.88 1.407-1.972 1.9-3.064a18.8 18.8 0 0 0 1.16-3.452c.07-.387-.493-.528-.563-.176-.246 1.162-.598 2.3-1.1 3.38-.457 1.092-1.1 2.043-1.7 3.064-.106.2.14.423.28.246zm-2.92-13.28l2.604-3.522c.176-.246-.2-.458-.387-.2l-2.57 3.558c-.14.176.2.387.352.176zm-24.208-30.68c3.026-2.184 6.37-3.77 10.17-3.9.598-.035.598-.95 0-.916-3.8.176-7.8 1.585-10.45 4.438-.176.2.07.564.282.387z"/><path d="M47.273 20.642c2.357 2.888 4.47 5.917 5.982 9.37 1.478 3.417 2.428 7.045 2.745 10.743.176 2.078.176 4.156-.035 6.2-.07.634.95.634.985 0 .74-7.573-1.16-15.287-5.243-21.697-1.16-1.796-2.463-3.558-4.046-5.002-.28-.247-.598.106-.387.387z"/><path d="M48.258 21.77l3.448-1.233c1.16-.352 2.393-.634 3.59-.704 1.09-.07 2.182-.035 3.237.176.528.106 1.056.247 1.548.458.563.21 1.056.528 1.583.74.457.21 1.02-.352.563-.74-.845-.775-2.11-1.162-3.202-1.41-1.16-.247-2.393-.282-3.554-.176-1.267.14-2.498.423-3.73.8-1.232.423-2.533.88-3.695 1.55-.246.21-.07.634.21.528z"/><path d="M61.63 20.396c.704 5.248.563 10.637-.528 15.85-.14.67.88.95 1.02.282 1.02-5.354 1.16-10.85.282-16.238-.07-.423-.81-.317-.774.106z"/><path d="M62.93 21.17a11 11 0 0 1 5.489 4.685c.317.528 1.16.035.844-.493-1.407-2.254-3.624-3.945-6.158-4.685-.352-.106-.493.387-.176.493zm-6.086 31.983l.704-3.522c.035-.246-.317-.352-.387-.106l-.704 3.522c0 .2.352.317.387.106zm.738-.423l.458-.95c.035-.106.035-.2-.07-.282-.106-.035-.2-.035-.28.07l-.457.95c-.035.106-.035.2.07.282.105.035.2.035.28-.07zm16.82-11.87c2.217-1.162 4.117.8 5.172 2.57.598 1.022 1.196 2.184 1.23 3.38.035 1.022-.28 2.008-.8 2.888-1.16 1.972-3.202 3.17-5.313 3.945l-3.554 1.127c-1.23.352-2.463.634-3.73.6-1.337-.035-2.64-.387-3.906-.845-1.337-.493-2.57-1.233-3.87-1.796-.774-.352-1.407.705-.67 1.162 1.196.74 2.533 1.338 3.87 1.867 1.302.528 2.64.88 4 .986 1.478.106 2.92-.176 4.328-.564l4-1.303c2.428-.95 4.75-2.36 6.052-4.72.563-1.057.915-2.3.8-3.522-.106-1.374-.704-2.642-1.407-3.804s-1.62-2.36-2.885-2.96c-1.23-.563-2.745-.634-3.835.282-.387.388.07.95.493.705z"/><path d="M74.155 40.2c0-.493.035-.986-.07-1.48-.14-.528-.352-1.022-.598-1.48-.528-.88-1.267-1.62-2.1-2.184-1.794-1.198-4.082-1.4-6.122-.74-2.182.705-4.046 2.254-5.243 4.227-1.267 2.043-1.83 4.473-1.97 6.833-.176 3.135.457 6.234 1.02 9.3.176.845 1.443.493 1.267-.352-.88-4.473-1.83-9.44.14-13.807.844-1.867 2.182-3.452 3.976-4.403 1.654-.88 3.624-1.127 5.348-.387.915.387 1.724 1.02 2.322 1.76.317.352.528.775.74 1.233s.422.986.457 1.514c.035.493.8.493.844-.035zm.67 39.027c-.422.704-.598 1.62-.704 2.43-.106.88-.14 1.726-.035 2.606.07.528.985.423.95-.14-.035-.775-.035-1.585.035-2.36.035-.352.106-.704.176-1.092l.282-1.198c.105-.387-.457-.67-.704-.247zm1.406-.14c-.352.845-.528 1.796-.67 2.712s-.176 1.867-.14 2.818c.035.67 1.1.67 1.02 0-.07-.88-.07-1.796.035-2.677s.317-1.76.493-2.607c.14-.563-.528-.704-.74-.246zm1.7.387c-.176.387-.28.8-.352 1.233a11.99 11.99 0 0 0-.246 1.197 14.99 14.99 0 0 0-.211 2.501c0 .6.915.6.95 0l.2-2.36a10.85 10.85 0 0 1 .176-1.127c.07-.388.2-.8.246-1.233s-.598-.6-.774-.2zm1.584 1.126a8.42 8.42 0 0 0-.88 4.72c.035.282.2.528.528.528.246 0 .563-.246.528-.528a8.07 8.07 0 0 1 .633-4.262c.105-.247.07-.493-.176-.634-.2-.106-.493-.035-.633.176zm1.653 1.058c-.176.564-.28 1.162-.422 1.76l-.387 1.76c-.07.282.07.6.387.67.28.07.598-.07.668-.387l.352-1.76.317-1.76c.035-.247-.07-.493-.317-.564-.28-.106-.528.035-.598.282zM67.294 69.214c-.528 1.55-.774 3.205-.774 4.825 0 .634.985.634.985 0 0-1.55.246-3.064.633-4.58.14-.564-.67-.775-.844-.247zm1.936.352c-1.02 1.832-1.443 4.05-1.548 6.094-.035.67 1.02.67 1.056 0 .035-.986.176-1.972.387-2.923.246-.986.563-1.902.915-2.853.14-.458-.598-.74-.8-.317zm1.17 1.514c-.704 2.008-1.1 4.12-1.267 6.234-.035.634.95.634.985 0 .176-2.043.563-4.015 1.126-5.988.14-.564-.668-.775-.844-.246zm1.504 1.375c-.67 2.254-1.1 4.614-1.407 6.974-.035.282.282.528.528.528.317 0 .493-.247.528-.528.282-2.254.774-4.473 1.267-6.728.106-.564-.774-.8-.915-.246zm1.724 2.5c-.95 1.48-1.372 3.205-1.302 4.966 0 .317.246.564.563.564.282 0 .598-.282.563-.564-.14-1.55.246-3.1 1.02-4.438.352-.6-.493-1.092-.844-.528zM60.6 58.084c.106-.035.07-.035-.035 0-.07.035-.105.07-.14.14-.07.106-.106.2-.14.317-.07.176-.105.352-.176.528a11.79 11.79 0 0 0-.246 1.198c-.106.8-.07 1.585.035 2.36.035.282.387.423.598.352.282-.07.387-.352.352-.6-.105-.67-.105-1.374-.035-2.078a9.66 9.66 0 0 1 .176-.986c.035-.176.07-.352.14-.528.035-.07.035-.14.07-.2.035-.14 0-.2-.07-.352v.106c.035-.317-.352-.528-.528-.247zm1.3.07c-.282 1.022-.387 2.113-.563 3.135l-.493 3.17c-.035.246.07.528.352.6.2.07.563-.07.598-.352l.457-3.24.387-3.24c-.035-.387-.633-.458-.74-.07zm1.408 2.114l-1.302 6.094c-.14.634.844.916.95.282l1.126-6.234c.105-.493-.67-.564-.774-.14zm1.126 1.162l-1.02 5.847c-.07.282.07.6.387.67.246.07.633-.106.67-.388l.88-6.023c.07-.493-.8-.6-.915-.106zm2.04 1.867l-.74 3.522c-.07.282.07.6.387.67.28.07.633-.07.67-.387l.633-3.558c.035-.282-.07-.528-.352-.634a.6.6 0 0 0-.598.388zM24.718 30.504c.317.035.598-.035.915-.106l.88-.247c.598-.176 1.16-.423 1.724-.704.457-.247.035-.95-.422-.705a12.47 12.47 0 0 1-1.548.74 5.46 5.46 0 0 1-.809.282c-.282.106-.563.176-.844.317-.2.106-.106.387.106.423zm3.167 1.056l2.85-.67a.5.5 0 0 0 .317-.528.5.5 0 0 0-.528-.317l-2.815.74a.41.41 0 0 0-.28.458c.035.247.246.352.457.317zm2.252 1.304l2.357-.282c.2-.035.422-.176.422-.423 0-.2-.176-.458-.422-.423l-2.357.282c-.2.035-.422.176-.422.423.035.2.2.423.422.423zm2.92 1.832l2.322-.528c.2-.035.352-.282.282-.493s-.282-.317-.493-.282l-2.322.6c-.176.035-.317.282-.246.458s.246.282.457.247zm1.69 1.796a2.33 2.33 0 0 0 2.006-.528c.14-.14.14-.423 0-.528-.176-.14-.387-.14-.528 0-.035.035-.035.07-.07.07.035-.035.035-.035 0 0l-.035.035c-.07.035-.105.07-.176.106s-.105.07-.176.106c.105-.035 0 0-.035 0s-.07.035-.106.035c-.07.035-.14.035-.2.035h-.035c-.035 0-.035 0 .035 0h-.457c-.176-.035-.387.035-.422.247-.07.176 0 .387.2.423zm2.076 2.254l1.16-.2 1.16-.246c.246-.035.387-.317.317-.564s-.317-.352-.563-.317l-1.16.246-1.16.282c-.2.07-.352.282-.282.493.105.247.317.352.528.317zm2.603 2.5L41.08 41c.106 0 .2-.106.246-.2.07-.106.07-.2.035-.317-.07-.246-.282-.352-.528-.317l-1.62.282c-.2.035-.352.317-.28.493.035.106.105.2.176.247.07.106.176.106.317.07zm.8 2.22c.563-.035 1.1-.14 1.654-.2.14-.035.246-.035.352-.14a.53.53 0 0 0 .141-.387.37.37 0 0 0-.176-.317c-.14-.106-.246-.106-.422-.07l-1.62.282c-.2.035-.352.282-.317.493 0 .176.176.352.387.352zm.492 2.818l1.76-.247c.105 0 .2-.14.282-.2a.42.42 0 0 0 .035-.352c-.035-.105-.105-.2-.2-.282s-.2-.07-.352-.035l-1.654.282c-.106 0-.2.106-.246.2s-.07.176-.035.282c0 .176.176.387.422.352zm-.492 2.043l2.1-.2c.246-.035.493-.2.493-.493 0-.246-.2-.528-.493-.493l-2.217.317c-.2.035-.352.282-.317.493 0 .2.2.388.422.388zm-.8 3.065c.387.106.8.07 1.196 0 .352-.07.74-.2 1.02-.423.2-.14.317-.423.176-.67-.14-.2-.457-.317-.67-.176l-.422.2s-.106.035-.106.07c.07-.035.07-.035.035 0-.035 0-.035 0-.07.035-.07.035-.14.035-.2.07s-.14.035-.2.07c-.035 0-.07 0-.14.035h-.246c-.07 0-.14 0-.2.035-.035 0-.176.035-.035 0-.2.035-.387.14-.422.352 0 .14.106.317.317.388zm-.456 2.43l1.654-.458c.246-.07.422-.352.352-.6s-.352-.423-.598-.352l-1.654.493c-.246.07-.422.352-.352.6s.317.387.598.317z"/><path d="M42.24 47.587c-.14 1.02-.035 2.043.176 3.064.176 1.02.493 1.972.915 2.923.106.247.457.282.67.176.246-.14.282-.423.176-.67-.387-.845-.704-1.726-.88-2.642-.2-.916-.246-1.83-.352-2.783-.035-.176-.106-.317-.317-.352-.14 0-.352.106-.387.282zm2.78.563l.493 4.156c.07.528.95.387.915-.14L45.936 48c-.035-.2-.317-.352-.493-.317-.2.035-.422.2-.422.458zm1.057-1.408l.422 4.015c.035.282.2.528.528.528a.57.57 0 0 0 .528-.528l-.493-4.015c-.035-.247-.2-.493-.493-.493-.282.035-.528.247-.493.493zm2.357-.247c-.07 1.4.07 2.783.457 4.12.176.634 1.126.352.985-.282-.282-1.268-.457-2.57-.457-3.874 0-.6-.95-.6-.985.035zm3.966.388c-.07.387-.035.775 0 1.162 0 .388.035.775.07 1.127l.14 2.3c0 .282.2.528.528.528a.57.57 0 0 0 .528-.528l-.317-3.417c-.035-.352-.07-.8-.176-1.162-.176-.317-.704-.388-.774 0zm1.77 1.02l-.317 4.473c0 .282.246.493.493.493.282 0 .457-.2.493-.493l.2-4.473a.43.43 0 0 0-.422-.423c-.282 0-.422.2-.457.423zm1.688 1.304c-.07.282-.106.6-.14.88l-.106.845-.14 1.7c-.035.247.246.493.493.493.28 0 .457-.2.492-.493l.14-1.655.035-.8c0-.282.035-.564 0-.845-.035-.2-.14-.387-.352-.387-.176-.035-.387.106-.422.282zm.95 4.542s0 .035.035.07c0-.035-.035-.07-.035-.106.035.07.07.176.07.247.035.07.035.176.07.247v-.14.352c0-.035 0-.106.035-.14 0 .106-.035.176-.07.282s0 .282.035.387c.07.106.176.2.317.247.282.07.563-.07.633-.352s.07-.6.035-.88l-.106-.352c-.07-.14-.176-.282-.282-.387-.14-.176-.422-.176-.563-.035-.07.07-.14.14-.14.2-.106.14-.07.247-.035.352zM27.64 48.855c-.07.74.035 1.515.246 2.22.176.704.493 1.4.845 2.078.317.563 1.232.035.88-.528-.352-.6-.598-1.198-.8-1.832-.2-.67-.282-1.338-.387-2.008-.035-.176-.246-.317-.422-.282-.2 0-.317.14-.352.352zm2.005.95c-.035 1.233.2 2.5.668 3.663.106.282.352.458.67.387.246-.07.493-.387.387-.67-.422-1.092-.633-2.254-.774-3.38-.035-.247-.2-.458-.457-.458-.282 0-.493.2-.493.458zm1.442.001c-.035.6.07 1.197.176 1.76s.28 1.127.457 1.655c.106.247.352.458.633.352.246-.07.493-.387.352-.634-.2-.528-.387-1.057-.528-1.62s-.176-1.092-.28-1.655c-.035-.2-.282-.352-.493-.317a.65.65 0 0 0-.317.458zm2.217-.81c-.106.317-.14.705-.14 1.057-.035.352-.035.704 0 1.057.07.74.176 1.444.458 2.113.105.247.352.423.633.352.246-.07.457-.352.352-.634-.2-.6-.387-1.233-.457-1.867l-.07-.95.035-1.02c-.07-.458-.67-.528-.8-.106zm1.513 0l-.07.88c0 .282.035.6.105.88.106.563.282 1.127.493 1.655.106.247.493.317.704.176.246-.176.317-.458.176-.705-.07-.106-.106-.247-.176-.352.035.035-.035-.106-.035-.106-.035-.07-.035-.106-.07-.176l-.2-.704-.246-1.444c-.035-.176-.106-.317-.317-.352-.106-.035-.317.07-.352.246zm2.253-.28l.774 2.888c.07.282.387.493.67.388.282-.07.493-.388.387-.67l-1.02-2.818c-.07-.2-.282-.387-.528-.317a.44.44 0 0 0-.281.528z"/></g></svg>