<svg xmlns="http://www.w3.org/2000/svg" width="101" height="122" fill="none"><path d="M42.75 13.5L13 24.75v4.625c-.187.354-.75 1.212-1.5 1.813s-.312 1.417 0 1.75l2.188 1.25c.23 2.688.8 8.462 1.25 10.063s.188 11.625 0 16.438l-.562 2.375L57.188 86.25c1.45.75 4.52.313 5.875 0L87 72l-.875-27.937c.583-.667 1.875-2.3 2.375-3.5S87.708 39.02 87 39l-.5-4.75L42.75 13.5z" fill="#fe6869"/><g opacity=".2" fill="#000"><path fill-rule="evenodd" d="M57.188 86.25c.907.47 2.45.474 3.808.335l-.746-29.7L13 33.795l.688.393c.23 2.688.8 8.462 1.25 10.063s.188 11.625 0 16.438l-.562 2.375L57.188 86.25z"/><path d="M13 29.375c-.058.11-.152.267-.276.45.167.298.468.736.963 1.362 1.65 2.086 29.23 15.66 42.812 22.188l3.75.75v-5l-7-1.25L40 41.625 13 25.75v3.625z"/></g><path d="M40 26.5l4.375 3.375L37.25 33.5l7.125 4.75 5.375-3.875 6.875 3.875 5.5-3.875-7.75-4.5L60 26.5l-5.625-2.25L51 26.5l-4-3.25-7 3.25z" fill="#effafe"/><g fill="#181d23"><path d="M59.953 57.204c1.236-.2 2.43-.758 3.587-1.237l3.507-1.516 6.776-3.192c4.504-2.274 8.928-4.708 13.233-7.38.957-.598 2.073-1.317 2.272-2.474.2-1.037-.32-2.274-1.435-2.434-.917-.16-1.315 1.197-.4 1.436.678.16.24 1.077-.08 1.396-.718.718-1.714 1.157-2.59 1.676a230.4 230.4 0 0 1-5.979 3.471 193.64 193.64 0 0 1-12.196 6.144c-1.196.56-2.39 1.077-3.587 1.596-1.156.56-2.43.998-3.508 1.716-.36.28-.08.878.4.798z"/><path d="M11.965 33.743c3.11 2.035 6.457 3.71 9.725 5.466l29.295 15.56c3.268 1.716 6.975 3.35 10.722 2.354.957-.24.558-1.716-.398-1.476-3.19.838-6.417-.6-9.247-2.035L23.324 38.37c-3.587-1.915-7.214-3.95-10.96-5.506-.558-.24-.837.6-.4.878z"/><path d="M11.965 33.424c0-.04-.04-.04-.04-.08-.04-.12 0 .04 0-.04 0-.04-.04-.08-.04-.16-.04-.12-.04-.24-.08-.36 0 .08 0-.08 0 0v-.48c-.04.12 0-.08 0 0 .04-.12.04-.2.08-.32 0-.04.04-.12.04-.16 0 0 .04-.04.04-.08 0 .04-.04.12 0 .04.04-.12.12-.2.16-.32.04-.04.08-.08.08-.12-.08.08 0 .04 0 0l.08-.08c.2-.24.24-.6 0-.838-.24-.2-.598-.24-.837 0-.837.918-.957 2.354-.2 3.352.12.16.36.28.558.16.24-.08.28-.32.16-.52z"/><path d="M12.603 25.085l-.2 2.354c-.04.758-.16 1.556-.12 2.314.04.678.2 1.357.678 1.915.438.52 1.116.758 1.794.56s.4-1.157-.28-1.037c-.4.08-.757-.32-.917-.638-.24-.48-.16-1.077-.16-1.596l.12-3.87c-.04-.56-.837-.56-.917 0z"/><path d="M13.48 32.107l4.982 3.192 4.982 2.793a251.79 251.79 0 0 0 10.323 5.307c.558.28 1.036-.56.478-.798-6.975-3.4-13.7-7.182-20.527-10.852-.28-.16-.478.2-.24.36zm40.893 20.947c2.55 1.476 5.66 1.795 8.5.958.478-.16.28-.878-.2-.758-2.7.718-5.54.48-8.13-.598-.24-.12-.4.28-.16.4zM80.8 43.957c.957-.838 1.993-1.596 3.07-2.274s2.192-1.237 3.308-1.835c.478-.28.04-.958-.438-.718-1.196.52-2.272 1.277-3.308 2.035a29.33 29.33 0 0 0-2.95 2.474c-.2.2.12.52.32.32z"/><path d="M87.615 39.5c.04-.878-.08-1.756-.12-2.673l-.04-2.673c0-.4-.36-.718-.717-.718-.4 0-.757.32-.717.718 0 .918.08 1.835.2 2.753s.24 1.835.598 2.713c.08.44.757.4.797-.12zM12.802 25.045c2.43-.718 4.743-1.636 7.134-2.514l7.174-2.713 10.722-4.03 3.428-1.237c1.156-.32 2.232-.16 3.308.32l3.308 1.596 6.776 3.312L83.5 33.983c.837.44 1.594-.878.757-1.277-4.663-2.154-9.287-4.55-13.9-6.783l-24.244-11.89c-1.036-.52-2.112-.958-3.268-1.077-1.196-.08-2.352.32-3.468.718L35.76 15.07l-15.265 5.865c-2.7 1.037-5.46 2.035-8.1 3.272-.478.2-.12.997.4.838z"/><path d="M12.523 25.684c3.308 2.394 6.816 4.5 10.323 6.623a369.99 369.99 0 0 0 10.642 6.065l10.92 5.745 5.42 2.673c1.754.838 3.508 1.636 5.38 2.194 3.667 1.077 8 .918 10.92-1.835.598-.56-.32-1.476-.917-.918-2.47 2.354-6.178 2.474-9.327 1.636-1.834-.48-3.587-1.277-5.26-2.075l-5.26-2.594c-7.135-3.55-14.1-7.34-20.965-11.33l-11.56-6.743c-.36-.24-.678.32-.32.56zm58.63 18.832c2.312-1.317 4.464-2.953 6.696-4.47l3.348-2.194 1.674-1.037c.598-.36 1.196-.838 1.833-1.077.917-.36.16-1.636-.598-.997-.518.44-1.196.798-1.794 1.157l-1.674 1.077-3.388 2.274c-2.192 1.516-4.464 3.032-6.377 4.948-.16.16.08.44.28.32zM50.786 26.522h.04c-.08 0-.12-.04-.2-.04v-.04c.08.04.12.08.16.08.08.08.16.08.28.08.08 0 .2-.04.28-.04.16-.04.32-.12.478-.16.36-.12.678-.32 1.036-.48.638-.32 1.236-.758 1.794-1.197a.63.63 0 0 0 0-.878.62.62 0 0 0-.877 0c-.08.04-.12.12-.2.16-.04.04-.08.04-.08.08-.12.12-.28.2-.4.28a9.68 9.68 0 0 1-.837.52l-.837.44-.438.24c-.08.04-.16.08-.24.16-.12.12-.16.24-.2.36.04-.04.08-.12.08-.16l-.04.04c-.28.16-.08.56.2.56z"/><path d="M54.254 24.726c.877.56 1.833.958 2.8 1.396l1.435.638c.518.2 1.036.56 1.594.6.518.04.837-.718.438-1.037s-.957-.48-1.435-.678l-1.514-.638c-.957-.4-1.913-.838-2.95-1.077-.518-.12-.757.52-.36.798z"/><path d="M61.348 26.6c-.4-.4-1.196.08-1.594.28l-1.475.678-1.475.718-1.554.798c-.28.16-.4.52-.28.798s.478.48.757.36c1.116-.44 2.152-1.077 3.2-1.636l1.515-.838c.24-.16.518-.28.717-.48.24-.12.438-.44.2-.678zm-6.975 4.3c1.315.918 2.75 1.636 4.185 2.354l2.192.998c.678.32 1.475.798 2.232.838.478.04.797-.678.4-.997-.598-.48-1.475-.718-2.152-.998l-2.192-.997-4.344-1.955c-.478-.12-.678.52-.32.758z"/><path d="M62.504 33.703c-1.116.6-2.112 1.357-3.19 1.995l-1.634.958-1.634.918c-.28.2-.4.52-.28.838.12.28.478.52.757.4.638-.24 1.196-.6 1.754-.957l1.634-1.037c1.076-.718 2.192-1.436 3.11-2.354.438-.4-.04-1.037-.518-.758z"/><path d="M56.087 38.172c-.4-.44-.877-.798-1.355-1.157l-1.355-.958-2.83-1.915c-.32-.2-.797-.08-.996.28s-.04.758.28.998c.917.678 1.913 1.237 2.87 1.875l1.395.878c.518.32.996.6 1.554.798.438.08.678-.48.438-.798z"/><path d="M50.467 34.102c-.32 0-.598 0-.917.08l-.877.28c-.598.2-1.196.48-1.754.718s-1.076.56-1.554.878a5.07 5.07 0 0 0-.757.519c-.28.2-.598.4-.797.678-.478.6.08 1.357.797 1.037.28-.12.478-.32.717-.48l.717-.52a14.53 14.53 0 0 1 1.554-.918l1.554-.798.797-.36c.28-.12.518-.28.797-.44.2-.2.08-.718-.28-.678z"/><path d="M44.608 36.975c-.28-.16-.558-.32-.877-.44s-.598-.24-.917-.4L41.1 35.3c-1.156-.6-2.232-1.317-3.308-2.075-.32-.24-.797-.04-.996.28-.2.36-.04.758.28.997 1.076.798 2.232 1.476 3.468 2.035.598.28 1.236.52 1.873.758l.917.32c.36.12.678.12 1.036.16.478.08.598-.598.24-.798z"/><path d="M38.23 33.703l3.268-1.716 3.228-1.835c.638-.4.08-1.357-.598-.997L40.94 31l-3.15 1.955c-.478.28-.08.997.438.758z"/><path d="M44.49 29.514l-1.993-1.755-.996-.838c-.16-.12-.32-.28-.478-.4-.12-.08-.24-.2-.36-.28a.8.8 0 0 0-.518-.16c-.438-.04-.797.48-.638.838.12.32.36.52.638.718l.518.4 1.076.798 2.152 1.556c.478.28 1.036-.48.598-.878z"/><path d="M40.224 27.28c1.196-.52 2.312-1.117 3.468-1.716l1.674-.878c.558-.32 1.236-.56 1.754-.957.24-.16.36-.44.24-.718-.12-.24-.4-.44-.678-.32-.638.24-1.236.6-1.794.958l-1.634.918-3.348 1.955c-.4.24-.16.957.32.758z"/><path d="M46.242 23.5c.717.758 1.515 1.476 2.4 2.075.837.598 1.714 1.197 2.63 1.676a.65.65 0 0 0 .877-.239c.16-.32.08-.718-.24-.878l-2.63-1.596-2.47-1.795c-.438-.28-.917.4-.558.758zM85.74 44.157c-.16.838-.12 1.676-.16 2.514l-.08 2.673v5.147c.04 3.47.2 6.942.4 10.414a68.7 68.7 0 0 0 .199 2.953c.08.997.08 1.995.28 2.953.16.838 1.435.6 1.475-.2.04-.838-.12-1.716-.16-2.553-.08-.838-.12-1.716-.16-2.593l-.28-5.147-.36-10.413-.08-2.873c-.04-.958 0-1.955-.12-2.913-.12-.44-.877-.4-.956.04zM59.714 56.685c-.16.838-.12 1.716-.08 2.553l.04 2.553.12 5.346.16 10.493v6.025c0 1.037 1.594 1.037 1.594 0 0-7.022-.2-14.044-.558-21.067a68.53 68.53 0 0 0-.2-2.953c-.08-.958-.08-2.035-.36-2.953-.12-.32-.638-.36-.717 0zM12.96 34.382l.678 5.506.28 5.506.52 17.794c.04.998 1.594.998 1.594 0l-.4-11.45c-.16-3.75-.2-7.54-.598-11.3-.2-2.075-.478-4.23-1.156-6.224-.2-.44-.997-.4-.917.16z"/><path d="M14.516 64.026l3.388 2.394 3.388 2.075 7.015 4.07c4.703 2.633 9.486 5.147 14.35 7.58l7.294 3.5c1.236.6 2.5 1.157 3.787 1.716 1.196.52 2.352 1.077 3.627 1.476 1.315.4 2.63.558 3.986.32 1.236-.2 2.43-.758 3.547-1.317 2.43-1.197 4.823-2.474 7.174-3.8 5.34-2.953 10.562-6.144 15.624-9.616.757-.52.04-1.795-.718-1.277-4.464 2.992-9.008 5.825-13.67 8.46-2.312 1.317-4.623 2.593-6.975 3.8-2.192 1.157-4.544 2.633-7.135 2.314-1.276-.16-2.5-.678-3.667-1.197a144.33 144.33 0 0 1-3.587-1.636l-7.254-3.43a364.87 364.87 0 0 1-14.149-7.341l-7.692-4.4-3.906-2.274c-.638-.4-1.275-.798-1.953-1.117-.678-.36-1.355-.638-2.033-.997a.4.4 0 0 0-.438.678zm69.55 5.546c-.04 1.117-.877 1.915-1.754 2.474-1.076.678-2.272 1.157-3.428 1.636a65.95 65.95 0 0 1-7.772 2.633c-.598.16-.36 1.117.28.958 2.95-.718 5.78-1.756 8.57-3.032 1.833-.838 5.062-2.115 4.743-4.628-.04-.44-.638-.48-.638-.04z"/><path d="M13.918 60.834c0 .04-.04.04-.04.08l.12-.12c-.36.2-.438.798-.4 1.197 0 .4.12.758.28 1.077.32.678.917 1.197 1.674 1.357.24.04.518-.08.558-.32s-.08-.52-.32-.56c-.08-.04-.16-.04-.2-.08-.04 0-.08-.04-.08-.04-.04-.04-.12-.08-.16-.12.08.04-.04 0 0 0-.04-.04-.04-.04-.08-.04-.12-.08-.2-.2-.32-.32 0 .04.04.08 0 0 0-.04-.04-.04-.04-.08-.04-.08-.08-.12-.12-.2 0-.04-.04-.04-.04-.08-.04-.04-.04-.08 0-.04-.04-.08-.04-.12-.08-.2s-.04-.16-.04-.2c0 0-.04-.12 0-.04 0 .08 0-.04 0-.08v-.36a.36.36 0 0 1 .04-.2c0 .08 0 0 0-.04.04-.12.04-.24 0-.4v.12c0-.44-.518-.638-.757-.32zm3.07 2.076c2.232 2.274 4.942 3.9 7.732 5.426 3.03 1.596 6.138 3.072 9.207 4.548l5.5 2.673c.478.24.917-.48.44-.718L30.3 70.17c-2.87-1.396-5.78-2.753-8.5-4.43-1.555-.958-3.07-1.995-4.464-3.152-.24-.24-.598.08-.36.32zM52.34 81.103c2.073.638 3.747 2.234 5.78 2.992 1.674.638 3.747.718 5.102-.6.36-.36-.2-.878-.558-.56-1.315 1.277-3.428.918-4.942.2-.877-.4-1.674-.918-2.55-1.397s-1.754-.798-2.8-.918c-.16 0-.24.24-.04.28zm10.722-16.917h.04c-.04 0-.12-.04-.16-.04.16.12.4.08.598.04l.478-.12 1.036-.4c.32-.16.598-.28.877-.48.32-.2.638-.4.917-.678.438-.44-.12-1.237-.678-.878-.04.04-.12.08-.16.12.04-.04 0 0-.04 0-.08.04-.16.12-.2.16l-.4.28a6.39 6.39 0 0 1-.877.52c-.28.16-.558.32-.877.44s-.717.28-.837.6c.04-.08.08-.12.16-.2 0 0-.04 0-.04.04-.24.16-.12.598.16.598z"/><path d="M63.5 61.912c-.558 1.077-.2 2.474.717 3.232.2.16.558.24.757 0 .16-.2.24-.56 0-.758l-.32-.32s-.04-.08 0-.04c.04.08 0-.04-.04-.04 0-.04-.04-.04-.04-.08-.08-.08-.12-.2-.16-.28 0-.04-.04-.04-.04-.08.04.12-.04-.08 0 0 0-.04-.04-.12-.04-.16-.04-.12-.08-.24-.08-.32v-.04c0 .08 0-.04 0-.04v-.4c0 .08 0-.12 0 0 0-.08.04-.16.04-.24 0 .04 0 .04 0 0s0-.08.04-.12c.04-.2-.04-.4-.24-.48-.24-.08-.478 0-.598.16zm3.468.688c.04.24-.08 0-.04.16 0 .08.08.24.12.32l.12.838.2 1.915a22.98 22.98 0 0 1-.04 3.71c-.08.918-.32 2.194.797 2.593.997.32 2.113-.56 2.95-1.037l6.537-3.75 3.15-1.915c.438-.28.917-.52 1.236-.918.36-.44.478-.958.478-1.516-.08-1.357-.36-2.753-.558-4.1-.08-.678-.24-1.317-.24-1.995 0-.24.08-.998.438-.758.718.52 1.395-.678.678-1.197-.877-.638-2.073.04-2.392.957-.2.52-.12 1.077-.04 1.636l.32 2.075.28 1.915c.08.56.36 1.357.2 1.915-.16.48-.956.798-1.355 1.037l-1.794 1.117-7.015 4.07-1.674.918c-.12.04-.518.36-.638.28-.04-.04 0-.48 0-.6.12-1.357.16-2.673.04-4-.04-.678-.12-1.357-.24-2.075-.08-.638-.16-1.396-.478-1.995-.28-.44-.797-.718-1.315-.44-.398.2-.598.678-.36 1.077.12.48.718.2.638-.24zm-12.794-6.673c.36.838.877 1.636 1.355 2.434l1.196 2.075 2.47 4.628c.36.638 1.275.08.996-.558-.757-1.596-1.594-3.112-2.5-4.628l-1.196-1.955c-.478-.798-.957-1.676-1.594-2.354-.28-.32-.877 0-.717.36zm-5.66-2.713l8.7 17.914 1.993 3.75c.4.638 1.315.08.996-.6l-8.77-17.476a78.02 78.02 0 0 0-2.152-4.03c-.28-.56-1.036-.08-.757.44zm-5.54-2.194c.598 1.756 1.355 3.43 2.073 5.147l2.192 5.147 4.464 10.294c.28.598 1.315.16 1.076-.44l-4.424-10.254-2.232-5.067-2.352-5.107c-.24-.48-.957-.2-.797.28zm-7.534-4.67c1.036 3.47 2.7 6.743 4.265 10.014L44.33 66.3c.24.6.518 1.197.757 1.835l.24.718c.04.08.04.16.08.28 0 .04 0 .08.04.12 0-.16.04.12 0 0 .08.758 1.275.798 1.196 0-.08-.958-.478-1.875-.837-2.753-.598-1.476-1.275-2.913-1.993-4.4L38.63 51.34c-.837-1.755-1.594-3.5-2.4-5.306-.2-.44-.917-.12-.797.32zm-7.532-3.87l3.587 8.578 3.507 9.177 1.714 4.828c.24.718 1.395.44 1.156-.32-1.913-6.144-4.344-12.13-6.935-17.994-.678-1.556-1.395-3.112-2.232-4.588-.24-.44-.997-.12-.797.32zm-5.46-2.433c1.116 3.232 2.55 6.424 3.866 9.576l1.953 4.708c.638 1.516 1.236 3.032 1.554 4.668.16.798 1.315.44 1.196-.32-.32-1.636-.917-3.192-1.594-4.708l-2.033-4.668c-1.355-3.192-2.63-6.464-4.225-9.536-.2-.48-.877-.16-.717.28zm-5.54-3.032c1.833 5.666 3.826 11.3 6.178 16.758.598 1.436 1.276 2.833 1.953 4.23.36.718 1.475.08 1.076-.638-1.315-2.514-2.392-5.107-3.468-7.74-1.156-2.833-2.192-5.706-3.268-8.538-.518-1.436-1.076-2.873-1.634-4.3-.16-.56-1.036-.36-.837.24zm-2.9 4.47c.518 2.075 1.236 4.07 1.913 6.104l1.993 6.065c.24.798 1.475.48 1.275-.36-.558-2.035-1.315-4.07-2.033-6.065l-2.152-6.025c-.24-.6-1.156-.36-.997.28zm-2.983 20.634l-2.054.317-2 .383c-.24.064-.447.35-.352.6.077.288.34.4.6.352l1.98-.4 1.937-.466c.192-.05.346-.247.312-.47-.02-.175-.2-.36-.422-.325zm2.556 1.842c-1.812-.03-3.674.235-5.397.825-.258.095-.447.35-.37.64.065.24.352.447.64.37 1.658-.546 3.367-.9 5.123-.983.537-.015.54-.866.003-.85zm2.625 1.23l-5.05 1.067c-.27.047-.416.37-.352.6a.5.5 0 0 0 .61.352l5-1.2c.56-.124.34-.94-.22-.817zm3.605 2c-1.7.04-3.4.394-4.94 1.1-.258.095-.312.47-.2.698.174.263.44.295.698.2.162-.07.306-.108.486-.207.192-.05.372-.15.564-.202l1.124-.326c.752-.175 1.517-.303 2.277-.35a.46.46 0 0 0 .452-.43c-.047-.27-.238-.503-.46-.47zm3.132 1.96l-4.488.66c-.332.01-.57.28-.5.6.042.35.365.495.666.466l2.295-.382c.783-.158 1.535-.333 2.26-.604.468-.177.27-.82-.224-.74zm3.08 1.78l-4.706.614c-.284-.001-.503.238-.504.52.017.253.22.534.522.505 1.647-.106 3.334-.35 4.883-.92.438-.194.27-.82-.194-.72zm3.03 1.586c-1.404.53-2.855.8-4.362.65-.266-.032-.52.268-.504.52-.001.284.238.503.522.505 1.6.065 3.233-.246 4.6-1.047.36-.2.125-.78-.246-.63zm4.228 2.4l-4.532.593c-.284-.001-.503.238-.504.52.016.253.22.534.522.505l2.42-.4c.8-.188 1.54-.4 2.3-.744.276-.125.063-.532-.208-.486zm3.247 2.404l-2.526.3c-.87.026-1.72.022-2.6-.078-.266-.032-.52.268-.504.52-.001.284.256.473.522.505.878.1 1.777.092 2.664.035.904-.087 1.827-.205 2.65-.502.5-.16.287-.85-.207-.77zm3.803 2.642c-1.517.302-3.042.478-4.583.4-.284-.001-.503.238-.504.52s.238.503.522.505c1.607.034 3.26-.15 4.772-.658a.4.4 0 0 0-.207-.769zm-.318 2.945l-1.102.217c-.08-.005-.144.038-.18.1-.066.043-.1.104-.136.165-.07.122-.097.3-.04.423a.57.57 0 0 0 .248.346.56.56 0 0 0 .423.04l1.1-.265a.57.57 0 0 0 .346-.247.56.56 0 0 0 .04-.423c-.04-.143-.126-.276-.248-.346-.03-.018-.092-.053-.14-.04-.096.026-.205.003-.3.03z"/><path d="M43.447 82.306c-.603.058-1.163.182-1.753.288l-1.7.323c-.27.047-.482.413-.387.67.078.288.383.465.67.388l1.648-.4 1.635-.437c.2-.082.346-.247.312-.47a.4.4 0 0 0-.435-.373zm1.99 3.394l-.83.17c-.048.013-.144.038-.18.1-.066.043-.1.104-.136.165s-.07.122-.075.2.008.127.004.205c.04.144.126.276.265.316a.53.53 0 0 0 .406.072l.805-.267c.048-.013.114-.056.162-.07.066-.043.083-.074.118-.135s.07-.122.057-.17c.005-.08.022-.1-.02-.175-.056-.114-.113-.228-.204-.28l-.122-.07c-.104-.1-.183-.106-.25-.062z"/><path d="M46.058 85.6c-.048.013-.08-.005-.127.008s-.127.008-.175.02c-.03-.018-.048.013-.08-.005-.096.026-.175.02-.27.047-.048.013-.114.056-.162.07-.066.043-.083.074-.118.135s-.07.122-.058.17c-.005.08-.022.11.02.175.013.048.043.066.056.114a.51.51 0 0 0 .178.184l.122.07.236.014c.096-.026.162-.07.258-.095l.048-.013c.048-.013.096-.026.162-.07.048-.013.066-.043.114-.056.018-.03.066-.043.083-.074s.083-.074.07-.122c.018-.03.035-.06.022-.11.018-.03.022-.11.01-.157l-.026-.096c-.03-.018-.043-.066-.074-.083s-.074-.083-.122-.07c-.06-.035-.11-.022-.17-.058z"/></g></svg>