<svg xmlns="http://www.w3.org/2000/svg" width="100" height="121" fill="none"><path d="M35.32 79.584c1.4 1.6 6.667 2.167 9.125 2.25 5.4 1.8 15.25-.083 19.5-1.25.333-.583 1.1-2.05 1.5-3.25s1.583-5.667 2.125-7.75l-1.375-36.5c-.5-6-7-7.625-9-10-1.6-1.9-2.167-4.708-2.25-5.875l-11.25.625v3.5c0 2-1.375 3.25-4 5s-3.5 2.75-5.375 6.75-1.875 32.625-1.625 35 .875 9.5 2.625 11.5z" fill="#4b5359"/><g fill="#a7caff"><path fill-rule="evenodd" d="M32.694 68.084c-.182-1.725-.23-17.307.474-27.234l-.474 27.234zm.474-27.234c.265-3.737.638-6.672 1.15-7.766l-1.15 7.766zm1.15-7.766c1.875-4 2.75-5 5.375-6.75l-5.375 6.75zm5.375-6.75c2.625-1.75 4-3 4-5l-4 5zm4-5v-3.5 3.5zm0-3.5l11.25-.625-11.25.625zm11.25-.625c.083 1.167.65 3.975 2.25 5.875l-2.25-5.875zm2.25 5.875c.612.727 1.645 1.383 2.8 2.116l-2.8-2.116zm2.8 2.116c2.617 1.663 6.31 3.72 6.658 7.884L59.992 25.2zm6.658 7.884c.13 1.56-.167 4.9 0 9.022v-9.022zm0 9.022L67.5 67.2l-.85-25.094zM48.694 71.334c6.2 0 15.12-2.756 18.805-4.134l-18.805 4.134zm-16-3.25c2.75 1.083 9.8 3.25 16 3.25l-16-3.25z"/><path d="M66.65 42.106c-2.36.993-8.907 2.978-16.207 2.978s-14.56-2.823-17.276-4.234c-.706 9.927-.656 25.51-.474 27.234 2.75 1.083 9.8 3.25 16 3.25S63.814 68.578 67.5 67.2l-.85-25.094z"/></g><path opacity=".2" fill-rule="evenodd" d="M54.944 17.21l-4.147.23c-.326 1.465-.378 5.17 2.022 8.27 1.224 1.58 2.78 2.142 4.17 2.643 2.016.727 3.678 1.327 3.456 4.732-.098 1.506.208 5.38.6 10.323 1.102 13.93 2.877 36.353-1.838 38.242a58.62 58.62 0 0 0 4.738-1.065c.333-.583 1.1-2.05 1.5-3.25s1.583-5.667 2.125-7.75l-1.375-36.5c-.347-4.164-3.584-6.22-6.2-7.884-1.154-.733-2.187-1.39-2.8-2.116-1.6-1.9-2.167-4.708-2.25-5.875z" fill="#000"/><path d="M42.32 9.146c.73-.667 3.175-2 7.125-2 2.9 0 5.5.917 6.438 1.375v8.25c-.75.396-3.088 1.188-6.437 1.188s-5.896-.542-6.75-.812l-.375-8z" fill="#effafe"/><path d="M44.818 78.584c1.7-2.6 7.875 1.083 10.75 3.25 2.3.5 4.708 3.458 5.625 4.875.125 1.208.075 3.775-1.125 4.375s-2.083 1.417-2.375 1.75c-.958-.417-3.3-1.35-5-1.75s-5.958-4-7.875-5.75c-.708-1.167-1.7-4.15 0-6.75z" fill="#7fa2f6"/><path opacity=".2" fill-rule="evenodd" d="M60.068 91.084c.896-.448 1.15-1.994 1.17-3.25-.6.375-2.82.9-6.92 0-5.125-1.124-9.786-5.136-10.33-7.192-.376 1.965.305 3.83.83 4.694 1.917 1.75 6.175 5.35 7.875 5.75s4.042 1.333 5 1.75c.292-.333 1.175-1.15 2.375-1.75z" fill="#000"/><g fill="#181d23"><path d="M43.442 17.687c.07 1.057.07 2.15-.2 3.17a8.24 8.24 0 0 1-1.302 2.818c-1.407 1.902-3.8 2.642-5.42 4.332-1.513 1.55-2.357 3.628-2.85 5.706-.563 2.395-.8 4.86-1.1 7.326-.598 5.495-.88 11.06-.88 16.6.035 5.495.28 11.025.985 16.45.176 1.338.422 2.642 1.02 3.84.528 1.057 1.372 1.937 2.357 2.57 1.935 1.268 4.363 1.656 6.615 1.973.352.035.74-.106.845-.458.105-.317-.106-.775-.458-.845-2.006-.282-4.082-.564-5.876-1.585-.8-.458-1.513-1.057-2.006-1.832-.633-.986-.88-2.148-1.056-3.276-.387-2.606-.563-5.248-.74-7.855-.176-2.712-.282-5.424-.317-8.137-.07-5.46.176-10.92.74-16.343.246-2.466.493-4.966.985-7.397.422-2.008 1.1-4.05 2.463-5.6.88-.95 1.97-1.585 3.026-2.254 1.1-.704 2.04-1.515 2.78-2.607 1.302-1.867 2.006-4.508 1.337-6.727-.14-.493-.985-.423-.95.14zm12.35 64.176v.035c-.035.176.14.317.282.352 1.443.6 3.132.14 4.54-.352 1.548-.528 3.026-1.092 4.645-1.092.67 0 .67-.986 0-1.057-1.548-.14-3.096.493-4.54 1.022s-2.885.95-4.434.74c-.14-.035-.352 0-.422.176-.07.07-.07.14-.07.176z"/><path d="M63.64 80.947c3-2.747 3.835-7.08 4.152-10.954.176-2.043.14-4.086.106-6.164l-.106-7.714-.246-15.604c-.035-2.395.106-4.93-.457-7.3-.493-2.078-1.7-3.804-3.202-5.283-1.654-1.655-3.6-2.994-5.172-4.72-1.478-1.62-2.85-3.804-2.463-6.093.07-.387-.106-.8-.528-.916-.352-.106-.844.106-.915.528-.74 4.473 2.885 7.75 5.982 10.356 1.513 1.268 3.06 2.607 4.082 4.332 1.16 2.008 1.196 4.332 1.23 6.587l.422 23.14.07 6.692c-.035 2.22-.2 4.473-.774 6.657a17.76 17.76 0 0 1-2.78 5.953c-.2.388.317.74.598.493zM42.105 9.4c-.246 2.43.246 4.826.14 7.256-.035.67 1.02.67 1.056 0 .105-2.43-.422-4.825-.457-7.256-.035-.458-.704-.423-.74 0z"/><path d="M42.562 17.616c.74.423 1.654.564 2.463.705a21.5 21.5 0 0 0 3.026.317c2.006.106 4.117.035 6.052-.458.88-.21 1.794-.528 2.498-1.127.457-.387-.14-1.162-.633-.845-1.865 1.127-4.152 1.338-6.263 1.374-1.267.035-2.498-.035-3.73-.14l-3.167-.458c-.422-.07-.563.458-.246.634z"/><path d="M56.285 17.194c.035-1.198-.105-2.43-.176-3.628l-.07-3.663c0-.775-1.196-.775-1.196 0l.14 3.734c.106 1.198.176 2.5.528 3.663.106.423.74.352.774-.106z"/><path d="M55.792 9.022c.035-.07.07-.14.07-.176 0-.07.035-.282.035-.106 0-.282-.07-.493-.28-.67-.282-.282-.67-.458-1.02-.6-1.02-.352-2.217-.458-3.272-.493-2.428-.106-5.032-.07-7.4.528-.67.176-1.654.458-1.865 1.233-.246.845.67 1.338 1.337 1.55.985.317 2.076.423 3.132.528 1.267.106 2.533.14 3.8.106 1.302-.035 2.604-.14 3.87-.423.8-.2 1.935-.6 1.935-1.585.035-.845-1.267-.845-1.302 0 0 .07 0-.176 0-.035 0-.07.07-.14 0-.07 0 .035-.07.176.035-.07-.035.035-.07.106-.105.106.176-.106-.035.035-.07.035-.07.035-.14.07-.176.106-.035 0-.106.035.035 0-.035.035-.106.035-.14.035-.176.07-.352.106-.528.14-.95.247-1.83.317-2.85.387-2.146.106-4.434.07-6.474-.352-.352-.07-.704-.176-1.056-.282-.14-.035.106.07-.07-.035a.27.27 0 0 0-.14-.07c0 .035-.14-.07 0 0 .07.106-.105-.176 0 0 .035.035.035.106.035.176s0 .106-.07.176c-.14.14.07-.14 0 0 .14-.14-.105.035 0-.035.035-.035.106-.035.14-.07-.28.14.352-.14.07-.035.176-.07.352-.14.528-.176.95-.282 1.83-.387 2.745-.458 1.16-.106 2.358-.176 3.52-.14l1.9.07c.563.035 1.056.106 1.513.176.387.07.774.14 1.126.282.105.07.035 0 0 0 .035 0 .07.035.105.035s.07.035.07.035c-.07-.07.07.07 0 0 .035 0 .035.035.035.035l.106.106c.14.07.176.07.035.035.035 0 0 .035 0-.035.2.247.493.247.633.035zM43.688 19c.2.176.352.352.563.458a2.53 2.53 0 0 0 .704.317c.493.2.985.352 1.513.458a9.34 9.34 0 0 0 3.131 0c.493-.106.282-.845-.2-.775-.915.176-1.9.176-2.815.035-.457-.07-.915-.2-1.337-.352l-.633-.247c-.106-.035-.2-.106-.352-.14-.105-.035-.246-.035-.352-.106-.2-.07-.387.2-.2.352z"/><path d="M44.075 11.065l.74 6.13c.035.493.8.493.774 0-.176-2.078-.457-4.2-.95-6.2-.035-.317-.598-.282-.563.07zm1.76.245l.317 2.994.422 2.994c.07.423.774.317.74-.106-.07-.986-.246-1.972-.387-2.994l-.493-2.96c-.106-.317-.633-.247-.598.07zm1.618.46c-.035.986.07 1.973.14 2.96l.246 2.96c.07.493.844.528.8 0l-.282-2.994-.422-2.96a.25.25 0 0 0-.493.035zm1.584-.212c-.106 1.902-.035 3.874.28 5.74.07.423.774.317.74-.106l-.246-2.818-.2-2.818c-.035-.387-.528-.387-.563 0zm1.863.212v5.636c-.035.564.8.528.844 0 .14-1.902.07-3.84-.282-5.74-.07-.282-.563-.2-.563.106zm2.218-.07c-.14.74-.106 1.55-.106 2.3l-.035 2.3c0 .6.95.6.95 0l-.035-2.3c0-.74.035-1.55-.106-2.3-.07-.352-.598-.352-.67 0zm1.302 69.07c-.14-.317-.457-.493-.74-.67l-1.16-.6-2.252-1.057c-1.302-.6-2.744-1.197-4.222-.845-1.196.282-2.287 1.233-2.393 2.536-.106 1.4.915 2.642 1.9 3.487 1.196 1.02 2.674 1.7 4.222 1.937.74.106 1.056-.986.317-1.127-1.443-.247-2.815-.88-3.906-1.867-.88-.8-2.006-2.325-.774-3.3 1.196-.95 2.815-.352 4.046.2l2.358 1.057 1.267.528c.352.14.774.282 1.16.176.176-.14.246-.317.176-.458zm-3.694 5.284c.633-1.092 1.513-2.043 2.57-2.712.528-.317 1.1-.6 1.7-.775l.915-.2c.317-.035.704 0 1.02-.106a.5.5 0 0 0 0-.951c-.317-.14-.8-.035-1.126.035-.352.035-.704.14-1.02.247-.704.2-1.337.528-1.935.916-1.196.8-2.146 1.937-2.604 3.3-.2.352.317.528.493.246z"/><path d="M50.233 85.455c.387.564.95.986 1.478 1.374a9.67 9.67 0 0 0 1.83 1.092c1.267.6 2.64.916 4.046.986 1.267.07 2.815 0 3.624-1.162.74-1.092.176-2.466-.563-3.38-.95-1.127-2.57-1.585-3.343-2.853-.387-.634-1.443-.035-1.02.6.633.986 1.583 1.55 2.533 2.184.774.528 1.795 1.4 1.654 2.466-.176 1.162-1.83 1.127-2.7 1.127-1.232-.035-2.428-.282-3.554-.74-.633-.247-1.23-.528-1.83-.88s-1.126-.845-1.724-1.233c-.246-.106-.563.176-.422.423zm-6.545-5l.598 4.826c.035.246.352.387.563.317.246-.07.352-.317.317-.564l-.774-4.685c-.07-.352-.74-.282-.704.106z"/><path d="M44.075 85.138c1.548 1.4 3.378 2.57 5.172 3.663.457.282.88-.458.422-.704l-5.243-3.38c-.282-.176-.598.2-.352.423zm5.35-.14c-.352.704-.352 1.514 0 2.22.106.176.352.247.493.14.176-.106.246-.317.14-.493-.035-.035-.035-.07-.07-.106 0-.035 0-.035-.035-.07.035.035 0 .035 0 0-.035-.07-.035-.14-.07-.2 0-.035-.035-.07-.035-.106 0 0-.035-.14 0-.07v-.423s.035-.14 0-.07c0-.035 0-.07.035-.106 0-.07.035-.14.07-.2 0-.035.035-.07.035-.106-.035.07.035-.035.035-.07.07-.176.035-.388-.106-.458-.2-.07-.422-.035-.493.14z"/><path d="M49.388 87.322l1.196.423c.2.07.422-.106.422-.317v-.845c0-.176-.14-.352-.352-.352-.176 0-.352.14-.352.352l.035.845.422-.317-.598-.176c-.2-.07-.422-.106-.598-.14-.14-.035-.317.035-.352.2-.07.14.035.282.176.317zm-1.488.352c1.372 1.4 2.92 2.606 4.68 3.522a24.29 24.29 0 0 0 2.674 1.127c.914.327 1.9.634 2.885.74.528.07.598-.775.14-.916l-2.674-.704c-.88-.282-1.76-.67-2.604-1.092-1.7-.845-3.272-1.832-4.75-3.03-.246-.176-.563.106-.352.352zm12.994-.95c-.14.634-.246 1.303-.246 1.972 0 .634.035 1.374.2 1.972a.5.5 0 0 0 .528.317c.246-.07.352-.317.317-.528l-.246-1.796c-.035-.6-.035-1.233.035-1.832 0-.387-.528-.423-.598-.106z"/><path d="M57.13 92.57c1.583.6 3.448-.317 4.046-1.867.07-.176-.07-.423-.246-.458-.2-.07-.387.07-.457.247-.457 1.198-1.935 1.867-3.167 1.515-.387-.14-.528.423-.176.564zm-11.894-9.475l.422 2.148c.035.176.282.317.457.247.2-.07.317-.247.246-.458l-.528-2.113c-.035-.176-.2-.247-.387-.2-.176.07-.246.247-.2.387zm1.794.88l.176 2.113c.035.176.14.317.317.317s.352-.14.317-.317l-.282-2.184c-.035-.14-.176-.2-.317-.2-.106.035-.2.14-.2.282zM33 40.722c.67.845 1.654 1.48 2.604 1.972.985.528 2.04.916 3.096 1.233 2.252.67 4.574 1.092 6.86 1.374 4.785.564 9.64.317 14.32-.634 2.64-.528 5.313-1.233 7.776-2.36.598-.247.176-1.268-.457-1.057-2.217.775-4.363 1.55-6.65 2.043-2.252.528-4.574.845-6.897 1.022-4.6.317-9.3-.07-13.723-1.198-1.16-.317-2.358-.67-3.448-1.162s-2.076-1.162-3.06-1.832c-.352-.247-.67.317-.422.6z"/><path d="M31.584 67.562c4.504 2.43 9.64 3.628 14.673 4.05a43.3 43.3 0 0 0 15.06-1.41c1.302-.352 2.604-.775 3.835-1.374 1.23-.564 2.287-1.34 3.272-2.254.563-.528-.352-1.444-.844-.845-1.513 1.726-3.835 2.57-5.982 3.205-2.358.704-4.785 1.198-7.213 1.444a43.57 43.57 0 0 1-14.637-.916c-2.674-.634-5.313-1.55-7.882-2.57-.387-.2-.67.458-.282.67zm30.718-33.814l1.76 1.62 1.83 1.585c.2.176.493.2.668 0a.49.49 0 0 0 0-.669l-1.83-1.62-1.935-1.585c-.176-.14-.422-.035-.528.106-.14.176-.14.423.035.563zm0 3.312c.633.493 1.232.986 1.794 1.585s.985 1.162 1.372 1.867c.14.247.493.352.74.2s.352-.493.2-.74c-.493-.705-.985-1.374-1.62-1.973-.598-.6-1.267-1.162-2.006-1.585-.176-.106-.422-.07-.528.106-.106.106-.14.387.035.528zm.458 4.437l3.237 3.346c.2.2.598.2.774 0 .2-.2.2-.564 0-.775l-3.343-3.24c-.422-.423-1.1.2-.67.67zm.562 5.003c.14.106.317.176.458.282.07.035.14.106.2.14 0 0 .14.106.035.035.035.035.07.035.106.07.28.2.528.458.774.74.106.14.246.247.352.388.035.035.07.07.07.106 0 0 .106.14.035.035.035.07.106.14.14.2l.598.916c.14.246.493.352.74.176s.317-.458.176-.74c-.668-1.4-1.83-2.57-3.202-3.276-.246-.14-.563-.07-.704.176-.07.282 0 .6.2.74zm0 4.26c1.267.775 2.357 1.832 3.06 3.135a.61.61 0 0 0 .774.21c.246-.176.387-.493.2-.775-.88-1.4-2.076-2.642-3.554-3.417-.246-.106-.528-.07-.67.176s-.035.563.176.67zm.14 5.18s.14.07.035 0c.035 0 .07.035.106.035l.2.106.387.2c.14.07.246.176.387.246 0 0 .14.106.035.035.035.035.07.035.07.07.07.035.105.106.176.14l.317.317a.6.6 0 0 1 .14.176c.035.035.035.07.07.07-.07-.07.035.035 0 0 .176.246.352.528.493.8a.61.61 0 0 0 .774.21c.28-.176.352-.493.2-.775-.633-1.233-1.794-2.22-3.132-2.606-.246-.07-.563.07-.598.352-.106.282.035.493.317.6zm-.07 4.8a6.13 6.13 0 0 1 .81.493c.035.035.07.035.106.07.106.07-.07-.07.035 0 .07.035.14.106.176.14.106.106.246.2.352.317s.2.246.317.352c-.07-.07.07.106 0 0 .035.035.035.07.07.106.035.07.07.14.14.176.105.14.176.282.246.387l.106.2c0 .035.035.07.035.106s.07.176.035.035c.07.14.106.247.246.317.106.07.282.106.422.07.246-.07.493-.388.387-.67a5.99 5.99 0 0 0-1.196-1.902c-.528-.528-1.16-.95-1.9-1.162-.528-.035-.845.704-.387.95z"/><path d="M63.252 65.237a13.19 13.19 0 0 1 1.407 1.41c.035.035.035.07.07.07.106.14-.035-.035.035.035.035.07.106.14.14.2.106.14.176.282.28.388l.493.88c.14.282.528.352.774.2.28-.176.352-.493.2-.775a8.91 8.91 0 0 0-2.85-3.205c-.422-.246-.985.423-.563.775zM62.9 70.45c.14.07.246.14.352.247.07.035.105.07.176.106.035.035.07.035.07.07-.105-.07.035 0 .035.035l.633.564c.2.2.387.423.563.634 0 0 .07.106.035.035s.035.035.035.035c.035.07.07.106.106.176.07.14.176.246.246.387a.6.6 0 0 0 .774.211c.246-.14.387-.493.2-.775-.74-1.057-1.654-1.937-2.745-2.57a.48.48 0 0 0-.669.176c-.14.247-.07.528.176.67zm.07 3.628c.07.14.2.282.317.387s.176.2.28.282l1.795 1.796c.2.176.528.2.74 0 .176-.2.2-.528 0-.74L64.87 74.64c-.2-.176-.422-.387-.598-.564-.106-.106-.2-.176-.282-.282-.14-.106-.246-.247-.422-.317s-.387-.07-.528.07-.14.352-.07.528zm-.492 2.96a.73.73 0 0 0 .211.352c.07.07.106.14.176.176.106.14.246.247.352.388l.704.74c.176.2.563.2.74 0s.2-.564 0-.74l-.74-.704c-.14-.106-.246-.246-.387-.352-.07-.07-.14-.106-.176-.176-.105-.106-.2-.2-.352-.2-.14-.035-.282 0-.387.106a.36.36 0 0 0-.14.423z"/></g><g fill="#fff"><path d="M35.455 74.114l1.302 1.62 1.337 1.55c.176.176.528.2.704 0 .2-.2.176-.493 0-.705l-1.337-1.515-1.372-1.444c-.14-.14-.387-.176-.563-.035-.14.106-.2.352-.07.528zm.315-3.134c.88 1.585 2.04 3.064 3.413 4.262.2.176.528.2.74 0 .176-.176.2-.528 0-.74-1.302-1.162-2.463-2.466-3.413-3.945-.282-.458-1.02-.035-.74.423zm-.245-2.88l3.448 3.84c.176.2.528.176.704 0a.5.5 0 0 0 0-.704l-3.554-3.734c-.387-.423-.985.176-.598.6zm-.07-4.13c.88 1.444 2.04 2.747 3.413 3.734.2.176.563.035.704-.176.14-.282.035-.528-.176-.704-.14-.106-.246-.2-.422-.317-.14-.14-.317-.246-.457-.387l-.844-.8a14.1 14.1 0 0 1-1.443-1.796.46.46 0 0 0-.598-.176c-.2.176-.317.458-.176.634zm.14-3.7c.95 1.162 2.006 2.3 2.815 3.557.176.282.528.352.774.14.282-.2.246-.564.07-.8l-1.478-1.796c-.528-.6-1.056-1.162-1.654-1.656-.387-.317-.844.176-.528.564zm0-3.556l2.885 3.77c.14.247.457.317.704.176.2-.14.352-.458.176-.704-.915-1.374-1.97-2.712-3.237-3.77-.387-.282-.844.176-.528.528zm-.14-3.417c1.16.95 2.1 2.078 2.744 3.452.106.246.493.317.704.176.246-.14.317-.458.176-.705-.74-1.4-1.83-2.677-3.202-3.452-.352-.2-.74.282-.422.528zm-.035-4.86l2.78 3.628c.14.246.457.317.704.176.2-.14.352-.458.176-.704l-1.548-1.902a13.03 13.03 0 0 0-1.794-1.62c-.246-.176-.493.2-.317.423zm.457-4.016l1.513 2.043c.457.74.88 1.48 1.232 2.3.106.247.493.317.704.176.246-.14.282-.458.176-.704-.352-.8-.8-1.585-1.302-2.325-.528-.74-1.1-1.48-1.76-2.043-.387-.352-.88.176-.563.564zm.387-4.613c1.02 1.162 1.935 2.395 2.64 3.77.14.247.457.317.704.176s.317-.458.176-.704c-.774-1.4-1.76-2.747-2.956-3.804a.4.4 0 0 0-.563.564zm2.71-1.197l.74.845c.035.07.105.106.176.106.07.035.14.035.2.035.14 0 .317-.07.387-.176.105-.106.176-.246.176-.387s-.07-.282-.176-.387l-.774-.8c-.106-.106-.246-.176-.387-.176s-.282.07-.387.176-.176.246-.176.387c0 .035 0 .106.035.14.07.07.106.176.176.247z"/><path d="M36.72 35.932c.352.493.74.916 1.126 1.374l1.126 1.303c.176.2.598.2.774 0 .2-.2.2-.564 0-.775l-1.16-1.233-1.196-1.198c-.176-.14-.387-.176-.563-.035a.4.4 0 0 0-.106.564zm1.937-3.416l.563.634c.035.035.105.106.176.106.07.035.14.035.2.035s.14 0 .2-.035.106-.07.176-.106c.106-.106.176-.247.14-.388a.53.53 0 0 0-.141-.387l-.633-.564c-.035-.035-.106-.07-.14-.106-.07-.035-.106-.035-.176-.035s-.14 0-.176.035c-.07.035-.106.035-.14.106-.07.106-.14.2-.14.317v.14c-.035.14 0 .2.07.247z"/><path d="M38.27 32.022c.035.035.035.07.07.106s.07.106.106.14c0 .035.035.035.035.07.07.07.105.14.176.21.035.035.106.07.14.106.07.035.105.035.176.035s.14 0 .176-.035c.07-.035.106-.035.14-.106.035-.035.035-.07.07-.106.035-.07.07-.14.07-.247v-.14l-.105-.21c-.07-.07-.14-.106-.21-.176l-.035-.035c-.035-.035-.07-.07-.14-.106-.035-.035-.07-.035-.106-.07-.035 0-.07-.035-.106-.035s-.106-.035-.14 0c-.035 0-.07 0-.105.035-.035 0-.106.035-.14.07l-.07.07c0 .035-.035.07-.035.106s-.035.106 0 .14c0 .07.035.106.035.176z"/></g></svg>