<svg xmlns="http://www.w3.org/2000/svg" width="100" height="121" fill="none"><path opacity=".3" fill-rule="evenodd" d="M33.693 11.892v59.5c-.208.563-.075 1.475 2.125.625 1.19-.46 2.133-1.047 2.983-1.577 1.115-.695 2.07-1.29 3.205-1.36 1.6-.1 3.083.5 3.625.813l.5 7.375c-1.167.125-3.25.525-2.25 1.125 1.25.75 4.375 2 6 2s3.5-.562 3.688-1.5c.15-.75-1.02-1.812-1.625-2.25-.02-1.98.025-6.1.375-6.75.108-.2.13-.407.147-.595.056-.57.096-.984 2.54-.655 1.492.2 2.246.48 2.904.725.775.288 1.416.525 2.97.525 2.3 0 3.917-.542 4.437-.812l1.125-55.812c-2.23-1.5-8.6-4.5-16.25-4.5s-14.188 2.083-16.5 3.125zm16.5-.5c-2.437 0-5.812 1.875-.5 1.875s3.625-1.875.5-1.875z" fill="#effafe"/><path opacity=".8" d="M34.193 32.517c.125-3 4.625-4.75 15.375-4.75 6.66-.4 13.108 2 15.5 3.25.167 8.917.4 27.45 0 30.25-.5 3.5-8.875 4.5-16.375 4.5-6 0-12.167-2.333-14.5-3.5v-29.75z" fill="#fe6869"/><g fill-rule="evenodd"><path opacity=".4" d="M49.568 27.767c-10.75 0-15.25 1.75-15.375 4.75 0 2.97 5.803 2.725 11.26 2.495l4.116-.12c6.125 0 15.5-.187 15.5-3.875-2.392-1.25-8.84-3.65-15.5-3.25z" fill="#fff"/><path opacity=".2" d="M60.264 10.426l.617 59.466c2.3 0 3.917-.542 4.437-.812l1.125-55.812c-1.126-.758-3.31-1.898-6.18-2.84z" fill="#000"/></g><g fill="#181d23"><path d="M33.21 12.785c2.322-.458 4.61-1.268 6.932-1.832s4.68-.986 7.037-1.198c4.328-.387 8.69-.106 12.843 1.233 2.252.74 4.398 1.832 6.334 3.24.67.493 1.302-.634.633-1.092-7.565-5.46-17.453-5.53-26.18-3.522-1.372.317-2.71.67-4.01 1.057s-2.64.8-3.87 1.41c-.422.21-.106.775.282.704z"/><path d="M65.722 13.7c-.352 1.76-.352 3.593-.458 5.354l-.2 5.424-.317 10.954L64.5 57.27l.106 12.257c0 .916 1.407.916 1.407 0l-.105-21.732.422-21.732.2-6.13c.07-2.043.282-4.12.07-6.13-.07-.423-.774-.6-.88-.106zm-32.548-.563c-.176 3.804.07 7.608.14 11.377l.2 11.483a702.6 702.6 0 0 1-.07 22.789l-.317 12.892c-.035.95 1.407.95 1.443 0 .246-7.608.352-15.25.387-22.895l-.282-22.8-.246-6.4c-.106-2.15-.176-4.332-.457-6.48-.035-.493-.774-.528-.8.035zM47.25 12.6c.844-.387 1.724-.67 2.674-.634.457 0 .915.07 1.337.176.2.07.457.14.67.247.106.035.2.106.317.176.035.035.07.035.106.07s.035.035.035-.035c0-.035 0-.07.035-.106l-.07.07a1.72 1.72 0 0 1-.246.106 6.11 6.11 0 0 1-.774.176c-.528.106-1.1.176-1.618.176a9.04 9.04 0 0 1-1.689-.071c-.176-.035-.387-.035-.528-.14-.035 0-.105-.07-.07-.07-.07-.035.105-.106-.035.035.528-.564-.317-1.444-.845-.845-.387.423-.422 1.057-.07 1.55.352.458.915.6 1.478.634a11.59 11.59 0 0 0 3.66-.247c.528-.106 1.1-.247 1.478-.634s.387-.986-.035-1.338c-.387-.317-.95-.528-1.443-.634-.493-.14-1.02-.2-1.548-.2-1.16.035-2.287.352-3.167 1.127-.176.2.105.528.352.423z"/><path d="M34.898 17.153c1.16-1.902 2.85-3.522 5.032-4.086 1.09-.282 2.252-.247 3.343.07 1.16.317 2.006.986 2.85 1.796.387.387.81.775 1.302 1.057.563.317 1.196.458 1.83.563 1.16.21 2.393.352 3.554.176.563-.07 1.09-.247 1.583-.493.598-.282 1.056-.74 1.548-1.162.915-.775 2.04-1.303 3.237-1.374 2.533-.21 4.856 1.374 5.7 3.734.21.564 1.09.352.915-.247-.704-2.184-2.604-3.945-4.89-4.368-1.232-.246-2.534-.106-3.695.352-.563.247-1.126.528-1.62.916-.528.423-.985.916-1.583 1.233-1.126.634-2.533.564-3.8.388-.67-.106-1.337-.21-1.935-.423-.633-.246-1.09-.67-1.583-1.162-1.76-1.76-4.117-2.536-6.58-2.078-2.604.458-4.856 2.395-5.806 4.86-.106.352.422.564.598.247z"/><path d="M63.927 16.413c.246 3.522.528 7.044.563 10.567 0 .458.74.458.704 0-.106-3.558-.317-7.115-.88-10.637-.035-.176-.387-.14-.387.07zm-30.964 55.23c.704.88 1.935 1.022 2.956.74 1.302-.352 2.322-1.233 3.52-1.796s2.533-.95 3.87-.916c.422 0 1.478 0 1.618.493.106.317.07.704.106 1.02l.105 1.198.2 2.5c.07.88.07 1.796.246 2.642.14.67 1.126.493 1.16-.14.035-.775-.105-1.62-.176-2.395l-.42-4.625c-.07-.67-.387-1.233-1.056-1.48-1.232-.458-2.745-.352-3.976-.035-1.372.352-2.57 1.022-3.73 1.76-1.126.704-2.7 1.55-3.976.6-.317-.282-.704.07-.457.423zM52.386 76.6c-.07-1.76.035-3.522.387-5.248l.317-1.268c.105-.317.176-.704.457-.88.528-.317 1.443.035 1.97.176 1.654.458 3.272 1.057 4.96 1.303 1.654.2 3.237.07 4.75-.67.74-.352.07-1.515-.633-1.127-2.463 1.374-5.524.2-8.023-.528-1.1-.317-2.64-.916-3.694-.2-.528.352-.774.916-.95 1.515-.2.704-.387 1.444-.493 2.184-.246 1.62-.176 3.276.176 4.86.106.458.8.352.774-.106zm-18.65-15.887c.14 1.092.598 2.043 1.407 2.818.845.775 1.865 1.303 3 1.62 1.23.352 2.498.528 3.765.67l4.082.388c2.78.176 5.595.14 8.374-.035l4.047-.423c1.16-.176 2.357-.387 3.448-.8 2.358-.95 4.328-3.17 3.8-5.847-.176-.8-1.443-.458-1.23.352.493 2.043-1.267 3.77-3.026 4.438-1.02.387-2.1.6-3.167.74l-3.695.387c-2.498.176-4.997.247-7.495.106-2.428-.106-4.9-.317-7.284-.74-1.196-.2-2.393-.564-3.413-1.233-.88-.6-1.724-1.515-1.97-2.57-.14-.388-.67-.2-.633.14z"/><path d="M65.898 31.77c.352-1.127-.387-2.22-1.407-2.677-.493-.247-1.056-.317-1.583-.423l-2.006-.317-7.565-.88c-4.96-.387-10.063-.246-14.85 1.162a29.3 29.3 0 0 0-3.483 1.268c-.985.458-1.865 1.233-1.794 2.43.07 1.092.8 2.008 1.76 2.466 1.1.528 2.393.6 3.6.704 5.56.493 11.154.458 16.678 0l4.645-.458c1.302-.14 2.7-.2 3.906-.74 1.02-.458 1.76-1.303 1.83-2.43.07-.95-.457-1.973-1.478-2.184-.8-.176-1.126.986-.352 1.233.528.14.598.88.422 1.303-.282.775-1.232 1.057-1.935 1.198-1.056.2-2.182.317-3.272.423-1.196.14-2.393.247-3.6.352-4.82.387-9.7.528-14.532.2-1.196-.07-2.428-.176-3.624-.352-.844-.106-1.9-.282-2.393-1.057-.176-.282-.317-.6-.246-.916.07-.423.493-.67.88-.845.95-.458 1.97-.8 2.956-1.127 4.222-1.303 8.656-1.55 13.02-1.338 2.463.106 4.926.352 7.4.67 1.232.14 2.463.317 3.73.493.8.106 2.745.352 2.533 1.585-.106.564.633.775.774.247zm-.95-8.876c-.035 0-.07-.035-.106-.035.07.07.176.14.246.176-.106-.14-.2-.2-.387-.282h-.035c.106.035.07.035-.07-.035-.07-.035-.14-.035-.246-.035-.176-.035-.352-.035-.528-.035-.352-.035-.704-.035-1.1-.035-.352 0-.67.317-.633.634 0 .352.282.67.633.634l1.1-.035c.176 0 .352-.035.528-.035.07 0 .14 0 .246-.035.14-.07.176-.07.106-.035-.035 0-.035 0 0 0a.79.79 0 0 0 .387-.282c-.07.07-.176.14-.246.176.035 0 .07-.035.106-.035.14-.07.28-.176.28-.352s-.106-.317-.28-.352z"/><path d="M65.194 25.465c-.633-.2-1.372-.176-2.04-.2l-1.935.035c-1.337.07-2.7.2-4.046.423-.387.07-.563.528-.493.845.106.387.493.564.845.493a34.63 34.63 0 0 1 3.835-.528l1.935-.14c.633-.035 1.302 0 1.9-.14.387-.14.352-.67 0-.775zm.14 3.452l-2.57-.176c-.317-.035-.598.282-.598.6s.28.634.598.6l2.57-.176c.2-.035.457-.176.422-.423 0-.247-.176-.387-.422-.423zm-.95 3.135c-.422-.07-.88 0-1.302 0l-1.302.106c-.176.035-.317.07-.422.176a.65.65 0 0 0-.176.423c0 .317.282.634.598.6.493-.035.95-.14 1.443-.2.422-.07.88-.14 1.302-.282.2-.07.352-.247.317-.493-.07-.176-.246-.282-.457-.317zm0 3.663c-.774-.035-1.548.035-2.358.106-.387.035-.704.317-.633.74.035.176.106.317.246.423.176.14.352.14.563.106l2.287-.458c.2-.07.352-.282.317-.493 0-.247-.176-.423-.422-.423zm1.513 4.755c-.493-.493-1.407-.528-2.04-.6-.774-.106-1.548-.14-2.357-.14l-2.252.106c-.74.07-1.62.14-2.322.423-.317.14-.563.387-.493.74.035.317.317.634.67.6.74-.035 1.478-.282 2.217-.352l2.076-.14 2.076.07 1.126.106c.352.035.74.106 1.056-.035.352-.14.493-.528.246-.775zm-1.125 3.593c-.633-.176-1.337-.2-2.006-.2a10.04 10.04 0 0 0-2.041.211.65.65 0 0 0-.457.8c.106.387.457.528.8.458.317-.07.633-.106.915-.14a5.33 5.33 0 0 1 .809-.07l1.865-.106c.246-.035.422-.176.458-.423 0-.247-.14-.458-.352-.528zm-.142 2.994l-1.62.07c-.28 0-.528 0-.8-.035-.14 0-.246 0-.387-.035-.07 0-.14 0-.176-.035h-.14c-.176-.035-.352-.035-.528.07s-.282.282-.317.493c-.07.423.246.74.67.775 1.126.106 2.358.035 3.413-.387.2-.07.352-.282.317-.493 0-.247-.176-.423-.422-.423zm-.492 3.77h-.07l.28.106c-.2-.246-.563-.2-.88-.246l-.704.035-1.443.106c-.422.035-.74.352-.67.775a.84.84 0 0 0 .246.458c.176.14.387.14.598.106l1.407-.2c.246-.035.457-.07.704-.14.282-.07.633-.14.774-.423-.07.07-.14.106-.2.176h.035c.176-.07.28-.2.246-.388.035-.2-.14-.317-.317-.352zm1.512 3.84c-.2-.317-.493-.317-.844-.387l-1.196-.106-2.498-.07-4.926-.106c-.95-.035-.95 1.48 0 1.48h4.926l2.428-.035c.387 0 .8-.035 1.196-.07s.704-.035.915-.387c.07-.035.035-.2 0-.317zM64.63 58c-.88 0-1.724.07-2.57.14-.317.035-.633.282-.598.6 0 .282.28.67.598.6l2.7-.423c.246-.035.352-.317.352-.528-.07-.2-.28-.387-.493-.387zM44.786 77.56c.8 1.198 2.393 1.726 3.765 1.7.74-.035 1.443-.176 2.1-.458.317-.14.633-.317.95-.528.282-.2.668-.493.844-.8.2-.423-.246-1.02-.704-.704-.246.176-.457.423-.704.634a5.6 5.6 0 0 1-.774.458c-.528.247-1.126.388-1.7.388-1.267.035-2.358-.388-3.378-1.092-.246-.176-.563.176-.422.423z"/><path d="M45.806 76.926c-.844-.317-1.865.423-2.287 1.127-.176.247-.035.564.176.74 2.182 1.55 5.102 2.325 7.74 1.796 1.232-.246 2.428-1.092 2.57-2.43.105-1.233-.985-2.36-2.252-2.043-.704.176-.422 1.233.317 1.092.317-.07.704.176.81.458.176.387-.035.88-.282 1.197-.633.74-1.83.845-2.745.845-2.006.035-3.976-.634-5.63-1.796l.176.74c.387-.6.915-.634 1.478-.88.387-.246.21-.74-.07-.845z"/><path d="M46.967 80.272c-.422 2.3-.598 4.826.21 7.045.67 1.902 1.97 3.452 3.87 4.227.74.317 1.126-.986.352-1.233-1.583-.528-2.674-2.078-3.167-3.593-.67-2.043-.458-4.192-.528-6.305-.035-.423-.633-.528-.74-.14z"/><path d="M47.565 80.87c-.14 3.522.704 7.855 4.293 9.404.774.352 1.267-.8.457-1.057-1.407-.458-2.393-1.796-2.99-3.1-.774-1.69-.81-3.557-1.09-5.354-.105-.387-.67-.247-.67.106z"/></g><path d="M37.36 61.956c1.23-.845 2.358-1.796 3.413-2.853.176-.2.2-.563 0-.74s-.528-.2-.74 0a28.04 28.04 0 0 1-3.132 2.994c-.352.282.106.845.457.6zm.247-3.98c1.724-1.303 3.237-2.818 4.6-4.473.2-.246.246-.6 0-.845-.2-.2-.633-.247-.845 0-1.337 1.655-2.78 3.17-4.293 4.65-.317.352.14.986.528.67zm1.267-5.706l4.293-3.734c.246-.176.2-.634 0-.8-.246-.247-.563-.176-.8 0-1.478 1.162-2.885 2.43-4.117 3.874-.422.458.176 1.127.633.67zm-.458-3.97c.317.07.493-.07.704-.246l.563-.458 1.1-.916 2.146-1.867c.246-.2.2-.6 0-.8a.56.56 0 0 0-.809 0l-2.076 1.867-1.513 1.41c-.176.176-.422.387-.387.67 0 .106.106.317.282.352zm.784-3.462l4.96-4.227c.246-.2.2-.6 0-.8a.61.61 0 0 0-.81 0l-4.75 4.403c-.176.176-.176.458 0 .6.14.2.387.176.598.035zm-1.1-4.473c1.724-1.268 3.378-2.712 4.82-4.297.422-.458-.246-1.162-.704-.704L37.57 39.66c-.387.352.105 1.02.528.704zm-.246-3.77c1.97-1.127 3.8-2.57 5.5-4.086.493-.458-.246-1.233-.74-.74-1.618 1.515-3.343 2.853-5.102 4.192-.387.282-.07.88.352.634zm.28-4.544c.95-.387 1.83-1.02 2.674-1.62.844-.634 1.654-1.303 2.358-2.078.493-.528-.282-1.303-.774-.775l-2.18 2.008-1.126.845-1.267.845c-.176.14-.282.317-.176.528.07.176.317.317.493.247zm.633-5.142c.845-.564 1.62-1.198 2.393-1.796l2.287-1.867c.2-.176.2-.528.035-.74-.14-.2-.493-.317-.74-.14l-2.358 1.902-2.217 1.973c-.317.317.176.986.598.67zm-1.055-4.65c.457-.106.915-.317 1.337-.493a8.14 8.14 0 0 0 1.232-.634c.844-.458 1.62-.986 2.358-1.55.246-.176.176-.564 0-.775-.2-.2-.528-.176-.774 0-.67.564-1.372 1.057-2.1 1.515l-1.126.634-1.196.634c-.352.2-.106.74.282.67z" fill="#fff"/></svg>