<svg xmlns="http://www.w3.org/2000/svg" width="101" height="122" fill="none"><path d="M16.5 20.125l16.25-5 7.5 1.125 43.875 12.125L86.25 47.75l1.875 1.625v3.5l-1.875.625-1.125 9c-.2 1.9-3.417 10.042-5 13.875-.25.5-2.275 2.4-8.375 6s-13.042 4.167-15.75 4l-17.125-8.5c-4.3-2-15.958-10.333-21.25-14.25-.375-1.958-1.35-6.575-2.25-9.375s-1.042-6.75-1-8.375l-1.5-.75c-.208-.583-.65-2.275-.75-4.375s.458-3.875.75-4.5l1.5-.875c-.042-1.208-.1-4.05 0-5.75s1.458-7.042 2.125-9.5z" fill="#effafe"/><g fill="#7fa2f6"><path fill-rule="evenodd" d="M85.125 62.5l1.125-9-3.25.75-22.375-.75v4.75h2.75l3 4.25-.5 3.5-9 2.75-7.75-2.75-8.5-4.75-17-10.75L17 47.75l-2.625-1.875c-.042 1.625.1 5.575 1 8.375s1.875 7.417 2.25 9.375c5.292 3.917 16.95 12.25 21.25 14.25s13.208 6.5 17.125 8.5c2.708.167 9.65-.4 15.75-4s8.125-5.5 8.375-6c1.583-3.833 4.8-11.975 5-13.875z"/><path d="M55.093 20.352l3.544.98-.762-5.08C56.75 15.542 53.6 13.825 50 12.625s-7.333-1.25-8.75-1.125v5.026l2 .553v-2.704l4.625.75 6.875 3 .343 2.227z"/><path d="M41.25 21c.8 2.3 1.667.958 2 0v-3.92l-2-.553V21zM59 26.25c.083-.625.2-2.075 0-2.875-.074-.297-.2-1.077-.363-2.044l-3.544-.98.907 5.9c0 .292.375.875 1.875.875s1.375-.583 1.125-.875z"/></g><path d="M17.25 50.5v-6.125c.417 0 1.6.15 3 .75s3.25 2.167 4 2.875l-.75 5.625-6.25-3.125zm24 11v-3c.667 0 2.425.225 4.125 1.125s3.458 2.208 4.125 2.75l-.75 6.75c-.667-.583-2.5-1.95-4.5-2.75s-2.833-1.667-3-2V61.5z" fill="#4b5359"/><path opacity=".4" fill-rule="evenodd" d="M78.5 33.375l-14.625 5c-1.25 2.208-3.65 7.775-3.25 12.375s.167 6.75 0 7.25h1.75L66 60.625v5l-2.875 1V81.75l13.75-7C79 71.125 83.25 61.675 83.25 52.875c0-11-.5-19.5-4.75-19.5z" fill="#0a0a0a"/><g fill="#181d23"><path d="M78.42 33.674c.88.775 1.62 1.585 2.182 2.642s.915 2.254 1.16 3.417c.563 2.712.74 5.565.774 8.313.106 5.917-.704 11.8-2.322 17.47-.915 3.205-2.076 6.305-3.52 9.334-.387.845.844 1.585 1.267.74 2.64-5.565 4.47-11.518 5.348-17.61.422-3.064.668-6.13.633-9.228-.035-2.924-.21-5.917-.74-8.806-.493-2.57-1.583-5.847-4.152-7.08-.493-.21-1.056.423-.633.8z"/><path d="M77.9 74.075c-.633.14-1.23.458-1.794.775l-1.794.95-3.52 1.832-7.213 3.522c-.598.282-.176 1.338.458 1.092 2.498-1.022 4.9-2.3 7.284-3.522l3.554-1.937c1.126-.634 2.428-1.233 3.307-2.184.2-.247 0-.6-.28-.528zM66.315 60.443c-.2.95-.28 1.937-.317 2.923s-.035 2.008.106 2.96c.106.6 1.02.458 1.02-.14 0-.493-.07-.95-.106-1.444-.035-.458-.035-.916-.035-1.374l.035-2.818c.035-.423-.598-.528-.704-.106z"/><path d="M66.5 64.88l-4.398 1.726c-1.478.528-3.026.95-4.54 1.303-.74.176-.422 1.268.317 1.127a36.3 36.3 0 0 0 4.609-1.374c1.478-.564 3-1.162 4.363-1.972.352-.282.106-1.022-.352-.8zm19.952-17c.176-1.585 0-3.276-.14-4.86l-.457-4.685-.563-4.685-.704-4.826c-.106-.986-1.548-.8-1.337.176l.74 4.826.598 4.65.528 4.685c.176 1.585.28 3.24.67 4.8.105.423.633.282.668-.07zm-7.46-14.865c-.74-.07-1.583.282-2.287.493l-2.322.74-4.54 1.48c-2.533.8-5.243 1.62-7.178 3.522-.528.528.246 1.303.8.8 2.006-1.796 4.6-2.57 7.108-3.38l4.47-1.444 2.146-.705c.668-.2 1.513-.458 2.04-.916.176-.282 0-.563-.246-.6z"/><path d="M62.832 38.817c-.704.986-1.126 2.325-1.478 3.487-.352 1.233-.598 2.5-.774 3.77-.352 2.607-.387 5.248-.317 7.855l.07 2.184c.035.74 0 1.55.176 2.254.14.528 1.056.6 1.16 0 .106-.8-.035-1.69-.07-2.5l-.106-2.5.07-4.825c.105-1.585.282-3.17.598-4.72l.598-2.36.74-2.325c.14-.458-.422-.634-.67-.317z"/><path d="M61.143 58.964c.035 0 .035-.035.07-.035s0 0-.07.035c0 0 .14-.035.176-.07.07-.035.14-.07.246-.07.14-.035.317-.106.457-.106h.035c.035 0 .035 0-.035 0h.352c.21 0 .387 0 .598-.035.176-.035.317-.21.352-.388s-.07-.387-.21-.458c-.21-.106-.458-.14-.704-.106a4.09 4.09 0 0 0-.633.141c-.176.07-.387.14-.563.247-.106.07-.176.14-.282.21-.035.035-.106.07-.14.14.035 0-.035.07 0 0-.035 0-.035.035-.07.07-.106.106-.14.317-.035.423.106.07.282.07.457 0z"/><path d="M62.585 58.154c.493.704 1.16 1.303 1.794 1.902l1.9 1.796c.246.2.598.246.8 0a.6.6 0 0 0 0-.81c-.633-.6-1.302-1.127-2.006-1.7-.67-.563-1.337-1.162-2.1-1.585-.246-.176-.598.106-.387.388zm.352 8.77c-.176 1.268-.106 2.57-.106 3.874v9.475l.035 1.937a.58.58 0 0 0 1.16 0c.07-.634 0-1.303 0-1.937l-.176-9.686c-.035-1.268 0-2.536-.2-3.77-.105-.423-.67-.246-.704.106zM85.562 48.15c.598.634 1.302 1.198 2.006 1.796.2.176.528.2.74 0 .176-.176.2-.564 0-.74l-1.1-.845c-.387-.282-.74-.6-1.16-.845-.176-.106-.387-.035-.528.106-.106.176-.106.387.035.528z"/><path d="M87.357 49.524l.106 1.867.035 1.867c0 .6.95.6.95 0 0-.634-.035-1.268-.105-1.937-.07-.634-.14-1.303-.317-1.937-.106-.317-.704-.246-.668.14z"/><path d="M87.92 52.342l-4.082 1.62c-.246.106-.387.317-.282.6s.387.317.633.21l4.01-1.83c.317-.176.07-.704-.28-.6z"/><path d="M86.3 53.328c-.352.705-.422 1.55-.563 2.325l-.457 2.36-.985 4.8c-.704 3.135-1.548 6.27-2.78 9.228-.704 1.69-1.548 3.276-2.393 4.93-.317.634.563 1.162.95.564.915-1.338 1.62-2.888 2.217-4.403a42.91 42.91 0 0 0 1.654-4.649c.95-3.17 1.62-6.446 2.146-9.686l.387-2.677c.106-.88.352-1.867.246-2.747.035-.21-.317-.247-.422-.035z"/><path d="M80.214 76.505c-1.407.775-2.7 1.796-4.046 2.677l-4.222 2.466c-2.885 1.515-5.946 2.677-9.078 3.558-1.794.493-3.87 1.198-5.77.704-.74-.176-1.02.95-.317 1.127 1.794.423 3.624-.035 5.348-.458l4.9-1.515c3.167-1.198 6.228-2.677 9.043-4.544 1.583-1.022 3.237-2.15 4.47-3.593a.27.27 0 0 0-.317-.423zM49.285 62.17c-.317 1.162-.457 2.325-.528 3.522l-.105 1.796c-.035.6-.106 1.198-.035 1.796.07.634.95.67 1.02 0 .07-.6 0-1.198 0-1.796l.105-5.248c.035-.317-.387-.387-.457-.07z"/><path d="M48.827 68.72c-2.146-2.008-4.89-3.487-7.6-4.614a.5.5 0 0 0-.387.916c1.337.564 2.64 1.198 3.906 1.937l3.695 2.254c.317.176.67-.247.387-.493z"/><path d="M41.403 65.022l-.14-3.205c0-1.057.106-2.148.246-3.205l-.704.387c2.498.705 4.996 1.76 7.178 3.205.633.423 1.302-.67.598-1.057-2.393-1.374-4.82-2.536-7.46-3.276-.282-.07-.67.106-.704.388-.14 1.127-.176 2.3-.14 3.452.07 1.127.14 2.3.493 3.346.14.352.633.317.633-.035zM23.88 48.714l-.246.634-.106.564-.176 1.268-.14 2.536c0 .6.95.6.915 0-.035-.845 0-1.655.035-2.5l.105-1.233c0-.2.035-.387.035-.6.035-.247-.035-.458-.035-.67.07-.2-.28-.247-.387 0z"/><path d="M23.493 53.293l-2.674-1.55-2.744-1.48c-.493-.21-.704.528-.352.8.422.282.88.493 1.302.74l1.372.704 2.745 1.338c.387.176.704-.352.352-.564z"/><path d="M17.863 50.475c-.035-1.198-.2-2.36-.317-3.557-.035-.528-.14-1.092-.07-1.62.07-.458.352-.458.74-.352 1.02.247 2.006.775 2.885 1.303.95.528 1.865 1.162 2.744 1.832.457.352 1.1-.423.633-.8-1.02-.845-2.076-1.585-3.272-2.184l-1.724-.8c-.528-.2-1.056-.423-1.62-.423-.528 0-1.1.2-1.337.74-.28.528-.14 1.197-.07 1.796.14 1.4.282 2.853.74 4.2.106.317.67.282.67-.106zm38.424 35.293l-7.882-3.698-7.74-3.9c-5.102-2.782-10.028-5.847-14.778-9.193-2.674-1.902-5.278-3.874-7.8-5.953-.563-.458-1.407.352-.8.8 4.573 3.7 9.333 7.15 14.283 10.276s10.1 5.917 15.377 8.418c2.956 1.374 5.982 2.783 9.148 3.663.282.106.457-.282.2-.423z"/><path d="M18.532 63.86c.035-.704-.387-1.48-.598-2.113l-.67-2.008c-.457-1.4-.8-2.818-1.126-4.262-.633-2.853-1.1-5.812-1.126-8.77 0-.8-1.337-.8-1.267 0 .2 3.03.528 6.023 1.23 8.982l1.23 4.332.8 2.148c.246.634.493 1.444 1.02 1.902.14.2.493.07.493-.2zm38.705 4.8c-2.252-.493-4.398-1.4-6.37-2.606-.458-.282-.845.458-.422.704a19.57 19.57 0 0 0 6.685 2.289c.246 0 .352-.317.105-.387z"/><path d="M40.84 61.36l-7.706-5.424-7.8-5.248c-.528-.352-1.02.493-.493.845l7.846 5.213 7.952 5.037c.246.14.422-.247.2-.423zM16.667 47.517c-.07-.07-.106-.106-.14-.2s-.14-.2-.2-.282l-.387-.387-.88-.775-.88-.74-.422-.352-.246-.247a.67.67 0 0 0-.352-.176c-.422-.14-.74.352-.563.705.07.106.106.176.2.282l.317.2.387.317.915.74.915.704.493.352c.106.07.2.14.317.14a1.73 1.73 0 0 1 .246.106c.246.14.457-.176.28-.387z"/><path d="M13.817 44.7c-.457-1.41-.915-2.818-1.02-4.297-.07-1.48.105-2.96.598-4.368.246-.74-.915-1.057-1.16-.317-.95 2.924-.81 6.727 1.126 9.228.176.247.528 0 .457-.247z"/><path d="M12.937 36.386a1.65 1.65 0 0 0 .598.106c.246-.035.493-.07.74-.176.387-.176.704-.493.95-.845.14-.246.07-.634-.2-.775s-.598-.07-.774.2c-.035.035-.07.07-.07.106l.106-.106a2.02 2.02 0 0 1-.387.387l.106-.106a3.53 3.53 0 0 1-.528.317c.035 0 .07-.035.14-.035-.2.07-.422.176-.633.2-.14.035-.282.2-.282.387-.035.14.07.282.246.317zM65.6 61.535c-1.16.176-2.287.528-3.448.775-1.16.2-2.357.423-3.554.387-.598 0-.528.916.106.845l3.624-.528c1.126-.246 2.393-.528 3.413-1.127.176-.14.035-.387-.14-.352z"/><path d="M56.252 62.944l-16.573-8.9a444.88 444.88 0 0 1-16.221-9.581l-8.937-5.67c-.457-.317-.88.458-.422.74 5.278 3.417 10.626 6.728 16.045 9.898a500.87 500.87 0 0 0 16.432 9.193c3.132 1.656 6.228 3.3 9.43 4.825.282.106.563-.317.246-.493zm-41.555-26.17c.598.67 1.337 1.198 2.006 1.726l2.1 1.55c1.478 1.02 3 1.902 4.574 2.712.457.247.88-.458.422-.704-1.548-.775-3.06-1.7-4.54-2.642l-2.1-1.48-2.1-1.62c-.28-.2-.563.2-.352.458zM59.102 26.03c-.105.106-.2.14-.352.2l-.387.2c-.035 0-.07.035-.106.035-.035.035.035 0-.035 0-.07.035-.14.035-.2.07s-.14.035-.2.035.035 0-.035 0h-.528c-.14 0 .106.035-.035 0-.035 0-.07 0-.106-.035-.07 0-.14-.035-.2-.07-.035 0-.07-.035-.106-.035.07.035-.035-.035 0 0l-.2-.106c-.035-.035-.07-.035-.07-.07-.07-.07-.035-.035 0 0l-.176-.176a.49.49 0 0 0-.669 0 .49.49 0 0 0 0 .669c.563.564 1.372.8 2.146.705.387-.035.74-.176 1.056-.352.176-.106.352-.247.457-.423.106-.14.176-.317.2-.493.106-.176-.246-.352-.422-.176z"/><path d="M56.322 26.242l-.528-4.086-.14-4.156c0-.74-1.126-.74-1.16 0a34.04 34.04 0 0 0 .246 4.227c.176 1.374.422 2.783.88 4.12.14.317.74.282.704-.106z"/><path d="M55.442 18.035c-1.794-1.092-3.8-1.796-5.806-2.466l-2.99-.916-1.513-.387-.81-.21c-.282-.035-.528 0-.81.035-.176 0-.352.106-.352.282-.21 1.057-.246 2.15-.352 3.24l-.246 3.31c-.14.845 1.16.95 1.126.14-.035-1.092.07-2.22.14-3.31l.07-3.31-.563.317c.246.14.422.282.67.388l.74.176 1.513.387 2.99.916 5.91 2.043c.387.106.598-.423.282-.634z"/><path d="M42.95 21.24c-.035.035-.035.035 0 0-.035 0-.035 0-.035.035-.035 0-.07.035-.106.035-.07 0-.14.035-.21.035h-.035c-.035 0-.035 0 0 0h-.352c-.07 0-.14-.035-.21-.035-.035 0-.07-.035-.105-.035s-.035 0 .035 0c0 0-.035 0-.035-.035-.07-.035-.106-.07-.176-.106-.176-.106-.458-.035-.528.14-.106.176-.07.423.14.528a1.73 1.73 0 0 0 1.02.211 1.24 1.24 0 0 0 .493-.106c.176-.07.317-.176.493-.282.106-.07.106-.247.035-.352-.176-.07-.317-.07-.422-.035z"/><path d="M41.368 21.276c.2-1.655.176-3.38.2-5.072l.2-5.072c.07-.775-1.23-.8-1.23 0 .035 3.38-.352 6.833.2 10.18.106.387.563.282.598-.035zm18.086 4.262c.106-3.17-.352-6.27-1.337-9.3-.2-.67-1.267-.388-1.02.282.985 2.888 1.583 5.953 1.76 9.017.035.352.563.352.598 0z"/><path d="M57.624 16.028c-2.287-1.515-4.785-2.818-7.354-3.77-2.674-.986-5.454-1.444-8.34-1.303-.774.035-.74 1.233 0 1.162 2.745-.2 5.454.246 8.058 1.127 2.534.88 4.9 2.184 7.284 3.38.387.176.704-.352.352-.6zM83.416 27.44c-.704-.317-1.478-.528-2.252-.74l-2.252-.704-4.6-1.374L59.84 20.5c-.704-.2-1.02.916-.317 1.092l9.254 2.606 9.254 2.57 2.533.67c.88.2 1.76.493 2.64.6.352.035.493-.458.2-.6zm-28.642-7.467c-.74-.387-1.583-.564-2.393-.8l-2.498-.74-5.032-1.4c-.598-.14-.8.704-.246.916 1.654.564 3.343.95 5.032 1.374l2.533.67c.8.2 1.62.493 2.463.528.282 0 .387-.423.14-.528zm-13.37-3.945c-.035 0-.035-.035-.07-.035l.14.14c-.106-.2-.282-.282-.493-.387-.176-.106-.352-.176-.563-.282l-3.378-1.48c-.317-.14-.67-.07-.8.282s.07.67.387.775l2.287.916 1.126.458.563.2c.2.07.422.14.633.07h-.2c.035 0 .07.035.07.035.422.07.704-.528.317-.704z"/><path d="M40.63 16.415c-.633-.21-1.337-.282-2.006-.423a15.96 15.96 0 0 1-1.865-.423l-3.835-1.127c-.704-.21-.915.8-.282 1.057 1.267.493 2.604.8 3.906 1.092l1.97.352c.67.106 1.372.21 2.04.14.317-.106.422-.564.07-.67z"/><path d="M33.944 14.407c-.74 0-1.548.176-2.287.282l-2.322.493L24.9 16.38c-2.956.916-5.876 2.043-8.69 3.31-.704.317-.105 1.41.633 1.057 2.744-1.268 5.595-2.36 8.48-3.31l4.328-1.268 2.217-.564c.74-.176 1.513-.317 2.217-.6.28-.07.28-.563-.14-.6z"/><path d="M16.386 20.36c-.563 1.127-.88 2.395-1.196 3.593l-.81 3.77c-.422 2.536-.668 5.107-.74 7.68 0 .8 1.232.8 1.267 0a52.51 52.51 0 0 1 .633-7.432l.704-3.628.88-3.663c.07-.423-.493-.775-.74-.317z"/><path d="M15.54 20.43c.457 1.127 1.337 1.867 2.357 2.43 1.232.704 2.533 1.233 3.835 1.832l8.445 3.77L35 30.504c.282.106.633-.14.704-.387.106-.317-.106-.6-.387-.704l-8.128-3.417-7.917-3.487c-1.16-.564-2.358-1.198-3.06-2.325-.246-.282-.8-.106-.668.246zm41.204 38.5c-.2-5.424-.176-10.813.176-16.238.035-.704-1.02-.704-1.1 0a86.39 86.39 0 0 0 .352 16.238c.035.352.563.352.563 0zm-2.287-20.254c-1.302-1.655-3.272-2.57-5.208-3.24-2.04-.704-4.187-1.198-6.122-2.148-.493-.247-.915.493-.422.74 3.73 1.867 8.27 2.043 11.4 5.002.2.2.528-.106.352-.352zm6.44-2.57c-.88.14-1.795.2-2.674.07-.2-.035-.422.07-.457.317s.14.387.352.423c.985.106 1.97.035 2.885-.317.352-.106.2-.528-.106-.493zM56.64 68.897c-.317.564-.246 1.444-.317 2.078l-.14 2.113-.246 4.368-.2 4.368-.176 4.368c.035.845 1.196.8 1.302 0 .176-1.444.14-2.923.176-4.368l.14-4.368.106-4.368.035-2.113c0-.67.105-1.48-.176-2.078-.07-.246-.387-.2-.493 0z"/><path d="M53.578 68.333c-.035.528.106.986.246 1.48a16.52 16.52 0 0 0 .493 1.409c.352.95.774 1.867 1.232 2.782.317.6 1.23.07.915-.528-.457-.845-.88-1.726-1.232-2.606l-.493-1.303c-.176-.493-.317-.95-.598-1.374-.14-.282-.528-.176-.563.14zm-2.78-.8c.458 1.7 1.16 3.3 1.83 4.93l2.322 4.755c.352.6 1.267.07.95-.564l-2.322-4.65-2.04-4.8c-.176-.388-.845-.106-.74.317zm-2.463 1.657c.2.916.67 1.76 1.056 2.606l1.16 2.747 2.146 5.46c.246.634 1.302.388 1.056-.282l-2.217-5.565-1.23-2.712c-.422-.88-.8-1.83-1.408-2.606-.2-.282-.633.035-.563.352zM42.8 67.312l2.463 5.072 2.428 5.072c.282.634 1.23.07.95-.564l-2.463-5.072-2.78-4.896a.36.36 0 0 0-.598.388zm-6.8-6.446c.457 1.162 1.02 2.254 1.548 3.38l1.548 3.346 3 6.833c.246.564 1.267.14 1.02-.423l-3-6.798-1.583-3.3-1.76-3.346c-.282-.352-.95-.14-.774.317zm-7.178-5.142l3.413 7.538 3.52 7.573c.317.634 1.196.07.915-.528l-3.52-7.467-1.76-3.628-1.865-3.77c-.176-.387-.88-.14-.704.282zm-5.947-3.487c.67 2.466 1.62 4.86 2.604 7.22l3.202 6.94c.317.634 1.302.07.985-.564l-3.202-6.798-2.85-7c-.176-.458-.88-.282-.74.2zm-4.433.21c.2.95.598 1.867.915 2.782l1.02 2.747 2.287 5.4c.317.67 1.302.106.985-.6l-2.322-5.354-1.056-2.677-1.056-2.712c-.176-.388-.88-.035-.774.423zm-3.765-1.868c.28 1.233.8 2.43 1.337 3.557l1.7 3.417c.352.634 1.337.07.985-.564l-1.724-3.3-1.478-3.417c-.246-.458-.915-.14-.8.317zm35.045-13.278c.07.986.352 1.937.598 2.888l.844 2.888c.633 1.867 1.407 3.734 2.322 5.495.317.563 1.126.07.88-.493L52.1 42.726l-.88-2.712-.774-2.818c-.14-.352-.74-.352-.704.106zM45.414 34.8c-.28 1.4.317 2.818.88 4.086l1.83 3.9 1.76 3.945c.528 1.338.915 2.677 1.23 4.086.14.67 1.056.352.985-.282-.387-2.747-1.654-5.354-2.85-7.784l-1.83-3.734c-.598-1.268-1.372-2.677-1.23-4.12.07-.458-.67-.563-.774-.106zm-4.89-.42c.528 1.55 1.196 3.03 1.83 4.544l1.935 4.544 3.94 9.087c.246.528 1.16.14.95-.387l-3.906-9.052-1.97-4.473-2.076-4.5c-.2-.423-.845-.176-.704.247zm-4.61-1.94c.633 3.205 1.83 6.305 3.132 9.264l2.1 4.368c.704 1.374 1.337 2.818 1.478 4.368.07.67 1.126.705 1.056 0-.105-1.62-.668-3.064-1.372-4.508l-2.146-4.297c-1.407-3.064-2.463-6.2-3.52-9.404-.14-.458-.8-.282-.74.2zm-7.776-3.274l3.624 8.7L35 46.777c.2.634 1.23.387 1.02-.282l-3.237-8.982-3.94-8.665c-.2-.352-.88-.106-.704.317zm-5.384-2.606c.985 2.853 2.252 5.67 3.413 8.453l1.724 4.156c.563 1.34 1.1 2.677 1.372 4.12.14.704 1.16.387 1.056-.282-.28-1.444-.8-2.818-1.407-4.156l-1.794-4.12-3.73-8.418c-.14-.387-.774-.14-.633.247zm-4.68-1.656c1.724 5.4 4.082 10.567 6.615 15.604.317.634 1.302.07.95-.564-2.64-4.93-4.75-10.074-6.8-15.287-.176-.423-.95-.247-.774.247zm-2.216 2.853L17.1 32.23l1.302 4.473c.2.704 1.302.423 1.126-.317l-1.337-4.438-1.443-4.438c-.2-.528-1.02-.317-.88.247zm57.846 7.115c-.88 5.4-1.02 10.92-1.056 16.38a197.05 197.05 0 0 0 .563 16.449c.2 3.1.528 6.234.88 9.334.035.387.28.704.704.704.352 0 .74-.317.704-.704-1.302-10.92-1.724-21.908-1.407-32.898l.246-9.158c0-.387-.563-.493-.633-.106zm-5.207 2.184c-.14 1.4-.07 2.818-.07 4.227l.106 12.645.035 16.696-.07 9.5c.035.88 1.267.845 1.337 0 .106-1.4.035-2.818.07-4.227l.035-4.227v-8.4l-.2-16.872-.14-4.755-.282-4.685c-.07-.493-.774-.317-.8.106zm-4.117 1.866c-.176 1.7-.106 3.417-.14 5.072V48.9l.07 10.003c0 .88 1.372.88 1.337 0l-.14-10.003-.14-4.896-.246-5.072a.37.37 0 0 0-.739 0z"/><path d="M64.697 66.36c-.14.6-.07 1.233-.07 1.832l.035 1.832.035 3.734-.035 3.663-.106 3.84c-.07.845 1.337.845 1.302 0l.035-3.733-.035-3.734-.106-3.663-.106-1.902c-.035-.6-.035-1.268-.2-1.832-.14-.388-.633-.423-.74-.035zM81.13 36.633c-1.7.2-3.378.8-4.996 1.338l-5.067 1.7c-3.308 1.162-6.615 2.43-9.852 3.77-.317.14-.528.423-.422.775.07.282.457.563.774.423 3.237-1.374 6.545-2.642 9.852-3.84l4.96-1.726c1.654-.564 3.413-.986 4.96-1.726.317-.176.176-.775-.2-.704zm1.652 4.227c-1.513.14-3.026.634-4.47 1.02l-4.54 1.34-8.797 2.96-4.96 1.867c-.8.282-.352 1.48.457 1.127 1.407-.634 2.885-1.127 4.328-1.7l4.363-1.55 8.832-2.818c1.654-.493 3.378-.845 4.926-1.55.422-.106.246-.74-.14-.704zm-.528 4.578c-.915.14-1.794.458-2.674.74l-2.64.916-5.102 1.726-10.38 3.346c-.774.247-.422 1.444.317 1.198l10.45-3.452 5.172-1.796 2.604-.95c.844-.317 1.724-.634 2.498-1.092.387-.2.14-.67-.246-.634z"/><path d="M83.38 50.687c-1.583.282-3.132.775-4.68 1.233l-4.715 1.444-9.254 2.853-5.313 1.62c-.774.246-.422 1.444.317 1.197l18.72-5.847 5.137-1.832c.457-.2.14-.74-.2-.67zm-.563 5.565c-.704 0-1.407.317-2.04.528l-2.006.634-4.152 1.233-4.117 1.057-2.146.493c-.704.14-1.478.2-2.146.458-.563.2-.528 1.162.14 1.127.704-.035 1.443-.282 2.146-.423l2.146-.493L74.9 59.74l4.222-1.303 2.076-.74c.633-.247 1.337-.458 1.865-.88.2-.176.035-.564-.246-.564zM81.48 61.7c-1.443.282-2.885.775-4.293 1.198L72.93 64.21l-8.585 2.395c-.774.176-.422 1.4.317 1.162l8.656-2.5 4.258-1.34c1.407-.458 2.85-.916 4.187-1.585.387-.176.106-.704-.28-.634zm-2.146 5.355C76.167 68.298 73 69.46 69.728 70.34c-1.548.423-3.096.74-4.6 1.127-.704.176-1.443.423-2.1.67-.74.282-1.407.704-2.1 1.057-.74.387.035 1.55.74.95.528-.458 1.302-.74 1.97-.986.704-.282 1.407-.458 2.146-.67l4.645-1.162c3.202-.88 6.334-2.008 9.324-3.487.387-.176.105-.95-.387-.775z"/><path d="M78.032 33.745c-.317 5.32-.21 10.637-.176 15.956l.07 15.78.035 8.947c0 .88 1.372.88 1.372 0l-.246-31.736c-.035-2.994-.07-5.953-.28-8.947-.07-.458-.74-.458-.774 0z"/></g></svg>