<?xml version="1.0" encoding="utf-8"?>
<!-- Generator: Adobe Illustrator 24.1.1, SVG Export Plug-In . SVG Version: 6.00 Build 0)  -->
<svg version="1.1" id="Layer_1" xmlns="http://www.w3.org/2000/svg" xmlns:xlink="http://www.w3.org/1999/xlink" x="0px" y="0px"
	 viewBox="0 0 101 122" style="enable-background:new 0 0 101 122;" xml:space="preserve">
<style type="text/css">
	.st0{fill:#EFFAFE;}
	.st1{opacity:0.2;enable-background:new    ;}
	.st2{fill:#A7CAFF;}
	.st3{fill:#FE6869;}
	.st4{fill:#181D23;}
</style>
<path class="st0" d="M52,32H7l1.5,54H92l1.8-55.5L52,32z"/>
<path class="st1" d="M83.1,82.5c0.2,1.5-0.6,3-1,3.5H14.8l-0.5-2.6c-0.3-1.4,0.8-2.9,1.4-3.5h64.3C80.9,80.1,82.9,81,83.1,82.5z"/>
<path class="st2" d="M12.3,76.3V36c4.3,0.5,14.8,1.5,21.8,1.5c8.8,0,19.3-1.5,30-1.5h24.5l-3,40.3H12.3z"/>
<path class="st3" d="M75.8,38.9c0-1.9,3.3-0.2,4.9,0.9c1.3-0.7,3.9-1.6,4,0s-2.6,3.6-4,4.4C79,43.2,75.8,40.8,75.8,38.9z"/>
<g>
	<path class="st4" d="M6.9,31.8c-0.2,3.5-0.2,7.1-0.1,10.7l0.1,10.7L7,74.5l0.1,12c0,0.4,0.3,0.7,0.7,0.7l33-0.5l32.8-0.1L92,86.7
		c0.9,0,0.9-1.4,0-1.4l-33-0.1l-32.8,0.3L7.8,85.8l0.7,0.7L8.3,65.2L8.1,43.8c0-4-0.1-8-0.4-12C7.7,31.2,6.9,31.2,6.9,31.8L6.9,31.8
		z"/>
	<path class="st4" d="M92.6,86c0.5-7.2,0.7-14.3,1-21.5l0.6-21.6l0.2-12.1c0-0.4-0.3-0.7-0.7-0.7c-11.2,0.7-22.5,1.2-33.8,1.4
		c-11.2,0.2-22.4,0.3-33.6,0L7.4,31c-0.9,0-0.9,1.4,0,1.5c11.3,0.5,22.5,0.8,33.8,0.8c11.2,0,22.4-0.2,33.6-0.7l18.8-1L93,30.8
		l-0.4,21.5l-1,33.7C91.5,86.7,92.5,86.7,92.6,86L92.6,86z M11.3,35.3c-0.1,1.4-0.1,2.8,0,4.1l0.1,4l1,33c0,0.8,1.3,0.8,1.3,0
		l-1.2-36.7l-0.3-4.6C12.1,34.7,11.4,34.9,11.3,35.3L11.3,35.3z"/>
	<path class="st4" d="M12.9,76.7c9.4,0.4,18.9,0.3,28.3,0.3L69.6,77l15.9-0.1c0.3,0,0.6-0.3,0.6-0.6l1.9-31.3l0.7-8.7
		c0-0.4-0.3-0.7-0.7-0.7c-9.8-1.2-19.6-0.7-29.4-0.1l-14.8,0.8c-4.9,0.1-9.9,0-14.8-0.1c-5.6-0.2-11.2-0.6-16.8-0.9
		c-0.9-0.1-0.9,1.4,0,1.4c9.9,0.6,19.9,1.2,29.8,1.1c9.8-0.2,19.7-1.2,29.5-1.4c5.5-0.1,11.1,0,16.6,0.7l-0.7-0.7
		c-0.9,10.4-1.5,20.9-2.1,31.3l-0.4,8.8l0.6-0.6l-28.3,0.2c-9.4,0-18.9,0-28.3,0c-5.3,0-10.6-0.1-15.9,0
		C12.3,75.8,12.4,76.7,12.9,76.7L12.9,76.7z M15.1,85.5C15,84.7,14.9,83.8,15,83s0.5-1.6,1-2.3c0.2-0.2,0.2-0.5,0-0.7
		c-0.2-0.2-0.5-0.2-0.7,0c-0.6,0.8-1.1,1.7-1.2,2.7c-0.1,1-0.1,2.1,0.5,2.9C14.7,85.9,15.1,85.8,15.1,85.5L15.1,85.5z M17.4,80.3
		c2,0.2,4.1,0.2,6.1,0.2h6.1l12.1,0l38-0.2c0.6,0,0.6-0.9,0-0.9c-8.1,0-16.2,0.1-24.3,0.1l-24.3,0.1l-6.8,0.1c-2.3,0-4.6,0-7,0.2
		C17.1,79.9,17.1,80.2,17.4,80.3L17.4,80.3z"/>
	<path class="st4" d="M80.1,80.2c1,0.2,1.8,0.7,2.3,1.6c0.5,0.9,0.3,2-0.2,2.8c-0.3,0.5,0.4,0.9,0.7,0.4c0.7-1.1,0.8-2.5,0.2-3.6
		c-0.6-1.1-1.6-1.7-2.8-1.8C79.8,79.6,79.7,80.2,80.1,80.2L80.1,80.2z M85,82.7c0.4,0,0.9-0.1,1.3-0.1l1.3-0.2
		c0.3-0.1,0.5-0.4,0.4-0.7c-0.1-0.3-0.4-0.5-0.7-0.4L86,81.5c-0.4,0.1-0.9,0.2-1.3,0.4c-0.2,0.1-0.2,0.3-0.2,0.5
		C84.7,82.5,84.8,82.7,85,82.7L85,82.7z M12.2,49c1.6,1.1,3.8-0.2,4-2l-1,0.1l1.5,4.6c0.1,0.4,0.7,0.5,1,0.1
		c0.7-1.4,1.3-2.9,1.8-4.4h-1c0.2,1.1,0.5,2.2,1,3.1c0.2,0.4,0.8,0.4,0.9,0l1.3-2.8l-1-0.1c0.9,5,1.9,9.9,3.1,14.8
		c0.2,0.7,1.2,0.5,1.2-0.2l0.7-12.8c-0.4,0.1-0.7,0.3-1.1,0.4l1,1c0.3,0.3,0.9,0.2,1-0.3c0.2-0.6,0.5-1.1,0.9-1.5
		c-0.3,0-0.6-0.1-1-0.1l1.1,1.7c0.2,0.2,0.4,0.3,0.7,0.3c2.3-0.4,4.6-0.7,7-0.7c-0.2-0.1-0.4-0.3-0.6-0.4l1.9,5.9
		c0.2,0.5,1.1,0.6,1.2,0l0.4-2.4c0.1-0.7,0.2-1.6,0.4-2.3c0.1-0.2,0.2-0.3,0.4-0.3c0.4,0,0.8,0,1.2,0l2.4,0c0.3,0,0.5-0.2,0.6-0.5
		c0.1-0.5,0.3-1.1,0.4-1.6c-0.4,0-0.8,0.1-1.1,0.1c0.3,0.7,0.8,1.2,1.4,1.6c0.2,0.2,0.5,0.1,0.8-0.1l1.3-1.1h-0.9l1.5,1.2
		c0.2,0.2,0.7,0.3,0.9,0c1.1-1.4,1.9-2.9,2.3-4.6h-1.2l2.8,15.9c0.1,0.3,0.4,0.5,0.7,0.5c0.4-0.1,0.5-0.3,0.6-0.7l1.5-11.5
		c-0.3,0.2-0.6,0.4-0.9,0.6c2.1,0.7,4.3-0.9,4.4-3c-0.4,0.1-0.9,0.1-1.3,0.2c0.3,0.8,0.7,1.6,1.2,2.3c0.3,0.4,0.8,0.4,1.1,0l1.6-2.1
		C60,48,59.6,48,59.2,47.9c0.2,0.9,0.6,1.6,1.1,2.3c0.2,0.2,0.6,0.2,0.8,0.1l2-1.2l-1-0.4c1.7,4.1,2.9,8.5,3.5,12.9
		c0.1,0.7,1.2,0.7,1.3,0l1.9-12.4l-1,0.4c2.2,1.3,5.2-0.1,5.8-2.5c-0.4-0.1-0.9-0.1-1.3-0.2c0.1,1.1,0.5,2,1.2,2.8
		c0.2,0.3,0.7,0.2,1,0c0.6-0.6,1.2-1.2,1.8-1.7c-0.3,0-0.7-0.1-1-0.1c0.3,0.7,0.6,1.3,0.9,2c0.2,0.4,0.8,0.4,1,0.1
		c0.4-0.4,0.9-0.8,1.3-1.2l-1.1-0.3l2.9,11.6c0.2,0.6,1.2,0.7,1.3,0l2.1-10.6c-0.3,0.2-0.6,0.3-0.9,0.5c1.6,0.3,3.3,0.1,4.9-0.5
		c0.3-0.1,0.6-0.5,0.5-0.8c-0.1-0.3-0.5-0.6-0.8-0.5c-1.3,0.5-2.7,0.7-4.1,0.5c-0.4-0.1-0.8,0.1-0.9,0.5l-2.1,10.6h1.3l-2.9-11.6
		c-0.1-0.5-0.8-0.6-1.1-0.3c-0.4,0.4-0.9,0.8-1.3,1.2c0.3,0,0.7,0.1,1,0.1c-0.3-0.7-0.6-1.3-0.9-2c-0.2-0.4-0.8-0.4-1-0.1
		c-0.6,0.6-1.2,1.2-1.8,1.7h1c-0.4-0.5-0.7-1.1-0.8-1.8c-0.1-0.7-1.2-1-1.3-0.2c-0.4,1.6-2.4,2.5-3.8,1.7c-0.3-0.2-1,0-1,0.4
		l-1.9,12.4H67c-0.6-4.4-1.9-8.8-3.6-12.9c-0.2-0.4-0.6-0.6-1-0.4l-2,1.2l0.8,0.1c-0.4-0.5-0.6-1.1-0.8-1.8
		c-0.1-0.6-0.9-0.6-1.2-0.2l-1.6,2.1h1.1c-0.5-0.6-0.8-1.3-1.1-2s-1.3-0.6-1.3,0.2c-0.1,1.3-1.6,2.2-2.8,1.7
		c-0.5-0.2-0.8,0.3-0.9,0.6l-1.5,11.5c0.4-0.1,0.9-0.1,1.3-0.2l-2.9-15.9c-0.1-0.6-1.1-0.6-1.2,0c-0.4,1.5-1.1,2.9-2,4.1h0.9
		l-1.5-1.2c-0.3-0.2-0.6-0.2-0.9,0l-1.3,1.1l0.8-0.1c-0.4-0.3-0.7-0.7-0.9-1.1c-0.2-0.5-1-0.3-1.1,0.1c-0.1,0.5-0.3,1.1-0.4,1.6
		c0.2-0.2,0.4-0.3,0.6-0.5l-2.8,0c-0.8,0-1.7-0.1-2.2,0.6c-0.4,0.6-0.4,1.6-0.5,2.4l-0.5,2.9h1.2L36,49.6c-0.1-0.2-0.3-0.5-0.6-0.4
		c-2.5,0.1-4.9,0.3-7.3,0.8c0.2,0.1,0.5,0.2,0.7,0.3l-1.1-1.7c-0.2-0.3-0.7-0.4-1-0.1c-0.6,0.6-1,1.2-1.3,2c0.3-0.1,0.7-0.2,1-0.3
		c-0.3-0.4-0.7-0.7-1-1.1c-0.4-0.4-1-0.1-1.1,0.4l-0.7,12.8c0.4-0.1,0.8-0.1,1.2-0.2c-1.2-4.9-2.3-9.8-3.2-14.7
		c-0.1-0.5-0.8-0.6-1-0.1l-1.3,2.8h0.9C19.9,49,19.6,48,19.4,47c-0.1-0.6-0.9-0.5-1,0c-0.4,1.5-1,2.9-1.7,4.2c0.3,0,0.6,0.1,1,0.1
		l-1.5-4.6c-0.2-0.5-0.9-0.4-1,0.1c-0.1,1.2-1.6,1.9-2.6,1.4C12.1,48.1,11.8,48.7,12.2,49L12.2,49z M81.5,40c0.6-0.3,1.3-0.8,2-0.5
		c0.6,0.3,0.5,0.9,0.1,1.3c-0.6,0.6-1.3,1.1-2,1.6l-2.4,1.7c-0.3,0.2-0.4,0.5-0.2,0.9c0.2,0.3,0.6,0.4,0.9,0.2l2.9-2.2
		c0.8-0.6,1.8-1.2,2.2-2.2c0.4-1-0.2-1.9-1.2-2.2c-0.9-0.3-2.1,0.2-2.7,0.9C80.9,39.7,81.2,40.1,81.5,40L81.5,40z"/>
	<path class="st4" d="M80.6,39.1c-0.5-0.7-1.4-1-2.2-1.2c-0.9-0.1-1.8,0-2.5,0.4c-0.4,0.2-0.7,0.5-0.8,1c-0.1,0.5,0.1,1,0.5,1.4
		c0.3,0.3,0.7,0.6,1,0.9l1.2,1l2.6,2.3c0.2,0.2,0.6,0.1,0.8-0.2c0.2-0.2,0.2-0.6,0-0.8c-0.7-0.8-1.6-1.5-2.4-2.2l-1.3-1.1
		c-0.4-0.3-0.8-0.6-1.1-1c0,0-0.1-0.1-0.1-0.2c0,0-0.1,0.1,0,0c0.1,0,0.2-0.1,0.3-0.2c0.4-0.2,0.8-0.2,1.1-0.2c0.4,0,0.8,0,1.2,0.1
		l1.2,0.5C80.4,39.9,80.8,39.4,80.6,39.1L80.6,39.1z M13.1,69.5c3.9,2.5,9,1.7,13.2,0.4c4.8-1.5,9.8-3.8,15-3
		c2.4,0.4,4.6,1.4,6.9,2.3c2.3,1,4.7,1.7,7.2,2c2.6,0.3,5.2,0.2,7.7-0.4c2.4-0.6,4.7-1.5,7-2.3c2.3-0.7,4.7-1.2,7.2-0.7
		c2.3,0.5,4.5,1.6,6.9,2c0.6,0.1,1.1,0.1,1.7,0.1c0.5,0,0.5-0.9,0-0.8c-2.4,0-4.6-1-6.9-1.7c-1.1-0.3-2.3-0.6-3.4-0.6
		c-1.2,0-2.3,0.1-3.5,0.4c-2.4,0.5-4.6,1.5-7,2.2c-2.5,0.8-4.9,1.2-7.5,1.2s-5.1-0.6-7.5-1.5c-2.3-0.9-4.5-1.9-6.9-2.6
		c-2.4-0.7-4.8-0.7-7.3-0.3c-2.5,0.4-5,1.3-7.4,2.1c-4.3,1.5-9.1,2.9-13.6,1.4c-0.6-0.2-1.1-0.4-1.6-0.7
		C13.1,68.9,12.9,69.3,13.1,69.5L13.1,69.5z"/>
</g>
</svg>
