<svg xmlns="http://www.w3.org/2000/svg" width="100" height="121" fill="none"><path d="M41.613 34.283c1.8-1.9 5.083-1.875 6.5-1.625 1.333 1.417 4.025 4.6 4.125 6s-.458 2.667-.75 3.125l12.5 13.375-5.433 6.418-12.425-13.93-2.642-2.487-4.625-5c.167-1.167.95-3.975 2.75-5.875z" fill="#4b5359"/><path d="M75.613 53.908c3.3 1.9-.042 6.625-2.125 8.75-5.875 6.25-10.25 8.25-14.375 7.25s.875-10.5 3-13.5 9.375-4.875 13.5-2.5z" fill="#effafe"/><path d="M26.05 17.65c-2.31 1.104-3.054 4.142-3.138 5.522L38.6 40.24c.084-1.004.88-3.59 3.39-5.9s4.895-1.966 5.773-1.506L31.697 16.27c-.92 0-3.338.276-5.648 1.38z" fill="#feb103"/><g fill="#fff"><path opacity=".4" d="M32.363 16.783l35.625 37c-6 1.1-9.167 5.708-10 7.875L23.113 23.033c.167-.542.875-2.25 2.375-4.75s5.208-2.042 6.875-1.5z"/><path opacity=".4" fill-rule="evenodd" d="M60.593 57.775L24.9 19.29c-1.102 1.95-1.645 3.277-1.788 3.742l34.875 38.625c.377-.98 1.23-2.456 2.604-3.883z"/></g><path d="M64.238 59.283c-1.6 1.1-2.5 3.375-2.75 4.375l13.5 14.875c.333.708 1.35 2.6 2.75 4.5 1.75 2.375 6 1.125 8.5-1.625s2.75-6.5 1.25-9.5c-1.2-2.4-4.5-2.167-6-1.75l-13-13c-.75.25-2.65 1.025-4.25 2.125z" fill="#4b5359"/><g fill="#181d23"><path d="M23.4 23.32l.554-1.316c.173-.45.38-.9.623-1.28.484-.83 1.107-1.558 1.868-2.147 1.66-1.247 3.84-1.662 5.812-1.178.865.208 1.245-1.143.38-1.35-2.387-.554-4.982-.104-6.92 1.385-.9.693-1.695 1.558-2.25 2.563-.277.485-.484 1.04-.657 1.558-.173.59-.173 1.074-.07 1.662.104.312.553.38.657.104z"/><path d="M31.736 17.294c.38.693.97 1.247 1.488 1.835l1.73 1.8 10.24 10.355L66.7 52.93c.657.658 1.66-.346 1.003-1.004l-33.35-33.41c-.657-.658-1.315-1.35-2.1-1.8-.3-.173-.727.208-.52.6zm-9.236 5.75c.865 1.35 2.04 2.528 3.148 3.706l9.93 10.77 20.826 22.475c.588.658 1.557-.312.97-.97l-13.32-14.337L30.698 30.35l-3.77-4.017c-1.245-1.316-2.422-2.736-3.875-3.8-.3-.277-.76.208-.553.52z"/><path d="M43.464 44.4c-.035.104-.035.104 0 0v-.208c-.035-.14-.138-.242-.208-.38a4.64 4.64 0 0 1-.242-.623c-.104-.485-.035-.97.07-1.42.277-1.074.97-2 1.764-2.736 1.626-1.5 3.98-2.182 6.158-1.662.796.208 1.142-1.04.346-1.247-2.1-.485-4.36-.07-6.192 1.108-1.73 1.108-3.252 2.978-3.4 5.125-.035.554.07 1.143.346 1.628a2.27 2.27 0 0 0 .519.623c.104.104.242.173.38.173.035 0 .104-.035.138-.035s.035 0 .07-.035c.07-.035.07-.035-.035 0 .208.035.38-.173.277-.312zm-4.36-4.007c.277-.97.52-1.905 1.003-2.805.45-.866 1.107-1.662 1.868-2.32.796-.623 1.73-1.074 2.698-1.316a5.32 5.32 0 0 1 1.488-.208c.553-.035 1.142.104 1.695.035.52-.07.588-.9.138-1.108-.52-.277-1.245-.242-1.834-.208-.623.035-1.245.104-1.834.277a8.43 8.43 0 0 0-3.183 1.628c-1.695 1.385-3.08 3.8-2.733 6.026.035.346.588.312.692 0zM26.685 17.26l-.104-.208c0 .104.035.208.035.312 0-.104.035-.208 0-.312a.56.56 0 0 0-.138-.242c.035.07-.07-.14-.07-.173-.035-.07-.07-.104-.104-.173-.173-.242-.38-.485-.588-.658-.242-.208-.52-.38-.83-.45-.138-.035-.277-.07-.415-.07-.3-.035-.52.14-.692.38l.38-.208c-.45.035-.865.173-1.176.52-.173.173-.277.38-.3.6-.07.312.138.6.277.866l.9 1.316.52.6.554.554c.207.242.623.173.796-.07.208-.242.138-.623-.138-.797-.208-.104-.38-.346-.554-.52-.207-.208-.38-.416-.588-.658a9.45 9.45 0 0 1-.865-1.385c0 .14.035.242.035.38 0-.07.035-.104.035-.173-.035.104.035-.035.035-.07s.035-.035.035-.07c-.035.035-.035.035 0 0l.104-.104c.035 0 .035-.035 0 0 .035 0 .035-.035.07-.035.035-.035.104-.07.138-.07-.07.035.07-.035.104-.035.07 0 .104-.035.173-.035l-.415-.104c.173.208.346.277.588.277.173 0-.07-.035.035 0 .035 0 .07.035.138.035 0 0 .138.07.035 0 .035.035.104.035.138.07a.26.26 0 0 0 .138.07c.034.035.07.035.104.07-.035-.035-.035-.035 0 0 .173.14.346.312.484.45l.104.104c.034.035.173.173.138.104a.56.56 0 0 0 .415.242c-.07-.035-.104-.07-.173-.104.035.035.104.104.138.173.104.14.346.14.484.035.07-.07.104-.242.035-.416z"/><path d="M23.26 15.598c-.346-.554-.692-1.04-1.142-1.524L18.2 9.85l-5.293-5.68c-.484-.52-1.245.277-.76.762l5.328 5.68 2.595 2.77 1.315 1.385.727.727c.242.208.52.38.76.554.242.104.553-.208.38-.45zM71.2 52.306c-1.176-.14-2.352.242-3.46.6-1.003.346-1.972.797-2.906 1.35-1.8 1.04-3.46 2.355-4.774 3.948-2.526 3.047-5.05 8.38-1.453 11.6 1.937 1.73 4.774 1.73 6.884.312.76-.52-.07-1.662-.796-1.04-1.418 1.177-3.702 1.073-5.085-.07a4.63 4.63 0 0 1-1.453-2.251c-.277-1.004-.07-2.043.242-3.013 1.072-3.498 3.667-6.407 6.78-8.277 1.903-1.143 4.013-1.905 6.158-2.493.346-.104.208-.623-.138-.658z"/><path d="M74.08 62.2c2.352-1.074 3.875-4.2 3.08-6.718-.727-2.355-3.4-4.12-5.812-3.3-.83.277-.484 1.593.346 1.316 1.8-.6 3.77.727 4.255 2.493.623 2.182-.796 4.225-2.353 5.6-.3.312.104.762.484.6zm-18.266-2.518l1.418 1.004c.138.07.346.035.415-.104a.33.33 0 0 0-.104-.416c-.45-.312-.934-.6-1.418-.866-.104-.07-.242-.035-.3.07a.26.26 0 0 0 0 .312zm9.618-7.826v.45c0 .07.035.173.104.208.07.07.138.104.208.104s.173-.035.207-.104c.07-.07.104-.14.104-.208v-.45c0-.07-.035-.14-.07-.208-.035-.035-.138-.104-.207-.07-.07 0-.138.035-.208.07-.104.07-.138.138-.138.208zm-20.1-12.016c.588 1.316 1.557 2.528 2.422 3.67l2.698 3.325a73.95 73.95 0 0 0 6.054 6.268l3.805 3.255c.415.346 1.038-.277.623-.623-4.497-3.636-8.614-7.757-12.177-12.328-1.003-1.28-1.903-2.7-3.044-3.844-.208-.208-.484.035-.38.277z"/><path d="M47.096 41.744l3-1.143c.208-.104.346-.277.242-.52s-.346-.277-.553-.173l-2.94 1.316c-.31.104-.104.623.242.52z"/><path d="M49.864 40.428L56.92 47.7c2.318 2.46 4.567 4.987 6.746 7.55.346.416.97-.173.623-.623-2.214-2.563-4.463-5.056-6.815-7.515-1.142-1.212-2.318-2.424-3.53-3.602-1.2-1.212-2.422-2.4-3.736-3.463-.242-.173-.554.14-.346.38zm-5.224.727c.38.866.657 1.766.865 2.7a.38.38 0 0 0 .484.277c.207-.07.3-.277.277-.485-.208-1.004-.588-1.94-1.072-2.805-.07-.14-.277-.208-.45-.104-.138.07-.173.242-.104.416z"/><path d="M45.712 43.5l-1.418.83c-.173.104-.242.346-.138.52s.346.277.52.14l1.384-1.04c.104-.104.104-.277.035-.38-.104-.104-.277-.138-.38-.07zm4.463-5.74c.692.104 1.35.554 1.6 1.212s.035 1.454-.45 1.94c-.346.38.207.935.588.6.727-.693.97-1.8.588-2.736-.38-.9-1.245-1.524-2.214-1.558-.346-.035-.45.485-.104.554z"/><path d="M45.297 41.05c.035-.035.035-.07.07-.104l-.035.035c0 .035-.035.035-.035.07.07-.07.104-.104.138-.173.035-.035.035-.07.07-.104 0 .035-.035.035-.035.07l.035-.035c.035-.035.035-.07.07-.104 0-.035.035-.07.035-.07.035-.07.035-.14.035-.208 0-.035-.035-.104-.07-.14s-.07-.035-.104-.07a.22.22 0 0 0-.207 0c-.035 0-.07.035-.104.07s-.07.07-.07.14c0 .035-.035.07-.035.104s-.035.07-.035.104-.035.07-.035.104v.07c0 .035-.035.07-.035.104s0 .104.035.14.07.07.104.07.07.035.138 0c0 .035.035 0 .07-.07zm.623 2.633l5.328 5.54 5.397 5.472c.3.312.76-.173.45-.45l-5.397-5.472-5.466-5.402c-.208-.208-.52.104-.3.312zm10.482 16.242l.692.935-.07-.07.208.346c.138.208.38.277.588.104a.4.4 0 0 0 .035-.589c-.104-.07-.173-.173-.277-.242-.07-.104-.173-.173-.242-.277l-.52-.554c-.104-.104-.277-.104-.415-.035-.035.07-.104.242 0 .38zm9.028-.97c1.6 2.528 3.53 4.848 5.362 7.17 1.8 2.286 3.702 4.502 5.777 6.5.484.485 1.246-.277.76-.762-2.076-1.974-3.978-4.156-5.777-6.407l-5.708-6.857c-.208-.173-.553.104-.415.346z"/><path d="M65.846 57.812c-1.038.312-1.937 1.108-2.664 1.905-.796.83-1.453 1.8-1.972 2.805-.52 1.074-.934 2.355-.415 3.498.45.935 1.453 1.593 2.49 1.316.588-.138.346-1.073-.242-.9-.9.243-1.557-.727-1.59-1.524-.035-.97.45-1.94.934-2.77.45-.762 1.003-1.49 1.626-2.113.623-.658 1.384-1.143 2.007-1.8.208-.208.035-.485-.173-.416z"/><path d="M65.26 58.817l2.802-.935c.865-.277 1.8-.554 2.733-.416.657.104 1.176.45 1.453 1.074.207.485.173 1.04-.242 1.42-.45.346.208 1.04.657.658 1.28-1.108.38-3.186-1.003-3.74-1.038-.416-2.214-.208-3.217.173-1.142.415-2.214.935-3.32 1.454-.242.035-.07.38.138.312zm-2.18 2.633l4.393 4.848 4.255 4.987c.3.38.865-.173.553-.554l-4.3-4.952-4.636-4.606c-.208-.208-.45.07-.277.277z"/><path d="M61.107 63.77c.45.762 1.107 1.42 1.66 2.112l1.695 1.974 3.287 3.775 3.32 3.636L72.764 77c.623.6 1.315 1.143 1.868 1.8.484.554 1.315-.346.657-.83-.657-.45-1.2-1.108-1.8-1.662l-1.695-1.732-3.356-3.636-3.252-3.67-1.73-1.94c-.588-.658-1.176-1.385-1.834-1.94-.3-.208-.727.035-.52.38zm7.393-6.235c1.695 2.286 3.736 4.363 5.777 6.337l3.148 2.978 3.252 2.84c.553.52 1.315-.38.657-.866-1.176-.83-2.214-1.87-3.286-2.84l-3.044-2.84-6.02-6c-.277-.208-.727.07-.484.38z"/><path d="M86.95 71.907c-.52-1.316-1.8-2.112-3.148-2.286-1.557-.208-3.08.312-4.324 1.212-2.49 1.766-4.705 4.918-4.636 8.104.035 1.49.623 2.944 1.73 3.948 1.072.935 2.422 1.454 3.84 1.558 3.08.208 5.708-1.87 7.126-4.433 1.66-3.013 1.937-7.065-.38-9.8-.588-.658-1.557.312-.97.97 1.695 1.974 1.59 4.918.692 7.203-.9 2.25-2.837 4.433-5.362 4.78-2.25.312-4.705-.866-5.293-3.186-.657-2.632 1.107-5.437 2.906-7.203 1.038-1.004 2.352-1.905 3.805-1.974 1.35-.07 2.698.416 3.563 1.455.173.138.553-.07.45-.346z"/></g><path d="M26.34 21.52v.035c0-.035.035-.07.035-.104l-.104.208c0 .035 0 .035 0 0-.035.07-.07.14-.07.208a.96.96 0 0 0 .035.312l.07.727c.035.485 0 .935-.035 1.42a.6.6 0 0 0 .553.554c.3 0 .52-.242.553-.554.035-.52 0-1.004-.07-1.524l-.138-.762a2.03 2.03 0 0 0-.138-.416c-.035-.035-.07-.104-.104-.14-.07-.035-.07-.035 0 0a.27.27 0 0 0-.138-.139c-.035 0-.07-.035-.104-.07l.07.07s0-.035-.035-.035c-.07-.104-.415 0-.38.208zm1.694 1.177c-.035.658.035 1.316.07 1.974l.138 1.974c.035.277.208.52.52.52.277 0 .553-.242.52-.52l-.207-2c-.07-.693-.138-1.385-.3-2.043-.104-.45-.726-.312-.726.104zm1.936 2.216c-.242 1.212-.207 2.528.035 3.74.07.277.415.45.657.38.3-.104.45-.38.38-.658a15.22 15.22 0 0 1-.242-3.325c0-.485-.727-.623-.83-.14zm1.697 2.424a15.04 15.04 0 0 0 0 1.766l.138 1.835c.035.242.346.38.554.38.242-.035.45-.242.45-.485a15.13 15.13 0 0 0-.104-1.766l-.242-1.835c-.035-.208-.277-.312-.45-.312-.173.035-.3.208-.346.416zm1.937 2.113c.346 1.004.588 1.94.554 2.978 0 .242.242.52.484.485a.47.47 0 0 0 .484-.485c0-1.108-.242-2.32-.9-3.255-.104-.14-.277-.208-.45-.14-.138.07-.242.242-.173.416zm2.214 3.082c0 .035 0 .07 0 0v.208c0 .035.035.104.035.14l.104.312c.07.242.138.45.173.693 0 .035 0 .035 0 0v1.143c0 .07 0 .07 0 0v.104c-.035.242.07.554.346.6.242.07.553-.07.588-.346.104-.554.07-1.108 0-1.697-.035-.242-.104-.485-.173-.727-.035-.14-.104-.277-.173-.416-.035-.07-.07-.138-.138-.208-.104-.07-.104-.07-.07-.07l-.07-.07c-.104-.104-.3-.14-.415-.07-.207.07-.242.242-.207.415zm2.387 2.008c0 .52.173 1.073.3 1.593l.346 1.524c.07.277.38.45.623.346.277-.104.415-.346.346-.623l-.415-1.524c-.138-.52-.242-1.074-.484-1.558-.138-.346-.727-.173-.727.242zm2.04 2.355c.035.07.035.173.07.242s.035.104.07.14c.07.14.104.242.138.346a5.97 5.97 0 0 1 .242.727l.104.38c0 .07.035.104.035.173v.104c0-.035 0-.035 0 .035a.44.44 0 0 0 .035.208c0 .035 0 .104.035.14v.035c.035.14.035.277.035.416 0 .242.207.485.484.485s.45-.208.484-.485c.035-.6-.035-1.177-.208-1.732-.07-.277-.208-.554-.346-.83l-.208-.38c-.035-.07-.07-.104-.104-.173l-.173-.173c-.346-.277-.796-.035-.692.346zm2.456 2.01c.035.346.104.693.173 1.04s.173.693.277 1.04l.553 2c.173.623 1.176.38 1.003-.277l-.588-2-.3-.97c-.104-.346-.208-.693-.38-1.004-.173-.346-.727-.208-.727.173zm2.838 2.978c-.035.312.173.623.277.866l.277.797c.035.138.07.242.07.38 0 .035 0 .07.035.104 0-.035 0-.035 0 .035s0 .14.035.208a6.68 6.68 0 0 1 .035.831c0 .242.207.485.45.52s.52-.104.553-.38c.035-.346.07-.658.035-1.004a5.2 5.2 0 0 0-.208-1.004l-.346-.9a2.58 2.58 0 0 0-.242-.416c-.138-.208-.277-.346-.484-.45a.42.42 0 0 0-.484.416zm2.386 2.458c.45 1.247.727 2.493.865 3.8.035.277.242.554.553.554a.57.57 0 0 0 .553-.554c-.035-1.455-.415-2.9-1.038-4.2-.277-.485-1.142-.14-.934.38zm2.457 2.494c.104.658.346 1.28.52 1.905l.657 1.87c.104.277.346.45.657.38.277-.07.45-.38.38-.658-.173-.658-.415-1.28-.657-1.905s-.45-1.28-.796-1.905c-.104-.173-.346-.242-.52-.173a.42.42 0 0 0-.242.485zm2.94 2.563l.554 2.216c.173.727.277 1.5.415 2.25.104.6 1.107.45 1.072-.14-.07-.797-.208-1.593-.415-2.4-.208-.762-.45-1.524-.76-2.25-.277-.485-1.003-.138-.865.312zm2.527 2.667c.173 1.212.45 2.424.727 3.636.07.312.415.52.726.416a.62.62 0 0 0 .415-.727l-.97-3.463c-.07-.208-.277-.38-.52-.346-.173.07-.415.242-.38.485zm2.455 2.806l-.07 1.143c0 .14.07.277.173.38s.242.173.38.173.277-.07.38-.173.173-.242.173-.38c0-.38-.035-.762-.07-1.143 0-.14-.035-.242-.138-.346a.53.53 0 0 0-.346-.139.44.44 0 0 0-.346.14c-.035.035-.035.07-.07.104-.07.07-.07.14-.07.242z" fill="#fff"/></svg>