<svg xmlns="http://www.w3.org/2000/svg" width="101" height="122" fill="none"><g fill="#fff"><path opacity=".3" d="M17.698 32.616c-2.863-1.12.373-4.98 5.602-10.83 1.867-3.113 7.097-5.353 8.84-4.98 1.394.3 1.08 2.034.747 2.863l44.446 45.567c2.386 2.262 6.15 7.794 2.117 11.828s-8.985 2.677-10.956 1.494L24.42 34.732c-2.79-2.4-3.652-2.407-3.735-2.117-.04.373-.697.897-2.988 0z"/><path opacity=".3" d="M77.333 65.235L32.887 19.668 27.75 26.25c-1.828 2.5-5.23 5.12-6.877 6.24-.11.01-.17.06-.187.126l.187-.126c.38-.037 1.386.39 3.548 2.242 2.79 2.4 30.544 30.212 44.073 43.824 1.97 1.183 6.922 2.54 10.956-1.494s.27-9.566-2.117-11.827z" fill-rule="evenodd"/></g><path fill-rule="evenodd" d="M77.333 65.235L53.967 41.28l-7.092 4.22c-2.6 1.7-3.96 5.42-4.316 7.065l25.935 25.99c1.97 1.183 6.922 2.54 10.956-1.494s.27-9.566-2.117-11.827z" fill="#fe6869"/><path opacity=".2" d="M46.625 46.25c2.3-3.2 5.958-3.833 7.5-3.75 0 1.25-.6 4.275-3 6.375-3 2.625-6.875 5.875-7.75 4.375s.375-3 3.25-7z" fill="#fff"/><g fill="#181d23"><path d="M17.412 32.8l.2.2c-.025-.025.224.174.15.1-.125-.075.224.125.2.1-.125-.075.025.025.1.05.224.075.473.125.722.125.672.025 1.294-.2 1.917-.472 1.643-.696 3.086-1.9 4.454-3a37.61 37.61 0 0 0 4.454-4.454c1.194-1.393 2.34-2.936 3.16-4.604.522-1.07 1.07-2.564.37-3.66-.722-1.12-2.166-1.072-3.26-.674-1.668.572-3.1 1.616-4.454 2.7-1.617 1.32-3.1 2.762-4.48 4.33-1.244 1.443-2.463 3-3.358 4.703-.572 1.12-1.243 2.638-.77 3.908a2.05 2.05 0 0 0 .498.797c.648.648 1.643-.348.995-.995l-.05-.05c.1.1-.025-.025-.05-.05s-.05-.1-.075-.124c.025.174-.025-.075 0 0-.025-.075-.075-.423-.05-.2-.025-.125 0-.25-.025-.373 0-.05.025-.125.025-.174 0-.1-.025.124 0-.05.025-.124.05-.3.1-.448l.124-.423.075-.224c0-.05.05-.1.05-.15-.05.1-.025.025.025-.025.67-1.518 1.666-2.96 2.637-4.18 1.22-1.518 2.587-2.936 4.055-4.255 1.294-1.144 2.563-2.164 4.08-2.985.15-.1.3-.15.473-.224.075-.025.174-.075.25-.1.025-.025.075-.025.1-.05-.05 0-.075.025 0 0 .274-.124.547-.2.846-.248.05 0 .124-.025.174-.025.1 0-.124.025.05 0 .125-.025.25 0 .35 0 .174.025-.124-.025.05 0 .05 0 .075.025.125.025.2.1.05 0 0 0 .025.025.1.05.125.075.174.174.075.025 0 0l.2.2c-.15-.15-.025-.025.025.025.025.025.025.075.075.125-.025-.075-.1-.2 0 0 0 .05.025.075.025.125.05.15 0-.1 0 .05 0 .1.025.224 0 .35 0 0-.025.224 0 .1 0-.1-.025.125-.025.174-.05.3-.174.572-.25.846-.025.025-.025.075-.05.1.075-.125.025-.025 0 0-.025.075-.05.15-.1.2-.075.174-.15.348-.25.498l-.572 1.02c-.448.747-.945 1.394-1.493 2.04a40.49 40.49 0 0 1-3.981 4.28c-1.344 1.244-2.613 2.314-4.155 3.26-.3.2-.622.373-.946.547-.124.075-.274.124-.398.2-.075.025-.15.05-.2.1-.025.025-.075.025-.1.05.1-.05-.075.025 0 0a6.56 6.56 0 0 1-.747.248c-.05 0-.224.025-.075.025h-.35c-.05 0-.075-.025-.124-.025-.324-.075.05.05-.125-.025-.075-.025.075.025-.025-.025-.025-.025-.1-.05-.125-.075-.498-.3-.846.348-.597.697zm25.552 21.172c.075.075.124.174.2.25.05.05.1.1.15.1-.15-.1.05.05.124.075.1.05.2.1.3.1.075.025.15.05.224.025-.174-.025.075.025.15 0a3.3 3.3 0 0 0 1.394-.248c1.294-.497 2.414-1.368 3.46-2.214 1.194-.995 2.34-2.1 3.334-3.284.92-1.07 1.8-2.24 2.413-3.5.423-.87.82-2.016.272-2.912-.573-.92-1.718-.972-2.664-.673-1.27.373-2.4 1.194-3.434 2-1.244.945-2.364 2.015-3.4 3.2-.945 1.095-1.9 2.3-2.537 3.583-.448.896-.895 2.04-.546 3.037a2.1 2.1 0 0 0 .448.697c.648.648 1.643-.348.995-.995l-.075-.075c.075.075.075.125.025.025-.025-.025-.025-.075-.05-.1.025.075-.075-.125 0 0-.025-.075-.05-.15-.05-.25.05.2 0-.05 0-.15v-.15c0 .05 0-.15 0 0 .025-.124.025-.224.075-.324a1.05 1.05 0 0 1 .099-.299l.075-.224c.472-1.12 1.22-2.165 1.915-3.06.92-1.12 1.916-2.165 3-3.1.945-.846 1.866-1.567 3.036-2.14l.324-.174c.025-.025.2-.1.124-.075s.1-.05.15-.05l.622-.174c.2-.05-.05 0 .124-.025h.3c-.1 0-.025.025.075.025.025.025.15.05.05 0s.025.025.05.05c.1.1-.125-.075.05.05l.025.025c-.075-.124 0 .05.025.025.025.025.025.075.05.1-.05-.1-.025-.124-.025-.025 0 .05.025.075.025.124 0-.15.025.075 0 0v.25c0 .1 0 .1 0 0 0 .05 0 .1-.025.174l-.174.622c0 .05-.05.15 0 .05-.025.075-.075.124-.075.174-.075.124-.1.25-.174.373l-.423.722c-.348.547-.697.995-1.07 1.468-.92 1.12-1.916 2.165-2.96 3.1-.995.896-1.9 1.642-3.036 2.338l-.697.398-.3.15c-.05 0-.1.05-.15.05-.1.05.075-.025-.075.025-.05 0-.1.05-.15.05s-.3.1-.15.05c-.075.025-.2.05-.274.075-.05 0-.075.025-.124.025.1 0-.05 0 0 0h-.25c.174.025-.25-.1-.124-.025.025.025-.075-.025 0 0-.025-.025-.075-.025-.1-.05-.324-.125-.846.348-.572.722z"/><path d="M20.176 33.025c1.17.424 2.3.947 3.312 1.67.97.673 1.818 1.52 2.665 2.366l6.55 6.5 13.225 13.275 19.402 19.6c.97.97 1.868 2.067 3 2.84.847.598 1.892.997 2.913 1.17 2.1.35 4.332.002 6.248-.968 1.618-.82 2.787-2.14 3.483-3.832.746-1.792.97-3.808.495-5.725-.25-1.046-.723-1.967-1.37-2.814-.673-.872-1.544-1.644-2.316-2.416l-21.87-22.113L39.763 26.2l-2.665-2.615a19.31 19.31 0 0 1-1.718-1.768c-.274-.324-.623-.97-.748-1.394-.3-.896-1.693-.55-1.42.373.45 1.444 1.47 2.515 2.54 3.536l4.98 4.93L51.37 40.036l11.283 11.382 10.784 10.834 4.93 4.93c1.42 1.42 2.118 3.163 2.044 5.18-.05 1.593-.62 3.36-1.64 4.58-1.194 1.393-3.1 2.114-4.903 2.313-2.066.223-4.083-.25-5.552-1.72L62 71.16 49.214 58.232 36.238 45.206l-6.575-6.526c-1.843-1.793-3.636-3.786-5.853-5.156-1.046-.648-2.14-1.047-3.336-1.296-.622-.175-.82.622-.298.796zm7.412-10.8c.398.15.822.224 1.22.324l1.245.3c.25.05.548-.1.597-.348s-.075-.573-.35-.598l-1.27-.225c-.423-.075-.87-.175-1.344-.2-.2 0-.373.174-.398.348 0 .15.125.324.3.4zm1.942 1.843c.598.05 1.095.1 1.693.25l.847.25c.25.1.473.175.747.35.224.125.548.05.697-.2.124-.224.074-.573-.2-.697-1.145-.548-2.465-.922-3.734-.8-.224.025-.423.174-.423.423-.025.224.15.398.374.423zm3.687 3c.025-.025-.05 0 0 0 .075.025.1 0 .124.025.1 0 .2.05.3.05h.05c-.05 0 .05 0 .05 0 .075.025.15 0 .224.025a8.25 8.25 0 0 1 .846.2c.124.025.25.1.373.125.025.025.075.025.1.05-.075-.025.075.025 0 0 .075.025.125.075.174.075.274.125.523.274.772.424s.647.05.77-.224.074-.622-.224-.772c-.548-.3-1.145-.548-1.768-.723-.598-.15-1.245-.25-1.892-.2-.224.025-.448.2-.448.448.1.3.3.448.548.498zm2.466 3.112c.075-.025.15-.05.224-.025 0 0 .124-.025.075-.025h.1c.174-.025.324-.025.473-.025h.448c.1 0 .174.025.25 0h.1c-.1 0 .05 0 .05 0 .3.05.598.1.87.225l.224.075c.15.05-.1-.05.025.025.025.025.075.025.1.05.15.05.3.15.423.224.25.15.622.075.747-.2s.074-.622-.2-.747c-1.245-.648-2.788-.848-4.157-.376-.498.15-.298.896.25.797zm3.685 2.8h.05c-.025-.025-.025-.025 0 0 .05 0 .075.025.125.025h.597c.125.025.25 0 .373.025.05 0 .124.025.2 0-.124-.025.075.025 0 0 .05 0 .075.025.1 0 .25.05.498.1.747.2 0 0 .2.05.174.075.025.025.075.025.1.05.125.075.25.1.373.175.25.15.598.05.747-.2s.05-.597-.2-.747c-.523-.274-1.07-.473-1.693-.548-.3-.05-.622-.075-.896-.05l-.498.05c-.075.025-.124.025-.2.05s-.1.05-.174.075c.075-.025-.025.025-.05 0-.2.05-.323.224-.298.448.05.2.224.373.423.374zm3.288 2.6h.15c-.075-.025-.15-.05-.2-.05.1.05.2.1.3.1.05 0 .124-.025.174-.025.1 0 .224-.025.324-.025.2 0 .448.05.672.025h-.05c.025.025.05 0 .075.025.05 0 .124.025.174.025l.324.075c.125.025.224.075.324.125.05 0 .1.05.15.05-.1-.05.075.025 0 0 .025.025.075.025.1.05.124.075.25.1.398.05a.57.57 0 0 0 .348-.25c.124-.224.074-.622-.2-.747-.498-.2-.996-.35-1.57-.424a3.26 3.26 0 0 0-.697 0c-.15 0-.274.025-.448.05s-.324.075-.473.224c.075-.025.124-.075.2-.1-.05 0-.075.025-.15.05-.174.075-.323.224-.298.448 0 .15.174.324.374.324zm3.262 3.513c.224.025.473.025.672.025.1 0 .224.025.324.025.05 0 .124.025.174.025-.075-.025-.025.025 0 0h.1c.448.05.896.2 1.32.374.25.1.597-.1.647-.398s-.1-.548-.4-.647a5.97 5.97 0 0 0-1.469-.324c-.498-.05-.996-.05-1.494.1a.43.43 0 0 0-.3.448c.075.224.224.373.423.374zm2.068 1.917l.92.175.92.125c.124.025.25 0 .398-.05a.56.56 0 0 0 .249-.398.43.43 0 0 0-.125-.373c-.1-.15-.25-.2-.398-.2l-1.892-.1c-.2 0-.373.174-.398.348 0 .2.125.423.324.473z"/></g><path d="M73.943 77.687c0-.05-.025-.075-.025-.124 0-.1-.025-.025 0 0 0-.05 0-.1-.025-.124-.025-.075-.025-.174-.05-.25s-.025-.174-.05-.25c0-.05-.025-.075-.025-.124v-.05c0-.05.025.124.025.025-.025-.324-.05-.647 0-.996.025-.124-.075-.274-.174-.373a.74.74 0 0 0-.374-.175c-.274.025-.547.25-.547.547l.125 1.12c.075.373.25.697.424 1.02.1.15.274.224.448.15.2 0 .3-.2.25-.398zm-2.563-1.27c.074-.722.024-1.42-.05-2.14-.05-.35-.1-.647-.2-.996-.075-.374-.225-.722-.374-1.07-.1-.25-.448-.3-.672-.224-.25.1-.373.373-.323.622l.474 1.917c.125.622.175 1.22.2 1.892 0 .25.2.448.448.448.3 0 .448-.2.498-.448zm-2.865-2.814c.15-1.444-.001-2.888-.3-4.282-.05-.3-.4-.498-.697-.4-.274.075-.498.398-.398.697a4.49 4.49 0 0 1 .249.996c.025.174.075.324.1.498.025.075.025.174.05.25 0 .05 0 .1.025.124 0 0 .025.124 0 .05.075.672.125 1.37.1 2.04 0 .25.2.448.448.448s.398-.2.423-.423zM66 71.086a13.51 13.51 0 0 0-.425-4.108c-.075-.274-.398-.498-.697-.4s-.473.373-.398.697a18.13 18.13 0 0 1 .624 3.81c.075.573.897.548.896 0zm-2.815-2.716c.522-1.767.197-3.734-.725-5.253-.15-.25-.498-.35-.747-.2s-.348.498-.2.747c.847 1.345 1.122 2.913.898 4.53-.025.224.05.448.3.498.174.025.398-.1.473-.323zm-3.09-3.137c.422-1.42.272-3.012-.3-4.38-.125-.274-.523-.374-.772-.224-.274.174-.323.473-.224.77.05.15-.025-.075.025.025.025.025.025.075.05.1l.075.224.15.498c.05.15.075.324.1.448.025.075.025.174.05.25 0 .05 0 .05 0 0v.15c.025.324.05.647.025.97l-.05.498c0 .05-.025.075-.025.124.025-.075 0 0 0 .05-.025.075-.025.174-.05.25-.05.25.075.523.35.598.25.05.498-.1.597-.348zm-3.038-2.99a5.75 5.75 0 0 0 .074-2.066l-.2-1.046c-.1-.35-.25-.697-.4-1.046a.48.48 0 0 0-.598-.199c-.2.1-.373.323-.273.572.224.573.424 1.22.524 1.818 0 .05.025.075 0 .1 0 0 .025.124.025.075s.025.075 0 .1c0 .05.025.075.025.124 0 .15.025.324.025.473.025.324 0 .647-.024.97-.05.498.697.598.822.125zm-2.765-2.764c.373-1.468.272-2.962-.102-4.43-.075-.274-.4-.498-.697-.4-.274.075-.498.398-.398.697.125.324.2.647.274.97.025.174.075.324.1.498s0-.1.025.075c0 .05.025.075 0 .1 0 .1.025.174.025.274.025.324.025.672.025 1.02l-.074.97c-.05.25.075.473.324.573.174.025.448-.1.498-.348zm-2.64-2.64c.298-1.792.197-3.634-.277-5.402-.075-.274-.374-.473-.697-.4-.274.075-.498.398-.398.697.524 1.618.674 3.3.55 5.03-.025.423.722.523.822.075zm-3.188-3.188c.398-1.543.247-3.236-.152-4.78-.075-.274-.4-.498-.697-.4s-.498.398-.398.697l.274 1.12c.025.075.025.174.05.25 0 .05 0 .1.025.124 0 0 .025.125 0 .1a3.17 3.17 0 0 1 .05.548c.05.747.05 1.494.001 2.24-.05.498.722.573.846.1zm-3.635-3.687a14.21 14.21 0 0 0-.252-5.128c-.075-.274-.4-.498-.697-.4s-.498.398-.398.697c.4 1.544.524 3.062.426 4.705-.025.224.2.448.423.473.174.025.448-.1.498-.348zm-3.114-3.013c.596-2.1.57-4.306.12-6.447-.15-.697-1.27-.424-1.07.273.474 1.967.5 4.033.277 6.05-.05.448.548.498.672.125zm-3.188-3.238a8.83 8.83 0 0 0 .072-4.954c-.075-.274-.398-.498-.697-.4s-.498.398-.398.697l.274 1.12c0 .1.05.2.05.3 0 .05 0-.05 0 .05a.48.48 0 0 0 .025.174 4.2 4.2 0 0 1 .025.573c.025.772-.024 1.518-.198 2.24a.46.46 0 0 0 .3.548c.25.05.473-.124.547-.348zM35.464 40.8c.1-.2.15-.448.2-.647s.075-.423.124-.672l.173-1.37c.05-.896-.001-1.742-.076-2.614-.05-.35-.274-.622-.672-.573-.35.05-.572.373-.498.746.025.224.05.35.1.548l.05.647.05 1.245-.05 1.245c-.025.224-.025.423-.074.622-.025.174-.075.423-.074.622.025.174.125.373.324.423a.42.42 0 0 0 .423-.224zm-3.114-3.213c.497-1.344.646-2.788.47-4.207-.025-.324-.274-.573-.623-.523s-.498.348-.448.647c0 .05.025.075.025.125 0 0 .025.124 0 .05.025.075.025.174.025.224l.05.498v1.046c-.024.672-.124 1.27-.248 1.942-.05.2.075.423.274.473s.398-.1.473-.274zm-3.112-2.964c.174-.324.224-.722.298-1.095l.174-1.22c.074-.772.124-1.518.098-2.3 0-.3-.25-.548-.548-.548-.274.025-.597.25-.547.547l.076 2.215-.05 1.095c-.025.373-.1.747-.074 1.12 0 .3.423.473.573.175z" fill="#fff"/></svg>