<svg xmlns="http://www.w3.org/2000/svg" width="101" height="122" fill="none"><path d="M27.75 13.25c8.6-1.4 17.083 1.917 20.25 3.75 1.98 1.375 6.775 4.788 10.125 7.438 4.188 3.313 5.875 9 6.313 13.688.35 3.75-.48 8.063-.937 9.75l27 7.625 3.063.438-5.062 8.188-8.437 1.5-1.562 14.75-5.937 3c-3.77-1.52-11.763-4.8-13.562-5.75s-9.208-5.562-12.687-7.75V69c-1.27.333-4.812 1-8.812 1H24.75L12 60.25c-1.167-3.833-3.7-13.6-4.5-22s4.167-18.833 6.75-23c.917-.083 4.9-.6 13.5-2z" fill="#effafe"/><path d="M39.125 65.625c5.1.7 7.708-.292 8.375-.875l-.875 4.375-7.5 1.125c-2 .5-10 .208-13.75 0-4.208-4.25-11.9-16.65-9-32.25 3.625-19.5 19.5-20.625 25.25-22 4.6-1.098 11.22 3.52 13.982 5.983-1.276-1.13-5.82-3.358-13.982-3.358C31.375 18.625 22 27.25 19.875 44s12.875 20.75 19.25 21.625zM45.5 43.25l-10.25 1.875 41.5 12.625 15.5-2.25L45.5 43.25z" fill="#7fa2f6"/><g opacity=".2" fill="#000"><path fill-rule="evenodd" d="M77.5 65.625l1-3.75c-.583-.083-1.85-.525-2.25-1.625s-.583-2.125-.625-2.5l-40.125-12v2.125c1.417.208 4.325 1.075 4.625 2.875s.708 2.917.875 3.25l7 2.625L46.313 69v.875L59 77.625c1.8.95 9.792 4.23 13.563 5.75V65l4.938.625z"/><path d="M56.875 45.75c.917-2.667 1.925-8.7-1.375-11.5-4.125-3.5-7.25-5.875-10.875-6-2.9-.1-6.792.958-8.375 1.5 2.458-.25 7.575-.225 8.375 1.875.673 1.767 2.043 3.54 2.932 4.53.172.167.32.326.444.47a12.28 12.28 0 0 1-.444-.471C46.4 35.02 44.18 33.553 42 34.25c-2.5.8-4.042 1.917-4.5 2.375-1.125 1.125-3.375 3.7-3.375 5s.917 3.292 1.375 4.125l10.813-2.5 10.563 2.5zM7.5 38.25c.8 8.4 3.333 18.167 4.5 22L24.75 70c-2.542-4.75-7.775-15.25-8.375-19.25s-.25-8.917 0-10.875L7.5 38.25z"/></g><g fill="#181d23"><path d="M34.567 46.035l8.058 2.5 7.917 2.36 16 4.72 9.113 2.712c.81.282 1.196-1.092.352-1.303l-8.093-2.36-7.917-2.325-16-4.72-9.148-2.606c-.704-.21-.95.775-.28 1.02z"/><path d="M75.91 58.398c1.407 0 2.85-.246 4.258-.458l4.293-.6 8.585-.916c.81-.07.81-1.338 0-1.303l-8.69.95-4.257.67c-1.443.247-2.92.493-4.258 1.057-.317.106-.282.6.07.6z"/><path d="M91.886 55.157l-2.745-.95-2.78-.775-5.5-1.48-31.8-8.453c-.2-.07-.422-.106-.633-.176-.282-.07-.493 0-.74 0-.28 0-.528-.14-.8-.176l-.633-.106-1.583-.14c-1.02-.035-2.04.07-3.06.2l-6.087.916c-.387.035-.704.317-.704.704 0 .352.317.74.704.704 3.624-.352 7.143-1.55 10.837-1.127.317.035.774.035 1.1.14.2.07.387.247.598.317.246.07.528.14.8.2.88.247 1.76.458 2.674.704l5.595 1.48 31.386 8.383c1.1.282 2.182.493 3.272.67.457-.035.704-.845.106-1.057zm1.584.633c-.387-.035-.598.282-.8.564l-.74 1.092-1.443 2.3-1.407 2.22-1.478 2.3c-.317.634.528 1.4 1.056.8.633-.74 1.1-1.585 1.62-2.395l1.513-2.43 1.407-2.43c.2-.387.563-.88.633-1.303.035-.282-.035-.704-.352-.704z"/><path d="M88.614 63.752c-.563-.07-1.126.035-1.7.106l-1.724.247-3.343.423-3.343.387-1.724.176c-.563.035-1.196 0-1.7.282-.493.247-.317.986.14 1.127.528.176 1.16 0 1.724-.035l1.724-.176 3.448-.423 3.308-.528 1.7-.352c.563-.106 1.16-.247 1.654-.493.387-.2.176-.705-.176-.74zM34.708 45.788l.106.528c0 .035 0 .07.035.106 0-.106 0 .035 0 .035a.78.78 0 0 0 .035.282v.493c0 .106 0 .176-.035.282v.035c0 .035 0 .106-.035.14-.035.247.07.493.317.564.2.035.528-.07.563-.317.14-.8.07-1.7-.317-2.43-.07-.176-.282-.2-.457-.14s-.282.247-.2.423z"/><path d="M35.165 48.606c.633.14 1.267.247 1.865.528.598.247 1.126.6 1.583 1.057.457.423.844.95 1.126 1.515.282.528.493 1.198.457 1.796-.035.352.352.634.67.6.352-.035.563-.387.493-.74l-.21-1.057c-.105-.352-.282-.74-.457-1.057-.352-.67-.845-1.268-1.407-1.796-1.09-.986-2.64-1.76-4.152-1.515-.317.035-.317.6.035.67z"/><path d="M40.162 53.537c.915.8 2.217 1.268 3.307 1.76l3.378 1.444 6.932 2.783a250.16 250.16 0 0 0 14.18 4.967l8.023 2.43c.774.2 1.126-.986.352-1.233-9.57-2.712-19-5.988-28.22-9.757l-3.87-1.62c-1.23-.493-2.533-1.198-3.835-1.374-.317 0-.457.423-.246.6zm35.222 4.65c0 1.832 1.126 3.522 2.78 4.332.28.14.598.07.74-.2.14-.247.07-.634-.2-.74-.176-.07-.352-.176-.528-.282l-.422-.282c-.28-.247-.598-.564-.774-.8-.457-.634-.774-1.338-.915-2.113-.035-.388-.67-.317-.67.106z"/><path d="M78.234 62.026c-.28.634-.457 1.34-.668 2.008l-.563 2.008c-.14.634.774.88.95.282.2-.67.352-1.338.528-2.043.14-.67.352-1.374.422-2.078.07-.352-.528-.528-.67-.176zm-30.718-6.023c-.282 1.022-.352 2.113-.457 3.17l-.317 3.346-.95 6.55c-.14.845 1.126 1.198 1.267.352l.915-6.727.246-3.346c.035-1.127.106-2.254-.14-3.346-.035-.317-.493-.282-.563 0z"/><path d="M45.968 70.268c1.513 1.162 3.167 2.113 4.82 3.1l4.96 2.853a182.86 182.86 0 0 0 10.17 5.178l5.876 2.677c.8.387 1.302-.8.457-1.127l-5.208-2.325-5.137-2.5a205.38 205.38 0 0 1-9.887-5.354l-5.595-3.205c-.528-.317-.88.352-.458.704zm33.357-4.192c-.176 1.127-.246 2.254-.352 3.38l-.317 3.452-.74 6.904c-.07.74 1.16.916 1.267.176.352-2.254.528-4.614.67-6.904l.176-3.38v-3.558c.035-.387-.633-.528-.704-.07z"/><path d="M79.043 79.813c-.106.035-.21 0-.352.07l-.387.21-.774.493-1.548.916c-1.056.564-2.146 1.022-3.272 1.48-.317.14-.563.423-.457.775.106.317.457.564.774.458 1.232-.423 2.428-1.02 3.52-1.69.528-.317 1.056-.67 1.548-1.057l.774-.634c.105-.106.21-.21.28-.317.106-.106.106-.246.176-.387.14-.21-.106-.388-.28-.317z"/><path d="M72.815 83.124c.704-5.354.774-10.813.774-16.238 0-.775-1.23-.775-1.23 0 0 5.424-.317 10.813-.317 16.238 0 .493.704.458.774 0zm-25.897-25.3c-1.267.528-2.533.916-3.906.95-1.337.07-2.64-.14-3.906-.493-2.252-.634-4.363-1.867-6.087-3.452-3.624-3.3-5.454-8.1-4.785-12.997.67-4.966 3.695-9.37 8.234-11.553 4.504-2.184 9.993-2.078 14.286.528 4.54 2.747 7.354 8.066 6.052 13.385-.14.634-.387 1.303-.633 1.902-.176.352-.105.775.246.986.317.176.844.106.985-.247a13.07 13.07 0 0 0 .598-8.876c-.774-2.712-2.428-5.178-4.6-6.974-4.328-3.557-10.24-4.508-15.552-2.747-2.604.845-4.996 2.325-6.826 4.368-1.83 2.008-3.132 4.473-3.8 7.115s-.74 5.424-.07 8.066c.633 2.57 1.935 4.93 3.66 6.868a17.17 17.17 0 0 0 6.369 4.473c2.57 1.02 5.7 1.515 8.34.564.704-.247 1.302-.564 1.865-1.057.317-.317-.035-.986-.457-.8zm-.493 6.27c-4.152 1.338-8.76.6-12.843-.6-3.73-1.092-7.32-2.994-9.64-6.2C19.58 51.387 19.58 43.18 21.7 36.417c2.217-7 7.143-13.5 14.25-15.956 6.897-2.395 15.06-1.127 20.62 3.698 5.348 4.614 8.128 12.117 7.108 19.1a20.76 20.76 0 0 1-.563 2.57c-.246.916 1.16 1.268 1.408.388 2.076-7.36-.035-15.604-5.137-21.274-5.278-5.847-13.652-8.172-21.288-6.55-3.835.8-7.354 2.677-10.24 5.32-2.92 2.712-5.137 6.13-6.65 9.792-2.92 7-3.52 15.674.176 22.543 1.97 3.663 5.172 6.27 8.973 7.855 2.006.845 4.117 1.4 6.263 1.76 2.287.423 4.645.67 6.967.352 1.126-.14 2.182-.458 3.237-.916.598-.247.2-1.198-.387-.986z"/><path d="M58.283 24.337c-2.674-4.65-8.093-7.608-13.265-8.49-5.56-.986-11.19.176-15.975 3.135-4.82 2.96-8.656 7.502-10.943 12.68-2.745 6.164-3.308 13.103-2.357 19.725.915 6.27 3.096 12.82 7.32 17.682.493.6 1.056 1.127 1.62 1.655.67.634 1.654-.387.985-.986-4.504-4.192-6.86-10.18-8.093-16.062-1.337-6.375-1.196-13.103.95-19.267 1.794-5.107 5.102-9.757 9.465-12.997 4.293-3.17 9.465-4.86 14.778-4.438 5.137.423 9.993 2.677 13.476 6.516.422.493.88.95 1.267 1.444.352.458 1.02-.106.774-.6z"/><path d="M24.117 70.7c2.85.458 5.84.458 8.726.352 2.92-.07 5.806-.317 8.7-.67l2.463-.352 2.534-.423c.985-.106.74-1.55-.176-1.303-1.407.352-2.885.528-4.293.74l-4.258.493-8.62.458-4.96.035c-.387.035-.493.6-.106.67zm-.247-1.947c-.633-1.057-1.7-1.867-2.604-2.677l-2.885-2.36-6.017-4.544c-.704-.564-1.513.74-.74 1.233 2.04 1.34 3.976 2.853 5.9 4.368l2.85 2.3L21.83 68.2c.493.387.985.775 1.548 1.02.317.176.704-.14.493-.458zm28.255-51.6c-1.02-.74-2.287-1.233-3.483-1.655l-3.554-1.127c-2.428-.67-4.856-1.127-7.354-1.444-4.996-.67-10.098-.6-15.06.14a51.69 51.69 0 0 0-8.34 1.867c-.88.282-.528 1.656.387 1.4a55.15 55.15 0 0 1 29.099-.845c1.372.317 2.7.704 4.047 1.127 1.302.423 2.64.95 4 1.162.352.07.563-.387.246-.634z"/><path d="M14.898 15.18c-2.146 1.796-3.66 4.438-4.785 6.974-1.16 2.642-1.935 5.424-2.393 8.277-.95 6.375-.246 12.82 1.126 19.1.844 3.77 1.865 7.502 2.92 11.236.246.88 1.62.493 1.372-.387-1.865-6.4-3.73-12.927-4.363-19.62-.528-5.74-.035-11.66 2.04-17.083a29.58 29.58 0 0 1 2.006-4.12c.8-1.374 1.76-2.607 2.674-3.9.246-.352-.317-.704-.598-.458zm46.06 25.148s.035 0 .035-.035c-.07 0-.14.035-.2.035h.106c.106 0 .246-.07.282-.176.176-.317 0-.704-.317-.845-.2-.07-.422-.07-.598.07s-.282.282-.352.493c-.106.282-.07.563.07.845a1.5 1.5 0 0 0 .493.564c.387.282.985.352 1.407.035.2-.176.387-.387.457-.67.07-.247.035-.493 0-.704-.07-.247-.176-.493-.352-.67a1.15 1.15 0 0 0-.81-.352c-.14 0-.282.07-.387.176s-.176.246-.176.387c0 .282.246.564.528.528h.106c-.035 0-.106 0-.14-.035.07 0 .106.035.14.035-.035-.035-.07-.035-.14-.07.07.035.106.07.176.106-.035-.035-.07-.07-.106-.07.07.035.106.106.14.14-.035-.035-.07-.07-.07-.106.035.07.105.14.14.2 0-.035-.035-.07-.035-.106.035.07.035.14.07.247 0-.035 0-.106-.035-.14v.2c0-.035 0-.106.035-.14 0 .07-.035.14-.035.2 0-.035.035-.07.035-.106-.035.035-.035.106-.07.14.035-.035.035-.07.07-.106l-.106.106c.035-.035.07-.035.106-.07a.27.27 0 0 1-.14.07c.035 0 .07-.035.105-.035-.07.035-.105.035-.176.035h.07c-.07 0-.14-.035-.246-.07.035 0 .07.035.105.035-.07-.035-.14-.07-.2-.14.035.035.07.035.106.07-.07-.035-.106-.106-.176-.176.035.035.035.07.07.106-.035-.07-.07-.106-.106-.176 0 .035.035.07.035.106-.035-.07-.035-.106-.035-.176v.07c0-.07.035-.106.035-.14 0 .035-.035.07-.035.106 0-.035.035-.07.07-.106-.035.035-.035.07-.07.106.035-.035.035-.07.07-.07-.035.035-.07.035-.106.07.035 0 .035-.035.07-.035-.035 0-.07.035-.105.035.035 0 .105-.035.14-.07-.035 0-.07.035-.106.035.035 0 .035 0 .07-.035h-.14c-.07 0-.106-.035-.035 0a11.68 11.68 0 0 0-.035-.035c.035.035-.035-.07-.035-.035 0 0 0 .035.035.035-.035-.07-.035-.07-.035-.035s0 0 0-.07c0 .07 0 .106.035.176.035.035.035.07.07.07 0-.106-.035-.2-.035-.352 0 .035 0 .035.035-.035a.27.27 0 0 0-.035.352c.035.2.176.247.282.176z"/><path d="M10.78 47.655c-.28.493-.493 1.057-.704 1.55l-.633 1.55c-.07.247.07.528.317.6.2.106.563.035.633-.2l.598-1.62.493-1.585c.035-.176-.035-.387-.2-.458a.52.52 0 0 0-.493.176zm2.992-.67c-.352.458-.598.986-.88 1.515l-.88 1.62-.88 1.55c-.317.528-.704 1.057-.88 1.655-.14.493.493.88.845.493.387-.423.67-1.022.95-1.55l.845-1.655.774-1.62c.246-.528.563-1.127.633-1.726.035-.282-.28-.564-.528-.282zm1.232 1.41l-1.76 3.733-2.006 3.663c-.352.634.598 1.198.985.564.74-1.198 1.372-2.466 1.935-3.77.563-1.268 1.1-2.606 1.443-3.945.07-.352-.422-.6-.598-.246zm.774 4.005l-2.006 3.804-2.04 3.804c-.352.634.598 1.198.985.563l2.006-3.9c.633-1.303 1.232-2.606 1.7-3.98.105-.387-.457-.6-.633-.282zm1.092 4.8c-.352.317-.633.704-.88 1.092a10.65 10.65 0 0 0-.739 1.162c-.457.8-.88 1.7-1.196 2.57-.105.282.106.634.387.704a.6.6 0 0 0 .704-.387c.282-.8.598-1.62 1.02-2.395l.633-1.162c.2-.387.493-.74.668-1.162.14-.352-.282-.704-.598-.423zm.562 3.558l-.774 1.515-.422.74c-.07.106-.14.247-.246.352-.035.07-.07.14-.14.176-.035.035-.035.07-.07.106.035-.035.035-.035 0 0-.246.282-.246.67.07.916.28.2.74.14.88-.176.14-.282.317-.528.457-.775s.282-.528.387-.775a10.3 10.3 0 0 0 .669-1.726c.07-.2-.07-.458-.282-.563-.106-.07-.422 0-.528.2zm18.332-16.273c-.422-.493-.74-1.02-.88-1.7s-.07-1.374.105-2.008c.493-1.515 1.865-2.606 3.132-3.452 1.407-.95 2.92-1.867 4.645-1.972 1.548-.07 3.096.458 4.222 1.515 1.302 1.233 1.935 3.03 1.794 4.8-.07.775 1.16.775 1.23 0 .176-1.902-.493-3.84-1.76-5.283-1.232-1.4-3.06-2.22-4.926-2.3-2.1-.106-4 .916-5.7 2.043-1.548 1.022-3.06 2.3-3.73 4.086-.598 1.62-.317 4.086 1.478 4.8.422.282.598-.282.387-.528z"/><path d="M38.966 36.137L37.1 39.8l-2.04 3.557c-.352.564.563 1.092.915.528l2.006-3.663 1.724-3.77c.106-.423-.528-.704-.74-.317zm3.096-.67c-.8 1.338-1.407 2.818-2.04 4.227l-.985 2.15-.493 1.057c-.14.352-.352.704-.422 1.057-.07.423.493.916.844.493.457-.6.704-1.4.985-2.078l.985-2.254 1.794-4.403c.106-.387-.457-.6-.67-.247zm2.534.528l-1.02 1.867-.95 1.76-2.146 3.557c-.387.6.563 1.127.95.563.774-1.162 1.478-2.395 2.1-3.663l.88-1.902c.282-.67.493-1.303.67-2.008.106-.246-.352-.458-.493-.176zm1.76.88c-.282.564-.422 1.198-.598 1.76a16.12 16.12 0 0 1-.74 1.832l-.915 1.7-1.1 1.62c-.282.493.387.986.774.6.493-.458.845-1.092 1.196-1.655s.67-1.197.95-1.796.493-1.233.67-1.867.387-1.374.352-2.043c-.035-.282-.458-.458-.598-.14zm2.04 1.76c-.598.74-1.1 1.585-1.513 2.395-.457.845-.844 1.726-1.196 2.606-.106.282.106.6.387.67.317.07.563-.106.67-.387.282-.845.633-1.656 1.02-2.43.387-.8.88-1.55 1.302-2.36.176-.387-.352-.88-.67-.493zm.95 19.408l-.74 1.303c-.07.106-.14.2-.2.282.035-.035 0 0-.035.035l-.07.07c-.035.035-.07.106-.14.14-.07.106-.176.176-.246.282l-.14.14c-.035.035-.07.035-.07.07-.246.176-.352.493-.14.74.176.2.563.282.774.035.387-.423.74-.845 1.02-1.338.14-.247.282-.493.387-.775.035-.106.105-.246.14-.352.035-.14.07-.282.07-.423.035-.176-.035-.317-.176-.387-.14-.035-.352.035-.422.176zm2.216.457c-.493.387-.844.916-1.23 1.4l-1.16 1.515-2.252 3.03c-.176.247-.035.6.2.74.282.176.563.035.74-.2l2.217-3.064 1.1-1.55c.352-.493.704-.986.95-1.585.106-.317-.317-.458-.563-.282zm2.252.847l-3.096 4.05-1.548 2.043-1.513 2.078c-.28.458.387.986.774.6.563-.634 1.056-1.34 1.548-2.008l1.513-2.078 3-4.156c.282-.387-.352-.916-.668-.528zm2.7 1.337C55.222 62 54.096 63.505 52.9 64.95l-3.52 4.332c-.387.493.282 1.233.74.74l3.624-4.403 3.484-4.438c.2-.387-.352-.8-.704-.493zm2.71 1.268l-6.58 8.03c-.422.493.282 1.233.74.74 2.287-2.606 4.574-5.354 6.58-8.207.282-.458-.387-.986-.74-.564zm4.117.352c-1.478 1.34-2.78 2.888-4.046 4.438l-1.83 2.3-1.76 2.466c-.282.493.422 1.092.8.634.633-.74 1.196-1.55 1.76-2.36l1.83-2.36 3.835-4.544c.352-.387-.176-.916-.598-.564zM66 64.033c-1.302 1.233-2.393 2.712-3.52 4.12l-3.378 4.262c-.387.493.457 1.162.845.67l3.378-4.262 3.272-4.297c.28-.423-.28-.8-.598-.493zm2.743 1.41c-.317.14-.598.493-.844.775-.282.282-.528.6-.774.88L65.567 69l-2.815 3.945c-.387.6.563 1.162.95.564l2.745-3.9 1.407-1.83.74-.95c.246-.282.528-.6.668-.986.106-.282-.28-.493-.528-.388zm3.554 1.62c-1.407 1.303-2.604 2.853-3.835 4.297l-3.66 4.438c-.458.564.352 1.338.774.775l3.695-4.544 3.624-4.508c.28-.352-.282-.74-.598-.458zM71.9 71.64c-.422.317-.74.845-1.1 1.268l-1.056 1.338-2.322 2.5c-.493.493.282 1.268.774.775l2.252-2.606 1.056-1.374c.317-.458.74-.95.88-1.515.035-.282-.282-.564-.493-.387zm.106 2.397l-1.302 1.726c-.07.106-.106.317-.07.423.035.14.14.282.246.317.14.07.28.106.422.07s.246-.14.317-.247l1.126-1.655c.14-.2.07-.493-.14-.634-.106-.176-.422-.176-.598 0zM37.453 47.373v.035c-.035.07 0 0 0-.035 0 .035 0 .106-.035.14 0 .07-.035.14-.07.2 0 .035-.035.07-.035.106s.035-.106 0-.035c0 0 0 .035-.035.035a.76.76 0 0 1-.106.176l-.035.035a5.84 5.84 0 0 0 .035-.035l-.2.2c-.07.035.07-.07.035 0 0 0-.035 0-.035.035-.035.035-.07.035-.106.07a.77.77 0 0 0-.176.106c-.106.035-.176.176-.2.247-.035.106 0 .247.035.317.07.106.14.176.246.2s.2 0 .317-.035c.67-.282 1.126-1.057 1.056-1.76a.32.32 0 0 0-.106-.246.38.38 0 0 0-.246-.106c-.176-.035-.317.106-.317.317zm2.497.327c-.422.634-.74 1.338-1.1 2.043-.14.246-.035.6.246.704a.51.51 0 0 0 .67-.317c.246-.704.598-1.4.774-2.148.07-.388-.422-.6-.598-.282zm2.7.87a2.34 2.34 0 0 0-.67.317 4.02 4.02 0 0 0-.598.493c-.176.176-.317.387-.458.6s-.2.493-.282.74.07.528.352.6.493-.07.598-.352c0-.035.035-.07.035-.07s.035-.106 0-.035 0 0 0-.035.035-.035.035-.07c.035-.106.106-.176.14-.282.035-.07.106-.176.14-.246.035-.035.07-.07.106-.14-.035.035-.07.07 0 .035l.07-.07c.14-.14.282-.317.422-.423.035 0 .035-.035.07-.035-.07.07.035-.035 0 0 .035-.035.105-.07.14-.106.07-.035.14-.07.176-.14-.07.07.07-.07 0 0 .035 0 .035-.035.07-.035.176-.106.246-.317.176-.528-.106-.14-.352-.282-.528-.2zm2.217.88l-.2.2c-.106.14.035-.07 0 .035l-.035.035c-.035.035-.07.07-.07.106-.105.14-.246.246-.352.387l-.774.705c.035-.035.07-.035.105-.07-.035 0-.035.035-.07.035-.105.07-.176.176-.246.282-.035.14 0 .317.106.423a.37.37 0 0 0 .317.176c.176.035.282-.035.422-.14l.8-.775.387-.528c.035-.07.105-.14.14-.247a1.03 1.03 0 0 0 .14-.352c.07-.14-.035-.352-.176-.458-.176.035-.387.035-.493.176zm2.92.776c-.2.07-.422.176-.598.317s-.352.282-.493.458a3.08 3.08 0 0 0-.668 1.198c-.07.246.105.563.352.634a.52.52 0 0 0 .633-.352c.035-.106.035-.176.07-.282 0-.035.035-.07.035-.106s.07-.106 0 .035c0-.035 0-.035.035-.07a2.02 2.02 0 0 1 .141-.247c.035-.035.035-.07.07-.106l.035-.035c-.07.106.07-.07 0 0 .106-.14.246-.246.387-.387.105-.07.035-.035 0 0l.035-.035c.07-.035.14-.106.176-.14l-.035.035.035-.035c.035-.035.07-.07.14-.07.176-.106.246-.352.176-.528-.106-.247-.317-.352-.528-.282zm2.498.95c-.317.14-.598.352-.88.564s-.493.493-.67.775c-.07.07-.07.247-.035.352s.07.176.176.247a.4.4 0 0 0 .282.106c.105 0 .246-.035.317-.14l.422-.493a6.2 6.2 0 0 1 .493-.423c-.035.035-.07.035-.106.07.07-.035.14-.106.2-.14-.035.035-.07.035-.106.07.106-.07.2-.176.352-.247.176-.106.28-.387.14-.6-.14-.176-.387-.247-.598-.14zm2.884.88L51.95 53.9c-.14.2-.035.6.176.704.246.14.563.07.704-.176l1.126-1.902c.105-.2.07-.493-.176-.634-.2-.106-.457 0-.598.176zm4.26 1.302l-.106.282c0-.035.035-.07.035-.106l-.106.2c0-.035.035-.07.035-.106-.07.176-.14.317-.246.458.035-.035.035-.07.07-.106a1.67 1.67 0 0 1-.352.352c.035-.035.07-.035.106-.07a.77.77 0 0 1-.282.176c-.2.106-.282.423-.176.634.14.2.422.282.633.176.317-.176.598-.458.8-.74.106-.14.176-.317.246-.493a1.42 1.42 0 0 0 .106-.528c0-.106-.07-.247-.14-.282-.07-.07-.14-.106-.246-.106-.14-.07-.352.07-.387.247zm2.743.318l-.457.705-.422.74c-.106.2-.07.528.176.634.246.14.493.035.633-.176.14-.246.317-.458.457-.704l.422-.74c.106-.2.07-.528-.176-.634s-.493-.035-.633.176zm2.78 1.197c-.493.6-.915 1.268-1.337 1.902a.51.51 0 0 0 .176.67.47.47 0 0 0 .669-.176l1.16-1.902a.44.44 0 0 0-.106-.563c-.14-.106-.422-.106-.563.07zm4.01.105c-.95.6-1.583 1.585-1.97 2.607-.106.282.105.634.387.67.317.07.598-.106.67-.387.035-.07.035-.106.07-.176 0-.035 0-.035.035-.07 0 0 .035-.106 0-.035s0-.035 0-.035c0-.035.035-.035.035-.07.035-.035.035-.106.07-.14l.352-.634c.035-.035.07-.106.106-.14 0 0 .035-.035.035-.07-.035.035-.035.07-.035.035 0 0 0-.035.035-.035.07-.106.14-.176.246-.282.14-.176.317-.352.493-.528a.44.44 0 0 0 .035-.599c-.106-.176-.352-.247-.563-.106zm2.78 1.27c-.28.282-.528.6-.774.88-.282.317-.528.67-.774 1.02-.07.07-.07.247-.035.352s.07.176.176.247c.176.14.458.14.598-.035l.8-.986c.246-.317.493-.634.67-.986.106-.176.035-.387-.106-.528-.2-.106-.422-.106-.563.035zm4.293 1.7l-.985 1.374a.58.58 0 0 0-.07.423.56.56 0 0 0 .246.317c.28.14.563.07.74-.176l.88-1.444c.14-.2.07-.564-.176-.67-.106-.07-.246-.106-.387-.035-.07.035-.14.106-.246.2z"/></g></svg>