<svg xmlns="http://www.w3.org/2000/svg" width="95" height="195" fill="none"><style><![CDATA[.B{fill:#000}.C{fill-rule:evenodd}]]></style><path opacity=".1" d="M34.25 171.854l-30.84 12.398 61.834 10.073L95 182.857l-60.75-11.003z" class="B"/><path d="M5.814 51.13l23.478-10.228 47.42 12.708v3.41l-19.216 11.7-26.113-6.2-25.105-6.82-.465-4.572z" fill="#c6ddff"/><path d="M27.158 158.216l-25.57 8.37.465 4.57 14.63 2.755.754 9.023 29.3 5.89 7.13-5.036 9.918-4.65.377-3.916 6.83-4.065v-3.64l-5.797-.93v-17.047l6.494-3.41c1.86-.93 5.192-3.255 5.114-3.875s-2.48-.697-4.65.62c-1.736 1.054-2.53 1.782-2.712 2.015-.274-1.576-1.508-4.727-4.247-4.727-3.424 0-3.424 5.89-3.346 10.073.062 3.348-.077 12.6 0 16.35l-34.678-8.37zm38.708-15.342c1.372 0 1.708 1.757 1.705 2.635l-2.79 1.472c-.2-1.37-.287-4.107 1.085-4.107z" fill="#5a6ded" class="C"/><path d="M5.814 51.13l.465 4.572 25.105 6.82 26.113 6.2 19.216-11.7v-3.4l-6.75-1.8-35.1 6.9-29.06-7.58zm38.15 9.952L71.9 56.36l3.036-1.738-33.27 5.863 2.3.597zm13.532 3.53l-7.097-1.85 16.705-3.65-9.608 5.502zm4.728 107.708l-20.85 2.05-6.438-1.284 27.246-2.6.044 1.833zm2.814-1.47l1.487-.776-1.487.142v.634zm5.787-3.025l-2.15 1.123-3.637.326v-2.366l5.787.917zm-8.722-.594l-36.437 4.007 5.42 1.08 31.072-2.787-.055-2.3z" opacity=".2" fill="#fff" class="C"/><path d="M7.75 56.4l25.415 21.696-26.5 15.807c-.362.207-.868 1.21 0 3.564s14.102 14.722 20.61 20.61L4.807 131.25c-1.188-.206-3.285-.124-2.17 1.86s15.86 14.05 23.09 19.836l-24.02 13.638 4.03 1.085 22.316-13.173 2.015 1.705-2.8 2.17 2.8.853 1.627-1.705 11.584 9.724c2.518 2.17 6.935 6.083 7.44 6.935a109.47 109.47 0 0 0 1.705 2.712l1.705.504 2.325-1.666-21.928-18.75 11.7-7.13 15.652 13.482v-3.41l-13.638-11.855 12.32-8.872c.62-.527 5.657-3.758 8.097-5.308.336.155 1.162.24 1.782-.66s-.258-1.77-.775-2.092l-22.626-21.773 25.996-16.505c.478.155 1.52.232 1.86-.697s-.27-2.22-.62-2.75L52.267 70.735l3.41-2.402-4.184-.814-1.705 1.2-2.325-2.325-5.114-1.24 4.92 4.765-12.05 6.857-21.31-18.868-6.16-1.51zM37.738 78.95l12.05-6.74L70.825 90.65l-11.313 6.43L37.738 78.95zm-2.015 1.317l-12.32 6.82 21.154 19.682 12.243-7.44-21.076-19.062zM13.912 92.857c1.085-.837 5.075-3.32 6.935-4.456l20.456 20.378-10.848 6.664L9.69 95.84c.956-.646 3.138-2.146 4.223-2.983zm19.023 25.222l10.848-6.896 23.09 20.766-11.468 7.826-22.47-21.696zm-3.487 2.014l-8.058 4.727 22.393 19.216 8.136-4.26-22.47-19.682zM6.9 133.227L18.367 127l22.936 18.44-13.25 6.277L6.9 133.227zM43.782 147.6l-13.328 6.044 2.015 1.317 11.313-7.36z" fill="#c6ddff" class="C"/><g opacity=".2" class="B"><path d="M5.814 51.13l.465 4.572 25.105 6.82 26.113 6.2 19.217-11.7v-3.4L57.497 64.77 5.814 51.13zM2.052 171.156l-.465-4.57 52.277 10.538 7.98-4.34v3.815l2.314-1.378-.377 3.917-9.918 4.65h-7.13l-29.666-5.364-.377-4.512-14.63-2.755zm63.13 3.45l-.402-3.45 6.2-3.64v3.64l-5.797 3.45z" class="C"/><path d="M43.782 144.036L21.4 124.82 18.367 127l22.936 18.44 2.48-1.395zm16.776-4.842c.62-.527 5.656-3.758 8.097-5.308.336.155 1.162.24 1.782-.66s-.258-1.77-.775-2.092L47.036 109.36l-3.254 1.82 23.1 20.766-11.468 7.826c.875.43 2.293 1.525.964 2.48l4.2-3.06zm12.475-46.337c.478.155 1.52.232 1.86-.697s-.27-2.22-.62-2.75L52.267 70.735l-2.48 1.472L70.824 90.65 59.51 97.08c.893.887 2.352 2.868 1.046 3.697l12.475-7.92zm-28.476 13.91l-21.154-19.68-2.557 1.317 20.456 20.378 3.254-2.014zm5.23-38.046l-2.325-2.325-5.114-1.24 4.92 4.765 2.518-1.2zM13.9 57.9l-6.16-1.5 2.288 1.953 6.037 1.475L13.9 57.91z"/><path d="M54.126 141.867c.41.373 1.43.973 2.242.387l-8.13 5.812 13.638 11.855v3.41l-15.652-13.482-11.7 7.13-2.053-2.015 11.313-7.36 10.344-5.734zM52.422 176.9l-.042-.065 1.475.298 2.584-1.405.012.01-2.325 1.666-1.705-.504zM27.4 158.275l2.903.7-.237.248-2.8-.853.124-.096zM2.065 166.68l3.672.99.314-.185-3.985-.804z" class="C"/><path d="M28.052 154.497l-2.325-1.55-.877.498 2.307 1.58.895-.528zm24.848-11.95l1.227-.68-2.208-2.092-1.2.63 2.182 2.143zm-23.453-22.454l-2.17-2.014-1.55.908 2.325 1.924 1.395-.818zm31.11-19.316c-1.38.876-3.08-.602-3.758-1.45l-1.045.635 2.538 2.253 2.265-1.438zm-24.835-20.51l-2.557-2.17-1.027.612 2.076 2.392 1.508-.835z"/></g><g fill="#4b5359"><path d="M4.032 184.64c-8.3-4.65-1.317-11.855 3.4-11.855 1.014-.188 4.23-.125 5.58 1.394.92 1.036.84 2.724.465 4.882-.3 1.782-5.07 8.037-9.453 5.58zm40.602 6.246c-8.3-4.65-.465-10.974 4.262-10.974 1.014-.187 2.557 1.085 4.494 1.085.92 1.036 1.228 2.957.852 5.114-.3 1.782-5.226 7.233-9.608 4.775z"/><path d="M70.592 171.056l-7.36 5.834h-1.86l-1.55.853c.583.928 1.028 2.474 2.557 3.332 4.383 2.457 8.756-3.123 9.066-4.905.375-2.158.066-4.08-.852-5.114z" class="C"/></g><g fill="#181d23"><path d="M9.306 173.727c-2.056-1.794-4.993-.555-6.79.978-1.012.88-1.926 2-2.285 3.327-.326 1.174-.196 2.446.26 3.555 1.012 2.414 3.492 3.784 6.07 3.5 2.644-.293 4.732-2.283 5.385-4.827s-.326-6.034-3.198-6.686c-.424-.098-.587.522-.163.62 2.22.5 3.133 3.034 2.905 5.056-.26 2.25-1.828 4.338-4.047 4.958-2.22.652-4.732-.13-5.973-2.12-.555-.88-.85-1.957-.783-3 .065-1.207.62-2.283 1.436-3.164 1.5-1.63 4.634-3.588 6.69-1.76.36.326.816-.163.5-.424z"/><path d="M12.603 174.5c.588 1.9.522 3.946-.196 5.773-.588 1.5-1.86 3.13-3.655 2.968-.424-.033-.424.62 0 .652 1.926.196 3.46-1.468 4.145-3.098.88-2.023.98-4.37.326-6.46-.098-.4-.75-.228-.62.164zm37.207 6.663c-.914-.848-2.187-1.1-3.394-.946-1.338.196-2.48.98-3.394 1.957-.947 1.012-1.828 2.25-2.22 3.588-.424 1.403.033 2.773 1.044 3.817 1.567 1.63 4.014 2.152 6.168 1.63 2.22-.554 3.916-2.283 4.34-4.533.457-2.447-.457-5.1-2.513-6.524-.36-.228-.685.326-.326.555 1.6 1.1 2.383 3.066 2.317 4.958-.065 1.957-1.142 3.718-2.937 4.566a6.08 6.08 0 0 1-5.646-.36c-.914-.587-1.795-1.565-1.926-2.674-.13-1.305.685-2.577 1.436-3.588.783-1.077 1.795-2.088 3.068-2.512 1.208-.4 2.6-.293 3.558.587.26.23.718-.26.424-.522z"/><path d="M53.366 182.338c1.142 3.327-.85 7.338-4.243 8.382-.392.13-.228.75.163.62 3.72-1.142 5.973-5.512 4.7-9.198-.098-.4-.75-.228-.62.196zM1.702 167.725a14.68 14.68 0 0 1 .098 3.784c0 .163.163.326.326.326.196 0 .294-.163.326-.326.13-1.338.065-2.642-.13-3.947-.033-.163-.26-.26-.392-.228a.32.32 0 0 0-.228.39z"/><path d="M1.832 171.835l20.594 3.5L42.9 179.14l11.52 2.283c.424.098.587-.554.163-.62l-20.496-4.012-20.463-3.653-11.586-1.925c-.424-.065-.588.555-.196.62z"/><path d="M54.802 181.163l.13-4.11c0-.424-.653-.424-.653 0l-.13 4.11c-.033.424.62.424.653 0z"/><path d="M54.574 176.923L34.1 173.237l-20.366-4.1-11.488-2.512c-.424-.098-.587.522-.163.62l20.333 4.37 20.43 3.946 11.586 2.023c.36.032.555-.588.13-.653zm-38.154-1.468a33.24 33.24 0 0 1 .685 7.633c0 .424.653.424.653 0 .065-2.6-.196-5.22-.718-7.796-.065-.424-.718-.228-.62.163z"/><path d="M17.237 183.447c6.136.228 11.913 2.413 17.885 3.653 1.664.36 3.362.62 5.06.75.424.033.424-.62 0-.652-6.103-.522-11.88-2.773-17.885-3.85-1.665-.294-3.362-.522-5.06-.587-.424 0-.424.652 0 .685zm25.685-3.75l-.36 2.185c-.033.163.033.36.23.4.163.033.36-.065.392-.228l.36-2.185c.033-.163-.033-.36-.228-.392-.163-.032-.36.066-.392.23zm-26.305-1.338l19.517 4.175 5.548 1.207c.424.098.587-.554.163-.62l-19.517-4.175-5.548-1.206c-.392-.098-.555.554-.163.62zm48.433-31.345l-.033-2.348c.033-.5.098-1.044.392-1.435.228-.294.62-.392.914-.163s.424.717.522 1.1c.163.554.26 1.14.555 1.663.196.36.783.033.555-.326-.26-.5-.36-1.077-.522-1.598-.13-.522-.326-1.077-.783-1.403s-1.1-.26-1.567.098c-.457.4-.653 1-.718 1.566a5.02 5.02 0 0 0-.033 1.206l.033 1.63c.033.424.685.424.685 0zm-4.308 29.9c1.208.914 2.937.294 3.82-.815 1.142-1.468 1.012-3.523.947-5.252l-.26-13.47-.163-7.633c0-.424-.653-.424-.653 0l.457 21.82c.033.88.033 1.794-.163 2.642-.196.88-.62 1.696-1.436 2.153-.685.4-1.534.5-2.187 0-.36-.26-.685.293-.36.554z"/><path d="M67.27 145.415c-2.154.98-4.667 2.316-5.222 4.827-.065.23.163.5.392.392 2.937-.98 5.777-2.186 8.486-3.686l3.95-2.414c1.012-.685 2.187-1.533 2.22-2.87 0-.163-.163-.326-.326-.326-2.774.26-5.385 1.337-7.474 3.164-.326.26.13.75.457.456a12.44 12.44 0 0 1 7.017-2.968l-.326-.326c-.033 1.305-1.534 2.088-2.513 2.707l-3.72 2.218c-2.546 1.37-5.19 2.512-7.93 3.392l.392.392c.522-2.35 2.937-3.523 4.928-4.436.36-.13.033-.685-.326-.522z"/><path d="M69.717 144.176c-.36-1.468-1.207-3.034-2.578-3.817-1.208-.685-2.644-.424-3.72.392-.98.717-1.632 1.76-1.86 2.935-.228 1.207-.26 2.48-.228 3.686l.294 3.85c.065.424.685.228.62-.163-.294-2.055-.392-4.208-.196-6.263.098-1.01.294-1.957.947-2.772.718-.913 1.958-1.63 3.133-1.338 1.6.36 2.546 2.218 2.905 3.686.163.392.783.23.685-.195z"/><path d="M61.72 151.417l-.033 17.84v5.25l.326-.326-1.208-.098c-.424-.032-.424.62 0 .653l1.208.098c.163 0 .326-.163.326-.327l.033-23.092c0-.424-.653-.424-.653 0z"/><path d="M60.448 173.53c-.5.75-.522 1.73-.13 2.544.065.163.294.196.457.13.163-.098.196-.294.13-.457a1.88 1.88 0 0 1-.163-.946v-.13c0 .065 0-.066 0-.098.033-.098.033-.196.065-.26 0-.033.033-.098.033-.13 0 .033.033-.065.033-.065.033-.098.098-.163.13-.228.098-.163.033-.36-.13-.457-.13-.13-.326-.065-.424.098z"/><path d="M55.227 177.086a25.15 25.15 0 0 0 4.863-2.903c.13-.097.196-.293.13-.456-.065-.13-.294-.23-.457-.13A25.22 25.22 0 0 1 54.9 176.5c-.392.196-.065.75.326.587zm.195 3.458l5.614-2.838c.36-.196.033-.75-.326-.555l-5.614 2.838c-.392.163-.065.718.326.555zm9.465-4.794l5.973-3.98c.36-.23.033-.783-.326-.555l-5.973 3.98c-.36.23-.033.783.326.555z"/><path d="M71 171.607a9.82 9.82 0 0 0 .326-3.654c-.033-.163-.13-.326-.326-.326-.163 0-.36.163-.326.326a9.01 9.01 0 0 1-.294 3.49c-.13.392.5.555.62.164z"/><path d="M65.344 171.5a43.6 43.6 0 0 1 5.842-3.784c.36-.196.033-.75-.326-.554-2.056 1.1-3.982 2.38-5.842 3.783-.326.23 0 .783.326.555zm3.85 1.923c.13 2.6-.392 5.708-2.84 7.176-.98.587-2.12.717-3.198.326-.98-.36-1.828-1.174-2-2.25-.065-.424-.718-.424-.653 0 .26 1.958 2.187 3.23 4.08 3.164 2.22-.097 3.884-1.924 4.635-3.848.555-1.436.653-3 .587-4.534.033-.457-.62-.457-.62-.033z"/><path d="M70.37 172.553c.783 1.402.88 3.163.163 4.63-.62 1.305-1.795 2.316-3.198 2.707-.392.13-.228.75.163.62 1.567-.457 2.937-1.63 3.623-3.13.75-1.664.653-3.588-.228-5.186-.13-.36-.718-.033-.522.36zm-64.328-39.99c-.26-.457-.587-.88-.98-1.207-.098-.065-.196-.163-.26-.228-.098-.098-.26-.23-.392-.26-.228-.066-.522 0-.718.032a1.98 1.98 0 0 0-1.142.848 1.81 1.81 0 0 0-.26 1.37c.098.522.392 1 .85 1.305.13.098.36.033.457-.13s.033-.358-.13-.456c-.457-.326-.653-.98-.5-1.5.196-.554.816-.88 1.37-.848-.065 0-.098-.032-.163-.032.555.36 1.012.88 1.338 1.435.163.36.718.033.522-.326zm-.292-79.65l.392 3.033c.033.163.13.326.326.326.163 0 .36-.163.326-.326l-.392-3.033c-.033-.163-.13-.326-.326-.326-.163 0-.36.163-.326.326z"/><path d="M6.565 56.01l19.843 5.6c6.625 1.76 13.25 3.425 19.94 4.958l11.325 2.51c.424.098.587-.554.163-.62-6.723-1.435-13.414-2.968-20.104-4.632-6.658-1.63-13.283-3.392-19.876-5.25l-11.13-3.23c-.392-.098-.587.554-.163.652z"/><path d="M57.838 68.895c-.13-1.174-.098-2.348.163-3.5.098-.424-.555-.587-.62-.163a10.75 10.75 0 0 0-.163 3.686c.033.163.13.326.326.326.13-.033.326-.196.294-.36zm-.164-4.6L37.57 59.338 6.075 51.543c-.392-.098-.587.522-.163.62l51.6 12.753c.424.13.587-.522.163-.62z"/><path d="M57.348 64.98c4.798-3 9.726-5.806 14.785-8.383l4.308-2.185c.392-.196.033-.75-.326-.554-5.09 2.48-10.085 5.186-14.948 8.056l-4.145 2.512c-.36.196-.033.783.326.554z"/><path d="M76.114 54.022l.326 3.033c.033.163.13.326.326.326.163 0 .36-.163.326-.326l-.326-3.033c-.033-.163-.13-.326-.326-.326-.163 0-.36.163-.326.326zM57.837 68.44a172.15 172.15 0 0 0 17.787-10.666L57.837 68.44zm17.657-15.103C69.4 51.902 63.32 50.4 57.25 48.77S45.1 45.4 39.104 43.55l-10.117-3.197c-.392-.13-.587.5-.163.62 5.973 1.957 11.945 3.784 17.983 5.545s12.14 3.392 18.244 4.958l10.313 2.5c.392.065.555-.554.13-.652z"/><path d="M5.977 51.706L29.28 41.334c.392-.163.065-.718-.326-.554L5.65 51.15c-.392.163-.065.718.326.554zM5.814 167.8l17.07-9.687 4.798-2.74c.36-.196.033-.783-.326-.554L5.488 167.236c-.36.196-.033.783.326.554z"/><path d="M2.126 133.934l20.496 16.798 10.313 8.448 9.8 8.056c3.427 2.87 6.723 5.936 9.432 9.492.26.326.816 0 .555-.327-2.383-3.163-5.222-5.903-8.192-8.513-3.166-2.772-6.495-5.382-9.726-8.056l-32.21-26.387c-.294-.26-.783.195-.457.5zm4.178-.98l49.412 42.827c.326.26.783-.196.457-.457l-38.577-33.433L6.76 132.5c-.326-.294-.783.195-.457.456zM5.4 96.75c6.038 6.295 12.206 12.46 18.538 18.462 6.3 6 12.76 11.905 19.354 17.613l11.194 9.5c.326.26.783-.195.457-.456a546.77 546.77 0 0 1-19.778-17.124c-6.462-5.87-12.805-11.84-19.005-18.005L5.88 96.26c-.294-.294-.783.196-.5.5zm2.503-2l18.636 17.483 18.473 17.68 10.248 9.98c.294.293.75-.163.457-.457L37.34 121.67 18.802 104.1 8.36 94.337c-.294-.326-.75.13-.457.424z"/><path d="M7.674 94.924c-.098-.685-.914-.88-1.5-.685-.294.098-.587.294-.75.62a1.65 1.65 0 0 0-.033 1.305c.196.522.555.946.946 1.305.13.13.326.13.457 0s.13-.36 0-.457c-.294-.26-.522-.522-.718-.848a1.24 1.24 0 0 1-.163-.489v-.294c0-.033.033-.098.033-.13s.033-.098 0-.033c0-.033.033-.065.033-.065 0-.033.033-.033.033-.065-.033.033.033-.033 0 0L6.1 95s.033 0 .033-.033c-.065.033.033-.033 0 0 .065-.033.098-.065.163-.098 0 0 .033 0 .033-.033.033-.033-.065.033-.033 0 .033 0 .033-.033.065-.033.065-.033.13-.033.196-.033.033 0-.065 0-.033 0h.228c-.065 0 0 0 .033 0s.065 0 .098.033h.033c-.033 0 .065.033 0 0l.065.033c-.033-.033.065.033 0 0 0 0 .065.033.065.065 0 0-.033-.065-.033-.033 0 0 0 .033.033.033-.033-.065 0 0 0 .033s.033.065.033.098c.033.163.26.26.392.228.163.033.228-.13.196-.326zm46.77 47.196c.555.554 1.5.554 2.12.098.326-.26.555-.62.587-1.044s-.13-.848-.392-1.174c-.294-.36-.718-.588-1.208-.588-.163 0-.326.164-.326.327s.13.326.326.326h.163c.033 0 .065.032.13.032.033 0 .033 0 .065.033-.033-.033.033 0 0 0l.196.098.033.032.098.098c.033.033.033.066.065.098-.033-.065.033.033.033.033.033.065.098.13.13.228-.033-.065 0 .033 0 .033 0 .032.033.065.033.098s0 .065.033.097c0-.032 0-.065 0 0v.23c0 .032 0 .065-.033.098 0 .032 0 .032-.033.065-.033.065.033-.065 0 .032-.033.066-.065.13-.098.164.033-.066 0 0-.033.032l-.13.13c-.033.032-.065.032-.098.065s-.065.032-.098.032c0 0-.033 0-.033.033.033 0-.065.033 0 0-.065.033-.13.033-.196.065-.033 0-.065 0-.098.033.065 0-.033 0-.065 0H55.4c.098 0-.033 0-.065 0s-.065-.033-.098-.033-.13-.065-.065-.032c-.033-.033-.065-.033-.098-.066l-.033-.032-.098-.098c-.13-.13-.326-.13-.457 0-.163.098-.163.326-.033.457zM7.446 56.664L27.78 73.886 47.7 91.37l11.13 10.046c.294.294.783-.163.457-.456L39.43 83.18 19.4 65.86 7.902 56.205c-.326-.26-.783.196-.457.457z"/><path d="M14.17 59.1l45.627 39.075c.555.522 1.273 1.468.522 2.12-.196.164-1.24.783-1.338.294-.098-.424-.718-.228-.62.163.294 1.337 2.22.392 2.7-.293.424-.587.228-1.338-.098-1.925-.522-.848-1.403-1.468-2.154-2.12l-44.2-37.836c-.294-.196-.783.26-.457.522zM7.087 94.37l25.946-15.885c.36-.228.033-.783-.326-.555L6.76 93.815c-.36.196-.033.783.326.555z"/><path d="M35.383 77.18a468.78 468.78 0 0 0 15.242-8.644c.36-.228.033-.783-.326-.555a393.27 393.27 0 0 1-15.24 8.644c-.392.196-.065.75.326.555zM54.64 68.7c-5.418 3.62-11.064 6.85-16.906 9.72-.392.196-.033.75.326.554 5.842-2.87 11.488-6.1 16.906-9.72.36-.196.033-.783-.326-.555zM34.567 80.572l-10.607 5.87c-3.33 1.827-6.593 3.75-9.66 6.034-1.567 1.174-3.166 2.414-5.06 3.033-.392.13-.228.75.163.62 1.697-.554 3.133-1.566 4.537-2.6 1.5-1.142 3.035-2.25 4.634-3.23 3.296-2.087 6.756-3.914 10.15-5.773l6.136-3.392c.392-.163.065-.75-.294-.554zm21.77 18.722L36.07 111.526l-5.68 3.588c-.36.228-.033.782.326.554l20.17-12.427 5.8-3.392c.326-.196 0-.75-.36-.554zm2.514 1.86c-6.56 4.37-13.25 8.546-19.94 12.754l-5.744 3.62c-.36.23-.033.783.326.555l20.04-12.623 5.68-3.718c.294-.26-.033-.848-.36-.588zm-31.8 16.472l-8.877 5.284-8.616 5.186-4.634 3.197c-.326.26 0 .815.326.554 2.676-2.022 5.516-3.75 8.355-5.48l8.747-5.187 4.993-2.968c.424-.26.098-.815-.294-.587zm1.73 2.577l-16.808 9.785-4.896 2.968c-.36.23-.033.783.326.555 5.58-3.425 11.227-6.72 16.906-9.98l4.798-2.773c.36-.195.033-.782-.326-.554zm23.107 19.603L28.43 151.188c-.392.196-.033.75.326.555L47 142.936l5.222-2.577c.392-.163.065-.717-.326-.554zM25.56 152.558c-6.038 3.784-12.37 7.1-18.473 10.73a120.26 120.26 0 0 0-5.124 3.164c-.36.228-.033.783.326.555 5.973-3.85 12.272-7.176 18.407-10.764a136.99 136.99 0 0 0 5.189-3.131c.36-.196.033-.783-.326-.555zm5.352 1.24a488.83 488.83 0 0 0 17.95-8.774l4.993-2.6c.36-.196.033-.75-.326-.554-5.875 3.13-11.815 6.132-17.82 8.97l-5.124 2.414c-.392.163-.065.75.326.555zm39.066 13.34l-4.7-.783c-.424-.065-.588.555-.163.62l4.7.783c.392.065.555-.555.163-.62zm-7.963-.718a211.53 211.53 0 0 1-16.057-3.685l-4.667-1.272c-.392-.13-.587.522-.163.62 5.287 1.5 10.607 2.87 15.992 4.012l4.732.946c.392.098.555-.522.163-.62zm-27.807-6.588l-6.364-1.827c-.392-.13-.588.522-.163.62l6.364 1.827c.392.13.555-.5.163-.62z"/><path d="M18.5 161.724l8.78-2.87c.392-.13.228-.75-.163-.62l-8.78 2.87c-.424.098-.228.75.163.62zm24.88-13.994l9.008 7.404 6.07 5.22 3.133 3c.294.294.783-.163.457-.456l-4.994-4.664c-2.676-2.35-5.483-4.534-8.224-6.817l-5.026-4.143c-.294-.26-.75.196-.424.457zm-25.033-20.646l22.4 18.494c.326.26.783-.196.457-.457L23.96 130.9l-5.2-4.24c-.26-.293-.75.163-.424.424zm46.507 36.042l4.83 4.208c.326.26.783-.196.457-.457l-4.83-4.208c-.294-.26-.75.196-.457.457zM45.958 146.72l12.24 10.633 3.557 3.1c.326.26.783-.196.457-.457l-15.796-13.7c-.294-.327-.783.163-.457.424zM21.48 125.453L42.922 144.1c.326.26.783-.195.457-.456l-16.645-14.45-4.798-4.175c-.326-.293-.783.163-.457.424zm21.997-13.96c6.3 6.002 12.696 11.905 19.3 17.58l5.7 4.827c.326.26.783-.196.457-.456-6.756-5.578-13.316-11.416-19.713-17.385l-5.287-5c-.294-.326-.75.13-.457.424zM20.73 89.118l15.6 15.428 4.373 4.24c.294.293.75-.163.457-.457L25.657 93.064l-4.47-4.436c-.294-.26-.75.196-.457.5zm26 20.55l17.46 16.83 5.1 4.958c.294.293.75-.163.457-.457l-17.56-17.026-4.96-4.762c-.326-.294-.783.163-.5.457zM23.144 87.454l16.253 15.232 4.504 4.273c.294.294.75-.163.457-.456L28.3 91.368l-4.667-4.338c-.326-.326-.783.13-.5.424z"/><path d="M68.445 133.64c.555.555 1.5.555 2.12.098.326-.26.555-.62.587-1.044s-.13-.848-.392-1.174c-.294-.36-.718-.587-1.208-.587-.163 0-.326.163-.326.326s.13.326.326.326h.163c.033 0 .065.033.13.033.033 0 .033 0 .065.033-.033-.033.033 0 0 0l.196.097.13.13c.033.032.033.065.065.098-.033-.066.033.032.033.032.033.066.098.13.13.23-.033-.066 0 .032 0 .032 0 .033.033.065.033.098s0 .065.033.098c0-.033 0-.065 0 0v.228c0 .033 0 .066-.033.098 0 .033 0 .033-.033.065-.033.066.033-.065 0 .033-.033.065-.065.13-.098.163.033-.065 0 0-.033.033l-.098.098-.033.032c-.033.033-.065.033-.098.065s-.065.033-.098.033c0 0-.033 0-.033.033.033 0-.065.032 0 0-.065.032-.13.032-.196.065-.033 0-.065 0-.098.032.065 0-.033 0-.065 0h-.228c.098 0-.033 0-.065 0s-.065-.032-.098-.032-.13-.065-.065-.033c-.033-.032-.065-.032-.098-.065l-.033-.033-.098-.097c-.13-.13-.326-.13-.457 0-.163.13-.163.326-.033.456zM47.622 69.645l-4.928-4.273c-.326-.26-.783.196-.457.457l4.928 4.273c.294.293.75-.163.457-.457zM73.275 92.5L55.422 76.528l-5.06-4.47c-.326-.26-.783.196-.457.457l17.918 15.917 4.993 4.534c.294.294.783-.163.457-.457z"/><path d="M51.898 70.95l21.116 18.07c.718.62 1.86 1.435 1.665 2.5-.065.326-.228.685-.5.913-.424.36-.88.13-1.24-.163-.326-.26-.783.196-.457.457.653.522 1.47.783 2.154.196.555-.5.816-1.337.685-2.055-.196-.946-1.012-1.63-1.73-2.218l-21.214-18.2c-.36-.228-.816.228-.5.5zm-5.092-4.338l2.6 2.218c.13.13.326.13.457 0s.13-.36 0-.457l-2.6-2.218c-.13-.13-.326-.13-.457 0-.098.13-.13.36 0 .457z"/><path d="M70.337 90.847l-10.705 6.328c-.36.228-.033.783.326.555l10.706-6.33c.36-.196.033-.75-.326-.554zm2.775 1.403l-7.148 4.305-4.7 2.936c-.36.228-.033.783.326.554l6.984-4.305 3.068-1.794 1.828-1.142c.326-.228 0-.783-.36-.555zm-6.397 39.63c-3.72 2.5-7.4 5.056-11.26 7.37-.36.23-.033.783.326.555 3.85-2.283 7.54-4.86 11.26-7.372.36-.228.033-.782-.326-.554zm-23.042 15.655l-6.168 3.947-4.96 3.13c-.326.228 0 .815.326.554 1.6-1.14 3.264-2.12 4.96-3.13L44 148.1c.36-.23.033-.783-.326-.555zm5.19.587c5.45-3.783 10.607-7.926 16.155-11.58 1.305-.848 2.6-1.696 3.982-2.38.36-.196.033-.75-.326-.554-2.742 1.402-5.32 3.26-7.833 5.023l-8.68 6.295-3.623 2.6c-.326.26 0 .848.326.587zm-19.288 7.958l-2.1 1.565c-.098.066-.196.13-.294.23-.13.098-.228.293-.13.456.065.13.294.23.457.13l2.1-1.566c.098-.065.196-.13.294-.228.13-.098.23-.294.13-.457-.098-.13-.326-.228-.457-.13zm.826 2.97l1.207-.913a.71.71 0 0 0 .163-.131c.065-.065.13-.098.163-.195.033-.066 0-.196-.033-.26-.098-.13-.294-.23-.457-.13l-1.207.913a.71.71 0 0 0-.163.131c-.065.065-.13.098-.163.196-.033.065 0 .195.033.26.098.13.326.23.457.13zm3.94-1.893l4.047-2.413 6.495-3.85 1.5-.88c.36-.228.033-.783-.326-.554l-4.047 2.413-7.996 4.73c-.36.195-.033.75.326.554zM6.173 54.772l3.1-1.73c.196-.098.033-.4-.163-.294L6 54.478c-.196.098-.033.4.163.294zm.75 1.076c1.273-.783 2.6-1.435 4.014-2 .196-.065.098-.4-.098-.326a26.72 26.72 0 0 0-4.112 2.022c-.163.13 0 .4.196.294zm1.826.326c1.436-.75 2.905-1.402 4.44-1.924.196-.065.098-.4-.098-.326-1.534.554-3.068 1.207-4.504 1.957-.196.098-.033.4.163.294zm1.796.62l4.863-2.12c.196-.098.033-.36-.163-.294l-4.863 2.12c-.196.098-.033.36.163.294zm1.96.556l5.777-2.316c.196-.065.098-.4-.098-.326a60.3 60.3 0 0 0-5.842 2.35c-.196.098-.033.4.163.293zm2.055.553l5.483-2.544c.196-.098.033-.36-.163-.294L14.398 57.6c-.196.098 0 .36.163.294zm1.763.62l5.777-2.316c.196-.065.098-.4-.098-.326l-5.777 2.316c-.163.098-.098.424.098.326zm2.09.554l6.2-2.38c.196-.065.098-.4-.098-.326l-6.2 2.38c-.163.098-.098.424.098.326zm1.762.62l6.364-2.512c.196-.065.098-.4-.098-.326l-6.364 2.5c-.196.098-.098.4.098.326zm1.926.62c2.22-.718 4.406-1.566 6.527-2.577.196-.098.033-.36-.163-.294a55.38 55.38 0 0 1-6.462 2.544c-.196.065-.098.4.098.326zm2.35.685l7.115-2.544c.196-.065.098-.4-.098-.326l-7.115 2.544c-.196.065-.098.4.098.326zm2.84.588l6.266-2.544c.196-.065.098-.4-.098-.326l-6.266 2.544c-.163.065-.098.4.098.326zm2.545.684l6.3-2.577c.196-.065.098-.4-.098-.326l-6.364 2.6c-.196.098-.033.36.163.294zm2.35.586a69.77 69.77 0 0 1 6.788-3c.196-.065.098-.4-.098-.326a64.34 64.34 0 0 0-6.854 3.033c-.196.13-.033.4.163.294zm2.382.523c2.056-1.044 4.145-1.957 6.3-2.773.196-.065.098-.4-.098-.326-2.187.815-4.308 1.76-6.364 2.805-.196.098-.033.4.163.294zm2.807.39l5.45-2.348c.196-.065.098-.392-.098-.326l-5.548 2.38c-.13.098.033.36.196.294zm2.22.556l5.973-2.6c.196-.065.098-.4-.098-.326l-6.038 2.642c-.163.098 0 .36.163.294zm2.187.716l5.842-2.675c.196-.098.033-.36-.163-.294l-5.842 2.675c-.196.098-.033.4.163.294zm2.187.654l5.712-2.577c.196-.098.033-.36-.163-.294l-5.7 2.577c-.163.098 0 .4.163.293zm2.186.52l5.973-2.6c.196-.098.033-.36-.163-.294L46 65.927c-.196.098-.033.36.163.293zm2.383.588l5.875-2.74c.196-.098.033-.36-.163-.294l-5.875 2.74c-.196.098 0 .36.163.293zm2.872.326L56 64.655c.196-.098 0-.4-.163-.293l-4.602 2.48c-.196.098-.033.36.163.293zm2.09.554l3.916-2.087c.196-.098.033-.4-.163-.294l-3.916 2.088c-.196.098-.033.4.163.293zm1.468.5l2.774-1.305c.196-.098.033-.36-.163-.294l-2.774 1.305c-.196.098-.033.4.163.294z"/><path d="M43.87 67.003c.36-.228.718-.457 1.1-.62.065-.033.098-.163.065-.228s-.13-.098-.228-.065l-1.1.62c-.065.033-.098.13-.065.228.033.065.13.098.228.065zm.978.653c.424-.326.88-.62 1.37-.783.098-.033.13-.098.098-.196-.033-.065-.13-.13-.196-.098-.555.196-1.077.5-1.534.88-.065.065-.065.163 0 .228.098.033.196.033.26-.033zM46 68.667l1.86-1.207c.163-.098 0-.4-.163-.294l-1.86 1.207c-.163.098 0 .392.163.294zm1.1.88l1.828-1.076c.196-.098.033-.392-.163-.294l-1.828 1.076c-.163.098 0 .392.163.294zm3.557 3.295l2.1-1.174c.196-.098.033-.4-.163-.294l-2.1 1.174c-.196.098-.033.4.163.294zm.947.858a11.64 11.64 0 0 1 2.187-1.142c.098-.033.13-.098.098-.196-.033-.065-.13-.13-.196-.098-.783.326-1.567.718-2.252 1.174-.163.098 0 .4.163.26zm1.338.707l1.73-.913c.196-.098.033-.4-.163-.294l-1.73.913c-.196.098-.033.392.163.294zm.978.913a8.23 8.23 0 0 1 1.893-1.044c.065-.033.13-.098.098-.196-.033-.065-.13-.163-.196-.098-.685.293-1.37.652-1.958 1.076-.065.065-.098.13-.065.228.065.065.163.098.228.033zm.686.914l2-1.207c.163-.098 0-.4-.163-.294l-2 1.207c-.163.098 0 .4.163.294zm1.1 1.01c.587-.424 1.207-.815 1.86-1.1.065-.033.098-.163.065-.228-.033-.098-.13-.098-.228-.065a9.56 9.56 0 0 0-1.86 1.11c-.065.065-.098.13-.065.228s.163.13.23.065zm.98.848a14.28 14.28 0 0 1 2.154-1.272c.196-.098.033-.36-.163-.294a14.45 14.45 0 0 0-2.154 1.272c-.065.065-.098.13-.065.228.033.065.163.098.228.065zm1.1.783a5.85 5.85 0 0 1 2.023-1.11c.196-.065.13-.4-.098-.326-.783.228-1.534.652-2.187 1.174-.13.163.13.4.26.26zm.815.848c.685-.555 1.436-1 2.252-1.305.196-.065.098-.4-.098-.326-.88.326-1.697.815-2.415 1.403-.13.13.098.36.26.228zm1.176.946c.685-.555 1.5-.946 2.35-1.174.196-.065.13-.36-.098-.326-.914.228-1.73.685-2.48 1.24-.065.065-.065.163 0 .228.065.098.163.065.228.033zm1.11.783a10.18 10.18 0 0 1 1.893-1.174c.065-.033.098-.163.065-.228-.033-.098-.13-.098-.23-.065-.718.326-1.37.718-1.958 1.207-.065.065-.065.163 0 .228.065.13.163.098.228.033zm1.077.75c.522-.424 1.1-.783 1.73-1.076.065-.033.098-.163.065-.228-.033-.098-.13-.098-.228-.065-.653.293-1.24.685-1.795 1.1-.065.065-.065.163 0 .228.065.098.163.098.228.033zm.718 1.077a11.37 11.37 0 0 1 2.219-1.239c.098-.033.13-.098.098-.196-.033-.065-.13-.163-.196-.098-.816.326-1.567.75-2.285 1.272-.196.098-.033.36.163.26zm1.208.717c.522-.424 1.077-.75 1.665-1.044.196-.098.033-.4-.163-.294-.62.294-1.175.685-1.73 1.1-.065.065-.065.163 0 .228.098.065.163.065.228 0zm.782 1.11a11.8 11.8 0 0 1 2.219-1.337c.196-.098.033-.36-.163-.294a11.8 11.8 0 0 0-2.219 1.337c-.065.065-.098.13-.065.228.033.065.13.098.228.065zm1.1.784a8.38 8.38 0 0 1 2.187-1.337c.065-.033.098-.163.065-.228-.033-.098-.13-.098-.228-.065-.816.36-1.567.848-2.252 1.403-.163.13.065.36.228.228zm1.404.618l1.403-.978c.065-.065.098-.13.065-.228-.033-.065-.163-.098-.228-.065l-1.403.978c-.065.065-.098.13-.065.228s.163.13.228.065zm.5.914c.555-.5 1.142-.913 1.762-1.305.196-.098.033-.4-.163-.294a12.52 12.52 0 0 0-1.828 1.337c-.163.163.065.4.228.26zm1.206.522l1.403-1.174c.065-.065.065-.163 0-.228s-.163-.065-.228 0l-1.403 1.174c-.065.065-.065.163 0 .228s.163.065.228 0zm.524 1.076a12.96 12.96 0 0 1 2.317-1.435c.196-.098.033-.36-.163-.293-.85.4-1.665.88-2.383 1.468-.065.065-.065.163 0 .228.065.098.163.065.23.033zm1.24 1.044c.424-.457.914-.815 1.5-1.076.065-.033.098-.163.065-.228s-.13-.098-.228-.065c-.588.294-1.1.685-1.567 1.142-.13.13.098.4.228.228zm.686.936c.685-.587 1.47-1.044 2.317-1.403.098-.033.13-.098.098-.196-.033-.065-.13-.163-.196-.098a9.44 9.44 0 0 0-2.448 1.468c-.163.13.065.36.228.228zm1.044.988c.555-.555 1.208-1 1.926-1.272.098-.033.13-.098.098-.196-.033-.065-.13-.13-.196-.098-.783.294-1.5.783-2.1 1.37-.098.13.13.36.26.196zM60.58 97.076l.033 1.957c0 .196.326.196.326 0a12.92 12.92 0 0 0-.033-1.957c0-.196-.326-.196-.326 0zm.945-.326a11.05 11.05 0 0 1-.13 2.316c0 .098.033.163.098.196s.196-.033.196-.098a11.87 11.87 0 0 0 .13-2.414c.033-.228-.294-.228-.294 0zm.85-.717a16.53 16.53 0 0 1-.098 2.544c-.033.196.294.196.326 0a16.58 16.58 0 0 0 .098-2.544c0-.196-.326-.196-.326 0zm1.24-.816l-.065 2.348c0 .196.326.196.326 0l.065-2.348c0-.228-.326-.228-.326 0zm1.666-.847s-.033 0-.033.033h-.098c-.098-.033 0-.033-.033 0s0 .13 0 .163v1.957c0 .196.326.196.326 0v-1.86c0-.098.033-.228 0-.36-.033-.196-.228-.326-.392-.196-.163.163.065.4.228.26zm1.206-.816l-.098 2.283c0 .196.326.196.326 0l.098-2.283c0-.228-.326-.228-.326 0zm1.274-.718c.196.685.26 1.403.26 2.12 0 .196.326.196.326 0 .033-.75-.065-1.468-.26-2.185-.065-.228-.36-.163-.326.065zm1.762-1.044c.098.75.13 1.533.13 2.283 0 .196.326.196.326 0 0-.75-.033-1.533-.13-2.283 0-.098-.065-.163-.163-.163-.065 0-.163.098-.163.163zm1.208.108c.196.424.294.946.196 1.435 0 .098.033.163.098.196s.196-.033.196-.098c.098-.587 0-1.142-.228-1.664-.033-.065-.163-.098-.228-.065-.065 0-.065.098-.033.196zm-49.087-2.456l2.415-1.174c.196-.098.033-.36-.163-.294L21.48 89.15c-.163.098 0 .4.163.294zm.5.913l2.774-1.272c.196-.098.033-.36-.163-.293l-2.774 1.272c-.196.098-.033.36.163.294zm1.534.783l2.154-.978c.065-.033.098-.163.065-.228-.033-.098-.13-.098-.23-.065l-2.154.98c-.065.033-.098.163-.065.228.065.098.163.098.23.065zm1.403.88a13.45 13.45 0 0 1 2.252-.881c.196-.065.13-.36-.098-.326-.816.228-1.567.554-2.317.913-.196.13-.033.4.163.294zm.75 1.37l2.154-1.076c.196-.098.033-.4-.163-.293l-2.154 1.076c-.196.13-.033.4.163.294zm1.012.98l2.382-1c.196-.098.033-.36-.163-.294l-2.317.98c-.098.033-.13.098-.098.196s.13.163.196.13zm1.338.912l2.415-1.044c.098-.033.098-.163.065-.228-.033-.098-.13-.098-.23-.065l-2.415 1.044c-.098.033-.098.163-.065.228.065.098.163.098.23.065zm.784 1.533a32.97 32.97 0 0 1 2.937-1.239c.196-.065.098-.4-.098-.326-1.044.36-2.023.783-3.035 1.272-.163.098 0 .4.196.293zm1.273 1.012a23.71 23.71 0 0 0 2.578-1.24c.196-.098.033-.4-.163-.294a25.37 25.37 0 0 1-2.513 1.207c-.098.033-.13.098-.098.196s.13.163.196.13zm1.01 1.043c.947-.5 1.926-.913 2.937-1.207.196-.065.13-.4-.098-.326-1.044.326-2.056.75-3.035 1.24-.163.13 0 .4.196.294zm1.306.98c.98-.554 2.056-.946 3.166-1.207.196-.033.13-.36-.098-.326-1.142.26-2.22.685-3.23 1.24-.196.13-.033.4.163.294zm1.076 1.27c.783-.294 1.534-.653 2.252-1.044.196-.098.033-.4-.163-.293a19 19 0 0 1-2.187 1.01c-.196.065-.098.4.098.326zm1.143 1.045c.85-.392 1.763-.685 2.676-.946.196-.066.13-.36-.098-.326a19.46 19.46 0 0 0-2.742.978c-.196.065-.033.36.163.294zm1.24 1.337a24.76 24.76 0 0 1 2.709-1.109c.196-.065.098-.4-.098-.326-.946.326-1.86.685-2.774 1.14-.196.098-.033.36.163.294zm1.207.978l2.97-1.24c.196-.065.098-.4-.098-.326l-2.97 1.24c-.163.098-.098.424.098.326zm1.437.85c.816-.425 1.665-.718 2.546-.946.196-.066.13-.36-.098-.327a11.96 11.96 0 0 0-2.61.98c-.196.098 0 .4.163.294zm.62 1.532c.783-.425 1.6-.718 2.48-.946.196-.066.13-.36-.098-.327a12.14 12.14 0 0 0-2.546.98c-.196.098 0 .4.163.294zm1.143 1.076l2.7-.98c.196-.065.098-.4-.098-.326l-2.7.98c-.163.065-.098.4.098.326zm5.352 5.414c.424-.456 1.077-.652 1.632-.913l1.958-.88c.196-.097.033-.358-.163-.293l-2.023.913c-.555.26-1.208.457-1.632.946-.163.13.065.4.228.228zm.978.88l3.6-1.533c.196-.098.033-.36-.163-.294l-3.492 1.5c-.228.098-.13.424.065.326zm-1.762-2.185l3.46-1.86c.196-.097.033-.4-.163-.293l-3.46 1.86c-.163.098 0 .36.163.294zm2.872 3.23a32.84 32.84 0 0 1 3.72-1.827c.196-.065.098-.4-.098-.326-1.305.555-2.578 1.142-3.818 1.86-.13.13.033.424.196.294zm.914 1.11c1.273-.685 2.6-1.174 4.014-1.533.196-.066.13-.36-.098-.326a17.57 17.57 0 0 0-4.08 1.565c-.196.13-.033.392.163.294zm1.404.946l3.46-1.468c.196-.098.033-.36-.163-.294l-3.46 1.468c-.196.098-.033.4.163.294zm1.044 1.174c1.012-.555 2.056-.98 3.166-1.24.196-.065.13-.358-.098-.326a13.89 13.89 0 0 0-3.23 1.272c-.196.098-.033.392.163.294zm1.175.946c1.044-.587 2.154-1 3.296-1.24.196-.032.13-.358-.098-.326-1.175.228-2.35.685-3.394 1.272-.163.13 0 .392.196.294zm1.24.913a24.8 24.8 0 0 1 2.872-1.272c.196-.065.098-.4-.098-.326-1.012.36-2.024.815-2.97 1.304-.163.098 0 .392.196.294zm.98 1.01l3.198-1.435c.196-.065.098-.4-.098-.326l-3.264 1.468c-.196.13-.033.4.163.293zm1.144.816l3.198-1.044c.196-.065.098-.392-.098-.326l-3.198 1.043c-.196.066-.098.392.098.327zm1.206 1.043c.914-.5 1.893-.88 2.872-1.207.196-.065.13-.4-.098-.326a19.61 19.61 0 0 0-2.97 1.24c-.13.098.033.4.196.293zm.88 1.305l3.003-1.24c.196-.066.098-.392-.098-.327l-3.003 1.24c-.196.098-.098.424.098.326zm1.503.783l2.513-1.24c.196-.097.033-.358-.163-.293l-2.513 1.24c-.196.098-.033.36.163.294zm1.043.88c.816-.424 1.665-.782 2.546-1.076.196-.065.098-.4-.098-.326a15.31 15.31 0 0 0-2.611 1.109c-.196.098-.033.4.163.293zm.98 1.077l2.774-.98c.196-.065.098-.4-.098-.326l-2.774.98c-.163.065-.098.4.098.326zm1.24 1.044c.587-.392 1.273-.718 1.958-.88.196-.065.13-.36-.098-.326a7.54 7.54 0 0 0-2.023.913c-.163.13 0 .4.163.294zm.98.75l1.86-.783c.065-.033.098-.163.065-.228-.065-.098-.13-.098-.228-.066l-1.86.783c-.065.033-.098.163-.065.23s.13.097.23.065zm1.078.88l2.1-.913c.065-.032.098-.163.065-.228-.033-.098-.13-.098-.228-.065l-2.1.913c-.065.033-.098.163-.065.228.065.065.163.098.23.065zm.847.946c.718-.4 1.47-.717 2.252-.946.196-.065.13-.358-.098-.326a10.56 10.56 0 0 0-2.35.98c-.163.13 0 .4.196.293zm1.045.848c.555-.326 1.142-.554 1.762-.75.196-.065.13-.36-.098-.326a6.63 6.63 0 0 0-1.86.783c-.163.13 0 .4.196.293zm.815.848l2.187-.945c.098-.033.13-.098.098-.196-.033-.065-.13-.13-.196-.098l-2.252.978c-.196.066 0 .327.163.26zm.913.424l1.664-.782c.065-.033.098-.163.065-.23-.033-.098-.13-.098-.228-.065l-1.664.783c-.065.033-.098.163-.065.228.065.065.163.098.228.065zm-48.204-5.055l2.48-1.63c.163-.13 0-.4-.163-.294l-2.48 1.63c-.196.098-.033.392.163.294zm.98.815l2.252-1.435c.163-.098 0-.4-.163-.293l-2.252 1.435c-.196.13-.033.424.163.293zm1.24.98l2.383-1.5c.163-.098 0-.4-.163-.293l-2.382 1.5c-.196.098-.033.392.163.294zm1.077.847l2.154-1.305c.196-.098.033-.4-.163-.293a17.8 17.8 0 0 0-2.154 1.304c-.163.13 0 .424.163.294zm1.24.978c.718-.5 1.47-.913 2.252-1.304.196-.098.033-.36-.163-.294-.783.36-1.534.816-2.252 1.305-.163.13 0 .424.163.293zm1.087 1.142c.783-.555 1.632-1 2.513-1.403.098-.032.098-.163.065-.228-.033-.098-.13-.098-.228-.065a12.78 12.78 0 0 0-2.513 1.402c-.196.13-.033.392.163.294zm1.295.913a25.81 25.81 0 0 1 2.513-1.239c.098-.033.13-.098.098-.196-.033-.065-.13-.163-.196-.098-.88.36-1.762.816-2.6 1.272-.13.066.033.36.196.26zm1.045.946a14.72 14.72 0 0 1 2.252-1.174c.196-.065.098-.4-.098-.326-.816.326-1.6.717-2.317 1.207-.163.13 0 .424.163.293zm.718.946L31 134.227c.196-.098.033-.4-.163-.293l-2.252 1.304c-.196.098-.033.392.163.294zm1.272.718c.685-.5 1.436-.848 2.252-1.077.196-.065.13-.36-.098-.326-.85.26-1.632.62-2.35 1.1-.13.13.033.4.196.294zm1.208.554l2.12-1.076c.196-.098.033-.392-.163-.294l-2.12 1.076c-.196.13-.033.392.163.294zm1.045.848a16.94 16.94 0 0 1 2.187-1.044c.196-.065.098-.4-.098-.326a14.31 14.31 0 0 0-2.252 1.077c-.196.13-.033.4.163.293zm.947.978a15.57 15.57 0 0 1 2.12-1.01c.065-.033.13-.098.098-.196-.033-.065-.13-.163-.196-.098-.75.294-1.47.652-2.187 1.044-.163.065 0 .36.163.26zm1.1.653c.587-.36 1.208-.685 1.86-.946.098-.033.13-.098.098-.196-.033-.065-.13-.163-.196-.097a11.87 11.87 0 0 0-1.926.978c-.163.098 0 .4.163.26zm.945 1.044a5.96 5.96 0 0 1 2.22-1.077c.196-.065.13-.358-.098-.326-.816.196-1.632.587-2.285 1.1-.065.065-.098.13-.065.228.033.066.163.098.23.066zm1.012.978l1.958-.978c.196-.098.033-.36-.163-.294l-1.958.98c-.196.098-.033.4.163.293zm1.403.783c.685-.4 1.436-.718 2.187-.946.196-.065.098-.4-.098-.326a13.78 13.78 0 0 0-2.252.979c-.196.097-.033.4.163.293zm1.143 1.012c.457-.4 1.012-.652 1.6-.815.196-.065.13-.36-.098-.326-.62.163-1.208.5-1.73.88a.16.16 0 0 0 0 .23c.065.097.13.097.23.032zm1.077 1.076c.685-.457 1.436-.783 2.252-.914.196-.032.13-.36-.098-.326a5.54 5.54 0 0 0-2.317.946c-.196.13-.033.4.163.294zM29.182 156.83c.13.326.228.685.196 1.044 0 .098.065.163.163.163s.163-.065.163-.163c0-.424-.098-.816-.26-1.207-.033-.065-.163-.098-.23-.065-.065.065-.065.163-.033.228zm1.044.1l.065.75c0 .098.065.163.163.163.065 0 .163-.065.163-.163l-.065-.75c0-.098-.065-.163-.163-.163-.065 0-.163.065-.163.163zm2.904-2.154c-.033.326-.033.652.065.946.033.098.13.13.196.098.098-.033.13-.098.098-.196-.033-.065-.033-.13-.033-.228 0 .032 0-.033 0-.033v-.62c0-.098-.098-.164-.163-.164-.098.033-.13.098-.163.196zm1.176-.716a13.96 13.96 0 0 0 .065 2.022c0 .098.065.163.163.163.065 0 .163-.065.163-.163a13.81 13.81 0 0 1-.065-2.022c.033-.196-.294-.196-.326 0zm1.47-.784c.13.587.13 1.174.065 1.76 0 .098.098.163.163.163.098 0 .163-.065.163-.163.065-.62.033-1.24-.065-1.86-.065-.196-.392-.098-.326.098zm1.762-1.272l.13 2.348c0 .196.326.196.326 0l-.13-2.348c0-.23-.326-.23-.326 0zm1.763-.848a14.87 14.87 0 0 1-.065 2.087c0 .098.098.163.163.163.098 0 .163-.065.163-.163.065-.685.098-1.402.065-2.087-.033-.196-.36-.196-.326 0zm1.697-1.176l.065 2.023c0 .195.326.195.326 0l-.065-2.023c0-.195-.326-.195-.326 0zm1.827-1.173a17.77 17.77 0 0 1 .033 2.283c0 .196.326.196.326 0a17.77 17.77 0 0 0-.033-2.283c-.033-.228-.36-.228-.326 0zm1.404-.197l.13 1.664c0 .098.065.163.163.163s.163-.065.163-.163l-.13-1.664c0-.097-.065-.163-.163-.163s-.163.066-.163.163zm2.742-2.477c.065.358.065.717.033 1.076 0 .098.065.163.163.163s.163-.065.163-.163c.033-.4.033-.783-.033-1.142 0-.098-.13-.13-.196-.098-.098 0-.13.098-.13.164zm1.044-.653c.065.685.033 1.338-.033 2.022 0 .098.098.164.163.164.098 0 .163-.066.163-.164.065-.652.098-1.337.033-2.022-.033-.228-.36-.228-.326 0zm1.37-.783v1.664c0 .196.326.196.326 0v-1.664c0-.195-.326-.195-.326 0zm1.916-1.11v1.73c0 .196.326.196.326 0v-1.73c0-.195-.326-.195-.326 0zm1.48-.358c.065.326.065.652-.033.946-.033.097.033.195.098.195.098.033.163-.032.196-.098.098-.358.098-.75.033-1.14-.033-.098-.13-.13-.196-.098s-.098.098-.098.196zm1.174-.685c.065.293.098.62.065.913 0 .098.065.163.163.163s.163-.065.163-.163a2.67 2.67 0 0 0-.098-1.011c-.033-.098-.13-.13-.196-.098s-.13.098-.098.196z"/><path d="M56.663 139.152c.065.62.098 1.24.033 1.86 0 .195.326.195.326 0 .033-.62.033-1.24-.033-1.86 0-.097-.065-.163-.163-.163-.065 0-.163.098-.163.163zm1.5-.88l-.065 2.022c0 .196.326.196.326 0l.065-2.022c0-.228-.326-.228-.326 0zm1.273-.718c.098.555.065 1.142-.098 1.73-.065.196.26.293.326.098.163-.62.163-1.272.098-1.892 0-.098-.13-.13-.196-.098-.098-.032-.13.065-.13.163zm1.73-1.304a16.53 16.53 0 0 1-.098 1.794c0 .097.065.163.163.163s.163-.066.163-.163a16.53 16.53 0 0 0 .098-1.794c0-.196-.326-.196-.326 0zm1.47-.88a10.04 10.04 0 0 0 .033 1.73c0 .097.065.163.163.163.065 0 .163-.066.163-.163-.065-.588-.065-1.142-.033-1.73 0-.228-.326-.228-.326 0zm1.37-1.045l.098 1.598c0 .196.326.196.326 0l-.098-1.598c0-.228-.326-.228-.326 0zm1.468-1.14c.098.62.13 1.272.065 1.9 0 .098.098.163.163.163.098 0 .163-.065.163-.163a8.13 8.13 0 0 0-.065-1.989c0-.098-.13-.13-.196-.098-.13 0-.163.098-.13.196zm1.1-.284a2.38 2.38 0 0 1 0 1.174c-.065.196.26.294.326.098a3.08 3.08 0 0 0 0-1.337c-.065-.23-.392-.13-.326.065zm-21.4 15.842a10.16 10.16 0 0 1 1.926-.88c.196-.065.098-.4-.098-.326-.685.228-1.37.522-2 .913-.196.098-.033.392.163.294zm.946.783a7.44 7.44 0 0 0 1.958-.88c.163-.13 0-.4-.163-.293-.587.4-1.208.684-1.893.848-.196.065-.098.4.098.326zm-1.566-1.565a5.57 5.57 0 0 1 1.273-.554c.196-.066.13-.36-.098-.327a5.09 5.09 0 0 0-1.37.588c-.163.13 0 .424.196.293zm2.644 2.543c.522-.293 1.1-.5 1.665-.652.196-.065.13-.36-.098-.326-.62.163-1.208.4-1.762.685-.163.098 0 .4.196.293zm1.24 1.142c.555-.326 1.142-.62 1.762-.816.196-.065.098-.4-.098-.326-.653.23-1.273.5-1.86.848-.163.13 0 .392.196.294zm1.338.945a17.61 17.61 0 0 0 2.187-.816c.098-.032.098-.163.065-.228-.033-.098-.13-.098-.228-.065l-2.1.783c-.196.065-.13.4.065.326zm1.404 1.1l1.697-.62c.098-.033.13-.098.098-.196-.033-.065-.13-.13-.196-.098l-1.697.62c-.098.033-.13.098-.098.196.033.065.098.13.196.098zm1.1.978c.294.26.653-.098.914-.228.294-.163.62-.26.98-.294.196 0 .196-.326 0-.326a3.09 3.09 0 0 0-.946.229c-.13.065-.294.13-.424.228-.033.033-.228.196-.26.163-.163-.13-.392.098-.26.228zm1.533 1.044l1.5-.62c.065-.032.13-.098.098-.195-.033-.066-.13-.164-.196-.098l-1.5.62c-.065.033-.13.098-.098.196 0 .065.098.13.196.098zm1.307.946c.685-.26 1.403-.457 2.154-.62.196-.032.13-.36-.098-.326-.718.163-1.436.36-2.154.62-.196.065-.098.4.098.326zm1.435 1.305c.522-.392 1.175-.653 1.86-.685.196 0 .196-.327 0-.327-.718.033-1.436.26-2.023.718-.065.065-.098.13-.065.228.033.066.163.098.228.066zm1.63 1.14l1.5-.326c.098-.033.13-.13.098-.196-.033-.098-.13-.13-.196-.098l-1.5.327c-.098.032-.13.13-.098.195 0 .098.098.13.196.098zm.882 1.24l1.567-.653c.065-.032.13-.098.098-.195-.033-.066-.13-.163-.196-.098l-1.566.652c-.065.033-.13.098-.098.196.033.065.13.13.196.098zm1.142 1.076l1.305-.5c.098-.033.13-.098.098-.196-.033-.065-.13-.13-.196-.098l-1.306.5c-.098.033-.13.098-.098.196 0 .065.098.13.196.098zm5.026 3.13l.685-.424c.065-.032.098-.163.065-.228s-.13-.098-.228-.065l-.685.424c-.065.032-.098.163-.065.228s.13.098.228.065zm-.163 1.47l1.664-.783c.065-.032.098-.163.065-.228s-.13-.098-.228-.065l-1.664.782c-.065.033-.098.164-.065.23.065.065.163.098.228.065zm.98.684c.522-.294 1.1-.5 1.697-.62.196-.032.13-.36-.098-.326-.62.13-1.208.36-1.762.652-.196.098 0 .392.163.294zm-62.304 1.24c.065-.065.098-.163.163-.228.098-.163-.13-.326-.26-.196l-1.403 1.566c-.065.065-.065.163 0 .228s.163.066.228 0l1.403-1.565c-.098-.066-.163-.13-.26-.196-.065.065-.098.163-.163.228-.098.163.163.327.294.163zm.946-.033a19.9 19.9 0 0 0-2.121 2.25.16.16 0 0 0 0 .23c.065.066.163.065.228 0 .653-.816 1.338-1.566 2.12-2.25.163-.13-.065-.36-.228-.228zm1.73.197c-1.012.815-1.926 1.728-2.7 2.772-.13.163.163.326.294.163.75-1 1.632-1.924 2.644-2.707.163-.098-.065-.36-.228-.228zm2.09.553c-.98.815-1.828 1.76-2.578 2.773-.13.163.163.326.294.163a14.15 14.15 0 0 1 2.513-2.708c.163-.13-.065-.358-.228-.228zm1.6.556c-.85.782-1.6 1.696-2.285 2.642-.13.163.163.326.294.163.653-.946 1.403-1.794 2.22-2.577.13-.13-.098-.36-.23-.228zm2.35.39l-2.284 2.38c-.13.163.098.4.23.228l2.284-2.38c.163-.163-.065-.4-.23-.228zm1.926.423l-2.252 2.544c-.13.163.098.4.23.228l2.252-2.544c.13-.13-.098-.36-.228-.228zm1.925.5l-2.382 2.675c-.13.163.098.4.228.228l2.383-2.674c.163-.164-.065-.392-.23-.23zm2.35.392c-.848.75-1.632 1.565-2.317 2.48-.065.065 0 .195.065.228.098.065.163 0 .228-.065.653-.88 1.436-1.696 2.252-2.414.163-.13-.065-.36-.23-.228zm2.327.293c-.228.065-.424.228-.587.392l-1.86 1.957c-.13.163.098.4.23.228l1.762-1.86c.163-.163.326-.36.555-.424.163-.033.098-.36-.098-.294zm1.95.457l-2.187 2.087c-.163.163.098.392.228.23l2.187-2.088c.163-.13-.065-.36-.228-.228zm1.696.424l-2.448 2.348c-.163.13.065.392.228.23l2.448-2.35c.13-.13-.098-.36-.23-.228zm2.088.424a14.71 14.71 0 0 0-2.187 2.316c-.13.163.163.326.294.163.62-.848 1.305-1.598 2.12-2.25.163-.13-.065-.36-.228-.228zm2.024.293l-2.448 2.284c-.163.13.065.358.23.228l2.448-2.283c.13-.13-.098-.36-.228-.23zm2.122.26l-2.22 2.316c-.13.163.098.392.228.23l2.22-2.316c.13-.163-.098-.392-.23-.23zm2.186.456l-2.252 2.12c-.163.13.065.4.228.228l2.252-2.12c.163-.13-.065-.4-.228-.228zm1.73.458l-2.382 2.348c-.163.163.065.4.228.228l2.383-2.348c.13-.13-.098-.36-.228-.228zm2.382.162l-2.48 2.446c-.13.163.098.4.228.228l2.48-2.446c.163-.13-.065-.36-.228-.228zm1.665.653l-2.415 2.022a.16.16 0 0 0 0 .23c.065.067.163.065.228 0l2.415-2.023c.163-.163-.098-.4-.23-.228zm2.252.36c-.88.685-1.73 1.468-2.448 2.348-.13.163.098.392.228.23.75-.848 1.567-1.63 2.448-2.35.163-.13-.065-.36-.228-.228zm1.893.424a27.48 27.48 0 0 1-2.252 2.12c-.163.13.065.36.23.228l2.252-2.12c.13-.13-.098-.36-.23-.228zm2.284.457l-2.252 2.12c-.163.163.098.4.228.228l2.252-2.12c.163-.163-.065-.392-.23-.228zm2.318.62c-.75.62-1.47 1.272-2.12 2-.13.163.098.4.228.228a20.58 20.58 0 0 1 2.12-1.99.16.16 0 0 0 0-.23c-.065-.066-.163-.065-.228 0zm2.317.26l-2.7 2.218c-.163.13.065.36.23.23l2.7-2.22c.163-.13-.065-.358-.228-.228zm2.023.197c-.816.88-1.697 1.73-2.6 2.544-.163.13.065.36.23.228l2.6-2.544c.13-.13-.098-.4-.228-.228zm2.024.423l-2.12 2.185c-.13.163.098.392.228.23l2.12-2.186c.13-.13-.098-.4-.228-.228zm.39 1.305a6.97 6.97 0 0 0-.98.978c-.065.065-.065.163 0 .228s.163.066.228 0c.294-.358.62-.685.98-.978.065-.065.065-.163 0-.228s-.163-.066-.23 0zm-36.88-4.534a14.55 14.55 0 0 1-1.142 1.272c-.163.163.065.4.23.228.424-.4.783-.815 1.142-1.272.065-.065.065-.163 0-.228-.033-.065-.163-.065-.23 0zm1.143.066a10.72 10.72 0 0 0-1.044 1.435c-.098.196.163.36.294.163a10.41 10.41 0 0 1 .979-1.37c.065-.065.065-.163 0-.228-.065-.033-.196-.065-.23 0zm1.402.26l-1.403 1.696c-.065.065-.065.163 0 .228s.163.066.228 0l1.403-1.696c.065-.065.065-.163 0-.228-.033-.065-.163-.065-.228 0zm1.372.522l-1.403 1.663a.16.16 0 0 0 0 .23c.065.067.163.065.228 0L21.6 175.4c.065-.065.065-.163 0-.228a.16.16 0 0 0-.23 0zm2.023.163l-1.47 1.63c-.13.163.098.4.23.228a23.3 23.3 0 0 0 1.47-1.63c.065-.065.065-.163 0-.228-.033-.065-.163-.065-.23 0zm1.632.228l-1.175 1.6c-.065.065 0 .195.065.228.098.032.163 0 .23-.065l1.175-1.6c.065-.065 0-.195-.065-.228s-.163 0-.23.065zm2.09.555l-1.077 1.272c-.065.065-.065.163 0 .228s.163.065.228 0l1.077-1.272c.065-.065.065-.163 0-.228-.065-.033-.163-.065-.228 0zm1.99.195a17.21 17.21 0 0 0-1.599 1.86c-.065.065 0 .195.065.228.098.033.163 0 .23-.065.457-.653.98-1.24 1.534-1.794.163-.13-.098-.392-.23-.23zm1.533.457c-.326.457-.685.88-1.077 1.305-.065.065-.065.163 0 .228a.16.16 0 0 0 .23 0l1.1-1.37c.065-.065 0-.196-.065-.228s-.163 0-.196.065zm2.35.163l-1.5 1.63c-.13.163.098.4.228.228l1.5-1.63c.13-.164-.098-.392-.23-.23zm1.96.49l-1.436 1.697c-.065.065-.065.163 0 .228a.16.16 0 0 0 .23 0l1.436-1.696a.16.16 0 0 0 0-.23c-.065-.067-.163-.065-.228 0zm2 .392a14 14 0 0 1-1.762 1.924c-.163.13.065.392.228.23.653-.62 1.24-1.305 1.795-2.023.065-.065 0-.195-.065-.228s-.163.033-.196.098z"/><path d="M38.68 178.293c-.457.457-.88.946-1.273 1.468-.065.065 0 .196.065.228.098.033.163 0 .228-.065.36-.5.783-.98 1.24-1.403.098-.13-.13-.358-.26-.228zm2.284.36l-1.47 1.598c-.13.163.098.4.23.228l1.47-1.598c.13-.163-.098-.4-.23-.228zm1.666.26l-1.338 1.533c-.065.065-.065.163 0 .228a.16.16 0 0 0 .23 0l1.338-1.533c.065-.065.065-.163 0-.228s-.163-.065-.228 0zm.782.36l-.75 1.043c-.065.066 0 .196.065.23.098.032.163 0 .23-.065l.75-1.044c.065-.066 0-.196-.065-.23-.098-.032-.163 0-.23.066zm-33.42-4.958c.392-.163.783-.36 1.142-.62.065-.065.098-.13.065-.228-.033-.065-.163-.098-.228-.065a6.6 6.6 0 0 1-1.044.587c-.065.032-.13.097-.098.195-.033.066.065.163.163.13zm.783.62l1.47-.75c.196-.097.033-.4-.163-.293l-1.47.75c-.196.13-.033.4.163.294zm.915 1.14l.88-.5c.065-.033.098-.163.065-.228s-.13-.098-.23-.066l-.88.5c-.065.032-.098.163-.065.228s.13.098.228.065zm.4 1.468l.816-.36c.065-.033.098-.163.065-.228-.065-.065-.13-.098-.228-.065l-.816.358c-.065.033-.098.163-.065.23.065.065.163.098.228.065zm.36 1.207l.555-.36c.065-.033.098-.163.065-.228s-.13-.098-.228-.066l-.555.36c-.065.033-.098.163-.065.23.033.097.13.13.228.065zm-.523 2.055c.13-.033.26-.098.424-.13.033 0 .065-.032.098-.065s.033-.098.033-.13-.033-.065-.065-.097-.098-.033-.13-.033c-.13.033-.26.098-.424.13-.033 0-.065.033-.098.066s-.033.098-.033.13.033.065.065.098.098.033.13.033zm39.165.88l1.1-.5c.065-.033.098-.163.065-.228-.033-.098-.13-.098-.228-.065l-1.1.5c-.065.032-.098.163-.065.228s.13.098.23.065zm.458.848l1.24-.522c.065-.032.13-.097.098-.195-.033-.065-.13-.163-.196-.098l-1.24.522c-.065.032-.13.098-.098.195 0 .066.098.13.196.098zm.423.947a5.41 5.41 0 0 1 1.338-.587c.196-.065.13-.36-.098-.326-.5.163-.98.36-1.436.62-.13.098.033.4.196.293zm.26 1.043l1.534-.424c.196-.065.13-.36-.098-.326l-1.534.424c-.196.065-.13.4.098.326zm.228 1.567l1.044-.457c.065-.033.098-.163.065-.228-.033-.098-.13-.098-.228-.066l-1.044.457c-.065.033-.098.163-.065.228.065.098.163.098.23.066zm-.62 1.695a3.22 3.22 0 0 1 1.077-.49c.098-.032.13-.13.098-.195-.033-.098-.13-.13-.196-.098-.424.098-.816.26-1.142.522-.065.065-.098.13-.065.228.065.033.163.065.228.033z"/><path d="M50.657 189.774l1.175-.685c.065-.032.098-.163.065-.228s-.163-.098-.228-.065l-1.175.685c-.065.032-.098.163-.065.228.065.098.163.13.228.065zm18.897-16.178h0c.033-.032.065-.032.065-.065.033-.033.065-.033.098-.065l.196-.098c.033-.033.065-.033.098-.033 0 0 .065-.032.033 0 .033 0 .033 0 .065-.032.065-.033.13-.066.228-.066.098-.032.13-.13.098-.195-.033-.098-.098-.13-.196-.098-.326.098-.62.26-.914.457-.065.065-.065.163 0 .228.065.032.163.032.23-.033zm.098 1.142l1.175-.555c.065-.032.098-.163.065-.228-.033-.098-.13-.098-.228-.065l-1.175.554c-.065.033-.098.163-.065.23.065.065.163.097.228.065zm-.294 1.24l1.306-.554c.065-.033.13-.098.098-.196-.033-.065-.13-.163-.196-.098l-1.305.555c-.065.032-.13.098-.098.195 0 .066.098.13.196.098zm-.195 1.403l1.044-.5c.065-.033.098-.164.065-.23-.065-.065-.13-.098-.228-.065l-1.044.5c-.065.033-.098.163-.065.23.065.065.163.097.228.065zm.26.946c.033-.033.065-.066.13-.098 0 0 .033 0 .033-.033.033 0 .033-.032.065-.032.033-.033.098-.066.13-.066 0 0 .033 0 .033-.032-.033 0 .033 0 0 0h.033c.033 0 .065-.033.065-.033.065-.032.13-.13.098-.196s-.098-.13-.196-.097c-.23.065-.457.195-.62.4-.065.065-.065.163 0 .228.065.033.163.033.23-.032zm-15.372 5.6l7.376-3.425c.196-.098.033-.36-.163-.294l-7.376 3.425c-.196.13-.033.392.163.294zm-10.902-3.36l.522.848c.033.066.163.098.23.066s.098-.13.065-.23l-.522-.848c-.033-.065-.163-.098-.228-.065s-.098.13-.065.228z"/><path d="M43.706 179.793l.62 1.175c.033.065.163.098.228.065s.098-.13.065-.228L44 179.63c-.033-.065-.163-.097-.228-.065a.17.17 0 0 0-.065.228zm1.077-.033l.196.196.098.097c0-.032 0 .033 0 0 0 0 0 .033.033.033 0 .033.033.033.033.065.065.065.098.163.13.23.033.032.033.065.065.13 0 .033.033.033.033.065v.033c.033.065.098.13.196.098.065-.033.163-.13.098-.196-.163-.36-.36-.717-.653-.978-.065-.066-.163-.066-.228 0s-.065.163 0 .228zm1.217-.032l.326.62c.033.065.163.098.23.065.065-.065.098-.13.065-.228l-.326-.62c-.033-.065-.163-.098-.23-.065-.065.065-.098.163-.065.228zm7.856 2.088a11.09 11.09 0 0 0 1.1 1.565c.065.066.163.066.228 0s.065-.163 0-.228c-.392-.5-.75-.978-1.044-1.5-.13-.196-.392-.033-.294.163zm.98-1.11l.85 1.696c.033.065.163.098.228.065s.098-.13.065-.228l-.85-1.696c-.033-.066-.163-.098-.228-.066-.098.033-.098.13-.065.23zm1.305-1.044l1.012 2.022c.098.196.392.033.294-.163l-1.012-2.022c-.13-.196-.392-.033-.294.163zm1.763-.39a8.36 8.36 0 0 0 1.077 1.565c.13.163.36-.065.228-.228-.424-.457-.75-.946-1.012-1.5-.033-.066-.163-.098-.228-.066s-.098.13-.065.23zm1.893-.718c.392.457.685.98.914 1.533.033.098.098.13.196.098.065-.033.13-.13.098-.196-.228-.62-.555-1.174-.98-1.696-.065-.065-.163-.065-.228 0-.065.098-.065.196 0 .26z"/></g><ellipse opacity=".1" cx="44.491" cy="50.599" rx="13.813" ry="3.567" transform="rotate(11.332 44.491 50.599)" class="B"/><path d="M65.306 16.418l6.51-12.398 1.472 1.162c-1.705 4.2-4.96 10.538-6.43 13.792-.58 1.28-1.498-1.782-1.55-2.557z" fill="#bf8d5a"/><path opacity=".2" d="M73.287 5.182l-.736-.58-6.4 14.374c.24.358.495.463.704 0l2.118-4.448c1.49-3.073 3.22-6.644 4.313-9.344z" class="B C"/><path d="M72.357 1.153l4.184 3.41-1.86 1.705-5.656-3.642c-.93-.62-1.834-1.653-2.17-2.092l5.5.62z" fill="#4b5359"/><path d="M50.932 7.545c.992-.558 2.8.077 3.177.3 2.417 0 5.566 3.254 7.245 4.96l1.588 1.82-7.516 4.843-1.123 3.293h2.402l8.058-6.51 1.705-5.192c.387-.62.852.077 1.86.62.806.434 1.834.18 2.247 0-.052.44-.124 1.488 0 2.17.155.852.698 1.007-.232 1.627-.744.496-2.84.788-3.642.58 0 0-9.995 11.08-13.327 13.328.968 1.55.3 8.872.3 8.872.594-.568 1.774-.3 2.828 1.55.387 1.24-.736 7.167-2.828 9.26 1.674-.372 2.208 3.913-3.836 1.86L48.49 52.06c-.336-.103-1.75-.155-4.727.465-3.72.775-4.65 2.48-6.664 4.184s0 4.65.93 5.58 3.487.93 2.944 2.402-2.247 2.092-5.656 0c-2.57-1.577-3.177-3.487-2.402-7.13.62-2.914 5.992-5.915 8.6-7.05-.93-.775-2.93-3.022-3.487-5.812-.697-3.487-.465-5.424.697-6.43.93-.806 2.376.026 2.8.697L43 31.954c-.517-1.963-.62-7.1 0-8.33s1.692-.826 2.286-.852l2.17-4.068-4.727-5.463c.775-2.402 1.588-2.673 4.223-4.455 2.416-1.634 2.75-.542 4-1.24z" fill="#ffd6ba"/><path d="M51.203 6.964c.992-.558 2.015-.232 2.402 0 2.417 0 6.38 3.41 8.06 5.114l.775 2.8-6.896 4.03-1.24 3.874h2.402l8.058-6.51L67 10.45c.387-.62.852.078 1.86.62.806.434 1.834.18 2.247 0-.052.44-.124 1.488 0 2.17.155.852.155 1.627-.775 2.247-.744.496-2.53.207-3.332 0L53.14 29.513l-1.937 10.15c.594-.568 2.046-1.24 3.1.62.387 1.24-2.402 7.516-3.72 9.763 1.674-.372 1.576.672 1.317 1.24l-3.41.775c-.336-.103-1.75-.155-4.727.465-3.72.775-4.65 2.48-6.664 4.184s0 4.65.93 5.58 3.487.93 2.944 2.402-1.793 2.337-4.417.852c-3.836-2.17-4.417-4.34-3.642-7.98.62-2.914 5.992-5.915 8.6-7.05-.93-.775-2.93-3.022-3.487-5.812-.697-3.487-.078-5.734 1.085-6.74.93-.806 1.99.336 2.402 1.007l2.247-7.904c-.517-1.963-1.395-6.2-.775-7.44s1.963-1.6 2.557-1.627l1.937-4.417L43 12.853c.775-2.402.775-2.402 3.41-4.184 2.416-1.634 3.564-1.007 4.804-1.705z" fill="url(#A)"/><path d="M48.188 4.41c1.674 1.178 2.396 2.503 2.938 3.33-3.347 0-5.372 1.743-6.51 2.828l-.69-8.87 4.262 2.712z" fill="url(#B)"/><path d="M64.453 3.787l-9.22 4.572c1.178-.558 4.74 3.086 6.315 4.765.336-.516 1.28-2.48 2.053-4.765.605-1.785.93-3.745.852-4.572z" fill="url(#C)"/><g opacity=".2" class="B"><path d="M56.51 39.818c-1.054-1.86-2.234-2.118-2.828-1.55 2.387.966 1.606 2.516.5 4.7l-1.198 2.65c-1.054 2.913-6.276 4.752-8.756 5.308-1.55.375-5.3 1.76-7.904 4.3s.052 5.76 1.705 7.05c-.93-.93-2.944-3.874-.93-5.58.452-.382.85-.764 1.235-1.136 1.337-1.286 2.543-2.447 5.43-3.05 2.976-.62 4.39-.568 4.727-.465l1.356-1.124c6.044 2.053 5.51-2.23 3.836-1.86 2.092-2.092 3.216-8.02 2.828-9.26z" class="C"/><path d="M53.683 38.27s.658-7.322-.3-8.872l-1.937.97-.504 10.073 2.75-2.17z"/><path d="M53.373 29.396C56.705 27.15 66.7 16.07 66.7 16.07c-.336.065-2.557 1.666-8.756 7.555s-6.922 6.948-6.51 6.74l1.937-.97z"/><path d="M66.7 16.07c.8.207 2.898-.085 3.642-.58.93-.62.387-.775.232-1.627a5.25 5.25 0 0 1-.067-.78c-.356 1.924-1.826 1.9-2.645 1.555L66.7 16.07zm-12.397 6.702l1.123-3.293 7.516-4.843-1.588-1.82c0 3.138-5.928 4.068-7.245 5.308-1.054.992-1.6 4.08-1.744 5.502l1.937-.852z"/><path d="M61.354 12.815c.646-.66 2-2.387 2.247-4.03s.362-3.55.387-4.3c-.853 1.875-3.03 5.722-4.92 6.106l2.287 2.224zm-20.14 32.733c-.514-1.792-.045-5 .303-6.582-.215-.35-.7-.743-1.268-.926-.757 2.917.27 5.94.965 7.508zm9.717-38.003l-5.657-5.153c-1.2-.806 1.64 3.384 3.216 5.58 1.1-.365 1.533.084 2.44-.427z"/></g><g fill="#181d23"><path d="M50.97 40.64c1.127-.773 2.028-2.2 3.5-2.286.74-.064 1.256.322 1.545.998.258.612.16 1.288.13 1.9-.16 2.157-.45 4.378-1.74 6.18-.87 1.2-2.125 2.028-3.445 2.608-.386.16-.064.708.322.547 1.352-.58 2.576-1.416 3.477-2.576.773-.966 1.256-2.093 1.545-3.284s.42-2.447.515-3.67c.064-.708.064-1.45-.258-2.093-.3-.612-.805-1.095-1.513-1.2-1.9-.322-2.994 1.417-4.38 2.35-.354.193-.032.74.3.515zm-9.56-1.512c-.225-.9-1.2-1.288-2.028-1.16-1.095.16-1.738 1.2-1.932 2.22-.225 1.256-.097 2.576.16 3.8a12.84 12.84 0 0 0 1.288 3.574c.708 1.32 1.6 2.5 2.704 3.5.3.3.773-.16.45-.45-1.6-1.48-2.8-3.38-3.477-5.44-.322-1.062-.547-2.157-.58-3.284-.032-.998-.032-2.2.708-2.93.547-.547 1.867-.612 2.093.3.097.45.708.258.612-.13z"/><path d="M44.403 27.152c-1.288 5.795-4.314 11.46-3.638 17.578.16 1.352.42 2.897 1.48 3.863.322.3.773-.16.45-.45-.966-.87-1.16-2.254-1.32-3.477-.16-1.417-.097-2.865.097-4.282.386-2.833 1.32-5.57 2.2-8.306.483-1.577.966-3.155 1.32-4.732.13-.45-.515-.612-.58-.193zM41.698 50.17c-3.5 1.223-6.954 3.316-8.596 6.793-.74 1.6-1.223 3.638-.547 5.344.612 1.545 2.028 2.576 3.477 3.284s3.54 1.545 4.86.16c.515-.547.708-1.32.354-2.028-.3-.58-.87-.902-1.45-1.16-.644-.3-1.352-.483-1.9-.934-.612-.483-.934-1.2-1.062-1.964-.258-1.74.676-3.252 1.996-4.314 1.74-1.384 4.024-2.2 6.18-2.5 1.738-.3 3.83-.193 5-1.74-.16.032-.322.032-.515.064.483.386 1.16.547 1.77.644.676.097 1.45.193 2.125.064.74-.13 1.384-.644 1.932-1.127.097-.097.097-.258.064-.386-.258-.58-1.352-2.382-2.125-1.416-.258.322.193.773.45.45s1.03 1.062 1.127 1.288c.032-.13.032-.258.064-.386-.483.45-1.062.9-1.74.998-.612.064-1.288 0-1.9-.097a5.42 5.42 0 0 1-1.03-.29c-.064-.032-.16-.097-.225-.13-.032-.032-.16-.13-.032-.032-.16-.13-.386-.097-.515.064-.966 1.255-2.897 1.2-4.314 1.384a16.06 16.06 0 0 0-5.376 1.77c-1.352.773-2.608 1.835-3.252 3.284-.547 1.256-.515 2.833.193 3.992.354.58.87.998 1.48 1.32.58.3 1.223.483 1.803.805.547.322.998.87.676 1.545-.42.87-1.45 1.03-2.286.837-.87-.16-1.674-.547-2.447-.966-.708-.386-1.352-.837-1.9-1.417-1.288-1.384-1.32-3.187-.805-4.926 1.2-3.992 4.926-6.407 8.66-7.694.354-.097.193-.708-.193-.58z"/><path d="M45.465 22.387c-.902-.3-1.835.16-2.35.934-.547.805-.644 1.867-.676 2.8-.064 1.867.064 3.83.515 5.634.097.386.74.225.612-.16-.42-1.545-.515-3.187-.515-4.797 0-.773 0-1.578.225-2.35.258-.87.998-1.77 1.996-1.45.42.13.58-.483.193-.612zm5.665 8.563c2.157-.837 4.056-2.2 5.57-3.928.258-.322-.193-.773-.45-.45-1.417 1.642-3.22 2.962-5.248 3.767-.42.13-.258.773.13.612z"/><path d="M51.614 23.546a14.62 14.62 0 0 0 4.411-.483c.386-.097.225-.74-.16-.612-1.384.386-2.8.515-4.25.45-.42-.032-.42.612 0 .644zm5.216 3.702c3.735-3.735 7.05-7.855 10.785-11.6.3-.3-.16-.74-.45-.45-3.767 3.735-7.083 7.855-10.785 11.6-.322.3.16.74.45.45z"/><path d="M55.96 23.224c3.51-2.48 7.018-5 10.4-7.63.322-.258-.13-.708-.45-.45-3.348 2.608-6.793 5.087-10.27 7.5-.322.258-.032.805.322.58z"/><path d="M64.685 16.72c.418-.386.58-.998.74-1.513.193-.612.3-1.256.45-1.9.13-.644.354-1.288.934-1.642.322-.193.612-.16.87.097.258.225.483.42.837.45s.708-.064 1.03-.16c.257-.064.612-.16.805.064-.032-.13-.032-.258-.064-.386-.258.58-.258 1.16.032 1.706.258.58.064 1.352-.3 1.803-.708.9-2.028.998-3.026.58-.386-.16-.547.483-.16.612 1.127.45 2.576.322 3.5-.547a2.64 2.64 0 0 0 .773-1.835 2.31 2.31 0 0 0-.193-.934c-.16-.322-.193-.74-.032-1.062.064-.13.064-.3-.064-.386-.483-.547-1.2-.258-1.803-.13a.85.85 0 0 1-.901-.225c-.3-.258-.612-.45-1.03-.418-.773.064-1.416.773-1.674 1.48-.225.58-.3 1.256-.45 1.867-.16.644-.3 1.545-.773 1.996-.258.3.193.773.483.483zm-19.027 6.118c.547-.773 1.063-1.6 1.45-2.48.354-.773.805-1.6.322-2.447-.225-.354-.547-.644-.837-.966l-1.095-1.062-2.318-2.286c-.3-.3-.74.16-.45.45l3.896 3.83c.322.354.45.708.3 1.2-.13.42-.322.805-.515 1.2a19.01 19.01 0 0 1-1.32 2.22c-.225.354.322.676.58.354z"/><path d="M45.1 13.47c.097.934.354 1.835.676 2.704s.676 1.738 1.2 2.543c.225.354.773.032.547-.322-.483-.74-.805-1.545-1.127-2.382-.3-.805-.547-1.674-.644-2.543-.032-.386-.676-.418-.644 0zm.258-3.027c2.093-1.74 4.733-2.704 7.437-2.8.418 0 .418-.644 0-.644a13.04 13.04 0 0 0-7.888 2.962c-.322.3.13.74.45.483z"/><path d="M52.322 7.77c1.706-.097 3.252.805 4.604 1.77 1.513 1.095 2.93 2.286 4.314 3.5.322.258.773-.193.45-.45l-4.57-3.67c-1.416-.998-3.026-1.867-4.797-1.77-.42 0-.42.644 0 .612zm-7.404 1.9c-.612.483-1.095 1.127-1.545 1.77s-.9 1.32-1.127 2.06c-.13.386.483.547.612.16.225-.676.676-1.32 1.063-1.9.42-.58.87-1.2 1.45-1.642a.31.31 0 0 0 0-.45c-.13-.13-.322-.097-.45 0z"/><path d="M43.147 12.085l-2.64-1.417c-.16-.097-.354-.032-.45.13s-.032.354.13.45l2.64 1.417c.16.097.354.032.45-.13s.032-.386-.13-.45z"/><path d="M42.986 13.018c-1.48-.064-2.93.064-4.378.3-.418.064-.225.676.16.612 1.384-.225 2.8-.322 4.217-.258.42 0 .42-.644 0-.644zm1.32 1.74c-.773-.064-1.578 0-2.35.097-.74.097-1.642.16-2.286.58-.354.225-.032.773.322.547.258-.16.547-.225.837-.3a8.05 8.05 0 0 1 1.223-.193 12.83 12.83 0 0 1 2.221-.097c.45 0 .45-.644.032-.644zm15.744-2.415c.3.16.42.3.676.515l.87.805a9.27 9.27 0 0 1 .773.87 3.58 3.58 0 0 1 .45.676c.064.16.3.193.45.13.16-.097.193-.3.13-.45-.13-.3-.354-.547-.547-.773-.258-.322-.515-.612-.805-.9-.483-.515-1.03-1.062-1.642-1.417-.386-.225-.708.322-.354.547z"/><path d="M62.657 14.564l-7.694 5c-.354.225-.032.773.322.547l7.695-5c.354-.225.032-.773-.322-.547z"/><path d="M54.576 22.87c.612-1.16.934-2.447.966-3.767 0-.42-.644-.42-.644 0a8.06 8.06 0 0 1-.901 3.445c-.16.354.386.676.58.322zm.774-14.23c2.736-1.6 5.57-2.865 8.564-3.928.386-.13.225-.773-.16-.612-3.026 1.095-5.924 2.382-8.692 3.992-.386.225-.064.773.3.547z"/><path d="M63.88 4.455c0 1.417-.258 2.8-.676 4.153-.42 1.32-.966 2.672-1.835 3.8-.257.322.193.773.45.45.934-1.16 1.545-2.543 1.964-3.96.45-1.417.74-2.93.74-4.443 0-.386-.644-.386-.644 0zm-12.813 2.51a23.42 23.42 0 0 0-7.5-5.763c-.386-.193-.708.386-.322.547 2.8 1.352 5.312 3.284 7.373 5.666.258.322.708-.16.45-.45z"/><path d="M43.5 1.815l.87 8.274c0 .42.644.42.644 0-.064-2.77-.515-5.505-.87-8.274-.032-.42-.676-.42-.644 0zM53.417 29.3a34.94 34.94 0 0 0 .096 8.66c.064.42.708.42.644 0a35.44 35.44 0 0 1-.097-8.66c.032-.418-.612-.418-.644 0zm14.616-17.612l4.282-7.566c.225-.354-.322-.676-.547-.322l-4.282 7.566c-.193.386.386.708.547.322zm2.19.097L73.57 5.42c.193-.354-.354-.676-.547-.322l-3.348 6.374c-.193.354.354.708.547.322zm-2.124 4.83l-1.16 1.9c-.097.13-.032.354.13.45s.354.032.45-.13l1.16-1.9c.097-.13.032-.354-.13-.45-.16-.064-.354-.032-.45.13z"/><path d="M66.94 18.523c-.032.032-.064.032-.097.064l-.032.032h-.064c-.032 0-.064.032-.097.032-.064 0 .064 0 .032 0h-.225c.064 0-.064 0 0 0-.032 0-.064 0-.097-.032-.032 0-.064-.032-.097-.032-.064-.032-.032 0 0 0 0 0-.032 0-.032-.032-.032 0-.064-.032-.097-.032l-.032-.032c-.032-.064-.032-.032 0 0-.032-.032-.064-.032-.064-.064-.032-.032-.032-.064-.064-.064.032.032.032.032 0 0l-.032-.032c-.032-.032-.032-.064-.064-.097-.064-.16-.3-.193-.45-.13-.16.097-.193.3-.13.45.3.676 1.32.934 1.9.483.064-.064.13-.097.16-.193.032-.064 0-.193-.032-.258s-.225-.16-.386-.064z"/><path d="M65.586 18.363l.386-.902c.032-.097.064-.16.032-.258-.032-.064-.064-.16-.16-.193-.064-.032-.16-.064-.258-.032-.064.032-.16.064-.193.16l-.386.9c-.032.097-.064.16-.032.258.032.064.064.16.16.193.064.032.16.064.257.032s.16-.064.193-.16zM44.177 1.75L43.63.334c-.032-.097-.064-.16-.16-.193C43.406.11 43.3.11 43.245.11c-.16.064-.3.225-.225.386l.547 1.417c.032.097.064.16.16.193.064.032.16.064.258.032.13-.032.3-.193.193-.386z"/><path d="M43.888 1.557c-.13-.16-.258-.3-.42-.386-.096-.032-.16-.097-.258-.13s-.193-.032-.3-.064c-.064 0-.16.032-.225.097s-.097.16-.097.225a.29.29 0 0 0 .097.225l.064.064c.064.032.096.032.16.032h.032-.097c.097 0 .16.032.258.064-.032 0-.064-.032-.064-.032a.52.52 0 0 1 .225.129l-.064-.064c.064.064.13.097.16.16l-.064-.064s0 .032.032.032c.064.064.096.13.193.16.064.032.193 0 .258-.032a.33.33 0 0 0 .161-.193c0-.032 0-.16-.064-.225zM63.75 4.905l1.32-.966c.064-.064.13-.097.16-.193.032-.064 0-.193-.032-.258-.097-.13-.3-.225-.45-.13l-1.32.966c-.064.064-.13.097-.16.193-.032.064 0 .193.032.258.097.13.322.225.45.13z"/><path d="M64 4.937l1.2-.386c.16-.064.3-.225.225-.386s-.225-.3-.386-.225l-1.2.386c-.16.064-.3.225-.225.386.032.16.193.3.386.225zm-3.607 11.687c.064 0 .13 0 .193.032.064 0-.032 0 .032 0 .032 0 .064 0 .13.032.13.032.258.064.386.064l.354.097c.064.032.13.032.193.064.032 0 .064.032.097.032-.064-.032.064.032.064.032.16.064.354.064.45-.13.064-.13.064-.354-.13-.45-.547-.258-1.16-.386-1.77-.45-.16 0-.322.16-.322.322.032.225.16.354.322.354z"/><path d="M61.627 16.045l1.095.16c.097 0 .16 0 .258-.032.064-.032.13-.13.16-.193.032-.097 0-.16-.032-.258a.33.33 0 0 0-.193-.161l-1.095-.16c-.097 0-.16 0-.258.032-.064.032-.13.13-.16.193-.032.097 0 .16.032.258s.097.16.193.16zm.643-1.642c.032-.032.032-.032 0 0 0 0 .032 0 .032-.032.032 0 .032-.032.064-.032.064-.032.13-.032.16-.064l.322-.097c.064 0 .097-.032.16-.032.032 0 .097-.032.032 0h.064c.13 0 .225-.032.354-.032.16 0 .322-.16.322-.322s-.13-.322-.322-.322c-.547 0-1.062.13-1.578.354-.16.064-.193.322-.13.45.193.16.354.193.515.13zm8.435-10.657a14.53 14.53 0 0 1 3.928 2.93c.3.3.74-.16.45-.45-1.2-1.223-2.543-2.254-4.056-3.026-.354-.193-.676.354-.322.547z"/><path d="M75.052 6.773c.644-.58 1.223-1.19 1.74-1.835.097-.13.13-.322 0-.45-.13-.097-.354-.13-.45 0-.515.676-1.127 1.288-1.738 1.835-.13.13-.13.354 0 .45a.31.31 0 0 0 .451 0z"/><path d="M76.726 4.294c-.9-1.095-1.996-2.028-3.187-2.8-.354-.225-.676.322-.322.547a12.91 12.91 0 0 1 3.059 2.704c.097.13.354.13.45 0a.31.31 0 0 0 0-.451z"/><path d="M73.57 2.137c-1.223-.322-2.5-.45-3.767-.354-.16 0-.322.13-.322.322 0 .16.16.322.322.322 1.223-.097 2.415 0 3.606.322.386.097.58-.515.16-.612zm-2.5 1.03c-.74-.483-1.578-.837-2.447-.998-.16-.032-.354.032-.386.225-.032.16.064.354.225.386.837.16 1.6.483 2.286.934.13.097.354.032.45-.13.064-.13 0-.322-.13-.42z"/><path d="M68.87 2.137l-.418-.258-.032-.032c.032.032-.032-.032 0 0l-.097-.097c-.064-.064-.13-.097-.193-.16l-.322-.354-.032-.032c-.032-.032-.032-.064-.064-.097-.064-.064-.097-.16-.13-.225-.097-.13-.3-.225-.45-.13a.4.4 0 0 0-.129.451c.386.644.934 1.16 1.578 1.513.16.097.354.032.45-.13.032-.16 0-.354-.16-.45z"/><path d="M66.97.978c.483.3.998.483 1.545.612.16.032.354-.064.386-.225S68.838 1 68.677.978c-.258-.064-.515-.13-.74-.225-.032 0-.064-.032-.097-.032s-.032 0 0 0c-.032 0-.032 0-.064-.032-.064-.032-.097-.064-.16-.064L67.26.43c-.16-.097-.354-.032-.45.13-.032.13 0 .322.16.42z"/><path d="M68.29 1.364l1.19 1.127a.31.31 0 0 0 .451 0 .31.31 0 0 0 0-.451L68.74.913a.31.31 0 0 0-.451 0c-.13.097-.13.322 0 .45z"/><path d="M67.422 1.14c1.674.258 3.38.354 5.087.354.418 0 .418-.644 0-.644-1.642 0-3.284-.097-4.926-.354-.16-.032-.354.032-.386.225-.064.193.032.42.225.42z"/><path d="M72.154 1.493l.805.58c.064.032.16.064.257.032.064-.032.16-.064.193-.16.032-.064.064-.16.032-.258 0-.032-.032-.064-.032-.064a.25.25 0 0 0-.129-.129l-.805-.58c-.064-.032-.16-.064-.258-.032-.064.032-.16.064-.193.16-.032.064-.064.16-.032.258 0 .032.032.064.032.064a.25.25 0 0 0 .129.129zM51.614 28.6a2.72 2.72 0 0 0-.097 1.03c0 .097.13.13.193.097.096-.032.13-.097.096-.193 0 .032 0-.032 0-.032v-.483c0-.032 0-.064.032-.097 0-.064.032-.16.064-.225s-.032-.193-.097-.193c-.096-.032-.16 0-.193.097zm.58-.3c.097.354.13.74.064 1.095 0 .097.097.16.16.16a.15.15 0 0 0 .16-.16 2.51 2.51 0 0 0-.097-1.191c-.032-.193-.354-.13-.3.097zm.74-.58c.097.386.13.805.097 1.2a.15.15 0 1 0 .32 0c.032-.42-.032-.87-.13-1.288-.032-.097-.13-.13-.193-.097s-.13.097-.097.193zm.666-.32l.097 1.256a.15.15 0 1 0 .32 0L53.92 27.4a.15.15 0 0 0-.16-.16c-.096 0-.193.064-.16.16zm.783-.806a2.66 2.66 0 0 0 .064 1.127c.032.097.13.13.193.097.097-.032.13-.13.097-.193-.097-.322-.13-.644-.064-.966 0-.097-.032-.16-.096-.193-.064 0-.193.032-.193.13zm.483-.61l.16 1.062c0 .097.13.13.193.097.097-.032.13-.097.097-.193l-.16-1.062c0-.097-.13-.13-.193-.097s-.097.13-.097.193zm.676-.323s0 .032.032.032c0 .032.032.064.032.064 0 .032 0 .064.032.064v.032c0-.032 0 .032 0 0v.322c-.032.096.032.193.097.193.097.032.193-.032.193-.097a1.18 1.18 0 0 0-.097-.805c-.032-.064-.16-.097-.225-.064a.25.25 0 0 0-.064.258zm.868-.9l-.13.87c0 .032 0 .096.032.13s.064.064.097.064c.064.032.193-.032.193-.097l.13-.87c0-.032 0-.097-.032-.13s-.064-.064-.097-.064c-.097-.032-.193.032-.193.097zm.548-.42v.483a.15.15 0 1 0 .32 0v-.483a.15.15 0 1 0-.32 0zm.772-.708c-.064.225 0 .483.13.708.032.064.16.097.225.064s.097-.13.064-.225c0-.032-.032-.032-.032-.064 0 0 0-.032-.032-.032v-.032c-.032-.064-.032-.096-.032-.16v.032-.258c.032-.097-.032-.193-.096-.193-.13 0-.225.064-.225.16zm.645-.74v.58a.15.15 0 1 0 .32 0v-.58a.15.15 0 0 0-.16-.16c-.064 0-.16.064-.16.16z"/><path d="M58.697 22.677l.193.58c.032.064.097.13.193.097.064-.032.13-.097.096-.193l-.193-.58c-.032-.064-.097-.13-.193-.097-.064 0-.13.097-.097.193zm.773-.517s.032.032.032.064c0 0 0-.032-.032-.032.032.032.032.097.032.13V22.3v.13c0 .032 0 .097.032.13s.064.064.097.064.096 0 .13-.032.064-.064.064-.097v-.3c0-.032-.032-.097-.064-.13s-.064-.097-.064-.13c-.032-.032-.064-.032-.13-.032-.032 0-.097.032-.13.032-.032.032-.064.064-.032.13v.032c.032.032.064.032.064.064zm1.126-1.254c-.13.16-.16.386-.097.612.032.097.13.13.193.097.096-.032.13-.097.096-.193v-.16c0-.064.032-.096.032-.16 0 0 0 .032-.032.032.032-.032.032-.064.064-.097s.032-.097.032-.13-.032-.064-.064-.097-.096-.032-.13-.032a.45.45 0 0 1-.097.13zm.548-.58v.386c0 .032.032.097.032.13.032.032.064.064.13.032a.15.15 0 0 0 .16-.16v-.386c0-.032-.032-.097-.032-.13-.032-.032-.064-.064-.13-.032-.064 0-.16.064-.16.16zm.966-.772v.3c0 .032.032.097.032.13.032.032.064.064.13.032.032 0 .097 0 .13-.032s.032-.064.032-.13v-.3c0-.032-.032-.096-.032-.13-.032-.032-.064-.064-.13-.032-.032 0-.097 0-.13.032 0 .064-.032.096-.032.13zm-10.753 2.768c.097.13.193.3.3.45 0 .032.032.032.032.064v.032c.032.032.032.097.032.13.032.097.064.16.064.258.032.097.13.13.193.097.097-.032.13-.097.097-.193a2.89 2.89 0 0 0-.483-.998c-.064-.064-.13-.097-.225-.064 0 .032-.064.13 0 .225zm.58-.386a2.22 2.22 0 0 1 .225.354s.032.064 0 .032c0 .032 0 .032.032.064 0 .032.032.064.032.097.032.064.032.13.064.225s.13.13.193.097c.097-.032.13-.097.097-.193-.064-.3-.193-.58-.354-.837-.032-.064-.13-.096-.225-.064-.064.032-.13.13-.064.225zm.837-1.19l.483 1.352c.032.097.097.13.193.097.064-.032.13-.13.096-.193l-.483-1.352c-.032-.096-.097-.13-.193-.096-.064.032-.13.13-.097.193z"/><path d="M53.16 20.713a4.85 4.85 0 0 1 .483 1.288c.032.097.13.13.193.097.097-.032.13-.13.097-.193-.097-.483-.3-.934-.515-1.384-.097-.16-.354 0-.258.193zm.676-.613a2.96 2.96 0 0 1 .451 1.03c.032.096.13.13.193.096.097-.032.13-.13.097-.193-.097-.386-.258-.773-.483-1.095-.064-.064-.13-.097-.225-.064-.032.064-.064.16-.032.225z"/><path d="M54.2 19.52l.193.676c.032.097.13.13.193.097.096-.032.13-.097.096-.193l-.193-.676c-.032-.097-.13-.13-.193-.097-.064 0-.13.097-.097.193zm.312-.675l.13.676c.032.097.13.13.193.097.097-.032.13-.097.097-.193l-.13-.676c-.032-.097-.13-.13-.193-.097-.064 0-.096.097-.096.193zm.933-.965l.354.87c.032.064.097.13.193.097.064-.032.16-.13.097-.193l-.354-.87c-.032-.064-.097-.13-.193-.097-.064.032-.16.13-.097.193zm.773-.676l.45 1.256c.032.097.097.13.193.097.064-.032.13-.13.097-.193l-.45-1.256c-.032-.097-.097-.13-.193-.097-.064.032-.13.13-.096.193zm.515-.58l.708 1.706c.032.064.16.096.225.064.097-.064.097-.13.064-.225l-.708-1.706c-.032-.064-.16-.097-.225-.064-.097.032-.097.13-.064.225zm.612-.514a5.52 5.52 0 0 1 .676 1.384c.064.193.386.097.322-.097a5.67 5.67 0 0 0-.708-1.481c-.13-.13-.386.032-.3.193zm.74-.7c.13.515.322.998.612 1.48.097.193.386.032.3-.16-.258-.42-.45-.9-.58-1.384-.064-.225-.354-.13-.322.064zm.773-.193c.13.45.354.87.644 1.223.064.064.16.064.225 0s.064-.16 0-.225a2.79 2.79 0 0 1-.547-1.062c-.064-.225-.386-.13-.322.064zm.87-.29c.064.418.193.805.354 1.2.032.064.16.097.225.064.097-.032.097-.13.064-.225a4.52 4.52 0 0 1-.322-1.127c0-.097-.13-.13-.193-.097-.097.032-.13.13-.13.193zm.613-.065l.386.934c.032.064.16.097.225.064.097-.064.097-.13.064-.225l-.386-.934c-.032-.064-.16-.097-.225-.064-.097.064-.13.16-.064.225zm-9.66 23.92c.13.354.354.644.644.87.064.064.193 0 .225-.064.032-.097 0-.16-.064-.225 0 0-.032 0-.032-.032l-.032-.032c-.032-.032-.064-.064-.097-.064l-.16-.16s0-.032-.032-.032c0-.032-.032-.032-.032-.064-.032-.032-.032-.064-.064-.097s-.032-.064-.064-.097v-.032s0-.032-.032-.064c-.032-.064-.097-.13-.193-.097-.032 0-.096.097-.064.193zm.3-.837l.676 1.16c.032.064.16.097.225.064s.097-.16.064-.225l-.676-1.16c-.032-.064-.16-.097-.225-.064-.064.064-.097.16-.064.225zm.13-1.137c.45.45.837.966 1.062 1.578.032.064.097.13.193.097.064-.032.16-.13.096-.193a4.73 4.73 0 0 0-1.159-1.706c-.096-.13-.322.097-.193.225z"/><path d="M51.453 36.36c.225.386.547.773.805 1.127.3.354.58.708.805 1.095.097.193.386.032.3-.16-.225-.386-.547-.773-.805-1.127-.3-.354-.58-.708-.805-1.095-.097-.193-.386-.032-.3.16zm.354-.902l1.513 2.286c.097.193.386 0 .3-.16l-1.513-2.286c-.13-.16-.386 0-.3.16zm.45-.934l.966 1.803c.097.193.386.032.3-.16l-.966-1.803c-.097-.16-.386 0-.3.16z"/><path d="M52.13 33.075a5.6 5.6 0 0 0 .58 1.062l.386.612c.097.13.193.3.3.386.16.13.386-.097.225-.225l-.13-.13c-.064-.064-.096-.16-.16-.225l-.354-.58c-.13-.193-.225-.386-.354-.612-.032-.064-.097-.16-.13-.225-.032-.032-.032-.064-.064-.097 0 0 0-.032-.032-.032 0 .032-.032-.032 0 0-.032-.097-.096-.13-.193-.097-.032 0-.097.097-.064.16zm.386-.965l.45.966c.032.064.16.097.225.064.064-.064.097-.13.064-.225l-.45-.966c-.032-.064-.16-.097-.225-.064-.097.064-.097.16-.064.225zm-.033-1.127c.032.097.097.16.13.258l.45.644c.032.032.064.097.097.13 0 .032.032.032.032.064v.032c-.032-.032 0 .032 0 0 .032.097.097.13.193.097.064-.032.13-.13.096-.193-.032-.097-.096-.16-.13-.258l-.45-.644c-.032-.032-.064-.097-.097-.13 0-.032-.032-.032-.032-.064v-.032c.032.032 0-.032 0 0-.032-.097-.097-.13-.193-.097-.064 0-.13.097-.097.193zm-5.247 20.38l.193.3c.032.032.064.064.097.064s.097 0 .13-.032.064-.064.064-.097 0-.097-.032-.13l-.193-.3c-.032-.032-.064-.064-.097-.064s-.096 0-.13.032-.064.064-.064.097 0 .097.032.13zm.547-.452c.032 0 .064.032.064.064l.162.162v.032l.032.032c.032.032.032.064.032.064 0 .032.032.064.032.097 0-.032 0 .032 0 0v.032s0 .032.032.032c.032.064.097.13.193.096.064-.032.13-.096.096-.193a1.26 1.26 0 0 0-.547-.676c-.064-.032-.193-.032-.225.064.032.064.032.16.13.193zm.387-.868l.676 1.16c.032.064.16.097.225.064s.097-.16.064-.225l-.676-1.16c-.032-.064-.16-.097-.225-.064s-.097.13-.064.225zm.514-.548a1.97 1.97 0 0 1 .741 1.159c.032.097.13.13.193.097.097-.032.13-.13.097-.193-.097-.515-.418-.998-.837-1.32-.064-.064-.16-.064-.225 0-.032.064-.032.193.032.258zm.612-1.514l.708 1.9c.032.097.097.13.193.097.064-.032.13-.13.097-.193l-.708-1.9c-.032-.097-.096-.13-.193-.097-.064.032-.13.13-.097.193zm4.38-1.866l.676 1.256c.097.193.386.032.3-.16l-.676-1.256a.17.17 0 0 0-.3.16zm-.902.934l.676 1.256c.096.193.386.032.3-.16l-.676-1.255c-.097-.193-.386-.032-.3.16zm-.643.772l.676 1.256c.097.193.386.032.3-.16l-.676-1.256c-.096-.193-.386-.032-.3.16zm-.645.387l.676 1.256c.097.193.386.032.3-.16l-.676-1.255a.17.17 0 0 0-.3.16zm-.933.708l.676 1.256c.096.193.386.032.3-.16l-.676-1.256a.17.17 0 0 0-.3.16zm3.734-3.477l.676 1.352c.032.064.16.097.225.064s.097-.13.064-.225l-.676-1.352c-.032-.064-.16-.097-.225-.064s-.097.13-.064.225zm.548-.902c.258.3.45.676.58 1.062.064.193.354.13.322-.097a3.05 3.05 0 0 0-.644-1.191c-.064-.064-.16-.064-.225 0-.097.064-.097.16-.032.225zm.226-1.16l.773 1.352c.097.193.386.032.3-.16l-.773-1.352c-.097-.193-.386-.032-.3.16zm.256-1.545l.386 1.223c.032.097.096.13.193.097s.13-.13.097-.193l-.386-1.223c-.032-.097-.097-.13-.193-.097-.064 0-.13.097-.097.193zm.258-1.127l.3.676c.032.032.032.064.064.097s.097.032.13.032c.064-.032.16-.13.097-.193l-.3-.676c-.032-.032-.032-.064-.064-.097s-.096-.032-.13-.032c-.064.032-.13.13-.097.193zM50.52 50.9l.097.096s.032.032.064.032h.13c.032 0 .032-.032.064-.032l.032-.032c0-.032.032-.064.032-.096v-.032c0-.032-.032-.064-.032-.064l-.097-.097s-.032-.032-.064-.032h-.13c-.032 0-.032.032-.064.032l-.032.032c0 .032-.032.064-.032.097v.032c0 .032 0 .064.032.064z"/><path d="M50.84 50.525v.193c0 .032.032.097.032.13 0 0 .032.032.064.032H51c.032 0 .097 0 .13-.032s.032-.064.032-.13v-.193c0-.032-.032-.097-.032-.13 0 0-.032-.032-.064-.032h-.064c-.032 0-.097 0-.13.032 0 .032-.032.064-.032.13zm-14.97 8.467l.483.644c.032.032.064.064.097.064s.097 0 .13-.032c.064-.032.096-.16.064-.225l-.483-.644c-.032-.032-.064-.064-.096-.064s-.097 0-.13.032c-.097.064-.13.16-.064.225z"/><path d="M35.485 57.48l.837 1.256c.032.064.13.096.225.064.064-.032.097-.16.064-.225l-.837-1.256c-.032-.064-.13-.097-.225-.064-.064.032-.13.16-.064.225zm.193-.903c.064.064.13.13.16.193a.7.7 0 0 1 .161.258c.032.096.097.16.13.258v.032c0 .032.032.032.032.064.032.064.032.097.064.16s.13.13.193.096c.097-.032.13-.096.097-.193a2.9 2.9 0 0 0-.644-1.095c-.064-.064-.16-.064-.225 0-.032.064-.032.16.032.225z"/><path d="M36.064 55.9c.3.3.45.676.547 1.062.032.097.13.13.193.097.097-.032.13-.097.097-.193-.097-.45-.322-.87-.644-1.223-.064-.064-.16-.064-.225 0-.032.097-.032.193.032.258zm.548-.997l.483 1.062c.032.064.16.097.225.064.097-.032.097-.13.064-.225l-.483-1.062c-.032-.064-.16-.097-.225-.064-.064.064-.096.13-.064.225zm.708-.483l.45.966c.032.064.16.097.225.064.064-.064.097-.13.064-.225l-.45-.966c-.032-.064-.16-.097-.225-.064s-.097.13-.064.225zm.676-.193l.354.58c.032.064.16.097.225.064s.097-.13.064-.225l-.354-.58c-.032-.064-.16-.097-.225-.064-.097.032-.13.13-.064.225zm1.062-.967l.258.58c0 .032.064.064.097.064s.096 0 .13-.032.064-.064.064-.097 0-.096-.032-.13l-.258-.58c0-.032-.064-.064-.097-.064s-.097 0-.13.032-.064.064-.064.097 0 .096.032.13zm.71-.096l.193.3c.032.032.064.064.096.064s.097 0 .13-.032.064-.064.064-.097 0-.097-.032-.13l-.193-.3c-.032-.032-.064-.064-.096-.064s-.097 0-.13.032-.064.064-.064.097c.032.064.032.097.032.13zm.676-.364l.3.483c.032.064.16.097.225.064s.097-.13.064-.225l-.3-.483c-.032-.064-.16-.096-.225-.064s-.097.13-.064.225zm1.19-.344c.064.064.097.13.13.193 0 0 0-.032-.032-.032.032.064.032.13.064.193v-.032.097a.15.15 0 1 0 .32 0 .81.81 0 0 0-.258-.58c-.064-.064-.16-.064-.225 0-.064 0-.064.097 0 .16zm.708-.322l.193.386c.032.032.064.064.097.064s.097 0 .13-.032.064-.064.064-.097 0-.097-.032-.13l-.193-.386c-.032-.032-.064-.064-.097-.064s-.097 0-.13.032-.064.064-.064.097c.032.032.032.096.032.13zm-3.895 1.6l.3.483c.032.064.16.096.225.064s.097-.13.064-.225l-.3-.483c-.032-.064-.16-.097-.225-.064-.097.064-.13.16-.064.225zm-5.312-4.217v-.064c0-.032.032-.032.032-.064.032 0 .032-.032.064-.032-.032 0 0 .032.064.032 0 .032.032.032.032.064v.097s.032 0 .032-.032c.032 0 .064-.032.097-.032l.258-.097a2.83 2.83 0 0 1 .483-.161l.998-.354c.193-.064.097-.386-.097-.322l-1.6.58c-.193.064-.58.13-.515.42.064.258.483.16.386-.097.032-.225-.3-.13-.225.064zm1.287.515a16.41 16.41 0 0 1 2.35-.966c.193-.064.097-.386-.097-.322l-2.447.998c-.13.096.032.386.193.3z"/><path d="M34.873 50.525l3.316-1.256c.193-.064.097-.386-.097-.322l-3.316 1.256c-.193.064-.097.386.097.322zm.612.385l4.733-1.6c.193-.064.097-.386-.097-.322l-4.733 1.6c-.193.064-.13.386.097.322zm1.32.387a15.42 15.42 0 0 1 3.96-1.288c.193-.032.13-.354-.097-.322a13.43 13.43 0 0 0-4.024 1.32.17.17 0 0 0 .161.29z"/><path d="M37.964 51.523l2.576-.612c.193-.064.13-.354-.097-.322l-2.576.612c-.193.064-.097.354.097.322zm5.506 1.61l2.286-.483c.193-.032.13-.354-.097-.322l-2.286.483c-.193.032-.097.354.096.322zm1.06.515c1.578-.58 3.187-.998 4.83-1.256.193-.032.13-.354-.097-.322-1.642.258-3.252.676-4.83 1.256-.16.097-.097.418.096.322z"/><path d="M46.366 53.873c1.996-.708 4.09-1.256 6.18-1.642.193-.032.13-.354-.097-.322-2.093.386-4.153.934-6.18 1.642-.16.064-.096.386.097.322z"/><path d="M48.17 54.034c2.028-.612 4.1-1.095 6.18-1.384.193-.032.13-.354-.097-.322-2.093.3-4.153.773-6.18 1.384-.193.064-.097.386.097.322zm2.607.226c1.32-.547 2.736-.934 4.153-1.095.193-.032.193-.354 0-.322-1.45.193-2.865.547-4.218 1.127-.225.064-.13.354.064.3z"/><path d="M53.45 54.098l2.704-.676c.193-.064.13-.354-.097-.322l-2.704.676c-.193.064-.097.386.097.322zM36.676 59.12l1.417-.386c.193-.064.13-.354-.097-.322l-1.416.386c-.193.064-.097.354.096.322zm.322-.772l1.578-.515c.193-.064.097-.386-.097-.322l-1.578.515c-.193.064-.13.386.097.322zm.386-.708l1.48-.515c.193-.064.096-.386-.097-.322l-1.48.515c-.193.064-.096.386.097.322zm.386-.934l1.6-.483c.193-.064.13-.386-.097-.322l-1.6.483c-.193.064-.097.386.097.322zm.902-1.03l1.513-.354c.193-.064.13-.354-.097-.322l-1.513.354c-.193.064-.097.386.097.322zm1.19-.87l1.095-.3c.097-.032.13-.13.097-.193-.032-.096-.13-.13-.193-.096l-1.095.3c-.097.032-.13.13-.097.193s.13.13.193.097z"/></g><defs><linearGradient id="A" x1="36.404" y1="65.738" x2="37.334" y2="50.511" gradientUnits="userSpaceOnUse"><stop stop-color="#4a4a4c"/><stop offset="1" stop-color="#343233" stop-opacity="0"/></linearGradient><linearGradient id="B" x1="46.328" y1="5.572" x2="47.566" y2="10.009" gradientUnits="userSpaceOnUse"><stop stop-color="#4a4a4c"/><stop offset="1" stop-color="#ffd6ba"/></linearGradient><linearGradient id="C" x1="62.284" y1="7.274" x2="59.193" y2="11.141" gradientUnits="userSpaceOnUse"><stop stop-color="#4a4a4c"/><stop offset="1" stop-color="#ffd6ba"/></linearGradient></defs></svg>