<svg xmlns="http://www.w3.org/2000/svg" xmlns:xlink="http://www.w3.org/1999/xlink" width="368" height="362" fill="none"><path opacity=".3" d="M366.5 2.5H3L1.5 181 3 359.75h364L366.5 2.5z" fill="#fff"/><path d="M352.5 65.75l-.875-48.875-79.5-.875c-15.6-.1-59.916.542-80.125.875l-1 48 161.5.875zm-174.75 35.875l.75-84.75-163.125-.75v85.5H177.75z" fill="#5087d9"/><mask id="A" mask-type="alpha" maskUnits="userSpaceOnUse" x="14" y="15" width="339" height="334"><path d="M191.5 348.25l-1-332.75 162 1.5v331.25h-161zm-12.5 0H15.25v-139c-.592-67.357-2.04-130.115 0-193.75l163 1.5.75 331.25z" fill="#8bb5f4"/></mask><g mask="url(#A)"><path d="M120.125 187v21.25l5 22.125c-.1.5 109.21 12.625 163.875 18.625l-2.875-126.875h-7.75v-6.875h-32.25l-.75 6.875h-7.25l1 60.875h-33v-25.125h-45V124.5H132l-1.125 62.5h-10.75z" fill="#5087d9"/><path d="M255.75 245.625c4.7.5 14.292.208 18.5 0l4.5 15.25c0 .6-128.25-4.083-192.375-6.5l5.75-28.625c6.667-8.042 28.45-23.75 62.25-22.25 42.25 1.875 63.25 30.875 74.375 37.375s21.125 4.125 27 4.75z" fill="#55a250"/><path d="M32.5 191.5c-7.6-1-16.333 2.917-19.75 5l.625 154.75 274.125.625v-98.5H229c-.666-1.208-2.775-3.625-5.875-3.625s-5.04.5-5.625.75c-.333-.666-1.25-2.1-2.25-2.5-1.25-.5-8.5-3.25-11.5-3.25-2.4 0-5.166 4.834-6.25 7.25-1.166-.75-3.75-2.25-4.75-2.25s-11.416 1.5-16.5 2.25l-4.75-2.25c-.416-2.583-2.55-7.9-7.75-8.5s-8.666 2.084-9.75 3.5c-5.333 2-17.85 5.8-25.25 5s-27.583-16.333-36.75-24c-5.167-5.416-18.45-17.9-30.25-24.5C47 193 42 192.75 32.5 191.5z" fill="#7dca78"/><path d="M262.625 258.375l-142.5 1.375-5.75 13.375c8.084-1 24.15-2.4 23.75 0-.5 3-10.75 3.5-11.625 5.25-.7 1.4 6.542 1.667 10.25 1.625l68-.875 30.375-15.75c3.75-.417 14.5-1.475 27.5-2.375s5.417-2.125 0-2.625z" fill="#8bb5f4"/><path d="M76.25 256.125c.125-4.292 1.525-12.825 6.125-12.625 3.924.17 5.095 2.536 5.25 4.21.054-6.024 1.194-16.594 5.5-16.21 4.5.4 6.292 8.833 6.625 13l10.25 4c.46-2.875 2.275-8.55 5.875-8.25s3.917 2.958 3.625 4.25c.96-2.917 3.95-8.675 8.25-8.375s5.625 5.042 5.75 7.375c.125-1.292.9-3.875 3-3.875a4.04 4.04 0 0 1 3.625 2.25c-.166-6.458 1.25-19.375 8.25-19.375s7.5 14.667 6.875 22c.46 4.125-.275 12.225-6.875 11.625-5.47-.497-6.624-3.376-6.48-5.462-.717 3.147-2.48 7.595-5.396 6.712-3.3-1-3.375-5.167-3-7.125-.54 1.583-2.725 4.6-7.125 4s-5.833-4.083-6-5.75l-3.75 9.625c-14.5 4.208-43.475 12.35-43.375 11.25s2.042-9.292 3-13.25z" fill="#55a250"/><g fill="#008361"><path d="M15.5 246.25c.583-5.5 3.65-18.2 11.25-25 9.5-8.5 18.25-7.5 25.5-7.75s21.25 3.75 24.25 36.75l.995 11.904C81.18 254.26 90.12 242 103.5 242c14.8 0 17.834 15 17.5 22.5-1.166 6.25-1.65 19.9 5.75 24.5 9.25 5.75 29 8.75 37.25 20.25 6.6 9.2 9.417 19 10 22.75 6.084-3.917 21.5-11.4 34.5-10 16.25 1.75 25.5 17.75 26.5 25.25.8 6-146 4.167-219.5 2.5v-103.5zm255.25-73.75l2.75 176H353v-176c-.5-16.833-9.25-50.5-40.25-50.5s-40.916 33.667-42 50.5z"/></g><g fill="#55a250"><path d="M239 277.25c0-13-3.75-23.5-17-23.5-13.75 1.25-22.25 14.25-22.25 23.5S205.25 298 218 298s21-7.75 21-20.75zm1.25 30c0-1.5 1.75-8-5.25-8-4-1.228-6 3.75-6.75 5.5s-1 7.75 4 8.75 8-4.75 8-6.25z"/></g><path fill-rule="evenodd" d="M261.64 114.933h-8.28c-1.184 0-2.328 0-3.513-.04-.34 0-.68-.007-1.018-.013-.842-.017-1.68-.033-2.496.054-.07.012-.13.06-.173.125-.192-.094-.476.014-.562.242-.123.286-.123.653-.123.98l-.04.816-.04 1.673-.04 3.03-1.84-.01c-.858 0-1.675 0-2.533-.04a22.65 22.65 0 0 1-.642-.011c-.628-.015-1.24-.03-1.85.092-.368.082-.368.694 0 .776.695.122 1.43.122 2.165.122l2.248.04 13.93.122h18.998l2.285-.02 7.543-.196-.35 5.235.08 4.756c-3.948 3.663-7.153 8.126-9.477 13.117-2.533 5.428-4.085 11.304-4.86 17.262-.655 4.997-.73 9.994-.804 15.026l-.014.93.082 31.095.613 36.482 1.634 71.412.336 17.085.236 13.112c-.04.408.572.408.572 0 .107-6.57-.004-13.138-.116-19.707l-.047-2.818-1.512-67.658-.694-36.645-.26-36.822c-.046-9.068-.094-18.3 1.894-27.164 2.37-10.57 7.68-20.607 16.628-27.014 8.416-6.04 19.774-8.692 30.028-7.223 10.418 1.47 18.59 8.325 23.86 17.098 4.903 8.203 7.722 17.792 8.662 27.26.204 1.877.286 3.754.286 5.672 0 .653.98.653.98 0 0-9.06-2.083-18.323-5.638-26.647-3.88-9.1-10.214-17.63-19.447-21.832-4.943-2.244-10.295-3.02-15.73-2.775-5.27.245-10.54 1.224-15.402 3.224-4.193 1.7-7.97 4.09-11.254 7.026-.02-1.388-.006-2.792.06-4.17l.175-2.305.228-3.272c.04-.113.023-.242-.053-.327-.112-.16-.36-.206-.512-.105-2.065-.075-4.13-.06-6.193-.044h0l-.766.006-.09-1.394v-.006l-.001-.005v-.005l-.102-1.56c-.02-.265-.03-.52-.04-.773v-.005l-.04-.773-.026-.304c-.04-.44-.08-.898-.015-1.328a.44.44 0 0 0-.409-.531c-1.62-.2-3.267-.208-4.918-.225l-7.624-.1h-3.572c.19-2.422.218-4.87.247-7.297v-.012l.016-1.26.04-4.652c0-.388.01-.776.02-1.163l.02-1.164-.003-.517c-.006-.696-.013-1.408.085-2.094.04-.53-.9-.53-.858 0 .055.573.036 1.164.018 1.75v.003l-.018.86v2.327l-.04 4.652-.01 2.206c-.015 2.12-.03 4.25.077 6.363zm-15.33 1.736c.046-.384.094-.78.057-1.155 1.478.205 3.02.212 4.53.22l1.525.015 18.548.123 3.595.08c.388.013.78.036 1.174.058.704.04 1.417.08 2.13.072.086.415.086.863.086 1.258a22.61 22.61 0 0 0 .02.813l.001.003v.002l.02.814c0 1.005.037 1.974.1 2.976l-1.05.003h-9.396c-4.222 0-8.444-.036-12.666-.073l-6.332-.05c-.858 0-1.716-.01-2.574-.02l-.253-.003a48.87 48.87 0 0 0 .294-2.996l.123-1.592c.012-.177.034-.36.056-.548h0zM19.794 233.07c-1.716 4.326-2.696 8.937-3.554 13.508-.04.326-.613.244-.613.04.123-1.06.245-2.08.41-3.1.817-4.897 2.165-9.753 4.412-14.2 2.45-4.897 6.087-9.222 10.867-11.997 5.842-3.428 12.95-4.407 19.6-3.795 5.72.5 11.194 2.49 15.566 6.284 4.453 3.918 7.272 9.345 8.906 14.976.98 3.428 1.553 6.938 1.838 10.488.074.922.127 1.847.163 2.775.64-2.16 1.907-4.38 4.372-4.652 1.266-.123 2.778.08 3.84.816.787.533 1.36 1.298 1.856 2.11.192-1.954.578-3.882 1.045-5.782.53-2.122 1.185-4.203 1.96-6.202.572-1.5 1.634-3.714 3.636-3.06.817.286 1.47.98 1.96 1.714.654.938 1.226 2.04 1.716 3.1.815 1.77 1.538 3.695 1.902 5.666 1.708-.096 3.442.056 5.125.292 2.123.308 4.246.874 6.2 1.77.35-.875.904-1.648 1.588-2.282a54.72 54.72 0 0 1-1.701-.957c-6.25-3.713-11.766-8.57-17.2-13.385l-.035-.03-1.535-1.387a.2.2 0 0 1-.09-.081l-6.143-5.438c-2.073-1.784-4.22-3.468-6.366-5.15h0v-.001l-.006-.004-1.798-1.414c-6.292-5.02-12.624-9.998-19.6-13.997-6.66-3.795-13.89-6.6-21.53-7.345-7.23-.735-14.87.367-21.204 4.162-.245.164-.45-.204-.286-.285l.255-.16h0c.7-.442 1.427-.903 2.156-1.267 6.537-3.346 14.177-3.917 21.367-2.856 7.68 1.102 14.83 4.203 21.45 8.202 6.696 4.076 12.854 8.958 18.996 13.828l.574.455.79.617c2.398 1.877 4.813 3.767 7.096 5.79l4.686 4.184a35.83 35.83 0 0 1 .993-1.041c3.88-3.918 8.375-7.223 13.115-10.04 4.234-2.545 8.72-4.68 13.347-6.38-.018-.043-.03-.093-.03-.15-.13-4.303.042-8.623.214-12.94h0v-.006l.001-.001v-.02l.235-7.152a.44.44 0 0 1 .408-.408c1.553.082 3.105.122 4.658.122l5.597.04.04-13.18.163-24.73.044-10.853.08-13.55c0-.123.122-.245.245-.245h0l6.66-.45c7.722-.408 15.443-.204 23.124.04.123 0 .245.122.245.245a202.62 202.62 0 0 0-.122 7.059l.147 10.9.14 15.514 15.735-.268v.725l-12.14.267-7.15.122-9.08.16-5.522.05c.135 3.023.097 6.078.058 9.096l-.154 10.574-.135 24.53c4.874-.18 9.766.05 14.588.602 6.373.775 12.706 2.122 18.875 3.917.21.053.293.22.28.38l.38.128v.587l-1.477-.484c-.06-.017-.1-.05-.126-.09-6.667-1.892-13.447-3.28-20.342-3.9-6.292-.57-12.706-.57-18.998.163-5.556.653-11 1.96-16.26 3.877-10.196 3.69-19.76 9.465-27.494 17.098l3.062 2.734c5.432 4.737 11.024 9.595 17.457 12.9.57-.41 1.225-.772 1.908-.9.9-.164 1.88.163 2.655.652s1.553 1.225 1.96 2.082c.093.197.177.416.234.643.688-1.643 1.65-3.114 2.8-4.48 1.103-1.306 2.533-2.775 4.33-3.02 3.024-.367 5.31 2.612 6.292 5.142a14.13 14.13 0 0 1 .434 1.329c.108-.65.3-1.27.628-1.82.572-.98 1.594-1.306 2.697-1.347 1.174-.03 2.193.54 2.96 1.38-.032-2.764.296-5.55.922-8.234.613-2.734 1.593-5.632 3.39-7.835 1.348-1.673 3.472-2.816 5.638-2.04 2.083.735 3.186 2.898 3.88 4.856.94 2.653 1.267 5.51 1.43 8.325a53.86 53.86 0 0 1-.07 7.504c.788-.747 1.72-1.35 2.726-1.79 2.982-1.306 6.495-1.102 9.192.775.15.106.298.216.442.33.022-1.606.54-3.234 1.024-4.76l.005-.016c.694-2.162 1.552-4.284 2.45-6.365.776-1.796 1.634-3.59 2.533-5.346.286-.57.572-1.143.9-1.673l.073-.132c.14-.258.296-.54.54-.644.883-.383 1.405 1.36 1.6 2.01l.034.11a52.36 52.36 0 0 1 .578 2.059v3.36l-.333-1.46-.075-.317-.076-.327c-.312-1.344-.628-2.7-1.156-3.968-.082-.204-.164-.408-.286-.57l-.123.163a36.83 36.83 0 0 0-1.879 3.551c-.9 1.836-1.757 3.672-2.533 5.55s-1.512 3.795-2.084 5.754c-.328 1.082-.683 2.27-.725 3.414 2.093 1.867 3.368 4.587 3.387 7.402.563.018 1.115.094 1.652.224.17-.06.378-.033.52.143.86.267 1.68.672 2.434 1.193a4.28 4.28 0 0 0 1.278-.237v.89a5.22 5.22 0 0 1-.627.144c-.088.265-.454.46-.727.213-.03-.026-.06-.05-.09-.076l-.1-.073c-1.073-.03-2.095-.45-2.796-1.383-.648-.162-1.322-.238-2.008-.223a.44.44 0 0 1-.408-.408c.122-1.714-.327-3.428-1.185-4.938a9.58 9.58 0 0 0-1.419-1.861c-.1.04-.23.003-.256-.097l-.014-.05-.01-.04-.01-.037c-.003-.016-.007-.03-.01-.046l-.007-.03c-1.53-1.423-3.5-2.3-5.67-2.328-2.552-.07-5.046.967-6.843 2.765-.206 2.334-.532 4.74-1.164 7.028-.654 2.367-1.92 5.264-4.576 5.917-2.778.653-5.72-.734-7.232-3.1-.425-.66-.765-1.4-1.018-2.176a19.63 19.63 0 0 1-.411 1.686c-.654 2.082-1.96 4.57-4.494 4.53-3.02-.037-3.75-3.618-3.894-6.177-1.48 1.966-3.826 3.382-6.36 3.24-2.696-.163-5.352-2.08-5.883-4.815-.123-.572.694-.776.817-.245.53 2.734 3.473 4.57 6.2 4.162 2.533-.367 4.657-2.326 5.597-4.652 1.185-2.816.776-6.284-.572-9.018-1.103-2.245-3.636-4.734-6.332-3.265-1.308.735-2.37 1.918-3.3 3.06s-1.716 2.448-2.4 3.795a.19.19 0 0 1-.14.091c-.01.226-.065.446-.18.647a.46.46 0 0 1 .024.05l.01.028c.654 2.08.654 4.815-.9 6.488-.057.057-.13.074-.194.062a19.5 19.5 0 0 1 1.134 2.591c.66 1.866 1.035 3.772 1.234 5.702a19.03 19.03 0 0 1 1.013-.03c3.342-.102 6.684-.124 10.016-.147h.002l5.997-.057 11.748-.155 5.82-.1 21.618-.346v.998l-5.48.083-18.344.244-17.404.164-9.65.044c-1.758.005-3.515.01-5.272-.05.22 2.627.142 5.296.052 7.964l-.12 3.88c1.278.04 2.518.04 3.798.04h6.25l1.257-.006c1.256-.007 2.512-.015 3.768.046.074.005.16.01.25.012.72.03 1.906.08 2.16.804.2.678-.69 1.12-1.19 1.37l-.036.018c-1.516.705-3.13 1.226-4.74 1.744l-.001.001-2.697.908c-.57.204-1.143.408-1.714.652-.368.163-.858.408-1.062.572-.03.056-.077.094-.117.125-.01.007-.02.015-.03.022s-.012.01-.018.016l-.02.02c.006.007.01.013.017.02a3 3 0 0 0 .207.125c.53.245 1.552.367 2.288.45 1.266.122 2.574.204 3.84.245 2.484.098 4.994.09 7.51.085l36.498-.068v.89l-12.058.07-15.934.04-4.445.04-4.46.042c-3.023 0-6.088 0-9.11-.205h-.001c-1.103-.08-2.205-.163-3.267-.367l-.014-.003c-.57-.122-1.338-.286-1.743-.73-1.186-1.3 2-2.384 2.98-2.718l.056-.02.11-.038c.87-.32 1.76-.608 2.646-.896h.002 0 .001c1.608-.522 3.22-1.046 4.746-1.756.204-.08.408-.163.57-.285l.047-.035c-1.084-.313-2.333-.303-3.468-.295h-.003l-.538.003-12.334-.04c.026 1.948.18 3.884.608 5.795.654 2.98 2.084 5.713 4.208 7.957 3.922 4.122 9.438 6.285 14.626 8.284 2.738 1.02 5.434 2.04 8.1 3.265 2.982 1.387 5.8 3.02 8.457 4.897 4.984 3.55 9.396 7.998 12.624 13.22 2.727 4.475 4.6 9.618 4.767 14.9a21.82 21.82 0 0 1 1.361-1.106c.48-.367.974-.716 1.477-1.048v.926a24.47 24.47 0 0 0-2.417 1.877c-2.083 1.836-3.84 4.12-5.025 6.65-1.39 2.938-2.002 6.203-2.124 9.467 0 .205-.327.205-.368.04-.04-.897-.04-1.754.04-2.652.286-3.142 1.103-6.203 2.696-8.937a22.15 22.15 0 0 1 3.439-4.361c-.005-.028-.007-.057-.007-.087 0-1.265-.082-2.57-.286-3.836-.9-5.55-3.513-10.69-6.945-15.058-3.84-4.856-8.702-8.896-14.054-11.956-3.494-1.994-7.213-3.443-10.94-4.895l-5.28-2.124c-4.943-2.08-9.927-4.856-12.9-9.508-3.257-5.112-3.034-11.163-2.818-17l.08-2.464c.048-1.67.027-3.357-.124-5.03-.26-.073-.263-.488-.055-.552-.264-2.43-.82-4.822-1.864-7.068-1.838-3.958-5.025-6.978-9.11-8.53-2.614-.98-5.433-1.428-8.21-1.5-.468-.008-.932.001-1.39.03l.002.012c0 .204-.327.245-.41.082l-.02-.064c-1.752.148-3.442.568-5.087 1.33-4.82 2.203-8.825 6.162-11.807 10.446-2.207 3.18-4.122 6.847-4.956 10.7l.135 12.93.613 49.09.123 20.81c0 .653-1.02.653-1.02 0v-4.53l-.163-21.547-.572-48.152-.05-6.97-.073-14.004c-.04-7.06-.53-14.16-3.023-20.81-1.96-5.264-5.23-10.08-9.97-13.263-4.943-3.305-10.908-4.488-16.79-4.407-6.455.123-12.95 1.796-18.017 5.917-4.126 3.346-7.027 7.958-8.947 12.854zm172.456 91.483c4.356-.84 8.788-1.187 13.19-1.258 3.35-.04 6.66.245 9.886 1.306 3.514 1.142 6.742 3.02 9.56 5.427 2.574 2.245 4.82 4.938 6.496 7.917 1.43 2.53 2.533 5.345 2.9 8.284a14.59 14.59 0 0 1 .123 1.917c0 .613.94.613.94 0 0-2.938-.858-5.794-2.042-8.447-1.39-3.1-3.39-5.917-5.72-8.365-2.843-2.97-6.24-5.283-9.968-6.805l.057-3.064a.23.23 0 0 0 .106-.129c.45-1.428.9-2.775 1.552-4.12.695-1.347 1.512-2.653 2.452-3.877 1.6-2.058 3.538-3.932 5.763-5.298 0 1.198.253 2.412.896 3.42.94 1.47 2.492 2.203 4.208 2.326 3.39.204 6.455-2.244 7.558-5.346 1.267-3.59-.5-7.753-3.84-9.55a.42.42 0 0 0-.516.061c-.035-.05-.094-.09-.18-.1-2.37-.327-5.148.204-6.455 2.407-.408.653-.613 1.428-.776 2.163l-.263.99v.001c-.22.8-.438 1.598-.554 2.438-.01.072-.018.145-.026.218-2.54 1.427-4.718 3.5-6.47 5.82-.98 1.265-1.84 2.653-2.492 4.122-.347.76-.68 1.56-.926 2.378l.147-20.842c.88.074 1.77.08 2.658.02 4.412-.327 8.457-2.408 11.52-5.55 3.187-3.224 5.27-7.386 6.455-11.712 1.348-4.978 1.594-10.446 0-15.425a19.89 19.89 0 0 0-1.037-2.535c4.947-.654 9.922-.887 14.9-1.12h.005l2.066-.098 2.37-.113 4.74-.254.387-.03.45-.033c1.325-.095 2.668-.192 3.983-.428l.087-.016c.675-.125 1.876-.347 1.915-1.167.04-1.357-2.302-1.66-3.285-1.787l-.065-.01c-1.593-.204-3.227-.245-4.862-.285h-.003l-9.23-.082-8.988.04-2.074.02c-2.04.015-4.1.03-6.12.176a16.81 16.81 0 0 0-3.287-2.522c-4.413-2.53-9.683-2.408-14.38-.735a27.38 27.38 0 0 0-6.722 3.516l-9.988.126-7.1.075v.986l6.672-.132 8.682-.164h.553c-4.642 3.7-8.106 8.898-8.97 14.773a23.54 23.54 0 0 0-.164 5.277c-2.253-.077-4.513-.093-6.774-.085v.887l3.7-.04a59.41 59.41 0 0 0 3.129-.083c.22 2 .69 3.975 1.406 5.837 1.348 3.468 3.636 6.733 7.027 8.447.657.328 1.34.603 2.05.804 2.105 1.9 4.763 2.983 7.553 3.343L217 314.52l-.16 9.705c-3.07-1.15-6.354-1.77-9.727-1.788-4.954-.04-9.948.356-14.864 1.266v.85zm0-73.265c.5-.128 1.023-.175 1.545-.14 1.185.04 2.533.53 3.227 1.5.205.286.654.204.654-.163.123-2.408 1.348-4.652 3.27-6.12.94-.735 2-1.265 3.145-1.5.53-.123 1.103-.204 1.635-.082.408.082 1.103.367 1.02.898-.04.245.082.5.368.5 3.186-.082 6.25 1.265 8.293 3.672.327.367.858-.163.53-.53a11.14 11.14 0 0 0-8.498-3.925c-.17-.966-1.335-1.427-2.287-1.462-1.39-.04-2.86.57-4.045 1.306-2.247 1.422-3.876 3.872-4.164 6.502-.925-.7-1.967-1.123-3.15-1.156-.52-.016-1.043.038-1.545.163v.548zm0-36.733a85.72 85.72 0 0 1 7.06 3.825l.86.536c.027.275.3.39.53.34 4.116 2.664 7.91 5.748 11.437 9.16l1.966 1.912c2.427 2.375 4.858 4.755 7.594 6.78 3.963 2.98 8.457 5.02 13.237 6.285 7.68 2.08 15.77 2.57 23.696 2.734 1.348.04 2.696.04 4.085.04.41 0 .41-.653 0-.653-7.933 0-16.043-.247-23.87-1.853.001-.007.003-.014.004-.022l.002-.013.001-.01c.003-.02.004-.04.004-.06l.163-22.607.04-23.18-.08-23.545-.123-23.26-.204-22.73a60.86 60.86 0 0 0-.082-2.734c0-.45-.53-.45-.53-.082-.127 5.872-.08 11.744-.035 17.616l.035 5.032.158 35.085c-4.11-.237-8.222-.3-12.333-.365l-2.084-.034-15.606-.285-1.6-.025-.075-19.522-.032-1.816-.09-3.652c0-.163-.163-.326-.327-.326-1.544-.025-3.088-.005-4.633.014l-3.088.026-6.08.104v.676l4.61-.086 2.893-.05 5.984-.073c.153 4.326.17 8.67.188 13.02v.004l.046 6.687c0 1.662.035 3.324.105 4.986l-5.702-.1a.44.44 0 0 0-.409.408c.12 5.643.1 11.285.078 16.92l.004 11.8.1 6.717c-2.545-1.58-5.19-3-7.897-4.295v.65zm45.75 26.27l-.037 2.652-.903-.205c-4.984-1.142-9.764-2.98-13.972-5.917-3.073-2.14-5.77-4.782-8.45-7.404l-1.152-1.124c-3.76-3.632-7.722-7.02-12.093-9.835l-.162-.105-.102-.065-.108-.07c-.246-6.5-.212-13.02-.178-19.53l.02-9.16-.075-6.93 29.776.443c2.56.04 5.08.04 7.636-.036l.004 11.307-.04 23.25-.163 22.73zm-138.878.972c-.633-2-1.28-3.96-2.235-5.83-.45-.898-.94-1.796-1.512-2.612-.5-.694-1.266-1.55-2.206-1.387-.858.122-1.348 1.102-1.675 1.836-.368.816-.654 1.673-.94 2.53-1.192 3.418-2.095 7.018-2.367 10.627 2.55-2.184 5.483-3.956 8.7-4.792.734-.186 1.48-.305 2.235-.373zm-11.783 5.92a35.7 35.7 0 0 0-3.076 3.228c-2.926 3.444-5.466 7.51-6.733 11.923l-.05-6.863.001-1.2-.003-2.848a.55.55 0 0 0 .043-.155c.245-1.877.53-3.877 1.512-5.55.53-.898 1.266-1.673 2.288-1.96 1.062-.285 2.533-.163 3.514.368 1.163.62 1.848 1.864 2.474 3l.03.055zm24.787-3.342l-.386-.204c.393-.978 1.077-1.815 1.897-2.448.654-.53 1.512-1.02 2.37-.898 1.02.163 1.96.816 2.656 1.55.442.482 1.202 1.44.913 2.17-.227.022-.433.207-.34.483.326.98.45 2.04.326 3.1-.122 1.018-.447 1.995-.814 2.93-1.54-2.78-3.77-5.123-6.62-6.685zm87.797 32.687c.07-7.202 4.08-13.6 9.785-17.755.157-.02.263-.11.32-.23a26.44 26.44 0 0 1 2.887-1.767c4.25-2.244 9.397-3.55 14.136-2.163 3.987 1.207 7.26 4.198 9.23 7.8-.027.176.056.365.238.447 2.234 4.307 2.61 9.407 1.89 14.156-.653 4.407-2.247 8.692-4.82 12.324-2.452 3.428-5.884 6.203-10 7.345-1.853.52-3.807.732-5.73.598l-.152-6.637-.042-1.165c-.104-2.933-.2-5.915-.57-8.833-.04-.245-.408-.286-.408 0 0 1.858.08 3.7.16 5.546l.127 3.35.154 7.672c-1.894-.22-3.744-.78-5.425-1.714a15.31 15.31 0 0 1-1.259-.802c.344-.172.395-.783-.09-.912-7.435-1.836-10.5-10.406-10.418-17.26zm37.11-14.525c3.117-.35 6.27-.625 9.425-.9 2.13-.204 4.26-.304 6.39-.403l2.556-.127 6.544-.37c1.456-.08 2.95-.164 4.364-.446a3.34 3.34 0 0 0 1.044-.277c-.052-.04-.117-.104-.145-.13-.454-.35-1.09-.46-1.672-.56l-.29-.05c-.845-.16-1.73-.203-2.576-.243l-.04-.002c-4.82-.163-9.6-.204-14.42-.204-1.66-.027-3.322-.018-4.982-.01h-.003l-2.492.01-2.033.013c-1.456.014-2.907.03-4.344-.024 1.036 1.125 1.933 2.383 2.672 3.727zm30.42-2.45c-.003 0-.008-.005-.008-.02.01.01.01.02.008.02zm-129.57 13.113c.002 0 0 .008-.012.02.005-.014.01-.02.012-.02zm-10.762 5.372c.04 0-.082.04 0-.04v.04zm-25.494 69.74c.178-3.057.184-6.135.19-9.203v-.002l.015-3.445.164-12.896.093-6.072c3.053-5.916 7.008-11.376 11.755-16.045 1.51-1.5 3.146-2.897 4.82-4.244.367-.286-.164-.816-.53-.53-6.006 4.774-11.072 10.65-14.83 17.343-.422.746-.82 1.5-1.195 2.258l.02-1.253.001-.002v-.076l.236-16.922.08-13.55c0-.53-.817-.53-.817 0l-.204 24.648-.124 8.864-.775 1.786c-.123.204.245.368.368.164l.392-.83-.147 15.683-.02 3.568-.001.003-.02 4.167-.001.588c-.006 1.982-.012 3.984.125 5.957.04.245.408.286.408.04zm39.834-.735c-.41-3.346-1.594-6.61-3.105-9.6l-.16-.32c2.234-2.83 4.726-5.403 7.637-7.555.368-.286 0-.94-.368-.653-2.87 2.13-5.506 4.692-7.554 7.654-1.437-2.73-3.205-5.285-5.274-7.573-.327-.367-.9.164-.572.572a39.79 39.79 0 0 1 5.354 7.737l-.073.114-.092.147c-.164.245.245.45.408.245l.013-.017c1.504 2.972 2.482 6.106 3.42 9.28.04.163.368.163.368-.04zm172.714-170.272v-.007l-.102-15.76c0-.286.5-.286.53-.04l.123 3.06c.365 8.984.38 17.994.394 26.988v.002l.014 6.227.04 42.644-.108 39.335c.428-1.75.94-3.477 1.497-5.18 2.696-7.998 6.333-15.67 10.214-23.137 1.227-2.35 2.49-4.676 3.778-6.987l1.043-6.48 3.513-23.26c.082-.49.817-.285.736.204l-.94 6.61-3.568 21.524 6.515-11.314 1.384-2.375c.326-.5 1.144-.04.817.5l-7.11 12.2c-4.126 7.264-8.05 14.61-11.44 22.24-1.715 3.877-3.31 7.794-4.616 11.793-.654 1.96-1.226 3.958-1.634 6l-.2 1.108-.144 44.314c.024.055.02.108 0 .15l.058 20.738c0 .612-.94.612-.94 0v-2.08l-.025-19.315-3.077-4.385-4.62-6.538c-3.69-5.126-7.544-10.17-11.45-15.13-.067-.01-.126-.06-.15-.173l-.023-.048-2.388-3.012-11.89-14.772c-.367-.45.286-1.143.654-.653l12.037 14.957c-.717-1.626-1.406-3.265-2.068-4.92-1.757-4.325-3.3-8.732-4.33-13.262-.694-3.1-1.266-6.366-.735-9.55.08-.53.898-.285.817.245-.245 1.55-.164 3.183 0 4.734.367 3.917 1.47 7.794 2.696 11.548 1.402 4.345 3.09 8.596 4.894 12.807l6.34 8.21c4.647 6.162 9.222 12.43 13.296 18.972l.153-37.412c-.085-.004-.174-.056-.212-.168-.046-1.346.053-2.69.23-4.022l.016-4.752.123-44.724-.04-41.787-.102-15.858zM110 249.433c2.738.612 4.944 2.98 5.434 5.713.45 2.45.368 5.02.164 7.51-.04.53.776.53.817 0 .245-2.653.326-5.51-.286-8.12-.327-1.387-1.103-2.612-2.084-3.59-1.02-1.02-2.45-2.04-3.963-1.96-.286 0-.368.408-.082.45zM280.98 157.25c.164-4.122 1.675-8.16 4.33-11.344.204-.245.613.08.41.326-2.41 3.183-3.882 7.02-4.045 11.018 0 .45-.695.45-.695 0zm-51.722 154.006c-.776-1.034-.984-2.37-.926-3.672l.23-.123c.364-.198.166-.663-.16-.726.093-.727.28-1.415.47-2.117h.001l.22-.83.1-.432h.001v-.003c.117-.465.233-.925.42-1.36 1.062-2.45 3.717-2.694 6.046-2.816.012.003.023.006.034.008-.05.172-.002.367.21.482 2.697 1.387 4.33 4.57 3.718 7.55-.572 2.938-3.146 5.468-6.17 5.713-1.593.122-3.227-.367-4.208-1.673zm.54-47.79l-.622-1.014c-.08-.164.123-.368.245-.205 1.92 1.796 3.065 4.612 3.636 7.142.572 2.652.572 5.427-.08 8.08-.082.41-.776.245-.654-.204.654-2.57.654-5.223.082-7.794-.286-1.265-.695-2.49-1.267-3.672-.395-.818-.868-1.578-1.34-2.332zm-20.68 68.684c3.8.816 7.435 2.408 10.622 4.57.286.164.53-.244.245-.448-3.268-2.245-6.905-3.795-10.786-4.57-.245 0-.327.367-.08.45zM131.49 163.045l-.16 23.993 3.062.001 1.428.018c2.264.028 4.546.055 6.803.208l.185-11.366.122-8.937.023-2.875.086-5.398c-.15-.226-.05-.623.3-.623h.45l5.85-.073 11.472-.192v-6.63l-.073-9.186-.05-4.607c-.04-4.288-.04-8.576.076-12.864l-6.286-.194c-7.638-.162-15.397-.283-23 .583l-.048 10.03-.036 3.384-.204 24.73zm11.126 24.73h-4.344c-2.087-.015-4.173-.003-6.26.008-3.623.02-7.246.04-10.87-.077l-.198 6.26-.282 13.318 1.185-.412c5.434-1.836 11-2.98 16.7-3.51 1.345-.128 2.693-.22 4.043-.283l-.04-9.348.054-5.957zM19.058 97.55c1.144.53 2.492.45 3.677.245.5-.082.286-.816-.204-.734-.53.122-1.103.204-1.634.204s-1.103-.04-1.634-.204c-.286-.122-.5.367-.204.5zm153.515.37c-1.246.04-2.453.08-3.7.04-.286 0-.286-.45 0-.5a38.04 38.04 0 0 0 1.42-.081c.777-.054 1.55-.108 2.34-.082a.31.31 0 0 1 0 .612l-.06.002zm-17.835 143.68c-.05.848-.115 1.697-.2 2.545-.178.23-.343.47-.494.72-.204.285.204.49.368.245l.024-.033a58.65 58.65 0 0 1-.433 3.011c-.408 2.408-.98 5.265-2.82 7.02-1.88 1.837-5.148 1.224-6.945-.408-1.594-1.428-2.33-3.672-2.492-5.754l-.01-.106c.08-.933.118-1.868.133-2.79.04-1.55-.163-3.06-.94-4.448l-.077-.13c-.025-2.157.184-4.336.567-6.44.5-2.815 1.225-5.672 2.615-8.202.98-1.755 2.492-3.754 4.698-3.795 1.96-.04 3.268 1.5 4.045 3.142 1.103 2.244 1.51 4.856 1.756 7.345.286 2.694.327 5.387.205 8.08zm-13.712 5.93c-.12.07-.208.188-.22.355a10.7 10.7 0 0 0 .056 1.585c-.1.87-.237 1.73-.424 2.578-.408 1.754-1.144 4.366-3.145 4.937-3.39 1.02-3.963-3.835-3.923-6.04a.42.42 0 0 0-.119-.308c1.17-2.176 1.374-4.72.93-7.12.09-.78.253-1.552.578-2.244.367-.776.98-1.225 1.838-1.347 1.77-.246 2.96.733 3.67 2.106.034.467.08.924.17 1.403.027.08.233.09.37.018.205.773.296 1.578.285 2.308a45.13 45.13 0 0 1-.066 1.767zm70.296 3.13c1.593-.04 3.064.572 4.208 1.714.122.123.327.082.45-.04 1.307-2 3.84-2.897 6.17-2.652 2.563.276 4.746 1.806 6.437 3.673-.974.02-1.95.025-2.923 0-.327-.04-.327.49 0 .53 2.578.086 5.157.03 7.72-.023h.01l3.26-.06 16.546-.204 2.126-.01 4.288.01a.31.31 0 0 0 0-.612c-3.863-.105-7.726-.03-11.563.046l-1.878.036-16.864.27a.29.29 0 0 0-.091-.23c-1.838-2.08-4.37-3.795-7.23-4-2.378-.195-4.868.762-6.298 2.694a5.8 5.8 0 0 0-4.324-1.511c-.286-.04-.327.367-.04.367zM44.787 262.525l.092-14.56c0-.408.572-.408.654 0 .02.423.03.836.04 1.245l.04 1.244c.153 4.804.17 9.63.184 14.446l.02 4.815.248 50.906c.23-1.163.505-2.314.814-3.447 1.062-3.836 2.533-7.55 4.126-11.18 1.593-3.59 3.31-7.142 5.107-10.6 3.636-6.937 7.722-13.63 12.502-19.873.368-.53 1.103.04.695.53-2.737 3.428-5.19 7.06-7.436 10.773-4.004 6.61-7.517 13.548-10.622 20.65-1.593 3.632-2.982 7.345-3.963 11.18-.58 2.25-.976 4.515-1.192 6.802l.008 1.237.1 8.724.103 13.108c0 .653-1.02.653-1.02 0l-.04-2.816-.204-21.546-.123-19.75-.095-20.914c-.46-1.558-.933-3.096-1.457-4.633-2.288-6.774-5.23-13.303-8.58-19.628-.245-.5.5-.94.776-.45a98.15 98.15 0 0 1 2.778 5.468c2.58 5.495 4.752 11.163 6.472 16.955l-.027-18.676z" fill="#353535"/><g opacity=".4" fill="#8bb5f4"><path d="M191.5 348.25l-1-332.75 162 1.5v331.25h-161zm-12.5 0H15.25v-139c-.592-67.357-2.04-130.115 0-193.75l163 1.5.75 331.25z"/></g></g><path d="M352.5 166.5v-34L245 15.563l-25-.05L352.5 166.5zm0-48l-97-102.9 26.502.157L352.5 94.5v24zM60.497 15.8l-25.9-.237 143.385 144.94.052-28.003L60.497 15.8zm117.614 88.208l-.035 14.493L75 15.98l27.5.378 75.638 75.145-.03 12.504z" opacity=".1" fill-rule="evenodd" fill="#fff"/><path d="M0 101h16v44H0zm178-3h15v43h-15zm174 3h16v74h-16z" fill="#84abe4"/><g fill="#353535"><path d="M2.39 2.55l284.514.98 80.566-.408c.5 0 .5-.775 0-.775L224.19 2.59 82.547 1.938c-26.72-.082-53.438-.245-80.157.082-.327 0-.327.53 0 .53z"/><path d="M366.366 3.98l-.04 27.26.082 38.726.5 148.2.123 48.316.04 41.664-.082 31.3-.245 17.547-.082 1.795c-.04.735-.163.204.204.245-.572-.04-1.756.163-2.533.204-5.392.204-10.785.245-16.178.327l-28.272.245-37.3.163-43.715.08h-46.902c-15.85 0-31.703-.04-47.555-.04l-45.145-.123-39.67-.204-31.663-.245-20.468-.285L2.348 359l.5.5-.04-67.984-.776-141.438-.082-71.004.572-69.168.163-8.447c0-.612-.94-.612-.94 0L1.04 70.33l.04 70.84.368 71.086.4 70.596.04 76.636a.47.47 0 0 0 .49.49c4.74.245 9.478.245 14.218.326l26.842.286 36.36.204 43.183.163 46.983.082 47.842.04 45.757-.04 40.6-.123 32.806-.204 21.94-.326 5.924-.163c.572-.04 1.962.122 2.4-.286.53-.45.327-1.96.327-2.57a184.4 184.4 0 0 0 .122-6.692l.164-24.7v-37.012l-.245-95.855-.736-189.1c.164-.5-.53-.5-.53-.04zM15.34 16.384c21.45-.122 42.898.286 64.306.775l61.405.94a1024.89 1024.89 0 0 0 37.178-.775l-.4-.408-.653 127.97-.123 65.577.286 65.658.9 64.026.163 7.876.45-.45-163.38.776.5.5.327-63.618.04-66.393-.163-66.68-.4-135.48c0-.612-.94-.612-.94 0l.572 193.915v66.27l-.327 71.943a.5.5 0 0 0 .5.49l163.38-.857c.245 0 .45-.204.45-.45l-.98-63.78-.367-65.536.04-65.618.612-136.132a.44.44 0 0 0-.408-.408c-21.408.857-42.857.94-64.306.612l-61.446-1.265-37.22-.082c-.368-.04-.368.612.04.612zm176.003.286c-.694 14.6-.653 29.218-.694 43.827l.286 69.78.5 80.594.123 76.186-.817 56.56c-.04 1.592-.123 3.183-.205 4.774 0 .245.205.45.45.45 17.486-.734 35.012-.653 52.498-.57l61.324.653 42.08.367c1.4 0 2.82 0 4.208-.122.572-.04 1.144 0 1.43-.53.205-.367.123-1.1.164-1.5.08-1.06.122-2.12.122-3.182.286-9.223.327-18.445.4-27.668l.163-46.846-.04-58.926L353.14 146l-.327-63.087-.408-54.804-.123-11.222c0-.245-.204-.45-.45-.45l-61.936-.857c-22.307-.122-44.573-.163-66.88 0l-31.622.408c-.613 0-.613.98 0 .98l60.14-.53 67.37.367 32.888.53-.45-.45.45 51.376.368 61.25.245 63.986.08 60.843-.08 50.56-.327 33.42c-.04 2.775-.082 5.6-.245 8.366l-.123 1.6c0 .163.286-.082.04-.082s-.694.082-1.02.082c-4.004.245-8.05.122-12.093.082l-80.7-.94c-18.875-.163-37.75-.286-56.584.123l-10.377.326.45.45c.776-17.792.858-35.666.98-53.498l-.04-74.718-.5-80.88-.327-71.82.245-47.5.122-3.387c0-.163-.53-.163-.572.163zm171.47-9.794l.04 17.506-.205 25.22-.653 53.66-.164 18.772v1.55a.25.25 0 0 0 .49 0l.123-17.588.613-53.05.163-25.8-.122-18.7-.04-1.55c.04-.204-.245-.204-.245-.04zm-5.68 50.224c-.327 7.223-.53 14.405-.654 21.628l-.245 22.363v22.607l.04 22.076-.082 20.77c0 .857 0 1.673-.04 2.53 0 .327.53.327.53 0l.123-20.648-.082-44.398.123-22.485.5-21.67.082-2.653c0-.326-.286-.326-.286-.122zm3.8 96.478l.286 26.8.53 27.218.04 13.507c0 .368.53.368.572 0 .082-8.406-.08-16.77-.286-25.178l-.694-27.667-.245-14.7c0-.123-.205-.123-.205 0zm-1.348-112.954l-.654 24.158-.286 6.284a.23.23 0 0 0 .45 0c.408-7.917.572-15.792.735-23.7l.123-6.733c0-.204-.368-.204-.368 0zM9.1 11.814c3.963-.163 7.926-.245 11.9-.286l15.116-.04 16.18.204 15.32.367 12.257.45c.408 0 .817.04 1.185.04.327 0 .327-.5 0-.5L69.27 11.6l-15.035-.367-16.18-.204c-5.107-.04-10.254-.04-15.36.04-4.126.04-8.253.123-12.38.367-.4.04-.817.04-1.226.082-.204 0-.204.286 0 .286zm67.982-2.326c3.513-.04 7.068.04 10.58.122l31 .857 15.076.245c3.76 0 7.517 0 11.276-.245.327-.04.654-.04.98-.082.246-.04.246-.408 0-.408-3.513.286-7.068.286-10.58.326-4.943 0-9.846-.082-14.8-.163l-16.22-.408-15.075-.367-11.276-.122h-.98c-.123.04-.123.245 0 .245zM182.52 19.16c-.245 5.1-.368 10.202-.5 15.303l-.368 21.465-.327 23.586-.368 21.872-.408 16.2c0 .45-.04.938-.04 1.387 0 .367.572.367.572 0l.408-15.303.327-21.464.286-23.586.327-21.873.327-16.2c0-.45.04-.938.04-1.387 0-.163-.286-.163-.286 0zM11.623 107.098l-.082 8.407-.163 14.037-1.103 84.838-.245 21.587-.163 18.975-.082 14.936.04 9.63.04 1.388c0 .326.53.326.53 0l-.082-8.12.04-13.793.164-18.118.204-21.057.245-22.525.286-22.852.245-21.67.368-34.237.04-11.385c.04-.245-.286-.245-.286-.04zM8.518 53.355c-.245 7.998-.245 16.037-.286 24.076l-.163 25.75c-.04 3.5-.123 6.978-.327 10.487 0 .286.4.286.45 0 .368-7.02.368-14.078.4-21.138l.082-26.565.123-12.6c0-.163-.286-.163-.286 0zm-.98-38.89a406.61 406.61 0 0 0-1.348 33.095l.082 9.345a.25.25 0 0 0 .49 0c-.245-11.018-.082-22.077.53-33.094l.613-9.304c.04-.286-.368-.286-.368-.04zM5.74 258.615l-.04 12.813.082 14.08.286 27.912.245 13.303c0 .367.572.367.53 0l-.4-25.3-.286-35.788-.123-7.06c-.04-.122-.286-.122-.286.04zm-.246 97.447c2.124.5 4.37.653 6.537.816 3.473.286 6.945.408 10.418.53 4.453.163 8.866.245 13.32.286l15.402.122 16.505-.04 16.587-.122 30.07-.286 11.52-.082 7.926.04c.45 0 .858.04 1.307.04a.25.25 0 0 0 0-.49c-2.33-.08-4.616-.08-6.945-.08l-10.704.04-13.523.122-32.03.326-16.546.082c-5.23 0-10.46 0-15.73-.04l-14.013-.204c-3.76-.08-7.476-.204-11.235-.45-2.533-.163-5.107-.285-7.6-.693-.4-.082-.817-.123-1.185-.245-.204 0-.286.285-.082.326zm51.56-2.856c3.8.04 7.558 0 11.358-.04l14.626-.286 17.73-.326 20.5-.163 23.083.122 3.023.04a.23.23 0 0 0 0-.45l-23.37-.204-20.836.163-18.098.327-15.035.285-12.992.082a.23.23 0 0 0 0 .45zm86.163 2l13.523.245 17.078.04 18.262-.122 17.24-.204 13.727-.245 1.348-.04c.245 0 .245-.367 0-.367l-13.196.244-16.914.245-18.262.164-17.364.04c-4.657 0-9.355-.04-14.013-.163-.5 0-.94-.04-1.43-.04-.163-.08-.163.204 0 .204zm176.902 1.02l12.38.04 29.13.245c.245 0 .245-.408 0-.408l-21.326-.163h-13.115l-7.068.04c-.122 0-.122.244 0 .244zm38.894-8.405v-6.733l-.04-10.936-.08-14.16-.123-16.16-.163-17.425-.327-48.315v-11.426l.08-7.386.04-1.06a.25.25 0 0 0-.49 0l-.123 6.203v10.528l.04 13.874.123 15.997.817 86.96c-.123.286.245.286.245.04zM185.624 243.15l-.082 21.8-.04 21.7v12.324c0 .327.53.327.53 0v-21.8l-.04-21.7-.08-12.324c.04-.204-.286-.204-.286 0zm-2.942 30.645l-.122 27.015-.205 26.728-.572 15.22a.23.23 0 0 0 .45 0c.53-8.977.694-17.996.776-26.973l-.04-26.73.04-15.262c0-.204-.327-.204-.327 0zm3.188-192.813l-.245 7.712-.245 11.18-.205 13.834-.204 15.67-.327 33.298-.122 15.874-.286 36.115a.25.25 0 0 0 .49 0l.082-7.55.407-56.926.327-32.645.163-14.405.205-11.916.245-10.16c.082-.326-.286-.326-.286-.082zm-34.32-69.168c5.23.367 10.46.5 15.688.57l21.57.204 23.124-.04 20.264-.204L245.2 12.1c.286 0 .572 0 .9-.04.286 0 .286-.5 0-.5-3.963.163-7.926.204-11.848.245l-19.6.204-23.002.082c-7.313 0-14.666-.04-21.98-.122l-16.546-.45c-.5-.04-.98-.04-1.47-.082-.245.082-.245.367-.08.367zm78.892-4.122l4.616.122 8.988.122 12.298.163 84.038.94 5.76.122c.204 0 .45 0 .654.04.326 0 .326-.5 0-.5l-4.616-.1-8.988-.122-12.297-.122-14.627-.163-69.412-.735-5.76-.122c-.204 0-.45 0-.653-.04-.286 0-.286.408 0 .408z"/><use xlink:href="#C"/><use xlink:href="#C" y="-5.878"/><path d="M191.63 33.605l6.62.204 11.276.163 14.994.122 17.65.082 19.406.082 39.875.082 18.466.082 16.26.082 12.9.122 2.574.04c.5 0 .5-.735 0-.735l-12-.122-15.484-.082-18.1-.082c-6.496 0-12.992-.04-19.528-.04-6.7 0-13.442-.04-20.142-.04-6.537 0-13.074-.04-19.6-.04-6.088 0-12.134-.04-18.222-.04-5.23 0-10.46-.04-15.688-.04-4.085 0-8.212-.04-12.297-.04-2.615 0-5.23-.04-7.804-.04h-1.144c-.245-.122-.245.245 0 .245zm0 25.137l6.62.204 11.276.163 14.994.123 17.65.082 19.406.082 39.875.082 18.466.082 16.26.082 12.9.122 2.574.04c.5 0 .5-.735 0-.735l-12-.122-15.484-.082-18.1-.082c-6.496 0-12.992-.04-19.528-.04-6.7 0-13.442-.04-20.142-.04-6.537 0-13.074-.04-19.6-.04-6.088 0-12.134-.04-18.222-.04-5.23 0-10.46-.04-15.688-.04-4.085 0-8.212-.04-12.297-.04-2.615 0-5.23-.04-7.804-.04h-1.144c-.245-.122-.245.245 0 .245zm-.86-6.202l62.182.612 33.092.286 32.398.122 33.787-.245c.5 0 .5-.735 0-.735l-29.947.245c-10.744.04-21.5 0-32.234-.082l-33.093-.245-32.398-.286-30.2-.163h-3.596c-.286 0-.286.5 0 .5zm0-12.6l62.182.612 33.092.286 32.398.123 33.787-.245c.5 0 .5-.735 0-.735l-29.947.245c-10.744.04-21.5 0-32.234-.082l-33.093-.245-32.398-.286-30.2-.163h-3.596c-.286 0-.286.45 0 .5zm.206 25.137l29.2.57 32.52.326 33.705.163h32.766l29.742-.082h3.3c.5 0 .5-.775 0-.775l-29.2.122H290.5a4640.74 4640.74 0 0 1-33.705-.122l-32.766-.245-29.7-.408c-1.103 0-2.206-.04-3.3-.04-.368-.04-.368.5-.04.5zm0-18.853l29.2.57 32.52.326 33.705.163h32.766l29.742-.082h3.3c.5 0 .5-.775 0-.775l-29.2.122H290.5a4640.74 4640.74 0 0 1-33.705-.122l-32.766-.245-29.7-.408c-1.103 0-2.206-.04-3.3-.04-.368-.04-.368.45-.04.5z"/><use xlink:href="#D"/><use xlink:href="#D" y="-11.058"/><path d="M15.34 43.97l6.7.204 11.358.163 15.157.122 17.813.082 19.6.082 40.283.082 18.63.082 16.424.082 13.033.122 2.614.04c.5 0 .5-.735 0-.735l-12.133-.122-15.648-.082L130.91 44c-6.578 0-13.155-.04-19.733-.04-6.782 0-13.564-.04-20.346-.04-6.578 0-13.196-.04-19.774-.04-6.128 0-12.256-.04-18.425-.04-5.27 0-10.582-.04-15.852-.04-4.126 0-8.293-.04-12.42-.04-2.615 0-5.27-.04-7.885-.04H15.34c-.204-.122-.204.204 0 .245zm0 45.826l6.7.204 11.358.163 15.157.122 17.813.082 19.6.082 40.283.082 18.63.082 16.424.082 13.033.122 2.614.04c.5 0 .5-.734 0-.734L164.83 90l-15.648-.082-18.262-.082c-6.578 0-13.155-.04-19.733-.04-6.782 0-13.564-.04-20.346-.04-6.578 0-13.196-.04-19.774-.04-6.128 0-12.256-.04-18.425-.04-5.27 0-10.582-.04-15.852-.04-4.126 0-8.293-.04-12.42-.04-2.615 0-5.27-.04-7.885-.04H15.34c-.204-.082-.204.245 0 .245zm-.858-11.344l30.274.286 32.56.326 33.42.286 32.765.122 34.155-.245c.5 0 .5-.734 0-.734l-30.274.245c-10.867.04-21.693 0-32.56-.082l-96.704-.694h-3.636c-.286 0-.286.5 0 .5zm0-23.015l30.274.286 32.56.327 33.42.286 32.765.122 34.155-.245c.5 0 .5-.734 0-.734l-30.274.245c-10.867.04-21.693 0-32.56-.082l-96.704-.694h-3.636c-.286 0-.286.5 0 .5zm.246 45.907l29.497.572 32.847.326 34.073.163h33.134l30.028-.08h3.35c.5 0 .5-.775 0-.775l-29.497.122h-32.848a4777.82 4777.82 0 0 1-34.073-.122l-33.133-.245-30.028-.408c-1.103 0-2.247-.04-3.35-.04-.368-.04-.368.45 0 .5zm0-34.44l29.497.57 32.847.327 34.073.163h33.134l30.028-.082h3.35c.5 0 .5-.775 0-.775l-29.497.122h-32.848a4742.69 4742.69 0 0 1-34.073-.122l-33.133-.245-30.028-.408c-1.103 0-2.247-.04-3.35-.04a.25.25 0 0 0 0 .5z"/><use xlink:href="#E"/><use xlink:href="#F"/><path d="M195.674 21.73v2.448c0 .163.163.326.327.326s.327-.163.327-.326V21.73c0-.408-.654-.408-.654 0z"/><path d="M194.57 24.097c0 .408.613.45.9.45.45 0 .858-.082 1.307-.082h.123c-.04 0 .082 0 0 0h.04c.08.04.04 0 0 0h.04c-.082-.04-.123-.122-.123-.163 0 .163.123.326.327.326.163 0 .327-.122.327-.326 0-.5-.613-.5-.98-.45-.204 0-.45.04-.654.082s-.45.04-.653.082c.04 0-.123 0 0 0h-.164c.04 0-.04 0 0 0h-.04c.04.04.04 0 0 0l.04.04c0-.04.04.04.04.04.04.04 0 .04.04.082-.123-.367-.572-.367-.572-.082z"/><use xlink:href="#E" y="11.181"/><path d="M194.57 30.014c0 .408.613.45.9.45.45 0 .858-.082 1.307-.082h.123c-.04 0 .082 0 0 0h.04c.08.04.04 0 0 0h.04c-.082-.04-.123-.122-.123-.163 0 .163.123.326.327.326.163 0 .327-.122.327-.326 0-.5-.613-.5-.98-.45-.204 0-.45.04-.654.082s-.45.04-.653.082c.04 0-.123 0 0 0h-.164c.04 0-.04 0 0 0h-.04c.04.04.04 0 0 0l.04.04c0-.04.04.04.04.04.04.04 0 .04.04.082-.123-.367-.572-.408-.572-.082z"/><use xlink:href="#G"/><use xlink:href="#F" y="17.302"/><path d="M195.633 40.01l-.04 2.897a.44.44 0 0 0 .409.408.41.41 0 0 0 .408-.408l-.04-2.897c0-.5-.736-.5-.736 0z"/><use xlink:href="#H"/><path d="M195.674 46.05V48.5c0 .163.163.327.327.327s.327-.163.327-.327V46.05c0-.408-.654-.408-.654 0z"/><use xlink:href="#H" y="6.04"/><use xlink:href="#G" y="18.608"/><use xlink:href="#F" y="35.91"/><path d="M195.674 59.19v2.448c0 .163.163.326.327.326s.327-.163.327-.326V59.19c0-.408-.654-.408-.654 0z"/><use xlink:href="#F" y="42.725"/><use xlink:href="#I"/><use xlink:href="#J"/><path d="M347.164 21.73v2.448c0 .163.164.326.327.326s.327-.163.327-.326V21.73c-.04-.408-.654-.408-.654 0z"/><path d="M346.06 24.097c0 .408.613.45.9.45.45 0 .858-.082 1.307-.082h.123c-.04 0 .082 0 0 0h.04c.08.04.04 0 0 0h.04c-.082-.04-.123-.122-.123-.163 0 .163.123.326.327.326.163 0 .327-.122.327-.326 0-.5-.613-.5-.98-.45-.204 0-.45.04-.654.082s-.45.04-.653.082c.04 0-.123 0 0 0h-.164c.04 0-.04 0 0 0h-.04c.04.04.04 0 0 0l.04.04c0-.04.04.04.04.04.04.04 0 .04.04.082-.163-.367-.572-.367-.572-.082z"/><use xlink:href="#I" y="11.181"/><path d="M346.06 30.014c0 .408.613.45.9.45.45 0 .858-.082 1.307-.082h.123c-.04 0 .082 0 0 0h.04c.08.04.04 0 0 0h.04c-.082-.04-.123-.122-.123-.163 0 .163.123.326.327.326.163 0 .327-.122.327-.326 0-.5-.613-.5-.98-.45-.204 0-.45.04-.654.082s-.45.04-.653.082c.04 0-.123 0 0 0h-.164c.04 0-.04 0 0 0h-.04c.04.04.04 0 0 0l.04.04c0-.04.04.04.04.04.04.04 0 .04.04.082-.163-.367-.572-.408-.572-.082z"/><use xlink:href="#K"/><use xlink:href="#J" y="17.302"/><path d="M347.082 40.01l-.04 2.897a.44.44 0 0 0 .408.408.41.41 0 0 0 .409-.408l-.04-2.897c0-.5-.736-.5-.736 0z"/><use xlink:href="#L"/><path d="M347.164 46.05V48.5c0 .163.164.327.327.327s.327-.163.327-.327V46.05c-.04-.408-.654-.408-.654 0z"/><use xlink:href="#L" y="6.04"/><use xlink:href="#K" y="18.608"/><use xlink:href="#J" y="35.91"/><path d="M347.164 59.19v2.448c0 .163.164.326.327.326s.327-.163.327-.326V59.19c-.04-.408-.654-.408-.654 0z"/><use xlink:href="#J" y="42.725"/><path d="M196.41 65.19c-.408 6.284-.408 12.61-.5 18.894l-.163 18.7v10.57c0 .53.817.53.817 0l.327-48.153c0-.327-.45-.327-.49 0z"/><path d="M194.285 113.83c1.103.245 2.247.205 3.35.327l-.408-.408c-.246 3.428.08 6.855-.123 10.242l.45-.448c-1.062.04-2.165.08-3.227.04l.5.5c.082-1.714-.04-3.47-.082-5.182s-.204-3.5-.04-5.224c.04-.612-.9-.612-.98 0-.163 1.714 0 3.5.04 5.224s.163 3.468.122 5.182c0 .245.205.5.5.5 1.062 0 2.165 0 3.227-.082.245 0 .45-.204.45-.45.204-3.428-.164-6.855 0-10.242a.41.41 0 0 0-.409-.408c-1.103-.082-2.165-.082-3.268-.123-.368-.08-.45.5-.082.57zM170.507 17.2a.54.54 0 0 0 .04.245l.123-.122h-.04c-.122.04-.245.163-.245.326l.122 1.96c.04.204.286.326.45.245a.37.37 0 0 0 .245-.45v-.163c0-.082 0-.163-.04-.204 0-.163-.04-.326-.04-.45l-.08-.94c-.04-.204-.123-.326-.327-.326l.08.082c0-.082-.04-.163-.04-.204 0-.204-.246-.163-.246 0z"/><use xlink:href="#M"/><use xlink:href="#N"/><use xlink:href="#O"/><use xlink:href="#N" y="10.937"/><path d="M19.058 40.99c1.144.53 2.492.45 3.677.245.5-.082.286-.816-.204-.734-.53.122-1.103.204-1.634.204s-1.103-.04-1.634-.204c-.286-.122-.5.326-.204.5z"/><use xlink:href="#N" y="22.077"/><use xlink:href="#P"/><use xlink:href="#Q"/><use xlink:href="#P" y="11.346"/><use xlink:href="#N" y="44.807"/><path d="M19.058 74.86c1.144.53 2.492.45 3.677.245.5-.082.286-.816-.204-.735a7.46 7.46 0 0 1-1.634.204c-.53 0-1.103-.04-1.634-.204-.286-.163-.5.326-.204.5z"/><use xlink:href="#N" y="56.15"/><use xlink:href="#O" y="56.15"/><use xlink:href="#Q" y="34.073"/><use xlink:href="#R"/><use xlink:href="#M" y="10.732"/><use xlink:href="#R" y="10.732"/><use xlink:href="#M" y="22.525"/><use xlink:href="#S"/><use xlink:href="#M" y="33.87"/><use xlink:href="#S" y="11.344"/><use xlink:href="#M" y="45.255"/><use xlink:href="#R" y="45.215"/><path d="M170.385 78.982c-.204 2.448.122 4.938-.164 7.386-.08.53.777.53.818 0 .122-1.183.08-2.408.04-3.632l-.204-3.754c0-.327-.45-.327-.5 0z"/><use xlink:href="#S" y="34.073"/><use xlink:href="#M" y="67.944"/><path d="M22.408 101.263c-.04.408-.123.734-.204 1.142-.082.245 0 .572 0 .817l.123 6.08.082 8.284.245 16.363.45 8.774c.082.653 1.062.653 1.02 0l-.41-7.876-.204-8.08-.204-16.65-.123-4.57-.082-2.163c0-.327.04-.694-.082-.98-.04-.163-.163-.285-.204-.49s-.082-.45-.082-.694c-.123-.122-.327-.082-.327.04z"/><path d="M21.755 142.968c.082.04.204.04.286.08l-.123-.122c.123.163.204.204.41.204.123 0 .245.04.41.04.245 0 .5.04.776.04.53 0 1.02.04 1.553.08.41 0 .5-.612.082-.734-.53-.123-1.062-.164-1.593-.164h-.776c-.286 0-.613-.08-.817.123.04-.04.082-.04.123-.082-.082.04-.204 0-.286 0-.286 0-.327.5-.04.53z"/><path d="M24.737 142.845c-.082 1.633 0 3.265.04 4.897l.082 4.897c0 .53.817.53.817 0l-.286-9.794c-.082-.408-.654-.408-.654 0z"/><path d="M21.47 142.315c-.245 3.428.123 6.855-.04 10.324 0 .163.123.326.286.367 1.103.245 2.206.04 3.35.123.5.04.5-.735 0-.776-1.062-.08-2.084.123-3.146-.08.082.122.204.244.286.367.082-1.632 0-3.305-.04-4.938l-.204-5.345c-.04-.368-.5-.368-.5-.04z"/></g><defs ><path id="C" d="M191.425 27.73c9.683.245 19.365.204 29.048.286l32.153.163 33.297.122 32.438.082 33.052-.04c.5 0 .5-.775 0-.775l-29.17.082c-10.745 0-21.5 0-32.194-.04l-65.695-.245-29.58-.04-3.39.04c-.204 0-.204.367.04.367z"/><path id="D" d="M15.136 32.91c9.805.245 19.57.245 29.375.286l32.48.163 33.624.122 32.766.082 33.378-.04c.49 0 .49-.775 0-.775l-29.456.082c-10.868 0-21.694 0-32.562-.04l-66.348-.245-29.824-.04-3.432.04c-.245 0-.245.367 0 .367z"/><path id="E" d="M195.674 16.466v2.448c0 .163.163.326.327.326s.327-.163.327-.326v-2.448c0-.408-.654-.408-.654 0z"/><path id="F" d="M194.57 18.833c0 .408.613.45.9.45.45 0 .858-.082 1.307-.082h.123c-.04 0 .082 0 0 0h.04c.08.04.04 0 0 0h.04c-.082-.04-.123-.122-.123-.163 0 .163.123.326.327.326.163 0 .327-.122.327-.326 0-.5-.613-.5-.98-.45-.204 0-.45.04-.654.082s-.45.04-.653.082c.04 0-.123 0 0 0h-.164c.04 0-.04 0 0 0h-.04c.04.04.04 0 0 0l.04.04c0-.04.04.04.04.04.04.04 0 .04.04.082-.123-.408-.572-.408-.572-.082z"/><path id="G" d="M195.674 33.768v2.448c0 .163.163.327.327.327s.327-.163.327-.327v-2.448c0-.408-.654-.408-.654 0z"/><path id="H" d="M194.57 42.378c0 .408.613.45.9.45.45 0 .858-.082 1.307-.082h.123c-.04 0 .082 0 0 0h.04c.08.04.04 0 0 0h.04c-.082-.04-.123-.122-.123-.163 0 .163.123.327.327.327.163 0 .327-.122.327-.327 0-.5-.613-.5-.98-.45-.204 0-.45.04-.654.082s-.45.04-.653.082c.04 0-.123 0 0 0h-.164c.04 0-.04 0 0 0h-.04c.04.04.04 0 0 0l.04.04c0-.04.04.04.04.04.04.04 0 .04.04.082-.123-.367-.572-.408-.572-.082z"/><path id="I" d="M347.164 16.466v2.448c0 .163.164.326.327.326s.327-.163.327-.326v-2.448c-.04-.408-.654-.408-.654 0z"/><path id="J" d="M346.06 18.833c0 .408.613.45.9.45.45 0 .858-.082 1.307-.082h.123c-.04 0 .082 0 0 0h.04c.08.04.04 0 0 0h.04c-.082-.04-.123-.122-.123-.163 0 .163.123.326.327.326.163 0 .327-.122.327-.326 0-.5-.613-.5-.98-.45-.204 0-.45.04-.654.082s-.45.04-.653.082c.04 0-.123 0 0 0h-.164c.04 0-.04 0 0 0h-.04c.04.04.04 0 0 0l.04.04c0-.04.04.04.04.04.04.04 0 .04.04.082-.163-.408-.572-.408-.572-.082z"/><path id="K" d="M347.164 33.768v2.448c0 .163.164.327.327.327s.327-.163.327-.327v-2.448c-.04-.408-.654-.408-.654 0z"/><path id="L" d="M346.06 42.378c0 .408.613.45.9.45.45 0 .858-.082 1.307-.082h.123c-.04 0 .082 0 0 0h.04c.08.04.04 0 0 0h.04c-.082-.04-.123-.122-.123-.163 0 .163.123.327.327.327.163 0 .327-.122.327-.327 0-.5-.613-.5-.98-.45-.204 0-.45.04-.654.082s-.45.04-.653.082c.04 0-.123 0 0 0h-.164c.04 0-.04 0 0 0h-.04c.04.04.04 0 0 0l.04.04c0-.04.04.04.04.04.04.04 0 .04.04.082-.163-.367-.572-.408-.572-.082z"/><path id="M" d="M170.385 22.383c-.204 2.448.122 4.938-.164 7.386-.08.53.777.53.818 0 .122-1.183.08-2.408.04-3.632l-.204-3.754c0-.326-.45-.326-.5 0z"/><path id="N" d="M20.53 21.77l.04 7.63c.04.53.9.53.817 0-.286-2.53 0-5.142-.41-7.672-.04-.245-.45-.204-.45.04z"/><path id="O" d="M19.058 30.055c1.144.53 2.492.45 3.677.245.5-.082.286-.816-.204-.735a7.46 7.46 0 0 1-1.634.204c-.53 0-1.103-.04-1.634-.204-.286-.122-.5.326-.204.5z"/><path id="P" d="M19.058 52.13c1.144.53 2.492.45 3.677.245.5-.082.286-.816-.204-.735a7.46 7.46 0 0 1-1.634.204c-.53 0-1.103-.04-1.634-.204-.286-.122-.5.367-.204.5z"/><path id="Q" d="M20.53 55.233l.04 7.63c.04.53.9.53.817 0-.286-2.53 0-5.142-.41-7.672-.04-.286-.45-.204-.45.04z"/><path id="R" d="M168.873 30.055l3.76-.04a.31.31 0 0 0 0-.612c-1.267-.04-2.492.122-3.76.163-.286 0-.286.45 0 .5z"/><path id="S" d="M168.873 52.54l3.76-.04a.31.31 0 0 0 0-.612c-1.267-.04-2.492.122-3.76.163-.286.04-.286.5 0 .5z"/></defs></svg>