<svg xmlns="http://www.w3.org/2000/svg" xmlns:xlink="http://www.w3.org/1999/xlink" width="367" height="360" fill="none"><g opacity=".9" fill="#fff"><use xlink:href="#B"/><use xlink:href="#C"/></g><g opacity=".9" fill="#fff"><use xlink:href="#D"/><use xlink:href="#E"/><use xlink:href="#F"/><use xlink:href="#G"/></g><g opacity=".9" fill="#fff"><use xlink:href="#H"/><use xlink:href="#I"/></g><g opacity=".9" fill="#fff"><use xlink:href="#J"/><use xlink:href="#K"/></g><g opacity=".9" fill="#fff"><use xlink:href="#B"/><use xlink:href="#C"/></g><g opacity=".9" fill="#fff"><use xlink:href="#D"/><use xlink:href="#E"/><use xlink:href="#F"/><use xlink:href="#G"/></g><path opacity=".9" d="M350.182 123.453c1.65-.97 2.966.882 3.417 1.93-3.896.323-12.68.93-16.644.76s-13.25-.073-17.396-.005l-.13-1.138 3.94-.522c-.327-.34-1.298-1.227-2.563-2.04-1.58-1.018.407-2.29 2.057-2.438 1.32-.117 4.904.337 6.53.58-.646-.997-1.773-3.417-1.112-5.12.826-2.13 5.64-.82 11.387 1.09 4.6 1.527 7.132 6.68 7.823 9.067.21-.316 1.04-1.19 2.69-2.16z" fill="#fff"/><g opacity=".9" fill="#fff"><use xlink:href="#H"/><use xlink:href="#I"/></g><path opacity=".9" d="M238.03 124.02c1.65-.97 2.965.882 3.417 1.93-3.896.323-12.68.928-16.644.76s-13.25-.073-17.397-.005l-.128-1.138 3.94-.522c-.327-.34-1.3-1.228-2.564-2.04-1.58-1.018.408-2.29 2.058-2.438 1.32-.117 4.903.337 6.53.578-.645-.996-1.772-3.416-1.11-5.12.825-2.13 5.64-.82 11.387 1.09 4.598 1.527 7.13 6.68 7.823 9.067.21-.316 1.038-1.19 2.69-2.16z" fill="#fff"/><g opacity=".9" fill="#fff"><use xlink:href="#J"/><use xlink:href="#K"/></g><defs ><path id="B" d="M53.845 130.025H22.09l12.438-1.72c.088-.764-.106-2.75-1.588-4.585s3.793.764 6.616 2.292c-.53-.668-.688-2.75 2.91-5.73 4.5-3.725 13.232 6.017 15.878 5.73s2.646 4.012-4.5 4.012z"/><path id="C" d="M103.53 112.332c-2.275 1.146.33 2.722 1.92 3.367l32.286 1.218c.352-.144 1.137-.674 1.455-1.648.397-1.218-.728-2.58-2.382-3.58-1.323-.803-2.977.334-3.638 1.002.022-.5-.715-2.45-3.838-6.23-3.903-4.728-8.27-4.226-12.57-3.797-3.44.344-2.315 3.534-1.323 5.086-.31 0-1.19-.157-2.25-.788-1.324-.788-2.514-.5-4.632.788-1.693 1.032.706 3.486 2.118 4.584-.397-.238-1.654-.802-3.507-1.146-2.315-.43-.794-.286-3.64 1.146z"/><path id="D" d="M138.468 116.143c.326-1.4-.217-2.975-1.337-3.777-1.157-.822-2.766-.705-3.814.234-.073.08-.18.04-.217-.058-1.05-3.327-3.254-6.145-6-7.965a13.63 13.63 0 0 0-4.483-1.957c-1.645-.372-3.49-.51-5.116.058-.94.333-1.79.94-2.313 1.86-.488.86-.687 1.957-.307 2.916.036.097-.037.273-.163.215-.74-.333-1.52-.607-2.314-.763-.76-.157-1.59-.294-2.368-.196-1.482.196-1.753 1.996-1.14 3.23.398.783 1.013 1.39 1.61 1.977.127.117-.036.313-.162.234-1.248-.665-2.64-.998-4.013-.96-.362.02-.705.04-1.05.118-.307.06-.65.098-.94.235-.27.117-1.048.822-.524 1.076.163.078.018.333-.144.254-.543-.254-.235-.92.072-1.232.506-.53 1.3-.607 1.97-.685 1.645-.196 3.308.137 4.8.94l-.162.235c-1.05-1.018-2.224-2.27-1.97-3.953.11-.666.452-1.292 1.03-1.566.74-.352 1.663-.196 2.44-.098 1.03.157 2.024.45 2.982.88l-.162.215c-.687-1.742.235-3.7 1.626-4.638 1.573-1.057 3.597-1.096 5.387-.842 3.362.5 6.525 2.35 8.803 5.05a15.44 15.44 0 0 1 2.91 5.283l-.217-.058c.904-.803 2.15-1.077 3.254-.705 1.084.352 1.916 1.31 2.24 2.486a4.08 4.08 0 0 1 .036 2.035c-.054.117-.253.06-.235-.078z"/><path id="E" d="M145.7 117.023l-16.684-.49-16.594-.528-9.38-.313c-.127 0-.127-.216 0-.216l33.277 1.096 9.382.352c.054 0 .054.098 0 .098z"/><path id="F" d="M61.755 130.43c-.018-1.35-.67-2.662-1.7-3.444s-2.35-.92-3.525-.47c-.67.254-1.247.704-1.7 1.29-.054.06-.145.04-.18-.02-1.735-2.896-4.338-5.167-7.34-6.4-1.5-.626-3.127-1.017-4.736-.978-1.573.04-3.272.568-4.302 1.937-.958 1.292-1.32 3.308-.325 4.697.1.137-.072.313-.163.176-1.175-1.487-3.236-1.996-4.88-1.193.018-.06.036-.118.036-.177.506 1.175 1.21 2.23 2.097 3.112.1.078.018.215-.1.215l-13.827 1.312c-.163.02-.163-.274 0-.274l10.773-.998 3.055-.294c-.036.078-.054.157-.1.215-.904-.88-1.627-1.957-2.133-3.15-.018-.058-.018-.156.036-.176 1.735-.86 3.922-.352 5.17 1.233-.054.06-.127.098-.18.157-.886-1.253-.76-2.975-.108-4.306.777-1.546 2.24-2.387 3.796-2.642 1.7-.293 3.47.02 5.097.568 1.59.548 3.09 1.37 4.43 2.427a16.13 16.13 0 0 1 3.868 4.403c-.054 0-.127-.02-.18-.02.83-1.115 2.17-1.702 3.49-1.624 1.32.098 2.495.92 3.18 2.153a4.7 4.7 0 0 1 .596 2.27c.018.137-.163.137-.163 0z"/><path id="G" d="M67.178 131.447c-2.26-.53-4.59-.685-6.905-.764l-7.068-.176-22.27-.587c-.127 0-.127-.215 0-.215l28.632.783c2.55.078 5.134.215 7.628.822.126 0 .1.156-.018.137z"/><path id="H" d="M358.866 125.098c-4.867.4-9.767.627-14.646.694-4.842.063-9.678-.01-14.51-.263a229.45 229.45 0 0 1-8.255-.551c-.146-.005-.094-.246.033-.24 4.865.406 9.737.674 14.63.782 4.858.112 9.718.047 14.586-.137 2.733-.103 5.44-.282 8.166-.463.1-.01.105.166-.003.177z"/><path id="I" d="M352.936 126.217c-.46-1.3-1.564-2.317-2.852-2.52-1.327-.218-2.7.473-3.468 1.672-.047.083-.176.057-.203-.038-1.285-3.702-3.912-6.755-7.092-8.65s-6.936-2.7-10.5-1.952c-.535.114-1.18.2-1.6.597-.438.398-.47 1.05-.35 1.608.27 1.21 1.285 2.03 1.6 3.238.026.095-.037.2-.147.192-1.73-.472-3.516-.76-5.3-.833-.42-.016-.84-.032-1.254-.01-.38.02-.8.1-1.03.46-.404.572-.076 1.423.33 1.893.566.67 1.396 1.016 1.962 1.686.063.092.001.216-.09.225-1.44.148-2.874.353-4.302.637l.114-.15c-.024 1.378-1.404 2.424-2.607 1.957-.168-.06-.046-.33.122-.268.997.4 2.206-.52 2.233-1.663-.006-.078.043-.142.115-.15a46.6 46.6 0 0 1 4.301-.637c-.03.082-.06.144-.09.226-.567-.67-1.376-1-1.943-1.67-.424-.487-.708-1.244-.494-1.915.254-.832 1.12-.9 1.808-.912.963-.001 1.932.077 2.904.194a23.3 23.3 0 0 1 3.29.665l-.146.192c-.283-1.15-1.203-1.92-1.538-3.046-.13-.46-.19-.944-.05-1.41.14-.486.49-.817.928-1.02.454-.203.954-.294 1.42-.38s.93-.154 1.416-.204a14.81 14.81 0 0 1 2.801.048c3.76.44 7.377 2.35 10.046 5.26 1.485 1.618 2.67 3.56 3.403 5.706-.073-.012-.13-.026-.203-.038.622-.987 1.656-1.624 2.752-1.756 1.078-.13 2.15.29 2.946 1.094a4.37 4.37 0 0 1 .995 1.628c-.01.08-.186.157-.214.042z"/><path id="J" d="M246.715 125.666a215.17 215.17 0 0 1-14.646.694c-4.842.063-9.678-.012-14.512-.264-2.753-.13-5.51-.32-8.255-.55-.145-.005-.094-.246.034-.24 4.865.406 9.736.674 14.63.782 4.857.112 9.718.047 14.586-.137 2.732-.103 5.44-.282 8.166-.463.1-.01.105.166-.003.177z"/><path id="K" d="M240.785 126.785c-.46-1.3-1.564-2.317-2.853-2.52-1.326-.218-2.7.473-3.467 1.672-.047.083-.176.057-.203-.038-1.286-3.702-3.913-6.755-7.092-8.65s-6.937-2.7-10.502-1.952c-.534.114-1.18.2-1.6.596-.437.4-.47 1.05-.35 1.61.27 1.21 1.285 2.03 1.59 3.238.026.095-.037.2-.147.192-1.73-.472-3.516-.76-5.302-.833-.42-.016-.838-.033-1.253-.01-.38.02-.79.1-1.032.46-.403.572-.075 1.423.33 1.893.567.67 1.396 1.016 1.963 1.686.063.092.001.216-.09.225a45.95 45.95 0 0 0-4.302.637l.114-.15c-.025 1.378-1.404 2.424-2.607 1.957-.17-.06-.047-.33.122-.268.996.4 2.206-.52 2.233-1.663-.007-.078.042-.142.114-.15a46.62 46.62 0 0 1 4.302-.637c-.03.082-.06.144-.09.226-.567-.67-1.377-1-1.943-1.67-.424-.487-.708-1.244-.495-1.915.255-.832 1.12-.9 1.81-.913.962 0 1.93.078 2.904.195a23.33 23.33 0 0 1 3.29.665l-.147.192c-.282-1.15-1.203-1.92-1.537-3.047-.13-.458-.19-.943-.05-1.4.14-.486.49-.817.927-1.02.455-.203.955-.294 1.42-.38a17.25 17.25 0 0 1 1.417-.204 14.8 14.8 0 0 1 2.8.048c3.76.44 7.377 2.35 10.046 5.26 1.485 1.617 2.672 3.56 3.404 5.706-.074-.012-.13-.026-.203-.038.622-.987 1.655-1.624 2.75-1.756 1.078-.13 2.15.29 2.947 1.094a4.37 4.37 0 0 1 .995 1.628c-.01.08-.186.157-.214.042z"/></defs></svg>