<svg xmlns="http://www.w3.org/2000/svg" xmlns:xlink="http://www.w3.org/1999/xlink" width="51" height="94" fill="none"><ellipse opacity=".1" cx="31.875" cy="87.934" rx="18.748" ry="3.595" transform="rotate(7.392 31.875 87.934)" fill="#000"/><path fill-rule="evenodd" d="M23.24 70.09c-.277.278-.85.943-.925 1.387-.06.358-.158.485-.517.95l-.87 1.176c-.888 1.258-1.542 2.004-1.757 2.22-.863.277-2.33 1.572-1.295 4.532 1.295 3.7 2.867 6.844 7.4 7.49 3.625.518 10.697.956 13.78 1.1l.925-.463 2.405.463c.308-.555.74-1.74 0-2.035s-1.54-.123-1.85 0c.277-1.418.555-4.94-.555-7.676s-1.82-4.1-2.035-4.44l.462-1.665c2.56-1.82 7.306-6.382 5.827-10.08s-4.5-3.76-5.827-3.33c-.894-1.233-3.163-3.55-5.087-2.96s-3.144 1.1-3.514 1.295l-2.867.925c-.802.863-2.534 2.886-3.052 4.07s-.647 5.18-.647 7.03zm16.74 16.832l-1.572-4.902-.925.462v4.44h2.497z" fill="#f5f0dd"/><path d="M35.262 62.784c.74-1.387.093-.832 2.497-2.867.278-.185 1.535-.333 4.347.555s2.65 3.453 2.22 4.624c-.34-.03-1.258.407-2.22 2.405-1.202 2.497-4.347 3.884-7.49 2.405s-.092-5.734.647-7.12z" fill="url(#A)"/><path d="M30.082 72.773c-2.146-.666-5.333-2.867-6.66-3.884l-.463 1.387c.4.586 2.11 2.183 5.734 3.884s7.676 1.08 9.25.555v-1.017c-1.726-.03-5.716-.26-7.86-.925z" fill="#fe6869"/><path d="M24.8 72.588l1.665-2.312h.832l-1.48 3.006-1.017-.694zm5.92 2.172l.97-2.497 1.25.324-.97 2.96-1.25-.786z" fill="#bee3ef"/><path fill-rule="evenodd" d="M33.504 59.686c-1.156.37-3.792 2.266-3.468 3.376s3.653 1.803 4.393 1.1c.498-.467 1.186-2.173.72-3.35-.167-.422-.484-.776-1.01-.98-.184-.07-.395-.125-.633-.156z" fill="#fff"/><path d="M32.395 55.108c.1.962-.23 1.665-.416 1.896l-1.48.786.463-2.173c.148-.48.74-1.834 1.017-2.45.092.247.305.98.416 1.942zm-7.862 4.162c.37-.37 2.035-.493 2.82-.5 1 .777-.108 1.803-.786 2.22l-1.295-.88v4.855l-1.295-4.44c-.555-1.434.093-.786.555-1.25z" fill="#000"/><path opacity=".4" d="M23.7 50.76c-.154-.617-.037-2.33 1.665-4.254 1.665-1.17 7-1.83 15.075 4.902s8.97 12.177 8.416 14.058l-10.913 8.046c-1.418-.093-4.92-.37-7.584-.74s-6.042-3.175-7.4-4.532l.74-17.48z" fill="url(#B)"/><path opacity=".4" fill-rule="evenodd" d="M23.7 50.76l-.74 17.48c1.357 1.356 4.735 4.162 7.4 4.532l7.584.74 10.913-8.046c-1.85.093-7.343-.888-14.52-5.55S24.582 50.184 24.2 48.23c-.573 1.17-.595 2.108-.49 2.53z" fill="#fff"/><path d="M6.684 4.15c5.457 0 5.952 4.023 5.028 7.908s-1.79 3.56-2.623 4.393c-.666.666-2.343 2.775-3.237 2.867v1.387l-1.387.74 1.387-2.127c-1.726.216-2.682-1.387-4.347-7.26C.103 7.11 4.926 4.15 6.684 4.15z" fill="#fe6869"/><path d="M16.21.108c5.457 0 4.902 5.705 3.977 9.59s-.74 1.88-1.572 2.71c-.666.666-2.343 2.775-3.237 2.867v1.387l-1.387.74 1.387-2.127c-1.726.216-2.682-1.387-4.347-7.26C9.63 3.07 14.452.108 16.21.108z" fill="#feb103"/><path d="M21.02 5.906c5.457 0 4.81 5.457 3.884 9.34s-1.295 2.96-2.127 3.792c-.666.666-.863 2.22-1.757 2.312v1.387l-1.387.74 1.387-2.127c-1.726.216-2.682-1.387-4.347-7.26-1.402-4.945 2.6-8.185 4.347-8.185z" fill="#55a250"/><path d="M12.973 7.755c5.457 0 6.66 4.81 5.734 8.694s-1.387 4.532-2.22 5.364c-.666.666-2.62 1.017-3.515 1.1l1.48 1.85-2.497.647 1.017-2.497c-1.726.216-3.886-1.355-4.994-8.97-.74-5.087 3.237-6.197 4.994-6.197z" fill="#7dca78"/><path opacity=".2" fill-rule="evenodd" d="M20.766 5.926c.128-2.775-.6-5.37-3.7-5.766.886 1.707 1.8 5.693-1.688 7.977.4 1.068.784 2.533 1.006 4.15a7.26 7.26 0 0 0 .119 1.077l.06 1.2c.056 3.178-.762 6.497-3.6 8.368l-1.017 2.497 2.497-.647-1.48-1.85c.894-.093 2.848-.444 3.514-1.1.646-.646 1.07-1.18 1.66-3.205l.56-2.16c.325-1.367.387-2.847.094-4.193-.265-1.216-.82-2.32-1.735-3.132.934-1.88 2.613-3.035 3.7-3.198zm-9.94-.394c.615.625.974 1.425 1.14 2.325-.29.055-.6.136-.912.248-.517.185-1.042.456-1.513.84-.157-1.88-.632-3.532-1.107-4.63 1.046.22 1.827.644 2.39 1.217zm12.693.923c2.7 1.48 2.132 5.65 1.384 8.792-.693 2.912-1.075 3.12-1.573 3.394-.166.09-.346.19-.554.398-.26.26-.448.655-.635 1.046-.29.6-.577 1.2-1.122 1.266-.415.052-.785-.001-1.13-.193 3.608-2.56 3.924-10.868 3.63-14.703zm-2.5 14.896v1.387l-1.387.74 1.387-2.127zm-16.555.093l1.387-2.127v1.387l-1.387.74z" fill="#000"/><g fill="#fff"><ellipse opacity=".3" cx="19.505" cy="9.101" rx="1.307" ry="2.289" transform="rotate(29.583 19.505 9.101)"/><ellipse opacity=".3" cx="13.817" cy="3.829" rx="1.307" ry="2.289" transform="rotate(29.583 13.817 3.829)"/><ellipse opacity=".3" cx="10.772" cy="11.392" rx="1.307" ry="2.289" transform="rotate(29.583 10.772 11.392)"/><ellipse opacity=".3" cx="4.467" cy="7.81" rx="1.307" ry="2.289" transform="rotate(29.583 4.467 7.81)"/></g><g fill="#181d23"><path d="M41.785 51.682l-7.13-3.698-3.623-1.596c-1.13-.467-2.298-1.012-3.506-1.05-2.142-.117-3.584 1.674-3.584 3.737-.04 2.258 1.675 4.205 3.155 5.723 3.39 3.465 7.674 5.88 11.92 8.137 2.22 1.168 4.48 2.492 6.895 3.115.935.234 2.065.35 2.922-.234.818-.584 1.13-1.596 1.013-2.57-.156-1.324-1.052-2.453-1.83-3.504-.818-1.1-1.675-2.14-2.57-3.153a53.1 53.1 0 0 0-6.233-5.957c-.4-.31-.935.234-.545.545 3.545 2.842 6.778 6.2 9.388 9.89.623.856 1.247 1.908 1.013 2.998-.234 1.13-1.285 1.48-2.337 1.324-1.09-.156-2.142-.623-3.155-1.1-1.052-.467-2.104-1.012-3.116-1.557-3.857-2.025-7.79-4.127-11.102-7.008-1.597-1.363-3.35-2.998-4.207-4.944-.7-1.635-.506-4.166 1.558-4.672 1.247-.312 2.532.273 3.662.74a65.01 65.01 0 0 1 3.779 1.635c2.493 1.168 4.947 2.414 7.324 3.776.35.35.74-.312.312-.584z"/><path d="M23.36 48.645c-.312 6.385-.74 12.77-.623 19.193 0 .506.78.506.78 0-.156-6.385.312-12.808.623-19.193.04-.506-.74-.506-.78 0zM48.602 64.84c-3.7 3.23-7.518 6.268-11.803 8.72-.43.233-.04.934.4.662 4.324-2.453 8.18-5.567 11.96-8.837.4-.35-.156-.895-.545-.545z"/><path d="M32.63 73.833c1.792.428 3.7.623 5.454-.195.468-.195.078-.895-.4-.662-1.52.7-3.272.506-4.83.117-.506-.117-.74.623-.234.74zm-5.687-1.985l4.168 1.557c.467.156.7-.623.195-.74-1.364-.428-2.688-.895-3.974-1.48-.195-.078-.428-.04-.545.156-.117.156-.04.428.156.506zm-4.285-4.866c-.35 1.947 1.325 3.348 2.844 4.166.428.234.818-.428.4-.662-1.17-.623-2.766-1.8-2.493-3.3.04-.195-.04-.428-.273-.467-.195-.04-.43.078-.468.272zm10.48-7.552a6.11 6.11 0 0 0-2.688 2.063c-.312.467-.74 1.1-.74 1.635 0 .584.467.973.974 1.168s1.052.273 1.597.312 1.13.04 1.675-.117c.935-.272 1.714-.934 1.87-1.947.156-.934-.234-2.024-1.247-2.297-.467-.117-.7.623-.195.74.545.156.74.74.7 1.285-.04.662-.506 1.168-1.13 1.402-.818.3-1.792.195-2.6 0-.273-.078-.74-.195-.818-.506-.04-.195.117-.428.195-.584l.35-.584c.545-.818 1.363-1.44 2.298-1.83.195-.078.35-.273.273-.467s-.312-.35-.506-.273zm3.583 1.556c1.558-1.44 4.285-1.207 5.765.273a5.54 5.54 0 0 1 1.558 4.75c-.273 1.557-1.17 2.92-2.18 4.088-.35.4.234.934.545.545 1.83-2.024 3.116-4.75 2.18-7.514-.623-1.83-2.026-3.27-3.895-3.737-1.558-.4-3.272-.078-4.48 1.012-.428.4.117.934.506.584z"/><path d="M43.227 61.843c-.04.078-.04.078-.078.117.04-.04 0-.04.04-.04-.117 0-.195-.04-.312-.078-.312-.117-.584-.312-.896-.467-.623-.312-1.324-.623-1.948-.156-.74.545-1.17 1.518-1.363 2.414-.078.428-.156.895-.04 1.363.117.506.506.973.428 1.518-.156.973-1.636 1.246-2.415 1.363-.506.078-.273.818.195.74.896-.117 1.948-.39 2.57-1.13.312-.35.467-.818.428-1.324-.078-.545-.428-.973-.467-1.518-.078-.895.35-1.986.974-2.647.234-.234.4-.31.7-.195.35.117.662.273.974.467.545.312 1.558.818 1.91-.04.195-.467-.468-.856-.7-.39z"/><path d="M36.215 66.982c-.35.4-.467.973-.273 1.44.078.234.234.467.428.662a1.43 1.43 0 0 0 .779.35c.195.04.4-.195.4-.4 0-.233-.156-.35-.4-.4.156 0 0 0-.04 0h-.04c.078.04.078.04.04 0h-.04c-.04 0-.078-.04-.117-.078.04.04-.078-.04 0 0l-.118-.118c.04.078-.078-.078 0 0l-.04-.04c-.04-.04-.04-.078-.078-.117 0 0 0-.04-.04-.04 0 .04.04.117 0 0 0-.04-.04-.078-.04-.117v-.078c0 .078 0-.117 0 0v-.35c0-.04.04-.078 0 .04.04-.04.04-.078.078-.117s.04-.04 0 0c0 0 .04-.04.04-.078.156-.156.156-.4 0-.545-.156-.195-.4-.195-.545-.04zm2.92-7.748c-.545-1.012-1.52-2.102-2.766-1.947-.662.078-1.285.506-1.753.973-.467.506-.78 1.13-.78 1.83 0 .506.78.506.78 0s.234-.973.584-1.324.818-.662 1.285-.7c.896-.078 1.597.857 1.987 1.557.234.428.896.04.662-.4z"/><path d="M36.487 57.52c-1.17-1.1-2.922-1.48-4.48-1.05-.7.195-1.44.584-2.065.895-.662.35-1.13.818-1.52 1.44-.273.428.4.818.662.4a3.11 3.11 0 0 1 1.286-1.168c.546-.273 1.17-.623 1.753-.78 1.285-.4 2.805-.117 3.78.817.4.35.935-.195.584-.545zm-12.504 4.673c-.935 1.83-1.286 3.776-1.247 5.8 0 .506.78.506.78 0-.04-1.908.273-3.698 1.13-5.4.234-.467-.428-.856-.662-.4z"/><path d="M29.982 57.444c-1.247.117-2.376.584-3.35 1.363-.156.117-.117.428 0 .545.156.156.4.117.545 0 .78-.623 1.792-1.05 2.805-1.13a.39.39 0 0 0 .39-.389c0-.195-.156-.428-.4-.4zm1.128-.4a9.93 9.93 0 0 1 1.052-3.62 2.94 2.94 0 0 0-.545.156c.584.428.7 1.285.273 1.87-.117.156-.04.428.156.545s.428.04.545-.156c.662-.934.35-2.297-.545-2.92-.156-.117-.428-.04-.545.156a11.95 11.95 0 0 0-1.17 4 .42.42 0 0 0 .39.389c.234-.04.35-.234.4-.428z"/><path d="M27.372 58.7c-.623-.4-1.363-.467-2.065-.3-.662.156-1.44.623-1.636 1.285-.117.428.04.856.117 1.285l.312 1.35.623 2.764c.078.4.662.35.74 0a12.3 12.3 0 0 0 .351-5.061l-.584.428 1.17.74c.428.273.818-.4.4-.662l-1.17-.74c-.312-.195-.623.117-.584.428.234 1.557.078 3.153-.35 4.672h.74l-1.013-4.477c-.078-.35-.078-.584.195-.856.195-.195.428-.312.7-.4.545-.156 1.13-.117 1.636.195.467.273.857-.4.428-.662zm-1.675 21.1c1.48-1.1 3.74-.78 4.947.623.818.895.935 2.18.818 3.348-.078.623-.273 1.207-.195 1.83.078.545.273 1.1.467 1.635.156.467.935.272.74-.195-.156-.467-.35-.934-.428-1.4-.078-.506.078-1.05.156-1.557.156-1.1.078-2.258-.4-3.3-.7-1.44-2.337-2.297-3.934-2.375a4.08 4.08 0 0 0-2.57.78c-.43.234-.04.934.4.623z"/><path d="M22.58 75.936c-.78-.7-1.87-.973-2.883-.662-1.052.312-1.714 1.207-2.065 2.22-.74 2.102-.195 4.477.974 6.307 2.727 4.243 8.025 5.295 12.738 4.983 1.753-.117 3.623.156 5.337.467a.42.42 0 0 0 .506-.389c.04-.623.078-1.363-.273-1.908-.078-.156-.234-.272-.35-.35-.04-.04-.078-.04-.117-.078s.117.195.04.04c-.04-.078-.117-.195-.195-.234-.545-.584-1.402-.428-2.104-.4-.4.04-.78.04-1.17.117-.35.078-.662.233-1.013.4-.467.195-.04.895.4.662.623-.272 1.1-.35 1.753-.428.623-.078 1.208-.195 1.675.273.156.156.312.195.4.35.273.4.195 1.05.156 1.518l.506-.4a36.82 36.82 0 0 0-4.636-.506c-.7-.04-1.402.04-2.065.078a18.09 18.09 0 0 1-3.545-.234c-2.104-.35-4.207-1.13-5.843-2.608-1.48-1.363-2.6-3.23-2.727-5.256-.078-1.13.117-2.414.857-3.3.78-.895 2.182-.973 3.077-.156.4.4.935-.156.584-.506zm.117-6.073c-1.17.973-.662 3.076.74 3.504.195.078.428-.078.467-.272s-.078-.428-.273-.467c-.04 0-.078-.04-.117-.04s-.04 0 .04 0c0 0-.04 0-.04-.04-.04-.04-.117-.078-.156-.078.04.04-.078-.04 0 0l-.078-.078c-.04-.04-.078-.078-.117-.156.04.078 0 0 0-.04s-.04-.04-.04-.078c-.04-.078-.078-.117-.117-.195.04.078 0 0 0-.04s-.04-.078-.04-.078c-.04-.078-.04-.117-.04-.195v-.078c0-.04 0-.04 0 .04v-.4c0-.078.04-.117.04-.195 0-.04 0-.078.04-.078 0-.04.04-.078 0-.04.04-.078.078-.117.117-.195 0-.04.04-.04.04-.078l.156-.156a.38.38 0 0 0 0-.545c-.234-.195-.467-.156-.623-.04z"/><path d="M21.957 71.8c-.584.428-1.052 1.05-1.44 1.674-.35.623-.662 1.363-.7 2.063 0 .506.78.506.78 0v-.195c0-.078 0 .078 0-.04 0-.04 0-.078.04-.117l.117-.467c.117-.3.234-.584.428-.895.156-.272.35-.545.545-.818.117-.117.195-.234.312-.35l.156-.156c.04-.04.078-.04.078-.078.078-.04-.04 0 .04-.04.156-.117.273-.35.156-.545-.078-.078-.312-.195-.506-.04zm15.387 4.788l.04 4.866-.4 4.866c-.04.506.74.506.78 0l.4-4.866c.078-1.635.04-3.23-.04-4.866-.04-.506-.818-.506-.78 0zm.78-2.18c.662 1.87 1.286 3.776 1.636 5.762.35 2.063.4 4.166.4 6.268 0 .506.78.506.78 0 0-2.102-.04-4.244-.4-6.346-.35-2.024-.974-3.97-1.636-5.878-.195-.467-.935-.273-.78.195z"/><path d="M40.578 87.03c.234-.078.428-.156.662-.117.117 0 .117 0 .234.04.04 0 .078.04.156.04 0 0 .078.04.04 0 .04 0 .04.04.078.04.078.04.156.078.273.156 0 0 .117.078.078.04l.117.117c.078.04.117.117.195.195.04.04.04.078.078.078l.04.04c.04.078.04.04 0 0 0-.078 0 .078 0 0v.195c0 .078-.04.156-.078.273.04-.078 0 0 0 .04 0 0 0 .04-.04.04.04-.04-.04.078 0 0 .117-.04-.04.04 0 0-.04 0-.04.04-.078.04-.078.04-.117.078-.195.117-.117.04-.156.078-.273.117s-.195.078-.312.078h-.078c.04 0-.078 0 0 0h-.623c.04 0-.04 0-.04 0h-.117l-.818-.156c-.195-.04-.428.04-.467.273-.04.195.078.428.273.467.545.078 1.052.234 1.597.195a2.27 2.27 0 0 0 .74-.117c.273-.078.623-.234.857-.428.156-.156.234-.39.312-.584.04-.234.117-.467.04-.7s-.234-.39-.4-.584c-.156-.156-.35-.35-.545-.467-.584-.35-1.285-.39-1.91-.156-.195.078-.35.273-.273.467.04.195.273.35.467.272z"/><path d="M37.695 87.07c.234-.078.428-.156.662-.117a.49.49 0 0 1 .234.039c.04 0 .078.04.156.04 0 0 .078.04.04 0 .04 0 .04.04.078.04a2.24 2.24 0 0 1 .273.156s.117.078.078.04l.117.117c.078.04.117.117.195.195.04.04.04.078.078.078l.04.04c.04.078.04.04 0 0 0-.078 0 .078 0 0v.195c0 .078-.04.156-.078.273.04-.078 0 0 0 .04 0 0 0 .04-.04.04.04-.04-.04.078 0 0 .117-.04-.04.04 0 0-.04 0-.04.04-.078.04-.078.04-.117.078-.195.117-.117.04-.156.078-.273.117s-.195.078-.312.078h-.078c.04 0-.078 0 0 0h-.623c.04 0-.04 0-.04 0h-.117l-.818-.156c-.195-.04-.428.04-.467.273-.04.195.078.428.273.467.545.078 1.052.234 1.597.195a2.29 2.29 0 0 0 .74-.117c.273-.078.623-.234.857-.428.156-.156.234-.4.312-.584.04-.234.117-.467.04-.7s-.234-.4-.4-.584c-.156-.156-.35-.35-.545-.467-.584-.35-1.286-.4-1.9-.156-.195.078-.35.273-.273.467.04.195.234.35.467.272zm-3.428-.272c.545-.272.974-.7 1.363-1.207l.467-.623c0-.04.04-.04.04-.078.04-.04.078-.117.117-.156.078-.078.156-.195.273-.273a.38.38 0 0 0 0-.545c-.156-.156-.4-.156-.545 0-.4.35-.662.78-.974 1.168 0 0 0 .04-.04.04.04-.04.04-.04 0 0l-.078.078c-.04.04-.078.078-.117.156-.078.117-.195.195-.273.272-.04.04-.117.078-.156.156l-.078.078c.078-.04-.04 0-.04.04-.117.078-.273.195-.4.234-.195.078-.234.35-.156.545.156.156.4.195.584.117zm-16.984-8.293c-1.013.35-2.142.117-3-.545-.818-.623-1.44-1.8-.974-2.803.195-.428.623-.662 1.1-.623.4.04.78.272.74.74-.078.506-.662.895-1.13 1.012s-.974-.04-1.402-.273c-.974-.584-1.52-1.8-1.17-2.88.156-.467-.584-.662-.74-.195-.467 1.363.195 2.842 1.363 3.62 1.17.817 3.077.662 3.7-.78.273-.662.078-1.4-.506-1.8-.545-.35-1.286-.3-1.83-.04-1.44.78-1.1 2.842-.273 3.932 1.013 1.285 2.805 1.87 4.363 1.363.467-.156.273-.895-.234-.74zM7.505 11.427c-.117 1.83 0 3.66.4 5.45.312 1.596.818 3.192 1.792 4.516.896 1.207 2.298 2.102 3.818 2.102 1.402 0 2.65-.818 3.545-1.87 1.987-2.414 2.922-6.034 2.22-9.07-.623-2.647-2.96-5.295-5.843-5.256-2.493.078-5.648 1.324-5.92 4.127-.04.506.74.506.78 0 .195-2.18 2.65-3.076 4.52-3.27 2.532-.273 4.714 1.635 5.493 3.97.935 2.686.234 5.88-1.286 8.254-.662 1.05-1.636 2.063-2.883 2.336-1.402.273-2.766-.467-3.662-1.518-1.052-1.207-1.52-2.842-1.83-4.4-.4-1.752-.506-3.543-.4-5.334.078-.506-.7-.506-.74-.04z"/><path d="M12.335 23.573l-.974 1.674c-.117.234.04.623.35.584.896-.117 1.792-.3 2.688-.623.195-.078.312-.273.273-.467-.117-.545-.467-1.012-.974-1.246-.195-.078-.43-.04-.545.156-.117.156-.04.428.156.545.35.156.545.428.623.78.078-.156.195-.3.273-.467-.78.273-1.675.506-2.454.584l.35.584.974-1.674c.117-.195.04-.428-.156-.545-.234-.117-.467-.078-.584.117zm4.792-14.17c.78-1.285 1.9-2.608 3.428-2.998s2.922.506 3.74 1.752c1.792 2.725.584 5.956-.78 8.565-.818 1.596-1.792 3.076-2.688 4.633-.234.428.428.818.662.4 1.714-3.037 4.012-6.073 4.44-9.616.195-1.635-.156-3.27-1.13-4.633-.935-1.285-2.376-2.18-4.012-1.947-1.9.273-3.4 1.83-4.324 3.426-.273.467.428.856.662.428z"/><path d="M21.723 21.043c-1.48-.234-2.805-1.285-3.272-2.725-.078-.195-.273-.31-.467-.272s-.35.272-.273.467c.584 1.674 2.065 2.998 3.818 3.27.195.04.428-.04.467-.273.04-.195-.078-.428-.273-.467z"/><path d="M20.983 21.16l-1.9 2.258c-.117.117-.156.273-.078.428.078.117.195.234.35.234 1.13-.078 2.26-.428 3.194-1.05.273-.156.234-.623-.078-.7-.35-.078-.623-.273-.857-.545a.38.38 0 0 0-.545 0c-.156.156-.117.4 0 .545.312.4.74.623 1.207.74-.04-.234-.078-.467-.078-.7a6.01 6.01 0 0 1-2.805.934c.078.234.195.428.273.662l1.9-2.258c.117-.156.156-.4 0-.545-.195-.117-.467-.156-.584 0zm-.233-15.7C21.256 2.862 19.152.4 16.58.137c-2.6-.273-5.337 1.44-6.077 3.97-.4 1.285-.234 2.725.78 3.66.35.35.935-.195.545-.545-.974-.895-.896-2.297-.4-3.426.584-1.285 1.753-2.22 3.078-2.647 1.363-.428 2.922-.3 4.05.584 1.052.818 1.675 2.18 1.44 3.504-.078.506.662.7.74.234z"/><path d="M11.167 5.743c-.584-1.13-2.22-1.557-3.35-1.79-1.636-.31-3.155.078-4.44 1.168-2.65 2.258-3.038 6.268-1.83 9.343.78 1.947 2.065 3.62 3.545 5.06.35.35.896-.195.545-.545-2.298-2.18-4.168-5.1-4.012-8.37.117-2.842 2.22-6.385 5.493-5.995.623.078 1.285.234 1.87.467.545.195 1.208.506 1.48 1.012.273.467.935.078.7-.35z"/><path d="M5.012 19.836c-.04.04-.04.04 0 0 0 .078 0 .117-.04.156 0 .078-.04.156-.04.195-.04.078-.04.156-.078.195 0 0 0 .04-.04.04.04-.04.04-.04 0 0 0 .04-.04.078-.04.117l-.234.4c-.04.04-.04.078-.078.078.078-.078 0 0-.04.04s-.078.117-.156.156c-.117.117-.156.273-.078.428s.195.234.35.234c.623.04 1.324-.04 1.83-.506.428-.428.428-1.168.04-1.635-.195-.273-.545-.4-.896-.3-.195.04-.35.273-.273.467s.273.3.467.273h.04c.078 0-.078-.04-.04 0h.078c-.078 0-.078-.04-.04-.04h.04l.04.04c.04.04-.04-.04-.04-.04v.04s.04.04.04.078c-.04-.078 0 0 0 .04s.04.078.04.117c0 .078 0-.117 0-.04v.195c0 .078 0-.04 0-.04s-.04.117-.04.156c0 .078.04-.078 0-.04 0 0 0 .04-.04.04 0 0 0 .04-.04.04l.04-.04-.156.156s.078-.04.04-.04c0 0-.04 0-.04.04-.04.04-.117.078-.156.078.078-.04-.078.04 0 0-.04 0-.04 0-.078.04-.078.04-.117.04-.195.04-.04 0-.078 0-.117.04.078 0 0 0-.04 0H4.42c.078.233.195.428.273.662a3.13 3.13 0 0 0 .896-1.869.42.42 0 0 0-.117-.273.42.42 0 0 0-.273-.117c-.117 0-.195.04-.273.117.117.117.078.195.078.3zm8.024 6.15c1.558 12.263 2.104 24.644 1.636 36.985a191.36 191.36 0 0 1-.662 10.55c-.04.506.74.506.78 0a221.7 221.7 0 0 0 .078-37.024c-.273-3.504-.662-7.008-1.1-10.5-.04-.467-.818-.506-.74 0z"/><path d="M5.635 21.9l3.78 20.283 3.39 20.244 1.753 11.524c.078.506.818.273.74-.195l-3.194-20.36L8.557 33.19l-2.18-11.446c-.078-.545-.818-.35-.74.156z"/><path d="M20.516 23.496L15.023 75.47c-.04.506.74.506.78 0l5.493-51.973c.078-.506-.7-.506-.78 0zm17.57 58.63c.312.973.623 1.908.78 2.92l.584 2.647c.117.467.896.273.74-.195l-.584-2.647c-.195-.973-.468-1.947-.78-2.92-.117-.506-.896-.312-.74.195z"/><path d="M34.9 77.298c.896 3.154 1.208 6.346 1.013 9.655-.04.506.74.506.78 0a30.02 30.02 0 0 0-1.052-9.85c-.117-.506-.857-.312-.74.195zm3.262 5.606c.312-.428.545-.856.818-1.324s.545-.973.623-1.518c.04-.195-.195-.4-.4-.4-.234 0-.35.195-.4.4 0-.156 0 0 0 .04s-.04.078-.04.156c0 .04-.04.117-.04.156-.04.078.04-.04 0 .04 0 .04-.04.04-.04.078a7.27 7.27 0 0 1-.39.779c-.234.428-.467.856-.78 1.246-.117.156-.04.428.156.545.156.078.35 0 .468-.195zm-5.064-22.15c-.078-.04-.195-.078-.273-.078-.117 0-.195.04-.273.078-.156.117-.273.273-.273.467 0 .156.078.273.195.35l.04.04c.078.04.117.078.195.078.117.04.234.078.35.078.273.04.545-.117.662-.35.117-.195.117-.467 0-.7-.04-.04-.078-.117-.117-.156a.54.54 0 0 0-.156-.117c-.078-.04-.156-.078-.273-.078-.078 0-.195.04-.273.078s-.156.156-.195.234 0 .233.04.3a.4.4 0 0 0 .234.195c.117.04.195 0 .312-.04h.04c-.04 0-.078.04-.078.04h.04-.156c-.04 0-.078-.04-.078-.04s.04 0 .04.04l-.118-.118c0 .04.04.04.04.078 0-.04-.04-.078-.04-.078 0 .04.04.04.04.078v-.078c0-.04.04-.078.04-.078s0 .04-.04.04l.117-.117c-.04 0-.04.04-.078.04.04 0 .078-.04.078-.04-.04 0-.078.04-.117.04h.078c-.078 0-.156-.04-.195-.078.04 0 .078.04.078.04-.04-.04-.117-.04-.156-.078.078.117.117.234.195.35v-.04.078c0 .04-.04.078-.04.078s0-.04.04-.04l-.117.117s.04 0 .04-.04c-.04 0-.078.04-.078.04h.04-.156c-.04 0-.078-.04-.078-.04.04.04.078.04.156.04h.156c.078-.04.195-.078.234-.195.04-.078.078-.195.04-.312 0 .04-.078-.078-.156-.117zm2.3-1.87c0 .156.078.273.195.35.04.04.078.04.156.078a.36.36 0 0 0 .195.04.97.97 0 0 0 .312.039c.078 0 .195 0 .273-.04l.234-.117c.078-.078.117-.195.117-.3 0-.156-.078-.273-.156-.4-.078-.078-.156-.195-.234-.272-.04-.04-.117-.078-.156-.117-.117-.04-.156-.078-.273-.078s-.195.04-.273.078-.156.117-.234.195c0 0-.04.04-.04.078-.04.04-.04.117-.078.156 0 .078-.04.195-.04.3a.42.42 0 0 0 .39.389c.117 0 .195-.04.273-.117l.078-.078c.04-.078.04-.117.04-.195v-.04.117c0-.078.04-.156.04-.234 0 .04-.04.078-.04.078 0-.04.04-.04.04-.078l-.116.116s.04 0 .04-.04c-.04 0-.078.04-.078.04h.04-.117c-.04 0-.078-.04-.078-.04.04 0 .078.04.117.078l-.078-.078c.078.04.117.117.195.195l-.078-.078c.04.04.078.078.078.156 0-.04-.04-.078-.04-.078v.04-.156c0-.04.04-.078.04-.078l.156-.156h-.04c.04 0 .078-.04.078-.04h-.078a.75.75 0 0 1-.312-.078c.04 0 .078.04.078.04s-.04 0-.04-.04l.156.156c0 .04.04.078.04.078v.117c0-.117-.04-.195-.117-.272a.42.42 0 0 0-.273-.117c-.117 0-.195.04-.273.117a.35.35 0 0 0-.117.272z"/><path d="M31.774 55.03l-.117 1.518a.42.42 0 0 0 .39.389c.234 0 .4-.156.4-.4l.117-1.518a.42.42 0 0 0-.39-.389c-.234.04-.35.195-.4.4zm5.026 7.007c.545-.934 1.48-1.596 2.493-1.87l-.468-.467c-.04.195-.195.35-.35.467a2.62 2.62 0 0 0-.545.584c-.273.506-.156 1.168.428 1.363v-.74c-.195.04-.4.078-.584.04-.273-.04-.506.35-.35.584.04.078.04.078.04.156l.584-.35c-.4-.195-.818-.273-1.246-.195a2.13 2.13 0 0 0-.545.195c-.04 0-.195.156-.195.117h.078c.078.04.156.078.156.156.04.078-.04.233-.117.272-.078 0-.117.04-.195.04h-.04c.195.04.428-.04.467-.273.04-.195-.078-.428-.273-.467-.35-.078-.662.195-.584.584a.56.56 0 0 0 .74.467c.273-.078.467-.273.74-.3.195-.04.428 0 .623.117.273.117.584-.04.584-.35 0-.195-.04-.4-.156-.545l-.35.584c.273 0 .545 0 .78-.078.156-.04.273-.195.273-.4s-.117-.312-.273-.4c.04.04.04.04 0 0v.04s-.04-.117 0-.04v-.04c0-.156.117-.273.273-.4.312-.272.662-.545.78-1.012a.39.39 0 0 0-.468-.467c-1.246.3-2.298 1.13-2.96 2.22-.273.428.4.818.662.4zM22.892 69.2c0 .117 0 .234-.04.35v-.117a5.19 5.19 0 0 1-.195.74c0-.04.04-.078.04-.078l-.117.234c-.078.195-.04.428.156.545.195.078.428.04.545-.156.234-.467.4-.973.4-1.518a.42.42 0 0 0-.389-.389.39.39 0 0 0-.39.389zm9.232 6.152c2.065.35 4.168.428 6.233-.156.467-.117.273-.895-.195-.74-1.9.545-3.895.506-5.804.156-.506-.078-.7.662-.234.74z"/><path d="M26.086 73.366c1.402.74 2.922 1.246 4.48 1.635.468.117.7-.623.195-.74-1.48-.4-2.96-.857-4.285-1.557-.428-.234-.818.428-.4.662zm-3.272-2.803c.545.78 1.247 1.44 2.026 2.024.156.117.428.04.545-.156s.04-.4-.156-.545c-.04-.04-.078-.078-.117-.078l-.04-.04c.04.04-.04-.04-.04-.04-.078-.078-.156-.117-.234-.195l-.467-.428-.428-.467-.117-.117c0-.04-.04-.04-.04-.078l-.04-.04c.04.04-.04-.04-.04-.04 0-.04-.04-.04-.04-.078a.54.54 0 0 1-.117-.156c-.117-.156-.35-.273-.545-.156-.195.156-.312.4-.156.584z"/><path d="M38.084 72.977c0 .078 0 .078-.04.117 0 .078-.04.117-.04.195l-.117.35c0 .04-.04.04-.04.078 0 0 0 .04-.04.04.04-.04.04-.078 0-.04s-.04.117-.078.156c-.078.117-.117.234-.195.35-.117.156-.04.428.156.545s.428.04.545-.156c.35-.506.545-1.1.623-1.713a.42.42 0 0 0-.39-.389c-.117 0-.195.04-.273.117-.078.156-.117.234-.117.35zm-12.27-2.842c-.195.7-.506 1.363-.935 1.947-.156.195-.312.35-.273.584a1.34 1.34 0 0 0 .234.467c.234.233.545.3.78.506.117.078.4.078.467-.078a9.12 9.12 0 0 0 1.013-1.674c.156-.272.273-.545.4-.856a.65.65 0 0 0-.195-.779c-.195-.156-.4-.273-.623-.35a1.24 1.24 0 0 0-.545-.117c-.195.04-.4.156-.4.4 0 .195.195.428.4.4h.078c-.078 0 .078 0 0 0 .078 0 .156.04.195.04 0 0 .117.04.078.04s.04.04.078.04l.234.117s.04 0 .04.04 0-.117 0-.04c0-.078 0-.117 0 0 0 .04-.04.078-.04.117s0 .04-.04.078c0 0-.04.078 0 .04s0 .04-.04.04c0 .04-.04.078-.04.078-.078.117-.117.273-.195.4l-.428.818c-.078.156-.156.272-.273.428-.04.04-.078.117-.117.156 0 .04-.04.04-.04.078.04-.04-.04.078 0 0 .156-.04.312-.04.467-.078-.156-.117-.312-.195-.506-.273-.04 0-.078-.04-.078-.078.078.04 0 0-.04-.04s-.04-.04 0 0v-.04c0 .04 0 .04 0 0v-.078l-.117.4c.584-.74 1.052-1.596 1.285-2.492.04-.506-.7-.7-.818-.195zM31.2 72.5l-.35 1.13c-.078.195-.117.4-.195.545-.078.195-.156.428-.078.662.078.3.35.428.623.545.04.04.117.04.156.078.04 0 .04 0 .078.04s.04 0 0 0c.04.04.078.04.117.078-.04-.04.078.04 0 0-.04-.078.04.04 0 0 .156.272.623.234.7-.078.117-.584.312-1.13.506-1.674l.234-.818c.078-.3.117-.623-.195-.817-.195-.117-.428-.117-.623-.117s-.4.04-.584.117-.35.272-.273.467c.04.195.273.35.468.273.04 0 .117-.04.156-.04s.078 0 .117-.04h.04c-.04 0 .078 0 0 0h.273c.04.04.04 0 0 0-.04-.078.04.04-.04-.04l-.078-.078c-.04-.04-.04-.117-.04-.156v.04c0 .04 0-.04 0-.04-.04.078-.04.195-.04.273l-.506 1.674c-.078.234-.156.467-.195.7a4.19 4.19 0 0 1 .7-.078c-.156-.234-.35-.35-.623-.428-.04 0-.078-.04-.117-.04s-.04-.04-.078-.04c.04.04.04 0 0 0-.04-.04-.078-.04-.117-.078.04.04.04.04 0 0 .04.078-.04-.04 0 0 0 0 .04.117 0 .117l.04-.117c.04-.078.04-.195.078-.272l.156-.506.35-1.05c.078-.195-.078-.428-.273-.467-.117-.117-.312 0-.4.234zm-25-52.547a10.07 10.07 0 0 0 2.571-2.725c.117-.195.04-.428-.156-.545s-.43-.04-.545.156c-.623.934-1.44 1.8-2.298 2.453-.156.117-.273.35-.156.545.156.156.4.234.584.117zm27.425 67.623a3.68 3.68 0 0 0 3.194.195.16.16 0 0 0 .117-.233c-.04-.078-.156-.195-.234-.117-.935.4-1.987.35-2.883-.156-.234-.156-.428.156-.195.3z"/><use xlink:href="#C"/><path d="M11.75 9.947c-.584.545-.896 1.363-.857 2.18 0 .117.078.195.195.195s.195-.078.195-.195c-.04-.7.195-1.4.74-1.908.195-.156-.078-.428-.273-.272z"/><use xlink:href="#D"/><path d="M9.92 11.738c.467.117.974.078 1.402-.04.117-.04.156-.156.117-.234-.04-.117-.156-.156-.234-.117-.4.117-.818.117-1.208.04-.117-.04-.195.04-.234.117 0 .078.078.195.156.234z"/><use xlink:href="#E"/><use xlink:href="#F"/><path d="M3.298 7.066a2.1 2.1 0 0 0 1.285.195c.117-.04.156-.156.117-.234-.04-.117-.117-.156-.234-.117H4c-.078 0-.195-.04-.273-.078-.04 0-.04 0-.078-.04H3.6c-.04-.04-.078-.04-.117-.078-.078-.04-.234-.04-.273.078s-.04.234.078.272z"/><use xlink:href="#G"/><use xlink:href="#H"/><use xlink:href="#I"/><use xlink:href="#J"/><use xlink:href="#K"/><use xlink:href="#L"/><use xlink:href="#M"/><use xlink:href="#N"/><use xlink:href="#O"/><path d="M15.296 18.63l1.208 1.83c.04.078.156.117.273.078.078-.04.117-.195.078-.273l-1.208-1.83c-.04-.078-.156-.117-.273-.078s-.156.156-.078.273zm.896-.663c.04 0 .04.04.078.04 0 0 .04 0 .04.04l.35.35s.04.04.04.078c0 0 0 .04.04.04.04.04.078.078.117.156.078.078.117.195.156.3.04.078.195.117.273.078.078-.078.117-.156.078-.273-.234-.428-.545-.818-.974-1.1-.078-.078-.234 0-.273.078-.04 0-.04.117.078.195zm.623-1.13l1.013 1.324c.078.078.195.078.273 0s.078-.195 0-.273l-1.013-1.324c-.078-.078-.195-.078-.273 0s-.04.195 0 .273z"/><path d="M17.127 16.215l.7.7c.078.078.195.078.273 0s.078-.195 0-.273l-.7-.7c-.078-.078-.195-.078-.273 0-.04.078-.078.195 0 .272zm.313-1.207l.818.973c.078.078.195.078.273 0s.078-.195 0-.272l-.818-.973c-.078-.078-.195-.078-.273 0-.078.117-.078.195 0 .272zm.037-.895c.078.04.156.078.195.117l.197.197c.04.04.04.078.078.117 0 0 0 .04.04.04v.04c0 .04.04.078.04.117.04.117.156.156.234.117a.16.16 0 0 0 .117-.234c-.078-.35-.35-.662-.7-.818-.04-.04-.078-.04-.156-.04-.04 0-.078.04-.117.078s-.04.117-.04.156c.04.078.078.117.117.117zm.078-1.13l.623.623c.078.078.195.078.273 0s.078-.195 0-.273l-.623-.623c-.078-.078-.195-.078-.273 0s-.078.195 0 .273zm3.585 7.124l.78.857c.078.078.195.078.273 0s.078-.195 0-.273l-.78-.856c-.078-.078-.195-.078-.273 0-.078.117-.078.195 0 .272zm.36-1.05l.896 1.13c.078.078.195.078.273 0s.078-.195 0-.273l-.896-1.13c-.078-.078-.195-.078-.273 0s-.078.195 0 .273zm.34-.817c.04.04.04.04 0 0 .04.04.078.078.117.078l.35.35c.078.078.156.156.195.234 0 0 0 .04.04.04 0 .04.04.04.04.078.04.04.078.078.078.117.04.078.156.117.273.078.078-.04.117-.195.078-.273-.273-.4-.584-.74-.935-1.012-.04-.04-.117-.04-.156-.04s-.078.04-.117.078c-.078.117-.04.234.04.273zm.273-1.44l1.1 1.324c.078.078.195.078.273 0s.078-.195 0-.273l-1.1-1.324c-.078-.078-.195-.078-.273 0s-.078.195 0 .272zm.623-.78l.818.7c.078.078.195.078.273 0s.078-.195 0-.273l-.818-.7c-.078-.078-.195-.078-.273 0-.078.04-.078.195 0 .272zm.624-.895c.04.04.117.078.156.117l-.04-.04c.117.078.234.195.312.312l-.04-.04c.04.078.078.117.117.195s.195.117.273.078.117-.156.078-.273c-.156-.273-.4-.506-.662-.7-.078-.04-.234-.04-.273.078s0 .234.078.273zm.623-1.012c.04.04.117.04.156.078l-.04-.04c.04.04.117.078.156.156l-.04-.04c.04.04.078.117.117.156 0 .04.078.078.117.078s.117 0 .156-.04.078-.078.078-.117v-.04c0-.04 0-.078-.04-.117a.71.71 0 0 0-.195-.273c-.078-.078-.156-.156-.273-.195-.04-.04-.078-.04-.156-.04-.04 0-.078.04-.117.078s-.04.117-.04.156c.04.117.04.195.117.195zm.273-1.285c.04.04.117.078.156.117l-.04-.04c.117.078.195.195.273.272l-.04-.04c.04.04.04.078.078.117s.078.078.117.078.117 0 .156-.04c.078-.04.117-.156.078-.273a2.09 2.09 0 0 0-.584-.584c-.078-.04-.234-.04-.273.078s0 .234.078.3z"/><use xlink:href="#P"/><path d="M5.285 18.045l.506.506c.078.078.195.078.273 0s.078-.195 0-.273l-.506-.506c-.078-.078-.195-.078-.273 0s-.078.195 0 .273zm.428-.817l.818.818c.078.078.195.078.273 0s.078-.195 0-.273l-.818-.818c-.078-.078-.195-.078-.273 0s-.078.195 0 .273zm.78-.4l.7.7c.078.078.195.078.273 0s.078-.195 0-.273l-.7-.7c-.078-.078-.195-.078-.273 0-.04.078-.078.195 0 .273zM7 15.904l.506.506c.078.078.195.078.273 0s.078-.195 0-.273l-.506-.506c-.078-.078-.195-.078-.273 0-.04.078-.078.195 0 .273zm8.685-8.137c0 .078.04.156.078.234s.078.156.117.195c.078.117.234.195.35.234.04 0 .117 0 .156-.04s.078-.078.078-.117 0-.117-.04-.156-.078-.078-.117-.078h-.04s.04 0 .04.04c-.04-.04-.078-.04-.117-.078l.04.04-.077-.077c-.04-.04-.078-.078-.078-.156 0 0 0 .04.04.04-.04-.04-.04-.078-.04-.156v.04c0-.04 0-.117-.04-.156s-.078-.078-.156-.04c-.04 0-.117 0-.156.04-.04.117-.078.156-.04.195zm.702-.584l.506.818c.04.078.195.117.273.078s.117-.156.078-.272l-.506-.818c-.04-.078-.195-.117-.273-.078s-.117.195-.078.273zm.973-.583l.312.3c.04.04.078.04.156.04.04 0 .117-.04.156-.04.04-.04.078-.078.04-.156 0-.04-.04-.117-.04-.156l-.312-.3c-.04-.04-.078-.04-.156-.04-.04 0-.117.04-.156.04-.04.04-.078.078-.04.156 0 .078 0 .117.04.156zm.507-.935l.78.818c.078.078.195.078.273 0s.078-.195 0-.272l-.78-.818c-.078-.078-.195-.078-.273 0s-.078.195 0 .272zm-.117-1.207c.545.467 1.013 1.012 1.48 1.557.078.078.195.078.273 0s.078-.195 0-.273c-.468-.545-.974-1.05-1.48-1.557-.078-.078-.195-.078-.273 0-.04.078-.078.195 0 .273zm.273-1.478c.428.467.935.856 1.48 1.207.078.04.234 0 .273-.078s0-.195-.078-.273c-.506-.35-.974-.74-1.402-1.168-.156-.156-.428.117-.273.3zm.195-1.052c.234.35.545.623.935.78.04 0 .117 0 .156-.04s.078-.078.078-.117c.04-.117-.04-.195-.117-.234.04 0-.04 0 0 0h-.04c-.04 0-.04-.04-.078-.04-.04-.04-.078-.04-.117-.078s-.078-.04-.117-.078h-.04l-.04-.04c-.078-.04-.117-.117-.195-.195l-.04-.04c.04.04 0 .04 0 0v-.04c-.04-.04-.04-.078-.078-.117-.04-.078-.195-.117-.273-.078-.04.078-.078.195-.04.3zm22.36 69.61v.3c0 .04.04.117.04.156.04.04.078.078.156.04.04 0 .117 0 .156-.04s.04-.078.04-.156v-.3c0-.04-.04-.117-.04-.156-.04-.04-.078-.078-.156-.04-.04 0-.117 0-.156.04s-.04.117-.04.156zm-8.142 14.95c.04.234.195.467.428.623.078.04.234.04.273-.078.04-.078.04-.195-.078-.272l-.078-.078c-.04-.04-.078-.117-.117-.195 0 0 0 .04.04.04 0-.04-.04-.078-.04-.156 0-.04-.04-.078-.078-.117s-.117-.04-.156-.04-.078.04-.117.078c-.078.078-.078.117-.078.195z"/><path d="M32.7 85.708a3.46 3.46 0 0 0 .623.856c.078.078.195.078.273 0s.078-.195 0-.273c-.078-.04-.117-.117-.195-.195-.04-.04-.04-.078-.078-.078l-.04-.04c-.117-.117-.195-.273-.273-.428-.04-.078-.195-.117-.273-.078s-.078.117-.04.234zm.388-1.052c.117.545.4 1.012.78 1.4.078.078.195.078.273 0s.078-.195 0-.272c-.195-.156-.312-.35-.428-.545-.04-.04-.04-.117-.078-.156s-.04-.078-.04-.156l-.117-.35c-.04-.117-.156-.156-.234-.117-.156-.04-.195.078-.156.195z"/><path d="M33.4 84.072l.818 1.324c.04.078.156.117.273.078.078-.04.117-.195.078-.272l-.818-1.324c-.04-.078-.156-.117-.273-.078-.117.078-.156.195-.078.273zm.438-1.012l.935 1.518c.117.195.468 0 .35-.195l-.935-1.518c-.156-.195-.506 0-.35.195zm.662-.7a4.28 4.28 0 0 1 .896 1.48c.04.117.117.156.234.117.078-.04.156-.156.117-.234-.195-.623-.545-1.168-1.013-1.635-.156-.195-.428.117-.234.272zm.74-.896l1.052 1.402c.078.078.156.117.273.078.078-.04.117-.195.078-.272L35.6 81.27c-.078-.078-.156-.117-.273-.078s-.156.156-.078.272zm.624-.78c.35.35.662.7.896 1.168.04.078.195.117.273.078.078-.078.117-.156.078-.273a4.19 4.19 0 0 0-.935-1.246c-.078-.078-.195-.078-.273 0-.117.078-.117.195-.04.273zm2.532-2.025c.156.156.273.35.428.506.04.04.078.04.156.04.04 0 .117-.04.156-.04.04-.04.078-.078.04-.156 0-.04-.04-.078-.04-.156-.156-.156-.273-.35-.428-.506-.04-.04-.078-.04-.156-.04-.04 0-.117.04-.156.04-.04.04-.078.078-.04.156 0 .078 0 .117.04.156z"/><use xlink:href="#P" x="14.26" y="66.182"/><path d="M15.18 84.54l-.74.467c-.078.04-.117.156-.078.273.04.078.195.117.273.078l.74-.467c.078-.04.117-.156.078-.272-.078-.078-.195-.117-.273-.078zm1.246-.078l-1.208.934c-.078.078-.078.195 0 .272s.195.078.273 0l1.208-.934c.078-.078.078-.195 0-.273s-.195-.078-.273 0zm.624.31l-1.246.973c-.078.078-.078.195 0 .273s.195.078.273 0l1.247-.973c.078-.078.078-.195 0-.272s-.195-.078-.273 0zm1.45-.35l-1.83 1.402c-.078.078-.117.156-.078.273.04.078.195.117.273.078l1.83-1.402c.078-.078.117-.156.078-.272-.04-.078-.156-.117-.273-.078zm.34.7c0 .04-.04.04-.04.04 0 .04-.04.04-.04.078l-.234.234c-.04 0-.04.04-.078.04l-.04.04s-.04.04-.04 0c0 0-.04 0-.04.04-.04 0-.04.04-.078.04-.04.04-.117.078-.156.078a1.17 1.17 0 0 1-.312.156c-.078.04-.117.195-.078.273.078.117.156.117.273.078a2.92 2.92 0 0 0 1.208-.973c.078-.078 0-.234-.078-.273-.117 0-.195.04-.273.156zm.663.428c-.35.195-.7.428-.935.74-.078.078-.078.195 0 .273s.195.078.273 0c.117-.156.273-.273.428-.4-.04 0 .04 0 0 0 0 0 .04 0 .04-.04l.04-.04c.04-.04.078-.04.117-.078.078-.04.156-.117.273-.156.078-.04.117-.195.078-.273-.117-.078-.195-.117-.312-.04zm1.44.506a2.47 2.47 0 0 0-.935.74c-.078.078-.078.195 0 .272s.195.078.273 0 .117-.156.195-.195l.156-.156s.04 0 .04-.04c0 0 .04 0 .04-.04l.04-.04c.04-.04.078-.04.117-.078.078-.04.156-.078.273-.156.078-.04.117-.195.078-.272-.078-.078-.195-.117-.273-.04zm.43.622c-.156.156-.312.273-.506.428-.04.04-.04.078-.04.156 0 .04.04.117.04.156.04.04.078.078.156.04.04 0 .078-.04.156-.04.156-.156.312-.272.506-.428.04-.04.04-.078.04-.156 0-.04-.04-.117-.04-.156-.04-.04-.078-.078-.156-.04-.04 0-.078 0-.156.04zm1.052.43l-.468.467c-.04.04-.04.078-.04.156 0 .04.04.117.04.156.04.04.078.078.156.04.04 0 .117 0 .156-.04l.468-.467c.04-.04.04-.078.04-.156 0-.04-.04-.117-.04-.156-.04-.04-.078-.078-.156-.04-.078-.04-.117 0-.156.04zm1.44.544c-.156.117-.35.195-.506.3-.04.04-.078.078-.078.117s0 .117.04.156c.04.078.156.117.273.078.156-.117.35-.195.506-.3.04-.04.078-.078.078-.117s0-.117-.04-.156c-.078-.117-.195-.156-.273-.078zm1.324.312l-.428.3c-.04.04-.078.078-.078.117s0 .117.04.156.078.078.117.078.117 0 .156-.04l.428-.3c.04-.04.078-.078.078-.117s0-.117-.04-.156-.078-.078-.117-.078c-.04.04-.117.04-.156.04zm2.766-.04h-.234c-.078 0-.117.04-.156.078-.078.04-.117.117-.156.156-.04.078-.078.156-.078.233 0 .04.04.117.04.156.04.04.078.078.156.04.04 0 .117 0 .156-.04l.04-.04c0-.04.04-.078.04-.117v.04c0-.04 0-.04.04-.078 0 0 0 .04-.04.04 0-.04.04-.04.04-.078l-.04.04c0-.04.04-.04.078-.078l-.04.04c.04-.04.04-.04.078-.04 0 0-.04 0-.04.04.04 0 .04 0 .078-.04h-.04.078c.04 0 .117 0 .156-.04s.078-.078.078-.117 0-.117-.04-.156c-.117.04-.156 0-.195-.04zm2.064.428l-.312.195c-.04.04-.078.078-.078.117s0 .117.04.156.078.078.117.078.117 0 .156-.04l.312-.195c.04-.04.078-.078.078-.117s0-.117-.04-.156-.078-.078-.117-.078c-.04.04-.078.04-.156.04zm2.494-.273l-.506.506c-.078.078-.078.195 0 .273s.195.078.273 0l.506-.506c.078-.078.078-.195 0-.273-.078-.04-.195-.078-.273 0zm1.87.35c-.273-.04-.545.078-.74.273-.078.078-.078.195 0 .273s.195.078.273 0c0 0 .04-.04.078-.04l-.04.04c.04-.04.117-.078.156-.078 0 0-.04 0-.04.04.078-.04.117-.04.195-.04h-.04.195c.04 0 .117-.04.156-.04.04-.04.078-.078.04-.156 0-.04 0-.117-.04-.156-.078-.078-.117-.117-.195-.117zm6.194-.156l-.818.467c-.078.04-.117.195-.078.272s.156.117.273.078l.818-.467c.078-.04.117-.195.078-.273-.078-.117-.195-.156-.273-.078zm1.48-.04l-.896.623c-.078.04-.117.156-.078.272.04.078.195.117.273.078l.896-.623c.078-.04.117-.156.078-.272-.04-.078-.156-.156-.273-.078zm1.402.195l-.974.662c-.078.04-.117.156-.078.273.04.078.195.117.273.078l.974-.662c.078-.04.117-.156.078-.273-.04-.078-.156-.156-.273-.078zm2.455-.078l-1.48.662c-.078.04-.117.195-.078.272.04.117.156.117.273.078l1.48-.662c.078-.04.117-.195.078-.273-.04-.117-.156-.117-.273-.078zm1.05-.078l-1.208.7c-.078.04-.117.195-.078.273s.156.117.273.078l1.208-.7c.078-.04.117-.195.078-.273-.078-.117-.195-.117-.273-.078z"/><path d="M47.862 88.472l-.818.506c-.078.04-.117.195-.078.273s.156.117.273.078l.818-.506c.078-.04.117-.195.078-.273-.078-.117-.195-.156-.273-.078zm1.83.116l-.312.195c-.04.04-.078.078-.078.117s0 .117.04.156.078.078.117.078.117 0 .156-.04l.312-.195c.04-.04.078-.078.078-.117s0-.117-.04-.156-.078-.078-.117-.078-.117 0-.156.04zM35.67 72.12l.4.506c.04.04.078.078.117.078s.117 0 .156-.04.078-.078.078-.117 0-.117-.04-.156l-.4-.506c-.04-.04-.078-.078-.117-.078s-.117 0-.156.04-.078.078-.078.117c0 .078 0 .117.04.156zm.35-.895l.7 1.13c.04.078.195.117.273.078s.117-.156.078-.273l-.7-1.13c-.04-.078-.195-.117-.273-.078-.078.078-.117.195-.078.272zm.857-.78a3.27 3.27 0 0 1 .662 1.324c.04.117.156.156.234.117.117-.04.156-.156.117-.234-.117-.545-.4-1.05-.78-1.48-.078-.078-.195-.078-.273 0a.24.24 0 0 0 .039.272zm.663-1.128l.896 2.14c.04.078.195.117.273.078.117-.078.117-.156.078-.273l-.896-2.14c-.04-.078-.195-.117-.273-.078-.078.078-.117.156-.078.272zm.856-.584c.35.4.662.856.857 1.324.04.078.117.156.234.117.078-.04.195-.156.117-.234a6.15 6.15 0 0 0-.935-1.518c-.078-.078-.195-.078-.273 0-.078.117-.04.234 0 .3zm.896-1.13l.896 1.947c.04.078.195.117.273.078.117-.04.117-.156.078-.273l-.896-1.947c-.04-.078-.195-.117-.273-.078-.117.04-.117.156-.078.273z"/><path d="M40.032 67.37l.896 1.518c.117.234.468.04.35-.195l-.896-1.518a.201.201 0 0 0-.351.195zm.974-.583l.7 1.4c.04.078.195.117.273.078s.117-.156.078-.273l-.7-1.4c-.04-.078-.195-.117-.273-.078-.117.078-.156.195-.078.272zm1.13-.584l.818 1.012c.078.078.195.078.273 0s.078-.195 0-.273l-.818-1.012c-.078-.078-.195-.078-.273 0-.078.117-.078.195 0 .272zm.896-.233l.506.818c.04.078.195.117.273.078s.117-.156.078-.273l-.506-.818c-.04-.078-.195-.117-.273-.078-.078.078-.156.195-.078.273zm.896-.195a.92.92 0 0 0 .273.623c.078.078.195.078.273 0s.078-.195 0-.272c0-.04-.04-.04-.04-.078l.04.04c-.04-.04-.078-.117-.078-.156 0 0 0 .04.04.04-.04-.078-.04-.117-.04-.195v.04-.078c0-.117-.078-.195-.195-.195-.195.04-.273.117-.273.233zm-17.1-17.325l2.143-.7c.234-.078.117-.467-.117-.4l-2.142.7c-.195.078-.117.467.117.4z"/><path d="M27.294 49.346l1.9-.856c.078-.04.117-.195.078-.273-.04-.117-.156-.117-.273-.078l-1.9.856c-.078.04-.117.195-.078.273.078.117.195.156.273.078zm.078 1.362a8.68 8.68 0 0 0 1.714-.545c.078-.04.156-.117.117-.234-.04-.078-.156-.195-.234-.117-.545.234-1.13.4-1.714.545-.117.04-.156.156-.117.234 0 .078.117.117.234.117zm.078 1.442a14.01 14.01 0 0 0 1.714-.467.16.16 0 0 0 .117-.234c-.04-.078-.156-.156-.234-.117a12.35 12.35 0 0 1-1.714.467c-.117 0-.156.156-.117.234s.156.117.234.117zm.428 1.595l1.52-.3c.117-.04.156-.156.117-.234-.04-.117-.156-.156-.234-.117l-1.52.3c-.117.04-.156.156-.117.234 0 .078.117.117.234.117zm.585 1.012l1.1-.234c.117-.04.156-.156.117-.234-.04-.117-.117-.156-.234-.117l-1.1.234c-.117.04-.156.156-.117.234s.156.156.234.117zm.117 1.13l1.1-.35c.078-.04.156-.156.117-.234-.04-.117-.117-.156-.234-.117l-1.1.35c-.078.04-.156.156-.117.234s.117.156.234.117zm-.156 1.364l1.52-.623c.078-.04.117-.195.078-.273-.078-.117-.156-.117-.273-.078l-1.52.623c-.078.04-.117.195-.078.273.078.117.156.117.273.078zm-14.842-35.7l.584.934c.04.078.195.117.273.078s.117-.156.078-.273l-.584-.934c-.04-.078-.195-.117-.273-.078s-.117.156-.078.273zm.584-.78c.195.506.467.973.818 1.402.078.078.195.078.273 0s.078-.195 0-.273c-.312-.35-.545-.818-.74-1.246-.04-.117-.117-.156-.234-.117-.078.04-.156.156-.117.234zm.584-.895a2.65 2.65 0 0 1 1.013 1.324c.04.117.117.156.234.117.078-.04.156-.156.117-.234-.234-.623-.623-1.168-1.17-1.557-.078-.078-.234 0-.273.078-.04.117 0 .195.078.273z"/></g><g fill="#fff"><use xlink:href="#C"/><path d="M11.75 9.947c-.584.545-.896 1.363-.857 2.18 0 .117.078.195.195.195s.195-.078.195-.195c-.04-.7.195-1.4.74-1.908.195-.156-.078-.428-.273-.273z"/><use xlink:href="#D"/><path d="M9.92 11.738a2.84 2.84 0 0 0 1.402-.039c.117-.04.156-.156.117-.234-.04-.117-.156-.156-.234-.117-.4.117-.818.117-1.208.04-.117-.04-.195.04-.234.117 0 .078.078.195.156.234z"/><use xlink:href="#E"/><use xlink:href="#F"/><path d="M3.298 7.066a2.1 2.1 0 0 0 1.285.195c.117-.04.156-.156.117-.234-.04-.117-.117-.156-.234-.117H4c-.078 0-.195-.04-.273-.078-.04 0-.04 0-.078-.04H3.6c-.04-.04-.078-.04-.117-.078-.078-.04-.234-.04-.273.078s-.04.234.078.273z"/><use xlink:href="#G"/><use xlink:href="#H"/><use xlink:href="#I"/><use xlink:href="#J"/><use xlink:href="#K"/><use xlink:href="#L"/><use xlink:href="#M"/><use xlink:href="#N"/><use xlink:href="#O"/><path d="M24.762 55.808l1.13-.467c.078-.04.117-.195.078-.272-.078-.117-.156-.117-.273-.078l-1.13.467c-.078.04-.117.195-.078.273.078.117.195.156.273.078z"/><path d="M24.84 56.587a7.18 7.18 0 0 1 1.48-.662c.234-.078.156-.428-.117-.4a6.44 6.44 0 0 0-1.597.701c-.156.156.04.506.234.35zm-.623 1.285l2.298-.856a.16.16 0 0 0 .117-.234c-.04-.078-.156-.156-.234-.117l-2.298.856c-.117.04-.156.117-.117.234.04.078.156.156.234.117zm.31.973l1.44-.584c.078-.04.156-.117.117-.233-.04-.078-.156-.195-.234-.117l-1.44.584c-.078.04-.156.117-.117.234 0 .078.117.156.234.117zm-.233 1.05c.662-.312 1.363-.545 2.065-.74.234-.078.156-.428-.117-.4-.74.195-1.44.467-2.143.78-.078.04-.117.195-.078.273.04.117.156.117.273.078zm.233 1.207l1.83-.623a.16.16 0 0 0 .117-.234c-.04-.078-.156-.156-.234-.117l-1.83.623a.16.16 0 0 0-.117.234c0 .078.117.156.234.117zm-.233 1.517c.7-.3 1.402-.584 2.143-.74.234-.04.156-.428-.117-.4-.78.195-1.52.428-2.26.78-.078.04-.117.195-.078.273.078.117.195.156.312.078zm.428.936c.584-.195 1.13-.4 1.675-.662.078-.04.117-.195.078-.272s-.156-.117-.273-.078c-.506.234-1.013.428-1.558.623-.273.078-.156.467.078.4zm-.117 1.362l1.636-.584a.16.16 0 0 0 .117-.234c-.04-.078-.156-.156-.234-.117l-1.636.584a.16.16 0 0 0-.117.234c.04.078.156.156.234.117z"/><path d="M25.074 65.775l1.48-.662c.078-.04.117-.195.078-.272-.04-.117-.156-.117-.273-.078l-1.48.662c-.078.04-.117.195-.078.272.078.078.195.117.273.078zm-.546 1.4c.7-.234 1.402-.506 2.065-.856.234-.117.04-.467-.195-.35a15.16 15.16 0 0 1-1.987.818c-.234.078-.117.467.117.4zm.507.818c.467-.078.935-.272 1.363-.545.078-.078.117-.156.078-.273-.04-.078-.195-.117-.273-.078a2.92 2.92 0 0 1-1.246.506c-.117 0-.156.156-.117.234-.04.156.078.195.195.156zm-.078 1.1l.7-.3c.04 0 .078-.078.078-.117s0-.117-.04-.156-.078-.078-.117-.078-.117 0-.156.04l-.7.3c-.04 0-.078.078-.078.117s0 .117.04.156.078.078.117.078c.078 0 .117-.04.156-.04zm21.58-8.41l.545 1.402c.04.117.117.156.234.117.078-.04.156-.156.117-.234l-.545-1.4c-.04-.117-.117-.156-.234-.117-.078 0-.156.117-.117.234zm-.585.7l.312 1.012c.04.117.156.156.234.117a.16.16 0 0 0 .117-.233l-.312-1.012c-.04-.117-.156-.156-.234-.117-.078 0-.156.117-.117.233zm-.818.584c.195.506.35 1.012.4 1.557 0 .117.078.195.195.195s.195-.078.195-.195c-.04-.584-.195-1.13-.428-1.674-.04-.078-.117-.156-.234-.117-.078.04-.156.156-.117.234z"/></g><defs><linearGradient id="A" x1="36.464" y1="60.75" x2="40.718" y2="68.611" gradientUnits="userSpaceOnUse"><stop stop-color="#2e1911"/><stop offset="1" stop-color="#2e1911" stop-opacity="0"/></linearGradient><linearGradient id="B" x1="35.975" y1="45.76" x2="35.975" y2="73.513" gradientUnits="userSpaceOnUse"><stop stop-color="#fff"/><stop offset="1" stop-color="#b0ffff"/></linearGradient><path id="C" d="M10.933 9.908c-.623.545-1.013 1.402-.935 2.22 0 .234.4.234.4 0-.04-.74.273-1.48.818-1.947.078-.078.078-.195 0-.273s-.195-.04-.273 0z"/><path id="D" d="M9.998 11h1.13c.117 0 .195-.078.195-.195s-.078-.195-.195-.195h-1.13c-.117 0-.195.078-.195.195s.078.195.195.195z"/><path id="E" d="M4.505 6.366c-.7.31-1.247 1.012-1.402 1.79 0 .117.04.195.117.234s.234-.04.234-.117c.117-.7.584-1.246 1.208-1.557.078-.04.117-.195.078-.273-.04-.117-.156-.117-.234-.078z"/><path id="F" d="M4.973 6.52c-.506.467-.896 1.05-1.052 1.752-.04.234.312.35.4.117.156-.623.467-1.168.935-1.557.078-.078.078-.195 0-.272-.078-.117-.195-.117-.273-.04z"/><path id="G" d="M2.908 7.534c.467.273 1.013.467 1.558.545.117 0 .195-.04.234-.117s-.04-.234-.117-.234c-.506-.078-1.013-.234-1.48-.506-.234-.156-.43.195-.195.31z"/><path id="H" d="M14.205 2.434c0-.273-.312-.428-.545-.39-.234.078-.43.31-.623.467-.35.35-.662.78-.896 1.246-.117.234.234.428.35.195.195-.35.43-.662.7-.973.117-.156.273-.272.428-.428.04-.04.117-.117.195-.117h.04c0 .234.39.234.35 0z"/><path id="I" d="M14.283 2.434c-.78.156-1.285.973-1.17 1.752 0 .117.156.156.234.117.117-.04.156-.117.117-.234s0-.273.04-.428.078-.273.195-.39c.156-.234.39-.428.7-.467.117-.04.156-.156.117-.234 0-.078-.117-.156-.234-.117z"/><path id="J" d="M12.608 3.057l1.013.117c.117 0 .195-.078.195-.195s-.078-.195-.195-.195l-1.013-.117c-.117 0-.195.078-.195.195s.078.156.195.195z"/><path id="K" d="M12.18 3.602l1.324.234c.117 0 .195-.04.234-.117s-.04-.234-.117-.234l-1.325-.234c-.117 0-.195.04-.234.117s0 .234.117.234z"/><path id="L" d="M19.23 7.728c-.7.195-1.208.856-1.285 1.557 0 .117.078.195.195.195s.195-.078.195-.195v-.078c0 .04 0-.04 0-.04 0-.04 0-.078.04-.117 0-.04 0-.078.04-.117 0 0 0-.04.04-.04 0 0 .04-.04 0-.04.04-.078.078-.117.117-.195.04-.04.04-.078.078-.117s0-.04.04-.078.078-.117.156-.156l.078-.078c-.04 0 0 0 .04 0l.04-.04c.078-.04.117-.078.195-.117 0 0 .04 0 .04-.04-.04 0 .04 0 .04 0 .04 0 .078-.04.117-.04.195.04.078-.35-.156-.272z"/><path id="M" d="M19.58 7.845c-.428.545-.78 1.13-.974 1.79-.078.234.312.35.4.117.195-.584.467-1.13.857-1.635.078-.078.078-.195 0-.273s-.234-.078-.273 0z"/><path id="N" d="M18.14 8.468c-.04 0 .04 0 .04 0h.584c-.04 0 .04 0 .04 0h.078c.078 0 .195.04.273.078.117.04.234-.04.234-.117.04-.117-.04-.195-.117-.234-.4-.117-.818-.156-1.208-.078-.117 0-.156.156-.117.234 0 .117.078.156.195.117z"/><path id="O" d="M18.295 8.974h.896c.117 0 .195-.078.195-.195s-.078-.195-.195-.195h-.896c-.117 0-.195.078-.195.195s.078.195.195.195z"/><path id="P" d="M24.41 11.738l.195.31c.04.04.078.078.117.078s.117 0 .156-.04.078-.078.078-.117 0-.117-.04-.156l-.195-.31c-.04-.04-.078-.078-.117-.078s-.117 0-.156.04-.078.078-.078.117 0 .117.04.156z"/></defs></svg>