<svg xmlns="http://www.w3.org/2000/svg" width="245" height="250" fill="none"><path opacity=".1" fill-rule="evenodd" d="M18.26 222.187L.062 212.062h66.5l68.5 37h-68.5l-18.198-10.125H33.312l-30-16.75H18.26zm216.053 26.875v-6.08l9.75 6.08h-9.75z" fill="#555a60"/><path d="M211.672 198.307l19.25 15c-8.75.916-26.25 2.9-26.25 3.5v-18.5h7zm-134 4.5h-10.25l30.625 20.25 13.5-17.25-22.125-10.5h-11l-.75 7.5zm110-153.5c7.2 3.2 16.833 9.667 20.75 12.5l-37.5 1.25-51.75-21.75 33-4.5c8.833 2.833 28.3 9.3 35.5 12.5z" fill="#daefff"/><path d="M141.695 111.784v-10.83c1.696-.437 7.78-3.512 18.544-12.308S172.71 66.7 172.22 61.24h35.61l-1.64 70.566c-.525 22.32 1.204 60.94 2.134 77.46l24.78 1.477 1.477 38.237-98.136-.985V210.74c3.282.547 11.39 1.64 17.56 1.64s13.84-1.094 16.903-1.64l1.313-42.01c.263-8.665 2.188-35.776 3.118-48.248h-34.463c.274-1.586.82-5.547.82-8.698z" fill="#7fa2f6"/><path fill-rule="evenodd" d="M150.72 211.725c-9.2.263-13.566-.875-14.606-1.476-1.313-1.04-5.153-3.775-10-6.4-2.398-1.296-5.614-2.672-8.677-3.87 4.494 2.23 10.54 5.31 12.615 6.66 2.626 1.707 4.814 3.446 5.58 4.103l1.3 18.566-1.3 19.18-68.597-36.104v-9.518l27.16 14.277 8.75-2.08-26.72-12.197 1.477-7.057 25.244 11.504 5.772-1.986-19.693-9.518v-9.2l3.023 1.413-3.35-1.74 1.477-107.654 51.366 22.647-1.15 18.38c-.263 1.182 23.303.493 35.12 0l-2.8 39.222-1.477 51.366c-3.008.382-11.323 1.214-20.513 1.476z" fill="#a7caff"/><path d="M113.715 137.303c3.72 1.614 11.7 5.136 13.867 6.318s7.248 4.212 9.518 5.58l-.4 28.308c-3.3-2.024-10.716-6.433-13.867-7.877s-8.206-3.392-10.34-4.185c.137-4.194.492-13.04.82-14.866.205-1.142.205-2.47.205-3.72s0-2.418.205-3.24c.328-1.313.137-4.76 0-6.318zm27.815 12.4c1.942.328 6.745 1 10.42 1.067 1.715.03 3.42-.076 5.065-.18 2.762-.173 5.36-.336 7.57.18 2.823.656 4.404 1.148 4.84 1.313l-.574 27.898c-3.118.328-10.388.886-14.524.492s-10.53-1.75-13.2-2.38l.4-28.4zm0-3.036l.738-22.072c-.492-.22-1.33-.82-.738-1.477l.265-.308c.563-.666.952-1.127 2.525-.84 1.444.262 19.53.875 28.4 1.15l-2.625 25.2-28.555-1.64zm-28.225-13.293v-21.087l24.78 10.523-.985 21.395-23.795-10.83zm-17.743-29.927v36.375l14.875-3.125v-27.125l-14.875-6.125zm-1.375 44.86l-1.75 38 17.093-3.102.907-38.992-16.25 4.103z" opacity=".4" fill="#fff"/><path d="M160.32 89.137C169.25 81.588 172.356 67 172.3 61.65l-55.386-21.252c-.137.71-.575 2.675-1.23 4.84-.82 2.708-4.185 6-12.882 13.375-6.96 5.908-22.374 9.956-29.21 11.24-.246 4.814.574 14.786 5.826 16.165 6.564 1.723 8.04-8.04 8.04-8.616 0-.46.985.465 1.477.985-.71 5.58-1.64 17.297 3.282 19.857s9.354-3.6 10.585-7.057c.11 4.404 2.002 13.8 8.697 16.164s10.066-7.767 10.913-13.128c-.683 6.3-.098 19.3 7.713 21.005s10.64-8.533 11.078-13.867c2.98-1.586 10.19-4.677 19.118-12.226z" fill="#feb103"/><path fill-rule="evenodd" d="M122.412 94.225l.41.082v-.082c27.406-10.83 34.462-27.816 33.022-38.89l-13.165-5.052c.19 1.2.46 4.31 0 7.263-.575 3.692-1.477 6.072-9.436 15.426-7.145 8.397-18.985 12.232-23.885 13.82h-.001l-1.387.458c-2.823.985-3.474.4-3.446 0l-1.722 3.986-.001-.047c-.05.143-.108.3-.17.442l.17-.395c.122 4.423 2.024 13.762 8.696 16.117 6.696 2.363 10.066-7.767 10.913-13.128zm-34.955-16.82c0-.46.985.465 1.477.985 1.723.383 8.025-.164 19.446-5.416 14.278-6.564 22.237-18.872 23.043-21.826.645-2.363.27-4.44 0-5.182l-14.51-5.567c-.137.71-.575 2.675-1.23 4.84-.82 2.708-4.185 6-12.882 13.375-6.96 5.908-22.374 9.956-29.21 11.24-.246 4.814.574 14.786 5.826 16.165 6.564 1.723 8.04-8.04 8.04-8.616z" fill="#fe6869"/><path d="M178.537 55.003V21.115l-53.91-19.693 1.887 36.186 52.022 17.395z" fill="#feb103"/><path d="M133.982 11.433c.82.52 2.43 1.838 2.298 2.954-.04.34-.017.672.005.973.066.93.112 1.573-1.8 1.325-2.544-.328-2.8-1.64-2.38-2.954.328-1.05 1.395-1.97 1.887-2.297zm-6.4 4.513v.227c-.003 1.707-.004 2.242 1.805 2.4.547-.383 1.658-1.444 1.723-2.626s-.395-1.47-1.383-2.088l-.832-.538c-1.367-.935-1.346.337-1.32 1.937l.007.7zm21.58 5.514l-2.872-1.23-1.477 5.416-1.888-6.728-3.856-.903 4.677 18.8 5.416-15.344zm2.87.82l7.385 2.708-.574 5.17-5.334-1.395-.492 2.133 5.826 2.215-.656 3.364-4.678-1.56c-.164.356-.492 1.165-.492 1.56s.93 1.15 1.395 1.477l5.005 1.313v5.744c-.136-.273-.968-1.1-3.2-2.215s-4.43-1.285-5.25-1.23l1.066-19.283zm9.19 7.138l.574-5.17a30.15 30.15 0 0 0 4.513 1.723l7.713 2.626c.328.197.137 3.036 0 4.43l-4.02-.656c0 .848.1 3.25.493 6.072s-.165 7.686-.493 9.764l-4.267-1.477V31.223l-4.512-1.805zm-23.877-13.4c.6.1 2.133.985.656 2.297-.837 0-.725-1.382-.673-2.033l.017-.265zm-3.283 2.642c.028-.164.444.295 1.888 3.446.678 1.48 1.542 2.612 2.33 3.645 1.3 1.716 2.4 3.158 2.102 5.463l-.2 1.752c-.22 2.384-.296 3.228-2.93 2.35-1.668-.556-2.3-1.2-2.88-1.772-.524-.526-.986-1-2.126-1.264-.678-.164-1.3-.167-1.88-.17-1.43-.008-2.47-.014-2.88-2.537-.46-2.823-.2-5.005 0-5.744.055.1.558-.082 2.133-1.723l1.25-1.396c1.085-1.262 1.762-2.05 3.18-2.05z" fill="#4a4a4c"/><g opacity=".4"><path d="M168.28 127.62v-4.924s-8.317 4.388-14.626 10.262-11.98 8.384-11.98 8.384v4.84s9.867-7.322 15.2-10.522 11.406-8.04 11.406-8.04z" fill="url(#A)"/><path d="M171.4 139.026v-6.072l-20.924 15.098 5.64.51c4.78-3.3 12.247-7.486 15.283-9.537z" fill="url(#A)"/><path d="M164.66 153.303v-4.923s-8.317 4.388-14.626 10.262-11.98 8.383-11.98 8.383v4.84s9.867-7.32 15.2-10.52 11.406-8.042 11.406-8.042z" fill="url(#A)"/><path d="M168.763 163.396l-.001-6.072c-2.42 1.727-24.103 19.18-26.83 21.334l5.64.512c4.78-3.302 18.154-13.723 21.19-15.774z" fill="url(#A)"/><path d="M135.367 148.906l-.001-4.923s-8.316 4.387-14.625 10.26-11.98 8.384-11.98 8.384v4.84s9.867-7.322 15.2-10.522 11.406-8.04 11.406-8.04z" fill="url(#A)"/><path d="M138.485 160.31v-6.072l-20.924 15.098 5.64.512c4.78-3.302 12.246-7.486 15.283-9.538z" fill="url(#A)"/><path d="M134.188 122.736v-4.924s-1.2.406-7.51 6.28-12.368 7.027-12.368 7.027v4.84l15.568-9.324c5.334-3.2 4.31-3.9 4.31-3.9z" fill="url(#A)"/><path d="M138.134 132.752v-6.072c-2.42 1.727-12.295 8.996-15.023 11.15l4.88 1.77 10.142-6.848z" fill="url(#A)"/></g><path d="M107.187 178.937c1.9-.7 2.625.29 2.75.875l-.188-5.407c-.156-.427-.593-1.525-1.093-2.5-.625-1.22-1.47-.906-2.907-1.218-1.15-.25-2 .708-2.28 1.218h-2.22c-1.03 0-2.312.97-2.312.344s-.594-.97-1.28-1.72-.53-1.062-1-1.937-.812-.75-1.875-1.063-1.594.406-2.5.75c-.725.275-1.844.906-2.312 1.188 0 .104-.113.387-.562.687s-1.396 1.292-1.812 1.75c.02.26.05 1.27 0 3.22s1.188 3.354 1.813 3.813c-.073.656-.37 2.018-.97 2.218s-.458.792-.312 1.063l-1.937 1.375-2-.75c-.687-.22-1.656.22-2.156.75-.4.425.02.635.28.687.146.104.55.37 1 .594.563.28.28.094 1.563.406 1.025.25 1.302-.708 1.313-1.218l3.5-1h3.5c.208.334 1.65 1 5.75 1 5.125 0 5.875-4.25 8.25-5.125z" fill="#ffd375"/><path d="M90.937 170.06c1.2-.3 2.167.125 2.5.375 1.223.45 1.75 1.376 2.625 3.126s-.375 2-1.375 1.5-2.125.5-3.25.5-2-.625-2.5-1.5-.687-1.313-1.187-1.5.188-1 .5-1.75 1.188-.376 2.688-.75z" fill="url(#B)"/><g fill-rule="evenodd"><path d="M92.687 170.03c.094.02.325-.043.5-.468.056-.137.142-.276.223-.408.233-.378.427-.694-.223-.717-.875-.032-1.156-.032-1.625.343-.375.3-.615.646-.687.782.604.03 1.813.168 1.813.468zm3-.812c-.125-.146-.525-.35-1.125 0-.75.437-1.25.937-1.125 1.187.1.2 1.208 1.042 1.75 1.438a1.08 1.08 0 0 0 .844-.156 2.12 2.12 0 0 1 .267-.158c.172-.088.2-.107.233-.467.03-.5-.344-1.65-.844-1.844z" fill="#fff"/><path opacity=".2" d="M99.937 174.937c-.583 1.04-2.275 3.325-4.375 4.125s-3.708 1.166-4.25 1.25l-5.062-2.563-3.562-3.437c.208-1.625 1.85-5.375 6.75-7.375 6.125-2.5 10.5-4.125 10.5-3.125v11.125zm-12.344.187c.05-1.95.02-2.958 0-3.22.417-.458 1.362-1.45 1.813-1.75s.563-.583.563-.687c.47-.282 1.588-.913 2.313-1.188.278-.105.52-.246.754-.38.528-.306 1.01-.585 1.746-.37a11.75 11.75 0 0 0 .592.155c.623.15.915.22 1.283.908.18.335.267.588.346.814l1.935-1.508c.313.627.875 1.956.625 2.256-.312.375-.906.75-1.906.375a2.64 2.64 0 0 1-.633-1.062l-3.836 3.22c-1.275 1.1-4.26 2.083-5.594 2.437z" fill="#7fa2f6"/></g><path d="M91.187 166.437c.8 0 1.792 1.208 2.188 1.812-.292 0-1 .063-1.5.313s-1.375.77-1.75 1c-.167-.084-.5-.338-.5-.688 0-.437-.375-.625 0-1.312s.563-1.125 1.563-1.125zm6.875 1.375c-.45-.15-1.27.312-1.625.562a17.41 17.41 0 0 0 .625 1.688c.313.687.625.875 1.625.875.8 0 1-.792 1-1.188-.354-.583-1.175-1.787-1.625-1.937z" fill="#3c2d27"/><g fill="#181d23"><path d="M135.547 210.114l.53 14.868c.092 4.956.046 9.935-.115 14.89l-.392 8.344c-.046.76 1.13.76 1.175 0 .277-4.956.438-9.912.438-14.867.023-4.956-.07-9.935-.368-14.89-.162-2.79-.346-5.578-.646-8.345-.023-.39-.645-.414-.622 0z"/><path d="M135.524 248.494c6.454.3 12.908.415 19.362.53l19.363.277 38.518.3 21.736.023c.692 0 .715-1.083 0-1.083-12.908.023-25.816 0-38.725-.092l-38.517-.392-21.714-.184c-.438-.024-.438.6-.023.622z"/><path d="M234.78 249.324c.16-.577.184-1.2.208-1.798l.046-1.9.023-3.665-.116-7.4a394.66 394.66 0 0 0-.691-14.775l-.646-8.345c-.023-.3-.23-.576-.576-.576-.3 0-.6.254-.576.576l.553 7.377.438 7.376c.254 4.933.415 9.842.507 14.775l.07 4.196a62.39 62.39 0 0 0 .046 2.074c.024.692.024 1.406.208 2.075.07.253.438.253.507 0z"/><path d="M232.498 210.944l-1.106-.23-1.268-.115-2.305-.185-4.75-.323-9.404-.6-2.628-.16-2.697-.14a.53.53 0 0 0-.53.485c-.023.253.115.576.392.6.806.115 1.636.138 2.443.184l2.305.14 4.748.3 9.405.553 2.628.14 1.314.046h.69c.23 0 .46-.07.692-.092.3-.046.415-.508.07-.6z"/><path d="M208.664 209.077l-.9-28.767-.577-28.767c-.23-19.18-.115-38.38.323-57.558l1.06-32.294c.023-.76-1.152-.76-1.175 0-.807 19.178-1.29 38.356-1.452 57.535-.14 19.178.023 38.38.576 57.557l1.383 32.294c.023.484.76.484.76 0z"/><path d="M172.3 62.867c4.54.184 9.128.115 13.67.092l13.67-.253 7.7-.254c.668-.023.668-1.06 0-1.037l-13.67.46-13.67.253-7.7.115c-.438-.023-.415.6 0 .622z"/><path d="M172.036 62.613c-.415 1.9-.484 3.85-.784 5.786-.3 1.82-.668 3.62-1.244 5.37-1.015 3.066-2.536 5.924-4.357 8.552-1.844 2.674-4.01 5.094-6.362 7.353-2.397 2.328-4.956 4.495-7.676 6.43-2.79 1.982-5.832 3.665-9.15 4.564a24.44 24.44 0 0 1-1.245.299c-.3.07-.484.438-.415.738.093.323.415.46.738.415 3.435-.622 6.685-2.305 9.566-4.218s5.578-4.15 8.114-6.5c2.443-2.282 4.725-4.748 6.708-7.445 1.96-2.65 3.596-5.555 4.748-8.667 1.314-3.55 1.798-7.307 2.005-11.064a15.6 15.6 0 0 0 0-1.498c-.046-.346-.553-.46-.645-.115z"/><path d="M141.217 100.83l.162 4.01.07 3.965-.37 7.998-.507 4.472c-.046.346.092.67.484.738.392.046.622-.23.668-.577.715-5.347.945-10.74.623-16.135-.092-1.52-.185-3.066-.46-4.564-.07-.37-.67-.277-.67.092z"/><path d="M140.34 121.392c1.153.116 2.352.07 3.504.07h3.504l6.96-.046 21.76-.184c.645 0 .645-.99 0-.99l-27.868.253-3.896.07-3.965.138c-.438.07-.438.645 0 .69z"/><path d="M174.917 120.447c-.737 5.97-1.13 12-1.567 18.026l-1.106 17.864c-.623 11.917-1.06 23.835-1.29 35.752l-.185 20.077c0 .738 1.13.738 1.13 0-.023-11.986.184-23.973.576-35.96a1086.44 1086.44 0 0 1 1.775-35.729l1.383-20.008c.07-.507-.645-.484-.715-.023z"/><path d="M171 210.852c-.14-.046-.254-.115-.415-.138-.138-.023-.3-.046-.46-.046-.323-.046-.646-.046-.968-.046l-1.867.07c-1.2.07-2.398.253-3.596.392l-7.215.714a73.19 73.19 0 0 1-14.199-.622c-2.674-.37-5.302-.9-7.907-1.568-.714-.184-1.014.922-.3 1.107 4.656 1.198 9.427 1.936 14.245 2.213a73.28 73.28 0 0 0 14.407-.6c1.383-.184 2.743-.415 4.126-.553.668-.07 1.337-.138 2.028-.16.346-.023.715 0 1.06-.046.162-.023.346-.023.508-.023.184 0 .345-.07.53-.116.3-.138.23-.484.023-.576zm-104.605 1.383l13.44 7.4 55.7 29.92c.622.346 1.198-.622.553-.945l-40.523-21.737-13.53-7.238-13.554-7.122-1.73-.876c-.392-.23-.76.37-.346.6zm1.52-.345c.046-.368.16-.714.207-1.083l.115-1.153.115-2.235v-4.54c-.023-.646-1.037-.67-1.014 0l.115 4.47v3.343c0 .392.07.76.07 1.152-.023.208.37.3.392.046z"/><path d="M66.8 203.038c1.936.184 3.895.138 5.832.16l5.832.023c.622 0 .622-.968 0-.968l-5.832.046-5.832.208c-.346.023-.346.484 0 .53z"/><path d="M77.644 202.946c.392-1.13.553-2.398.715-3.596l.37-3.665c.023-.646-.968-.646-1.014 0l-.253 3.62-.208 1.798-.184 1.775c-.023.345.46.368.576.07z"/><path d="M78.15 195.662l5.163.368 2.513.14 2.628.115c.645 0 .622-.922 0-.968l-2.582-.115-2.582-.093-5.163-.092c-.392 0-.37.6.023.646zm11.803-29.16c.346-2.167.323-4.38.392-6.57l.184-6.615.323-13.232.968-41.306c.023-.738-1.13-.738-1.153 0l-1.222 52.786-.138 7.422-.046 3.642.115 3.78c0 .323.507.46.576.093z"/><path d="M89.56 181.393c.16-.092.23-.23.277-.415a1.34 1.34 0 0 0 .046-.299c0-.14 0-.3.023-.438l.023-.876c0-.3-.277-.576-.576-.576-.323.023-.576.253-.576.576l-.023.876v.438c0 .115.023.207.046.322.023.185.138.3.277.415.115.07.346.07.484-.023zm-.368 14.845c.37-.37.323-1.106.346-1.6l.07-1.6.092-3.32.16-6.616c.023-.738-1.13-.738-1.153 0l-.16 6.616-.07 3.32-.023 1.6c0 .485-.07 1.2.277 1.6.115.138.346.115.46 0zm21.16-87.892c-.345 6.823-.322 13.692-.414 20.538l-.392 31.05-.208 15.237-.3 20.8c0 .715 1.106.715 1.106 0l.6-48.82.208-16.066.207-19.893c0-.945-.023-1.9-.046-2.835-.023-.46-.738-.46-.76 0zm-42.966 95.107c.6.438 1.245.784 1.867 1.152l1.706.968 3.043 1.706 4.84 2.65 8.414 4.287 6.34 3.112c.392.185.738-.392.346-.6l-10.2-5.002-8.805-4.656-3.32-1.82-1.913-1.06-2.144-1.106c-.254-.115-.346.23-.16.37z"/><path d="M76.4 202.923l5.5 2.558 4.794 2.26 9.266 4.587 2.88 1.453c1.037.53 2.098 1.152 3.204 1.544.323.115.484-.37.23-.53-.876-.577-1.867-1-2.812-1.475l-2.605-1.314-4.75-2.375c-3.1-1.52-6.2-3.02-9.36-4.425-2.052-.922-4.126-1.844-6.224-2.605-.184-.07-.3.23-.138.323zm1.313-6.363l10.073 4.3 8.62 3.988 5.785 2.605c.415.184.76-.415.346-.6l-9.658-4.38-8.782-3.873-6.247-2.374c-.184-.046-.323.23-.138.323zm9.635-.783l8.298 3.734 8.252 3.85 2.328 1.13 2.305 1.176c.46.276.807-.484.3-.692l-4.172-2.005-4.057-1.936-8.298-3.735-4.748-1.936c-.277-.092-.438.3-.207.415zm1.268-8.7c1.3.737 2.65 1.36 4 1.982l11.987 5.5 4.587 2.144c.553.3.922-.553.346-.784-1.383-.53-2.743-1.22-4.08-1.844l-3.965-1.82-8.045-3.665-4.6-1.96c-.3-.115-.46.3-.23.438z"/><path d="M108.9 195.43c.023.023.023.046.046.046.023.023.023.046.046.046 0-.023-.023-.046-.023-.046v.023-.115c-.023.07 0 .138.023.208 0 0 0 .023.023.023.024.023.024.046.047.046.023.023.046.07.07.092 0-.023-.023-.046-.023-.07 0-.07.023-.162.023-.23-.023.023-.046.07-.046.092s0 .07-.023.093c0 .046 0 .092.023.138a.47.47 0 0 0 .07.115c.023.046.07.07.115.07.046.023.092.023.138.023s.093 0 .14-.023a.45.45 0 0 0 .115-.07c.023-.024.046-.046.046-.07.023-.046.046-.115.046-.184 0-.023 0-.07-.023-.093a.37.37 0 0 0-.092-.161c-.023-.023-.046-.046-.07-.046-.046-.023-.093-.046-.14-.046h-.138c-.046 0-.07.023-.092.046.07 0 .16-.023.23-.023.023 0 .046.023.07.023-.024-.023-.07-.046-.093-.07-.023 0-.023-.023-.046-.023 0 0-.023 0-.023-.023-.023 0-.046-.023-.07-.023s-.07-.023-.092 0h-.046.092c.023 0 .046.023.046.023-.023 0-.046-.023-.046-.046-.023-.023-.046-.023-.046-.046-.023 0-.023-.024-.046-.024h-.07c-.047 0-.093.024-.116.047s-.046.046-.046.092v.07c-.023.07 0 .092 0 .115zm-.668.9c.83.484 1.752.83 2.628 1.176l2.696 1.083 5.325 2.374c3.504 1.683 6.938 3.527 10.258 5.556a67.67 67.67 0 0 1 2.72 1.728c.922.6 1.82 1.268 2.766 1.844.415.254.922-.368.53-.668-.76-.6-1.6-1.13-2.397-1.66-.83-.553-1.66-1.083-2.5-1.6-1.66-1.037-3.365-2.03-5.07-2.974-3.434-1.9-6.96-3.573-10.557-5.07l-3.043-1.2c-1.037-.368-2.097-.783-3.18-.945-.23-.023-.392.23-.184.346zm-16.528-30.842c.323-2.028.277-4.126.346-6.177l1.3-42.875.46-13.83c.023-.553-.853-.553-.876 0l-.692 24.526-1.014 34.83.046 3.503c.023.208.392.3.438.023zm-.554 21.184c.16-.23.115-.645.115-.922l.023-.9.092-1.798c.023-.23-.207-.438-.438-.438s-.438.207-.438.438v1.798l-.023.9c0 .277-.092.7.07.922.184.23.438.207.6 0zm16.897 5.786c.3 0 .3-.46 0-.46s-.3.46 0 .46zm1.153-82.798c.3 0 .3-.46 0-.46-.3.023-.3.46 0 .46zm31.164 10.073c-.253 6.13-.16 12.286-.253 18.417l-.415 18.2c-.392 12.148-1.014 24.273-1.9 36.397l-1.66 20.4c-.07.67.968.67 1.037 0a967.17 967.17 0 0 0 2.628-36.535 911.87 911.87 0 0 0 1.222-36.42l.092-10.235c0-3.4 0-6.823-.184-10.234 0-.37-.554-.37-.577 0z"/><path d="M110.375 166.894l2.743 1.545 2.813 1.452 5.532 2.835 10.995 5.717 6.155 3.365c.46.254.875-.46.414-.714-3.595-2.03-7.26-3.965-10.926-5.855l-11.087-5.648-3.18-1.6c-1.06-.53-2.144-1.014-3.227-1.498-.254-.14-.484.23-.23.39z"/><path d="M138.198 181.3a18.14 18.14 0 0 0 1.613.254l1.66.16 3.296.277 6.57.4c4.402.23 8.805.346 13.208.37h3.665c1.244 0 2.512-.092 3.78-.023.553.023.553-.9 0-.853-1.106.093-2.213.07-3.32.07l-3.25.023a305.5 305.5 0 0 1-6.57-.07c-4.38-.092-8.76-.3-13.14-.6l-5.532-.415a25.32 25.32 0 0 0-1.867-.069c-.323-.023-.415.415-.115.484zm4-56.75c-.092.738-.092 1.5-.115 2.236l-.07 2.236-.16 4.357-.484 8.828-.346 5.025a.46.46 0 0 0 .461.461c.277 0 .438-.207.46-.46l.323-4.472.23-4.356.277-8.83.023-2.512-.07-2.513c-.07-.322-.484-.322-.53 0z"/><path d="M141.31 147.37c.9.185 1.798.254 2.697.323l2.628.208 5.37.415 10.765.668 6.062.3c.507.023.507-.784 0-.807a737.55 737.55 0 0 1-21.414-1.291l-2.974-.23-3.088-.162c-.277.046-.37.507-.047.576z"/><path d="M169.2 148.2a.44.44 0 0 0-.185.046l-.093.093c-.023.023.023-.023.023 0-.023.023-.046.023-.046.046.046-.023.092-.023.138-.046-.046-.023-.092 0-.138.023l-.07.07c-.023.023-.023.046-.023.07-.023.046-.023.092-.046.16v-.046c0-.023.023-.023.023-.046-.023.046-.046.092-.046.138v.093c0 .046.023.092.046.138 0 0 0 .023.023.023.023.046.07.092.115.115l.14.07c.046.023.092.023.138.023h.046c.046 0 .07 0 .115-.023.023 0 .023 0 .046-.023s.07-.023.092-.046c.047-.023.093-.046.116-.092a.29.29 0 0 0 .092-.138c.046-.07.046-.14.07-.23 0-.046 0-.07-.023-.115s-.023-.07-.07-.092c-.046-.046-.138-.092-.208-.092s-.16.023-.207.092-.092.138-.092.207v.023-.07c0 .023 0 .046-.023.07 0-.023.023-.046.023-.07 0 .023-.023.046-.023.046.023-.023.023-.046.046-.07-.023.023-.023.046-.046.046.023 0 .046-.023.07-.023-.023.023-.07.023-.092.046h.07c-.023 0-.046 0-.07-.023.023 0 .046.023.07.023-.023-.023-.046-.023-.092-.023h-.023c.023 0 .046.023.046.023h-.023c-.023-.023-.023-.046-.046-.07 0 .023.023.023.023.046s.023.023.023.046v-.092c0-.07-.023-.138-.07-.16l.07.138c0 .023-.023.023 0 .023-.023.023.023-.023 0 0l.023-.023c-.023.023-.023.023 0 0 0 0 .023 0 .023-.023.023 0 0 0-.023 0h.046c-.023 0 .023 0 0 0 .023 0 .07 0 .092-.046.023-.023.046-.046.046-.092 0-.116-.046-.162-.115-.162zm1.384.83c.346-1.6.484-3.25.645-4.864l.484-4.932 1.2-12.54.207-2.812c0-.438-.7-.553-.76-.115-.162.83-.208 1.682-.3 2.512l-.23 2.397-1.383 14.73-.346 5.555c.023.254.438.323.484.07z"/><path d="M172.313 123.56c-1.084-.3-2.213-.438-3.343-.576l-3.457-.323-6.8-.392c-4.564-.184-9.128-.23-13.692-.276-1.015 0-2.305-.093-3.066.714-.6.623-.807 1.798-.07 2.42.207.16.484.207.7 0 .162-.162.208-.53 0-.692-.53-.415-.023-1.106.46-1.3.392-.16.807-.16 1.2-.184h1.52l6.43.092c4.288.07 8.552.207 12.84.507l3.62.277c1.198.092 2.397.207 3.62.207.253-.023.322-.415.046-.484zm-30.888 26.76c-.116.9-.115 1.844-.14 2.766l-.07 2.65-.092 5.278-.138 10.696-.07 6.085c0 .577.876.577.9 0l.07-5.393.138-15.975v-2.996l-.07-3.112c-.046-.323-.484-.323-.53 0z"/><path d="M140.595 178.766c.853.322 1.775.507 2.674.714l2.72.53 5.486.784c3.688.415 7.422.576 11.133.484 1.038-.023 2.075-.07 3.112-.115.254-.023.507-.023.784-.07.253-.023.507-.116.76-.162.53-.07 1.083-.115 1.613-.16.323-.023.323-.553 0-.507-.438.046-.876.115-1.314.115-.484.023-.968-.046-1.43-.023-.922.07-1.844.115-2.766.138-1.844.07-3.688.046-5.532 0-3.71-.115-7.376-.507-11.04-1.106a71.2 71.2 0 0 1-3.066-.553c-.99-.208-2.006-.46-3.02-.577-.346-.023-.346.415-.115.508z"/><path d="M168.947 180.195c.784-7.146 1.015-14.338 1.153-21.507l.046-2.973c.023-1.014.092-2.052-.092-3.043-.046-.253-.46-.253-.507 0-.185.876-.14 1.798-.162 2.697 0 .876-.023 1.752-.046 2.628l-.138 5.394-.46 10.764-.254 6.063c.023.253.415.253.46-.023z"/><path d="M169.547 152.442l-1.13-.577c-.415-.16-.807-.276-1.222-.39-.852-.23-1.728-.37-2.604-.462-1.752-.207-3.527-.23-5.28-.253-3.734-.023-7.468-.092-11.203-.415-2.143-.184-4.264-.507-6.408-.76-.507-.046-.622.784-.115.876 1.844.37 3.757.553 5.624.738s3.758.323 5.648.392c3.596.138 7.215-.092 10.81.207.968.07 1.913.185 2.88.37l1.43.277c.484.115.99.184 1.475.3.14.07.277-.184.093-.3z"/><path d="M141.817 162.86a106 106 0 0 0 12.378-7.976l3.273-2.56c.346-.276-.138-.76-.484-.484-3.803 3.066-7.722 5.924-11.848 8.53a67.46 67.46 0 0 1-3.527 2.12c-.23.16-.023.507.208.37zm1.175 7.4l16.228-12.286 4.6-3.435c.323-.253-.092-.783-.438-.576-1.406.922-2.743 2.005-4.103 3.02l-4.057 3.065-8.022 6.224-4.494 3.62c-.208.16.046.53.276.37zm7.168 2.028l9.312-6.938 2.674-2.005c.507-.37-.023-1.06-.53-.67l-9.174 7.146-2.605 2.074c-.23.162.07.554.323.392zm-9-29.966l11.04-7.1 3.112-2.052c.438-.3.023-1-.415-.714l-10.926 7.307-3.088 2.097c-.254.208 0 .646.276.46zm6.1 2.282c.783-.438 1.52-.968 2.26-1.452l6.777-4.425 9-5.762 5.14-3.204c.46-.3.046-1.038-.438-.738-6.1 3.78-12.17 7.7-18.072 11.802l-2.5 1.752c-.806.576-1.636 1.13-2.42 1.752-.184.092.046.392.254.276zm9.68.346c3.388-2.674 6.87-5.255 10.442-7.7l3.043-2.028c.46-.3.023-1.06-.438-.738-3.642 2.397-7.17 4.98-10.58 7.7l-2.858 2.374c-.23.254.138.6.392.392zm-44.648 20.907c.783.46 1.613.83 2.443 1.2l2.5 1.106 4.955 2.305a147.09 147.09 0 0 1 9.613 5.094l5.278 3.18c.46.3.9-.46.438-.737-3.1-1.936-6.247-3.78-9.45-5.486-3.227-1.73-6.546-3.32-9.888-4.795-.922-.415-1.867-.807-2.813-1.175-.968-.37-1.913-.76-2.927-.968-.184-.07-.3.184-.138.276z"/><path d="M137.345 178.49l.16-1.383.07-1.498.092-2.766.116-5.5.115-11.04-.023-6.316c0-.507-.784-.507-.784 0l-.16 22.198-.07 3.112-.023 1.613s.046 1.06.07 1.614c0 .277.415.254.438-.023z"/><path d="M137.506 149.653c-2.42-2.236-5.278-3.965-8.23-5.417l-4.702-2.144-4.933-2.2-5.486-2.397c-.438-.185-.76.576-.323.783 3.204 1.5 6.454 2.86 9.68 4.265 3.112 1.36 6.247 2.674 9.175 4.403 1.567.922 3.042 1.96 4.517 3.02.23.162.485-.16.3-.322z"/><path d="M113.603 137.666c.576 3.458.16 7.008-.07 10.488l-.714 10.8-.392 6.085c-.023.53.76.507.807 0 .3-3.642.46-7.284.7-10.926l.623-10.833c.07-1.914 0-3.896-.53-5.74-.092-.23-.437-.138-.414.115zm.484-3.573l18.187 8.644 5.14 2.398c.46.207.853-.46.392-.67l-18.28-8.46-5.187-2.33c-.3-.092-.53.3-.253.415z"/><path d="M137.852 144.812l.253-8.713.415-8.7.37-4.9c.046-.46-.7-.46-.714 0-.46 5.786-.76 11.594-.784 17.38 0 1.637 0 3.296.092 4.933 0 .253.346.253.37 0zm-23.95-9.612l.115-20.723c0-.415.047-.853-.023-1.268-.023-.184-.115-.345-.322-.368-.162-.023-.37.092-.415.276-.115.715-.07 1.452-.07 2.167l-.023 2.12v4.3l.115 8.644a113.61 113.61 0 0 0 .23 4.841c.023.23.37.253.392 0z"/><path d="M113.05 112.864l4.68 2.005 4.725 1.982c3.158 1.337 6.293 2.72 9.382 4.15l5.232 2.5c.46.23.853-.46.392-.692-6.178-2.996-12.447-5.83-18.855-8.32-1.798-.7-3.596-1.43-5.44-1.936-.185-.046-.3.23-.116.323zm5.508 17.564l5.37-2.743 5.348-2.812 3.043-1.637c.53-.276.07-1.083-.46-.806l-10.673 5.67-3.02 1.683c-.392.253-.023.853.4.645zm1.637 3.988c3.896-1.9 7.63-4.195 11.203-6.64 1.014-.7 2.005-1.406 2.973-2.12.23-.162.323-.438.185-.692-.116-.207-.484-.346-.692-.184-3.457 2.628-7.076 5.025-10.788 7.307l-3.134 1.9c-.3.138-.047.576.253.438zm-6.87 24.388c4.495-2.03 8.85-4.334 13.024-6.94l3.503-2.26c.46-.3.023-1.06-.438-.737-4.103 2.743-8.32 5.232-12.7 7.514-1.22.646-2.466 1.268-3.7 1.867-.346.185-.023.715.323.554zm1.43 5.9c5.187-3.573 10.5-6.916 15.997-9.98l4.68-2.582c.53-.277.07-1.083-.46-.807a157.21 157.21 0 0 0-16.136 9.774l-4.357 3.088c-.322.23-.046.738.277.508zm11.917 2.58l6.316-3.573c.484-.276.046-1.014-.438-.737l-6.177 3.78c-.323.23-.023.715.3.53zm45.11-104.856c-.807-.507-1.706-.853-2.582-1.2l-2.536-1.014-5.2-2.052-10.396-4.126-20.607-8.367-11.572-4.818c-.3-.115-.668.138-.737.415-.093.346.115.622.414.738l20.562 8.506 20.653 8.252 5.855 2.26 2.88 1.083c1 .37 1.983.76 3.043.968.323.023.553-.438.23-.645zm-45.295-23.375l2.56.922 2.58.807 5.164 1.6 10.165 3.25a671.72 671.72 0 0 1 20.192 6.961L178.42 56.8c.277.092.576-.115.646-.37.092-.3-.093-.553-.37-.645-6.685-2.56-13.416-5.002-20.193-7.353-6.73-2.328-13.507-4.564-20.307-6.662l-5.694-1.73-2.927-.83c-1-.254-1.96-.46-2.95-.692-.346-.07-.484.415-.138.553z"/><path d="M179.043 56.528c.23-2.26.14-4.564.116-6.846l-.277-28.214c0-.692-1.083-.692-1.06 0l.323 27.338.276 7.7c.07.415.6.415.622.023z"/><path d="M178.72 21.652c-1.706-.76-3.504-1.29-5.256-1.9l-5.3-1.798-10.465-3.62-20.815-7.584-11.618-4.45c-.3-.115-.622.115-.714.392-.093.323.115.576.392.715 3.41 1.406 6.892 2.674 10.326 3.988l10.373 3.85 20.907 7.33 5.9 1.96c.968.323 1.936.622 2.904.922 1.015.3 2.006.645 3.043.853.438.115.76-.484.323-.668z"/><path d="M124.897 2.59l-.023 7.33.23 7.284c.184 4.864.484 9.727.83 14.59l.322 4.126c.116 1.36.277 2.743.346 4.103.023.277.23.53.53.53.254 0 .577-.254.53-.53-.16-1.222-.23-2.443-.345-3.665l-.3-3.665-.507-7.26-.692-14.614-.322-8.252c-.046-.346-.577-.37-.6.023z"/><path d="M127.917 27.323c-.046-1.107.115-2.2.507-3.227l-.415.323c1.522-.092 2.536-1.36 3.296-2.56.67-1.037 1.407-2.397 2.813-2.5.576-.023 1.083.184 1.337.715.276.645.207 1.43.368 2.098.323 1.544 1.2 2.88 2.098 4.15 1.452 2.098 3.665 5.14 1.706 7.63-.715.9-1.775 1.2-2.835.738-1.107-.484-1.96-1.43-2.997-2.052-.738-.438-1.475-.622-2.305-.715-.738-.092-1.43-.207-2.052-.645-1.06-.76-1.705-2.167-1.452-3.458.14-.645-.876-.922-1-.277-.277 1.43.16 2.858 1.13 3.942.46.53 1.06.922 1.728 1.176.784.3 1.66.23 2.467.46 1.268.346 2.213 1.406 3.296 2.12 1.153.738 2.56 1.037 3.803.3 1.2-.715 1.9-2.098 2.006-3.458.138-1.66-.646-3.273-1.522-4.633-.922-1.43-2.05-2.743-2.743-4.334-.322-.738-.438-1.498-.53-2.305-.092-.784-.323-1.544-1-2.005-1.2-.876-2.858-.23-3.78.76-1.038 1.107-1.522 2.743-2.812 3.596-.3.184-.623.346-.97.37-.207.023-.345.115-.415.323a7.05 7.05 0 0 0-.207 3.527c-.023.3.46.23.46-.07zm.37-12.7c-.138.23-.277.438-.37.668-.115.277-.184.553-.254.83a5.5 5.5 0 0 0-.16 1.498c.023.83.3 1.73 1.037 2.167.76.484 1.706.207 2.33-.37.668-.622.9-1.52.7-2.397-.253-1.06-1.037-1.913-1.913-2.512-.185-.138-.46-.023-.576.138-.116.207-.023.438.138.576.968.738 2.2 2.236 1.222 3.435-.323.415-.9.738-1.43.484-.553-.277-.737-.968-.76-1.52a6.21 6.21 0 0 1 .092-1.314c.092-.507.207-1.014.392-1.498.07-.253-.323-.415-.438-.184zm5.694-1.892c-1.798.738-2.282 3.25-1.037 4.702.76.9 2.075 1.153 2.997.37.783-.645 1.106-1.82.853-2.8-.37-1.36-1.522-2.282-2.65-3.02-.46-.3-.9.438-.438.738.783.507 1.6 1.106 2.05 1.936.392.715.392 1.544-.092 2.213-.507.715-1.383.7-2.005.115-.507-.484-.67-1.176-.623-1.867.07-.784.484-1.52 1.2-1.867.3-.115.07-.668-.254-.53zm3.365 3.805c-.46.968-.37 2.2.23 3.1.092.138.277.23.438.184.738-.23 1.245-1 1.153-1.752-.115-.807-.807-1.383-1.6-1.43-.23-.023-.484.23-.46.46a.46.46 0 0 0 .46.46h.092c.07 0 .116.023.185.046s-.023-.023.023 0c.023.023.046.023.092.046.023.023.046.023.07.046.023 0 .093.092.023.023.046.046.093.07.116.115.023.023.046.07.023.023.023.023.046.046.046.07.023.023.023.046.046.092.046.07 0-.023 0 .023.023.07.023.115.046.184s0-.092 0 .023v.16c0 .046.023-.046 0 .023s-.023.115-.046.184c.023-.046 0 0-.023.023s-.023.046-.046.092c-.023.023-.023.046-.046.07-.046.046.07-.07-.023.023l-.14.138c.023 0 .023-.023 0 0s-.046.023-.07.046-.046.023-.092.046c.07-.023-.023 0-.046.023.138.07.3.115.438.184-.507-.715-.577-1.6-.277-2.42.162-.415-.438-.668-.622-.3zm27.223 9.013c1.475.9 3.065 1.6 4.68 2.167 1.613.6 3.273 1.083 4.98 1.452.622.138.876-.807.253-.945-1.682-.346-3.32-.784-4.955-1.314l-4.772-1.798c-.254-.115-.392.3-.184.438z"/><path d="M174.364 28.52c-.3.3-.346.784-.392 1.2l-.115 1.176c-.046.784-.07 1.637.115 2.397.116.46.807.346.807-.115.023-.76-.07-1.52-.046-2.305 0-.37.023-.76.07-1.13.023-.392.115-.807-.07-1.2-.07-.115-.254-.138-.37-.023z"/><path d="M174.48 32.924l-1.083-.46-1.152-.3c-.784-.16-1.59-.253-2.375-.23-.576.023-.576.876 0 .9l2.236.138 1.06.16 1.13.208a.23.23 0 0 0 .184-.415z"/><path d="M169.57 32.14l.53 6.13.092 6.155-.184 3.504c-.046.622.922.622.968 0 .3-4.126.23-8.32-.277-12.424-.138-1.153-.3-2.305-.576-3.435-.046-.323-.576-.254-.553.07z"/><path d="M170.653 47.907c-.392-.138-.83-.207-1.222-.3l-1.198-.277-2.398-.715c-.46-.138-.806.622-.345.807.806.346 1.66.576 2.512.76a12.08 12.08 0 0 0 1.268.207c.438.046.876.115 1.314.07.3-.046.37-.438.07-.553zm-4.495-2.03l.37-7.284.07-3.62.023-1.844c0-.6.07-1.245-.046-1.82-.07-.392-.715-.392-.784 0-.115.6-.046 1.222-.046 1.82v5.463l.023 7.284c-.023.277.37.277.392 0z"/><path d="M166.158 31.057c-.184-.092-.346-.23-.507-.346l-.553-.277c-.346-.184-.715-.323-1.084-.484l-1.13-.484c-.37-.16-.76-.37-1.153-.438-.484-.07-.76.507-.345.807.345.23.783.346 1.175.507l1.107.438 1.13.392a4.59 4.59 0 0 0 .599.184l.6.115c.23.07.392-.277.16-.415z"/><path d="M161.87 29.05l.184-2.397c.115-.807.346-1.567.53-2.328.116-.484-.553-.645-.714-.207-.3.784-.438 1.66-.53 2.49-.093.853-.093 1.683.092 2.512.046.254.415.16.438-.07z"/><path d="M162.47 24.35c.207.484.715.784 1.222.807a.3.3 0 0 0 .276-.277.28.28 0 0 0-.276-.277h-.162c.046 0 0 0-.023 0s-.046 0-.07-.023c-.046-.023-.092-.023-.138-.046.046.023-.046-.023 0 0-.023 0-.023 0-.046-.023-.023 0-.046-.023-.07-.046-.046-.023-.093-.07-.14-.092-.023 0-.023-.023-.046-.023l-.115-.115s-.023-.046-.023-.023c.023.023 0 0 0-.023l-.023-.023c-.023-.023-.023-.046-.046-.07-.046-.092-.185-.138-.3-.07-.046.115-.07.207-.023.323zm-3.043.53c-.046.184-.16.346-.207.53a3.41 3.41 0 0 0-.092.484l-.162 1.083-.253 2.098c-.023.23.184.438.415.46.207.023.484-.115.53-.346l.184-2.028.07-.968c.023-.323.093-.692-.07-1.014.023.046.023.115.046.16l-.07-.392c0-.254-.323-.323-.392-.07z"/><path d="M159.358 25.017c-.253-.138-.507-.323-.76-.484l-.807-.392-1.637-.692-1.636-.645-.853-.323c-.3-.115-.554-.23-.876-.253-.37-.023-.623.53-.323.76.46.37 1.13.53 1.66.76l1.636.645 1.66.6.876.277.9.184c.253.046.415-.3.16-.438z"/><path d="M152.097 22.46c-.23 1.2-.322 2.443-.46 3.665l-.322 3.71-.508 7.4-.207 4.195c0 .622.922.622.968 0l.392-7.4.46-7.33.207-4.172c-.023-.3-.46-.37-.53-.07z"/><path d="M150.922 41.637c1.6.254 3.18.645 4.633 1.3 1.498.645 2.812 1.52 4.103 2.513.184.138.415.16.6 0a.43.43 0 0 0 0-.599c-1.222-1.153-2.8-2.03-4.333-2.65-1.568-.645-3.227-1.014-4.933-1.06-.277.023-.346.46-.07.507zm-1.73-20.93c-.3.415-.392 1.014-.553 1.475l-.46 1.544-.97 3.158-2.074 6.2-.622 1.683c-.208.576-.554 1.2-.577 1.798-.023.37.53.622.784.323.346-.438.484-1.014.692-1.544l.553-1.52 1.06-3.112 1.9-6.247.46-1.775.208-.876c.07-.3.16-.646.115-.968-.07-.253-.346-.346-.507-.138z"/><path d="M144.398 37.28c-.138-1.245-.438-2.467-.714-3.688l-.83-3.71-2.213-9.52-.553-2.12c-.07-.207-.277-.37-.507-.323-.208.023-.438.23-.392.46.092.645.253 1.29.415 1.913l1.337 5.486 1.844 7.4 1.175 4.15c.07.23.484.23.438-.046z"/><path d="M139.235 18.356l2.12.668c.69.277 1.3.645 1.96.99.16.092.37.07.484-.092.092-.138.115-.37-.023-.484-.622-.507-1.383-.83-2.144-1.106-.737-.277-1.52-.46-2.305-.484-.323-.023-.392.415-.092.507z"/><path d="M143.038 19.716c.14 1.06.415 2.075.67 3.112l.807 3.135c.115.46.783.346.806-.115l.14-1.43a10.02 10.02 0 0 1 .368-1.429c.3-.922.715-1.798 1.222-2.628l-.507.138 3.273 1.66c.484.254.922-.507.438-.738l-3.32-1.568c-.185-.092-.415-.046-.507.138-1.06 1.775-1.66 3.803-1.867 5.878l.806-.115-.83-3.066c-.277-1.014-.53-2.052-.945-3.02-.185-.23-.6-.253-.554.046zm16.574 24.824c0-.092-.023-.184-.023-.277v-.115c-.07.023-.07 0 .023-.07.092-.138.046-.346.023-.484l-.046-1.083c-.023-.715.023-1.406.092-2.12.023-.23-.208-.415-.415-.415-.23 0-.392.184-.415.415-.046.645-.07 1.314-.023 1.96l.07.968.07.484c.023.208.046.3.23.438-.046-.046-.092-.115-.138-.16.07.16.092.37.138.53.023.23.415.16.415-.07zm-.67-12.4c.023 1.014-.092 2.005-.438 2.974-.07.208.07.438.277.484.207.07.415-.07.484-.277.37-1.037.46-2.2.23-3.273-.046-.3-.576-.23-.553.092z"/><path d="M158.413 39.148c-.438-.507-1.152-.715-1.798-.876-.6-.16-1.268-.23-1.82-.507-.392-.207-.784-.6-.945-1.037-.046-.115-.07-.23-.092-.346v-.254c.023-.184.092-.323.276-.438-.092.023-.207.023-.3.046l3.688.9c.46.115.668-.6.207-.738l-2.973-.738-.715-.184c-.23-.046-.415.092-.576.254a1.34 1.34 0 0 0-.392.853c-.07.646.254 1.314.67 1.798.484.576 1.198.807 1.9.968l1.314.277c.415.115.806.277 1.175.484.323.207.623-.184.392-.46zm.185-6.248l-2.65-1.037-2.628-1.176.184.46c.23-.692.53-1.337.83-2.005-.138.046-.276.115-.392.16l4.84 1.43c.46.16.7-.645.207-.738-1.636-.37-3.25-.9-4.863-1.383-.14-.046-.346.023-.392.16l-.968 2.028a.44.44 0 0 0 .138.576c.876.46 1.798.853 2.743 1.2.922.323 1.867.645 2.835.784.254.023.346-.37.116-.46zm-39.578 8.322c1.5.023 2.974-.184 4.472-.323l4.472-.438c.715-.046.6-1.083-.138-1l-4.45.53-4.426.668c-.3.07-.23.553.07.553zm59.678 5.14c.392.346.853.53 1.337.738l1.43.6 2.904 1.222 5.74 2.582c3.78 1.798 7.5 3.7 11.133 5.786l3.043 1.775 3.043 1.867c.53.3.945-.46.46-.807-.853-.6-1.775-1.13-2.674-1.66a64.28 64.28 0 0 0-2.72-1.59l-5.5-3.043a161.43 161.43 0 0 0-11.433-5.417l-3.274-1.337-1.66-.6c-.553-.208-1.107-.415-1.706-.415-.138 0-.254.184-.115.3zM89.33 78.818c-.576 1.36-.9 2.88-1.106 4.357s-.3 2.974-.23 4.472c.115 2.927.645 5.947 1.82 8.62.53 1.2 1.314 2.305 2.443 2.974 1.106.645 2.42.853 3.688.692 2.697-.323 4.794-2.2 6.27-4.357a19.91 19.91 0 0 0 2.166-4.31c.554-1.52 1-3.18 1.06-4.818.023-.507-.807-.645-.9-.115l-.9 4.057c-.415 1.314-.992 2.582-1.683 3.757-1.176 2.028-2.88 4-5.256 4.633-1.083.277-2.26.277-3.32-.138-1.106-.438-1.867-1.36-2.397-2.374-.6-1.153-.968-2.466-1.268-3.734-.346-1.36-.553-2.743-.668-4.15a29.09 29.09 0 0 1 .046-4.702c.16-1.6.507-3.112.83-4.68.046-.415-.46-.53-.6-.184z"/><path d="M103.6 86c-.392 1.337-.577 2.812-.67 4.195-.092 1.43-.092 2.835.046 4.264.254 2.79.968 5.555 2.305 8.045 1.36 2.49 3.435 4.956 6.178 5.947 1.36.484 2.835.484 4.172-.07s2.42-1.522 3.32-2.65c1.107-1.383 1.983-2.95 2.697-4.54.392-.853.738-1.73 1.038-2.628.3-.876.576-1.798.737-2.72.092-.576-.714-.83-.9-.254l-.668 2.305-.83 2.213c-.6 1.406-1.337 2.79-2.2 4.08-1.43 2.12-3.665 4.103-6.43 3.457-2.628-.622-4.633-2.927-5.947-5.14-1.314-2.236-2.098-4.772-2.444-7.353-.207-1.498-.253-3.02-.23-4.518l.346-4.564c.023-.323-.46-.37-.53-.07z"/><path d="M122.454 94.33l-.438 4.518c-.046 1.498-.023 3.02.138 4.518.323 2.927 1.06 5.832 2.56 8.4 1.43 2.467 3.665 4.726 6.708 4.726 3.02 0 5.578-1.937 7.215-4.334.968-1.406 1.636-2.997 2.236-4.6a32.63 32.63 0 0 0 1.452-5.532c.046-.254-.07-.53-.346-.623a.54.54 0 0 0-.622.346c-.53 2.997-1.43 6.062-2.905 8.736-1.314 2.375-3.388 4.495-6.177 4.9-1.314.185-2.605-.115-3.712-.83-1.083-.714-1.936-1.752-2.627-2.858-1.476-2.35-2.305-5.048-2.674-7.8a33.18 33.18 0 0 1-.277-4.795l.138-4.794c.024-.415-.6-.392-.668.023zM73.794 70.6l1.176 7.353c.346 1.96.576 3.965 1.383 5.786.715 1.614 2.005 3.02 3.827 3.273 1.913.277 3.85-.6 5.163-1.96 1.66-1.73 2.42-4.103 3.112-6.34.184-.6-.76-.876-.945-.254-.576 1.844-1.176 3.757-2.374 5.325-1.037 1.337-2.65 2.374-4.38 2.305-1.66-.046-2.812-1.245-3.48-2.65-.76-1.614-1.014-3.458-1.337-5.2l-.738-3.803-.83-3.896c-.115-.3-.622-.254-.576.07z"/><path d="M74.854 70.957c4.264 2.605 8.644 5.048 13.047 7.422 4.38 2.374 8.83 4.633 13.3 6.846a428 428 0 0 0 13.577 6.385c4.564 2.052 9.15 4.01 13.784 5.878a425.99 425.99 0 0 0 13.946 5.371c.6.207 1.176.438 1.775.668.507.208.784-.668.23-.853-2.375-.76-4.703-1.683-7.008-2.558l-6.96-2.72a483.56 483.56 0 0 1-13.784-5.809 452.25 452.25 0 0 1-13.554-6.293 481.38 481.38 0 0 1-13.324-6.777l-13.047-7.146c-.553-.3-1.106-.622-1.637-.922-.37-.184-.645.3-.346.507z"/><path d="M116.968 41.015c-.37 1.82-.9 3.573-1.73 5.255-.83 1.66-1.867 3.227-3.043 4.68-2.166 2.674-4.702 5.025-7.5 7.03s-5.8 3.7-8.944 5.163c-3.158 1.475-6.43 2.697-9.75 3.78-3.435 1.13-6.915 2.098-10.42 3.043l-1.6.438c-.715.184-.415 1.3.3 1.083 3.665-.968 7.307-1.982 10.903-3.135 3.412-1.106 6.8-2.328 10.073-3.803 3.204-1.43 6.316-3.112 9.197-5.117 2.86-1.982 5.5-4.3 7.77-6.96 2.443-2.88 4.518-6.27 5.14-10.05a9.26 9.26 0 0 0 .115-1.406c0-.23-.484-.323-.53 0zm14.614 6.27c.553 4.057-1.636 7.906-3.895 11.087-2.03 2.88-4.45 5.486-7.146 7.8s-5.67 4.3-8.806 5.993c-3.157 1.706-6.477 3.066-9.888 4.15a65.77 65.77 0 0 1-10.534 2.397c-.438.07-.876.138-1.314.184-.622.092-.484 1.153.138 1.083 3.665-.392 7.307-1.176 10.857-2.213 3.55-1.06 7.03-2.42 10.327-4.126a52.22 52.22 0 0 0 9.174-5.97c2.812-2.305 5.347-4.933 7.514-7.86 1.153-1.6 2.26-3.25 3.1-5.025.876-1.9 1.498-3.988 1.337-6.085-.046-.507-.138-1.014-.277-1.52-.115-.415-.622-.23-.576.115zM142.9 53.07c.092 1.06.16 2.12.046 3.18-.115 1.037-.37 2.075-.7 3.066-.6 1.867-1.453 3.665-2.398 5.394a44.15 44.15 0 0 1-6.085 8.483c-2.35 2.582-5.002 4.887-7.883 6.87s-5.97 3.642-9.22 4.9-6.638 2.167-10.096 2.628l-1.268.138c-.3.023-.576.254-.576.576 0 .3.277.6.576.576 3.596-.37 7.123-1.153 10.5-2.397a47.15 47.15 0 0 0 9.659-4.794c3.02-1.96 5.808-4.287 8.298-6.87 2.5-2.605 4.68-5.486 6.454-8.62.968-1.683 1.867-3.458 2.536-5.28.737-2.03 1.244-4.218 1.037-6.385-.046-.53-.138-1.037-.323-1.567-.092-.277-.6-.254-.576.092zm12.793 5.486c.092 1.66.023 3.32-.23 4.98a25.14 25.14 0 0 1-1.337 4.84c-1.222 3.135-3.043 6.016-5.2 8.598-2.2 2.605-4.68 4.956-7.26 7.17-2.535 2.2-5.14 4.334-7.906 6.224-2.72 1.867-5.648 3.458-8.805 4.38-.392.115-.784.207-1.2.3-.715.16-.415 1.268.3 1.083 3.32-.784 6.385-2.282 9.243-4.126 2.88-1.867 5.555-4.057 8.183-6.27 2.674-2.26 5.278-4.6 7.56-7.238 2.282-2.605 4.288-5.5 5.648-8.713 1.337-3.18 2.098-6.592 1.844-10.05-.023-.438-.115-.853-.184-1.268-.07-.37-.67-.277-.646.092zm76.1 153.172l-.968-.622-1.083-.623-2.098-1.198-4.126-2.5-7.814-5.417-4.218-3.388c-.23-.185-.553-.23-.76 0-.184.184-.23.576 0 .76a104.56 104.56 0 0 0 15.951 11.134l2.397 1.3 1.176.576 1.3.53c.346.162.553-.37.253-.553z"/><path d="M207.603 198.68c.046.023.116.023.162.046s.115.07.16.07l.346.07.668.138 1.36.254c.23.046.507-.07.576-.323.047-.208-.07-.53-.322-.576l-1.475-.185-.692-.092c-.115 0-.207-.023-.323-.023-.07 0-.138.023-.207.023-.046 0-.115-.023-.185-.023-.345-.046-.414.53-.07.622zm-114.63-96.328c.392.392.968.623 1.452.9l1.6.853 3.365 1.637 6.915 2.904 1.937.715c.6.23 1.268.37 1.867.668.622.3.968-.714.346-.83-.577-.116-1.13-.346-1.66-.53l-1.706-.622-3.457-1.337-6.846-3.02-1.82-.876-.876-.414c-.3-.14-.6-.323-.922-.392-.16-.046-.346.184-.184.345zM115 138.773c-.277.806-.208 1.728-.254 2.558l-.138 2.513-.254 5.048-.576 10.188-.184 2.86-.162 2.858c0 .415.576.392.623 0l.184-2.628.16-2.513.3-5.048.507-10.188.115-2.858c.023-.9.185-1.9-.046-2.8-.046-.14-.23-.116-.276 0z"/><path d="M112.9 165.972l.622-.484c.047-.046.07-.115.07-.16 0-.07-.023-.138-.07-.16a.25.25 0 0 0-.161-.07c-.07 0-.115.024-.16.07l-.6.484a.25.25 0 0 0-.07.16c0 .045.023.115.07.16s.093.07.162.07h.07c0-.024.023-.047.07-.07zm.854-.806l18.164 9.3 5.14 2.605c.254.138.484-.254.23-.392l-18.187-9.243-5.14-2.582c-.23-.115-.415.207-.207.323zm28.283-14.453l.37 5.3-.046 5.348c-.138 3.573-.46 7.146-.576 10.72-.07 2.005-.07 4 .023 6.016.023.484.783.484.76 0-.392-7.192.76-14.337.6-21.53-.046-1.96-.185-4-.623-5.924-.115-.254-.53-.208-.507.07z"/><path d="M141.448 179.065l.622-.576c.092-.092.092-.254 0-.346-.046-.046-.115-.07-.16-.07-.07 0-.115.023-.162.07l-.576.623c-.07.07-.092.207 0 .276.07.115.208.115.277.023z"/><path d="M142.278 178.143c.783.323 1.636.46 2.466.646l2.397.46 4.933.7c3.32.37 6.662.553 9.98.6l5.67-.046c.438-.023.438-.714 0-.7-6.64.184-13.3-.046-19.847-1.107-.922-.138-1.82-.322-2.72-.484-.922-.184-1.867-.438-2.812-.53-.3-.046-.3.37-.07.46zm-28.178-64.68c-.185.576-.046 1.3 0 1.9l.092 1.936.16 3.896.185 7.722.046 4.403c0 .576.9.576.876 0-.023-5.2-.14-10.442-.484-15.63l-.162-2.167a17.25 17.25 0 0 0-.092-1.083c-.023-.346-.046-.715-.207-1.037-.07-.185-.37-.092-.415.07z"/><path d="M114.133 134.255l1-.83c.115-.115.115-.323 0-.438a.32.32 0 0 0-.438 0l-.945.876c-.092.092-.115.276 0 .392.138.092.276.092.392 0zm1.107-.6c.646.392 1.406.67 2.12.968l2.097.876 4.357 1.798 8.598 3.642 4.84 2.12c.4.16.737-.392.345-.576l-17.22-7.284-2.42-.968c-.83-.323-1.683-.715-2.558-.922-.23-.047-.346.23-.162.345zm27.66-10.835c-.16.715-.07 1.522-.046 2.236l.023 2.282v4.588l-.23 9.15-.253 5.14c-.046.6.876.6.922 0a242.19 242.19 0 0 0 .346-18.302l-.07-2.513-.047-1.268s-.023-.9-.138-1.337c-.092-.207-.46-.23-.507.023z"/><path d="M141.678 147.186l1.36-.945c.07-.046.116-.092.14-.184.023-.07 0-.162-.023-.23-.093-.138-.277-.207-.415-.115l-1.383 1.014c-.116.092-.093.277-.023.37a.26.26 0 0 0 .345.092z"/><path d="M142.946 146.518c3.48.553 7.008.83 10.534 1.083a203.27 203.27 0 0 0 10.604.484c2.005.046 4.033.046 6.062.046.484 0 .484-.76 0-.76-7.077.07-14.153-.207-21.207-.875l-5.9-.554c-.345-.046-.438.507-.092.577zm-48.752-43.566l-.254 9.727-.37 13.254-.507 14.476-.53 13.485-.484 11.18c-.023.508.784.508.807 0l.415-9.704.507-13.254.507-14.476.37-13.485c.07-3.4.184-6.846.046-10.257-.023-.323-.023-.622-.046-.945.023-.323-.438-.323-.46 0zm-1.73 80.032c-.3.276-.277.807-.3 1.175l-.115 1.453c0 .184-.023.4.07.553.115.184.37.253.553.138a.41.41 0 0 0 .138-.553s.046.138.023.046c-.023-.046 0 .092 0 .07v-.253l.023-.646.115-1.43c0-.184 0-.37-.115-.53-.092-.092-.277-.138-.392-.023zm-2.697 5.578c.184 0 .184-.3 0-.3-.207 0-.207.3 0 .3zm-.898 2.12l2.028-.553c.692-.208 1.337-.485 2.005-.807.23-.115.3-.46.184-.67-.138-.23-.438-.322-.668-.184-1.176.76-2.536 1-3.78 1.613-.346.185-.115.692.23.6z"/><path d="M89.56 189.277h.046c.046-.023.115-.046.16-.07.07-.023.138-.07.207-.092.023-.023.07-.023.092-.046.092-.046.023 0 0 0 .023-.023.07-.023.092-.046.046-.023.115-.046.184-.07-.115.046 0 0 .023 0 .023-.023.07-.023.092-.046l.184-.07c.138-.046.277-.093.438-.116.23-.046.392-.322.3-.553-.07-.23-.3-.392-.553-.3a4.01 4.01 0 0 0-.9.39c-.138.07-.254.162-.37.254a1.61 1.61 0 0 0-.23.184c-.046.023-.07.07-.092.093l-.023.046c.023-.023-.023.023-.023.023-.092.115-.115.276-.023.392a.39.39 0 0 0 .392.023zm-.483 3.18l5.694-2.536c.207-.092.254-.37.138-.553-.115-.208-.346-.23-.553-.138l-5.578 2.743c-.323.184-.046.622.3.484zm-.207 1.705l7.93-3.1c.208-.093.254-.392.16-.577-.115-.23-.37-.253-.576-.16l-7.722 3.365c-.3.093-.092.577.208.484zm-.83 2.144c.968-.092 1.867-.46 2.766-.83l5.624-2.305 2.858-1.198c.438-.208.115-.97-.323-.784l-2.743 1.175-2.8 1.2-2.743 1.2c-.876.392-1.752.876-2.697 1.06-.277.07-.23.507.046.484zm2.812 1.337l5.417-2.144 5.394-2.213a.45.45 0 0 0-.345-.829l-5.348 2.305-5.325 2.374c-.3.138-.092.622.207.507zm3.273.99c1.706-.622 3.342-1.383 4.98-2.167l2.374-1.152 1.245-.622c.415-.208.876-.392 1.267-.646s.162-1-.345-.807c-.438.162-.876.415-1.3.623l-1.222.622-2.35 1.2-4.887 2.374c-.3.184-.092.715.23.576zm2.35 1.36c.438-.046.853-.253 1.245-.392l1.2-.46 2.444-1 2.35-1.037 1.222-.553c.4-.185.875-.323 1.198-.577.392-.3.185-.945-.346-.83-.438.092-.852.368-1.244.553l-1.107.507-2.397 1.083-2.35 1.038-1.176.507c-.392.184-.853.322-1.2.576-.23.138-.207.622.16.576zm2.88 1.06c.784-.254 1.568-.6 2.328-.922l4.518-1.937c.76-.322 1.568-.6 2.282-1.037.415-.254.162-.968-.345-.807-.784.23-1.545.646-2.306 1l-2.235 1.015-2.213 1.014-2.236 1.106c-.323.185-.138.67.207.577zm-21.39-1.96h.046-.184c.16.046.254 0 .392-.07l.323-.138.53-.277 1.06-.576c.207-.115.3-.392.16-.6s-.392-.277-.6-.162c-.37.185-.715.392-1.06.6-.16.115-.346.207-.507.322-.207.116-.46.277-.53.507a.48.48 0 0 1 .092-.138l-.023.023a.35.35 0 0 0-.046.392c.046.115.207.138.346.115zm-.16 1.544c.645-.185 1.3-.438 1.913-.692l1.9-.737c.254-.093.415-.346.3-.623s-.392-.323-.668-.23l-1.867.806-1.844.876c-.3.185-.07.692.277.6zm-.6 1.822l7.1-2.628c.23-.092.392-.3.323-.553-.07-.23-.323-.415-.553-.323L77 201.93c-.323.14-.115.646.207.53zm.622 1.128l4.495-1.406 4.518-1.337c.553-.16.323-1.014-.23-.876l-4.564 1.406-4.45 1.66c-.3.138-.092.645.23.553zm1.912.992a65.11 65.11 0 0 0 9.497-2.858c.484-.184.277-.968-.207-.784l-9.405 3.135c-.346.115-.207.6.115.507zm2.445 1.406c.807-.138 1.614-.368 2.397-.576l2.42-.714 4.702-1.614c.53-.207.3-1.037-.23-.853l-4.702 1.66-2.35.76-2.397.807c-.3.14-.184.577.16.53zm2.65 1.382c2.997-.806 5.924-1.844 8.805-2.95.23-.092.37-.3.3-.53-.07-.208-.323-.392-.53-.3l-8.736 3.227c-.346.115-.207.67.16.553zm3.297 1.384a65.23 65.23 0 0 1 8.552-2.812c.553-.138.323-1-.23-.853-2.95.76-5.786 1.798-8.552 3.1-.323.162-.092.715.23.576zm2.58.9l4.518-1.52 4.495-1.613c.53-.208.323-1.038-.23-.853l-4.54 1.636-4.472 1.73c-.37.184-.115.738.23.622zm2.397 1.153c.715-.184 1.406-.46 2.098-.692l2.098-.7 4.24-1.268c.553-.16.323-1.014-.23-.876l-4.288 1.314-2.075.76-2.075.876c-.323.16-.115.668.23.576zm2.697 1.154l3.1-1.3 3.18-1.13c.484-.184.3-.922-.207-.784-2.2.577-4.3 1.568-6.293 2.65-.3.14-.092.67.23.554zm-27.822-6.133l1.96-.715c.23-.092.392-.3.323-.553-.07-.207-.323-.415-.553-.322l-2.005.852c-.184.093-.23.323-.16.484.046.208.253.323.438.254zm-.253 2.12l1.706-.646 1.73-.576c.23-.07.37-.3.323-.553-.07-.23-.323-.392-.553-.323l-1.775.692c-.576.23-1.13.484-1.66.806-.323.185-.138.715.23.6zm.138 1.752l5.348-1.937c.53-.184.3-1.014-.23-.83l-5.37 2.144c-.37.162-.115.784.254.623zm.23 1.9l7.215-2.812c.6-.254.254-1.13-.346-.83l-7.03 2.973c-.438.185-.277.83.16.67zm.462 2.133l8.92-3.273c.507-.16.277-.968-.23-.807l-8.92 3.504c-.323.162-.092.715.23.576zm1.798 1.06l9.543-3.066c.484-.16.277-.922-.208-.76l-9.497 3.274c-.323.115-.184.645.16.553zm3.204.922l8.92-2.536c.576-.16.323-1.06-.254-.876l-8.852 2.766c-.415.14-.254.76.184.646zm2.42 1.36c3.25-.83 6.454-1.798 9.635-2.812.553-.185.3-1.038-.23-.853l-9.566 3.042c-.415.116-.23.715.16.623zm2.35 1.244c.83-.07 1.66-.254 2.466-.438l2.513-.623 4.887-1.544c.53-.185.3-1.037-.23-.83l-4.794 1.614-2.443.668-2.443.622c-.3.093-.277.554.046.53zM81 219.588c.715-.07 1.406-.23 2.12-.37l2.2-.437 4.3-.9c.553-.116.323-.97-.23-.853l-4.24.945-2.052.484-2.167.553c-.277.115-.254.6.07.576zm3.295 1.2a58.38 58.38 0 0 0 9.082-1.913c.438-.14.254-.807-.184-.692-2.927.9-5.924 1.614-8.944 2.167-.254.07-.184.46.046.438zm1.66 2.098l7.906-1.568c.484-.115.277-.853-.207-.76l-7.86 1.752c-.37.116-.207.646.16.577zm3.642 1.682l3.896-1.014c.53-.16.3-1-.23-.83l-3.826 1.222c-.392.138-.254.738.16.622zm19.823-25.84h.208c.115.023.23 0 .37-.023.16-.023.322-.07.507-.115l1.014-.276c.207-.07.37-.3.3-.53-.07-.207-.3-.368-.53-.3l-1 .345-.53.208a.95.95 0 0 0-.253.161c-.07.046-.116.115-.185.14-.16.115-.092.414.092.4zm-.253 1.407c1.406-.254 2.8-.715 4.172-1.084.484-.138.277-.922-.207-.76l-4.103 1.314c-.346.14-.23.6.138.53zm-.254 1.796l6.478-2.05c.507-.16.276-.968-.208-.784l-6.408 2.328c-.323.116-.207.6.138.507zm-.253 2.145l9.497-2.973c.415-.116.253-.784-.185-.67-3.204.9-6.316 2.03-9.428 3.25-.23.116-.138.484.116.392zm.345 2.513l12.563-3.827c.46-.138.254-.853-.184-.714-4.196 1.314-8.345 2.697-12.448 4.24-.184.07-.115.346.07.3zm.047 3.065l5.693-2.143 5.763-1.96 3.273-1.014c.53-.16.3-.968-.23-.83-3.94 1.084-7.8 2.444-11.57 3.988-1.083.438-2.144.876-3.18 1.383-.323.138-.092.692.254.576zm-.254 2.444c4.3-.945 8.575-2.12 12.747-3.504l3.527-1.222c.484-.184.276-.968-.208-.783-4.15 1.498-8.344 2.858-12.585 4.057l-3.596 1.014c-.3.07-.162.507.115.438zm1.706 2.558c.253.346.645.23 1.014.14l1.775-.46 3.55-.968 7.053-1.983c.438-.115.254-.807-.184-.668l-6.547 1.913-3.25.968-1.636.507-.76.23c-.16.046-.553.253-.692.092-.16-.184-.46.046-.322.23zm-2.098 5.118c4.15-1.107 8.252-2.305 12.332-3.596l3.504-1.153c.438-.138.254-.83-.184-.7l-12.263 3.872-3.527 1.06c-.3.092-.185.6.138.507zm1.268 2.835c1.176.07 2.328-.392 3.458-.715l3.48-1 7.008-2.028c.484-.14.276-.876-.208-.738l-6.892 2.075-3.412 1.037c-1.106.346-2.282.83-3.457.76-.37-.046-.37.576.023.6zm-.622 4.3l12.885-3.734c.438-.115.253-.807-.184-.668L108.9 226.4c-.322.07-.184.6.162.507zm-.162 3.412l14.13-3.896c.484-.138.277-.922-.207-.76l-14.015 4.3c-.207.07-.115.392.092.346zm2.213 3.688l6.408-1.982 6.362-1.9 3.665-1.038c.46-.115.254-.83-.184-.714a387.13 387.13 0 0 0-12.77 3.872l-3.62 1.2c-.346.138-.23.645.138.553zm6.662 1.614c4.38-1.13 8.713-2.398 13.046-3.735.415-.138.23-.806-.184-.668l-12.954 4.126c-.185.046-.093.323.092.277zm5.532 2.996l9.958-3.32c.484-.16.276-.968-.208-.784l-9.888 3.55c-.346.138-.208.668.138.553zm6.063 2.928c1.36-.254 2.697-.623 4.034-1.06.23-.07.37-.3.323-.553-.07-.207-.323-.392-.553-.323a33.33 33.33 0 0 1-3.988 1.222c-.46.115-.254.807.184.715zm-18.234-71.872c.023 0 .046 0 .07-.023h-.16a.67.67 0 0 0 .37-.024l.23-.07.53-.138 1.038-.3c.207-.07.37-.3.3-.53-.07-.207-.3-.392-.53-.3l-1.037.368-.484.185c-.092.023-.185.07-.277.092-.115.046-.207.115-.3.16-.14.07-.185.254-.116.37a.33.33 0 0 0 .369.208zm-.506 2.006l2.213-.853a15.65 15.65 0 0 1 2.328-.576c.254-.046.392-.346.323-.576-.07-.254-.323-.37-.577-.323-.806.16-1.6.346-2.35.622s-1.544.6-2.213 1.06c-.276.23-.115.806.277.645zm-.208 1.5c2.35-.3 4.656-.922 6.938-1.636.553-.185.3-1.084-.254-.876-2.213.807-4.495 1.406-6.754 2.028-.23.092-.207.53.07.484zm-.14 2.753l9.128-2.604c.507-.162.3-.945-.207-.784l-9.06 2.88c-.323.115-.207.6.138.507zm.46 3.687l11.7-3.134c.46-.116.277-.83-.207-.715-3.92 1.014-7.792 2.144-11.64 3.435-.254.07-.16.484.138.414zm-1.474 5.06l13.623-4.3 3.92-1.152c.415-.116.253-.784-.185-.67-4.564 1.36-9.105 2.812-13.6 4.426l-3.85 1.406c-.185.07-.115.37.092.3zm2.42 3.424l17.3-4.472c.392-.115.23-.714-.16-.622l-17.22 4.748c-.253.046-.16.415.07.346zm5.37 3.412l11.733-3.435 3.365-1.014c.37-.115.208-.692-.16-.576l-15.052 4.564c-.3.092-.184.53.115.46zm-1 4.24l11.203-2.927 3.158-.853c.4-.116.23-.715-.162-.6l-11.156 3.112-3.158.9c-.254.046-.14.438.115.37zm9.6 4.173l5.993-1.6c.415-.093.254-.76-.184-.646l-5.947 1.73c-.323.092-.185.6.138.507zM91.635 100l.415-.16c.115-.046.23-.115.323-.16l.668-.346c.16-.092.254-.346.138-.507-.115-.184-.323-.23-.507-.138l-.668.37-.323.184c-.138.07-.254.16-.37.254-.092.092-.115.253-.046.37.092.115.23.184.37.138zm.807.647l1.06-.46c-.023.023-.07.023-.092.046a.8.8 0 0 0 .207-.092c.115-.046.184-.093.254-.185.07-.115.07-.254.023-.37-.092-.23-.37-.323-.576-.184l-1.176.668c-.16.093-.207.3-.115.46.046.07.115.14.207.162.046 0 .115-.023.207-.046z"/><path d="M93.756 100.877a16.27 16.27 0 0 0 2.213-1.083c.16-.092.23-.323.115-.484-.092-.16-.3-.23-.484-.115l-2.05 1.244c-.115.07-.138.185-.092.3s.184.184.3.138z"/><path d="M95.485 100.923c.507-.184 1-.46 1.498-.714l1.43-.784c.184-.092.254-.346.138-.53s-.346-.254-.53-.138l-1.406.853-1.36.922c-.16.14.023.46.23.392zm5.6-4.023c.784-.392 1.567-.83 2.282-1.337.16-.115.23-.3.115-.46-.092-.138-.322-.23-.46-.115l-2.2 1.498c-.253.16-.023.553.254.415zm-3.41 3.585l6.1-3.388c.415-.23.046-.9-.37-.645l-5.993 3.596c-.277.185-.023.6.253.438zm1.705.46l4.126-2.005c.208-.092.254-.392.14-.553-.116-.207-.37-.23-.554-.138-1.383.645-2.743 1.36-3.987 2.236-.3.185-.046.646.277.46zm1.9.508a19.98 19.98 0 0 0 2.928-1.407c.184-.115.253-.345.138-.553a.41.41 0 0 0-.553-.138l-2.743 1.6c-.254.162-.07.623.23.508zm1.683.876c.6-.253 1.176-.553 1.752-.852.184-.093.254-.37.138-.53-.115-.184-.345-.253-.53-.138l-1.706.945c-.16.092-.23.3-.115.46s.3.185.46.115zm1.245.668l.922-.346a.37.37 0 0 0 .161-.092l.07-.07c.07-.092.07-.23.023-.346a.45.45 0 0 0-.207-.207c-.046-.023-.092-.047-.138-.023a.44.44 0 0 0-.185.046l-.9.415a.45.45 0 0 0-.16.207c-.022.07-.023.16.023.23.046.116.23.23.392.185zm.415 1.522c.553-.207 1.083-.46 1.613-.714.185-.093.254-.37.14-.53-.116-.185-.346-.23-.53-.14l-1.498.76c-.138.092-.207.276-.138.438.07.138.253.253.415.184z"/><path d="M105.8 105.326l.3-.138c.07-.046.16-.07.23-.116-.023.024-.07.024-.093.047l.692-.254c.207-.046.346-.277.277-.484s-.277-.323-.485-.277c-.23.07-.46.14-.668.254l-.277.138c-.115.07-.23.14-.322.23-.07.046-.093.138-.093.207s0 .162.047.23a.39.39 0 0 0 .138.138c.046.023.184.046.253.023zm.808 1.498l1.522-.7c.184-.092.23-.346.138-.507-.115-.185-.323-.23-.507-.14l-1.406.738c-.14.07-.185.254-.14.392.093.138.254.253.392.207zm1.107.968a3.55 3.55 0 0 0 .438-.184c.023-.023.07-.023.092-.046-.115.046.07-.023.092-.046s.07-.023.092-.046c.023 0 .023-.023.046-.023-.046.023-.046.023-.023.023.254-.116.53-.185.807-.277.207-.046.346-.276.277-.484s-.277-.346-.484-.277c-.3.093-.6.208-.876.346s-.554.3-.76.507c-.092.093-.115.254-.046.37s.23.208.346.138zm1.567 1.108l.76-.346c.253-.115.507-.253.737-.392.185-.092.254-.37.14-.553s-.346-.23-.554-.138l-.76.37-.738.414a.36.36 0 0 0-.138.508c.16.184.346.23.553.138zm1.728.62l1.175-.507.554-.253c.046-.023.092-.023.115-.047.023 0 .046-.023.092-.023-.023.023-.023.023.023 0 .092-.046.185-.07.277-.115.253-.092.415-.346.3-.6s-.4-.346-.645-.208l-2.167 1.107c-.16.092-.207.3-.138.46.046.138.23.253.415.184zm9.613-7.306c.392-.023.76-.16 1.106-.323a6.86 6.86 0 0 0 .922-.484c.185-.115.277-.368.14-.553-.115-.184-.37-.276-.553-.138-.277.184-.554.37-.876.507-.046.023-.07.046-.116.046-.023 0-.138.07-.046.023-.046.023-.092.046-.16.07-.023 0-.138.07-.046.023l-.53.208c-.3.138-.162.645.16.622zm-1.06 1.936l1.3-.6c.414-.184.852-.346 1.3-.484.208-.07.323-.277.277-.484-.046-.184-.277-.346-.484-.277l-1.406.6c-.438.207-.876.438-1.268.737-.3.23-.07.646.3.507zm-4.726 3.735c2.398-1.222 4.933-2.213 7.515-2.928.438-.115.253-.784-.185-.668-2.627.783-5.14 1.9-7.514 3.296-.208.092-.023.392.184.3z"/><path d="M111.943 110.466c3.227-1.66 6.592-3.02 10.027-4.126.484-.16.277-.945-.207-.783a55.46 55.46 0 0 0-10.097 4.425c-.345.162-.046.646.277.484zm5.21-.53c.738-.23 1.476-.553 2.2-.853l2.2-.922c.415-.184.115-.945-.323-.76l-2.166.968-2.12 1.014c-.277.16-.092.668.23.553zm3.25.208l2.35-.83c.184-.07.345-.254.276-.484-.07-.185-.276-.346-.484-.277l-2.397 1c-.138.07-.184.277-.138.392.07.162.23.254.392.208zm1.75 1.083l1.522-.484c.184-.07.345-.277.276-.484-.07-.185-.276-.346-.484-.277l-1.498.553c-.092.047-.16.07-.207.162-.047.07-.07.184-.047.253.07.208.254.323.438.277zm.992 1.373l1.43-.6c.092-.046.16-.14.184-.23s.023-.207-.046-.3c-.115-.185-.346-.23-.53-.14l-1.3.646c-.16.07-.207.276-.138.438.046.138.23.253.392.184zm17.24-4.323c.254-.047.46-.185.692-.3.207-.092.415-.208.622-.323.185-.092.254-.37.14-.53-.116-.184-.346-.254-.53-.138l-.6.345c-.207.116-.438.254-.622.415-.092.093-.115.254-.046.37.092.138.207.185.345.162z"/><path d="M139.304 110.074l2.305-.945c.185-.07.346-.276.277-.484-.07-.184-.277-.345-.484-.276a7.82 7.82 0 0 0-2.398 1.314.22.22 0 0 0-.023.3.26.26 0 0 0 .323.092zm-1.406 2.166l3.388-1.567c.185-.092.23-.346.14-.507-.116-.185-.323-.23-.507-.14l-3.32 1.683c-.138.07-.184.277-.115.415.092.16.277.184.415.115zm-2.2 2.375l5.717-2.466c.484-.207.07-.945-.415-.715l-5.625 2.628c-.4.185-.046.715.323.553zm-.392 1.66c.83-.53 1.66-.945 2.56-1.222.23-.07.392-.322.323-.553s-.323-.392-.554-.323a10.16 10.16 0 0 0-2.72 1.407c-.16.115-.253.345-.138.53.115.207.37.276.53.16z"/><path d="M135.1 117.128c.945-.254 1.867-.622 2.8-.968.207-.07.37-.3.3-.53-.07-.208-.3-.392-.53-.3l-2.8 1.222c-.345.16-.138.668.23.576zM74.6 72.57a5.48 5.48 0 0 1 .945-.53c-.023.023-.07.023-.092.046a3.44 3.44 0 0 1 .53-.184c.23-.07.392-.323.323-.553s-.323-.392-.553-.323c-.6.184-1.13.53-1.567.968-.138.138-.138.346-.023.484.07.138.3.207.438.092zm.3 1.13l2.443-1.176c.184-.092.254-.346.138-.53s-.323-.23-.53-.138l-2.397 1.268c-.16.092-.207.3-.115.46.115.16.3.184.46.115zm.323 1.522l3.25-1.406c.208-.092.254-.392.138-.553-.115-.207-.346-.23-.553-.138L74.854 74.6c-.184.092-.23.346-.138.507.115.184.323.207.507.115zm.507 1.52l4.656-2.03c.184-.092.23-.37.138-.53-.115-.184-.346-.23-.53-.138L75.5 76.2c-.3.16-.092.67.23.553zm.6 1.614l4.656-1.798c.392-.16.23-.807-.184-.645l-4.656 1.82c-.37.138-.207.784.184.622zm.322 2.49l7.7-3.342c.415-.16.23-.853-.184-.692l-7.745 3.62c-.277.138-.046.53.23.415zm.992 1.9l7.906-3.412c.207-.092.346-.254.277-.484-.046-.184-.3-.346-.484-.277l-8.022 3.62c-.346.184-.023.715.323.553zm.322 2.42l5.855-2.766c.415-.208.046-.83-.346-.622l-5.855 2.8c-.415.184-.07.784.346.6zm11.34-4.127l2.236-.6a.41.41 0 0 0 .277-.507c-.07-.207-.277-.37-.507-.277l-2.213.715c-.184.07-.3.254-.254.438.092.16.277.277.46.23zm-.6 2.214l4.68-1.544c.484-.16.277-.945-.207-.76l-4.656 1.66c-.415.138-.23.784.184.645z"/><path d="M88.892 85.595l6.316-2.075c.53-.16.277-1.014-.23-.807l-6.27 2.328c-.323.115-.184.67.184.553zm.715 1.315c2.374-.553 4.725-1.3 7.03-2.12.46-.16.277-.922-.207-.76l-6.938 2.397c-.323.115-.207.553.115.484zm.115 2.165a89.65 89.65 0 0 0 8.782-3.02c.184-.07.3-.23.254-.438-.046-.184-.277-.323-.438-.254l-8.76 3.1c-.415.092-.254.738.16.622zm-.692 3.158c4.264-1.82 8.667-3.388 13.16-4.6.46-.115.254-.853-.207-.715-3.527 1-7.007 2.167-10.35 3.62l-2.835 1.3c-.3.138-.046.553.23.415zm1.36 1.545c3.504-1.337 7.077-2.5 10.673-3.527.438-.115.254-.784-.184-.668-3.62 1.037-7.146 2.26-10.65 3.62-.346.138-.208.714.16.576zm.923 2.097l10.466-3.7c.438-.16.253-.876-.185-.715L91.22 95.506c-.23.092-.16.438.092.37zm2.557 2.398l4.034-1.775c.16-.07.277-.207.23-.392-.046-.16-.23-.3-.392-.23l-4.103 1.982c-.277.16-.046.553.23.415zm10.35-9.036c1.014-.3 2.005-.576 3.066-.738a.43.43 0 0 0 .299-.53c-.07-.254-.3-.346-.53-.3-1.037.207-2.05.46-3.02.876-.185.07-.323.254-.254.46.023.16.23.3.438.23zm-.437 2.766c1.936-.668 3.92-1.2 5.924-1.6.53-.092.3-.9-.23-.807a32.43 32.43 0 0 0-5.854 1.798c-.346.16-.208.738.16.6zm.23 1.982l8.414-2.305c.507-.16.277-.945-.207-.784l-8.345 2.56c-.346.092-.207.6.138.53zm-.23 2.075c4.126-1.43 8.32-2.5 12.586-3.342.507-.092.3-.876-.208-.784-4.287.715-8.506 1.96-12.516 3.596-.323.138-.185.645.138.53zm1.13 2.558c4.22-1.406 8.483-2.605 12.794-3.688.484-.115.276-.853-.208-.738-4.3 1.06-8.552 2.374-12.747 3.827-.37.138-.207.715.16.6zm.83 1.592a146.45 146.45 0 0 1 11.802-3.504l3.366-.807c.46-.115.276-.83-.208-.715-3.988.922-7.952 2.052-11.87 3.296l-3.296 1.083c-.37.138-.208.784.207.646zm1.706 2.557c3.296-1.152 6.616-2.166 9.958-3.157.46-.138.277-.876-.208-.738-3.342 1.014-6.638 2.12-9.934 3.227-.438.138-.254.807.184.668zm1.037 2.605a151.95 151.95 0 0 1 10.627-3.619c.438-.138.253-.83-.185-.714-3.573 1.083-7.122 2.305-10.603 3.665-.415.16-.254.806.16.668zm2.328 1.706a39.39 39.39 0 0 0 4.242-1.683c.184-.092.23-.346.138-.507-.115-.184-.323-.207-.507-.138l-4.057 1.613c-.46.162-.277.876.184.715zm10.903-9.198l3.965-.738c.46-.092.254-.784-.184-.692l-3.942.853c-.37.07-.207.622.16.576zm.714 2.237l5.28-1.337c.507-.138.276-.9-.208-.76l-5.255 1.498c-.392.07-.23.692.184.6zm1.038 1.613l7.607-1.52c.507-.115.3-.9-.207-.784l-7.584 1.614c-.438.115-.254.783.184.7zm-.392 2.467c3.78-1.153 7.63-2.006 11.55-2.605l3.365-.46c.484-.07.392-.922-.115-.876-1.982.16-3.988.507-5.947.9-1.936.392-3.873.83-5.786 1.36l-3.25.945c-.46.16-.277.876.184.738zm.992 2.12c4.3-1.13 8.7-1.982 13.092-2.628.23-.023.346-.3.277-.507-.07-.23-.277-.322-.507-.276-4.403.622-8.76 1.6-13.047 2.835-.37.092-.207.7.185.576zm-.3 2.536c3.803-1.13 7.676-1.983 11.548-2.72l3.343-.576c.484-.07.276-.83-.208-.738-3.895.645-7.768 1.498-11.594 2.535l-3.273.923c-.346.115-.185.668.184.576zm1.314 1.96c4.218-1.083 8.482-1.982 12.77-2.743.46-.07.253-.76-.185-.7a133.43 133.43 0 0 0-12.747 2.79c-.414.115-.253.737.162.645zm3.318 2.052c3.066-.945 6.2-1.706 9.36-2.33.507-.092.3-.875-.208-.783a80.08 80.08 0 0 0-9.289 2.535c-.37.14-.208.692.138.577zm.232 2.12l4.77-1.175c.53-.14.3-.968-.23-.807l-4.726 1.314c-.438.115-.253.784.185.668zM125.036 3.12c.16.046.3 0 .46-.023.16-.046.322-.07.46-.138a9.94 9.94 0 0 0 .876-.323 10.23 10.23 0 0 0 .876-.392c.3-.16.7-.3.9-.6.092-.138.07-.346-.023-.484-.116-.138-.277-.184-.46-.16-.162.023-.3.138-.462.23l-.4.254-.784.46-.807.415c-.253.115-.6.23-.76.46-.115.115-.023.277.116.3z"/><path d="M127.48 2.197c.807.438 1.683.715 2.536 1.037l2.58.945 15.33 5.578 20.515 7.4 11.572 4.15c.507.184.737-.622.23-.807l-20.538-7.376-20.4-7.376-8.62-3.135c-.968-.346-1.936-.76-2.927-.968-.37-.092-.6.37-.277.553z"/><path d="M178.12 22.1c.07 0 .07.023.162.023.07 0 .138-.023.184-.023.092-.023.185-.07.3-.092l1.06-.415c.208-.092.438-.16.623-.3a.47.47 0 0 0 .184-.53c-.092-.207-.3-.3-.507-.253-.23.046-.438.16-.646.277-.16.092-.345.184-.507.253l-.76.415c-.046.046-.116.07-.162.115s-.046.07-.092.138c-.138.16-.07.392.16.392z"/><path d="M179.804 21.1l-.253 6.385-.046 6.385.023 12.84.092 7.192c0 .668 1.037.668 1.037 0l-.138-12.793.046-12.84-.046-7.192c-.046-.438-.692-.438-.715.023z"/><path d="M179.62 53.508l.092 1.014c.023.346-.023.69-.023 1.014 0 .208.16.392.37.415.184.023.438-.092.46-.3.046-.392 0-.807-.046-1.2a3.86 3.86 0 0 0-.254-1.014c-.046-.138-.16-.23-.323-.207a.3.3 0 0 0-.276.277z"/><path d="M178.882 56.92c.092-.023.185-.092.277-.138l.207-.138.415-.3.876-.67c.092-.07.138-.207.138-.323s-.046-.23-.138-.323a.46.46 0 0 0-.622 0l-1.107 1.037a.62.62 0 0 0-.161.184l-.092.092c-.046.07-.093.115-.116.208-.046.092 0 .23.07.3.046.07.16.092.253.07zm1.176-9.105l.023.023a.34.34 0 0 0 .322.092l.946-.3c.23-.07.345-.3.253-.53a.45.45 0 0 0-.207-.208.37.37 0 0 0-.346.023l-.876.415a.32.32 0 0 0-.161.277c-.023.092 0 .16.046.207zm.276 1.635c.484-.184.945-.415 1.406-.645l1.337-.67c.208-.115.3-.415.162-.622a.47.47 0 0 0-.623-.16l-1.3.715-1.268.738c-.14.092-.208.277-.14.438.07.138.254.254.415.207zm-.07 1.707l4.218-2.03c.208-.092.277-.415.162-.6-.14-.207-.392-.254-.6-.16a41.66 41.66 0 0 0-4.103 2.236c-.345.207-.023.738.323.553z"/><path d="M180.703 52.794a46.4 46.4 0 0 1 4.702-2.559c.208-.092.277-.415.162-.6-.138-.207-.392-.254-.6-.16-1.637.76-3.205 1.706-4.634 2.835-.276.23.07.67.37.484zm-.53 1.682l6.362-3.02c.23-.092.277-.415.16-.622-.138-.23-.392-.254-.622-.16-2.12 1-4.218 2.05-6.178 3.32-.3.207-.046.645.277.484zm.092 1.406c2.56-1.383 5.256-2.56 7.976-3.55.53-.184.3-1.037-.23-.853a48.06 48.06 0 0 0-8.068 3.873c-.322.208-.023.715.323.53zm2.2.646l8.367-3.342c.415-.184.116-.876-.3-.715l-8.23 3.435c-.37.16-.23.784.16.622zm3.527-.3l7.215-2.443c.484-.16.276-.922-.208-.784-2.466.738-4.84 1.706-7.17 2.835-.207.115-.07.484.162.392zm4.333.184c1.73-.392 3.412-.945 5.118-1.452.576-.16.322-1.083-.254-.9l-5.025 1.775c-.323.16-.208.668.16.576zm3.873.438l3.457-1.037c.23-.07.37-.3.3-.53-.07-.208-.3-.37-.53-.3l-3.4 1.3c-.138.07-.253.208-.207.37s.207.254.37.207zm3.25.46l1.936-.7c.23-.092.392-.323.277-.576a.38.38 0 0 0-.231-.23c-.138-.046-.253-.023-.37.023l-1.867.83c-.16.07-.207.3-.138.438.046.16.23.254.392.207zM125.38 5.286l1.614-.692c.184-.07.23-.346.138-.507-.115-.184-.322-.207-.507-.138l-1.52.715c-.16.07-.208.277-.138.438.07.115.253.254.414.184zm-.114 1.268c.23 0 .46-.115.67-.184l.622-.254 1.222-.53c.16-.07.207-.323.115-.46-.092-.16-.3-.207-.46-.115l-1.176.576-.576.3c-.207.092-.415.207-.553.37-.115.092-.046.3.138.3zm.14 2.05l4.6-2.144c.368-.184.046-.738-.323-.553l-4.518 2.305c-.277.138-.046.53.23.392zm-.37 2.398c2.213-1.153 4.495-2.098 6.846-2.927.438-.16.253-.853-.185-.692-2.397.853-4.725 1.9-6.96 3.066-.37.207-.046.76.3.553zm1.014 2.743c2.236-1.268 4.564-2.35 6.938-3.365.185-.07.3-.23.23-.415-.046-.16-.254-.323-.415-.23-2.42 1.014-4.772 2.213-7.054 3.504-.345.16-.046.7.3.507zm.807 1.498l5.693-2.72c.323-.16.046-.645-.276-.484l-5.625 2.835c-.276.115-.046.507.208.37zm7.307-2.79l5.186-2.236c.346-.16.046-.67-.3-.507l-5.002 2.42c-.185.092-.07.392.115.323zm-8.506 6.27l2.328-1.13c.14-.07.185-.277.115-.392a.3.3 0 0 0-.39-.115l-2.305 1.176c-.14.07-.162.253-.093.37.046.115.208.138.346.092z"/><path d="M130.937 16.12c.184-.115.345-.254.553-.323-.023.023-.046.023-.092.046.184-.07.37-.138.576-.16.092-.023.184-.092.207-.16.047-.07.07-.184.047-.277s-.093-.16-.162-.207c-.092-.046-.184-.046-.276-.046a2.18 2.18 0 0 0-1.245.645.32.32 0 0 0-.023.438c.092.07.276.138.415.046zm-4.403 5.6l.415-.323c.023-.023.07-.046.092-.07s.023-.023 0 0c.023-.023.046-.023.046-.046l.208-.138c.253-.207.53-.37.806-.553.162-.092.23-.323.116-.484-.092-.16-.323-.23-.484-.115-.3.184-.577.415-.853.622-.277.23-.507.484-.715.76a.22.22 0 0 0 .046.3c.092.07.23.115.323.046zm4.84-3.04c.046 0 .115 0 .16-.023s.115-.046.16-.07c.07-.023.14-.07.208-.092l.392-.207.76-.507c.093-.07.14-.115.185-.23s0-.23-.07-.323c-.14-.184-.392-.184-.554-.046-.046.046-.115.092-.16.138-.023 0-.023.023-.046.023.046-.023-.07.046 0 0-.023.023-.046.046-.092.07-.116.092-.23.16-.37.254l-.37.23c-.138.092-.3.16-.438.277-.092.092-.115.23-.07.346.07.092.184.184.3.16zm4.98-2.837l3.596-2.167c.345-.208.023-.76-.323-.553l-3.504 2.282c-.277.184-.046.6.23.438zm-10.28 9.174a17.92 17.92 0 0 1 3.665-2.19c.184-.092.23-.346.138-.507-.115-.184-.322-.23-.507-.138a18.11 18.11 0 0 0-3.71 2.305c-.3.23.115.784.415.53zm6.407-14.2c1.13-.668 2.35-1.176 3.62-1.52.346-.092.208-.645-.138-.553a13.75 13.75 0 0 0-3.711 1.66c-.23.184-.023.576.23.415zm3.228 9.012l.37-.138.277-.138.576-.3c.16-.092.23-.346.138-.484-.115-.16-.323-.23-.484-.138l-.553.323c-.092.046-.185.115-.277.16-.115.07-.207.16-.3.23a.28.28 0 0 0-.046.346c.046.115.184.184.3.138zm2.628-1.958c.484-.16.968-.37 1.43-.6l1.337-.738c.392-.23.023-.83-.346-.6l-1.3.76-1.3.738c-.254.138-.116.507.16.438zm-11.64 9l1.107-.53c.138-.07.207-.3.115-.415-.092-.16-.277-.184-.415-.115l-1.106.507a.23.23 0 0 0-.14.184c-.023.07-.023.184.023.254.07.16.23.207.415.115zm9.613-4.45c.253-.07.484-.184.714-.3l1.982-1c.323-.16.047-.645-.276-.484l-1.314.692c-.438.23-.9.438-1.3.76-.138.138.023.37.185.323zm34.252 26.024c.023-.023.046-.046.07-.046 0 0-.023.023-.07.046a1.19 1.19 0 0 1 .207-.16c.046-.046.092-.07.14-.115-.023.023-.047.046-.07.046.14-.092.277-.184.438-.254-.023.023-.07.023-.092.046.07-.023.14-.07.23-.092a.43.43 0 0 0 .23-.16c.046-.068.07-.207.046-.277-.023-.092-.092-.184-.16-.23-.092-.046-.184-.07-.277-.046-.23.092-.438.207-.645.346-.092.07-.184.138-.254.23-.046.046-.092.115-.138.16l-.07.138c-.023.07-.046.16-.023.23s.046.115.115.16c.07.092.23.07.323-.023z"/><path d="M170.584 33.5c-.138.507.092 1.175.184 1.683l.254 1.66.323 3.39c.115 2.282.023 4.54-.162 6.823-.023.23.208.438.438.438.254 0 .392-.207.438-.438.277-2.282.277-4.633.092-6.938l-.368-3.412-.3-1.706c-.092-.507-.138-1.176-.484-1.6-.14-.138-.37-.07-.415.092z"/><path d="M170.676 33.546c.323.138.645.16 1 .207s.692.115 1.014.208a15.18 15.18 0 0 1 1.983.622c.184.07.415-.092.46-.253.07-.208-.07-.392-.254-.46-.668-.254-1.337-.46-2.028-.6l-1.037-.16c-.346-.046-.715-.092-1.06.023-.184.046-.253.346-.07.415zm3.458-4.748c.023.046.046.07.07.115.023.07.07.115.115.16.046.07.115.138.16.207.116.138.23.3.37.415.116.115.3.138.415.023.115-.092.185-.277.092-.415-.115-.16-.253-.323-.415-.46l-.184-.184c-.07-.07-.184-.138-.254-.207-.023 0-.046-.023-.07-.023s-.07-.023-.092 0c-.046 0-.115.023-.138.07-.092.092-.115.207-.07.3z"/><path d="M175.056 29.443c-.14.622-.14 1.268-.14 1.9l.047 1.913c.023.438.714.438.7 0l-.115-1.913-.092-1.9c0-.207-.346-.184-.392 0zm-15.652-3.757c.023.023.046.046.092.046-.023 0-.046-.023-.092-.046.116.07.185.16.254.253-.023-.023-.023-.046-.046-.07.046.07.115.16.138.253 0-.023-.023-.046-.023-.07.023.092.07.16.07.253 0-.023 0-.07-.023-.092v.046c0 .092.023.16.092.23.046.046.162.092.23.092.092 0 .184-.023.23-.092s.116-.138.093-.23c-.024-.115-.024-.23-.07-.346a1.28 1.28 0 0 0-.16-.3c-.046-.046-.092-.115-.138-.16s-.092-.092-.162-.138a1.16 1.16 0 0 0-.3-.16c-.07-.023-.162 0-.23.023-.046.046-.092.07-.115.138 0 .138.046.277.16.37z"/><path d="M160.096 26.262l-.162 2.144-.253 2.12c-.023.323.507.392.576.07.162-.692.208-1.452.254-2.167.07-.715.092-1.452.092-2.167.023-.323-.484-.323-.507 0zm-.806 6.27c0 .092.023.208.023.3a1.16 1.16 0 0 1 .046.277l.115.53c.023.138.208.23.323.184.138-.046.23-.184.185-.323l-.208-.76c-.023-.092-.07-.184-.115-.277-.092-.208-.392-.138-.37.07zm-1.27 4.058c.185.138.346.3.507.46.162.184.277.37.438.553s.438.023.46-.184c.023-.23.116-.46.185-.7l.207-.646c.14-.46.23-.9.323-1.36.046-.23-.3-.323-.346-.092-.092.46-.207.922-.346 1.36l-.207.645c-.092.23-.16.46-.323.645h.46c-.092-.23-.3-.438-.484-.622a3.22 3.22 0 0 0-.622-.484c-.115-.07-.277-.023-.323.092-.092.115-.046.254.07.323zm.785 3.387c.092.07.16.16.254.23.046.046.07.092.115.115.023.023.023.023 0 0 0 0 .023.023.023.046.023.023.023.046.046.07.023.046.07.092.092.138.023.023.023.046.046.07 0 0 .023.046 0 .023-.023-.046 0 .023 0 .023.046.115.07.23.092.346.023.138.208.23.346.184s.23-.184.185-.346a1.68 1.68 0 0 0-.323-.715 1.54 1.54 0 0 0-.622-.53c-.093-.046-.208-.023-.277.046-.07.092-.07.23.023.3z"/><path d="M159.704 40.945l.07 3.435c0 .392.622.392.6 0l-.138-3.435c0-.346-.553-.346-.53 0zm-5.28-3.25c.07-.16.093-.323.116-.484 0-.16 0-.3.023-.46.023-.092.07-.184.115-.207.115-.07.3.023.415.07l2.328.645c.438.115.622-.553.184-.67l-1.36-.37c-.438-.115-.876-.277-1.337-.346-.438-.07-.852.138-.945.576-.115.415.093.784.14 1.176 0 .138.253.254.322.07zm.07-6.408c-.023-.438.346-.715.76-.7.46.023.945.23 1.383.37l2.95.9c.415.092.553-.484.16-.622-.622-.23-1.268-.37-1.9-.553l-1.867-.53c-.484-.115-1.084-.207-1.522.07-.4.23-.622.738-.414 1.175.092.23.437.115.437-.115zm-5.278-9.22c.07 0 .115.023.16.046-.023 0-.046-.023-.07-.023l.138.07c-.023-.023-.046-.023-.07-.046.046.023.07.07.115.092-.023-.023-.023-.046-.046-.07.023.046.047.07.07.115 0-.023-.024-.046-.024-.07.024.023.024.07.024.092a.36.36 0 0 0 .138.184c.07.046.16.046.23.023.162-.046.254-.207.208-.37-.046-.207-.185-.37-.346-.484-.023-.023-.07-.046-.092-.046-.046-.023-.092-.046-.162-.07a.87.87 0 0 0-.345 0c-.07.023-.14.07-.162.115s-.046.115-.023.16c0 .16.116.277.254.277zm.922.183c-.3.392-.438.922-.622 1.383l-.554 1.43-3.457 8.714-1.314 3.273c-.138.392.507.668.7.3l1.176-2.88 1.152-2.904 2.236-5.832.6-1.6c.115-.277.207-.576.3-.853s.208-.53.23-.83c.023-.23-.3-.392-.438-.207z"/><path d="M144.352 37.88a.27.27 0 0 0 0-.53.27.27 0 0 0 0 .53zm-14.66-22.682c.945-.184 2.005.323 2.397 1.222.392.876.115 1.96-.6 2.582-.23.207.092.507.323.323.876-.738 1.106-2.075.576-3.1a2.67 2.67 0 0 0-2.79-1.337c-.185.046-.092.346.092.3zm5.186-1.66c.715.207 1.5.553 1.867 1.245.277.53.23 1.3-.276 1.683-.138.092-.115.323 0 .415.115.115.3.115.415 0 .668-.553.668-1.544.253-2.26-.46-.784-1.337-1.175-2.2-1.383-.185-.046-.254.23-.07.3zm1.152 7.1c1 2.605 3.066 4.518 4.45 6.915.783 1.36 1.244 2.858 1.175 4.45-.046 1.337-.507 2.72-1.52 3.642-1.083.968-2.743 1.083-3.92.23-.322-.23-.714.277-.438.553 1.038 1.014 2.697.968 3.92.346 1.337-.67 2.144-2.03 2.443-3.458.346-1.637.14-3.342-.53-4.887-.576-1.383-1.475-2.582-2.397-3.757-1.037-1.337-2.098-2.674-2.8-4.218-.092-.23-.484-.07-.392.184z"/><path d="M135.64 35.367c-.07-.07-.138-.138-.184-.207-.023-.023-.07-.046-.093-.07-.046-.023-.07-.023-.115-.023s-.092 0-.115.023c-.046.023-.07.023-.092.07-.023.023-.023.046-.046.07-.023.046-.046.092-.046.16v.092l.07.138c.07.07.138.115.23.184.023.023.046.046.092.07.023.023.07.023.116.023s.07 0 .115-.023.07-.023.092-.07c.023-.023.023-.046.046-.07.023-.046.046-.092.046-.138v-.07c-.046-.092-.07-.115-.115-.16zm-26.993 160.94c-.07.692-.046 1.406-.023 2.12l.046 2.12.07 2.052c.023.668.023 1.337-.16 1.96-.208.738.922 1.038 1.13.323.392-1.36.184-2.88.115-4.264l-.115-2.167-.184-2.236c-.047-.208-.3-.346-.484-.323-.23 0-.37.185-.392.415z"/><path d="M108.785 205.412c-.507-.23-1.13 0-1.66.115l-1.752.346-2.627.484c-.3.046-.6.07-.876.208-.346.184-.3.806.115.876.323.046.622-.023.922-.07l.876-.16 1.798-.37 1.73-.415c.507-.138 1.198-.253 1.544-.69.092-.092.046-.277-.07-.323z"/><path d="M101.985 206.84c-.138.3-.138.623-.184.945l-.07 1.015-.07 2.05c-.023 1.36 0 2.72.14 4.08.046.6.99.622.968 0l-.14-4.034v-2.95c0-.346.047-.715-.07-1.038-.07-.207-.46-.322-.576-.07z"/><path d="M102.285 214.655c-.715.07-1.406.346-2.098.554l-2.167.6-2.12.484-2.2.438c-.53.16-.438.99.138.968.738-.023 1.498-.23 2.236-.37l2.2-.507 2.097-.6c.692-.23 1.522-.415 2.144-.853.23-.207.162-.76-.23-.715z"/><path d="M93.733 217.076c-.138.392-.16.876-.207 1.268l-.092 1.313-.138 2.628-.07 2.628c-.023.876-.092 1.775.046 2.628.07.415.784.438.853 0 .138-.853.07-1.752.07-2.628l.046-2.628.07-2.628.046-1.244c.023-.438.046-.9-.046-1.337-.07-.323-.484-.254-.576 0zm15.007-13.116c-.3 3.988-.438 7.975-.484 11.986a347.1 347.1 0 0 0 0 11.987l.16 6.777c.023.714 1.13.714 1.107 0a413.15 413.15 0 0 1-.231-11.987c-.023-3.988.023-7.998.115-11.986l.116-6.754c.023-.53-.738-.53-.784-.023zm-6.8-1.9c.6-.115 1.2-.392 1.752-.623l1.752-.668 3.55-1.222c.623-.207.346-1.198-.276-.968l-3.573 1.3-1.752.715c-.576.253-1.222.484-1.73.852-.3.23-.115.692.277.623zm1.6 1.22c.508-.023 1.015-.253 1.5-.414l1.475-.508 2.213-.76c.253-.092.53-.162.737-.3.37-.23.254-.945-.23-.876-.507.046-1.014.323-1.498.484l-1.522.553-1.475.554c-.484.184-1.037.322-1.452.645-.277.208-.046.646.253.622z"/><path d="M106.18 204.306c.323-.023.623-.185.922-.277l.853-.3a14.87 14.87 0 0 1 1.798-.461c.277-.046.438-.4.37-.645-.07-.277-.37-.438-.646-.37a14.84 14.84 0 0 0-1.797.53c-.323.116-.623.254-.922.392-.277.14-.623.277-.807.507-.208.23-.116.646.23.623zm-7.468 8.367c.323-.046.645-.16.968-.277l.876-.322.9-.392c.276-.115.553-.277.807-.392.276-.115.46-.37.322-.7-.115-.277-.46-.415-.714-.254-.507.346-1.107.6-1.66.853l-.807.37c-.277.115-.6.23-.876.392a.37.37 0 0 0-.16.414c.023.185.184.323.346.3zm1.488 1.245l.553-.23c.023-.023.07-.023.093-.046.046-.023.046-.023-.024 0 .024 0 .047-.023.07-.023.07-.023.138-.07.23-.092l.46-.16.23-.07.138-.07c-.07.023-.07.023-.023 0s.092-.046.138-.046c.115-.046.208-.092.277-.207.07-.092.092-.254.046-.37-.092-.254-.323-.392-.576-.323l-.484.162-.53.23c-.3.138-.622.277-.876.484a.44.44 0 0 0-.184.53.38.38 0 0 0 .46.23zm-2.064-50.504c-1.544.115-3.066.553-4.518 1.083-1.475.53-2.904 1.153-4.264 1.913-1.337.738-2.605 1.6-3.803 2.536l-1.798 1.544c-.53.484-1.153 1.015-1.475 1.66-.323.622-.3 1.36.138 1.936.415.553 1.06.876 1.73 1.06 1.6.414 3.32.184 4.864-.277 1.6-.484 3.135-1.222 4.564-2.075a25.52 25.52 0 0 0 3.942-2.88c1.268-1.13 2.743-2.466 2.812-4.264.023-.83-.3-1.637-1-2.12-.645-.46-1.52-.53-2.2-.092-.53.346-.046 1.198.507.853.392-.254.922-.14 1.268.16.46.392.553 1.06.46 1.637-.138.668-.553 1.267-1 1.775-.484.53-1.014 1.037-1.544 1.52-2.144 1.913-4.702 3.504-7.422 4.472-1.406.507-2.974.83-4.472.6-.922-.138-2.5-.76-1.752-1.96.346-.553.9-1.014 1.383-1.452l1.6-1.36c1.083-.853 2.236-1.614 3.458-2.306 1.337-.76 2.743-1.406 4.195-1.936s2.973-.876 4.45-1.314c.3-.16.254-.737-.138-.714z"/><path d="M99.565 165.465c.115 3.297 0 6.593-.16 9.866-.023.6.876.576.922 0 .3-3.273.14-6.616-.276-9.866-.023-.3-.484-.322-.484 0zm-17.058 9.082c2.397 2.513 5.255 4.6 8.46 5.97.346.14.645-.345.3-.507-3.135-1.43-6.016-3.32-8.506-5.716-.16-.162-.415.092-.254.253z"/><path d="M90.852 180.54c3.043.023 5.947-1.406 8-3.642.576-.645 1.083-1.337 1.475-2.097.208-.415-.415-.807-.645-.37-.9 1.614-2.12 2.974-3.665 3.988-1.52 1-3.342 1.66-5.163 1.867a.13.13 0 0 0 0 .253zm.622-9.635c0 .046 0 .092 0 0 0 0 0-.023.023-.046 0-.023 0-.023.023-.046-.023.092-.023.046 0 .023.023-.046.07-.115.092-.16-.023.023-.023.046-.046.07l.138-.138c-.023.023-.046.023-.07.046.046-.046.115-.07.184-.093-.023 0-.046.024-.07.024a.65.65 0 0 1 .207-.047c-.023 0-.07 0-.092.023h.16c-.023 0-.07 0-.092-.023.046 0 .092.023.138.047-.023 0-.046-.024-.07-.024 0 0 .023 0 .023.024.092.046.16.07.254.023.07-.023.16-.07.207-.162.07-.138.046-.37-.115-.46-.16-.07-.323-.115-.507-.092-.16.023-.346.07-.484.184a1.08 1.08 0 0 0-.346.369c-.092.162-.092.346-.07.53 0 .046.07.116.115.162.046.023.115.046.16.023.046 0 .115-.023.138-.07.07-.046.092-.116.092-.185z"/><path d="M91.036 170.882c.138-.092.254-.184.323-.323a.78.78 0 0 0 .138-.46.58.58 0 0 0-.184-.414.64.64 0 0 0-.461-.185c-.046 0-.115 0-.16.023s-.092.023-.138.07c-.046.023-.092.046-.115.093s-.07.07-.092.115-.046.092-.046.138v.138c.023.093.092.185.16.208.092.046.184.07.277.046s.16-.092.207-.16l.023-.023c-.023.023-.046.046-.046.07 0-.023.023-.023.046-.023-.023.023-.046.046-.07.046.023 0 .023-.023.046-.023-.023.023-.07.023-.092.046.023 0 .07-.023.092-.023-.023 0-.07 0-.092.023h.092c-.023 0-.07 0-.092-.023.046 0 .092.023.138.046-.023 0-.046-.023-.092-.023.023 0 .046.023.07.046-.023-.023-.046-.023-.07-.046.023.023.046.023.046.046-.023-.023-.023-.046-.046-.07.023.023.023.046.023.046 0-.023-.023-.046-.023-.07.023.023.023.07.023.115v-.046c0 .046-.023.115-.046.16 0-.023.023-.046.023-.046l-.07.138c-.023.023-.023.047-.046.047.023-.047-.023.023 0 0l-.023.023c-.07.07-.07.184-.023.253.092.046.207.092.3.023zm-.576.646c-.16.184-.138.53-.138.783-.023.162.138.254.277.277.6.07.968.553 1.314 1 .346.46.715.945 1.245 1.176 1.014.415 2.26-.346 2.328-1.43.023-.392-.622-.484-.692-.093a1.14 1.14 0 0 1-.668.876c-.415.185-.83.023-1.153-.276-.692-.646-1.245-1.9-2.35-1.798l.277.276c-.023-.23 0-.6-.184-.783-.07-.046-.184-.07-.254 0z"/><path d="M94.632 173.303c.023 0 .046 0 .07-.024-.046.024-.07.024-.07.024h.092c.07 0 .115.023.184.046-.023 0-.046-.023-.07-.023.07.023.115.046.16.092-.023-.023-.046-.023-.07-.046.046.046.092.07.115.115-.023-.023-.023-.046-.046-.07l.023.023c.046.07.092.115.184.138.07.023.16 0 .23-.023.07-.046.115-.092.138-.184.023-.07.023-.162-.023-.23-.07-.092-.138-.184-.254-.253a.85.85 0 0 0-.253-.116.97.97 0 0 0-.576-.023c-.138.046-.254.208-.207.346.07.16.207.254.37.208zm-4.312-1.2c-.046-.023-.023-.023 0 0l-.046-.07c-.023-.023-.07-.046-.092-.07-.07-.047-.115-.047-.184-.07-.138-.023-.277-.023-.438 0-.23.047-.438.116-.645.185s-.415.16-.645.207c.046 0-.07.023 0 0h-.184c.046 0-.023 0-.023 0-.023 0-.046-.023-.07-.023-.046-.023-.115-.023-.16-.046-.323-.138-.576.346-.323.553.415.37.968.23 1.452.046.07-.023.138-.07.207-.092.023 0 .046-.023.07-.023s.023-.023.046-.023c-.023.023-.023 0 0 0 .115-.046.207-.092.323-.115l.323-.07c.023 0-.046 0 .023 0h.092c-.07 0 .16-.023.092-.023.023 0 .207-.046.092-.023.092 0 .23-.208.092-.346z"/><path d="M87.624 172.45c.346-1.107 1.222-2.006 2.374-2.2.16-.023.23-.208.207-.346-.046-.16-.207-.23-.346-.207a3.11 3.11 0 0 0-1.73.922 3.12 3.12 0 0 0-.576.783c-.16.3-.23.646-.254.992 0 .184.277.207.323.046zm3.942-2.72a6.05 6.05 0 0 1 1.729.968c.092.07.207.092.3-.023a.22.22 0 0 0-.046-.3 5.95 5.95 0 0 0-1.89-.899c-.184-.046-.254.185-.092.254z"/><path d="M93.55 170.8l.738.6c.23.208.438.46.6.692.37.507.645 1.06.83 1.683.115.414.76.253.645-.185a4.73 4.73 0 0 0-.99-1.867 5.43 5.43 0 0 0-.761-.692c-.277-.207-.576-.414-.922-.507-.138-.023-.254.162-.138.277zm-6.087 1.903c-.438 2.397.023 5.233 1.96 6.87.3.254.715-.16.415-.415a6.23 6.23 0 0 1-1.683-2.697c-.392-1.198-.46-2.466-.46-3.7 0-.16-.208-.184-.23-.046z"/><path d="M93.87 170.26c.207-.346.507-.646.876-.76.184-.046.392-.07.553-.023.23.046.392.138.576.277.115.092.3.023.37-.07.092-.116.092-.277-.023-.392-.438-.415-1.106-.554-1.683-.346-.253.092-.53.253-.7.46a1.78 1.78 0 0 0-.231.346c-.07.138-.092.276-.115.438.023.184.3.23.37.07zm1.13.968c.807-.023 1.614-.438 2.075-1.106a.26.26 0 0 0-.092-.346c-.115-.07-.277-.023-.346.092-.184.254-.415.53-.715.715-.3.207-.622.322-.968.368-.138.023-.092.3.046.277z"/><path d="M94.932 169.36c-.046-.023-.092-.046-.16-.046-.046 0-.07 0-.115.023s-.115.046-.138.092c-.023.023-.046.046-.07.092s-.046.092-.046.162c0 .046.023.115.046.16a.05.05 0 0 0 .046.046c.023.023.07.046.092.07h.16c.023 0 .07 0 .092-.023.023 0 .07-.023.092-.046.023 0 .023-.023.046-.023a.39.39 0 0 0 .115-.092c.023-.023.046-.046.046-.07.023-.023.023-.046.023-.093 0-.023 0-.07-.023-.092 0-.023-.023-.046-.046-.07-.046-.046-.092-.07-.16-.07h-.07c-.046 0-.07.023-.092.07-.023.023-.046.023-.07.023.023 0 .046-.023.046-.023-.023 0-.046.023-.07.023h.046c.046.023.092.07.138.092v-.023c0 .023.023.046.023.046v-.023.093c0 .023-.023.046-.023.046s0-.023.023-.023l-.046.046c.023-.023.023-.046.046-.07l-.023.023c-.023 0-.023.023-.046.023l.023-.023c-.023 0-.023.023-.046.023h.023-.046.092c.023 0 .046 0 .07-.023.023 0 .023-.023.046-.023.023-.024.023-.047.046-.07 0-.023.023-.023.023-.046v-.092c0-.023-.023-.023-.023-.046-.046 0-.07-.023-.092-.046zm-3.782.208c.138-.16.207-.276.37-.415.138-.138.23-.207.415-.3.023 0 .046-.023.07-.023h.023c-.023 0-.023 0 0 0 .046-.023.092-.023.138-.046l.277-.07c-.046 0 0 0 .023 0h.346c.046 0-.07-.023.023 0 .023 0 .046 0 .07.023.138.024.3-.046.346-.184s-.046-.3-.184-.346c-.46-.092-.945-.023-1.36.185-.37.207-.784.576-.853 1.014a.16.16 0 0 0 .092.207c.046.023.16.023.207-.046z"/><path d="M92.788 170.145a6.19 6.19 0 0 0 .484-.323 2.57 2.57 0 0 0 .37-.46c.046-.092.023-.23-.07-.277s-.23-.023-.277.07l-.138.23c-.023.023-.046.07-.07.092l-.023.023c.023-.023 0-.023 0 0l-.046.046c-.046.07-.115.116-.184.185l-.115.115c-.023.023-.046.023-.07.046-.07.046-.092.138-.046.207.023.047.115.07.184.047zm-.738-.992a.28.28 0 0 0 0-.553c-.346 0-.346.553 0 .553zm1.683-1.106c1-.323 2.167 0 2.743.9.208.323.715.023.507-.3-.692-1.083-2.236-1.567-3.365-.876-.115.116-.046.346.115.277zm-.346-.07c-.115-.438-.484-.784-.784-1.084-.346-.322-.738-.622-1.153-.83-.484-.23-1-.185-1.406.16-.37.323-.53.807-.645 1.268-.138.46.576.668.738.207.092-.3.184-.7.46-.876s.484-.046.76.092l.876.6c.3.23.553.53.9.7.138.046.3-.07.254-.23zm-3.62 2.052a5.31 5.31 0 0 1 .715-.53l.392-.207a2.82 2.82 0 0 1 .392-.162c.115-.046.207-.16.16-.3-.023-.116-.16-.208-.3-.162a4.22 4.22 0 0 0-1.637 1.107c-.115.16.115.392.277.253z"/><path d="M89.7 167.263c-.323.346-.622.76-.622 1.245 0 .438.23.876.668 1 .138.046.277-.046.323-.184s-.046-.277-.184-.323c-.046-.023.023 0-.023 0-.023 0-.023-.023-.046-.023-.046-.023-.023-.023 0 0l-.092-.092c.023.023-.023-.023-.023-.023 0-.023-.023-.023-.023-.046s-.023-.046-.023-.046c.023.046-.023-.047 0 0-.023-.047-.023-.07-.023-.116 0-.023 0-.046-.023-.07 0-.046 0 .07 0-.023v-.16c0-.046-.023.07 0-.023 0-.046.023-.093.023-.14a.69.69 0 0 1 .092-.23l.277-.507c.138-.185-.115-.415-.3-.23zm7.053 1.153c.645-.23 1.3-.346 1.96-.346.16 0 .3-.138.3-.3s-.138-.3-.3-.3c-.738-.046-1.498.138-2.144.484-.254.138-.092.553.184.46zm.507 2.58c.092.07.138.093.207.162.023.023.046.046.07.046.023.023.046.023.07.046-.023-.023-.023-.023 0 0 .046.023.07.07.115.092l.438.415a.4.4 0 0 1 .092.115c.023.023.023.046.046.046.046.047.023.024 0 0l.184.254c.115.16.207.346.3.53.092.162.323.23.484.115s.207-.3.115-.484c-.184-.415-.484-.783-.784-1.083-.16-.16-.346-.3-.53-.438a2.12 2.12 0 0 0-.599-.3c-.115-.046-.23.046-.277.14-.07.16-.023.276.07.345z"/><path d="M98.873 172.634l.184 1.3c.023.115.16.184.277.16.115-.046.16-.138.16-.276l-.207-1.3c-.023-.115-.16-.185-.254-.14-.115.024-.16.14-.16.254zm-1.245-1.6c.023-.047.07-.07.092-.116 0 .023-.023.023-.023.046-.023 0-.023.023-.046.023.023-.023.046-.023.07-.046.046-.023.046-.07.07-.115 0-.023.023-.046.023-.07 0-.046.023-.092.023-.138s0-.093-.023-.162c0-.023-.023-.046-.023-.07-.023-.023-.023-.07-.046-.092s-.046-.07-.07-.092a.61.61 0 0 0-.184-.162c-.07-.046-.16-.046-.254-.023-.07.023-.16.07-.184.14-.046.07-.07.16-.023.253.023.07.07.138.138.185.023 0 .046.023.046.046-.023-.023-.046-.023-.07-.046.023.023.07.046.092.092-.023-.023-.023-.046-.046-.07.023.046.07.07.092.115-.023-.023-.023-.046-.046-.07.023.046.046.07.07.115 0-.023-.023-.046-.023-.07l.07.138c.023.046.046.092.092.138-.023-.023-.023-.07-.046-.092v-.046.092c0 .07.046.14.092.162.023-.023.092-.023.138-.07z"/><path d="M97.86 171.228h.092c-.023 0-.07-.023-.092-.023.092.07.23.023.323 0l.7-.2c.115-.046.207-.16.16-.3-.046-.115-.184-.23-.3-.162-.16.047-.3.116-.46.162-.092.023-.184.07-.254.115-.115.046-.208.07-.254.207.023-.023.023-.046.046-.092.023-.023-.023.023-.046.023-.046.046-.092.116-.07.185.023.023.092.092.16.092zm.737-2.974a7.28 7.28 0 0 1 .6 1.522c.023.115.184.207.3.16s.207-.16.16-.3a7.1 7.1 0 0 0-.691-1.613c-.07-.092-.184-.138-.3-.07-.092.07-.115.207-.07.3zm-3.527 3.712c.553.07 1.106-.116 1.475-.53.092-.092.092-.253-.023-.322-.115-.093-.254-.046-.323.07l-.023.023c.023-.023-.046.046 0 0-.023.023-.023.046-.046.07-.046.046-.092.092-.138.115-.023.023-.046.046-.07.046.023-.023-.023.023-.046.023-.046.024-.092.07-.16.093-.184.092-.392.16-.622.16-.07 0-.115.046-.115.115 0 .046.023.14.092.14zm4 1.36l.07.645c0 .046.023.092.046.138.046.046.092.07.16.046.115-.023.184-.115.16-.23l-.115-.646c-.023-.07-.092-.115-.16-.115-.092 0-.16.07-.16.162zm.82-1.016c.07.23.3.392.438.554a2.7 2.7 0 0 1 .37.622c.185.392.254.853.208 1.314-.023.184.16.323.322.323a.33.33 0 0 0 .323-.323c.046-.553-.07-1.107-.323-1.614-.115-.253-.276-.484-.46-.668-.184-.208-.415-.46-.714-.484-.092-.023-.208.138-.162.276z"/><path d="M100.58 172.473c.9-.507 2.005 0 2.927-.46.53-.254.876-.738 1.453-.876s1.198 0 1.774.07c.392.046.46-.576.093-.67-.623-.16-1.29-.23-1.914-.115-.668.115-1.083.553-1.613.945-.853.623-2.282-.115-2.928.876-.115.138.07.3.208.23z"/><path d="M105.95 170.95c.6-.345.945-.968 1.083-1.613.138-.623.138-1.5-.323-2.006-.622-.668-1.567.07-1.544.83.023.323.184.692.53.784.392.138.738-.092.968-.392.507-.645.715-1.498.415-2.282-.184-.484-.945-.3-.784.208.14.484.093.99-.16 1.43-.046.07-.184.184-.207.253-.023.023-.023.023.023.023.023.023.046.023.07.046.023 0-.023.023 0-.023 0-.07-.023-.092.023-.16 0 .023.092-.115.046-.092-.046-.023-.023-.023.023.023 0 .023 0 .023.023.046.023.046.046.092.046.138.046.115.07.254.092.392.023.23.047.484 0 .715-.07.507-.322.99-.576 1.43-.092.16.092.346.254.253z"/><path d="M106.7 171.136c.738.046 1.314.415 1.775.945.185.207.37.507.507.784l.185.4c0 .023.023.023.023.047s.023.046.023.092l.07.184.184.53c.116.392.738.208.6-.16-.37-1.153-.9-2.35-2.006-2.997-.415-.253-.9-.368-1.383-.368-.322 0-.322.53.023.553zm-8.3 8.23l-2.582 1.406-1.3.645-1.36.623c-.346.207-.115.783.277.668.484-.138.945-.392 1.406-.622l1.3-.646c.876-.46 1.73-1 2.536-1.567.323-.23.046-.692-.277-.507z"/><path d="M100.44 181.048c-.623-.07-1.245.07-1.868.184a16.27 16.27 0 0 0-1.844.438l-1.752.53-.922.323c-.3.115-.6.207-.853.415-.23.184-.046.622.254.6s.576-.16.853-.277l.853-.322 1.752-.554 1.73-.414c.6-.14 1.245-.208 1.82-.46.3-.093.253-.415-.023-.46zm-7.145 1.082c-.092.092-.184.07-.3.046-.184-.046-.277-.115-.46-.207l-1.383-.692c-.184-.092-.438-.07-.53.138-.092.162-.07.438.138.53l1.73.714c.415.138.968.138 1.153-.323.046-.184-.23-.345-.346-.207z"/><path d="M93.064 182.776c-.507-.046-1.014-.046-1.52-.046l-.76.023c-.277.023-.622 0-.853.116-.3.16-.208.576.092.69.23.07.553 0 .784-.023l.784-.092c.507-.046 1.037-.115 1.544-.23.115-.023.184-.138.16-.253-.023-.092-.115-.162-.23-.185z"/><path d="M90.114 182.776c.07.023-.07 0 0 0-.023 0-.046 0-.046-.023-.046 0-.07-.023-.115-.023.07.046-.046-.023 0 0-.023 0-.023-.023-.046-.023s-.046-.023-.07-.023c0 0-.07-.046-.023-.023.046.046 0 0-.023-.023l-.046-.046c.046.07-.046-.07 0 0 0-.023-.023-.023-.023-.046s-.023-.046-.023-.046c.046.092.023.046 0 .023-.023-.046-.023-.092-.023-.115 0 .023 0 .07.023.092v-.185c0 .023 0 .07-.023.093 0-.024 0-.047.023-.093 0-.023.046-.092 0-.046-.023.07 0-.023.023-.023 0-.023.046-.046.046-.07l-.023.023.023-.023.046-.046c.046-.046-.07.046-.023.023.023 0 .023-.023.046-.023.115-.046.023-.023 0 0 .092-.046.16-.07.207-.16a.38.38 0 0 0 .046-.277c-.046-.16-.254-.323-.438-.254a1.18 1.18 0 0 0-.576.484c-.115.23-.184.508-.092.76.092.23.254.46.484.576a.75.75 0 0 0 .392.093.67.67 0 0 0 .369-.093c.092-.046.16-.184.115-.3-.023-.092-.115-.162-.23-.185z"/><path d="M89.515 182.546h-.046c.023 0 .023 0-.023 0-.023 0-.07-.023-.092-.023l-.207-.07c-.023 0-.023-.023-.046-.023-.023-.023-.046-.023 0 0a.17.17 0 0 1-.092-.047c-.023-.023-.07-.046-.092-.07-.023 0-.046-.046-.07-.07 0-.023-.023-.023-.023-.046-.023-.023-.023-.023.023.023-.023 0-.046-.07-.046-.092s-.023-.023-.023-.046c-.023-.046-.023-.023 0 .023l-.023-.092v-.046c0-.047 0-.023 0 .023v-.093c-.023.093 0-.07 0 0 0-.023.023-.07.023-.07-.023.046-.023.07 0 .023 0-.023.023-.023.023-.046s.046-.046.046-.07l-.023.023c0-.023.023-.023.023-.023l.07-.07c-.046.023-.046.046-.023.023.023 0 .023-.023.046-.023.023-.023.046-.023.092-.046.023 0 .092-.07.046-.023-.023.023-.023.023 0 0 .023 0 .046-.023.046-.023.046-.023.07-.023.115-.023s.07-.023.115-.023c-.092 0 .023 0 .046 0 .16-.023.323-.023.484-.023.184-.023.346-.14.346-.346s-.138-.323-.346-.346c-.6-.07-1.268 0-1.66.507-.184.254-.277.576-.184.9.092.3.3.576.576.715.16.07.346.115.53.138.16 0 .323-.046.484-.092.184-.046.138-.415-.115-.438z"/><path d="M88.016 182.04c.046-.046.07-.092.115-.14 0-.023.023-.023.023-.046-.023.046.023-.023.023-.023.046-.07.115-.115.16-.16-.046.023.023 0 .023-.023.023 0 .023-.023.046-.023.046-.023.07-.046.115-.07.023 0 .046-.023.046-.023.023-.023-.023 0 .023 0 .046-.023.07-.023.115-.046.046 0 .07-.024.115-.024h.046c.07-.023-.046 0 .023 0h.254c.023 0 .046 0 .07.024.046 0 .07.023.115.023.023 0 .046.023.046.023.023 0 .046.023.023 0 .046.023.092.046.115.07.3.16.553-.277.254-.46-.37-.208-.807-.254-1.222-.14-.392.116-.83.392-.945.807-.046.208.254.415.415.23zm1.684-1.822a4.54 4.54 0 0 0 .738.876c.3.253.6.484.945.7.254.138.46-.253.23-.37-.645-.345-1.222-.806-1.683-1.36-.092-.138-.3.023-.23.162zm-1.822 2.142h-.046l.184.07c-.07-.07-.184-.116-.277-.07a4.51 4.51 0 0 0-.83.392c-.254.14-.507.277-.738.46a.37.37 0 0 0-.161.208c-.023.092-.023.184.023.253.092.162.3.208.46.116.254-.14.484-.3.715-.46l.715-.438c.115-.07.16-.208.138-.323 0 .07-.023.138-.023.207 0-.023.023-.023.023-.046.115-.184 0-.346-.184-.37z"/><path d="M89.146 182.915l-2.812.853c-.184.07-.3.23-.23.414.046.162.254.3.415.23l2.743-1.106c.254-.093.16-.485-.115-.392z"/><path d="M86.288 183.93c-.115.07-.184.23-.254.323-.046.07-.16.184-.254.253-.023.023-.07.046-.115.092s-.115.07-.184.093c-.023 0-.07.046-.07.023.023 0-.046.023-.07.023-.07.023-.138.046-.184.046-.023 0-.07.023-.092.023-.07.023.046 0-.023 0h-.323c.07 0 0 0-.023 0-.07-.023-.138-.023-.184-.046-.023 0-.092-.046-.046-.023s-.046-.023-.046-.023c-.023 0-.092-.046-.07-.023.046.023 0 0-.023 0 0-.023-.046-.023 0 0 0 .023 0 .046.023.046.023.046-.023-.023 0-.023 0 0-.023.07 0 .023 0-.023.023-.046.023-.046-.023.07 0-.023.023-.047.023-.046.046-.07.07-.115.023-.023.07-.092.023-.046.023-.023.046-.07.092-.092.023-.023.07-.046.092-.092l.023-.023c-.046.023.023-.023.023-.023.07-.047.138-.093.207-.116.046-.023 0 0-.023 0 .023 0 .046-.023.07-.023.046-.023.092-.023.138-.046a.38.38 0 0 0 .277-.415c-.023-.16-.184-.345-.37-.322-.438.046-.853.253-1.153.6-.16.207-.3.415-.323.668-.046.3.092.577.37.738.668.392 1.544.16 2.12-.3.16-.115.277-.276.392-.438.115-.184.23-.415.138-.622-.046-.07-.184-.092-.277-.046z"/><path d="M83.752 184.782h-.16c-.07 0 .046.023-.023 0-.023 0-.046 0-.07-.023-.023 0-.046-.023-.07-.023s-.023 0-.046-.023-.023 0 .023 0c-.023 0-.092-.046-.115-.07-.023 0-.023-.023-.046-.023-.023-.023-.023-.023.023.023l-.046-.046c-.023-.023-.046-.023-.046-.046l-.023-.023c-.023-.023-.023-.023.023.023l-.023-.046c0-.023-.023-.023-.023-.046.023.046.023.07 0 .023 0-.023 0-.046-.023-.07 0-.023 0-.023 0 .023v-.16s.023-.116.023-.07c-.023.047.023-.046.023-.046.023-.023.023-.046.046-.07 0-.023.023-.023.023-.046-.023.046-.023.023 0 0 .046-.046.092-.092.138-.115.023-.023.023-.023-.023 0 .023 0 .023-.023.046-.023.023-.023.046-.023.07-.046.046-.023.115-.07.184-.092.115-.07.23-.116.346-.185.138-.07.184-.253.115-.37-.07-.138-.208-.207-.346-.184-.254.07-.507.138-.738.3-.254.16-.46.39-.553.668a1.09 1.09 0 0 0 .046.807c.115.23.323.37.553.46s.507.092.738.046c.323-.046.254-.553-.046-.53z"/><path d="M82.323 184.16c-.254-.184.207-.553.346-.645a1.92 1.92 0 0 1 1.014-.277c.807-.023 1.567.277 2.282.577.16.07.323-.07.37-.208.046-.184-.07-.323-.208-.37-.968-.4-2.005-.76-3.066-.507-.46.116-.968.346-1.245.76-.254.37-.184.945.23 1.176.3.115.53-.323.277-.508zm7.1-2.444c.23-.046.484-.046.738-.046.115 0 .208.023.346.07a2.42 2.42 0 0 1 .37.115c.116.045.277-.046.3-.16.023-.138-.046-.254-.16-.3-.53-.207-1.153-.253-1.683-.046-.254.07-.16.415.092.37z"/><path d="M89.238 181.21l.645.184c.208.07.438.116.645.162.115.023.23-.023.254-.14s-.023-.23-.138-.253l-.645-.14-.645-.115c-.092-.023-.184.023-.207.115-.046.07 0 .162.092.185z"/><path d="M89.192 179.78v.023c0-.046 0-.046 0 0v.07c0 .046.023.092.07.138.046.07.092.116.138.185.092.092.184.207.254.3l.53.577c.092.092.277.092.37 0a.28.28 0 0 0 0-.369l-.53-.576-.254-.277-.138-.138c-.046-.046-.092-.07-.138-.093h-.115c-.092 0-.184.093-.184.162zm4.448 3.734c.53.392 1.2.622 1.844.784s1.337.253 2.005.253c1.36.023 2.72-.276 3.965-.83.622-.276 1.198-.622 1.752-1.037.6-.46 1.083-1 1.636-1.52.623-.6 1.337-1.13 2.167-1.498.438-.185.945-.346 1.43-.3.576.07.945.484 1.2 1 .207.438.853.046.645-.37-.253-.507-.645-.968-1.175-1.198-.46-.208-.968-.208-1.476-.116-.922.162-1.774.692-2.5 1.245-1.037.784-1.82 1.867-2.927 2.56-1.176.737-2.5 1.175-3.873 1.337a8.43 8.43 0 0 1-2.282-.046c-.784-.116-1.52-.392-2.282-.577-.207-.046-.277.208-.138.323zm6.4-1.936a.37.37 0 0 0 .161.092c.046.023.115 0 .16.023h.277c.16 0 .323 0 .46-.023s.3-.046.438-.138a.66.66 0 0 0 .277-.46c.023-.162-.14-.3-.3-.3a.29.29 0 0 0-.3.3s.023-.07 0-.023c0-.024.023-.047 0 0-.023.023.046-.047.023-.024l-.023.024s.07-.047.023-.024c-.023.024-.046.024-.07.047 0 0-.023 0-.023.023-.046.023-.023 0 .023 0-.023 0-.046.023-.07.023s-.046.023-.07.023h-.023c-.046 0 .07 0 .023 0-.138.023-.3.023-.438.046-.092.023-.184.023-.277.046-.023 0-.07 0-.092.023-.07.023-.115.07-.16.115-.092 0-.115.14-.023.208zm2.65-9.474c.046.07.092.115.184.138.046.023.115.023.16.023h.093c.046 0 .092.023.138.023.184.046.346.092.507.162.07.023.138 0 .207-.023.047-.023.116-.093.116-.162.023-.138-.046-.276-.185-.322-.184-.07-.392-.14-.576-.162-.092 0-.184-.023-.277-.023-.07 0-.115 0-.184.023-.046 0-.07.023-.115.023-.046.023-.07.07-.092.092 0 .07 0 .162.023.208zm-2.56.438c.346-.438.622-.945.922-1.406l.9-1.475 1.913-3.066 4.126-6.063 2.282-3.158c.3-.4-.37-.783-.668-.4-2.812 3.895-5.602 7.814-8.068 11.917-.346.576-.668 1.13-1 1.706-.3.53-.623 1.13-.807 1.705-.07.23.23.415.392.23zm-9.288 14.245c.553.023 1.083-.07 1.614-.138l1.752-.254 3.78-.668 7.8-1.498 3.804-.67c.346-.07.207-.6-.14-.53l-14.867 2.766-1.96.3-1.844.3c-.184.046-.138.37.07.392zm4.3-46.377l5.74-1.245 9.335-2.074c.392-.092.23-.692-.16-.6l-5.74 1.267-6.177 1.406-3.112.784c-.346.046-.208.53.115.46zm-.807 8.205l6.04-1.406 6.477-1.706 3.204-.9c.276-.092.16-.507-.115-.438-4.127 1.2-8.3 2.26-12.47 3.32l-3.204.853c-.184.046-.092.322.07.276z"/><path d="M95.323 140.156c.16-1.153.138-2.33.184-3.48l.092-3.527.138-7.146.254-14.337.16-7.86c0-.46-.692-.46-.692 0l-.277 14.13-.323 18.256.023 3.965c0 .3.392.3.438 0zm-1.13 8.32l.138 5.924-.046 5.855-.16 3.365c-.023.37.553.37.576 0l.208-5.924-.138-5.97-.323-3.273c0-.16-.254-.138-.254.023z"/><path d="M93.986 163.806l.023 1.75c-.023.6-.092 1.176-.16 1.752-.023.254.392.254.415 0 .07-.576.07-1.175.07-1.752l-.07-1.75a.14.14 0 0 0-.277 0zm5.14-46.586c2.743 2.974 5.463 5.993 8.1 9.082.3.346.783-.16.507-.507-2.605-3.1-5.302-6.13-8.16-9.013-.277-.276-.715.162-.438.438zm3.665-2.605l4.38 5.648c.208.276.6-.115.37-.37l-4.472-5.486c-.115-.184-.415.046-.276.207zm-.552 39.417c1.083 1.43 2.282 2.743 3.572 3.965.277.253.67-.162.415-.415l-3.688-3.78c-.16-.162-.438.046-.3.23zm2.788-.807c.76 1.245 1.705 2.328 2.835 3.25.138.115.346.138.484 0 .115-.116.138-.37 0-.485-1.106-.852-2.075-1.9-2.858-3.02-.185-.3-.646-.046-.46.253zM89.376 186.2c.277.138.6.23.922.207a.2.2 0 0 0 .184-.184c0-.092-.07-.184-.184-.184h-.277c-.023 0-.07-.023-.092-.023l-.208-.07c-.023 0-.023 0-.046-.023h-.023c-.023-.023-.07-.023-.092-.046-.092-.046-.207-.023-.254.07s-.023.208.07.254zm4.22 3.113l3.895-1.545c.138-.07.254-.184.207-.345-.046-.14-.207-.254-.346-.208l-3.873 1.6c-.138.046-.23.184-.184.322 0 .14.16.23.3.185zm1.083.46c1.475-.76 3.043-1.337 4.656-1.798.37-.092.207-.67-.16-.553-1.637.484-3.227 1.152-4.748 1.936-.277.138-.023.553.253.415z"/><path d="M96.176 189.76l6.293-2.12c.392-.115.208-.715-.16-.6l-6.293 2.35c-.207.092-.07.438.16.37zm1.937.346l6.776-2.512c.438-.16.23-.83-.184-.692l-6.754 2.813c-.23.115-.07.484.16.4zm1.452.392c2.328-1.014 4.748-1.867 7.168-2.65.415-.14.23-.784-.184-.646-2.5.76-4.887 1.752-7.238 2.88-.3.116-.046.53.254.415z"/><path d="M101.916 190.798l5.348-2.167c.16-.07.207-.322.115-.46-.092-.184-.3-.184-.46-.115l-5.163 2.374c-.208.092-.07.46.16.37zm2.49-.092c1.176-.415 2.305-.968 3.435-1.5.16-.092.207-.322.115-.484-.092-.184-.3-.207-.484-.115l-3.25 1.706c-.184.115-.07.484.184.392z"/><path d="M106.4 190.775l2.58-1.153c.162-.07.208-.3.116-.438-.093-.16-.3-.207-.438-.115l-2.398 1.383c-.16.092-.07.415.14.323zm.738-2.167l1.683-.784a.33.33 0 0 0 .115-.438c-.092-.16-.276-.184-.438-.115l-1.636.853c-.14.07-.185.254-.092.392.07.138.23.16.368.092z"/><path d="M108.186 189.092c.253-.046.484-.16.714-.253l.67-.277c.16-.07.207-.3.115-.438-.092-.16-.277-.184-.438-.115l-.645.3c-.23.115-.46.23-.646.4-.092.07-.092.208-.046.3.07.07.16.115.277.092zm-4.173-7.582l5.463-.623c.3-.046.23-.576-.07-.553l-5.44.738c-.23.07-.184.46.046.438z"/></g><defs><linearGradient id="A" x1="143.44" y1="125.883" x2="113.223" y2="148.121" gradientUnits="userSpaceOnUse"><stop offset=".06" stop-color="#fff" stop-opacity="0"/><stop offset=".255" stop-color="#fff"/></linearGradient><linearGradient id="B" x1="92.781" y1="168.53" x2="92.402" y2="176.388" gradientUnits="userSpaceOnUse"><stop stop-color="#2e1911"/><stop offset="1" stop-color="#502c1e" stop-opacity="0"/></linearGradient></defs></svg>