<?xml version="1.0" encoding="utf-8"?>
<!-- Generator: Adobe Illustrator 24.1.1, SVG Export Plug-In . SVG Version: 6.00 Build 0)  -->
<svg version="1.1" id="Layer_1" xmlns="http://www.w3.org/2000/svg" xmlns:xlink="http://www.w3.org/1999/xlink" x="0px" y="0px"
	 viewBox="0 0 2075 80" style="enable-background:new 0 0 2075 80;" xml:space="preserve">
<style type="text/css">
	.st0{opacity:0.1;fill:#FFFFFF;enable-background:new    ;}
	.st1{opacity:0.6;fill:#FFFFFF;enable-background:new    ;}
	.st2{opacity:0.6;}
	.st3{fill:#FFFFFF;}
</style>
<path class="st0" d="M1221.5,75.8h-88.8l34.8-4.4c0.3-2-0.3-7.1-4.4-11.8s10.6,2,18.5,5.9c-1.5-1.7-1.9-7.1,8.1-14.8
	c12.6-9.6,37,15.5,44.4,14.8S1241.5,75.8,1221.5,75.8L1221.5,75.8z M1360.5,30.1c-6.4,3,0.9,7,5.4,8.7l90.3,3.1
	c1-0.4,3.2-1.7,4.1-4.3c1.1-3.1-2-6.7-6.7-9.3c-3.7-2.1-8.3,0.9-10.2,2.6c0.1-1.3-2-6.3-10.7-16.1c-10.9-12.2-23.1-10.9-35.2-9.8
	c-9.6,0.9-6.5,9.1-3.7,13.1c-0.9,0-3.3-0.4-6.3-2c-3.7-2-7-1.3-12.9,2c-4.7,2.7,2,9,5.9,11.8c-1.1-0.6-4.6-2.1-9.8-3
	C1364.2,26,1368.4,26.4,1360.5,30.1L1360.5,30.1z"/>
<path class="st1" d="M1458.2,39.9c0.9-3.6-0.6-7.7-3.7-9.8c-3.2-2.1-7.7-1.8-10.7,0.6c-0.2,0.2-0.5,0.1-0.6-0.2
	c-2.9-8.6-9.1-15.9-16.8-20.6c-3.9-2.4-8.1-4.1-12.5-5.1c-4.6-1-9.8-1.3-14.3,0.2c-2.6,0.9-5,2.4-6.5,4.8c-1.4,2.2-1.9,5.1-0.9,7.5
	c0.1,0.3-0.1,0.7-0.5,0.6c-2.1-0.9-4.2-1.6-6.5-2c-2.1-0.4-4.4-0.8-6.6-0.5c-4.1,0.5-4.9,5.2-3.2,8.3c1.1,2,2.8,3.6,4.5,5.1
	c0.3,0.3-0.1,0.8-0.5,0.6c-3.5-1.7-7.4-2.6-11.2-2.5c-1,0-2,0.1-2.9,0.3c-0.8,0.2-1.8,0.3-2.6,0.6c-0.8,0.3-2.9,2.1-1.5,2.8
	c0.4,0.2,0.1,0.9-0.4,0.7c-1.5-0.7-0.7-2.4,0.2-3.2c1.4-1.4,3.6-1.6,5.5-1.8c4.6-0.5,9.3,0.4,13.4,2.4c-0.2,0.2-0.3,0.4-0.5,0.6
	c-2.9-2.6-6.2-5.9-5.5-10.2c0.3-1.7,1.3-3.3,2.9-4c2.1-0.9,4.7-0.5,6.8-0.3c2.9,0.4,5.7,1.2,8.3,2.3c-0.2,0.2-0.3,0.4-0.5,0.6
	c-1.9-4.5,0.7-9.6,4.6-12c4.4-2.7,10.1-2.8,15.1-2.2c9.4,1.3,18.3,6.1,24.6,13c3.6,3.9,6.4,8.6,8.1,13.6l-0.6-0.2
	c2.5-2.1,6-2.8,9.1-1.8c3,0.9,5.4,3.4,6.3,6.4c0.5,1.7,0.6,3.5,0.1,5.3C1458.7,40.4,1458.2,40.3,1458.2,39.9L1458.2,39.9z
	 M1478.4,42.2l-46.7-1.3l-72.6-2.2c-0.4,0-0.4-0.6,0-0.6l93.1,2.8l26.2,0.9C1478.5,41.9,1478.5,42.2,1478.4,42.2L1478.4,42.2z
	 M1243.6,76.8c-0.1-3.5-1.9-6.9-4.8-8.9c-2.9-2-6.6-2.4-9.8-1.2c-1.9,0.7-3.5,1.8-4.8,3.3c-0.2,0.2-0.4,0.1-0.5-0.1
	c-4.8-7.5-12.1-13.3-20.5-16.5c-4.2-1.6-8.7-2.6-13.2-2.5c-4.4,0.1-9.2,1.5-12,5c-2.7,3.3-3.7,8.5-0.9,12.1c0.3,0.4-0.2,0.8-0.5,0.5
	c-3.3-3.8-9.1-5.2-13.7-3.1c0.1-0.2,0.1-0.3,0.1-0.5c1.4,3,3.4,5.8,5.9,8c0.3,0.2,0.1,0.6-0.3,0.6l-30.1,2.6L1130,77
	c-0.5,0.1-0.5-0.7,0-0.7l30.1-2.6l8.5-0.8c-0.1,0.2-0.2,0.4-0.3,0.6c-2.5-2.3-4.6-5.1-6-8.1c-0.1-0.2-0.1-0.4,0.1-0.5
	c4.8-2.2,11-0.9,14.5,3.2c-0.2,0.2-0.4,0.3-0.5,0.4c-2.5-3.2-2.1-7.7-0.3-11.1c2.2-4,6.3-6.2,10.6-6.8c4.8-0.8,9.7,0,14.3,1.5
	c4.4,1.4,8.6,3.5,12.4,6.3c4.2,3.1,7.9,6.9,10.8,11.4c-0.2,0-0.3-0.1-0.5-0.1c2.3-2.9,6.1-4.4,9.8-4.2c3.7,0.3,7,2.4,8.9,5.6
	c1.1,1.8,1.7,3.8,1.7,5.9C1244.2,77.2,1243.7,77.2,1243.6,76.8L1243.6,76.8z M1258.8,79.4c-6.3-1.4-12.8-1.8-19.3-2l-19.8-0.5
	l-62.3-1.5c-0.3,0-0.3-0.6,0-0.6l80.1,2c7.1,0.2,14.4,0.6,21.3,2.1C1259.2,79.1,1259.1,79.5,1258.8,79.4L1258.8,79.4z"/>
<path class="st0" d="M91.9,72.4H3L37.8,68c0.2-2-0.3-7.1-4.4-11.8s10.6,2,18.5,5.9c-1.5-1.7-1.9-7.1,8.1-14.8
	c12.6-9.6,37,15.5,44.4,14.8S111.8,72.4,91.9,72.4z M230.8,26.7c-6.4,3,0.9,7,5.4,8.7l90.3,3.1c1-0.4,3.2-1.7,4.1-4.3
	c1.1-3.1-2-6.7-6.7-9.3c-3.7-2.1-8.3,0.9-10.2,2.6c0.1-1.3-2-6.3-10.7-16.1c-10.9-12.2-23.1-10.9-35.2-9.8
	c-9.6,0.9-6.5,9.1-3.7,13.1c-0.9,0-3.3-0.4-6.3-2c-3.7-2-7-1.3-13,2c-4.7,2.7,2,9,5.9,11.8c-1.1-0.6-4.6-2.1-9.8-3
	C234.5,22.6,238.8,23,230.8,26.7L230.8,26.7z"/>
<path class="st1" d="M328.5,36.5c0.9-3.6-0.6-7.7-3.7-9.8c-3.2-2.1-7.7-1.8-10.7,0.6c-0.2,0.2-0.5,0.1-0.6-0.2
	c-2.9-8.6-9.1-15.9-16.8-20.6c-3.9-2.4-8.1-4.1-12.5-5.1c-4.6-1-9.8-1.3-14.3,0.2c-2.6,0.9-5,2.4-6.5,4.8c-1.4,2.2-1.9,5.1-0.9,7.5
	c0.1,0.3-0.1,0.7-0.5,0.6c-2.1-0.9-4.2-1.6-6.5-2c-2.1-0.4-4.4-0.8-6.6-0.5c-4.1,0.5-4.9,5.2-3.2,8.3c1.1,2,2.8,3.6,4.5,5.1
	c0.4,0.3-0.1,0.8-0.5,0.6c-3.5-1.7-7.4-2.6-11.2-2.5c-1,0-2,0.1-2.9,0.3c-0.9,0.2-1.8,0.3-2.6,0.6c-0.8,0.3-2.9,2.1-1.5,2.8
	c0.5,0.2,0.1,0.9-0.4,0.7c-1.5-0.7-0.7-2.4,0.2-3.2c1.4-1.4,3.6-1.6,5.5-1.8c4.6-0.5,9.3,0.4,13.4,2.4l-0.5,0.6
	c-2.9-2.6-6.2-5.9-5.5-10.2c0.3-1.7,1.3-3.3,2.9-4c2.1-0.9,4.6-0.5,6.8-0.3c2.9,0.4,5.7,1.2,8.3,2.3c-0.2,0.2-0.3,0.4-0.5,0.6
	c-1.9-4.5,0.7-9.6,4.5-12c4.4-2.7,10.1-2.8,15.1-2.2c9.4,1.3,18.3,6.1,24.6,13c3.6,3.9,6.4,8.6,8.1,13.7l-0.6-0.2
	c2.5-2.1,6-2.8,9.1-1.8c3,0.9,5.4,3.4,6.3,6.4c0.5,1.7,0.6,3.5,0.1,5.3C329.1,37,328.5,36.9,328.5,36.5L328.5,36.5z M348.8,38.8
	l-46.7-1.3l-72.6-2.2c-0.4,0-0.4-0.6,0-0.6l93.1,2.8l26.2,0.9C348.9,38.5,348.9,38.8,348.8,38.8L348.8,38.8z M114,73.4
	c-0.1-3.5-1.9-6.9-4.8-8.9s-6.6-2.4-9.9-1.2c-1.9,0.7-3.5,1.8-4.8,3.3c-0.1,0.1-0.4,0.1-0.5,0c0,0,0,0,0,0
	C89.3,59.1,82,53.3,73.6,50.1c-4.2-1.6-8.7-2.6-13.2-2.5c-4.4,0.1-9.1,1.5-12,5c-2.7,3.3-3.7,8.5-0.9,12.1c0.3,0.4-0.2,0.8-0.5,0.5
	c-3.3-3.8-9-5.2-13.7-3.1c0-0.2,0.1-0.3,0.1-0.5c1.4,3,3.4,5.8,5.9,8c0.3,0.2,0,0.6-0.3,0.6L8.9,72.8l-8.5,0.8
	c-0.5,0.1-0.5-0.7,0-0.7l30.1-2.6l8.5-0.8c-0.1,0.2-0.2,0.4-0.3,0.6c-2.5-2.3-4.6-5-6-8.1c0-0.2,0-0.4,0.1-0.5
	c4.9-2.2,11-0.9,14.5,3.2c-0.2,0.2-0.4,0.3-0.5,0.4c-2.5-3.2-2.1-7.7-0.3-11.1c2.2-4,6.3-6.2,10.6-6.8c4.8-0.8,9.7,0,14.3,1.5
	c4.4,1.4,8.6,3.5,12.4,6.3c4.2,3.1,7.9,6.9,10.8,11.4c-0.2,0-0.4-0.1-0.5-0.1c2.3-2.9,6.1-4.4,9.8-4.2c3.7,0.3,7,2.4,8.9,5.6
	c1.1,1.8,1.7,3.8,1.7,5.9C114.5,73.8,114,73.8,114,73.4L114,73.4z M129.2,76.1c-6.3-1.4-12.8-1.8-19.3-2l-19.8-0.5l-62.3-1.5
	c-0.4,0-0.4-0.6,0-0.6l80.1,2c7.1,0.2,14.4,0.6,21.3,2.1C129.6,75.7,129.5,76.1,129.2,76.1L129.2,76.1z"/>
<path class="st0" d="M920.7,55.4c4.6-2.5,8.3,2.3,9.6,5c-10.9,0.8-35.5,2.4-46.5,2s-37.1-0.2-48.7,0l-0.4-2.9l11-1.3
	c-0.9-0.9-3.6-3.2-7.2-5.3c-4.4-2.6,1.1-5.9,5.8-6.3c3.7-0.3,13.7,0.9,18.3,1.5c-1.8-2.6-5-8.8-3.1-13.2c2.3-5.5,15.8-2.1,31.8,2.8
	c12.9,3.9,19.9,17.3,21.9,23.4C913.8,60.2,916.1,57.9,920.7,55.4L920.7,55.4z"/>
<g class="st2">
	<path class="st3" d="M945,59.7c-13.6,1-27.3,1.6-41,1.8c-13.5,0.2-27.1,0-40.6-0.7c-7.7-0.3-15.4-0.8-23.1-1.4
		c-0.4,0-0.3-0.6,0.1-0.6c13.6,1,27.2,1.7,40.9,2c13.6,0.3,27.2,0.1,40.8-0.4c7.6-0.3,15.2-0.7,22.8-1.2
		C945.2,59.2,945.3,59.6,945,59.7L945,59.7z"/>
	<path class="st3" d="M928.4,62.6c-1.3-3.4-4.4-6-8-6.5c-3.7-0.6-7.6,1.2-9.7,4.3c-0.1,0.2-0.5,0.1-0.6-0.1
		c-3.6-9.6-10.9-17.5-19.8-22.3s-19.4-7-29.4-5c-1.5,0.3-3.3,0.5-4.5,1.5c-1.2,1-1.3,2.7-1,4.2c0.8,3.1,3.6,5.2,4.4,8.4
		c0.1,0.2-0.1,0.5-0.4,0.5c-4.8-1.2-9.8-2-14.8-2.2c-1.2,0-2.3-0.1-3.5,0c-1.1,0-2.2,0.3-2.9,1.2c-1.1,1.5-0.2,3.7,0.9,4.9
		c1.6,1.7,3.9,2.6,5.5,4.4c0.2,0.2,0,0.6-0.3,0.6c-4,0.4-8,0.9-12,1.6l0.3-0.4c-0.1,3.6-3.9,6.3-7.3,5.1c-0.5-0.2-0.1-0.8,0.3-0.7
		c2.8,1,6.2-1.3,6.2-4.3c0-0.2,0.1-0.4,0.3-0.4c4-0.7,8-1.3,12-1.6c-0.1,0.2-0.2,0.4-0.3,0.6c-1.6-1.7-3.8-2.6-5.4-4.3
		c-1.2-1.3-2-3.2-1.4-4.9c0.7-2.2,3.1-2.3,5.1-2.4c2.7,0,5.4,0.2,8.1,0.5c3.1,0.4,6.2,0.9,9.2,1.7l-0.4,0.5c-0.8-3-3.4-5-4.3-7.9
		c-0.4-1.2-0.5-2.4-0.1-3.6c0.4-1.3,1.4-2.1,2.6-2.6c1.3-0.5,2.7-0.8,4-1c1.3-0.2,2.6-0.4,4-0.5c2.6-0.2,5.2-0.1,7.8,0.1
		c10.5,1.1,20.6,6.1,28.1,13.6c4.2,4.2,7.5,9.2,9.5,14.7c-0.2,0-0.4-0.1-0.6-0.1c1.7-2.5,4.6-4.2,7.7-4.5c3-0.3,6,0.8,8.2,2.8
		c1.2,1.2,2.2,2.6,2.8,4.2C929,62.7,928.5,62.9,928.4,62.6L928.4,62.6z"/>
</g>
</svg>
