<svg xmlns="http://www.w3.org/2000/svg" xmlns:xlink="http://www.w3.org/1999/xlink" width="157" height="477" fill="none"><g opacity=".2"><path d="M155.12 138.554L5.867 117.284v97.547l150.17 22.92-.917-99.197z" fill="url(#A)"/><path d="M156.038 260.12L5.867 235.367v95.163l150.17 25.304V260.12z" fill="url(#A)"/><path d="M155.815 377.858L5.867 353.413v99.967l150.17 23.066-.223-98.588z" fill="url(#A)"/><path d="M155.776 378.244l.04 19.72v19.103l-.04 18.833-.077 18.9-.116 19.257-.038 2.508c0 .502.772.502.772 0l.154-19.45.078-18.95.038-18.832V400.28l-.038-22.074c0-.463-.773-.463-.773.038z" fill="url(#A)"/><path d="M155.236 259.806l.502 92.852v2.2c0 .5.772.5.772 0l-.154-36.624-.348-58.39c-.04-.502-.81-.54-.772-.04z" fill="url(#A)"/><path d="M5.6 352.697l.193 100.994c0 .502.772.502.772 0L6.374 352.62c0-.424-.772-.424-.772.078z" fill="url(#A)"/><path d="M5.37 236.612l.193 93.393c0 .5.772.5.772 0l-.193-93.393c0-.5-.772-.5-.772 0z" fill="url(#A)"/><path d="M8.652 454.31l145.89 22.576c.502.077.695-.656.193-.733L8.845 453.576c-.502-.077-.695.694-.193.733z" fill="url(#A)"/><path d="M154.85 259.613l-28.923-4.9-28.962-4.786-29.193-4.708-29.04-4.515-29.077-4.322-3.59-.502c-.502-.077-.695.656-.193.733l29.077 4.284 29.04 4.477 29.193 4.67 28.96 4.786 28.962 4.862 3.59.618c.464.115.657-.618.155-.695z" fill="url(#A)"/><path d="M5.794 330.468l150.02 25.24c.502.077.695-.656.193-.734l-29.04-4.9L5.987 329.734c-.463-.115-.695.618-.193.734z" fill="url(#A)"/><path d="M5.794 352.812l87.966 14.704 62.055 10.342c.502.078.695-.656.193-.733L5.987 352.08c-.463-.077-.695.656-.193.733z" fill="url(#A)"/><path d="M146.856 355.05c0 6.908.31 13.777.464 20.646l.077 5.866c0 .502.772.502.772 0 0-6.946-.31-13.854-.463-20.8l-.077-5.71c0-.502-.773-.502-.773 0z" fill="url(#A)"/><path d="M14.87 332.01l.27 23.078.04 5.673c0 .502.772.502.772 0l-.27-22.113-.04-6.638c0-.463-.772-.463-.772 0z" fill="url(#A)"/><path d="M16.414 216.66l-.04 28.983c0 .5.772.5.772 0l.04-28.983c0-.5-.772-.5-.772 0z" fill="url(#A)"/><path d="M147.474 236.65l.04 29.098c0 .502.772.502.772 0l-.038-29.137c0-.424-.773-.424-.773.04z" fill="url(#A)"/><path d="M16.49-61.973l.232 32.88.502 38.94.58 41.023.463 39.557.077 34.5-.04 3.628c0 .502.772.502.772 0V95.057l-.425-39.248-1.12-80.27-.27-33.922v-3.55c0-.54-.772-.54-.772-.04z" fill="url(#A)"/><path d="M145.93-60.815l.193 34.656 1.467 130.557.232 35.157v3.59c0 .502.772.502.772 0l-.193-34-1.467-130.48-.232-39.48c0-.502-.772-.502-.772 0z" fill="url(#A)"/><path d="M147.63 381.602c-.657-.232-1.352.154-1.7.733s-.27 1.312.27 1.775c.463.386 1.12.54 1.7.348.31-.116.54-.31.734-.58.154-.232.23-.54.23-.81.04-.617-.347-1.312-1.004-1.428-.193-.038-.425.04-.463.27-.04.193.038.424.27.463.04 0 .077.038.116.038-.077-.038.077.04 0 0 .04 0 .04.04.077.04l.04.038-.04-.038.04.038.038.04.04.04c.04.038-.04-.077-.04-.04.04.04.04.077.078.116 0 .038.038.038.038.077.04.04 0-.04 0-.04v.04c0 .04.04.077.04.116v.077c0-.077 0 .077 0 0v.27c0 .04 0-.038 0-.038 0 .038 0 .077-.04.154 0 .04 0 .04-.038.077v.04c0 .038-.04.038 0-.04-.04.04-.04.077-.078.116 0 .04-.038.038-.038.077 0 0 .038-.077.038-.04 0 0 0 .04-.038.04l-.116.116c0-.04.077-.04.04 0l-.04.038c-.04 0-.04.04-.077.04s-.04.04-.077.04c-.04.038.077-.04.038 0h-.038c-.04 0-.116.038-.155.038h-.04c.078 0-.038 0-.038 0h-.232c-.038 0 .04 0 .04 0h-.04c-.038 0-.116-.038-.154-.038s-.04 0-.078-.04c0 0-.115-.04-.038 0s0 0-.04 0-.038-.04-.077-.04-.04-.038-.077-.038l-.04-.04c-.038-.038.04.04.04.04l-.155-.155c-.038-.038.04.078.04.04v-.04c-.04-.038-.04-.115-.077-.154 0 0 .038.077 0 .04v-.04c0-.038 0-.038-.04-.077v-.04c0-.038 0 .04 0 .04v-.193c0 .077 0-.077 0 0 0-.04.04-.116.04-.154.038-.078-.04.038 0-.04 0-.04.038-.077.038-.077 0-.04.04-.04.04-.077 0 0 0-.04.04-.04.038-.04.077-.116.154-.154 0 0 .04 0 .04-.04-.078.04.038-.038 0 0 .038 0 .038-.04.077-.04s.077-.038.077-.038c.077-.04-.077 0 .04 0 .038 0 .038 0 .077-.04 0 0 .077 0 .077-.038h-.038.193c.038 0 .077 0 .115.038.194.077.425-.077.464-.27.038-.27-.077-.463-.27-.54z" fill="url(#A)"/><path d="M16.028 360.222c-.656-.232-1.352.154-1.7.733s-.27 1.312.27 1.775c.463.386 1.12.54 1.7.348.31-.116.54-.31.734-.58.154-.232.232-.54.232-.8.04-.618-.348-1.313-1.004-1.428-.193-.04-.425.038-.463.27-.04.193.04.424.27.463.04 0 .077.038.116.038-.077-.038.077.04 0 0 .04 0 .04.04.077.04l.04.04-.04-.04.04.04.04.038.04.04c.04.038-.04-.077-.04-.04.04.04.04.077.077.116 0 .04.04.04.04.077.04.04 0-.038 0-.038v.038c0 .04.04.077.04.116v.077c0-.077 0 .077 0 0v.27c0 .04 0-.038 0-.038 0 .038 0 .077-.04.154 0 .04 0 .04-.04.077v.04c0 .038-.04.038 0-.04-.04.04-.04.077-.077.116 0 .04-.04.04-.04.077 0 0 .04-.077.04-.038 0 0 0 .038-.04.038l-.116.116c0-.04.077-.04.04 0l-.04.04c-.04 0-.04.038-.077.038s-.04.04-.077.04c-.04.038.077-.04.04 0h-.04c-.04 0-.116.038-.155.038h-.04c.077 0-.04 0-.04 0h-.232c-.04 0 .04 0 .04 0h-.04c-.04 0-.116-.038-.155-.038s-.04 0-.077-.04c0 0-.116-.038-.04 0s0 0-.04 0-.04-.038-.077-.038-.04-.04-.077-.04l-.04-.04c-.04-.038.04.04.04.04l-.116-.116-.04-.038c-.04-.04.04.077.04.038v-.038c-.04-.04-.04-.116-.077-.155 0 0 .04.077 0 .04v-.04c0-.038 0-.038-.04-.077v-.04c0-.038 0 .04 0 .04v-.193c0 .077 0-.077 0 0 0-.038.04-.116.04-.154.04-.077-.04.038 0-.04 0-.038.04-.077.04-.077 0-.04.04-.04.04-.077 0 0 0-.04.04-.04.04-.038.077-.116.155-.154 0 0 .04 0 .04-.04-.077.04.04-.038 0 0 .04 0 .04-.038.077-.038s.077-.04.077-.04c.077-.04-.077 0 .04 0 .04 0 .04 0 .077-.04 0 0 .077 0 .077-.038h-.04.193c.04 0 .077 0 .116.038.193.078.425-.077.463-.27a.4.4 0 0 0-.27-.54z" fill="url(#A)"/><path d="M16.993 245.72c-.656-.232-1.35.154-1.7.733s-.27 1.312.27 1.775c.463.386 1.12.54 1.7.348.31-.116.54-.31.734-.58a1.52 1.52 0 0 0 .232-.811c.04-.617-.348-1.312-1.004-1.427-.193-.04-.425.038-.463.27-.04.193.04.424.27.463.04 0 .077.038.116.038-.077-.038.077.04 0 0 .04 0 .04.04.077.04l.04.04-.04-.04.04.04.04.038.04.04c.04.038-.04-.077-.04-.04.04.04.04.077.077.116 0 .04.04.04.04.077s0-.038 0-.038v.038c0 .04.04.077.04.116v.077c0-.077 0 .077 0 0v.27c0 .04 0-.038 0-.038 0 .038 0 .077-.04.154 0 .04 0 .04-.04.077v.04c0 .038-.04.038 0-.04-.04.04-.04.077-.077.116 0 .04-.04.04-.04.077 0 0 .04-.077.04-.038 0 0 0 .038-.04.038l-.116.116c0-.04.077-.04.04 0l-.04.04c-.04 0-.04.038-.077.038s-.04.04-.077.04c-.04.038.077-.04.04 0h-.04c-.04 0-.116.038-.154.038h-.04c.077 0-.04 0-.04 0h-.232c-.04 0 .04 0 .04 0h-.04c-.04 0-.116-.038-.154-.038s-.04 0-.077-.04c0 0-.116-.038-.04 0s0 0-.04 0-.04-.038-.077-.038-.04-.04-.077-.04l-.04-.04c-.04-.038.04.04.04.04l-.116-.116-.04-.038c-.04-.04.04.077.04.038v-.038c-.04-.04-.04-.116-.077-.155 0 0 .04.077 0 .04v-.04c0-.038 0-.038-.04-.077v-.04c0-.038 0 .04 0 .04v-.193c0 .077 0-.077 0 0 0-.04.04-.116.04-.154.04-.078-.04.038 0-.04 0-.04.04-.077.04-.077 0-.04.04-.04.04-.077 0 0 0-.04.04-.04.04-.038.077-.116.155-.154 0 0 .04 0 .04-.04-.077.04.04-.038 0 0 .04 0 .04-.038.077-.038s.077-.04.077-.04c.077-.04-.077 0 .04 0 .04 0 .04 0 .077-.04 0 0 .077 0 .077-.038h-.04.193c.04 0 .077 0 .116.038.193.078.425-.077.463-.27.04-.27-.077-.463-.27-.54z" fill="url(#A)"/><path d="M154.618 138.975l.232 58.467.23 40.405c0 .502.773.502.773 0l-.232-37.974-.232-60.898c0-.463-.772-.463-.772 0z" fill="url(#A)"/><path d="M5.254 117.402v37.473l.04 37.858.04 21.612c0 .5.772.5.772 0l-.077-96.943c0-.502-.772-.502-.772 0z" fill="url(#A)"/><path d="M5.254 117.48l149.403 21.226c.502.077.695-.656.193-.734L5.447 116.746c-.463-.077-.695.656-.193.733z" fill="url(#A)"/><path d="M5.254 215.04l29.27 4.477 117.7 18.33 3.59.54c.502.077.695-.657.193-.734l-29.27-4.476-29.387-4.593-29.618-4.67-29.386-4.593-32.9-5.017c-.463-.077-.695.656-.193.733z" fill="url(#A)"/><path d="M18.808 128.015c-.656-.232-1.35.154-1.7.733s-.27 1.312.27 1.775c.463.386 1.12.54 1.7.348.31-.116.54-.31.734-.58.154-.232.232-.54.232-.81.04-.617-.347-1.312-1.004-1.428-.193-.038-.425.04-.463.27-.04.193.04.424.27.463.04 0 .077.038.116.038-.077-.038.077.04 0 0 .04 0 .04.04.077.04l.04.038-.04-.038.04.038.077.078c.04.038-.04-.078-.04-.04.04.04.04.077.077.116 0 .038.04.038.04.077s0-.04 0-.04v.04c0 .04.04.077.04.116v.077c0-.077 0 .077 0 0v.27c0 .04 0-.04 0-.04 0 .04 0 .078-.04.155 0 .038 0 .038-.04.077v.04c0 .038-.04.038 0-.04-.04.04-.04.077-.077.116 0 .038-.04.038-.04.077 0 0 .04-.077.04-.04 0 0 0 .04-.04.04l-.116.116c0-.04.077-.04.04 0h-.04c-.04 0-.04.038-.077.038s-.04.04-.077.04c-.04.04.077-.04.04 0h-.04c-.04 0-.116.04-.154.04h-.04c.077 0-.04 0-.04 0h-.232c-.04 0 .04 0 .04 0h-.04c-.04 0-.116-.04-.154-.04s-.04 0-.077-.04c0 0-.116-.038-.04 0s0 0-.04 0-.04-.038-.077-.038-.04-.04-.077-.04l-.04-.038a.58.58 0 0 1 .039.038l-.116-.116-.04-.038c-.04-.04.04.077.04.038v-.038c-.04-.04-.04-.116-.077-.155 0 0 .04.078 0 .04v-.04c0-.038 0-.038-.04-.077v-.038c0-.04 0 .038 0 .038v-.193c0 .077 0-.077 0 0 0-.038.04-.115.04-.154.04-.077-.04.04 0-.04 0-.038.04-.077.04-.077 0-.038.04-.038.04-.077 0 0 0-.04.04-.04.04-.038.077-.115.155-.154 0 0 .04 0 .04-.04-.077.04.04-.038 0 0 .04 0 .04-.038.077-.038s.077-.04.077-.04c.077-.038-.077 0 .04 0 .04 0 .04 0 .077-.038 0 0 .077 0 .077-.04h-.04.193c.04 0 .077 0 .116.04.193.077.425-.078.463-.27.04-.27-.077-.464-.27-.502z" fill="url(#A)"/><path d="M148.015 142.95c-.657-.232-1.352.154-1.7.733s-.27 1.312.27 1.775c.463.386 1.12.54 1.7.348.31-.116.54-.31.734-.58.154-.232.23-.54.23-.81.04-.617-.347-1.312-1.004-1.428-.193-.038-.424.04-.463.27-.04.193.04.424.27.463.04 0 .078.038.116.038-.077-.038.077.04 0 0 .04 0 .04.04.077.04l.04.038-.04-.038.04.038.04.04.038.04c.04.038-.038-.078-.038-.04.038.04.038.077.077.116 0 .038.04.038.04.077s0-.04 0-.04v.04c0 .04.038.077.038.116v.077c0-.077 0 .077 0 0v.27c0 .04 0-.04 0-.04 0 .04 0 .078-.038.155 0 .038 0 .038-.04.077v.04c0 .038-.04.038 0-.04-.04.04-.04.077-.077.116 0 .038-.04.038-.04.077 0 0 .04-.077.04-.04 0 0 0 .04-.04.04l-.116.116c0-.04.077-.04.04 0l-.04.038c-.038 0-.038.04-.077.04s-.04.04-.077.04c-.04.038.077-.04.038 0h-.038c-.04 0-.116.038-.155.038h-.038c.077 0-.04 0-.04 0h-.232c-.038 0 .04 0 .04 0h-.04c-.038 0-.116-.038-.154-.038s-.04 0-.077-.04c0 0-.116-.04-.04 0s0 0-.04 0-.038-.04-.077-.04-.038-.038-.077-.038l-.04-.04c-.038-.038.04.04.04.04l-.155-.155c-.038-.038.04.078.04.04v-.04c-.04-.038-.038-.115-.077-.154 0 0 .04.077 0 .04v-.04c0-.04 0-.04-.04-.077v-.04c0-.038 0 .04 0 .04v-.193c0 .077 0-.077 0 0 0-.04.04-.116.04-.154.04-.078-.04.038 0-.04 0-.04.038-.077.038-.077 0-.04.04-.04.04-.077 0 0 0-.04.04-.04.038-.04.077-.116.154-.154 0 0 .04 0 .04-.04-.077.04.038-.04 0 0 .038 0 .038-.04.077-.04s.077-.038.077-.038c.077-.04-.077 0 .04 0 .038 0 .04 0 .077-.04 0 0 .077 0 .077-.038h-.038.193c.038 0 .077 0 .116.038.193.077.424-.077.463-.27.04-.27-.077-.463-.27-.54z" fill="url(#A)"/><path d="M147.976 265.672c-.656-.232-1.35.154-1.7.733s-.27 1.312.27 1.775c.464.386 1.12.54 1.7.348.31-.116.54-.31.734-.58.155-.232.232-.54.232-.81.038-.617-.348-1.312-1.004-1.427-.193-.04-.425.038-.464.27-.038.193.04.424.27.463.038 0 .077.038.116.038-.078-.038.077.04 0 0 .038 0 .038.04.077.04l.038.04-.038-.04.038.04.04.038.04.04c.038.038-.04-.077-.04-.04.04.04.04.077.077.116 0 .04.04.04.04.077.038.04 0-.038 0-.038v.038c0 .04.038.077.038.116v.077c0-.077 0 .077 0 0v.27c0 .04 0-.038 0-.038 0 .038 0 .077-.038.154 0 .04 0 .04-.04.077v.04c0 .038-.038.038 0-.04-.038.04-.038.077-.077.116 0 .04-.04.04-.04.077 0 0 .04-.077.04-.038 0 0 0 .038-.04.038l-.115.116c0-.04.077-.04.038 0h-.038c-.04 0-.04.04-.078.04s-.038.038-.077.038c-.04.04.077-.038.04 0h-.04c-.04 0-.116.04-.154.04h-.04c.077 0-.04 0-.04 0h-.23c-.04 0 .038 0 .038 0h-.038c-.04 0-.116-.04-.155-.04s-.038 0-.077-.038c0 0-.116-.04-.04 0s0 0-.038 0-.04-.04-.077-.04-.04-.04-.078-.04l-.038-.038c-.04-.04.038.038.038.038l-.116-.115-.038-.04c-.04-.04.038.077.038.04v-.04c-.038-.04-.038-.116-.077-.154 0 0 .04.077 0 .038v-.038c0-.04 0-.04-.038-.078v-.038c0-.04 0 .038 0 .038v-.193c0 .078 0-.077 0 0 0-.038.038-.115.038-.154.04-.077-.038.04 0-.04 0-.038.04-.077.04-.077 0-.038.038-.038.038-.077 0 0 0-.038.04-.038.04-.04.077-.116.155-.155 0 0 .038 0 .038-.038-.077.038.04-.04 0 0 .04 0 .04-.04.077-.04s.078-.04.078-.04c.077-.038-.078 0 .038 0 .04 0 .04 0 .078-.038 0 0 .077 0 .077-.04h-.04.193c.04 0 .077 0 .116.04.193.077.425-.077.463-.27.04-.27-.077-.425-.27-.502z" fill="url(#A)"/></g><path d="M149.254 132.686L0 111.417v97.546l150.17 22.92-.917-99.197zm1.65 120.834L.733 230.863v93.066l150.17 25.303V253.52zm-.917 118.595L.733 348.278v99.968l150.17 23.066-.917-99.197z" fill="#fe6869"/><g fill="#181d23"><path d="M29.193 270.42l.2-13.24 5.4.8-.2 13.24-5.4-.8zm7.56-14.16l-9.28-1.36-.24 17.16 9.28 1.36.24-17.158zm5.957.88l-3.6-.56-.04 2 1.64.24-.12 7.96 1.96.28.16-9.92zm5.72.8l-3.6-.52-.04 2 1.64.24-.12 7.96 2 .28.12-9.96zm6.92 1l-4.28-.6-.04 2 2.32.32-.2 12.078c0 .76-.32 1.08-.92 1l-2.16-.32-.04 1.92 2.24.32c1.88.28 2.8-.6 2.84-2.6l.24-14.118zm8 1.16l-5.76-.84-.04 2 2.76.4-.52.92c-.6 1.08-.92 2.72-.96 5v1.2l.48 7.92 2 .28-.52-8.68v-1.28c.04-2.04.28-3.64.8-4.72.12-.32.24-.48.36-.44l1.36.2.04-1.96zm11.198 1.64l-1.96-.28-.12 7.12c0 .68-.4 1.32-1.2 1.88l-4.2-9.8-2.08-.28 2.6 6.32-.56.48c-.8.68-1.28 1.16-1.48 1.4-.28.44-.44 1-.44 1.76l-.12 7.2 1.96.28.12-7.44c0-.72.44-1.4 1.32-2.08l4.44 10.36 2.04.28-2.88-6.88.76-.64c.6-.56 1.04-1.04 1.28-1.44.28-.52.44-1.24.48-2.08l.04-6.16zm17.6 2.52l-8.48-1.24-.2 14.48c0 .52-.24.72-.72.64l-1.08-.16-.04 1.92 1.16.16c.84.12 1.48-.08 1.92-.56s.68-1.16.68-2l.2-12.24 4.56.64-.24 15.16 1.96.28.28-17.08zm5 5.84l-1.96-.28-.24 15.598 1.96.28.24-15.598zm7-4.08l-9.28-1.36-.04 2 7.32 1.04-.08 5.8c-.04 1.76-.44 3.36-1.24 4.88l-1.96 3.84v.2l2 .28 1.4-2.84c1.16-2.28 1.76-4.36 1.76-6.16l.12-7.68zm4.2-3.08l-2-.28-.08 5.64 6.28.92-.08 5.4c-.04 1.48-.44 2.92-1.28 4.28l-2.72 4.68v.2l2 .28 2.16-3.64c1.2-2.04 1.8-3.96 1.84-5.72l.12-7.24-6.32-.84.08-3.68zm17.358 6.2l-8.96-1.32-.04 2 5.68.8-.24 15.158 2 .28.2-15.158 1.36.2v-1.96zm-84.03 20.518l-7.88-1.12-.28 17.438 3.08.44.2-14.358 4.72.68c.48.08.72.36.68.88l-.12 9.32 3.08.44.16-9.44c.04-1.36-.24-2.36-.8-3.04-.52-.6-1.48-1.04-2.84-1.24zm8 1.16l-3.08-.44-.2 13.358c0 .68-.28 1-.84.92l-4.56-.68.16-9.88-3.08-.44-.2 12.92 7.36 1.08c1.32.2 2.36-.08 3.12-.84s1.16-1.84 1.16-3.24l.16-12.758zm14.158-2.04c-2.16-.32-3.64.16-4.52 1.36-.56.84-.88 2.16-.92 3.96l4.12.6c.04-1.72.44-2.56 1.24-2.44.44.08.76.28.92.64s.24 1 .24 1.84c-.04 1.44-.56 3-1.64 4.6l-5 7.64-.04 2.56 11.16 1.6.04-3.52-5.76-.84 3.56-5.16c1.4-2.04 2.16-4.16 2.16-6.28.04-3.84-1.8-6.04-5.56-6.56z"/><use xlink:href="#C"/><path d="M81.268 309.776c-.6-.08-.92-.64-1-1.64-.12-.72-.12-2.72-.08-6l.28-6c.12-.96.48-1.44 1.04-1.32.56.08.92.64 1.04 1.64.08.84.12 2.84.08 6.04l-.24 5.96c-.2.96-.56 1.4-1.12 1.32zm.24-18.478c-2.28-.32-3.8.32-4.6 1.92-.68 1.4-1.04 4.16-1.12 8.28-.08 4.04.24 6.88.92 8.48.76 1.8 2.24 2.84 4.48 3.16 2.2.32 3.72-.36 4.56-2 .72-1.44 1.08-4.12 1.16-8.04.08-4.2-.24-7.08-.88-8.64-.72-1.76-2.24-2.8-4.52-3.16zm9.28 15.158l3.16-8.96.2.04-.12 9.4-3.24-.48zm7.56-12.44l-5.92-.84-4.28 11.44c-.24.6-.36 1.16-.36 1.72l-.04 3.52 6.24.92-.04 3.96 4.12.6.04-3.96 1.4.2.04-3.84-1.4-.2.2-13.52zm7.558 19.6c-.6-.08-1-.48-1.16-1.2-.12-.44-.16-1.32-.16-2.56.04-1.36.08-2.24.24-2.68.2-.6.6-.84 1.2-.76s1 .48 1.16 1.2c.08.4.12 1.28.12 2.64 0 1.24-.08 2.04-.2 2.48-.2.68-.6.96-1.2.88zm.16-9.92a1.14 1.14 0 0 1-1-.959c-.08-.28-.12-1-.12-2.08 0-1.16.08-1.88.16-2.12.12-.56.48-.84 1.08-.76.52.08.88.44 1.04 1.08.08.32.08 1 .08 2.08 0 1.04-.08 1.72-.16 2.04-.2.6-.56.8-1.08.72zm.12-9c-3.4-.48-5.16 1.12-5.2 4.88-.04 1.44.12 2.56.44 3.32.32.68.88 1.24 1.68 1.72-1.04.2-1.76.68-2.16 1.48-.44.76-.64 1.96-.68 3.52-.08 4.28 1.8 6.72 5.56 7.24 3.76.56 5.64-1.36 5.72-5.64.04-1.8-.2-3.16-.68-4.08-.4-.72-1.08-1.28-2.04-1.76.76-.32 1.32-.76 1.68-1.32.44-.72.64-1.72.68-3.04.08-3.72-1.56-5.8-5-6.32zM39.112 149.647l-1.96-.28-.16 10.56 1.96.28.16-10.56zm6.88-5.6l-9.12-1.32-.04 2 7.16 1.04-.24 15.16 1.96.28.28-17.16zm5.918.88l-3.64-.52v1.96l1.64.24-.12 7.96 1.96.28.16-9.92zm6.36 16.24c-1.16-.16-1.72-.88-1.68-2.16l.16-11.4 5.16.76-.16 11.32c0 1.32-.64 1.92-1.88 1.72l-1.6-.24zm5.64-14.52l-9.08-1.32-.2 12.68c-.04 3.04 1.32 4.72 4.12 5.12l.56.08c2.88.4 4.36-.88 4.4-3.92l.2-12.64z"/><use xlink:href="#D"/><path d="M79.788 145.287l-1.96-.28-.08 5.64 6.28.92-.08 5.4c-.04 1.48-.44 2.92-1.28 4.28l-2.72 4.68v.2l2 .28 2.16-3.64c1.2-2.04 1.8-3.96 1.84-5.72l.12-7.24-6.28-.92v-3.6zm12.04 5.4l-3.64-.52-.04 1.96 1.64.24-.12 7.96 2 .28.16-9.92z"/><use xlink:href="#D" x="27.677" y="3.999"/><path d="M115.104 154.046l-1.96-.28-.12 7.12c0 .68-.4 1.32-1.16 1.88l-4.2-9.8-2.08-.28 2.6 6.32-.56.48c-.8.68-1.28 1.16-1.48 1.4-.28.44-.44 1-.44 1.76l-.12 7.2 1.96.28.12-7.44c0-.72.44-1.4 1.32-2.08l4.44 10.36 2.04.28-2.92-6.88.76-.64c.6-.56 1.04-1.04 1.28-1.4.28-.52.44-1.24.48-2.08l.04-6.2zm-73.552 20.838l-7.88-1.12-.28 17.44 3.08.44.2-14.36 4.72.68c.48.08.72.36.68.88l-.12 9.32 3.08.44.16-9.44c.04-1.36-.24-2.36-.8-3.04-.56-.6-1.52-1.04-2.84-1.24zm7.96 1.16l-3.08-.44-.2 13.36c0 .68-.28 1-.84.92l-4.6-.64.16-9.88-3.08-.44-.2 12.92 7.36 1.08c1.32.2 2.36-.08 3.12-.84s1.16-1.84 1.16-3.24l.2-12.8z"/><use xlink:href="#E"/><use xlink:href="#C" x="-0.16" y="-114.774"/><path d="M84.747 177.324l-3.16-.44c-.8 1-2.28 1.48-4.48 1.4l-.04 2.8 1.48.28c.76.12 1.36.16 1.8.12l-.24 16.518 4.32.64.32-21.318z"/><use xlink:href="#E" x="29.756" y="4.28"/><path d="M105.745 198.602c-.6-.08-.92-.64-1-1.64-.12-.76-.12-2.72-.08-6l.28-6c.12-.96.48-1.44 1.04-1.36s.92.64 1.04 1.64c.08.84.12 2.84.08 6.04l-.24 5.96c-.2 1-.56 1.44-1.12 1.36zm.28-18.478c-2.28-.32-3.8.32-4.6 1.92-.68 1.36-1.08 4.16-1.12 8.28-.08 4.04.24 6.88.92 8.48.76 1.8 2.24 2.84 4.48 3.16 2.2.32 3.72-.36 4.56-2 .72-1.44 1.08-4.12 1.16-8.04.08-4.2-.24-7.08-.88-8.64-.76-1.8-2.24-2.84-4.52-3.16zM43.07 370.978l-8.48-1.24-.2 14.438c0 .52-.24.72-.72.64l-1.08-.16-.04 1.92 1.16.16c.84.12 1.48-.08 1.92-.56s.68-1.16.68-2l.2-12.24 4.56.64-.24 15.16 2 .28.24-17.04zm5.92.88l-3.64-.52-.04 1.96 1.64.24-.12 7.96 2 .28.16-9.92zm9.918 1.44l-7.44-1.08-.04 2 5.52.76-.2 13.24-5.72-.84-.04 1.96 8.76 1.24.04-1.92-1.08-.16.2-15.2zm10.52 1.52l-7.48-1.08v1.96l5.48.8-.2 13.24-5.72-.84v1.96l8.72 1.24.04-1.92-1.08-.16.24-15.2zm10.12-2.2l-2-.28-.08 5.64 6.28.92-.08 5.4c-.04 1.48-.44 2.92-1.28 4.28l-2.72 4.68v.2l2 .28 2.16-3.64c1.2-2.04 1.8-3.96 1.84-5.72l.12-7.24-6.28-.92.04-3.6zm12.04 5.4l-3.64-.52-.04 1.96 1.68.24-.24 15.158 1.96.28.28-17.118zm11.28 1.64l-8.96-1.32-.04 2 5.68.8-.24 15.16 2 .28.2-15.12 1.36.16v-1.96zm5.32.76l-3.64-.52-.04 1.96 1.64.24-.12 7.96 2 .28.16-9.92zm5.16.76l-2.68-.4-.04 2 2.44.36c.32.04.48.28.44.64l-.12 6.72c0 .8-.16 1.48-.44 2-.2.36-.6.8-1.16 1.4l-1.96 2-.04 2.28.28.04 1.48-1.4c.76-.72 1.24-1.44 1.52-2.2l.24-.6c.04-.08.08-.12.08-.12.04 0 .04.08.04.16l-.08 4.32 1.92.28.2-14.76c.04-1.64-.68-2.52-2.12-2.72zm-57.075 22.638l-1.96-.28-.16 10.56 1.96.28.16-10.56zm6.88-5.6l-9.12-1.32-.04 2 7.16 1.04-.24 15.158 1.96.28.28-17.158zm8 1.16l-5.72-.84-.04 2 2.76.4-.52.92c-.6 1.08-.92 2.72-.96 5v1.2l.44 7.92 2.04.28-.52-8.68v-1.28c.04-2.04.28-3.64.8-4.72.12-.32.24-.48.36-.44l1.36.2v-1.96zm11.36 1.64l-9.04-1.32-.28 17.118 1.96.28.2-15.16 5.2.76-.24 15.16 1.96.28.24-17.12zm5 7.32l-1.96-.28-.16 10.56 1.96.28.16-10.56zm6.92-5.6l-9.12-1.32-.04 2 7.16 1.04-.24 15.16 1.96.28.28-17.16zM39.83 424.773l-7.88-1.12-.24 17.44 3.08.44.2-14.358 4.72.68c.48.08.72.36.68.88l-.12 9.32 3.08.44.12-9.4c.04-1.36-.24-2.36-.8-3.04-.56-.64-1.52-1.08-2.84-1.28zm8 1.16l-3.08-.44-.2 13.36c0 .68-.28 1-.84.92l-4.64-.68.16-9.88-3.08-.44-.2 12.918 7.36 1.08c1.32.2 2.36-.08 3.12-.84s1.16-1.84 1.16-3.24l.24-12.76zm11.318 11.36l3.2-8.96.2.04-.12 9.4-3.28-.48zm7.56-12.44l-5.92-.84-4.28 11.44c-.24.6-.36 1.16-.36 1.72l-.04 3.48 6.24.92-.04 3.96 4.12.6.04-3.96 1.4.2.04-3.84-1.4-.2.2-13.48z"/><use xlink:href="#C" x="-1.841" y="135.114"/><path d="M84.586 427.453l-10.28-1.48-.2 12.44 4.04.6c.04-1.56.4-2.28 1.12-2.16.56.08.92.44 1.04 1.08.08.4.08 1.44.08 3.08-.04 1.56-.08 2.52-.24 3-.16.6-.48.88-1 .8-.72-.12-1.08-.88-1.04-2.36l-4.32-.64c-.04 3.84 1.68 6 5.16 6.48 2.2.32 3.76-.12 4.68-1.36.8-1.08 1.2-2.96 1.24-5.6s-.36-4.52-1.16-5.68c-.64-.92-1.68-1.48-3.08-1.68-1.08-.16-1.84 0-2.36.4l.04-4 6.12.88.16-3.8zm7.2 19.277c-.48-.08-.8-.4-.92-1-.08-.48-.12-1.44-.12-2.92l.08-2.24c.16-1.04.52-1.52 1.04-1.44.56.08.92.68 1.04 1.76v2.4l-.08 2.16c-.12.92-.48 1.36-1.04 1.28zm.24-18.518c-2.36-.36-3.92.24-4.68 1.72-.68 1.36-1.08 4.28-1.12 8.8-.04 3.96.24 6.68.84 8.16.76 1.76 2.36 2.84 4.76 3.2 1.96.28 3.4-.12 4.28-1.2.8-1 1.24-2.64 1.28-5 .04-2.56-.28-4.4-1-5.48-.64-.96-1.72-1.56-3.28-1.8-1-.16-1.8.16-2.4.96l.04-2.92.08-1.88c.16-.88.48-1.24.92-1.2.8.12 1.16 1.04 1.12 2.84l4.16.6c.08-2.32-.36-4-1.32-5.12-.8-.84-2-1.44-3.68-1.68zm12.04 20.518c-.6-.08-1-.48-1.16-1.2-.12-.44-.16-1.32-.16-2.56.04-1.36.08-2.24.24-2.68.2-.6.6-.84 1.2-.76s1 .48 1.16 1.2c.08.4.12 1.28.12 2.64 0 1.24-.08 2.04-.2 2.48-.24.68-.64.96-1.2.88zm.16-9.92a1.14 1.14 0 0 1-1-.96c-.08-.28-.12-1-.12-2.12 0-1.16.08-1.88.16-2.08.12-.6.48-.84 1.08-.76.52.08.88.44 1.04 1.12.08.32.08 1 .08 2.08 0 1.04-.08 1.72-.16 2.04-.24.56-.56.76-1.08.68zm.12-8.96c-3.4-.48-5.16 1.12-5.2 4.88-.04 1.44.12 2.56.44 3.32.32.68.88 1.24 1.68 1.72-1.04.2-1.76.68-2.16 1.48-.44.8-.64 1.96-.68 3.52-.08 4.28 1.8 6.68 5.56 7.24s5.64-1.36 5.72-5.64c.04-1.8-.2-3.16-.68-4.08-.4-.72-1.08-1.28-2.04-1.76.76-.32 1.32-.76 1.68-1.32.44-.72.64-1.72.68-3.04.08-3.72-1.6-5.84-5-6.32z"/></g><path d="M150.805 372.47l.04 19.72v19.103l-.04 18.832-.077 18.9-.116 19.258-.04 2.508c0 .502.773.502.773 0l.154-19.45.077-18.95.04-18.833v-19.064l-.04-22.074c0-.464-.772-.464-.772.038z" fill="url(#B)"/><path d="M150.264 254.03l.502 92.852v2.2c0 .5.773.5.773 0l-.155-36.624-.347-58.4c-.04-.5-.81-.54-.773-.038z" fill="url(#B)"/><path d="M.63 346.92l.193 100.995c0 .502.772.502.772 0l-.193-101.072c0-.424-.772-.424-.772.077z" fill="url(#B)"/><path d="M.398 230.837L.59 324.23c0 .502.772.502.772 0l-.193-93.392c0-.502-.772-.502-.772 0z" fill="url(#B)"/><path d="M3.68 448.534L149.57 471.1c.502.077.695-.656.193-.733L3.874 447.8c-.502-.078-.695.694-.193.733z" fill="url(#B)"/><path d="M149.878 253.838l-28.923-4.9-28.96-4.786-29.193-4.708-29.04-4.515-29.077-4.322-3.59-.502c-.502-.077-.695.656-.193.733l29.077 4.284 29.04 4.476 29.193 4.67 28.962 4.785 28.962 4.863 3.59.618c.463.115.656-.618.154-.695z" fill="url(#B)"/><path d="M.823 324.692l150.02 25.24c.502.077.695-.657.193-.734l-29.04-4.9L1.016 323.96c-.463-.116-.695.618-.193.733z" fill="url(#B)"/><path d="M.823 347.037L88.79 361.74l62.055 10.342c.502.077.695-.656.193-.733L1.016 346.304c-.463-.077-.695.656-.193.733z" fill="url(#B)"/><path d="M141.885 349.276c0 6.907.31 13.777.463 20.646l.077 5.866c0 .502.773.502.773 0 0-6.946-.31-13.854-.464-20.8l-.077-5.71c0-.502-.772-.502-.772 0z" fill="url(#B)"/><path d="M9.898 326.236l.27 23.078.04 5.673c0 .502.772.502.772 0l-.27-22.113-.04-6.638c0-.463-.772-.463-.772 0z" fill="url(#B)"/><path d="M11.442 210.885l-.04 28.983c0 .5.772.5.772 0l.04-28.983c0-.502-.772-.502-.772 0z" fill="url(#B)"/><path d="M142.503 230.876l.038 29.098c0 .502.773.502.773 0l-.04-29.137c0-.424-.772-.424-.772.04z" fill="url(#B)"/><path d="M11.52-67.748l.232 32.88.502 38.94.58 41.023.463 39.557.077 34.5-.04 3.628c0 .502.772.502.772 0V89.282l-.425-39.248-1.12-80.27-.27-33.922v-3.55c0-.54-.772-.54-.772-.038z" fill="url(#B)"/><path d="M140.958-66.6l.193 34.656 1.468 130.556.23 35.158v3.59c0 .5.773.5.773 0l-.193-34-1.468-130.48-.232-39.48c0-.502-.772-.502-.772 0z" fill="url(#B)"/><path d="M142.657 375.827c-.656-.232-1.35.154-1.7.733s-.27 1.312.27 1.775c.464.386 1.12.54 1.7.348.31-.116.54-.31.734-.58.155-.232.232-.54.232-.81.038-.617-.348-1.312-1.004-1.428-.193-.038-.425.04-.464.27-.038.193.04.425.27.464.038 0 .077.038.116.038-.078-.038.077.04 0 0 .038 0 .038.04.077.04l.038.038-.038-.038.116.116c.038.038-.04-.078-.04-.04.04.04.04.077.077.116 0 .038.04.038.04.077.038.04 0-.04 0-.04v.04c0 .04.038.077.038.116v.077c0-.077 0 .077 0 0v.27c0 .04 0-.04 0-.04 0 .04 0 .078-.038.155 0 .038 0 .038-.04.077v.04c0 .038-.038.038 0-.04-.038.04-.038.077-.077.116 0 .038-.04.038-.04.077 0 0 .04-.077.04-.04 0 0 0 .04-.04.04l-.115.116c0-.04.077-.04.038 0l-.038.038c-.04 0-.04.04-.078.04s-.038.038-.077.038c-.038.04.077-.038.04 0h-.04c-.038 0-.116.04-.154.04h-.04c.077 0-.04 0-.04 0h-.23c-.04 0 .038 0 .038 0h-.038c-.04 0-.116-.04-.155-.04s-.038 0-.077-.038c0 0-.116-.04-.04 0s0 0-.038 0-.04-.04-.077-.04-.04-.038-.078-.038l-.038-.04c-.04-.04.038.04.038.04l-.116-.116-.038-.04c-.04-.038.038.077.038.04v-.04c-.038-.038-.038-.115-.077-.154 0 0 .04.077 0 .04v-.04c0-.04 0-.04-.038-.077v-.04c0-.038 0 .04 0 .04v-.193c0 .077 0-.077 0 0 0-.04.038-.116.038-.155.04-.077-.038.04 0-.038 0-.04.04-.077.04-.077 0-.04.038-.04.038-.078 0 0 0-.038.04-.038.04-.04.077-.116.155-.154 0 0 .038 0 .038-.04-.077.04.04-.04 0 0 .04 0 .04-.04.077-.04s.078-.038.078-.038c.077-.04-.078 0 .038 0 .04 0 .04 0 .078-.04 0 0 .077 0 .077-.038h-.04.193c.04 0 .077 0 .116.038.193.077.425-.077.463-.27.04-.27-.077-.463-.27-.54z" fill="url(#B)"/><path d="M11.056 354.447c-.656-.232-1.35.154-1.7.733s-.27 1.312.27 1.775c.463.386 1.12.54 1.7.348.31-.116.54-.31.734-.58a1.52 1.52 0 0 0 .232-.811c.04-.617-.348-1.312-1.004-1.428-.193-.038-.425.04-.463.27-.04.193.038.424.27.463.04 0 .077.038.116.038-.077-.038.077.04 0 0 .04 0 .04.04.077.04l.04.038-.04-.038.04.038.04.04.04.04c.04.038-.04-.078-.04-.04.04.04.04.077.077.116 0 .038.04.038.04.077.04.04 0-.04 0-.04v.04c0 .04.04.077.04.116v.077c0-.077 0 .077 0 0v.27c0 .04 0-.038 0-.038 0 .038 0 .077-.04.154 0 .04 0 .04-.04.077v.04c0 .038-.04.038 0-.04-.04.04-.04.077-.077.116 0 .038-.04.038-.04.077 0 0 .04-.077.04-.04 0 0 0 .04-.04.04l-.116.116c0-.04.077-.04.04 0l-.04.038c-.04 0-.04.04-.077.04s-.04.04-.077.04c-.04.038.077-.04.04 0h-.04c-.04 0-.116.038-.154.038h-.04c.077 0-.04 0-.04 0h-.232c-.04 0 .04 0 .04 0h-.04c-.04 0-.116-.038-.155-.038s-.04 0-.077-.04c0 0-.116-.04-.04 0s0 0-.04 0-.04-.04-.077-.04-.04-.038-.077-.038l-.04-.04c-.04-.038.04.04.04.04l-.155-.155c-.04-.038.04.078.04.04v-.04c-.04-.038-.04-.115-.077-.154 0 0 .04.077 0 .04v-.04c0-.038 0-.038-.04-.077v-.04c0-.038 0 .04 0 .04v-.193c0 .077 0-.077 0 0 0-.04.04-.116.04-.154.04-.078-.04.038 0-.04 0-.04.04-.077.04-.077 0-.04.04-.04.04-.077 0 0 0-.04.04-.04.04-.04.077-.116.154-.154 0 0 .04 0 .04-.04-.077.04.04-.04 0 0 .04 0 .04-.04.077-.04s.077-.038.077-.038c.077-.04-.077 0 .04 0 .04 0 .04 0 .077-.04 0 0 .077 0 .077-.038h-.04.193c.04 0 .077 0 .116.038.193.077.425-.077.463-.27a.4.4 0 0 0-.27-.54z" fill="url(#B)"/><path d="M12.022 239.945c-.656-.232-1.352.154-1.7.733s-.27 1.312.27 1.775c.463.386 1.12.54 1.7.348.31-.116.54-.31.734-.58.155-.232.232-.54.232-.81.04-.617-.348-1.312-1.004-1.428-.193-.038-.425.04-.463.27-.04.193.04.424.27.463.04 0 .077.038.116.038-.077-.038.077.04 0 0 .04 0 .04.04.077.04l.04.038-.04-.038.04.038.077.078c.04.038-.04-.078-.04-.04.04.04.04.077.077.116 0 .038.04.038.04.077s0-.04 0-.04v.04c0 .04.04.077.04.116v.077c0-.077 0 .077 0 0v.27c0 .04 0-.04 0-.04 0 .04 0 .078-.04.155 0 .038 0 .038-.04.077v.04c0 .038-.04.038 0-.04-.04.04-.04.077-.077.116 0 .038-.04.038-.04.077 0 0 .04-.077.04-.04 0 0 0 .04-.04.04l-.116.116c0-.04.077-.04.04 0l-.04.038c-.04 0-.04.04-.077.04s-.04.04-.077.04c-.04.038.077-.04.04 0h-.04c-.04 0-.116.038-.154.038h-.04c.077 0-.04 0-.04 0h-.232c-.04 0 .04 0 .04 0h-.04c-.04 0-.116-.038-.154-.038s-.04 0-.077-.04c0 0-.116-.04-.04 0s0 0-.04 0-.04-.04-.077-.04-.04-.038-.077-.038l-.04-.04c-.04-.038.04.04.04.04l-.154-.155c-.04-.038.04.078.04.04v-.04c-.04-.038-.04-.115-.077-.154 0 0 .04.077 0 .04v-.04c0-.04 0-.04-.04-.077v-.04c0-.038 0 .04 0 .04v-.193c0 .077 0-.077 0 0 0-.04.04-.116.04-.154.04-.078-.04.038 0-.04 0-.04.04-.077.04-.077 0-.04.04-.04.04-.077 0 0 0-.04.04-.04.04-.04.077-.116.155-.154 0 0 .04 0 .04-.04-.077.04.04-.04 0 0 .04 0 .04-.04.077-.04s.077-.038.077-.038c.077-.04-.077 0 .04 0 .04 0 .038 0 .077-.04 0 0 .077 0 .077-.038h-.04.193c.04 0 .077 0 .116.038.193.077.425-.077.463-.27.04-.27-.077-.463-.27-.54z" fill="url(#B)"/><path d="M149.647 133.2l.23 58.466.232 40.406c0 .502.772.502.772 0l-.23-37.974-.232-60.898c0-.463-.772-.463-.772 0z" fill="url(#B)"/><path d="M.282 111.627V149.1l.04 37.858.04 21.612c0 .5.772.5.772 0l-.077-96.943c0-.502-.772-.502-.772 0z" fill="url(#B)"/><path d="M.282 111.704l149.403 21.226c.502.077.695-.656.193-.734L.475 110.97c-.463-.077-.695.656-.193.733z" fill="url(#B)"/><path d="M.282 209.264l29.27 4.477 117.7 18.33 3.592.54c.502.078.695-.656.193-.733l-29.27-4.477L92.38 222.8l-29.618-4.67-29.386-4.592-32.9-5.017c-.463-.077-.695.656-.193.733z" fill="url(#B)"/><path d="M13.836 122.24c-.656-.232-1.35.154-1.7.733s-.27 1.312.27 1.775c.463.386 1.12.54 1.7.347.31-.115.54-.308.734-.578.155-.232.232-.54.232-.81.04-.617-.347-1.312-1.004-1.428-.193-.038-.425.04-.463.27-.04.193.04.425.27.463.04 0 .077.04.116.04-.077-.04.077.04 0 0 .04 0 .04.04.077.04l.04.038-.04-.038.04.038.04.04.04.038c.04.04-.04-.077-.04-.038.04.038.04.077.077.116 0 .038.04.038.04.077s0-.04 0-.04v.04c0 .038.04.077.04.116v.077c0-.077 0 .077 0 0v.27c0 .04 0-.04 0-.04 0 .04 0 .078-.04.155 0 .038 0 .038-.04.077v.038c0 .04-.04.04 0-.038-.04.038-.04.077-.077.116 0 .038-.04.038-.04.077 0 0 .04-.077.04-.04 0 0 0 .04-.04.04l-.116.116c0-.04.077-.04.04 0h-.04c-.04 0-.04.038-.077.038s-.04.04-.077.04c-.04.038.077-.04.04 0h-.04c-.04 0-.116.038-.154.038h-.04c.077 0-.04 0-.04 0h-.232c-.04 0 .04 0 .04 0h-.04c-.04 0-.116-.038-.154-.038s-.04 0-.077-.04c0 0-.116-.038-.04 0s0 0-.04 0-.04-.038-.077-.038-.04-.04-.077-.04l-.04-.04c-.04-.038.04.04.04.04l-.116-.116-.04-.038c-.04-.04.04.077.04.038v-.038c-.04-.04-.04-.116-.077-.155 0 0 .04.077 0 .04v-.04c0-.038 0-.038-.04-.077v-.038c0-.04 0 .038 0 .038v-.193c0 .077 0-.077 0 0 0-.038.04-.116.04-.154.04-.077-.04.038 0-.04 0-.038.04-.077.04-.077 0-.04.04-.04.04-.077 0 0 0-.04.04-.04.04-.038.077-.116.155-.154 0 0 .04 0 .04-.04-.077.04.04-.038 0 0 .04 0 .04-.038.077-.038s.077-.04.077-.04c.077-.04-.077 0 .04 0 .04 0 .04 0 .077-.04 0 0 .077.001.077-.038h-.04.193c.04 0 .077 0 .116.038.193.078.425-.077.463-.27.04-.27-.077-.463-.27-.5z" fill="url(#B)"/><path d="M143.043 137.175c-.656-.232-1.35.154-1.7.733s-.27 1.312.27 1.775c.463.386 1.12.54 1.7.348.31-.116.54-.31.733-.58.155-.232.232-.54.232-.81.04-.617-.348-1.312-1.004-1.428-.193-.038-.425.04-.463.27-.04.193.038.425.27.464.04 0 .077.038.116.038-.077-.038.077.04 0 0 .038 0 .038.04.077.04l.04.038-.04-.038.04.038.038.04.04.038c.038.04-.04-.077-.04-.038.04.038.04.077.077.116 0 .038.04.038.04.077s0-.04 0-.04v.04c0 .038.04.077.04.116v.077c0-.077 0 .077 0 0v.27c0 .04 0-.04 0-.04 0 .04 0 .078-.04.155 0 .038 0 .038-.04.077v.04c0 .038-.038.038 0-.04-.038.038-.038.077-.077.116 0 .038-.038.038-.038.077 0 0 .038-.077.038-.04 0 0 0 .04-.038.04l-.116.116c0-.04.077-.04.038 0l-.038.038c-.04 0-.04.04-.077.04s-.04.038-.078.038c-.038.04.078-.038.04 0h-.04c-.038 0-.116.04-.154.04h-.04c.077 0-.038 0-.038 0h-.232c-.04 0 .038 0 .038 0h-.038c-.04 0-.116-.04-.155-.04s-.038 0-.077-.038c0 0-.116-.04-.038 0s0 0-.04 0-.04-.04-.077-.04-.04-.038-.077-.038l-.04-.04c-.04-.04.04.04.04.04l-.155-.155c-.04-.038.04.077.04.04v-.04c-.04-.038-.04-.116-.078-.154 0 0 .04.077 0 .04v-.04c0-.04 0-.04-.038-.077v-.04c0-.038 0 .04 0 .04v-.193c0 .077 0-.077 0 0 0-.04.038-.116.038-.155.04-.077-.038.04 0-.038 0-.04.04-.077.04-.077 0-.04.04-.04.04-.078 0 0 0-.038.038-.038.04-.04.078-.116.155-.155 0 0 .038 0 .038-.038-.077.038.04-.04 0 0 .04 0 .04-.04.078-.04s.077-.038.077-.038c.077-.04-.077 0 .038 0 .04 0 .04 0 .078-.04 0 0 .077 0 .077-.038h-.04.193c.04 0 .078 0 .116.038.193.077.425-.077.464-.27.038-.27-.078-.463-.27-.54z" fill="url(#B)"/><path d="M143.005 259.897c-.657-.232-1.352.154-1.7.733s-.27 1.312.27 1.775c.463.386 1.12.54 1.7.348.31-.116.54-.31.734-.58.154-.232.23-.54.23-.81.04-.617-.347-1.312-1.004-1.428-.193-.038-.424.04-.463.27-.04.193.04.424.27.463.04 0 .077.038.116.038-.077-.038.077.04 0 0 .04 0 .04.04.077.04l.04.038-.04-.038.04.038.04.04.038.04c.04.038-.038-.078-.038-.04.038.04.038.077.077.116 0 .038.038.038.038.077.04.04 0-.04 0-.04v.04c0 .04.04.077.04.116v.077c0-.077 0 .077 0 0v.27c0 .04 0-.04 0-.04 0 .04 0 .078-.04.155 0 .038 0 .038-.038.077v.04c0 .038-.04.038 0-.04-.04.04-.04.077-.077.116 0 .038-.04.038-.04.077 0 0 .04-.077.04-.04 0 0 0 .04-.04.04l-.116.116c0-.04.077-.04.04 0h-.04c-.04 0-.04.038-.077.038s-.04.04-.077.04c-.04.04.077-.04.038 0h-.038c-.04 0-.116.04-.155.04h-.038c.077 0-.04 0-.04 0h-.232c-.038 0 .04 0 .04 0h-.04c-.038 0-.116-.04-.154-.04s-.04 0-.077-.04c0 0-.116-.038-.04 0s0 0-.04 0-.038-.038-.077-.038-.038-.04-.077-.04l-.04-.038c-.038-.04.04.038.04.038l-.116-.116-.04-.038c-.038-.04.04.077.04.038v-.038c-.04-.04-.04-.116-.077-.155 0 0 .038.078 0 .04v-.04c0-.038 0-.038-.04-.077v-.038c0-.04 0 .038 0 .038v-.193c0 .077 0-.077 0 0 0-.038.04-.115.04-.154.038-.077-.04.04 0-.04 0-.038.038-.077.038-.077 0-.038.04-.038.04-.077 0 0 0-.04.04-.04.038-.038.077-.115.154-.154 0 0 .04 0 .04-.04-.077.04.038-.038 0 0 .038 0 .038-.038.077-.038s.077-.04.077-.04c.077-.038-.077 0 .04 0 .038 0 .038 0 .077-.038 0 0 .077 0 .077-.04h-.038.193c.038 0 .077 0 .116.04.193.077.424-.078.463-.27.04-.27-.077-.425-.27-.502z" fill="url(#B)"/><defs><linearGradient id="A" x1="80.779" y1="76.843" x2="80.779" y2="476.953" gradientUnits="userSpaceOnUse"><stop stop-opacity="0"/><stop offset=".171"/></linearGradient><linearGradient id="B" x1="75.808" y1="73.909" x2="75.808" y2="132.21" gradientUnits="userSpaceOnUse"><stop stop-color="#353535" stop-opacity="0"/><stop offset="1" stop-color="#353535"/></linearGradient><path id="C" d="M74.068 308.296l-3.12-.44-.04 2.56c-.04 2.08-.36 3.68-.96 4.84l.2.32 1.4.2c.96-.76 1.6-1.6 1.92-2.4.32-.84.52-1.92.52-3.24l.08-1.84z"/><path id="D" d="M75.428 148.327l-8.52-1.24-.16 9.8 4.12.6.04-1.8-2.2-.32.08-6.04 4.64.68-.2 12.08c0 .76-.36 1.12-1.08 1l-5.6-.8-.04 1.92 5.64.8c.96.12 1.68-.04 2.2-.6.52-.52.8-1.28.8-2.28l.28-13.8z"/><path id="E" d="M68.87 175.044l-10.28-1.48-.2 12.44 4.04.6c.04-1.56.4-2.28 1.12-2.16.56.08.92.44 1.04 1.08.08.4.08 1.44.08 3.08-.04 1.56-.08 2.56-.24 3-.16.6-.48.88-1 .8-.72-.12-1.08-.88-1.04-2.36l-4.32-.64c-.04 3.84 1.68 6 5.16 6.48 2.2.32 3.76-.12 4.68-1.36.8-1.08 1.2-2.96 1.24-5.6s-.36-4.52-1.16-5.68c-.64-.92-1.68-1.48-3.08-1.68-1.08-.16-1.84 0-2.36.44l.04-4 6.12.88.16-3.84z"/></defs></svg>