<svg xmlns="http://www.w3.org/2000/svg" xmlns:xlink="http://www.w3.org/1999/xlink" width="158" height="545" fill="none"><g opacity=".2"><path d="M156.092 206.58L6.84 185.312v97.546l150.17 22.92-.917-99.197z" fill="url(#A)"/><path d="M157.01 328.148L6.84 303.395v95.163l150.17 25.303v-95.713z" fill="url(#A)"/><path d="M156.786 445.886L6.84 421.44v99.968l150.17 23.066-.223-98.588z" fill="url(#A)"/><path d="M156.748 446.272l.038 19.72v19.103l-.038 18.833-.078 18.9-.115 19.258-.04 2.508c0 .502.772.502.772 0l.155-19.45.077-18.95.04-18.833v-19.064l-.04-22.075c0-.463-.772-.463-.772.04z" fill="url(#A)"/><path d="M156.207 327.834l.502 92.852v2.2c0 .502.772.502.772 0l-.154-36.623-.348-58.4c-.038-.502-.81-.54-.772-.038z" fill="url(#A)"/><path d="M6.573 420.724l.193 100.995c0 .502.772.502.772 0l-.193-101.072c0-.425-.772-.425-.772.077z" fill="url(#A)"/><path d="M6.34 304.64l.193 93.392c0 .502.772.502.772 0l-.193-93.392c0-.502-.772-.502-.772 0z" fill="url(#A)"/><path d="M9.623 522.337l145.89 22.576c.502.077.695-.656.193-.733L9.816 521.603c-.502-.077-.695.695-.193.734z" fill="url(#A)"/><path d="M155.82 327.64l-28.923-4.902-28.962-4.785-29.193-4.708-29.04-4.515-29.077-4.323-3.59-.5c-.502-.078-.695.656-.193.733l29.077 4.284 29.04 4.476 29.193 4.67 28.962 4.785 28.96 4.863 3.59.617c.464.116.657-.617.155-.694z" fill="url(#A)"/><path d="M6.766 398.495l150.02 25.24c.502.077.695-.656.193-.733l-29.038-4.9L6.96 397.762c-.463-.116-.695.617-.193.733z" fill="url(#A)"/><path d="M6.766 420.84l87.966 14.703 62.055 10.343c.502.077.695-.656.193-.733L6.96 420.107c-.463-.078-.695.656-.193.733z" fill="url(#A)"/><path d="M147.827 423.078c0 6.908.31 13.778.464 20.647l.077 5.866c0 .502.772.502.772 0 0-6.947-.31-13.855-.463-20.8l-.077-5.712c0-.5-.773-.5-.773 0z" fill="url(#A)"/><path d="M15.84 400.04l.27 23.078.04 5.673c0 .502.772.502.772 0l-.27-22.113-.04-6.638c0-.463-.772-.463-.772 0z" fill="url(#A)"/><path d="M17.385 284.688l-.04 28.982c0 .502.772.502.772 0l.04-28.982c0-.502-.772-.502-.772 0z" fill="url(#A)"/><path d="M148.445 304.678l.04 29.1c0 .5.772.5.772 0l-.038-29.137c0-.425-.773-.425-.773.038z" fill="url(#A)"/><path d="M17.462 6.055l.232 32.88.502 38.94.58 41.023.463 39.557.077 34.5-.04 3.628c0 .5.772.5.772 0v-33.498l-.425-39.248-1.12-80.27-.27-33.922v-3.55c0-.54-.772-.54-.772-.04z" fill="url(#A)"/><path d="M146.9 7.212l.193 34.655 1.467 130.556.232 35.157v3.59c0 .502.772.502.772 0l-.193-34-1.467-130.48-.232-39.48c0-.502-.772-.502-.772 0z" fill="url(#A)"/><path d="M148.6 449.63c-.657-.23-1.352.155-1.7.734s-.27 1.312.27 1.775c.463.386 1.12.54 1.7.347.31-.115.54-.308.734-.58a1.52 1.52 0 0 0 .231-.81c.04-.618-.347-1.312-1.004-1.428-.193-.04-.424.04-.463.27-.04.193.04.425.27.463.04 0 .078.04.116.04-.077-.04.077.038 0 0 .04 0 .04.038.077.038l.04.04-.04-.04.116.116c.04.04-.038-.077-.038-.038.038.038.038.077.077.115 0 .04.04.04.04.078.038.038 0-.04 0-.04v.04c0 .038.038.077.038.115v.078c0-.078 0 .077 0 0v.27c0 .038 0-.04 0-.04 0 .04 0 .077-.038.155 0 .038 0 .038-.04.077v.038c0 .04-.04.04 0-.038-.04.038-.04.077-.077.116 0 .038-.04.038-.04.077 0 0 .04-.077.04-.04 0 0 0 .04-.04.04l-.116.115c0-.038.077-.038.04 0l-.04.04c-.038 0-.038.04-.077.04s-.04.038-.077.038c-.04.04.077-.038.038 0h-.038c-.04 0-.116.04-.155.04h-.038c.077 0-.04 0-.04 0h-.232c-.038 0 .04 0 .04 0h-.04c-.038 0-.116-.04-.154-.04s-.04 0-.077-.038c0 0-.116-.04-.04 0s0 0-.04 0-.038-.04-.077-.04-.038-.04-.077-.04l-.04-.038c-.038-.04.04.038.04.038l-.116-.115-.038-.04c-.04-.038.038.077.038.04v-.04c-.04-.038-.038-.116-.077-.154 0 0 .04.077 0 .038v-.038c0-.04 0-.04-.04-.077v-.04c0-.04 0 .04 0 .04v-.193c0 .077 0-.078 0 0 0-.04.04-.116.04-.155.04-.077-.04.04 0-.038 0-.04.04-.078.04-.078 0-.038.038-.038.038-.077 0 0 0-.038.04-.038.038-.04.077-.116.154-.155 0 0 .04 0 .04-.038-.077.038.038-.04 0 0 .038 0 .038-.04.077-.04s.077-.04.077-.04c.077-.038-.077 0 .04 0 .038 0 .04 0 .077-.038 0 0 .077 0 .077-.04h-.038.193c.038 0 .077 0 .116.04.193.077.424-.077.463-.27.04-.27-.077-.463-.27-.54z" fill="url(#A)"/><path d="M17 428.25c-.657-.232-1.352.154-1.7.733s-.27 1.312.27 1.775c.463.386 1.12.54 1.7.347.31-.115.54-.308.734-.58.154-.23.232-.54.232-.8.04-.617-.348-1.312-1.004-1.428-.193-.038-.425.04-.463.27-.04.193.04.425.27.463.04 0 .077.04.116.04-.077-.04.077.04 0 0 .04 0 .04.04.077.04l.04.038-.04-.038.04.038.04.04.04.038c.04.04-.04-.077-.04-.038.04.038.04.077.077.116 0 .038.04.038.04.077.04.038 0-.04 0-.04v.04c0 .038.04.077.04.115v.078c0-.077 0 .077 0 0v.27c0 .038 0-.04 0-.04 0 .04 0 .077-.04.155 0 .038 0 .038-.04.077v.038c0 .04-.04.04 0-.038-.04.038-.04.077-.077.116 0 .038-.04.038-.04.077 0 0 .04-.077.04-.04 0 0 0 .04-.04.04l-.116.116c0-.04.077-.04.04 0l-.04.038c-.04 0-.04.04-.077.04s-.04.038-.077.038c-.04.04.077-.038.04 0H17c-.04 0-.116.04-.154.04h-.04c.077 0-.04 0-.04 0h-.232c-.04 0 .04 0 .04 0h-.04c-.04 0-.116-.04-.154-.04s-.04 0-.077-.038c0 0-.116-.04-.04 0s0 0-.04 0-.04-.04-.077-.04-.04-.038-.077-.038l-.04-.04c-.04-.04.04.04.04.04l-.154-.155c-.04-.038.04.077.04.04v-.04c-.04-.038-.04-.116-.077-.154 0 0 .04.077 0 .038v-.038c0-.04 0-.04-.04-.077v-.04c0-.04 0 .04 0 .04v-.193c0 .077 0-.077 0 0 0-.04.04-.116.04-.155.04-.077-.04.04 0-.038 0-.04.04-.078.04-.078 0-.038.04-.038.04-.077 0 0 0-.038.04-.038.04-.04.077-.116.155-.155 0 0 .04 0 .04-.038-.077.038.04-.04 0 0 .04 0 .04-.04.077-.04s.077-.038.077-.038c.077-.04-.077 0 .04 0 .04 0 .04 0 .077-.04 0 0 .077 0 .077-.04h-.04.193c.04 0 .077 0 .116.04.193.077.425-.077.463-.27a.4.4 0 0 0-.27-.54z" fill="url(#A)"/><path d="M17.964 313.748c-.656-.232-1.35.154-1.7.733s-.27 1.312.27 1.775c.463.386 1.12.54 1.7.347.31-.115.54-.308.734-.58.154-.23.232-.54.232-.8.04-.617-.348-1.312-1.004-1.428-.193-.038-.425.04-.463.27-.04.193.04.425.27.463.04 0 .077.04.116.04-.077-.04.077.04 0 0 .04 0 .04.04.077.04l.04.038-.04-.038.04.038.04.04.04.038c.04.04-.04-.077-.04-.038.04.038.04.077.077.116 0 .038.04.038.04.077s0-.04 0-.04v.04c0 .038.04.077.04.116v.077c0-.078 0 .077 0 0v.27c0 .038 0-.04 0-.04 0 .04 0 .077-.04.155 0 .038 0 .038-.04.077v.038c0 .04-.04.04 0-.038-.04.038-.04.077-.077.116 0 .038-.04.038-.04.077 0 0 .04-.077.04-.04 0 0 0 .04-.04.04l-.116.116c0-.04.077-.04.04 0l-.04.038c-.04 0-.04.04-.077.04s-.04.038-.077.038c-.04.04.077-.038.04 0h-.04c-.04 0-.116.04-.154.04h-.04c.077 0-.04 0-.04 0H17.5c-.04 0 .04 0 .04 0h-.04c-.04 0-.116-.04-.154-.04s-.04 0-.077-.038c0 0-.116-.04-.04 0s0 0-.04 0-.04-.04-.077-.04-.04-.038-.077-.038l-.04-.04c-.04-.04.04.04.04.04l-.116-.116-.04-.04c-.04-.038.04.077.04.04v-.04c-.04-.038-.04-.116-.077-.154 0 0 .04.077 0 .038v-.038c0-.04 0-.04-.04-.077v-.04c0-.04 0 .04 0 .04v-.193c0 .077 0-.078 0 0 0-.04.04-.116.04-.155.04-.077-.04.04 0-.038 0-.04.04-.077.04-.077 0-.04.04-.04.04-.078 0 0 0-.038.04-.038.04-.04.077-.116.154-.155 0 0 .04 0 .04-.038-.077.038.04-.04 0 0 .04 0 .04-.04.077-.04s.077-.038.077-.038c.077-.04-.077 0 .04 0 .04 0 .04 0 .077-.04 0 0 .077 0 .077-.04h-.04.193c.04 0 .077 0 .116.04.193.077.425-.077.463-.27.04-.27-.077-.463-.27-.54z" fill="url(#A)"/><path d="M155.59 207.002l.232 58.467.232 40.406c0 .5.772.5.772 0l-.232-37.975-.23-60.898c0-.463-.773-.463-.773 0z" fill="url(#A)"/><path d="M6.225 185.43v37.472l.04 37.86.04 21.61c0 .502.772.502.772 0l-.077-96.942c0-.502-.772-.502-.772 0z" fill="url(#A)"/><path d="M6.225 185.507l149.403 21.225c.502.078.695-.656.193-.733L6.418 184.774c-.463-.078-.695.656-.193.733z" fill="url(#A)"/><path d="M6.225 283.067l29.27 4.477 117.7 18.33 3.59.54c.502.077.695-.656.193-.733l-29.27-4.477-29.386-4.592-29.618-4.67-29.386-4.592-32.9-5.017c-.463-.077-.695.656-.193.733z" fill="url(#A)"/><path d="M19.78 196.042c-.656-.23-1.35.155-1.7.734s-.27 1.312.27 1.775c.463.386 1.12.54 1.7.347.31-.116.54-.31.734-.58.154-.23.232-.54.232-.8.04-.618-.348-1.312-1.004-1.428-.193-.04-.425.04-.463.27-.04.193.04.425.27.463.04 0 .077.04.116.04-.077-.04.077.038 0 0 .04 0 .04.038.077.038l.04.04-.04-.04.077.078.04.038c.04.04-.04-.077-.04-.038.04.038.04.077.077.115 0 .04.04.04.04.078s0-.04 0-.04v.04c0 .038.04.077.04.115v.078c0-.078 0 .077 0 0v.27c0 .038 0-.04 0-.04 0 .04 0 .077-.04.154 0 .04 0 .04-.04.078v.038c0 .04-.04.04 0-.038-.04.038-.04.077-.077.115 0 .04-.04.04-.04.078 0 0 .04-.078.04-.04 0 0 0 .04-.04.04l-.116.115c0-.038.077-.038.04 0h-.04c-.04 0-.04.04-.077.04s-.04.04-.077.04c-.04.038.077-.04.04 0h-.04c-.04 0-.116.038-.154.038h-.04c.077 0-.04 0-.04 0h-.232c-.04 0 .04 0 .04 0h-.04c-.04 0-.116-.038-.154-.038s-.04 0-.077-.04c0 0-.116-.04-.04 0s0 0-.04 0-.04-.04-.077-.04-.04-.038-.077-.038l-.04-.04c-.04-.038.04.04.04.04l-.116-.116-.04-.04c-.04-.038.04.078.04.04v-.04c-.04-.038-.04-.115-.077-.154 0 0 .04.077 0 .04v-.04c0-.04 0-.04-.04-.077v-.04c0-.038 0 .04 0 .04v-.193c0 .077 0-.077 0 0 0-.04.04-.116.04-.154.04-.078-.04.038 0-.04 0-.04.04-.077.04-.077 0-.04.04-.04.04-.077 0 0 0-.04.04-.04.04-.04.077-.116.154-.154 0 0 .04 0 .04-.04-.077.04.04-.04 0 0 .04 0 .04-.04.077-.04s.077-.038.077-.038c.077-.04-.077 0 .04 0 .04 0 .04 0 .077-.04 0 0 .077 0 .077-.038h-.04.193c.04 0 .077 0 .116.038.193.077.425-.077.463-.27.04-.27-.077-.463-.27-.502z" fill="url(#A)"/><path d="M148.986 210.977c-.657-.23-1.352.155-1.7.734s-.27 1.312.27 1.775c.464.386 1.12.54 1.7.347a1.54 1.54 0 0 0 .734-.579 1.52 1.52 0 0 0 .232-.81c.038-.618-.348-1.312-1.004-1.428-.193-.04-.425.04-.464.27-.038.193.04.425.27.463.038 0 .077.04.115.04-.077-.04.078.038 0 0 .04 0 .04.038.078.038l.038.04-.038-.04.038.04.077.077c.04.04-.038-.077-.038-.038.038.038.038.077.077.115 0 .04.04.04.04.078s0-.04 0-.04v.04c0 .038.038.077.038.115v.078c0-.078 0 .077 0 0v.27c0 .038 0-.04 0-.04 0 .04 0 .077-.038.154 0 .04 0 .04-.04.078v.038c0 .04-.04.04 0-.038-.04.038-.04.077-.077.115 0 .04-.04.04-.04.078 0 0 .04-.078.04-.04 0 0 0 .04-.04.04l-.116.115c0-.038.078-.038.04 0l-.04.04c-.038 0-.038.04-.077.04s-.038.038-.077.038c-.04.04.077-.038.04 0h-.04c-.04 0-.116.04-.155.04h-.038c.077 0-.04 0-.04 0h-.23c-.04 0 .038 0 .038 0h-.038c-.04 0-.116-.04-.155-.04s-.04 0-.077-.038c0 0-.116-.04-.04 0s0 0-.038 0-.04-.04-.078-.04-.038-.04-.077-.04l-.038-.038c-.04-.04.038.038.038.038l-.116-.115-.038-.04c-.04-.04.038.077.038.04v-.04c-.038-.04-.038-.116-.077-.154 0 0 .04.077 0 .038v-.038c0-.04 0-.04-.04-.078v-.038c0-.04 0 .038 0 .038v-.192c0 .077 0-.078 0 0 0-.04.04-.116.04-.155.04-.077-.04.04 0-.038 0-.04.04-.078.04-.078 0-.038.038-.038.038-.077 0 0 0-.038.04-.038.04-.04.077-.116.154-.155 0 0 .04 0 .04-.038-.077.038.04-.04 0 0 .04 0 .04-.04.077-.04s.077-.04.077-.04c.078-.038-.077 0 .04 0 .04 0 .04 0 .077-.038 0 0 .078 0 .078-.04h-.04.193c.04 0 .077 0 .116.04.193.077.425-.077.463-.27.04-.27-.077-.463-.27-.54z" fill="url(#A)"/><path d="M148.947 333.7c-.656-.232-1.35.154-1.7.733s-.27 1.312.27 1.775c.463.386 1.12.54 1.7.347.31-.115.54-.308.733-.578.155-.232.232-.54.232-.81.04-.617-.348-1.312-1.004-1.428-.193-.038-.425.04-.463.27-.04.193.038.425.27.463.04 0 .077.04.116.04-.078-.04.077.04 0 0 .038 0 .038.04.077.04l.04.038-.04-.038.04.038.038.04.04.038c.038.04-.04-.077-.04-.038.04.038.04.077.077.116 0 .038.04.038.04.077.04.038 0-.04 0-.04v.04c0 .038.04.077.04.116v.077c0-.077 0 .077 0 0v.27c0 .038 0-.04 0-.04 0 .04 0 .077-.04.155 0 .038 0 .038-.04.077v.038c0 .04-.038.04 0-.038-.038.038-.038.077-.077.116 0 .038-.038.038-.038.077 0 0 .038-.077.038-.04 0 0 0 .04-.038.04l-.116.116c0-.04.077-.04.038 0h-.038c-.04 0-.04.038-.077.038s-.04.04-.078.04c-.038.038.078-.04.04 0h-.04c-.038 0-.116.038-.154.038h-.04c.077 0-.038 0-.038 0h-.232c-.04 0 .04 0 .04 0h-.04c-.04 0-.116-.038-.155-.038s-.038 0-.077-.04c0 0-.116-.038-.038 0s0 0-.04 0-.04-.038-.077-.038-.04-.04-.077-.04l-.04-.04a.65.65 0 0 0 .039.039l-.116-.116-.04-.038c-.04-.04.04.077.04.038v-.038c-.04-.04-.04-.116-.078-.155 0 0 .04.077 0 .04v-.04c0-.038 0-.038-.038-.077v-.04c0-.038 0 .04 0 .04v-.193c0 .077 0-.077 0 0 0-.04.038-.116.038-.154.04-.077-.038.038 0-.04 0-.038.04-.077.04-.077 0-.04.04-.04.04-.077 0 0 0-.04.038-.04.04-.038.078-.116.155-.154 0 0 .038 0 .038-.04-.077.04.04-.038 0 0 .04 0 .04-.038.078-.038s.077-.04.077-.04c.077-.04-.077 0 .038 0 .04 0 .04 0 .078-.04 0 0 .077 0 .077-.038h-.04.193c.04 0 .078 0 .116.038.193.078.425-.077.464-.27.038-.27-.078-.424-.27-.5z" fill="url(#A)"/></g><path d="M150.958 201.447L1.705 180.177v97.547l150.17 22.92-.917-99.197zm.917 121.567L1.705 298.26v95.163l150.17 25.304v-95.713zm-.917 117.13L1.705 416.306v99.968l150.17 23.066-.917-99.197z" fill="#fe6869"/><g fill="#181d23"><path d="M32.368 217.713l-1.982-.283-.243 15.765 1.982.283.243-15.765zm7.08-4.164l-9.386-1.374-.04 2.02 7.404 1.05-.08 5.86c-.04 1.78-.445 3.396-1.254 4.892l-1.982 3.88v.203l2.023.282 1.416-2.87c1.173-2.304 1.78-4.406 1.78-6.225l.12-7.72zm6.474 16.41c-1.173-.16-1.74-.9-1.7-2.183l.162-11.52 5.22.768-.162 11.44c0 1.334-.647 1.9-1.9 1.738l-1.618-.243zm5.704-14.674l-9.184-1.293-.202 12.814c-.04 3.032 1.335 4.77 4.167 5.174l.566.08c2.913.405 4.4-.9 4.45-3.96l.202-12.815zm6.028.89l-3.682-.526v2.02l1.66.202-.12 8.045 1.982.283.162-10.025zm11.206 1.617l-9.062-1.294-.04 1.98 5.745.85-.243 15.28 2.023.323.202-15.32 1.375.202v-2.02zm17.235 2.506l-8.577-1.253-.202 14.593c0 .525-.243.727-.728.647l-1.092-.162-.04 1.94 1.173.162c.85.12 1.497-.08 1.942-.566s.688-1.172.688-2.02l.202-12.37 4.612.647-.243 15.32 1.982.283.283-17.22zm11.205 1.617l-2.023-.283-.08 6.6c0 1-.445 1.86-1.295 2.547l-3.52-9.823-2.104-.283 4.572 12.4c.728 1.94 1.295 3.193 1.74 3.8v.04l-6.15-.9-.04 1.94 8.172 1.173v-.9c0-.404-.243-1.213-.728-2.425l-1.456-3.638.77-.566c.77-.526 1.295-1.05 1.578-1.577s.445-1.253.445-2.183l.12-5.942zm5.787.808l-3.682-.525-.04 2.02 1.7.243-.122 8.044 1.983.283.162-10.066zm7.323 1.092l-5.016-.728-.04 2.02 5.18.768c.728.122 1.092.566 1.052 1.415l-.203 14.027 1.983.283.202-13.744c.08-2.385-1-3.76-3.156-4.042zm14.806 2.103l-8.617-1.253-.162 9.904 4.167.606.04-1.82-2.225-.324.08-6.104 4.693.688-.203 12.208c0 .768-.364 1.132-1.092 1l-5.664-.808-.04 1.94 5.704.8c.97.12 1.7-.04 2.225-.607.526-.525.8-1.293.8-2.304l.283-13.946zm-88.6 20.25l-7.97-1.17-.283 17.625 3.115.445.202-14.513 4.774.687c.486.08.728.364.728.9l-.12 9.42 3.115.444.162-9.54c.04-1.374-.243-2.385-.8-3.072-.607-.606-1.537-1-2.913-1.213zm8.1 1.173l-3.115-.445-.19 13.502c0 .687-.283 1-.85.93l-4.653-.687.12-9.985-3.115-.444-.202 13.057 7.444 1.1c1.335.202 2.387-.08 3.156-.85s1.173-1.86 1.173-3.274l.243-12.895zM62.67 246.1l-3.196-.485c-.8 1-2.306 1.496-4.53 1.415l-.04 2.83 1.497.283c.77.12 1.375.162 1.82.12l-.243 16.695 4.37.647.324-21.506zm8.83.96c-2.185-.324-3.68.16-4.572 1.374-.566.85-.9 2.183-.93 4.002l4.167.606c.04-1.738.445-2.587 1.254-2.466.445.08.77.283.93.647s.243 1 .243 1.86c-.04 1.455-.566 3.032-1.66 4.65l-5.097 7.72-.04 2.587 11.287 1.617.04-3.558-5.826-.85 3.6-5.255c1.416-2.06 2.144-4.204 2.185-6.346.08-3.84-1.78-6.023-5.583-6.6zm10.347 19.728l-3.156-.445-.04 2.587c-.04 2.102-.364 3.72-.97 4.9l.202.324 1.416.202c.97-.768 1.618-1.617 1.942-2.426.324-.85.526-1.94.526-3.274l.08-1.86zm12.987-16.048l-10.883-1.576-.08 3.84 6.554.93-4.53 17.018 4.4.647 4.5-18.07.04-2.8zm12.46 1.778L96.4 250.94l-.08 3.84 6.554.97-4.53 17.018 4.4.647 4.5-18.1.04-2.8zm10.438 1.496l-3.196-.445c-.8 1-2.306 1.496-4.53 1.415l-.04 2.83 1.497.283c.77.122 1.376.162 1.82.122l-.243 16.695 4.37.647.324-21.546zm-83.972 75.35l-3.762-.566-.04 2.022 1.78.242-.283 18.92 1.982.323.324-20.94zm12.5 1.78l-1.78-.243c-.647-.08-1.214 0-1.66.324l-1.7 1.1-.04 2.02.324.04 2.7-1.82h.12l-.162 11.804c0 1.293-.607 1.86-1.74 1.657l-2.104-.283c-1.092-.162-1.618-.85-1.578-2.142l.202-13.583-1.982-.283-.202 13.744c-.04 2.426 1.254 3.84 3.884 4.245l1.295.202c2.75.404 4.167-.8 4.208-3.638l.202-13.138zm10.317 1.496l-7.565-1.092v2.02l5.543.8-.202 13.34-5.785-.8v1.94l8.82 1.253.04-1.94-1.092-.16.243-15.36zm10.6 1.536l-7.525-1.092-.04 2.02 5.543.77-.202 13.38-5.745-.85-.04 1.98 8.82 1.253.04-1.94-1.092-.162.243-15.36z"/><use xlink:href="#C"/><path d="M91.895 337.733l-4.248-.606-.04 2.02 4.733.687c.566.08.93.364 1.092.85.12.323.162.808.12 1.496l-.12 9.055c-.04 1.414-.486 2.06-1.376 1.94l-4.693-.687-.04 1.94 4.288.607c2.468.363 3.762-1 3.803-4.083l.12-8.126c.04-1.738-.283-3.03-.93-3.84-.445-.606-1.376-1.05-2.7-1.253zm9.385 1.374l-3.68-.525-.04 1.98 1.66.242-.12 8.045 2.023.283.162-10.026zm14.646 2.103l-1.982-.282-.162 11.278c-.04 2.708-1.214 3.92-3.56 3.598l-4.288-.607.04-3 1.497.202c2.225.323 3.358-.8 3.398-3.396l.122-8.53-1.942-.283-.122 8.934c0 1.253-.566 1.778-1.618 1.617l-1.335-.203.162-10.793-1.982-.283-.243 17.302 5.826.85c1.86.283 3.317-.08 4.37-1.05s1.618-2.507 1.618-4.568l.202-10.794zm7.202 1.05l-4.33-.607-.04 2.02 2.347.324-.202 12.208c0 .768-.324 1.1-.93 1l-2.185-.323-.04 1.94 2.225.324c1.902.283 2.832-.607 2.872-2.628l.284-14.27zm-81.156 20.1l-7.97-1.132-.283 17.625 3.115.445.202-14.512 4.774.687c.485.08.728.364.688.9l-.12 9.42 3.115.445.162-9.54c.04-1.375-.243-2.385-.8-3.073s-1.497-1.05-2.872-1.253zm8.1 1.173l-3.115-.445-.202 13.502c0 .687-.283 1-.85.93l-4.612-.687.162-9.985-3.115-.444-.202 13.057 7.444 1.1c1.335.202 2.387-.08 3.156-.85s1.173-1.86 1.173-3.274l.162-12.895zm11.45 11.48l3.196-9.055.202.04-.12 9.5-3.277-.485zm7.646-12.572l-5.988-.85-4.33 11.56c-.243.607-.364 1.173-.364 1.74l-.04 3.557 6.3.93-.04 4.002 4.167.606.04-4.002 1.416.202.04-3.88-1.416-.203.202-13.663zm5.584 18.758l-3.156-.445-.04 2.587c-.04 2.102-.364 3.72-.97 4.892l.202.323 1.416.202c.97-.768 1.618-1.617 1.942-2.425.324-.85.526-1.94.526-3.275l.08-1.86zm12.5-16.13l-10.397-1.496-.202 12.572 4.086.606c.04-1.576.405-2.304 1.133-2.183.566.08.93.445 1.052 1.092.08.404.08 1.455.08 3.112-.04 1.577-.08 2.588-.243 3.032-.162.607-.485.9-1 .8-.728-.122-1.092-.9-1.052-2.385l-4.37-.647c-.04 3.88 1.7 6.063 5.22 6.55 2.225.323 3.803-.122 4.733-1.375.8-1.1 1.214-3 1.254-5.66s-.364-4.568-1.173-5.74c-.647-.93-1.7-1.496-3.115-1.698-1.092-.162-1.86 0-2.387.444l.04-4.042 6.2.9.162-3.88zm4.37 14.27l3.196-9.055.202.04-.12 9.5-3.277-.485zm7.646-12.53l-5.988-.85-4.33 11.56c-.243.607-.364 1.173-.364 1.738l-.04 3.558 6.3.93-.04 4.002 4.167.606.04-4.002 1.415.202.04-3.88-1.416-.202.202-13.663zm12.906 1.857l-10.397-1.495-.203 12.572 4.086.606c.04-1.577.405-2.304 1.133-2.183.567.08.93.445 1.052 1.1.08.405.08 1.456.08 3.113l-.202 3.032c-.162.606-.486.9-1.012.808-.728-.12-1.092-.9-1.052-2.385l-4.37-.646c-.04 3.88 1.7 6.063 5.22 6.548 2.225.324 3.803-.12 4.733-1.374.8-1.092 1.214-3 1.255-5.66s-.365-4.568-1.174-5.74c-.647-.93-1.7-1.495-3.115-1.697-1.092-.162-1.86 0-2.387.444l.04-4.042 6.2.9.12-3.88z"/><use xlink:href="#C" x="-47.43" y="100.008"/><path d="M49.4 438.47l-2.023-.283-.202 13.016c0 .85-.202 1.415-.526 1.74s-.9.404-1.7.323l-.8-.12-1.578-15.644-1.982-.283 1.74 15.644-2.7-.405-.04 1.94 5.34.768c1.497.202 2.63-.12 3.358-.97.607-.687.9-1.698.93-3.032l.202-12.693zm6.03.85l-3.682-.526-.04 2.02 1.7.243-.243 15.32 1.982.283.283-17.342zm11.205 1.616l-2.023-.283-.12 6.6c0 1-.445 1.86-1.295 2.547l-3.52-9.824-2.104-.282 4.572 12.5c.728 1.94 1.295 3.193 1.74 3.8v.04l-6.15-.9-.04 1.94 8.172 1.172v-.9c0-.404-.243-1.213-.728-2.426l-1.457-3.638.77-.566c.77-.525 1.295-1.05 1.578-1.576s.445-1.253.445-2.183l.162-6.023zm7.323 1.09l-5.017-.728-.04 2.022 5.18.768c.728.12 1.092.566 1.052 1.415l-.202 14.027 1.982.283.202-13.744c.04-2.386-1-3.76-3.156-4.043zm13.392 1.9l-7.525-1.05-.04 1.98 5.583.808-.202 13.38-5.785-.85-.04 1.94 8.86 1.294v-1.94l-1.052-.16.202-15.402zm17.68 2.587l-2.023-.283-.203 13.017c0 .85-.202 1.415-.525 1.738s-.9.404-1.7.323l-.8-.12-1.578-15.644-1.982-.283 1.7 15.644-2.7-.404-.04 1.94 5.34.768c1.497.202 2.63-.12 3.358-.97.607-.687.9-1.698.93-3.032l.243-12.693zm7.564 1.092l-5.017-.728-.04 2.02 5.178.768c.73.122 1.093.566 1.052 1.415l-.202 14.027 1.982.283.203-13.744c.04-2.385-1.012-3.76-3.156-4.042zm8.172 6.346l-1.982-.283-.243 15.766 1.982.283.243-15.766zm7.08-4.163l-9.386-1.375-.04 2.02 7.403 1.05-.08 5.862c-.04 1.778-.445 3.395-1.254 4.932l-1.982 3.88v.202l2.023.283 1.416-2.87c1.173-2.304 1.78-4.406 1.78-6.225l.12-7.76zM63.4 465.028l-8.577-1.253-.202 14.593c0 .526-.243.728-.728.647l-1.092-.162-.04 1.94 1.173.16c.85.122 1.497-.08 1.942-.566s.688-1.172.688-2.02l.202-12.37 4.612.646-.243 15.32 1.982.283.283-17.22zm10.275 1.496l-7.525-1.1-.04 2.02 5.543.768-.202 13.38-5.745-.808-.04 1.94 8.82 1.253.04-1.94-1.092-.162.243-15.36zm4.733-3.032l-1.982-.283-.08 5.7 6.352.93-.08 5.457a8.53 8.53 0 0 1-1.295 4.325l-2.75 4.73v.202l2.023.283 2.185-3.678c1.214-2.062 1.82-4.002 1.86-5.78l.12-7.317-6.352-.93v-3.638zm12.137 5.458l-3.64-.526-.04 2.02 1.66.243-.243 15.32 2.023.283.243-17.34zm11.247 1.616l-2.023-.283-.08 6.55c0 1-.445 1.86-1.295 2.547l-3.56-9.783-2.104-.283 4.572 12.5c.728 1.94 1.295 3.194 1.74 3.8v.04l-6.15-.9-.04 1.94 8.172 1.172v-.9c0-.405-.242-1.213-.728-2.426l-1.456-3.638.77-.566c.77-.525 1.295-1.05 1.578-1.576.283-.566.405-1.254.445-2.183l.162-6.024zm-58.864 21.79l-7.97-1.172-.283 17.625 3.115.444.202-14.512 4.774.687c.486.08.728.364.688.9l-.12 9.418 3.115.445.162-9.5c.04-1.374-.243-2.385-.8-3.072-.566-.647-1.537-1.05-2.873-1.253zm8.05 1.172l-3.115-.444-.202 13.5c0 .687-.283 1-.85.93l-4.612-.687.162-9.985-3.115-.445-.243 13.057 7.444 1.092c1.335.202 2.387-.08 3.156-.85s1.173-1.86 1.173-3.274l.202-12.896zm14.362 9.055c-.566-.08-.93-.687-1.052-1.778v-2.426l.08-2.142c.162-.97.526-1.415 1.092-1.334.486.08.8.404.93 1 .12.485.162 1.456.12 2.95l-.08 2.264c-.202 1.05-.566 1.496-1.092 1.455zm.08-11.116c-1.982-.283-3.398.12-4.33 1.253-.8 1-1.254 2.668-1.295 5.053-.04 2.587.283 4.406 1 5.497.647.97 1.74 1.577 3.317 1.82 1.052.16 1.86-.162 2.427-.97l-.04 3.315-.04 1.82c-.12.728-.485 1-1.092.93-.486-.08-.8-.323-.97-.728-.12-.363-.202-.93-.162-1.778l-4.208-.607c-.04 3.88 1.66 6.064 5.18 6.6 2.266.324 3.803-.323 4.652-1.9.77-1.495 1.214-4.406 1.254-8.7.04-4.002-.243-6.8-.85-8.246-.85-1.94-2.427-3.032-4.855-3.355zm10.278 19.727l-3.156-.445-.04 2.587c-.04 2.102-.364 3.72-.97 4.9l.202.324 1.416.202c.97-.768 1.618-1.617 1.942-2.426.324-.848.526-1.94.526-3.274l.08-1.86zm7.282-17.18c-3.763-.525-5.543 1.132-5.3 4.973l4.248.606c-.04-1.496.283-2.183 1-2.062.445.08.728.283.85.647s.162 1 .162 2.02c0 1.092-.08 1.82-.202 2.102-.162.445-.526.647-1.052.566l-2.55-.364-.04 3.76 2.63.364c.647.08 1.052.485 1.214 1.132.08.283.12.93.12 1.9 0 1.173-.08 1.94-.202 2.305-.162.485-.445.687-.93.646-.8-.12-1.214-.93-1.173-2.425l-4.37-.647c-.04 3.88 1.74 6.064 5.38 6.6 2.144.324 3.682 0 4.572-.93.8-.85 1.254-2.385 1.254-4.528.04-1.496-.162-2.708-.526-3.517-.485-1.05-1.335-1.778-2.55-2.142v-.08c1.942-.162 2.953-1.698 2.994-4.73.04-1.94-.445-3.436-1.376-4.446-.93-.9-2.306-1.496-4.167-1.74zm12.42 20.495c-.607-.08-.93-.646-1-1.657-.12-.728-.12-2.75-.08-6.064l.283-6.063c.12-.97.486-1.455 1.052-1.334.566.08.93.647 1.052 1.657.08.85.12 2.87.08 6.104l-.243 6.023c-.202.97-.566 1.415-1.133 1.334zm.283-18.676c-2.306-.323-3.843.324-4.652 1.94-.688 1.415-1.092 4.204-1.133 8.368-.08 4.082.243 6.952.93 8.57.77 1.82 2.266 2.87 4.53 3.194 2.225.323 3.762-.364 4.612-2.02.728-1.456 1.092-4.164 1.173-8.125.08-4.245-.243-7.156-.9-8.732-.77-1.78-2.306-2.87-4.572-3.194zm12.177 1.77c-2.185-.323-3.682.162-4.572 1.375-.566.848-.9 2.182-.9 4l4.167.607c.04-1.738.445-2.587 1.254-2.466.445.08.77.283.93.647s.242.97.242 1.86c-.04 1.456-.566 3.032-1.658 4.65l-5.098 7.72-.04 2.587 11.287 1.617.04-3.557-5.825-.85 3.6-5.215c1.416-2.06 2.145-4.204 2.185-6.346.08-3.88-1.82-6.104-5.623-6.63z"/></g><path d="M151.614 441.138l.038 19.72v19.103l-.038 18.833-.078 18.9-.116 19.257-.038 2.51c0 .5.772.5.772 0l.155-19.45.077-18.948.04-18.833v-19.064l-.04-22.075c0-.463-.772-.463-.772.04z" fill="url(#B)"/><path d="M151.073 322.7l.502 92.852v2.2c0 .502.772.502.772 0l-.154-36.624-.348-58.39c-.038-.502-.81-.54-.772-.04z" fill="url(#B)"/><path d="M1.44 415.6l.193 100.995c0 .5.772.5.772 0L2.21 415.513c0-.425-.772-.425-.772.077z" fill="url(#B)"/><path d="M1.207 299.506l.193 93.392c0 .502.772.502.772 0l-.193-93.392c0-.502-.772-.502-.772 0z" fill="url(#B)"/><path d="M4.49 517.202l145.89 22.577c.502.077.695-.657.193-.734L4.682 516.47c-.502-.077-.695.695-.193.733z" fill="url(#B)"/><path d="M150.687 322.506l-28.923-4.9-28.962-4.785-29.193-4.708-29.04-4.516-29.077-4.322-3.59-.502c-.502-.077-.695.656-.193.734l29.077 4.283 29.04 4.477 29.193 4.67 28.962 4.785 28.96 4.863 3.59.617c.464.116.657-.618.155-.695z" fill="url(#B)"/><path d="M1.632 393.36l150.02 25.24c.502.077.695-.656.193-.733l-29.038-4.9L1.825 392.628c-.463-.116-.695.617-.193.733z" fill="url(#B)"/><path d="M1.632 415.706l87.966 14.703 62.055 10.343c.502.077.695-.656.193-.733L1.825 414.972c-.463-.077-.695.656-.193.734z" fill="url(#B)"/><path d="M142.693 417.944c0 6.908.31 13.777.464 20.647l.077 5.866c0 .5.772.5.772 0 0-6.947-.31-13.855-.463-20.8l-.077-5.712c0-.502-.773-.502-.773 0z" fill="url(#B)"/><path d="M10.706 394.905l.27 23.078.04 5.673c0 .5.772.5.772 0l-.27-22.114-.04-6.637c0-.463-.772-.463-.772 0z" fill="url(#B)"/><path d="M12.25 279.554l-.04 28.982c0 .502.772.502.772 0l.04-28.982c0-.502-.772-.502-.772 0z" fill="url(#B)"/><path d="M143.31 299.544l.04 29.098c0 .502.772.502.772 0l-.038-29.136c0-.425-.773-.425-.773.038z" fill="url(#B)"/><path d="M12.328.92l.232 32.88.502 38.94.58 41.023.463 39.557.077 34.5-.04 3.627c0 .502.772.502.772 0V157.95l-.425-39.248-1.12-80.27L13.1 4.51V.96c0-.54-.772-.54-.772-.04z" fill="url(#B)"/><path d="M141.767 2.078l.193 34.656 1.467 130.556.232 35.157v3.59c0 .502.772.502.772 0l-.193-34-1.467-130.48-.232-39.48c0-.502-.772-.502-.772 0z" fill="url(#B)"/><path d="M143.466 444.495c-.657-.23-1.352.155-1.7.733s-.27 1.313.27 1.776c.463.386 1.12.54 1.7.347.31-.116.54-.31.734-.58a1.52 1.52 0 0 0 .231-.81c.04-.618-.347-1.312-1.004-1.428-.193-.04-.424.038-.463.27-.04.193.04.424.27.463.04 0 .078.04.116.04-.077-.04.077.038 0 0 .04 0 .04.038.077.038l.04.04-.04-.04.04.04.04.038.038.04c.04.04-.038-.077-.038-.04.038.04.038.078.077.116 0 .04.038.04.038.077.04.04 0-.038 0-.038v.038c0 .04.04.078.04.116v.077c0-.077 0 .078 0 0v.27c0 .04 0-.038 0-.038 0 .038 0 .077-.04.154 0 .04 0 .04-.038.077v.04c0 .04-.04.04 0-.04-.04.04-.04.078-.077.116 0 .04-.04.04-.04.077 0 0 .04-.077.04-.038 0 0 0 .038-.04.038l-.116.116c0-.038.077-.038.04 0l-.04.04c-.038 0-.038.038-.077.038s-.04.04-.077.04c-.04.04.077-.04.038 0h-.038c-.04 0-.116.04-.155.04h-.038c.077 0-.04 0-.04 0h-.232c-.038 0 .04 0 .04 0h-.04c-.038 0-.116-.04-.154-.04s-.04 0-.077-.04c0 0-.116-.038-.04 0s0 0-.04 0-.038-.038-.077-.038-.038-.04-.077-.04l-.04-.038c-.038-.04.04.038.04.038l-.116-.116-.04-.038c-.038-.04.04.077.04.038v-.038c-.04-.04-.04-.116-.077-.155 0 0 .038.078 0 .04v-.04c0-.038 0-.038-.04-.077v-.038c0-.04 0 .038 0 .038V446c0 .077 0-.077 0 0 0-.038.04-.115.04-.154.038-.077-.04.04 0-.04 0-.038.038-.077.038-.077 0-.038.04-.038.04-.077 0 0 0-.04.04-.04.038-.038.077-.115.154-.154 0 0 .04 0 .04-.04-.077.04.038-.038 0 0 .038 0 .038-.038.077-.038s.077-.04.077-.04c.077-.038-.077 0 .04 0 .038 0 .038 0 .077-.038 0 0 .077 0 .077-.04h-.038.193c.038 0 .077 0 .116.04.193.077.424-.078.463-.27.04-.27-.077-.463-.27-.54z" fill="url(#B)"/><path d="M11.865 423.115c-.656-.23-1.35.155-1.7.734s-.27 1.312.27 1.775c.463.386 1.12.54 1.7.347.31-.116.54-.31.734-.58.154-.23.232-.54.232-.8.04-.618-.348-1.312-1.004-1.428-.193-.04-.425.04-.463.27-.04.193.04.425.27.463.04 0 .077.04.116.04-.077-.04.077.038 0 0 .04 0 .04.038.077.038l.04.04-.04-.04.04.04.04.04.04.038c.04.04-.04-.077-.04-.038.04.038.04.077.077.115 0 .04.04.04.04.077.04.04 0-.038 0-.038v.038c0 .04.04.078.04.116v.077c0-.077 0 .078 0 0v.27c0 .038 0-.04 0-.04 0 .04 0 .077-.04.154 0 .04 0 .04-.04.078v.038c0 .04-.04.04 0-.038-.04.038-.04.077-.077.115 0 .04-.04.04-.04.077 0 0 .04-.077.04-.038 0 0 0 .038-.04.038l-.116.116c0-.038.077-.038.04 0l-.04.04c-.04 0-.04.038-.077.038s-.04.04-.077.04c-.04.04.077-.04.04 0h-.04c-.04 0-.116.04-.154.04h-.04c.077 0-.04 0-.04 0H11.4c-.04 0 .04 0 .04 0h-.04c-.04 0-.116-.04-.155-.04s-.04 0-.077-.04c0 0-.116-.038-.04 0s0 0-.04 0-.04-.038-.077-.038-.04-.04-.077-.04l-.04-.038c-.04-.04.04.038.04.038l-.116-.116-.04-.038c-.04-.04.04.077.04.038v-.038c-.04-.04-.04-.116-.077-.154 0 0 .04.077 0 .038v-.038c0-.04 0-.04-.04-.078v-.038c0-.04 0 .038 0 .038v-.193c0 .078 0-.077 0 0 0-.038.04-.115.04-.154.04-.077-.04.04 0-.04 0-.038.04-.077.04-.077 0-.038.04-.038.04-.077 0 0 0-.04.04-.04.04-.038.077-.115.154-.154 0 0 .04 0 .04-.038-.077.038.04-.04 0 0 .04 0 .04-.04.077-.04s.077-.04.077-.04c.077-.038-.077 0 .04 0 .04 0 .04 0 .077-.038 0 0 .077 0 .077-.04h-.04.193c.04 0 .077 0 .116.04.193.077.425-.077.463-.27.077-.27-.04-.463-.27-.54z" fill="url(#B)"/><path d="M12.83 308.613c-.656-.23-1.352.155-1.7.734s-.27 1.312.27 1.775c.463.386 1.12.54 1.7.347.31-.116.54-.31.734-.58.154-.23.232-.54.232-.8.04-.618-.348-1.312-1.004-1.428-.193-.04-.425.038-.463.27-.04.193.04.425.27.463.04 0 .077.04.116.04-.077-.04.077.038 0 0 .04 0 .04.038.077.038l.04.04-.04-.04.04.04.04.038.04.04c.04.04-.04-.077-.04-.04.04.04.04.078.077.116 0 .04.04.04.04.077s0-.038 0-.038v.038c0 .04.04.078.04.116v.077c0-.077 0 .078 0 0v.27c0 .038 0-.04 0-.04 0 .04 0 .077-.04.154 0 .04 0 .04-.04.078v.038c0 .04-.04.04 0-.038-.04.038-.04.077-.077.115 0 .04-.04.04-.04.077 0 0 .04-.077.04-.038 0 0 0 .038-.04.038l-.116.116c0-.038.077-.038.04 0l-.04.04c-.04 0-.04.038-.077.038s-.04.04-.077.04c-.04.04.077-.04.04 0h-.04c-.04 0-.116.04-.155.04h-.04c.077 0-.04 0-.04 0h-.232c-.04 0 .04 0 .04 0h-.04c-.04 0-.116-.04-.155-.04s-.04 0-.077-.04c0 0-.116-.038-.04 0s0 0-.04 0-.04-.038-.077-.038-.04-.04-.077-.04l-.04-.038a.58.58 0 0 1 .039.038l-.116-.116-.04-.038c-.04-.04.04.077.04.038v-.038c-.04-.04-.04-.116-.077-.154 0 0 .04.077 0 .038v-.038c0-.04 0-.04-.04-.078v-.038c0-.04 0 .038 0 .038v-.193c0 .078 0-.077 0 0 0-.038.04-.115.04-.154.04-.077-.04.04 0-.04 0-.038.04-.077.04-.077 0-.038.04-.038.04-.077 0 0 0-.04.04-.04.04-.038.077-.115.155-.154 0 0 .04 0 .04-.04-.077.04.04-.038 0 0 .04 0 .04-.038.077-.038s.077-.04.077-.04c.077-.038-.077 0 .04 0 .04 0 .04 0 .077-.038 0 0 .077 0 .077-.04h-.04.193c.04 0 .077 0 .116.04.193.077.425-.077.463-.27.04-.27-.077-.464-.27-.54z" fill="url(#B)"/><path d="M150.455 201.868l.232 58.467.232 40.406c0 .5.772.5.772 0l-.232-37.975-.232-60.898c0-.463-.772-.463-.772 0z" fill="url(#B)"/><path d="M1.09 180.295v37.473l.04 37.86.04 21.61c0 .502.772.502.772 0l-.077-96.943c0-.5-.772-.5-.772 0z" fill="url(#B)"/><path d="M1.09 180.373l149.403 21.225c.502.077.695-.656.193-.733L1.284 179.64c-.463-.077-.695.656-.193.734z" fill="url(#B)"/><path d="M1.09 277.933l29.27 4.476 117.7 18.332 3.59.54c.502.077.695-.656.193-.733l-29.27-4.477-29.386-4.593-29.618-4.67-29.386-4.593-32.9-5.017c-.463-.077-.695.657-.193.734z" fill="url(#B)"/><path d="M14.645 190.908c-.656-.23-1.35.154-1.7.733s-.27 1.312.27 1.776c.463.386 1.12.54 1.7.347.31-.116.54-.31.734-.58.155-.23.232-.54.232-.8.04-.618-.348-1.313-1.004-1.428-.193-.04-.425.038-.463.27-.04.193.04.424.27.463.04 0 .077.04.116.04-.077-.04.077.038 0 0 .04 0 .04.038.077.038l.04.04-.04-.04.04.04.04.038.04.04c.04.038-.04-.077-.04-.04.04.04.04.078.077.116 0 .04.04.04.04.077s0-.038 0-.038v.038c0 .04.04.077.04.116v.077c0-.077 0 .077 0 0v.27c0 .04 0-.038 0-.038 0 .038 0 .077-.04.154 0 .04 0 .04-.04.077v.04c0 .04-.04.04 0-.04-.04.04-.04.078-.077.116 0 .04-.04.04-.04.077 0 0 .04-.077.04-.038 0 0 0 .038-.04.038l-.116.116c0-.04.077-.04.04 0h-.04c-.04 0-.04.04-.077.04s-.04.038-.077.038c-.04.04.077-.038.04 0h-.04c-.04 0-.116.04-.154.04h-.04c.077 0-.04 0-.04 0h-.232c-.04 0 .04 0 .04 0h-.04c-.04 0-.116-.04-.154-.04s-.04 0-.077-.038c0 0-.116-.04-.04 0s0 0-.04 0-.04-.04-.077-.04-.04-.038-.077-.038c0 0 0-.001-.04-.04a6.22 6.22 0 0 1 .039.039l-.116-.116-.04-.04c-.04-.038.04.077.04.04v-.04c-.04-.038-.04-.116-.077-.154 0 0 .04.077 0 .038v-.038c0-.04 0-.04-.04-.077v-.04c0-.04 0 .04 0 .04v-.193c0 .077 0-.078 0 0 0-.04.04-.116.04-.155.04-.077-.04.04 0-.038 0-.04.04-.078.04-.078 0-.038.04-.038.04-.077 0 0 0-.038.04-.038.04-.04.077-.116.155-.155 0 0 .04 0 .04-.038-.077.038.04-.04 0 0 .04 0 .04-.04.077-.04s.077-.038.077-.038c.077-.04-.077 0 .04 0 .04 0 .04 0 .077-.04 0 0 .077 0 .077-.04h-.04.193c.04 0 .077 0 .116.04.193.077.425-.077.463-.27.04-.27-.077-.463-.27-.502z" fill="url(#B)"/><path d="M143.852 205.843c-.657-.23-1.352.155-1.7.733s-.27 1.313.27 1.776c.463.386 1.12.54 1.7.347.31-.116.54-.31.734-.58a1.52 1.52 0 0 0 .232-.81c.038-.618-.348-1.313-1.004-1.428-.193-.04-.425.038-.464.27-.038.193.04.424.27.463.038 0 .077.04.115.04-.077-.04.078.038 0 0 .04 0 .04.038.078.038l.038.04-.038-.04.038.04.04.038.038.04c.04.04-.038-.077-.038-.04.038.04.038.078.077.116 0 .04.04.04.04.077s0-.038 0-.038v.038c0 .04.038.077.038.116v.077c0-.077 0 .077 0 0v.27c0 .04 0-.038 0-.038 0 .038 0 .077-.038.154 0 .04 0 .04-.04.077v.04c0 .04-.04.04 0-.04-.04.04-.04.078-.077.116 0 .04-.04.04-.04.077 0 0 .04-.077.04-.038 0 0 0 .038-.04.038l-.116.116c0-.038.078-.038.04 0l-.04.04c-.038 0-.038.038-.077.038s-.038.04-.077.04c-.04.038.077-.04.04 0h-.04c-.04 0-.116.038-.155.038h-.038c.077 0-.04 0-.04 0h-.23c-.04 0 .038 0 .038 0h-.038c-.04 0-.116-.038-.155-.038s-.04 0-.077-.04c0 0-.116-.038-.04 0s0 0-.038 0-.04-.038-.078-.038-.038-.04-.077-.04l-.038-.038c-.04-.04.038.038.038.038l-.154-.154c-.04-.04.038.077.038.038v-.038c-.038-.04-.038-.116-.077-.155 0 0 .04.078 0 .04v-.04c0-.038 0-.038-.04-.077v-.038c0-.04 0 .038 0 .038v-.193c0 .077 0-.077 0 0 0-.038.04-.116.04-.154.04-.077-.04.038 0-.04 0-.038.04-.077.04-.077 0-.04.038-.04.038-.077 0 0 0-.04.04-.04.038-.038.077-.115.154-.154 0 0 .04 0 .04-.04-.077.04.04-.038 0 0 .04 0 .04-.038.077-.038s.077-.04.077-.04c.078-.038-.077 0 .04 0 .04 0 .04 0 .077-.038 0 0 .078 0 .078-.04h-.04.193c.04 0 .077 0 .116.04.193.077.425-.078.463-.27.04-.27-.077-.463-.27-.54z" fill="url(#B)"/><path d="M143.813 328.565c-.656-.23-1.35.155-1.7.734s-.27 1.312.27 1.775c.464.386 1.12.54 1.7.347a1.55 1.55 0 0 0 .733-.579c.155-.23.232-.54.232-.8.04-.618-.348-1.312-1.004-1.428-.193-.04-.425.038-.463.27-.04.193.038.425.27.463.04 0 .077.04.116.04-.078-.04.077.038 0 0 .038 0 .038.038.077.038l.04.04-.04-.04.04.04.038.04.04.038c.038.04-.04-.077-.04-.038.04.038.04.077.077.115 0 .04.04.04.04.077.04.04 0-.038 0-.038v.038c0 .04.04.078.04.116v.077c0-.077 0 .078 0 0v.27c0 .038 0-.04 0-.04 0 .04 0 .077-.04.154 0 .04 0 .04-.04.078v.038c0 .04-.038.04 0-.038-.038.038-.038.077-.077.115 0 .04-.038.04-.038.077 0 0 .038-.077.038-.038 0 0 0 .038-.038.038l-.116.116c0-.038.077-.038.038 0h-.038c-.04 0-.04.04-.078.04s-.038.038-.077.038c-.038.04.078-.038.04 0h-.04c-.038 0-.116.04-.154.04h-.04c.077 0-.038 0-.038 0h-.232c-.04 0 .038 0 .038 0h-.038c-.04 0-.116-.04-.155-.04s-.038 0-.077-.038c0 0-.116-.04-.038 0s0 0-.04 0-.04-.04-.077-.04-.04-.038-.077-.038c0 0-.001 0-.04-.04s.04.04.04.04l-.155-.155c-.04-.038.04.077.04.04v-.04c-.04-.038-.04-.115-.078-.154 0 0 .04.077 0 .04v-.04c0-.04 0-.04-.038-.077v-.04c0-.038 0 .04 0 .04v-.193c0 .077 0-.077 0 0 0-.04.038-.116.038-.155.04-.077-.038.04 0-.038 0-.04.04-.077.04-.077 0-.04.04-.04.04-.078 0 0 0-.038.038-.038.04-.04.077-.116.155-.154 0 0 .038-.001.038-.04-.077.038.04-.04 0 0 .04 0 .04-.04.078-.04s.077-.038.077-.038c.077-.04-.077 0 .038 0 .04 0 .04 0 .078-.04 0 0 .077 0 .077-.038h-.04.193c.04 0 .078 0 .116.038.193.077.425-.077.464-.27.038-.27-.078-.425-.27-.502z" fill="url(#B)"/><defs><linearGradient id="A" x1="81.751" y1="90.516" x2="81.751" y2="544.98" gradientUnits="userSpaceOnUse"><stop stop-opacity="0"/><stop offset=".074"/></linearGradient><linearGradient id="B" x1="76.617" y1=".549" x2="76.617" y2="539.846" gradientUnits="userSpaceOnUse"><stop offset=".161" stop-color="#353535" stop-opacity="0"/><stop offset=".275" stop-color="#353535"/></linearGradient><path id="C" d="M78.1 342.422l-1.982-.283-.162 10.672 1.982.283.162-10.672zm6.96-5.66l-9.224-1.334-.04 2.02 7.242 1.05-.243 15.32 1.982.283.283-17.342z"/></defs></svg>