<svg xmlns="http://www.w3.org/2000/svg" xmlns:xlink="http://www.w3.org/1999/xlink" width="1010" height="277" fill="none"><path d="M53.903 275.862V70.097H72.87V52.333l8.697-2.313 7.864 2.313-.555 17.764 7.127.07 17.76-16.076L117 55.664l-15.817 14.554 44.498.435v-18.32l8.327-1.85 7.68 1.85v18.802l8.234-1.038 16.84-16.006 3.33 1.573-15.173 14.988 23.777.63v-18.95l8.8-2.313s7.772 1.018 7.772 2.935v18.18h129.62V37.807c.555-10.547 20.54-7.217 20.076 0 8.512 2.96 47.74-.463 77.624 0 0-3.33 2.794-6.57 9.9-6.57s8.974 2.62 8.234 6.57l76.144 1.018c1.48-2.22.925-7.032 8.05-7.032 4.03 0 9.714 2.683 9.16 7.864-.462 22.297.093 98.35.463 235.834l-257.574 1.1-243.05-.74zm531.524-115.65l-3.145 115.28h168.015v-115.28h-25.35v-21.28l-103.252-.925v22.205h-36.268zm278.3-139.824h30.9L893.7 2.624 901.474.52l8.512 2.103v17.764h4.8V2.624l7.77-2.103 8.697 2.103v17.764h5.366L954.2 5.703l2.22 1.48-13.693 13.205h13.693l17.2-16.72 4.256 2.035-16.284 14.686h47.56c-2.22 80.426 0 171.836 0 255.844H863.726V20.388zm-88.91 171.096H765.1v31.92l9.715-.462v-31.457zm29.05-29.884c-1.925 3.7-5.18 26.707-6.57 37.748.647 10.516 0 24.6 2.313 34.047.6 2.453 3.608 6.754 10.084 7.124 5.182.296 9.13-3.27 10.455-5.088l.833 18.4c.185 2.6 2.035 5.552 5.55 5.737s4.163-2.87 5.736-5.737 1.1-21.927.925-26.183-1.757-3.7-3.608-4.256c-1.48-.444-3.207.185-3.886.555l1.48-23.685c.185-5.274-2.87-26.276-4.164-33.77s-7.03-12.5-10.27-12.768-6.477 3.238-8.882 7.865z" fill="#72a5f3"/><g opacity=".5" fill="#245196"><path d="M583.413 274.453l.777-22.782.563-22.165.51-21.95.43-22.138.348-22.674.027-2.84-.563.563 36.69-.054c.644-.027.644-.992 0-1.02-4.77-.134-9.54-.053-14.312-.053h-22.38c-.295 0-.563.268-.563.563l-.32 22.78-.402 22.165-.456 21.95-.536 22.11-.563 25.516c-.027.51.724.51.75.027z"/><path d="M621.498 138.835c-.215 10.292-.054 20.584-.054 30.876l-.054 8.952a.53.53 0 0 0 .51.509l19.51-.027 20.316-.08 62.662-.322c.268 0 .536-.24.51-.51-.107-10.345.24-20.718.295-31.063l-.027-8.63a.54.54 0 0 0-.536-.536c-6.62 0-13.213-.027-19.833-.08l-20.262-.187-20.262-.16-20.128-.027-19.78.24-2.465.054c-.724.027-.724 1.152 0 1.125l19.725-.294h20.21l20.262.134 20.18.187 22.38.107-.536-.536c.187 10.4-.134 20.8-.215 31.17v8.523l.51-.51-60.142.32-20.396.08-22.004.027.51.51-.107-30.983v-8.845c.027-.563-.777-.563-.777-.027z"/><path d="M724.12 159.875l21.762.51 4.932.188-.402-.402-.16 20.664.054 45.24-.08 23.05-.32 25.194c0 .643.99.643 1.018 0 .295-7.425.295-14.875.35-22.326l.08-22.996-.107-66.335c-.027-.83-.027-1.635-.027-2.466 0-.214-.188-.402-.402-.402l-20.69-.402h-5.977c-.32-.026-.32.456-.026.483z"/><path d="M585.342 188.553c10.882.59 21.844.536 32.725.616l32.403.134 100.747-.51c.563 0 .563-.858 0-.858l-64.753.402-64.752.08-36.37-.268c-.24.027-.24.375 0 .402z"/><path d="M705.252 188.767l.16 16.966.08 16.563.026 16.537.08 16.537.348 19.056c.027.616.992.643.992 0l-.35-16.966-.134-16.563-.053-16.537-.134-16.537-.402-16.912-.107-2.144c0-.348-.5-.348-.5 0zm9.032 20.45l9.3.08 9.14.108 1.5.053.563.027c.08 0 .16 0 .214.027.054 0 .24.027.134.027.08 0 .188.026.268.053-.054-.053.08.027 0 0-.054-.053-.107-.107-.134-.187.027.053 0-.134 0-.027v.134l.08 3.136.08 6.057.08 8.12.08 9.246.053 9.46v8.7l-.053 7.13-.027 1.394c0 .6.884.6.9 0l.054-6.647v-8.523l-.054-9.488-.08-9.46-.107-8.496-.134-6.593-.108-3.78c0-.215.027-.5-.08-.697s-.375-.24-.6-.268c-.348-.054-.697-.08-1.072-.107l-8.12-.134c-3.323 0-6.646-.027-9.943.107l-1.957.08c-.268.08-.268.456 0 .456z"/><path d="M713.722 209.297l.134 9.408.08 10.828.027 11.337-.027 10.935-.054 10.72c0 .536.83.536.83 0l.054-9.408V242.3l-.054-11.337-.134-10.935-.24-10.694c-.08-.375-.616-.402-.616-.027zm20.074 53.4l.08-5.254.027-7.156-.027-8.2-.08-8.496-.107-8.014-.24-6.754-.35-4.664c-.053-.482-.107-.964-.24-1.42-.08-.295-.188-.643-.456-.804-.214-.134-.536-.134-.777-.16-.402-.053-.777-.053-1.18-.08l-3.672-.08a229.15 229.15 0 0 0-8.576.081l-1.5.053c-.6.027-.6.938 0 .912l7.826-.16 4.18.027 2.867.134c.054 0 .215.026.16.026s.08.027.134.027c.027 0 .08.027.107.027.108.027-.08-.027-.026 0 0 0-.108-.107-.054-.027.027 0 0-.08-.027-.027 0 0 .107.242.027.027a7.22 7.22 0 0 1 .24 1.045c.027.134.027.242.054.376 0-.08 0 .026 0 0 0 .026 0 .08.027.107 0 .08.026.16.026.214l.108.992.187 2.412.295 6.352.215 7.746.107 8.335.053 8.255.027 7.37.054 5.708.027 1.073c.026.294.482.294.482 0z"/><path d="M716.5 212.165l-.08 8.8.08 10.506.027 11.07-.054 10.452-.295 8.657-.053.885c-.054.6.884.6.9 0l.295-8.336.027-10.292-.16-11.07-.134-10.64-.08-9.06-.026-.965c0-.295-.456-.295-.456 0zm2.304 22.22c-.858.938-.643 2.412.16 3.323.375.402.938.724 1.527.724.322 0 .6-.16.804-.348.5-.456.83-1.153.992-1.796.16-.67.16-1.448-.32-1.984-.724-.83-2.037-.455-2.895-.107-.456.188-.188.804.268.617a5.97 5.97 0 0 1 .75-.268 4.55 4.55 0 0 1 .59-.108h.268c.027 0 .134.027.054 0 .053 0 .08.027.134.027.026 0 .053.027.107.027.053.027.053.027.027 0 .053.027.134.054.187.107.054.027-.027-.027.027.027l.134.134c-.054-.08.027.027.027.054l.08.16c-.027-.054 0-.001 0 .026s.027.08.027.108.027.053.027.08.027.134 0 .054c0 .08.027.16.027.214v.402c0 .054 0-.054 0 .027a2.78 2.78 0 0 1-.108.455l-.08.215c0 .027-.027.08-.027.107s-.053.134-.027.08c-.053.134-.134.268-.214.402-.027.054-.08.108-.107.188-.027.027-.027.054-.054.08-.053.054 0 .027 0 0l-.053.054c-.08.107-.188.188-.268.268-.027.027 0 0 .026 0l-.026.027c-.027.027-.054.027-.08.053s-.053.027-.08.054c0 0-.027 0-.027.027.054-.027-.054.027 0 0-.054.027-.107.027-.134.027-.054.027.054 0 .027 0h-.134a1.67 1.67 0 0 1-.643-.215c-.885-.563-1.287-1.983-.536-2.814.187-.375-.215-.804-.456-.5z"/><path d="M713.186 274.32l-.027-4.718.187-5.306.054-.75c0-.134-.027.08 0-.027l.027-.08.027-.054c.026.054-.16.215-.16.215-.054.027-.134.027-.027.027.054 0 .08-.027.134-.027-.107.027-.027 0 .054 0s.16-.027.24-.027l3.1-.134a326.58 326.58 0 0 1 10.238-.08l4.985.107 3.565.214c.026 0 .08 0 .107.027.134.027-.08 0 .054 0a.77.77 0 0 1 .24.054l.348.08c-.107 0 .08.027 0 0-.053 0-.054-.054.027.027l.08.08c.188.268.268.483.376.778.294.938.428 1.93.482 2.92.107 1.42.107 2.84.027 4.235l-.188 2.465c-.053.6.858.6.9 0 .242-2.84.402-5.816-.107-8.657-.16-1-.455-2.52-1.608-2.76-.992-.215-2.037-.24-3.028-.268l-4.852-.134c-3.6-.054-7.156-.027-10.747.053l-3.618.134c-.322.027-.67.027-.965.108-.322.08-.456.268-.5.6-.215 1.528-.134 3.1-.134 4.664 0 1.85-.054 3.725.107 5.574l.08.805c0 .24.536.16.5-.134zM607.802 188.9l-.188 4.235-.16 5.548-.35 13.937-.268 15.304-.16 13.937.027 9.782.027.777c.027.5.83.5.804 0l-.027-9.085.134-13.6.24-15.304.268-14.23.242-10.426v-.858c-.054-.375-.563-.375-.6-.027z"/><path d="M583.573 252.448c7.8.295 15.626.43 23.452.456l25.676-.054 26.05-.268 24.255-.295 22.78-.107c.43 0 .43-.643 0-.67-6.646-.107-13.32 0-19.994.08l-23.907.294-25.943.295-25.837.134c-7.933 0-15.893-.053-23.827-.187l-2.707-.054c-.24 0-.24.375 0 .375zm54.595-63.815c-.24 4.476-.375 8.952-.455 13.428l-.135 12.222.054 11.578.08 11.66-.027 12.4c0 .563 0 1.1-.027 1.662 0 .536.804.536.804 0l.027-12.57-.107-11.766-.08-11.552.054-12.06.348-13.24.054-1.796c0-.348-.6-.348-.6.027z"/><path d="M667.757 189.035c-.16 3.886-.188 7.773-.188 11.66V212.9l.054 12.57-.027 12.516-.214 12.276c-.027.482-.027 1-.054 1.474-.027.5.777.5.804 0l.215-12.222v-12.5l-.08-12.596-.053-12.25.053-11.74v-1.394c0-.32-.482-.32-.5 0zm7.693.135c1.1 1.876 2.52 3.592 3.886 5.307l6.352 7.478 7.397 8.335 7.05 7.853 5.227 5.923.455.536c.295.35.777-.16.5-.5l-4.904-5.575-6.888-7.638-7.424-8.3-6.593-7.638-4.3-5.548-.295-.483c-.187-.295-.67-.027-.482.268zm-4.316 6.887c.322.536.724 1.02 1.1 1.528l1.956 2.385 5.816 6.674 6.915 7.692 6.298 6.888 3.994 4.262.24.24c.322.322.804-.16.483-.483l-3.592-3.805-6.057-6.594-6.942-7.692-6.03-6.86-3.457-4.288-.16-.268c-.188-.402-.777-.054-.563.32zm-29.348-6.887c.912 1.555 2.037 2.975 3.2 4.37l4.717 5.307 10.774 11.256 4.85 5.334c.295.348.777-.16.5-.5-2.975-3.538-6.27-6.808-9.487-10.13-3.485-3.592-7.022-7.183-10.292-11-1.34-1.555-2.68-3.163-3.752-4.905-.242-.295-.697-.027-.5.268zm.35 11.122c.6.992 1.393 1.903 2.144 2.76l3.565 3.913c2.68 2.84 5.44 5.6 8.2 8.362l3.1 3.1c.32.32.804-.16.482-.483l-6.54-6.54c-2.707-2.734-5.388-5.468-7.934-8.336-.857-1-1.795-1.983-2.465-3.135-.215-.35-.778-.027-.563.348zm-25.675-10.99c.884 1.528 1.93 2.975 3.002 4.396l4.18 5.28c3.135 3.806 6.352 7.53 9.595 11.256l4.583 5.334c.295.348.777-.16.5-.5l-8.7-10.078c-3.1-3.618-6.217-7.236-9.14-11.015-1.233-1.608-2.466-3.216-3.5-4.96-.214-.268-.67 0-.5.295zm-4.3 6.887c.562.992 1.34 1.876 2.063 2.734l3.404 3.833 7.853 8.255 3.03 3.055c.32.322.804-.16.482-.482l-6.298-6.433c-2.573-2.68-5.146-5.387-7.558-8.2-.83-.965-1.716-1.957-2.386-3.082-.24-.376-.83-.054-.6.32zm-19.243-7.02c2.948 5.066 7.022 9.354 10.882 13.723l3.725 4.315c.295.348.777-.16.5-.5-3.94-4.664-8.308-9.006-11.98-13.884-.965-1.26-1.85-2.573-2.68-3.913-.188-.295-.643-.027-.456.268zm-4.315 6.887c.483.83 1.072 1.582 1.662 2.305l2.466 2.922 5.68 6.084 2.547 2.573c.32.32.804-.16.482-.483-3.565-3.564-7.156-7.2-10.345-11.123-.697-.83-1.367-1.688-1.93-2.626-.188-.375-.777-.027-.563.348zM770.568 273.9c.428-6.594.375-13.214.268-19.807l-.43-20.557-.16-10.05c0-.697-1.072-.697-1.072 0l.402 18.788.348 20.85V273.9c0 .43.617.43.644 0z"/><path d="M764.725 223.717c3.43.08 6.86-.08 10.292-.107.24 0 .428-.188.428-.43l.16-8.684.134-9.917.027-8.442c0-.938-.027-1.903-.053-2.84-.027-.5 0-1.072-.108-1.582-.16-.616-.857-.616-1.367-.67-1.072-.08-2.144-.08-3.242-.107l-3.833.054c-.483.027-.992.027-1.474.053-.322.027-.67.027-.992.108-.536.134-.563.6-.6 1.072-.053.67-.053 1.367-.053 2.063l-.054 7.558.027 9.837.054 9.38v1.903c0 .644 1.018.644 1.018 0l-.053-8.63-.027-9.8.027-8.336c0-.938.026-1.876.053-2.814 0-.322.027-.616.027-.938 0-.107 0-.214.027-.322v-.134c0-.026.027-.16 0-.026.08-.108-.027.107 0 0-.054.08-.188.294-.295.268.027 0 .08-.027.107-.027h.08c.08-.027-.134.027-.027 0 .08 0 .134-.027.214-.027.188-.027.375-.027.536-.027 1.1-.053 2.198-.08 3.324-.08l3.698.027c.456.026.938.026 1.394.08a.73.73 0 0 1 .24.027c.054 0 .295.053.134 0 .08 0 .214.08.268.053-.08 0-.214-.134-.24-.214 0-.027-.027-.16-.027-.08 0 .107.027.187.027.053.027.215.027.43.053.643.054.778.054 1.555.054 2.332l.027 7.692-.08 9.676-.053 9.005v1.823l.43-.43c-3.43.053-6.86.187-10.292.322-.402.026-.402.643 0 .643zm3.967-28.142c-.885.697-1.207 1.93-.885 3.002.295 1 1.072 1.742 2.144 1.742 1.02 0 1.823-.75 2.1-1.716a2.85 2.85 0 0 0 0-1.5 2.25 2.25 0 0 0-.295-.697c-.08-.134-.16-.24-.24-.35-.027-.053-.08-.08-.108-.134-.026-.027-.187-.16-.107-.08-.08-.08-.134-.215-.24-.295-.16-.16-.322-.322-.536-.402-.67-.348-1.34-.134-1.903.322-.16.134-.134.402 0 .562.16.16.402.134.563 0s.375-.268.6-.294c.134-.027.294.026.402.08.053.027.16.107.187.107-.027-.027.054.027.054.054l.08.08c.054.054.08.08.107.134.08.08-.026-.053.027.027.107.134.24.24.35.375.134.134.214.322.295.483a2.2 2.2 0 0 1 .133 1.1c-.08.67-.536 1.34-1.232 1.447-.322.054-.67 0-.965-.188s-.536-.5-.67-.83c-.402-.9-.16-1.956.536-2.68.268-.214-.107-.563-.375-.348zm1.715 9.863c-.777-.536-1.796-.16-2.386.5-.294.35-.5.777-.5 1.26a1.89 1.89 0 0 0 .456 1.233c.563.643 1.5.884 2.305.723.884-.187 1.528-.9 1.662-1.795.16-1.046-.268-2.144-1.153-2.734-.43-.268-.804.402-.375.67.536.348.83.992.83 1.635 0 .32-.08.616-.24.884-.08.134-.16.215-.295.35l-.027.027c.027-.027-.027.026-.027.026-.027.027-.054.054-.107.054-.027.027-.054.027-.107.054-.027 0-.027.026-.054.026-.054.027.054-.026-.027 0l-.214.08c-.054 0-.08.027-.134.027h-.054c-.053 0 .054 0-.027 0a1.5 1.5 0 0 1-.482 0c.054 0-.054 0-.08-.027-.027 0-.08-.027-.108-.027l-.24-.08c-.027 0-.08-.027-.16-.08s-.16-.08-.214-.134c.027.027-.027-.027-.054-.027l-.16-.16c0-.026-.027-.026-.027-.053.027.027-.027-.054 0 0a1.23 1.23 0 0 1-.188-.375c-.08-.268-.027-.563.107-.83.295-.563 1.072-1.072 1.742-.777.402.107.644-.268.35-.456zm.75 10.052c.08.214.108.32.108.536v.053c0-.053 0 0 0 .027 0 .054-.027.08-.027.134-.027.107-.054.16-.08.24a1.79 1.79 0 0 1-.777.831 1.9 1.9 0 0 1-1.072.295c-.107 0-.348-.08-.456-.134-.16-.107-.214-.134-.348-.295 0-.027-.08-.107-.054-.053-.026-.027-.053-.08-.08-.108-.054-.08-.107-.16-.134-.24 0-.027-.027-.027-.027-.054.027.054-.027-.053 0 0-.027-.053-.027-.08-.053-.134l-.08-.268c0-.053-.027-.08-.027-.134 0-.08 0 .027 0-.053 0-.107-.026-.215 0-.295v-.214c0 .026 0-.08.027-.08 0-.053.027-.107.027-.134 0-.053.027-.08.027-.107s.053-.134.027-.054c.026-.08.08-.16.133-.24.027-.027.08-.107.027-.053l.16-.16c.027-.027.027-.027.054-.027.026-.027.08-.054.107-.054s.107-.053.054-.026c.107-.054.24-.08.348-.108.24-.053.43-.107.643-.107h.375c.054 0-.053 0 .027 0 .054 0 .08.027.134.027s.08.027.134.054c-.08-.027.027 0 .054.026a.21.21 0 0 0 .107.054c.027 0 .027.027.054.054l.187.187c.027.027.027.054.054.08.027.053.053.08.08.134.134.187.215.402.322.616.08.188.375.24.563.134.214-.107.24-.348.134-.563-.188-.402-.402-.83-.724-1.126-.322-.32-.75-.455-1.206-.482-.536-.027-1.152.107-1.635.322-.43.187-.697.563-.884 1a2.82 2.82 0 0 0 .348 2.6c.295.402.67.697 1.153.804.536.134 1.072.027 1.58-.214 1.072-.5 1.85-1.742 1.313-2.895-.187-.455-.858-.187-.697.215zm29 18c1.367 5.334 7.478 8.148 12.624 7.156 6.057-1.125 10.453-6.566 12.4-12.114 1.233-3.484 1.7-7.2 1.93-10.88.24-3.914.295-7.853.268-11.766-.054-7.96-.536-15.92-1.474-23.827-.456-3.806-.938-7.612-1.662-11.364-.697-3.5-1.662-6.995-3.35-10.158-1.447-2.734-3.538-5.387-6.513-6.513-2.68-1.018-5.548-.214-7.53 1.742-1.957 1.93-3.1 4.583-3.94 7.156-1.1 3.484-1.876 7.103-2.626 10.694-1.582 7.558-2.627 15.224-3.163 22.916-.5 7.72-.5 15.464.054 23.156.134 1.93.32 3.86.5 5.8.187 1.66.32 3.323.67 4.958.5 2.412 1.447 5.146 3.457 6.754a5.18 5.18 0 0 0 3.27 1.153c.697 0 .697-1.073 0-1.073-2.466 0-3.993-2.1-4.824-4.18-1.126-2.787-1.34-5.87-1.635-8.844a162.2 162.2 0 0 1-.724-22.246 170.77 170.77 0 0 1 2.251-22.165 151.31 151.31 0 0 1 2.252-10.908c.724-2.975 1.394-6.03 2.734-8.818 1.045-2.17 2.6-4.422 4.985-5.2 2.868-.912 5.574.616 7.477 2.68 2.198 2.412 3.538 5.6 4.476 8.7 1.02 3.35 1.555 6.808 2.064 10.24 1.1 7.584 1.77 15.223 2.064 22.888.134 3.833.187 7.666.134 11.525-.054 3.645-.134 7.3-.6 10.908-.804 6.165-3.2 12.65-8.63 16.162-2.332 1.5-5.04 2.278-7.826 1.93-2.546-.322-5.04-1.5-6.754-3.43a7.95 7.95 0 0 1-1.742-3.243c-.134-.322-.724-.16-.644.214z"/><path d="M811.735 182.817c-.6 5.816-1.02 11.686-1.367 17.502l-.885 17.314-.402 17.743c-.053 6.057 0 12.087.268 18.144.268 6.11.617 12.222.563 18.36v2.278c0 .67.992.67 1.02 0 .24-6.11-.16-12.275-.456-18.386a411.11 411.11 0 0 1-.402-18.172l.295-17.796.75-17.34 1.233-19.646c.054-.43-.59-.402-.616 0z"/><path d="M812.003 194.208c1.206-2.653 2.1-5.468 3.055-8.228 1.1-3.163 2.198-6.325 3.645-9.327.643-1.314 1.34-2.627 2.305-3.752.43-.483-.295-1.18-.697-.697-1.876 2.25-3 5.12-4.02 7.826-1.206 3.162-2.198 6.405-3.297 9.595-.482 1.447-.964 2.92-1.554 4.342-.107.32.43.563.563.24zm-1.153 9.97c-.402-5.12-1.367-10.372-3.993-14.848-.402-.697-.858-1.367-1.313-2-.376-.5-1.233-.027-.858.5.9 1.26 1.715 2.573 2.36 3.967 1 2.144 1.66 4.422 2.144 6.727.375 1.876.616 3.752.804 5.655.027.563.9.563.857 0zm-.24 11.686c.24-.643.67-1.26 1.18-1.742.268-.268.5-.456.83-.644.16-.107.322-.187.483-.268.187-.08.294-.134.482-.187.215-.08.375-.295.295-.536-.054-.215-.322-.375-.536-.295-1.635.6-2.92 1.85-3.538 3.484-.08.215.08.456.295.5.24.054.43-.107.5-.32zm15.17 8.79c1.018-1.02 2.385-1.42 3.752-.965 1.206.402 2.25 1.394 2.787 2.546-.026-.08.027.08 0 0 0 .027.027.054.027.08.027.053.027.107.054.16a2.3 2.3 0 0 1 .107.402c.08.322.134.644.188.965l.268 2.546c.348 5.04.16 10.158-.268 15.197-.215 2.332-.483 4.664-.992 6.968-.188.885-.456 1.716-.724 2.573-.24.83-.455 1.635-.9 2.36-.536.858-1.447 1.286-2.44 1.474-.724.134-1.474.107-2.198.08h-.107c.107.026-.027 0-.027 0a.5.5 0 0 1-.214-.054 2.04 2.04 0 0 1-.43-.134c-.027 0-.134-.054-.027 0-.027-.027-.08-.027-.107-.054-.08-.027-.134-.08-.187-.107s-.135-.08-.188-.107c-.027-.027-.24-.16-.16-.107-.268-.215-.482-.43-.697-.697-.375-.483-.804-1.313-1.045-1.93-.804-2.144-1.1-4.476-1.26-6.754-.24-3.35-.214-6.727-.08-10.104a54.83 54.83 0 0 1 .161-2.975c.027-.643-.992-.643-1.02 0-.187 3.752-.32 7.504-.16 11.257.108 2.626.35 5.306 1.073 7.826.455 1.58 1.206 3.296 2.653 4.26.616.402 1.313.6 2.064.643 1.367.08 2.92-.026 4.073-.83.858-.563 1.367-1.42 1.716-2.36.294-.83.536-1.7.777-2.546.643-2.198.938-4.503 1.18-6.754.295-2.788.456-5.575.536-8.362a93.08 93.08 0 0 0-.08-7.746c-.054-.992-.134-1.983-.268-2.975-.08-.697-.188-1.42-.402-2.1-.75-2.33-3.592-4.074-5.977-3.2-.67.24-1.26.67-1.742 1.233-.24.16.08.482.295.268z"/><path d="M825.404 232.267c.402.455.482 1.313.536 1.93.134 1.126.107 2.252.107 3.377l-.402 7.424-.107 2.413.16 4.368c.054 3.565.027 7.103-.026 10.667l-.134 10.212v1.1c0 .59.938.59.938 0l.107-10.13V252.77c-.054-2.412-.268-4.824-.16-7.237.107-2.44.295-4.904.322-7.343a31.2 31.2 0 0 0-.108-3.538c-.08-.804-.187-1.69-.616-2.412-.08-.107-.16-.24-.268-.322-.214-.268-.563.107-.348.35z"/><path d="M826.556 256.522c.134-2.198.482-4.395 1.233-6.486.456-1.286 1.072-2.573 2.037-3.565.16-.187.402-.375.563-.5a1.78 1.78 0 0 1 .294-.187c.054-.027.08-.054.135-.08.026 0 .16-.08.107-.053.536-.215.214-.965-.322-.724-.992.43-1.715 1.394-2.278 2.278-.965 1.555-1.528 3.324-1.903 5.092-.295 1.394-.456 2.788-.536 4.208-.027.456.643.456.67.027zm-.643-12.41c.053.08-.027-.027-.027-.027-.027-.027-.054-.08-.054-.107a1.29 1.29 0 0 1-.134-.268l-.24-.617-.482-1.688-.35-1.7-.16-1.206c-.054-.643-1.046-.643-.992 0 .08 1.1.348 2.17.616 3.243l.563 1.742c.188.43.375.885.697 1.233.322.376.884-.214.563-.616zM554.145 274.32l.35-16.162.16-23.666.08-29.08-.027-65.852-.107-96.862c0-1.42.134-2.92-.054-4.315-.268-1.93-1.42-3.725-2.92-4.93-4.074-3.297-11.82-3.1-14.15 2.198-.777 1.742-.5 3.458-.456 5.307.054 2.412.027 4.824 0 7.2-.027 1.85-.027 3.7-.187 5.548l.562-.563c-2.52.188-5.065.134-7.584.134-4.825 0-9.65-.027-14.473-.054l-36.852-.295-17.663-.08.563.563c.402-4.396.054-8.8 0-13.213 0-1.742.08-3.377-.777-4.958-.804-1.447-2.117-2.573-3.565-3.297-3.082-1.58-6.834-1.447-9.97-.08-3.162 1.394-4.797 3.94-4.878 7.37-.134 4.878-.375 9.73-.67 14.607l.563-.563-27.98-.054c-11.765 0-23.505 0-35.27-.107l-14.286-.268.6.6c-.054-3.35.027-6.674.134-10.024.08-3.43.724-6.888-1.956-9.515-4.048-3.967-10.72-5.092-15.358-1.5-1.313 1.018-2.358 2.332-2.948 3.886-.724 1.876-.536 4.02-.536 6.004-.054 5.146.027 10.292.16 15.438l.83 30.822c.08 9.8-.295 19.62-.483 29.43l-.402 29.428-.32 60.572v65.504c0 .777 1.206.777 1.206 0l-.027-55.936.214-58.535.804-56.846c.215-9.837.08-19.646-.214-29.456l-.643-29.777c.026-2.064-.268-4.422.5-6.38.67-1.715 2.037-3.1 3.645-4.02 2.734-1.554 5.628-1.528 8.47-.43 2.466.938 5.44 2.68 5.95 5.52.35 1.983 0 4.26-.053 6.272l-.108 4.77a144.27 144.27 0 0 0 0 4.744c0 .322.268.563.6.6 9.675.322 19.35.295 29.026.348l48.5.054c.32 0 .536-.268.563-.563l.536-11.096c.053-1.77-.134-3.752.294-5.468.376-1.528 1.367-2.76 2.654-3.618 2.653-1.77 6.405-2.25 9.407-1.126 1.608.6 3.136 1.662 4.02 3.2s.697 3.216.697 4.905c.054 4.262.35 8.55-.027 12.8-.026.322.295.563.563.563l67.46.402c3.028 0 6.084.08 9.085-.134a.58.58 0 0 0 .563-.563c.35-4.18.295-8.47.215-12.677-.027-1.876-.35-3.725.643-5.44 1.715-2.975 5.575-3.618 8.684-2.868 2.44.6 4.663 2.198 5.574 4.583.536 1.367.35 2.895.35 4.342v9.274l.026 23.773.188 125.325-.027 29.187-.08 24.4-.134 20.744c-.054.483.724.483.75-.026zm-205.62-7.506c3.457.16 6.888.188 10.345.24l16.832.107 46.66.08h26.56l73.22-.107 16.86-.054 10.372-.054c.455 0 .9 0 1.367-.026.536 0 .536-.83 0-.83l-8.55.053-15.438.054-20.7.054-102.837.053c-7.558 0-15.1-.027-22.647-.027l-30.232-.08c-.617 0-1.233.027-1.823.027-.322.027-.322.5 0 .5z"/><path d="M416.546 266.358l.402-12.73.992-35.298.375-15.76.107-9.917V192c-.026-.643-1.018-.643-1 0l-.054 9.032-.32 15.25-.456 18.064-.402 17.42-.16 13.374v1.18c-.054.402.483.402.5.026zm-3.35-74.803c.643-.054 1.313-.027 1.983-.054l3.913-.054 12.276-.107 15.92-.107 16.858-.16 16.402-.214c.536 0 .536-.83 0-.83l-14.5.214-16.698.188-16.16.16-12.918.16-6.754.187c-.08 0-.188.027-.268.027-.456 0-.456.616-.054.6z"/><path d="M481.058 189.464c.375-5.334.107-10.694.053-16.027v-3.806c0-.376-.027-.724-.43-.804-.32-.054-.67-.054-.99-.054-1.448-.054-2.868-.054-4.315-.054H468.3l-8.952.027-45.75.24c-.16 0-.32.08-.402.215-.268.51-.214 1.26-.268 1.822-.08 1.206-.107 2.413-.134 3.62l-.187 10.372-.08 5.977c0 .563.885.563.885 0l.187-10.587.24-8.845c.027-.455.054-.938.108-1.393 0-.08.026-.16.026-.24s-.026.107 0-.027c0-.027 0-.054.027-.08 0-.053.027-.107.027-.134.027-.08.027-.107 0 0-.134.08-.268.16-.402.215h4.663l6.54-.027 7.906-.054 26.373-.16 7.907-.027h6.566l4.663.027c.75 0 1.528.053 2.28.08.107 0-.134-.027-.027 0 .08.027-.16-.107-.16-.107-.054-.108-.08-.215-.134-.322-.134 5.28.188 10.56.24 15.84.027 1.447 0 2.895-.027 4.315-.026.43.617.43.644 0z"/><path d="M413.384 186.784c3.484.134 6.968.24 10.452.214l12.704-.16 13.99-.294 14.5-.268 13.99-.134c.562 0 1.125 0 1.688.026.6 0 .6-.938 0-.91l-13.937.134-14.5.268-14.098.295-12.918.214-10.748.08h-1.152c-.348-.027-.322.536.027.536z"/><path d="M420.084 169.47l-.08 12.677v3.752c0 .483.777.483.777 0l-.054-12.9-.026-3.538c-.054-.375-.617-.375-.617 0zm7.183 0l-.08 12.677v3.752c0 .483.777.483.777 0l-.054-12.9-.027-3.538c-.026-.375-.616-.375-.616 0zm12.918 0l-.08 12.677v3.752c0 .483.777.483.777 0l-.054-12.9-.026-3.538c-.027-.375-.617-.375-.617 0zm9.032 0l-.08 12.677v3.752c0 .483.777.483.777 0l-.053-12.9-.027-3.538c-.027-.375-.617-.375-.617 0zm14.795 0l-.08 12.677v3.752c0 .483.778.483.778 0l-.054-12.9-.027-3.538c-.027-.375-.616-.375-.616 0zm7.585 0l-.08 12.677v3.752c0 .483.777.483.777 0l-.053-12.9-.027-3.538c-.027-.375-.616-.375-.616 0zm-40.685 96.486l.456-24.684.294-13.6.376-7.236c.32-3.377.696-6.86 2.52-9.836 1.072-1.742 2.6-3.136 4.45-4.074 1.126-.563 2.332-.9 3.565-1.126 1.447-.268 3-.402 4.475-.295 5.173.402 8.9 4.583 10.882 9.086.858 1.957 1.5 4.128 1.662 6.218.08 1.045.026 2.117 0 3.2l-.027 3.886v18.547l-.08 17.1-.08 3.03c-.027.697 1.072.697 1.1 0 .187-5.253.16-10.533.16-15.786l-.027-19.217.053-8.148c0-1.02.054-2.037-.053-3.056-.134-1.098-.35-2.17-.643-3.243-1.367-4.743-4.342-9.62-9.006-11.658-2.68-1.18-5.628-1.18-8.47-.67-2.44.428-4.77 1.393-6.62 3.055-2.975 2.653-4.1 6.593-4.583 10.426-.295 2.358-.456 4.7-.536 7.05l-.268 12.436-.16 15.143-.027 11.82c0 .536 0 1.1.027 1.635 0 .376.563.376.563 0zm3.243-80.056c.295-4.475.268-9.005.295-13.48v-14.634l.134-12.06c0-.35.027-.697.053-1.046.027-.32.027-.375.108-.697a13.24 13.24 0 0 1 .536-1.85 12.31 12.31 0 0 1 2.439-3.886 11.45 11.45 0 0 1 4.422-3.029c2.17-.83 4.502-.9 6.807-.643 1.984.24 3.967.804 5.602 1.983 1.233.885 2.17 2.118 2.787 3.5 1.153 2.573 1.26 5.495 1.314 8.3.107 3.833.026 7.692-.08 11.55l-.456 13-.294 10.748.026 1.85c0 .643 1.02.643 1.02 0-.027-1.42.054-2.84.08-4.26l.16-5.548.43-13.053.16-12.33c-.027-2.975-.027-6.084-.858-8.978-.43-1.528-1.126-2.948-2.17-4.154-1.18-1.367-2.787-2.332-4.476-2.895-1.1-.375-2.25-.6-3.403-.724-1.26-.134-2.52-.187-3.78-.027-2.1.242-4.1.912-5.816 2.118-2.654 1.822-4.7 4.744-5.387 7.906-.295 1.42-.242 2.922-.27 4.37l-.026 6.084.134 14.58.08 14.366-.027 3.002c-.027.24.43.214.456-.08zm26.828-147.303l3.484.08 5.63.054 7.317.054 27.257.08 9.38.054 8.7.08 7.585.107 6.03.16 1.206.027c.5.027.5-.777 0-.804l-5.575-.16-7.263-.107-8.523-.08-9.22-.054c-3.162 0-6.35-.027-9.514-.027H471.73c-2.037 0-4.047 0-6.084-.027-1.367 0-2.707-.027-4.074-.054-.215 0-.43 0-.643-.027-.35.027-.35.643.053.643z"/><path d="M474 38.5l-.6 14.768c-.027.5.75.5.777 0 .295-4.905.456-9.863.43-14.768.027-.402-.6-.402-.616 0zm15.222-.305c-.24 1.823-.24 3.672-.268 5.52l-.054 6.754-.134 3.03c-.053.5.778.5.804 0 .16-1.93.134-3.886.16-5.843l.054-6.674.16-2.68c.053-.43-.67-.5-.724-.107zm16.348.305a153.37 153.37 0 0 1-.161 12.168l-.107 1.474-.054.643c0 .08-.026.16-.026.268-.027.134 0 .107-.027.214-.027.24.053.482.32.563.215.054.536-.08.563-.322.24-1.822.268-3.672.295-5.494V41.33l-.054-2.84c0-.482-.75-.482-.75 0zm14.93-.118l-.348 12.14-.027 2.948c0 .5.804.5.804 0 0-4.074.188-8.12.24-12.195V38.38c0-.43-.643-.43-.67 0zm-142.853.118l-.6 14.768c-.027.5.75.5.777 0 .295-4.905.456-9.863.43-14.768.027-.402-.6-.402-.617 0zm16.188-.305c-.24 1.823-.24 3.672-.268 5.52l-.053 6.754-.134 3.03c-.054.5.777.5.804 0 .16-1.93.134-3.886.16-5.843l.053-6.674.16-2.68c.054-.43-.67-.5-.724-.107zm14.178.305a153.37 153.37 0 0 1-.16 12.168l-.108 1.474-.053.643c0 .08-.027.16-.027.268-.027.134 0 .107-.027.214-.027.24.054.482.322.563.214.054.536-.08.563-.322.24-1.822.268-3.672.294-5.494V41.33l-.053-2.84c-.027-.482-.777-.482-.75 0zm17.234-.118c-.054 4.047-.268 8.094-.35 12.14-.026.992-.026 1.957-.026 2.948 0 .5.804.5.804 0 0-4.074.187-8.12.24-12.195V38.38c0-.43-.643-.43-.67 0z"/><path d="M365.972 38.972c5.575.322 11.15.482 16.75.5 4.717.027 9.407-.054 14.124-.188l13.267-.456 13.9-.268a332.57 332.57 0 0 1 16.349.322l2.25.107c.5.027.5-.75 0-.777a349.35 349.35 0 0 0-16.751-.402 413.74 413.74 0 0 0-14.124.241l-13.267.456-13.9.295c-5.44.027-10.908-.08-16.35-.268l-2.25-.08c-.35-.027-.322.483 0 .5zm184.958-.67c-.455 15.68-.43 31.385-.482 47.1l-.027 52.692.16 98.7-.08 34.28c0 1.045-.026 2.1-.053 3.135 0 .6.9.6.938 0l.08-32.35-.187-97.077-.027-52.96.08-53.496c.027-.322-.402-.322-.402-.027zM349.4 274.372l.053-9.246.08-16.216.053-21.602.134-83.782v-29.32l-.08-27.472-.134-24.443-.215-19.833-.08-3.967c0-.616-.965-.616-.965 0l.24 18.493.16 23.45.08 26.83.027 58.67-.08 95.8.134 11.096.027 1.527c.026.376.563.376.563.027zm127.386-84.238l-.214 11.47-.43 16.5-1.394 48.5c0 .536.83.536.83 0l.322-11.47.884-34.815.35-16.885.134-12.25v-1.018c.026-.402-.483-.402-.483-.054z"/><path d="M480.736 190.6l12.597.268 13.963.08 14.5-.027 14.258-.053 14.688-.027c.482 0 .482-.75 0-.75l-27.15.135-14.527.08-14.07.027c-4.26 0-8.55 0-12.8-.027h-1.447c-.24-.054-.24.295 0 .295zm-3.7 16.42l44.008-.187 15.68-.108 12.4-.107h1.18c.5 0 .5-.804 0-.777l-11.847.16-47.84.43-13.6.24c-.24 0-.24.348 0 .348zm-.617 25.515l3.43-.027h5.494l7.05.027 17.18.053 34.12.215 5.896.053 1.153.027c.482 0 .482-.724 0-.724l-5.44-.053-7.076-.054-17.153-.107c-3.055 0-6.137-.027-9.193-.027-3.028 0-6.057 0-9.085-.027h-8.416l-7.424.027-5.896.054-3.994.08-.616.027c-.35-.027-.35.456-.027.456zM349.543 190.6l24.067.482 24.604.134 13.75.027c.483 0 .483-.75 0-.75h-24.657c-8.148 0-16.295-.054-24.416-.108l-13.347-.107c-.215-.027-.215.322 0 .322zm.214 16.42l11.364-.053 14.285-.054 15.277-.08 14.446-.108 11.846-.107h1.153c.5 0 .5-.804 0-.777l-11.364.16-14.285.134-15.277.134-14.446.16-11.847.214-1.152.027c-.24 0-.24.348 0 .348zm-.617 25.515l8.23-.027h13.615l16.027.027 15.706.053 12.382.107 1.152.027c.483 0 .483-.724 0-.724l-11.82-.08-15.464-.054-16.135.027-14.07.08-9.032.16-.616.026c-.295-.107-.295.376.026.376zm5.414-56.418c5.146.402 10.292.107 15.4 0 .16 0 .295-.134.295-.295a382.24 382.24 0 0 0 .456-12.383l.187-12.4.108-6.164.08-3.136c.027-.75.08-1.528 0-2.278a7.27 7.27 0 0 0-4.02-5.789c-2.573-1.26-5.8-1.206-8.228.348-1.876 1.233-3.377 3.243-3.967 5.414-.268.992-.188 2.064-.214 3.1l-.08 4.128-.134 9.38-.268 17.877c-.027.563-.027 1.126-.053 1.7s.83.562.857 0l.322-16.67.295-17.6c.026-.938.107-1.635.455-2.546.402-.992.992-1.903 1.716-2.68.83-.885 1.822-1.635 2.975-2.037 1.34-.483 2.787-.5 4.18-.215 2.412.5 4.422 2.198 5.092 4.6.402 1.394.214 2.895.16 4.342l-.108 5.95-.348 24.122-.107 2.948.295-.295c-5.146.134-10.292.43-15.4.08-.268-.027-.268.482.053.5zm19.2 0c5.146.402 10.292.107 15.4 0 .16 0 .295-.134.295-.295.214-4.128.375-8.255.456-12.383l.187-12.4.107-6.164.08-3.136c.027-.75.08-1.528 0-2.278a7.27 7.27 0 0 0-4.02-5.789c-2.573-1.26-5.8-1.206-8.228.348-1.877 1.233-3.377 3.243-3.967 5.414-.268.992-.188 2.064-.214 3.1l-.08 4.128-.134 9.38-.268 17.877c-.027.563-.027 1.126-.054 1.7s.83.562.858 0l.322-16.67.295-17.6c.026-.938.107-1.635.455-2.546a8.81 8.81 0 0 1 1.715-2.68c.83-.885 1.823-1.635 2.975-2.037 1.34-.483 2.788-.5 4.18-.215 2.413.5 4.423 2.198 5.093 4.6.402 1.394.214 2.895.16 4.342l-.108 5.95-.348 24.122-.107 2.948.295-.295c-5.146.134-10.292.43-15.4.08-.268-.027-.268.482.053.5zm18.788 0c5.146.402 10.292.107 15.4 0 .16 0 .295-.134.295-.295.214-4.128.375-8.255.455-12.383l.188-12.4.107-6.164.08-3.136c.026-.75.08-1.528 0-2.278a7.27 7.27 0 0 0-4.021-5.789c-2.572-1.26-5.8-1.206-8.228.348-1.876 1.233-3.377 3.243-3.966 5.414-.268.992-.188 2.064-.215 3.1l-.08 4.128-.134 9.38-.268 17.877c-.027.563-.027 1.126-.054 1.7s.83.562.858 0l.322-16.67.294-17.6c.027-.938.108-1.635.456-2.546a8.81 8.81 0 0 1 1.715-2.68c.83-.885 1.823-1.635 2.975-2.037 1.34-.483 2.788-.5 4.18-.215 2.412.5 4.423 2.198 5.093 4.6.402 1.394.214 2.895.16 4.342l-.107 5.95-.348 24.122-.107 2.948.294-.295c-5.145.134-10.3.43-15.4.08-.268-.027-.268.482.053.5z"/><path d="M408.88 143.66l9.14-.054 11.9-.107 4.208-.027c.375 0 .375-.563 0-.563l-25.247.215c-.348 0-.348.536 0 .536zm50.28.6l3.725.108 5.8.026 18.413-.107c.295 0 .295-.455 0-.455l-10.88.08-12.704.027c-1.448 0-2.895 0-4.342-.107-.295-.054-.268.402 0 .428zM30.98 274.587l.027-4.423.08-6.27.107-7.585.268-17.475.134-9.032.107-8.55.08-7.692.054-6.406v-4.636l-.027-.83-.483.482 2.305.054-.483-.483.268 13.83.16 14.527.08 14.848.027 14.553v15.518c0 .697 1.072.697 1.072 0l-.054-28.25-.08-14.848-.16-14.58-.295-15.626a.48.48 0 0 0-.482-.482l-2.305-.054a.48.48 0 0 0-.482.483l.027 4.127-.027 6.03-.08 7.424-.322 26.426-.08 8.657-.027 7.853v6.647a149.69 149.69 0 0 0 .08 4.905l.027.9c0 .268.482.268.482-.053zm-5.146-68.05c.456 1.77.6 3.618.697 5.44l.107 5.816-.08 2.25-.054.804c0 .107-.027.188-.027.295 0 .08-.027.107 0 .053 0 .027 0 .08-.027.108 0 .053-.027.107-.027.16s-.08.08.027-.053c.027-.027.08-.107.134-.134.107-.08.054 0-.054 0-.054 0-.08.027-.134.027.16-.027 0 0-.054 0-.134.026-.268.026-.43.026l-6.7.08-9.327-.16-7.236-.295-.965-.08c-.054 0-.107 0-.16-.027-.107 0 .134.027.054 0h-.08c-.107-.027-.188-.08-.027 0l.134.134c-.054-.08.027.134.027.054 0-.027-.027-.054-.027-.08a.49.49 0 0 0-.054-.187c0-.027 0-.08-.027-.108-.027-.134 0 .108 0-.026.027-.5-.027-.992-.027-1.475a76.2 76.2 0 0 1 .214-8.925l.08-.938.054-.455.054-.322a7.11 7.11 0 0 1 .24-1.072c.027-.08-.054.08.027-.027.054-.08-.08.08-.027.054 0 0-.134.107-.16.107l.08-.027h.054c.054-.027-.16 0-.027 0l.992-.053 9.327-.16 11.685.053h2.332c.6 0 .6-.9 0-.938l-11.417-.134-10.72.108-1.528.053-.938.08c-.697.16-.75 1.206-.83 1.795-.482 3.002-.563 6.03-.563 9.033 0 1.152-.027 2.358.16 3.5.054.294.107.67.402.83.188.108.456.134.67.134 2 .242 4.074.242 6.084.295l9.46.16 7.826-.08c.6-.027 1.26 0 1.823-.16.268-.08.43-.268.482-.563.08-.456.107-.938.134-1.42l.054-5.146-.43-6.138c-.107-.858-.268-1.7-.482-2.52-.16-.456-.884-.268-.777.24z"/><path d="M4.42 212.433c4.288-.053 8.576.322 12.838.402 1.206.027 2.412.027 3.618-.027.536-.026.536-.857 0-.83-4.315.187-8.63-.16-12.945-.268-1.18-.027-2.332-.054-3.5-.027-.5-.027-.5.75 0 .75zm.455 3.217c3.43.188 6.834.43 10.265 0 .482-.053.5-.83 0-.777-3.404.402-6.834.16-10.265 0-.5-.027-.5.75 0 .777zm20.718-3.646l5.548.027c.6 0 .6-.938 0-.938l-5.548.027c-.563 0-.563.884 0 .884zm1.232 2.976l4.315.027c.6 0 .6-.938 0-.938l-4.315.027c-.563 0-.563.884 0 .884zm11.525-8.658c-.482 1.85-.67 3.753-.777 5.656l-.134 5.923c.027 1.206-.027 2.466.214 3.645.107.616.724.6 1.206.643 2.224.188 4.45.16 6.674.16l9.54-.107 7.37-.268.9-.08c.214-.027.456-.027.643-.134.295-.187.348-.563.402-.857.08-.5.107-1.02.107-1.528.107-3.03 0-6.084-.268-9.113l-.214-1.93c-.054-.376-.107-.778-.24-1.126-.107-.295-.268-.536-.6-.6-.322-.08-.643-.08-.965-.08l-9.22-.16c-4.02-.027-8.04-.054-12.034.027l-2.385.08c-.6 0-.6.938 0 .938 3.7-.08 7.424-.053 11.123-.08l10.64.107c.884.027 1.742.054 2.627.134-.08-.054-.08 0 0 0 .08.054.027.027-.027-.027 0 0-.134-.16-.107-.107.08.134-.027-.107.027.054a8.43 8.43 0 0 1 .241 1.125c.027.134 0-.026 0 .08 0 .08.027.134.027.214.027.16.027.295.054.456l.08.938.134 2.224c.08 1.582.107 3.136.107 4.718 0 1.125 0 2.278-.134 3.43.027-.134 0 .054-.027.134a.5.5 0 0 1-.054.188c.027-.027-.027.134 0 0-.027.027.134-.134.134-.134.188-.107.054-.027-.054 0 .08 0-.16.027 0 0-.054 0-.107 0-.16.027-2 .214-4.047.24-6.084.294l-9.247.188h-7.72c-.375 0-.777-.027-1.152-.054-.134 0-.268-.026-.402-.026h-.08c-.107 0 .08.026.027 0-.054 0-.08-.027-.134-.027-.027 0-.054-.027-.08-.027-.054 0 .054.027.08.054.054.053.08.107.107.16 0 .054.054.054 0 0 0-.053-.027-.107-.027-.16 0-.027 0-.054-.027-.108.027.134 0 0 0-.026 0-.108-.027-.215-.027-.322-.027-.295-.054-.563-.054-.858-.214-3.645-.16-7.37.295-11.015.107-.804.24-1.635.43-2.412.08-.5-.67-.724-.777-.242zm22.165 5.334c-4.288-.054-8.576.295-12.838.348a54.58 54.58 0 0 1-3.618-.053c-.536-.027-.536.83 0 .83 4.315.16 8.63-.188 12.945-.322l3.5-.054c.5.027.5-.75 0-.75z"/><path d="M60.06 214.872c-4.37.215-8.764.483-13.16.456-.992 0-1.957-.027-2.948-.134-.483-.054-.483.723 0 .777 1.93.24 3.913.188 5.843.16 2.358-.054 4.717-.16 7.05-.295l3.2-.16c.536-.053.536-.83.027-.804zm-20.718-3.752c-1.85 0-3.7 0-5.548-.027-.6 0-.6.938 0 .938l5.548-.027c.563 0 .563-.884 0-.884zm-1.232 2.975c-1.447 0-2.868 0-4.315-.027-.6 0-.6.938 0 .938l4.315-.027c.563 0 .563-.884 0-.884zm15.73-7.88l.134-25.354v-26.775L54 126.748l.08-27.07.134-25.998.027-3.163c0-.643-.992-.643-.992 0L53.118 96.3l-.08 27-.027 27.338.054 26.882.24 25.596.08 3.082c.027.322.456.322.456.027z"/><path d="M344.825 70.732c-18.787-.402-37.63-.134-56.417-.16l-56.712-.054-113.585-.348-64.377-.456c-.75 0-.75 1.18 0 1.18l114.657.616 113.156.16 63.278-.134c.5 0 .5-.804 0-.804z"/><path d="M248.394 70.732c.187-1.77.24-3.565.294-5.36l.188-5.226.322-10.56.294-21.2-.026-12.275c0-.67-1.046-.67-1.046 0l.027 21.7-.375 21.04-.134 5.843-.08 6.004c.026.375.51.348.536.027z"/><path d="M238.7 25.223c3.565-.054 7.103-.134 10.667-.375.536-.027.563-.9 0-.858-3.537.295-7.102.348-10.667.67-.375.027-.375.6 0 .563zm10.052 14.553l3.86-.054 3.806.054 7.665-.054c.617-.027.617-.992 0-.965-2.546.188-5.12.16-7.665.134s-5.146-.134-7.665.214c-.402.08-.43.67 0 .67zm-.616 7.397c-2.145-.268-4.315-.188-6.486-.107l-7.076.214c-1.152 0-2.332 0-3.484-.08-.67-.054-.67 1.02 0 1.045 2.17.134 4.315.054 6.486-.054l7.075-.268 3.485-.054c.482 0 .428-.643 0-.697zm-.188 13.59c4.503.214 9.06.483 13.562-.08.616-.08.5-.938-.108-.858-4.45.616-8.95.375-13.427.322-.43 0-.43.616-.027.616z"/><path d="M253.486 37.793l-.054 3.86c0 .536.83.536.83 0l-.053-3.86c-.027-.483-.697-.483-.724 0zm2.117 0l-.053 3.86c0 .536.83.536.83 0l-.053-3.86c-.027-.483-.697-.483-.724 0zm2.947 0l-.053 3.86c0 .536.83.536.83 0l-.054-3.86c-.027-.483-.697-.483-.724 0zm2.816 0l-.054 3.86c0 .536.83.536.83 0l-.054-3.86c-.027-.483-.723-.483-.723 0zm-22.192-14.875l-.054 3.86c0 .536.83.536.83 0l-.054-3.86c-.026-.456-.696-.456-.723 0zm2.144 0l-.054 3.86c0 .536.83.536.83 0l-.053-3.86c-.054-.456-.724-.456-.724 0z"/><use xlink:href="#B"/><use xlink:href="#B" x="-12.303" y="22.996"/><path d="M234.055 45.914l-.054 3.86c0 .536.83.536.83 0l-.054-3.86c-.026-.456-.696-.456-.723 0zm2.948 0l-.054 3.86c0 .536.83.536.83 0l-.053-3.86c-.027-.456-.724-.456-.724 0z"/><use xlink:href="#B" x="-4.44" y="22.996"/><path d="M251.37 58.296l-.054 3.86c0 .536.83.536.83 0l-.054-3.86c-.027-.456-.697-.456-.723 0zm2.116 0l-.054 3.86c0 .536.83.536.83 0l-.053-3.86c-.027-.456-.697-.456-.724 0zm2.948 0l-.054 3.86c0 .536.83.536.83 0l-.053-3.86c-.027-.456-.697-.456-.724 0z"/><use xlink:href="#B" x="14.98" y="35.378"/><path d="M58.398 191.233l-.107 1.42v1.42l.054 3.055.16 6.192.054 3.43c0 .617.992.617.965 0l-.456-13.883-.188-1.635c-.027-.295-.456-.322-.482 0zm.134 30.393c-.134 6.808-.107 13.616-.08 20.423l.16 20.932.027 11.418c0 .67 1.045.67 1.045 0l-.16-20.664-.24-20.852-.08-11.257c-.027-.43-.67-.43-.67 0z"/><path d="M53.6 221.626c-.134 6.808-.107 13.616-.08 20.423l.16 20.932.027 11.418c0 .67 1.045.67 1.045 0l-.16-20.664-.24-20.852-.08-11.257a.34.34 0 0 0-.67 0zm5.04-29.67l16.08-.027 17.85.134 18.493.268 36.262.6-.482-.482-.16 15.304v16.35l.053 16.724v16.43l-.107 15.4-.027 1.85c0 .67 1.046.67 1.046 0l.134-15.304v-16.35l-.08-16.724-.027-16.43.108-15.4.026-1.85c0-.268-.214-.456-.482-.482l-16.108-.188-17.876-.268-18.493-.24-17.984-.134-16.376.107-1.85.027c-.375.08-.402.697 0 .697zm96.404 82.415c-.08-5.28 0-10.533.107-15.813l.563-16.483.697-16.6.5-16.323c.107-5.226.134-10.48-.027-15.705a42.31 42.31 0 0 1-.053-1.85l-.483.483 15.545.08 15.893.027 48.645-.107-.482-.483c.053 5.093 0 10.212-.108 15.304l-.455 16.456-.6 16.94-.482 16.564-.16 15.5.027 1.823c0 .67 1.072.67 1.045 0l.08-15.304.43-16.457.563-16.938.456-16.564.134-15.5c0-.617 0-1.206-.027-1.823a.48.48 0 0 0-.482-.482l-30.77.107-15.947.027c-5.306 0-10.613 0-15.92-.027l-15.518-.107c-.643 0-1.286 0-1.93-.027a.5.5 0 0 0-.483.482c.16 5.173.188 10.346.107 15.52l-.455 16.35-.67 16.6-.536 16.456c-.108 5.334-.134 10.667 0 15.974l.053 1.903c.107.402.724.402.724 0zm92.386-.402l-.027-15.947.107-16.242.375-32.644.108-16.082v-2.036l-.483.482c6.057.268 12.114.16 18.172.027l18.814-.375c3.35-.027 6.674.026 10.024.16.6.027.6-.9 0-.938-6.057-.24-12.114-.16-18.17-.026l-18.815.375c-3.35.027-6.674-.027-10.024-.16a.5.5 0 0 0-.482.482l-.08 16.028-.32 32.644-.054 16.27.134 16c0 .67.027 1.34.054 2 .026.375.67.375.67-.027zm75.74-82.817c2.6.428 5.307.268 7.906.134l7.987-.456-.43-.43-.804 32.886-.67 32.537-.32 18.333c-.027.723 1.125.723 1.152 0l.536-32.6.992-51.165c0-.214-.188-.43-.43-.43-5.253.24-10.56 1.046-15.813.483-.402-.027-.5.643-.107.697z"/><use xlink:href="#C"/><use xlink:href="#C" x="8.363"/><use xlink:href="#C" x="91.153"/><use xlink:href="#C" x="99.513"/><path d="M297.2 175.42c-3.993.134-8.013.16-12.007.188l-19.833.107-25.595.053H210.2c-10.586 0-21.173-.026-31.733-.053l-61.777-.188-26.4-.107-34.386-.188c-.643 0-1.286 0-1.93-.027-.563 0-.563.885 0 .885l11.337.107 19.324.134 54.54.215 31.653.08 31.813.054h30.233l26.747-.054 21.36-.107 14.15-.188 2.118-.053c.482-.027.5-.885-.054-.858zM53.305 136.8l18.547.32 18.118.188 17.85.107 18.117.027 20.986-.054c.456 0 .456-.697 0-.697l-18.654.08H110.1a1966.88 1966.88 0 0 1-17.85-.081l-18.064-.134-20.878-.107c-.188.027-.188.322 0 .35z"/><path d="M76.57 131.492l.268 7.156-.08 9.166-.295 9.783-.402 9.193-.375 8.013c-.027.537.804.537.83 0l.67-16.027.295-9.783.107-9.273-.24-7.505-.054-.723c-.08-.43-.75-.43-.724 0zm.428-53.792a475.8 475.8 0 0 1 .027 13.83l-.268 14.66-.268 7.05c-.027.536.804.536.83 0 .188-4.423.268-8.818.348-13.24l.107-14.82-.107-7.478c0-.43-.697-.43-.67 0zm25.702 1.046l-.08 5.173-.134 8.04-.456 34.226-.375 34.655-.08 8.335-.027 5.628v.885c0 .563.858.563.858 0l.026-4.824.054-7.773.08-9.97.108-11.525.107-12.356.134-12.436.107-11.9.188-19.2.08-5.923v-.965c0-.482-.6-.482-.6-.08zm24.283-.83l-.08 4.235-.107 7.585-.134 10.185-.134 11.9-.482 38.005-.16 10.775-.16 8.388-.16 5.28-.027.724c-.026.6.885.6.912 0l.16-4.395.16-7.72.16-10.265.16-11.954.16-12.838.402-35.86.107-8.282.08-5.12.027-.67c0-.536-.858-.536-.884.027z"/><path d="M64.803 114.365c6.942-.6 13.9-.08 20.852.242 2 .107 4.02.134 6.057.214l-.375-.375c.268 4.6.214 9.246-.027 13.883l-.268 3.78.456-.455-12.302-.108h-10.56c-1.02 0-2.037 0-3.03-.053-.134 0-.295-.027-.43-.027-.054 0-.107 0-.16-.027.054-.027.188.027 0 0-.027.027-.188-.107.054.027l.107.107c-.054-.053.027.107.027.054 0-.027-.027-.054-.027-.08 0-.053-.027-.107-.027-.16-.027-.16 0 .053-.027-.108 0-.08-.027-.187-.027-.268-.027-.214-.027-.428-.027-.643-.027-.563 0-1.126 0-1.688l.134-4.45c.107-3.055.295-6.1.16-9.166 0-.268-.027-.536-.054-.83-.054-.643-1.072-.643-1.02 0 .24 2.975.054 6.004-.054 8.98l-.16 4.744c-.027 1.072-.08 2.144.027 3.216.027.295.054.643.214.9s.43.322.724.35c.777.08 1.608.08 2.385.08 3.323.054 6.647 0 9.97 0l12.65.027a27.34 27.34 0 0 1 1.474.027c.268 0 .456-.215.456-.456.348-4.6.5-9.246.348-13.883-.054-1.26-.107-2.52-.24-3.78-.027-.188-.16-.375-.375-.375-3.538.026-7.076-.242-10.587-.402-3.43-.16-6.86-.322-10.292-.242-2 .027-4.02.134-6.03.322-.375.027-.402.643 0 .616zm9.9 4.665c-.268-.6-.992-.697-1.554-.697-.858.027-1.7.268-2.493.536-.885.322-1.796.75-2.573 1.26-.6.402-1.233.857-1.528 1.528-.5 1.098-.322 2.412.268 3.43.643 1.1 1.742 1.85 2.975 2.117 1.394.322 2.895.134 4.235-.32 1.18-.402 2.305-1.072 3.082-2.064.858-1.1 1.152-2.44.6-3.752-.536-1.206-1.662-2.037-3.002-1.85-.268.026-.402.348-.322.6.08.268.322.375.6.322.858-.134 1.608.6 1.93 1.313.402.9.24 1.876-.322 2.68-.616.858-1.58 1.474-2.573 1.85-1.1.428-2.305.643-3.484.482-1.072-.134-2.117-.643-2.76-1.554-.536-.778-.83-1.77-.5-2.707.188-.563.616-.912 1.126-1.287.643-.456 1.34-.83 2.064-1.18.777-.35 1.58-.67 2.44-.804.43-.054 1.153-.134 1.367.295.134.428.616.134.456-.188z"/><path d="M70.083 119.645c-1.715.617-2.84 2.52-2.653 4.342.027.215.16.402.402.402.188 0 .43-.187.402-.402-.188-1.58.724-3.055 2.117-3.752.322-.16.08-.724-.268-.6zm3.163.135c-1.394.965-2.385 2.466-2.68 4.128-.027.214.054.402.268.482.188.054.43-.053.482-.268.268-1.474 1.072-2.84 2.305-3.725.16-.107.24-.322.134-.483s-.35-.24-.5-.134zm1.77.67c-1.18 1.367-2 3.002-2.44 4.77-.134.5.67.724.777.215.35-1.7 1.126-3.243 2.17-4.584.24-.294-.268-.67-.5-.402zM53.52 78.692h13.454l41.97.134 20.396.107 14.553.107 1.18.027c.43 0 .43-.643 0-.643L131.54 78.3l-19.887-.107-58.132-.188c-.456-.027-.456.697 0 .697zM154.937 136.8l17.555.32 15.464.134 14.82.054 15.438-.027 17.26-.08h2.386c.455 0 .455-.697 0-.697l-17.663.107-15.518.054c-4.93 0-9.9 0-14.82-.027l-15.384-.08-19.538-.08c-.215 0-.215.295 0 .322z"/><path d="M172.25 79.362l.215 4.663.134 7.746.08 10.078.027 11.66-.027 12.5-.053 12.57-.08 11.954-.107 10.48-.134 8.308-.134 5.387-.027.778c-.027.536.804.536.83 0l.107-4.557.108-7.665.16-21.63.054-12.463V116.6l-.027-11.98-.08-10.534-.134-8.4-.215-5.494-.053-.804c0-.483-.697-.483-.644-.027zm25.3-1.045l-.08 5.173-.134 8.04-.456 34.226-.375 34.655-.08 8.335-.026 6.513c0 .563.857.563.857 0l.027-4.824.054-7.773.08-9.97.215-23.88.134-12.436.107-11.9.187-19.2.08-5.923v-.965c0-.456-.6-.456-.6-.08zm23.88-.187l-.08 4.235-.107 7.585-.134 10.185-.134 11.9-.482 38.005-.16 10.774-.16 8.4-.16 5.28-.027.723c-.027.6.884.6.9 0l.16-4.395.16-7.72.16-10.265.16-11.954.16-12.838.402-35.86.107-8.282.08-5.12.027-.67c0-.536-.885-.536-.885.027z"/><path d="M155.124 78.692l12.4-.027h17.287l19.1.027 17.7.054 14.365.08c.43 0 .43-.643 0-.643l-12.516-.107-36.45-.08c-5.896 0-11.766 0-17.662-.027-4.37 0-8.764-.027-13.133-.027h-1.126c-.428.027-.428.75.027.75zM246.5 136.8l19.35.32 19.726.188 19.994.107 19.807.027 19.5-.054h2.385c.456 0 .456-.697 0-.697l-19.457.08h-19.78c-6.674 0-13.347-.027-19.994-.08l-41.57-.214c-.188 0-.188.295.027.322z"/><path d="M276.937 131.492l.268 7.156-.08 9.166-.295 9.783-.402 9.193-.375 8.013c-.027.537.804.537.83 0l.67-16.027.294-9.783.108-9.273-.242-7.505-.053-.723c-.08-.43-.75-.43-.724 0zm.403-53.792c.08 4.6.08 9.22.027 13.83l-.268 14.66-.268 7.05c-.027.536.804.536.83 0 .187-4.423.268-8.818.348-13.24l.107-14.82-.107-7.478c.027-.43-.67-.43-.67 0zm25.73 1.046l-.08 4.717-.134 6.834-.455 28.008-.456 35.298-.054 4.985v.858c0 .563.858.563.858 0l.027-4.395.053-6.594.08-8.255.107-9.38.107-10.024.134-10.104.107-9.703.108-8.737.134-12.57v-.938c.053-.402-.536-.402-.536 0zm24.28-.83l-.08 4.235-.107 7.585-.134 10.185-.134 11.9-.482 38.005-.16 10.775-.16 8.388-.16 5.28-.026.724c-.027.6.884.6.9 0l.16-4.395.16-7.72.16-10.265.16-11.954.16-12.838.402-35.86.107-8.282.08-5.12.027-.67c0-.536-.857-.536-.884.027z"/><path d="M265.17 114.365c6.942-.6 13.9-.08 20.852.242 2 .107 4.02.134 6.057.214l-.375-.375c.268 4.6.214 9.246-.027 13.883l-.268 3.78.456-.455-12.302-.108h-10.56c-1.02 0-2.037 0-3.03-.053-.134 0-.294-.027-.428-.027-.054 0-.108 0-.16-.027.053-.027.187.027 0 0-.027.027-.188-.107.053.027l.108.107c-.054-.053.026.107.026.054 0-.027-.026-.054-.026-.08 0-.053-.027-.107-.027-.16-.027-.16 0 .053-.027-.108 0-.08-.027-.187-.027-.268-.027-.214-.027-.428-.027-.643-.026-.563 0-1.126 0-1.688l.134-4.45c.108-3.055.295-6.1.16-9.166 0-.268-.027-.536-.053-.83-.054-.643-1.072-.643-1.02 0 .24 2.975.054 6.004-.053 8.98l-.16 4.744c-.027 1.072-.08 2.144.026 3.216.027.295.054.643.215.9s.43.322.724.35c.777.08 1.608.08 2.385.08 3.323.054 6.647 0 9.97 0l12.65.027c.483 0 .965 0 1.474.027.268 0 .456-.215.456-.456.348-4.6.5-9.246.348-13.883-.053-1.26-.107-2.52-.24-3.78-.027-.188-.16-.375-.375-.375-3.538.026-7.076-.242-10.587-.402-3.43-.16-6.86-.322-10.3-.242a75.66 75.66 0 0 0-6.031.322c-.402.027-.402.643 0 .616zm9.9 4.665c-.268-.6-.992-.697-1.554-.697-.858.027-1.7.268-2.493.536-.884.322-1.796.75-2.573 1.26-.6.402-1.233.857-1.528 1.528-.5 1.098-.32 2.412.268 3.43.644 1.1 1.743 1.85 2.975 2.117 1.394.322 2.895.134 4.235-.32 1.18-.402 2.305-1.072 3.082-2.064.858-1.1 1.153-2.44.6-3.752-.536-1.206-1.662-2.037-3.002-1.85-.268.026-.402.348-.322.6.08.268.322.375.6.322.858-.134 1.608.6 1.93 1.313.402.9.24 1.876-.322 2.68-.616.858-1.58 1.474-2.573 1.85-1.1.428-2.305.643-3.484.482-1.072-.134-2.117-.643-2.76-1.554-.537-.778-.83-1.77-.5-2.707.188-.563.617-.912 1.126-1.287.643-.456 1.34-.83 2.064-1.18.777-.35 1.58-.67 2.44-.804.428-.054 1.152-.134 1.366.295.134.428.617.134.456-.188z"/><path d="M270.45 119.645c-1.715.617-2.84 2.52-2.653 4.342.027.215.16.402.402.402.188 0 .43-.187.402-.402-.188-1.58.724-3.055 2.117-3.752.295-.16.08-.724-.268-.6zm3.164.135c-1.394.965-2.386 2.466-2.68 4.128-.027.214.053.402.268.482.187.054.428-.053.482-.268.268-1.474 1.072-2.84 2.305-3.725.16-.107.24-.322.134-.483-.134-.16-.348-.24-.5-.134zm1.77.67c-1.18 1.367-2 3.002-2.44 4.77-.134.5.67.724.777.215.348-1.7 1.126-3.243 2.17-4.584.214-.294-.268-.67-.5-.402zm-28.678-41.758l5.87-.027 65.527-.428 10.507-.027h8.844l6.593.027h1.18c.428 0 .428-.643 0-.643l-5.924-.054h-8.335l-10.158.027-11.4.053-46.26.295-8.8.027-6.54.027h-1.18c-.428 0-.428.724.054.724zM864.05 272.416c.268-16.403.08-32.833.027-49.235l-.536-147.785-.456-55.372c0-.804-1.232-.804-1.232 0l.643 98.63.32 98.496.376 55.266c.027.562.857.562.857 0z"/><path d="M863.3 20.157c7.156.643 14.392.724 21.575.91l23.988.348 99.806.536c.73 0 .73-1.1 0-1.1l-95.465-.482-25.273-.268-22.835-.697-1.77-.08c-.563-.027-.536.804-.027.83z"/><path d="M1007.92 20.854c-.35 9.917-.2 19.86-.16 29.777l.27 50.52.24 60.653-.13 60.062-.9 48.967-.2 4.6c-.03.804 1.23.804 1.26 0 .64-15.598.85-31.25 1.02-46.876l.2-59.286-.24-61.16-.32-52.317-.14-35.003c0-.536-.88-.536-.9.054zm-79.947 212.538l-.16 7.585v7.88l.027 3.832c0 .644.992.644.992 0l-.134-15.196-.027-4.1c0-.455-.67-.455-.697 0z"/><path d="M928.455 253.413l12.972.16 13.294.054 13.4.026 13.24-.026 12.864-.08 1.555-.027c.32 0 .51-.24.536-.536a261.1 261.1 0 0 0 .563-9.059l.32-9.032v-1.474c0-.268 0-.563-.08-.804-.08-.214-.268-.402-.536-.402l-6.593.054c-4.02 0-8.04-.027-12.06-.027l-32.028-.188-15.866-.107h-1.77c-.724 0-.724 1.126 0 1.126l32.322.214 15.6.08 12.57.027 7.8-.053c-.188-.134-.348-.268-.536-.402 0 .026 0 .053.027.08 0-.16.053.107 0 0 0 .134.027.268.027.375.026.402.026.83 0 1.233 0 1.287-.054 2.573-.08 3.86a309.09 309.09 0 0 1-.482 9.943 130.19 130.19 0 0 1-.322 4.61l.536-.536-12.784.134-13.213.053-13.374.027h-13.32l-13.025.108c-.536 0-1.072.026-1.608.026-.35-.053-.35.563.053.563z"/><path d="M931.2 232.963c.134-3.645.134-7.317.107-10.962l-.24-11.096-.16-5.172-.5.5c5.414.402 10.855.08 16.27-.107l4.53-.134-.536-.536c-.24 3.35-.188 6.754-.188 10.13l.054 11.953-.027 4.905c-.027.724 1.1.724 1.126 0 .08-3.296 0-6.62-.027-9.917l-.027-12.007c.027-1.688.054-3.377.16-5.038.027-.268-.268-.537-.536-.537l-16.67.43a71.11 71.11 0 0 1-4.128-.107c-.268-.027-.5.24-.5.5l.348 9.8.215 11.417-.054 6.004c-.027.482.777.482.804-.054zm31.893-27.337c-.375 2.17-.563 4.395-.777 6.566l-.617 7.72-.268 5.816c0 .456-.053.965.054 1.42.107.402.402.483.777.536.938.08 1.876.054 2.814.054l5.227-.054 13.293-.268 10.078-.32.6-.027c.295-.027.536-.24.536-.536.027-4.235.24-8.496.375-12.73l.134-5.6c0-.563.027-1.126 0-1.662 0-.322 0-.724-.24-.992-.214-.214-.536-.268-.804-.295-.455-.08-.938-.107-1.394-.16-1.42-.107-2.867-.16-4.288-.187-4.127-.107-8.28-.107-12.4-.107l-11.712.16c-.35.027-.724.027-1.072.054-.697.027-.697 1.1 0 1.072 1.635-.053 3.243-.053 4.878-.08l6.1-.08 12.57.054a143.96 143.96 0 0 1 4.825.161 34.36 34.36 0 0 1 1.661.107c.108 0 .215.027.295.027a.24.24 0 0 1 .134.027c.188.026-.107-.027.027 0l.402.08c.054 0 .08.027.134.027.107.027-.16-.08-.027 0-.08-.054-.187-.215-.214-.268 0-.134.053.16 0 0 .027.43.027.83.027 1.26 0 1.7-.054 3.35-.108 5.04l-.32 12.838v1.233l.536-.536c-2.975.215-5.977.24-8.952.322l-13.213.295c-3.082.053-6.164.134-9.247.053-.16 0-.32 0-.482-.027h-.16c.134.054-.16 0 0 0-.107-.026.134.08.16.108.054.053.134.294.08.107-.026-.134 0 .134 0 .027v-.108c0-.107 0-.214-.026-.32-.054-1.662.053-3.35.16-5.012.268-4.798.6-9.595 1.153-14.366.053-.456.107-.884.134-1.34.053-.43-.75-.536-.83-.08z"/><path d="M978.52 205.33l-.134 8.362-.215 9.327-.107 3.645c-.027.643.992.643.992 0l.187-7.505.16-9.568.027-4.288c-.054-.536-.9-.536-.9.027zm-94.77 0l-.187 5.44-.322 7.612-.268 7.585-.053 5.173c.026.375 0 .884.187 1.233.215.375.9.32 1.287.348l4.636.35 6.78.402 7.237.268 5.842-.027a16.14 16.14 0 0 0 1.984-.188c.375-.053.83-.16 1.1-.43.24-.24.268-.643.32-.964l.16-1.823.214-5.52.08-6.942-.027-6.62-.107-4.637c-.027-.375 0-.777-.08-1.152-.08-.35-.348-.5-.67-.563-1.34-.214-2.733-.16-4.074-.16-2.33-.027-4.663 0-6.968.027l-14.553.16h-2.17c-.724 0-.724 1.126 0 1.126l9.22-.134 11.792-.134 4.503.026 1.5.054c.16 0 .32.027.5.027h.107c.08 0-.16-.027-.027 0 .054 0 .08.027.135.027.107 0 .053.026-.027-.027-.108-.054-.16-.188-.215-.268 0 .027 0 .053.027.053-.027-.16.027.054 0 0l.054.858a67.32 67.32 0 0 1 .08 3.27l.054 10.024-.215 9.622-.107 1.608-.054.643c0 .08-.026.16-.026.268.026-.16 0 .053-.027.134l-.08.348c-.08.16-.026.08 0 0-.08.108.054-.053.027-.026.107-.108-.053.053 0 0-.027.026-.053.026-.053.026-.054.027.134-.053.026 0l-.428.108c-.08.026-.16.026-.242.053-.053 0-.107.027-.134.027-.134.027.108 0-.08 0l-.697.08-1.796.08h-4.7c-3.672-.08-7.343-.268-10.988-.483l-7.88-.563-.75-.08a1.82 1.82 0 0 0 .348.134c.054.054.107.107.107.16 0-.027-.027-.027-.027-.054 0-.053-.027-.107-.027-.16.027.134 0-.026 0 0v-.107c0-.107-.026-.214-.026-.32-.027-.563-.027-1.153-.054-1.716l.08-5.494.43-13.48c.054-1.77.108-3.565.08-5.334-.054-.43-.778-.43-.778.054z"/><path d="M896.75 205.465l-.187 10.265-.456 10.935-.322 5.736c-.026.643.965.643 1.02 0 .482-7.103.75-14.205.777-21.308 0-1.876.027-3.78-.08-5.628-.054-.456-.75-.483-.75 0zm31.223-57.5l-.16 7.585v7.88l.027 3.833c0 .643.992.643.992 0l-.134-15.196-.027-4.1c0-.456-.67-.456-.697 0z"/><path d="M928.455 167.996l12.972.16 13.294.053 13.4.027 13.24-.027 12.864-.08 1.555-.027c.32 0 .51-.24.536-.536l.563-9.06.32-9.032v-1.474c0-.268 0-.563-.08-.804-.08-.215-.268-.402-.536-.402l-6.593.053c-4.02 0-8.04-.027-12.06-.027l-32.028-.187-15.866-.107h-1.77c-.724 0-.724 1.125 0 1.125l32.322.215 15.6.08 12.57.027 7.8-.054c-.188-.134-.348-.268-.536-.402 0 .027 0 .054.027.08 0-.16.053.107 0 0 0 .134.027.268.027.375.026.402.026.83 0 1.233 0 1.286-.054 2.573-.08 3.86-.107 3.324-.268 6.62-.482 9.944a130.19 130.19 0 0 1-.322 4.61l.536-.536-12.784.134-13.213.053-13.374.027h-13.32l-13.025.107c-.536 0-1.072.027-1.608.027-.35-.054-.35.563.053.563z"/><path d="M931.2 147.573c.134-3.645.134-7.317.107-10.962l-.24-11.096-.16-5.173-.5.5c5.414.402 10.855.08 16.27-.107l4.53-.134-.536-.536c-.24 3.35-.188 6.754-.188 10.13l.054 11.954-.027 4.905c-.027.723 1.1.723 1.126 0 .08-3.297 0-6.62-.027-9.917l-.027-12.007c.027-1.7.054-3.377.16-5.04.027-.268-.268-.536-.536-.536l-16.67.43a71.11 71.11 0 0 1-4.128-.107c-.268-.027-.5.24-.5.5l.348 9.8.215 11.418-.054 6.003c-.027.483.777.483.804-.053zm31.893-27.338c-.375 2.17-.563 4.396-.777 6.566l-.617 7.72-.268 5.816c0 .456-.053.965.054 1.42.107.402.402.482.777.536.938.08 1.876.053 2.814.053l5.227-.053 13.293-.268 10.078-.322.6-.027c.295-.026.536-.24.536-.536.027-4.234.24-8.496.375-12.73l.134-5.602c0-.563.027-1.126 0-1.662 0-.32 0-.723-.24-1-.214-.215-.536-.268-.804-.295-.455-.08-.938-.107-1.394-.16-1.42-.107-2.867-.16-4.288-.188-4.127-.107-8.28-.107-12.4-.107l-11.712.16c-.35.027-.724.027-1.072.054-.697.026-.697 1.098 0 1.072 1.635-.054 3.243-.054 4.878-.08l6.1-.08 12.57.053a146.67 146.67 0 0 1 4.825.16c.562.027 1.098.054 1.66.107.108 0 .215.027.295.027a.24.24 0 0 1 .134.027c.188.027-.107-.027.027 0l.402.08c.054 0 .08.027.134.027.107.027-.16-.08-.027 0-.08-.053-.187-.214-.214-.268 0-.134.053.16 0 0 .027.43.027.83.027 1.26 0 1.688-.054 3.35-.108 5.04l-.32 12.838v1.233l.536-.536c-2.975.214-5.977.24-8.952.32l-13.213.295c-3.082.054-6.164.134-9.247.054-.16 0-.32 0-.482-.027h-.16c.134.053-.16 0 0 0-.107-.027.134.08.16.107.054.054.134.295.08.107-.026-.134 0 .134 0 .027v-.107c0-.107 0-.215-.026-.322-.054-1.662.053-3.35.16-5.012.268-4.797.6-9.595 1.153-14.365.053-.456.107-.885.134-1.34.053-.428-.75-.536-.83-.08z"/><path d="M978.52 119.94l-.134 8.362-.215 9.327-.107 3.645c-.027.644.992.644.992 0l.187-7.504.16-9.568.027-4.3c-.054-.536-.9-.536-.9.027zm-94.77 0l-.187 5.44-.322 7.612-.268 7.585-.053 5.172c.026.376 0 .885.187 1.233.215.375.9.322 1.287.35l4.636.348 6.78.402 7.237.268 5.842-.027a16.14 16.14 0 0 0 1.984-.187c.375-.054.83-.16 1.1-.43.24-.24.268-.643.32-.965l.16-1.823.214-5.52.08-6.94-.027-6.62-.107-4.637c-.027-.375 0-.777-.08-1.153-.08-.348-.348-.5-.67-.562-1.34-.215-2.733-.16-4.074-.16-2.33-.027-4.663 0-6.968.027l-14.553.16h-2.17c-.724 0-.724 1.126 0 1.126l9.22-.134 11.792-.134 4.503.027 1.5.053c.16 0 .32.027.5.027h.107c.08 0-.16-.027-.027 0 .054 0 .08.027.135.027.107 0 .053.027-.027-.027-.108-.053-.16-.187-.215-.268 0 .027 0 .054.027.054-.027-.16.027.053 0 0l.054.857a67.32 67.32 0 0 1 .08 3.27l.054 10.024-.215 9.622-.107 1.608-.054.643c0 .08-.026.16-.026.268.026-.16 0 .054-.027.134l-.08.35c-.08.16-.026.08 0 0-.08.107.054-.054.027-.027.107-.107-.053.054 0 0-.027.027-.053.027-.053.027-.054.027.134-.054.026 0l-.428.107c-.08.027-.16.027-.242.054-.053 0-.107.026-.134.026-.134.027.108 0-.08 0l-.697.08a20.34 20.34 0 0 1-1.796.08h-4.7c-3.672-.08-7.343-.268-10.988-.482l-7.88-.563-.75-.08c.107.053.24.107.348.134.054.053.107.107.107.16 0-.026-.027-.026-.027-.053 0-.054-.027-.107-.027-.16.027.134 0-.027 0 0v-.107c0-.107-.026-.215-.026-.322-.027-.563-.027-1.152-.054-1.715l.08-5.495.43-13.48c.054-1.77.108-3.564.08-5.333-.054-.43-.778-.43-.778.053z"/><path d="M896.75 120.074l-.187 10.265-.456 10.935-.322 5.736c-.026.643.965.643 1.02 0a333.34 333.34 0 0 0 .777-21.307l-.08-5.63c-.054-.482-.75-.482-.75 0zm31.223-53.254l-.16 7.585v7.88l.027 3.833c0 .643.992.643.992 0l-.134-15.197-.027-4.1c0-.456-.67-.456-.697 0z"/><path d="M928.455 86.84l12.972.16 13.294.054 13.4.027 13.24-.027 12.864-.08 1.555-.027c.32 0 .51-.24.536-.536a261.22 261.22 0 0 0 .563-9.059l.32-9.032v-1.474c0-.268 0-.563-.08-.804-.08-.214-.268-.402-.536-.402l-6.593.054c-4.02 0-8.04-.027-12.06-.027l-32.028-.188-15.866-.107h-1.77c-.724 0-.724 1.126 0 1.126l32.322.214 15.6.08 12.57.027 7.8-.054c-.188-.134-.348-.268-.536-.402 0 .027 0 .054.027.08 0-.16.053.107 0 0 0 .134.027.268.027.375.026.402.026.83 0 1.233 0 1.286-.054 2.573-.08 3.86-.107 3.323-.268 6.62-.482 9.943a130.05 130.05 0 0 1-.322 4.61l.536-.536-12.784.134-13.213.054-13.374.027h-13.32L930 86.25c-.536 0-1.072.027-1.608.027-.35-.054-.35.563.053.563z"/><path d="M931.2 66.417c.134-3.645.134-7.317.107-10.962l-.24-11.096-.16-5.173-.5.5c5.414.402 10.855.08 16.27-.107l4.53-.134-.536-.536c-.24 3.35-.188 6.754-.188 10.13l.054 11.954-.027 4.905c-.027.724 1.1.724 1.126 0 .08-3.297 0-6.62-.027-9.917l-.027-12.007c.027-1.688.054-3.377.16-5.04.027-.268-.268-.536-.536-.536l-16.67.43a71.11 71.11 0 0 1-4.128-.107c-.268-.027-.5.24-.5.5l.348 9.8.215 11.418-.054 6.004c-.027.482.777.482.804-.054zm31.893-27.337c-.375 2.17-.563 4.395-.777 6.566l-.617 7.72-.268 5.816c0 .456-.053.965.054 1.42.107.402.402.482.777.536.938.08 1.876.054 2.814.054l5.227-.054 13.293-.268 10.078-.322.6-.027c.295-.027.536-.24.536-.536.027-4.235.24-8.496.375-12.73l.134-5.602c0-.563.027-1.126 0-1.662 0-.322 0-.724-.24-.992-.214-.215-.536-.268-.804-.295-.455-.08-.938-.107-1.394-.16-1.42-.107-2.867-.16-4.288-.188-4.127-.107-8.28-.107-12.4-.107l-11.712.16c-.35.027-.724.027-1.072.054-.697.027-.697 1.1 0 1.072 1.635-.054 3.243-.054 4.878-.08l6.1-.08 12.57.054a145.03 145.03 0 0 1 4.825.161c.562.027 1.098.054 1.66.107.108 0 .215.027.295.027a.24.24 0 0 1 .134.027c.188.027-.107-.027.027 0l.402.08c.054 0 .08.027.134.027.107.027-.16-.08-.027 0a.95.95 0 0 1-.214-.268c0-.134.053.16 0 0a19.61 19.61 0 0 1 .027 1.26c0 1.688-.054 3.35-.108 5.04l-.32 12.838v1.233l.536-.536c-2.975.214-5.977.24-8.952.322l-13.213.295c-3.082.054-6.164.134-9.247.054-.16 0-.32 0-.482-.027h-.16c.134.054-.16 0 0 0-.107-.027.134.08.16.107.054.054.134.295.08.107-.026-.134 0 .134 0 .027v-.1c0-.107 0-.214-.026-.322-.054-1.662.053-3.35.16-5.012.268-4.797.6-9.595 1.153-14.366.053-.456.107-.884.134-1.34.053-.43-.75-.536-.83-.08z"/><path d="M978.52 38.758l-.134 8.362-.215 9.327-.107 3.645c-.027.643.992.643.992 0l.187-7.504.16-9.568.027-4.288c-.054-.5-.9-.5-.9.027zm-94.77 0l-.187 5.44-.322 7.612-.268 7.585-.053 5.173c.026.375 0 .884.187 1.233.215.375.9.322 1.287.348l4.636.348 6.78.402 7.237.268 5.842-.027c.67-.027 1.34-.08 1.984-.188.375-.054.83-.16 1.1-.43.24-.24.268-.643.32-.965l.16-1.822.214-5.52.08-6.942-.027-6.62-.107-4.637c-.027-.375 0-.777-.08-1.153-.08-.348-.348-.5-.67-.563-1.34-.214-2.733-.16-4.074-.16-2.33-.027-4.663 0-6.968.027l-14.553.16h-2.17c-.724 0-.724 1.126 0 1.126l9.22-.134 11.792-.134 4.503.027 1.5.054c.16 0 .32.027.5.027h.107c.08 0-.16-.027-.027 0 .054 0 .08.027.135.027.107 0 .053.027-.027-.027-.108-.054-.16-.188-.215-.268 0 .027 0 .054.027.054-.027-.16.027.054 0 0l.054.858.08 3.27.054 10.024-.215 9.622-.107 1.608-.054.643c0 .08-.026.16-.026.268.026-.16 0 .054-.027.134l-.08.35c-.08.16-.026.08 0 0-.08.107.054-.054.027-.027.107-.107-.053.054 0 0-.027.027-.053.027-.053.027-.054.027.134-.054.026 0l-.428.107c-.08.027-.16.027-.242.054-.053 0-.107.027-.134.027-.134.027.108 0-.08 0l-.697.08-1.796.08a136.8 136.8 0 0 1-4.69 0c-3.672-.08-7.343-.268-10.988-.483l-7.88-.563-.75-.08a1.82 1.82 0 0 0 .348.134c.054.054.107.107.107.16 0-.027-.027-.027-.027-.054 0-.054-.027-.107-.027-.16.027.134 0-.027 0 0v-.107c0-.107-.026-.214-.026-.322-.027-.563-.027-1.152-.054-1.715l.08-5.494.43-13.48c.054-1.77.108-3.565.08-5.334-.054-.402-.778-.402-.778.054z"/><path d="M896.75 38.918l-.187 10.265-.456 10.935-.322 5.736c-.026.643.965.643 1.02 0 .482-7.103.75-14.205.777-21.308 0-1.876.027-3.78-.08-5.628-.054-.483-.75-.483-.75 0zM863.033 99.84l27.98.857 28.383.35H948.1l28.57-.268 27.93-.402 3.48-.054c.54 0 .54-.83 0-.83l-27.978.483-28.383.32-28.704.108a2030.8 2030.8 0 0 1-28.571-.215l-27.927-.616-3.484-.107c-.188.054-.188.348 0 .375zm.51 91.26l115.166.295 29.942.027c.4 0 .4-.644 0-.644-8.795 0-17.613-.026-26.404-.026-9.73 0-19.458 0-29.187-.027-10.05 0-20.128-.027-30.178-.027h-29.4l-29.937.054c-.214.026-.214.348 0 .348zm51.164-170.407c.43-4.476-.08-8.952-.187-13.428-.027-1.367-.027-2.734.053-4.1-.107.16-.24.295-.348.456 2.358-.67 4.7-1.715 7.156-1.957 2.064-.214 4.127.107 6.1.777.884.295 1.902.643 2.546 1.367-.054-.107-.107-.24-.16-.348.08 4.7-.08 9.407-.134 14.098l-.027 3.672c0 .67 1.045.67 1.045 0l.134-17.448c0-.16.027-.322-.026-.482-.08-.268-.376-.482-.6-.643-.9-.697-2.064-1.1-3.163-1.394C926 .94 924.8.726 923.658.62c-1.635-.134-3.27.107-4.85.536-1.635.456-3.2 1.1-4.824 1.555a.46.46 0 0 0-.349.456c-.16 4.503.35 9.005.456 13.508a66.53 66.53 0 0 1-.027 4.02c-.054.456.6.43.643 0z"/><use xlink:href="#D"/><path d="M894.3 20.693c.43-4.476-.08-8.952-.187-13.428-.027-1.367-.027-2.734.053-4.1-.107.16-.24.295-.348.456 2.358-.67 4.7-1.715 7.156-1.957 2.064-.214 4.127.107 6.11.777.884.295 1.902.643 2.546 1.367-.054-.107-.107-.24-.16-.348.08 4.7-.08 9.407-.134 14.098l-.027 3.672c0 .67 1.045.67 1.045 0l.134-17.448c0-.16.027-.322-.026-.482-.08-.268-.376-.482-.6-.643-.91-.697-2.064-1.1-3.163-1.394-1.125-.322-2.305-.536-3.457-.643-1.635-.134-3.27.107-4.85.536-1.635.456-3.19 1.1-4.824 1.555a.46.46 0 0 0-.349.456c-.16 4.503.35 9.005.456 13.508a66.53 66.53 0 0 1-.027 4.02c-.054.456.6.43.643 0z"/><use xlink:href="#D" x="-20.396"/><path d="M936.952 21.122c2.385-1.635 4.61-3.618 6.754-5.548L949.763 10l4.502-3.967c.51-.43-.214-1.152-.723-.724l-7.2 6.593-5.79 5.387-3.967 3.35c-.268.214.08.67.376.482z"/><path d="M942.017 21.578c3.565-3.994 7.45-7.692 11.685-10.99 1.207-.938 2.44-1.823 3.672-2.707.215-.16.295-.456.08-.67-1.046-1.018-2.36-1.635-3.806-1.742-.6-.054-.6.884 0 .91 1.206.054 2.385.563 3.216 1.42l.08-.67c-2.25 1.5-4.368 3.243-6.405 5.012s-3.994 3.618-5.843 5.575c-1.072 1.126-2.1 2.25-3.082 3.43-.268.295.134.697.402.43z"/><path d="M952.98 10.482c-.67 3.457-1.02 6.995-.9 10.506.026.616 1 .616.964 0-.16-3.43.188-6.888.724-10.292.08-.5-.697-.75-.777-.214zm3.188 10.988c4.6-4.288 8.898-8.898 13.48-13.213 1.448-1.367 2.922-2.76 4.476-4.02.456-.375-.214-1.072-.643-.643l-3.967 3.645a113.22 113.22 0 0 0-3.618 3.538l-6.54 6.674-3.62 3.618c-.268.24.16.67.43.402zm4.958-.134c2-2.144 4.18-4.154 6.433-6.084l6.298-5.36 3.913-3.672c.402-.402-.214-1.018-.616-.616l-6.647 6.057-6.164 5.44-3.645 3.78c-.295.322.134.75.428.456z"/><path d="M973.616 3.915c.322.16.616.348.9.563l.215.16c-.054-.027 0 0 .026.027s.054.054.08.054c.107.107.214.188.348.295l1.42 1.367c.187.16.455.188.643 0 .16-.16.188-.482 0-.643l-1.5-1.367a7.9 7.9 0 0 0-1.715-1.126c-.188-.08-.402-.054-.536.134s-.08.456.107.536zm-1.046 6.245c-.35 3.565-.43 7.13-.965 10.667-.054.295.08.563.375.643.24.08.617-.08.643-.375.5-3.618.697-7.3.67-10.962 0-.43-.67-.43-.723.027zM737.95 269.04H716c-.992 0-2.037-.08-3.03 0h-.053c-.43 0-.43.67 0 .67h25.032c.43 0 .43-.67 0-.67zm-345-126.3l-2.68.08h-.375c-.43.027-.43.697 0 .67l2.68-.08h.375c.43 0 .43-.67 0-.67zm-18.787.508h-3.913c-.43 0-.43.67 0 .67h3.913c.43 0 .43-.67 0-.67zm166.76 32.35c-5.146.32-10.292.053-15.4-.08l.295.295c-.187-4.02-.214-8.067-.295-12.114l-.134-12.008-.08-6.03-.054-3.002c-.026-.884-.08-1.796-.053-2.707.053-2.305 1.474-4.422 3.5-5.467 2.412-1.26 5.494-1.1 7.692.482 1.635 1.152 3.002 3.082 3.377 5.092.053.35.053.858.08 1.314l.054 1.903.08 4.154.134 9.193.295 17.367c.027.536.027 1.1.054 1.635.026.563.884.563.857 0-.214-5.735-.24-11.47-.295-17.18l-.294-17.823c-.08-2.037-1.34-4.047-2.734-5.44-.938-.9-2.037-1.634-3.27-2-1.42-.455-3.002-.455-4.45-.134-2.52.563-4.637 2.332-5.52 4.798-.483 1.34-.402 2.68-.35 4.074l.134 6.137c.16 8.255.108 16.537.563 24.792l.134 3.03c0 .16.134.294.295.294 5.146.108 10.292.402 15.4 0 .295-.08.295-.6-.027-.562zm-19.216 0c-5.146.32-10.292.053-15.4-.08l.294.295c-.187-4.02-.214-8.067-.294-12.114l-.134-12.008-.08-6.03-.053-3.002c-.027-.884-.08-1.796-.054-2.707.054-2.305 1.474-4.422 3.5-5.467 2.412-1.26 5.494-1.1 7.692.482 1.635 1.152 3.002 3.082 3.377 5.092.054.35.054.858.08 1.314l.054 1.903.08 4.154.134 9.193.295 17.367c.027.536.027 1.1.054 1.635.027.563.884.563.858 0-.215-5.735-.242-11.47-.295-17.18l-.295-17.823c-.08-2.037-1.34-4.047-2.734-5.44-.938-.9-2.037-1.634-3.27-2-1.42-.455-3-.455-4.45-.134-2.52.563-4.636 2.332-5.52 4.798-.482 1.34-.402 2.68-.348 4.074l.134 6.137c.16 8.255.107 16.537.563 24.792l.134 3.03c0 .16.134.294.294.294 5.146.108 10.292.402 15.4 0 .295-.08.322-.6-.026-.562zm-18.762 0c-5.145.32-10.3.053-15.4-.08l.294.295c-.187-4.02-.214-8.067-.294-12.114l-.287-21.04c-.027-.884-.08-1.796-.054-2.707.054-2.305 1.474-4.422 3.5-5.467 2.412-1.26 5.494-1.1 7.692.482 1.635 1.152 3.002 3.082 3.377 5.092.054.35.054.858.08 1.314l.054 1.903.08 4.154.134 9.193.295 17.367c.027.536.027 1.1.054 1.635.027.563.884.563.857 0-.214-5.735-.24-11.47-.294-17.18l-.295-17.823c-.08-2.037-1.34-4.047-2.734-5.44-.938-.9-2.037-1.634-3.27-2-1.42-.455-3-.455-4.45-.134-2.52.563-4.636 2.332-5.52 4.798-.482 1.34-.402 2.68-.348 4.074l.134 6.137c.16 8.255.107 16.537.563 24.792l.134 3.03c0 .16.134.294.294.294 5.146.108 10.292.402 15.4 0 .295-.08.295-.6-.027-.562z"/><path d="M502.526 143.42l2.68.08h.375c.43.027.43-.643 0-.67l-2.68-.08h-.375c-.43 0-.43.67 0 .67zm18.787.508h3.914c.428 0 .428-.67 0-.67h-3.914c-.428 0-.455.67 0 .67zm-108.117-24.845c.643-.054 1.313-.027 1.983-.054l3.913-.054 12.276-.107 15.92-.107 16.858-.16 16.402-.214c.536 0 .536-.83 0-.83l-14.5.214-16.698.188-16.16.16-12.918.16-6.754.188c-.08 0-.188.027-.268.027-.456.027-.456.616-.054.6z"/><path d="M481.058 117.02c.375-5.334.107-10.694.053-16.028v-3.805c0-.375-.027-.724-.43-.804-.32-.054-.67-.054-.99-.054-1.448-.054-2.868-.054-4.315-.054H468.3l-8.952.027-45.75.24c-.16 0-.32.08-.402.214-.268.51-.214 1.26-.268 1.823-.08 1.206-.107 2.412-.134 3.618l-.187 10.373-.08 5.976c0 .563.885.563.885 0l.187-10.586.24-8.845c.027-.456.054-.938.108-1.394 0-.08.026-.16.026-.24s-.026.107 0-.027c0-.027 0-.054.027-.08 0-.054.027-.107.027-.134.027-.08.027-.107 0 0-.134.08-.268.16-.402.214h4.663l6.54-.027 7.906-.054 26.373-.16 7.907-.027h6.566l4.663.027c.75 0 1.528.054 2.28.08.107 0-.134-.027-.027 0 .08.027-.16-.107-.16-.107-.054-.107-.08-.214-.134-.322-.134 5.28.188 10.56.24 15.84.027 1.447 0 2.894-.027 4.315-.026.43.617.43.644 0z"/><path d="M413.384 114.34c3.484.134 6.968.24 10.452.214l12.704-.16 13.99-.295 14.5-.268 13.99-.134c.562 0 1.125 0 1.688.027.6 0 .6-.938 0-.91l-13.937.134-14.5.268-14.098.295-12.918.214-10.748.08h-1.152c-.348-.027-.322.536.027.536z"/><path d="M420.084 97.025l-.08 12.677v3.752c0 .483.777.483.777 0l-.054-12.892-.026-3.537c-.054-.402-.617-.402-.617 0zm7.183 0l-.08 12.677v3.752c0 .483.777.483.777 0l-.054-12.892-.027-3.537c-.026-.402-.616-.402-.616 0zm12.918 0l-.08 12.677v3.752c0 .483.777.483.777 0l-.054-12.892-.026-3.537c-.027-.402-.617-.402-.617 0zm9.032 0l-.08 12.677v3.752c0 .483.777.483.777 0l-.053-12.892-.027-3.537c-.027-.402-.617-.402-.617 0zm14.795 0l-.08 12.677v3.752c0 .483.778.483.778 0l-.054-12.892-.027-3.537c-.027-.402-.616-.402-.616 0zm7.585 0l-.08 12.677v3.752c0 .483.777.483.777 0l-.053-12.892-.027-3.537c-.027-.402-.616-.402-.616 0zm-37.442 16.402c.295-4.476.268-9.005.295-13.48V85.312l.134-12.06c0-.348.027-.697.053-1.045.027-.322.027-.375.108-.697a13.24 13.24 0 0 1 .536-1.85c.536-1.394 1.393-2.76 2.44-3.886 1.206-1.34 2.733-2.385 4.422-3.03 2.17-.83 4.502-.9 6.807-.643 1.984.24 3.967.804 5.602 1.983 1.233.885 2.17 2.117 2.787 3.5 1.153 2.573 1.26 5.494 1.314 8.308.107 3.833.026 7.692-.08 11.552l-.456 13-.294 10.748.026 1.85c0 .643 1.02.643 1.02 0-.027-1.42.054-2.84.08-4.26l.16-5.548.43-13.053.16-12.33c-.027-2.975-.027-6.084-.858-8.98-.43-1.528-1.126-2.948-2.17-4.154-1.18-1.367-2.787-2.332-4.476-2.895-1.1-.375-2.25-.6-3.403-.724-1.26-.134-2.52-.188-3.78-.027-2.1.24-4.1.9-5.816 2.117-2.654 1.823-4.7 4.744-5.387 7.906-.295 1.42-.242 2.92-.27 4.37l-.026 6.084.134 14.58.08 14.366-.027 3.002c-.027.24.43.24.456-.08zm-79.6-9.755c5.146.402 10.292.107 15.4 0a.3.3 0 0 0 .295-.295 382.24 382.24 0 0 0 .456-12.383l.187-12.4.108-6.164.08-3.136c.027-.75.08-1.528 0-2.278a7.27 7.27 0 0 0-4.02-5.789c-2.573-1.26-5.8-1.206-8.228.348-1.876 1.233-3.377 3.243-3.967 5.414-.268.992-.188 2.064-.214 3.1l-.08 4.127-.134 9.38-.268 17.877c-.027.563-.027 1.125-.053 1.688s.83.563.857 0l.322-16.67.295-17.6c.026-.938.107-1.635.455-2.546a8.8 8.8 0 0 1 1.716-2.68c.83-.884 1.822-1.635 2.975-2.037 1.34-.483 2.787-.5 4.18-.214 2.412.5 4.422 2.198 5.092 4.6.402 1.394.214 2.895.16 4.342l-.108 5.95-.348 24.12-.107 2.95.295-.295c-5.146.134-10.292.43-15.4.08-.268-.027-.268.483.053.5zm19.2 0c5.146.402 10.292.107 15.4 0a.3.3 0 0 0 .295-.295c.214-4.128.375-8.255.456-12.383l.187-12.4.107-6.164.08-3.136c.027-.75.08-1.528 0-2.278a7.27 7.27 0 0 0-4.02-5.789c-2.573-1.26-5.8-1.206-8.228.348-1.877 1.233-3.377 3.243-3.967 5.414-.268.992-.188 2.064-.214 3.1l-.08 4.127-.134 9.38-.268 17.877c-.027.563-.027 1.125-.054 1.688s.83.563.858 0l.322-16.67.295-17.6c.026-.938.107-1.635.455-2.546a8.81 8.81 0 0 1 1.715-2.68c.83-.884 1.823-1.635 2.975-2.037 1.34-.483 2.788-.5 4.18-.214 2.413.5 4.423 2.198 5.093 4.6.402 1.394.214 2.895.16 4.342l-.108 5.95-.348 24.12-.107 2.95.295-.295c-5.146.134-10.292.43-15.4.08-.268-.027-.268.483.053.5zm18.788 0c5.146.402 10.292.107 15.4 0a.3.3 0 0 0 .295-.295 382.26 382.26 0 0 0 .455-12.383l.188-12.4.107-6.164.08-3.136c.026-.75.08-1.528 0-2.278a7.27 7.27 0 0 0-4.021-5.789c-2.572-1.26-5.8-1.206-8.228.348-1.876 1.233-3.377 3.243-3.966 5.414-.268.992-.188 2.064-.215 3.1l-.08 4.127-.134 9.38-.268 17.877c-.027.563-.027 1.125-.054 1.688s.83.563.858 0l.322-16.67.294-17.6c.027-.938.108-1.635.456-2.546a8.81 8.81 0 0 1 1.715-2.68c.83-.884 1.823-1.635 2.975-2.037 1.34-.483 2.788-.5 4.18-.214 2.412.5 4.423 2.198 5.093 4.6.402 1.394.214 2.895.16 4.342l-.107 5.95-.348 24.12-.107 2.95.294-.295c-5.145.134-10.3.43-15.4.08-.268-.027-.268.483.053.5z"/><path d="M408.88 71.215l9.14-.054 11.9-.107 4.208-.027c.375 0 .375-.563 0-.563l-25.247.214c-.348 0-.348.536 0 .536zm50.28.562l3.725.107 5.8.027 18.413-.107c.295 0 .295-.456 0-.456l-10.88.08-12.704.027c-1.448 0-2.895 0-4.342-.107-.295-.027-.268.43 0 .43zm-66.2-1.474l-2.68.08h-.375c-.43.027-.43.697 0 .67l2.68-.08h.375c.43-.027.43-.697 0-.67zm-18.787.5h-3.913c-.43 0-.43.67 0 .67h3.913c.43 0 .43-.67 0-.67z"/><path d="M540.932 103.162c-5.146.322-10.292.054-15.4-.08l.295.295c-.187-4.02-.214-8.068-.295-12.115l-.134-12.007-.08-6.03-.054-3.002c-.026-.885-.08-1.796-.053-2.707.053-2.305 1.474-4.422 3.5-5.468 2.412-1.26 5.494-1.1 7.692.482 1.635 1.152 3.002 3.082 3.377 5.092.053.348.053.858.08 1.313l.054 1.903.08 4.154.134 9.193.295 17.367c.027.536.027 1.1.054 1.635.026.563.884.563.857 0-.214-5.735-.24-11.47-.295-17.18l-.294-17.823c-.08-2.037-1.34-4.047-2.734-5.44-.938-.9-2.037-1.635-3.27-2-1.42-.456-3.002-.456-4.45-.134-2.52.563-4.637 2.332-5.52 4.797-.483 1.34-.402 2.68-.35 4.074l.134 6.138c.16 8.255.108 16.537.563 24.792l.134 3.028c0 .16.134.295.295.295 5.146.107 10.292.402 15.4 0 .295-.08.295-.6-.027-.563zm-19.216 0c-5.146.322-10.292.054-15.4-.08l.294.295c-.187-4.02-.214-8.068-.294-12.115l-.134-12.007-.08-6.03-.053-3.002c-.027-.885-.08-1.796-.054-2.707.054-2.305 1.474-4.422 3.5-5.468 2.412-1.26 5.494-1.1 7.692.482 1.635 1.152 3.002 3.082 3.377 5.092.054.348.054.858.08 1.313l.054 1.903.08 4.154.134 9.193.295 17.367c.027.536.027 1.1.054 1.635.027.563.884.563.858 0-.215-5.735-.242-11.47-.295-17.18l-.295-17.823c-.08-2.037-1.34-4.047-2.734-5.44-.938-.9-2.037-1.635-3.27-2-1.42-.456-3-.456-4.45-.134-2.52.563-4.636 2.332-5.52 4.797-.482 1.34-.402 2.68-.348 4.074l.134 6.138c.16 8.255.107 16.537.563 24.792l.134 3.028c0 .16.134.295.294.295 5.146.107 10.292.402 15.4 0 .295-.08.322-.6-.026-.563zm-18.762 0c-5.145.322-10.3.054-15.4-.08l.294.295c-.187-4.02-.214-8.068-.294-12.115l-.134-12.007-.08-6.03-.053-3.002c-.027-.885-.08-1.796-.054-2.707.054-2.305 1.474-4.422 3.5-5.468 2.412-1.26 5.494-1.1 7.692.482 1.635 1.152 3.002 3.082 3.377 5.092.054.348.054.858.08 1.313l.054 1.903.08 4.154.134 9.193.295 17.367c.027.536.027 1.1.054 1.635.027.563.884.563.857 0-.214-5.735-.24-11.47-.294-17.18l-.295-17.823c-.08-2.037-1.34-4.047-2.734-5.44-.938-.9-2.037-1.635-3.27-2-1.42-.456-3-.456-4.45-.134-2.52.563-4.636 2.332-5.52 4.797-.482 1.34-.402 2.68-.348 4.074l.134 6.138c.16 8.255.107 16.537.563 24.792l.134 3.028c0 .16.134.295.294.295 5.146.107 10.292.402 15.4 0 .295-.08.295-.6-.027-.563z"/><path d="M502.526 70.973l2.68.08h.375c.43.027.43-.643 0-.67l-2.68-.08h-.375c-.43-.027-.43.643 0 .67zm18.787.5h3.914c.428 0 .428-.67 0-.67h-3.914c-.428 0-.455.67 0 .67zm-223.9 162.365c1.366 5.333 7.477 8.148 12.623 7.156 6.057-1.126 10.453-6.567 12.4-12.115 1.233-3.484 1.7-7.2 1.93-10.88.24-3.913.295-7.853.268-11.766-.054-7.96-.536-15.92-1.474-23.827-.456-3.806-.938-7.612-1.662-11.364-.697-3.5-1.662-6.995-3.35-10.158-1.447-2.733-3.538-5.387-6.513-6.513-2.68-1.018-5.548-.214-7.53 1.743-1.957 1.93-3.1 4.583-3.94 7.156-1.1 3.484-1.876 7.102-2.626 10.694-1.582 7.558-2.627 15.223-3.163 22.915-.5 7.72-.5 15.465.054 23.157.134 1.93.32 3.86.5 5.8.187 1.662.32 3.324.67 4.958.5 2.413 1.447 5.146 3.457 6.754a5.18 5.18 0 0 0 3.27 1.153c.697 0 .697-1.072 0-1.072-2.466 0-3.993-2.1-4.824-4.18-1.126-2.788-1.34-5.87-1.635-8.845a162.18 162.18 0 0 1-.724-22.245 170.6 170.6 0 0 1 2.252-22.165c.616-3.672 1.366-7.3 2.25-10.9.724-2.975 1.394-6.03 2.734-8.817 1.045-2.17 2.6-4.423 4.985-5.2 2.867-.9 5.574.616 7.477 2.68 2.198 2.412 3.538 5.602 4.476 8.7 1.02 3.35 1.555 6.807 2.064 10.238 1.1 7.585 1.77 15.223 2.064 22.9.134 3.832.187 7.665.134 11.525-.054 3.645-.134 7.3-.6 10.908-.804 6.164-3.2 12.65-8.63 16.16-2.332 1.5-5.04 2.278-7.826 1.93-2.546-.322-5.04-1.5-6.754-3.43a7.95 7.95 0 0 1-1.742-3.243c-.16-.348-.75-.187-.643.215z"/><path d="M308.965 183.166c-.6 5.816-1.018 11.685-1.367 17.5l-.884 17.314-.402 17.743c-.054 6.057 0 12.088.268 18.145.268 6.11.616 12.22.563 18.36v2.278c0 .67.99.67 1.018 0 .24-6.11-.16-12.275-.456-18.386a411.03 411.03 0 0 1-.402-18.171l.295-17.797.75-17.34 1.232-19.645c.08-.43-.562-.43-.616 0z"/><path d="M309.26 194.556c1.206-2.653 2.1-5.467 3.055-8.228 1.1-3.162 2.198-6.325 3.645-9.327.643-1.313 1.34-2.626 2.305-3.752.43-.482-.295-1.18-.697-.697-1.876 2.25-3 5.12-4.02 7.826-1.206 3.163-2.198 6.406-3.297 9.595-.482 1.448-.964 2.922-1.554 4.342-.134.322.402.536.563.24zm-1.153 9.944c-.402-5.12-1.367-10.372-3.993-14.848-.402-.697-.858-1.367-1.313-2-.376-.5-1.233-.027-.858.5.9 1.26 1.715 2.573 2.36 3.966 1 2.145 1.66 4.423 2.144 6.728.375 1.876.616 3.752.804 5.655.027.563.884.6.857 0zm-.24 11.712c.24-.643.67-1.26 1.18-1.742a3.83 3.83 0 0 1 .831-.643 4.31 4.31 0 0 1 .483-.268c.187-.08.295-.134.482-.188.215-.08.375-.295.295-.536-.054-.214-.322-.375-.536-.295a5.91 5.91 0 0 0-3.538 3.485c-.08.214.08.455.295.5a.49.49 0 0 0 .509-.322zm15.144 8.79c1.018-1.018 2.385-1.42 3.752-.965 1.206.402 2.252 1.394 2.788 2.547-.027-.08.026.08 0 0 0 .026.026.053.026.08.027.054.027.107.054.16.054.134.08.268.107.402.08.32.134.643.188.965l.268 2.546c.348 5.04.16 10.158-.268 15.196-.215 2.332-.483 4.664-.992 6.97-.187.884-.455 1.715-.724 2.573-.24.83-.455 1.635-.9 2.358-.536.858-1.447 1.287-2.44 1.475-.723.134-1.474.107-2.197.08h-.108c.108.027-.026 0-.026 0a.51.51 0 0 1-.215-.054c-.16-.026-.295-.08-.43-.134-.026 0-.134-.053-.026 0-.027-.026-.08-.026-.108-.053-.08-.027-.134-.08-.187-.107s-.134-.08-.188-.108c-.027-.026-.24-.16-.16-.107-.268-.214-.482-.43-.697-.697-.375-.482-.804-1.313-1.045-1.93-.804-2.145-1.1-4.476-1.26-6.755-.242-3.35-.215-6.727-.08-10.104a56.03 56.03 0 0 1 .16-2.975c.027-.643-.992-.643-1.02 0-.187 3.752-.32 7.505-.16 11.257.107 2.627.348 5.307 1.072 7.826.455 1.58 1.206 3.297 2.653 4.262.617.402 1.313.6 2.064.643 1.367.08 2.92-.027 4.074-.83.857-.563 1.367-1.42 1.715-2.36.295-.83.536-1.688.777-2.546.643-2.198.938-4.502 1.18-6.754.295-2.787.456-5.575.536-8.362a93.08 93.08 0 0 0-.08-7.746c-.054-1-.134-1.983-.268-2.975-.08-.697-.188-1.42-.402-2.1-.75-2.332-3.6-4.074-5.977-3.2-.67.242-1.26.67-1.742 1.233-.24.16.08.483.295.268z"/><path d="M322.66 232.615c.402.456.482 1.313.536 1.93.134 1.125.107 2.25.107 3.377l-.402 7.424-.107 2.412.16 4.37c.054 3.564.027 7.102-.026 10.667l-.134 10.21v1.1c0 .6.938.6.938 0l.107-10.13v-10.855c-.054-2.412-.268-4.824-.16-7.236.107-2.44.295-4.905.322-7.344.026-1.18 0-2.358-.108-3.538-.08-.804-.187-1.688-.616-2.412-.08-.107-.16-.24-.268-.32-.214-.27-.6.107-.348.348z"/><path d="M323.786 256.87c.134-2.198.483-4.396 1.233-6.486.456-1.287 1.072-2.573 2.037-3.565.16-.188.402-.375.563-.5a1.82 1.82 0 0 1 .295-.188c.053-.027.08-.054.134-.08.026 0 .16-.08.107-.054.536-.214.214-.965-.322-.724-1 .43-1.715 1.394-2.278 2.28-.965 1.554-1.528 3.323-1.903 5.092-.295 1.394-.455 2.787-.536 4.208 0 .43.643.43.67.027zm-.643-12.4c.054.08-.027-.026-.027-.026a.2.2 0 0 1-.053-.108 1.18 1.18 0 0 1-.134-.268l-.242-.616-.482-1.7-.348-1.688-.16-1.206c-.054-.643-1.046-.643-.992 0 .08 1.1.35 2.17.617 3.243l.562 1.742c.188.43.376.884.697 1.233.35.375.9-.215.563-.617zM73.433 69.982c.43-4.476-.08-8.952-.188-13.428-.027-1.367-.027-2.734.054-4.1-.107.16-.24.295-.348.456 2.358-.67 4.7-1.715 7.156-1.957 2.064-.214 4.127.107 6.1.777.884.295 1.903.643 2.546 1.367-.054-.107-.107-.24-.16-.348.08 4.7-.08 9.407-.134 14.098l-.027 3.672c0 .67 1.072.67 1.045 0l.134-17.448c0-.16.027-.322-.027-.482-.08-.268-.375-.483-.6-.643-.9-.697-2.064-1.1-3.163-1.394a19.11 19.11 0 0 0-3.457-.643c-1.635-.134-3.27.107-4.85.536-1.635.456-3.2 1.1-4.824 1.554a.46.46 0 0 0-.348.456c-.16 4.503.348 9.005.456 13.508.027 1.34.027 2.68-.027 4.02-.054.43.6.43.643 0z"/><path d="M73.594 61.218c2.707-.617 5.736-.75 8.4.134l-.322-.402c.107 1.715 0 3.457-.134 5.173-.107 1.42-.214 2.84 0 4.26.08.536.9.322.83-.214-.214-1.367-.054-2.76.054-4.128l.107-5.066c-.027-.188-.134-.348-.322-.402-2.814-.938-6.004-.777-8.844-.134-.482.08-.268.885.24.777zm72.364 8.764c.43-4.476-.08-8.952-.187-13.428-.027-1.367-.027-2.734.053-4.1-.107.16-.24.295-.348.456 2.358-.67 4.7-1.715 7.156-1.957 2.063-.214 4.127.107 6.1.777.885.295 1.903.643 2.547 1.367-.054-.107-.108-.24-.16-.348.08 4.7-.08 9.407-.134 14.098l-.027 3.672c0 .67 1.072.67 1.045 0l.134-17.448c0-.16.027-.322-.027-.482-.08-.268-.375-.483-.6-.643-.9-.697-2.064-1.1-3.163-1.394-1.125-.322-2.305-.536-3.457-.643-1.635-.134-3.27.107-4.85.536-1.635.456-3.2 1.1-4.824 1.554a.46.46 0 0 0-.349.456c-.16 4.503.35 9.005.456 13.508a66.53 66.53 0 0 1-.027 4.02c-.054.43.6.43.643 0z"/><path d="M146.146 61.218c2.707-.617 5.735-.75 8.4.134l-.322-.402c.107 1.715 0 3.457-.134 5.173-.107 1.42-.214 2.84 0 4.26.08.536.9.322.83-.214-.215-1.367-.054-2.76.053-4.128l.108-5.066c-.027-.188-.134-.348-.322-.402-2.814-.938-6.003-.777-8.844-.134-.5.08-.295.885.24.777zm53.47 8.764c.43-4.476-.08-8.952-.188-13.428-.027-1.367-.027-2.734.054-4.1-.107.16-.24.295-.35.456 2.36-.67 4.7-1.715 7.156-1.957 2.064-.214 4.128.107 6.1.777.885.295 1.903.643 2.546 1.367-.053-.107-.107-.24-.16-.348.08 4.7-.08 9.407-.134 14.098l-.026 3.672c0 .67 1.072.67 1.045 0l.134-17.448c0-.16.027-.322-.027-.482-.08-.268-.375-.483-.6-.643-.9-.697-2.063-1.1-3.162-1.394a19.11 19.11 0 0 0-3.457-.643c-1.635-.134-3.27.107-4.852.536-1.634.456-3.2 1.1-4.824 1.554a.46.46 0 0 0-.348.456c-.16 4.503.348 9.005.455 13.508a67.36 67.36 0 0 1-.026 4.02c-.054.43.6.43.643 0z"/><path d="M199.802 61.218c2.707-.617 5.736-.75 8.4.134l-.32-.402c.107 1.715 0 3.457-.134 5.173-.108 1.42-.215 2.84 0 4.26.08.536.9.322.83-.214-.215-1.367-.054-2.76.053-4.128l.107-5.066c-.026-.188-.134-.348-.32-.402-2.814-.938-6.004-.777-8.845-.134-.5.08-.295.885.24.777zm-29.696 8.576c2.386-1.635 4.6-3.618 6.754-5.548l6.057-5.575 4.503-3.967c.5-.43-.214-1.152-.724-.724l-7.2 6.593-5.8 5.387-3.967 3.35c-.268.24.08.697.375.482z"/><path d="M175.172 70.277c3.564-3.993 7.45-7.692 11.685-10.99 1.206-.938 2.44-1.822 3.672-2.707.214-.16.295-.456.08-.67-1.045-1.018-2.358-1.635-3.805-1.742-.6-.054-.6.884 0 .91 1.206.054 2.385.563 3.216 1.42l.08-.67c-2.25 1.5-4.368 3.243-6.405 5.012s-3.994 3.618-5.843 5.575c-1.072 1.126-2.09 2.25-3.082 3.43-.268.295.134.697.402.43z"/><path d="M186.107 59.154c-.67 3.457-1.02 6.995-.9 10.506.026.617 1 .617.964 0-.16-3.43.188-6.888.724-10.292.107-.5-.67-.724-.777-.214zm-89.464 10.64c2.385-1.635 4.6-3.618 6.754-5.548l6.057-5.575 4.503-3.967c.5-.43-.214-1.152-.724-.724l-7.2 6.593-5.8 5.387-3.967 3.35c-.268.24.08.697.375.482z"/><path d="M101.71 70.277c3.564-3.993 7.45-7.692 11.685-10.99 1.206-.938 2.44-1.822 3.672-2.707.215-.16.295-.456.08-.67-1.046-1.018-2.36-1.635-3.806-1.742-.6-.054-.6.884 0 .91 1.206.054 2.385.563 3.216 1.42l.08-.67c-2.25 1.5-4.368 3.243-6.405 5.012s-3.994 3.618-5.843 5.575c-1.072 1.126-2.09 2.25-3.082 3.43-.268.295.134.697.402.43z"/><path d="M112.67 59.154c-.67 3.457-1.02 6.995-.912 10.506.027.617.992.617.965 0-.16-3.43.188-6.888.724-10.292.08-.5-.697-.724-.777-.214zm209.053 116.91h2.33l5.602-.027 12.677-.053h2.894c.43 0 .43-.67 0-.67h-2.33l-18.28.08c-.938 0-1.903-.054-2.84 0h-.053c-.43 0-.43.67 0 .67z"/></g><defs ><path id="B" d="M244.24 22.918l-.053 3.86c0 .536.83.536.83 0l-.054-3.86c-.027-.456-.697-.456-.724 0z"/><path id="C" d="M146.307 71.75l-.215 19.485.027 20.852.054 21.334-.054 20.852-.268 19.673-.054 2.332c-.026.723 1.1.723 1.1 0l.268-19.432.054-20.825-.35-61.885-.053-2.332c.027-.402-.51-.402-.51-.054z"/><path id="D" d="M914.894 11.93c2.707-.616 5.735-.75 8.39.134l-.322-.402c.107 1.715 0 3.457-.134 5.173-.107 1.42-.214 2.84 0 4.26.08.536.91.322.83-.214-.214-1.367-.054-2.76.054-4.127l.107-5.066c-.027-.188-.134-.348-.322-.402-2.814-.938-6.003-.777-8.844-.134-.5.107-.295.91.24.777z"/></defs></svg>