<svg xmlns="http://www.w3.org/2000/svg" xmlns:xlink="http://www.w3.org/1999/xlink" width="1104" height="724" fill="none"><g fill="#7faef3"><path d="M368.916 723.13l169.8-1.592-1.373-524.325c-16.35-1.436-62.885 0-81.473 0H364.1l-.915 170.27c-.86 20.675-.696 161.647 2.746 202.997 2.754 33.08 2.688 116.467 2.975 152.65zm-82.522-27.693v27.692H8.24c0-167.856-5.192-349.3-8.24-518.593h165.057c0 2.297-1.425 17.82-1.425 26.1v22.235h21.055l1.144-5.528h60.418v6.637h33.184l1.602 33.413h9.662V324h27.642v25.632h-17.85v13.045l19.682 2.06-1.83 18.995-18.995 1.83c3.73 21.824 0 83.68 0 105.046l-1.373 99.324h8.238l1.145 30.2-20.96 1.144v17.393h10.432v20.795h-12.13l1.697 13.992h11.577l-1.145 20.597-10.432 1.373z"/><path fill-rule="evenodd" d="M755.683 85.32v51.777h136.17L890.25 363.45l2.518 208.025h75.064v19.246h109.408l25.62 19.014c-.68 15.52-.56 27.858-.34 49.706l.34 63.93-546.51-1.833v-136.64l46.687 1.374.23-496.14c2.628-1.065 5.652-2.788 9.24-4.832 12.856-7.325 32.938-18.766 67.885-18.766 32.27 0 66.4 11.033 75.294 18.787z"/><path d="M933.847 559.724l1.03 11.75h-9.955v-11.75c.648-.572 2.563-1.717 5.035-1.717s3.623 1.145 3.9 1.717zm-12.13 0v11.75h-9.383v-11.75c.763-.572 2.723-1.717 4.462-1.717s4.005 1.145 4.92 1.717zm26.9 11.75l-6.865-13.468h15.104l6.866 13.468h-15.105z"/></g><g opacity=".5" fill="#245196"><path d="M737.102 135.914l-.304 115.37-.06 118.404.728 118.83v115.674c-.97 35.242.91 70.424.424 105.666l-.303 12.313c0 .85-1.395.85-1.335 0 1.214-35.18-.667-70.302-.364-105.483l.97-55.502-.607-57.928-.85-118.708V265.904l.546-115.857.182-14.133c.12-.606.97-.606.97 0z"/><path d="M736.98 136.4c4.913-.182 9.887-.06 14.86 0h15.104l30.814-.242 30.753-.425 30.207-.303h28.994c1.153 0 2.366 0 3.518.06.85 0 .85 1.334 0 1.273l-28.75-.06-30.207.303-30.754.364-30.753.243c-10.008 0-20.077.12-30.086-.243l-3.7-.182c-.485-.06-.485-.728 0-.79z"/><path d="M891.717 136.763l.364 84.193.06 255.127.485 94.14c0 .85-1.334.85-1.334 0l-.485-83.344-.122-84.92.122-170.024-.06-84.738v-10.434c0-.606.97-.606.97 0zm-136.722-5.46c-.727-12.374-.485-24.87-.12-37.244a273.19 273.19 0 0 1 .364-9.948c.06-.788 1.213-.788 1.213 0-.546 12.435-.85 24.8-.788 37.244l.12 9.948c-.06.485-.8.485-.8 0z"/><path d="M755.48 84.78c-4.792-2.305-9.584-4.6-14.497-6.612-4.792-1.94-9.706-3.7-14.74-5.156-9.948-2.912-20.2-4.913-30.5-5.823a149.58 149.58 0 0 0-30.753.485c-10.19 1.213-20.26 3.518-29.964 6.915a139.42 139.42 0 0 0-27.903 13.527l-3.336 2.184c-.667.425-1.274-.607-.606-1.03 8.613-6.005 18.075-10.797 27.84-14.558 9.705-3.7 19.774-6.308 30.086-7.825 10.25-1.516 20.624-1.88 30.996-1.213 10.433.667 20.745 2.366 30.814 5.156 10.2 2.8 20.077 6.55 29.42 11.404 1.152.607 2.365 1.213 3.457 1.88.425.243.06.85-.303.667zm-.18 36.1l-33.908-6.915c-11.343-2.002-22.746-3.457-34.2-3.882-10.25-.364-20.563.06-30.753 1.516-8.796 1.274-17.47 3.458-25.72 6.855-8.674 3.58-16.68 8.552-23.9 14.497-.97.788-1.88 1.577-2.8 2.366-.425.364-.97-.243-.607-.607 7.158-6.248 15.043-11.646 23.657-15.65 8.128-3.76 16.74-6.247 25.597-7.764 9.826-1.698 19.835-2.244 29.782-2.184 11.525.122 23 1.396 34.393 3.276 11.464 1.88 22.928 4.307 34.27 6.976l4.307 1.03c.243.12.12.546-.12.485zm-19.957 21.1c-8.674-1.638-17.348-3.215-26.083-4.428-8.492-1.213-17.045-2.123-25.658-2.426-8.492-.304-16.984-.06-25.415.97-8.674 1.03-17.166 2.912-25.476 5.58-9.038 2.9-17.652 6.854-25.9 11.585-1.092.607-2.123 1.213-3.215 1.88-.364.242-.667-.364-.303-.546 8.2-4.974 16.802-9.16 25.84-12.374a129.34 129.34 0 0 1 25.72-6.31c8.43-1.213 16.984-1.638 25.476-1.456 8.613.182 17.287.97 25.84 2.123 8.674 1.153 17.348 2.73 25.9 4.428l3.336.668c.364-.06.243.303-.06.303zm-3.276 22.26c-16.984-3.396-34.15-6.065-51.437-6.5-16.62-.425-33.362 1.274-49.375 5.823-9.463 2.67-18.683 6.3-27.478 10.737-.424.182-.788-.425-.364-.607 15.407-7.764 31.967-12.92 49.072-15.164 16.802-2.245 33.847-1.76 50.65.303a296.95 296.95 0 0 1 29.054 5.095c.243-.06.122.364-.12.303zm-3.82 27.115a235.86 235.86 0 0 0-42.278-4.367c-14.194-.182-28.388.85-42.4 3.154-7.825 1.274-15.528 2.972-23.17 5.035-.424.12-.606-.546-.182-.667a239.07 239.07 0 0 1 41.854-7.401c14.193-1.213 28.5-1.152 42.702.243 7.886.728 15.77 1.94 23.535 3.518.364 0 .243.546-.06.485zm163.592-12.495l-30.753-.06-30.208.122-29.843.242-30.025.182c-10.25.06-20.502.06-30.753-.06h-3.882c-.486 0-.486-.727 0-.727l30.753.12 30.207-.12 29.843-.243 30.026-.12 30.753.12c1.274 0 2.608 0 3.882.06.303 0 .303.485 0 .485zm-.9 23.17l-30.935.12-29.42.06-28.933.12-64.903.122c-.425 0-.425-.607 0-.607h31.54l118.646-.182 4.064.06c.182-.12.182.303-.06.303zm.302 22.263l-28.872.182H832.15l-30.814-.182-30.57-.304-29.904-.424c-1.213 0-2.426-.06-3.64-.06-.364 0-.364-.607 0-.607l29.722.486 30.632.364 30.814.182 30.146.06H891.1c.303 0 .303.304.12.304z"/><path d="M805.644 136.46l-.303 34.03-.182 36.273-.06 37.123.06 36.1.242 33.726.06 3.943c0 .364-.606.364-.606 0l-.243-33.3-.06-35.9.122-37.062.242-36.455.425-38.457c-.122-.303.303-.303.303 0zm-20.44 0l-.607 31.724-.06 31.785.243 32.088.182 32.634-.182 33.18-.06 4.307c0 .364-.606.364-.606 0l.242-33.483-.12-32.695-.182-32.148.06-31.845.667-31.543.12-4.003c-.12-.243.304-.243.304 0zm-20.745.97c.243 7.824.243 15.65.243 23.474l-.243 30.147-.97 64.176-.12 28.7c0 .425-.606.425-.606 0l.12-25.112 1.03-63.752.364-30.692-.12-24.567c0-.788-.06-1.638-.06-2.426-.12-.243.364-.243.364.06zm60.354-.97l.364 34.03.242 36.273.122 37.123-.06 36.1-.243 33.726-.06 3.943c0 .364-.607.364-.607 0l.243-33.3.06-35.9-.06-37.062-.182-36.455-.364-38.457c.12-.303.546-.303.546 0zm20.44 0l.728 31.724.12 31.785-.364 64.722.182 33.18.06 4.307c0 .364-.606.364-.606 0l-.243-33.483.182-32.695.242-32.148v-31.845l-.545-31.543-.122-4.003c-.06-.243.364-.243.364 0zm20.745.97c-.243 7.824-.182 15.65-.182 23.474l.364 30.147.546 32.755.485 31.42.12 26.022v2.67c0 .425-.667.425-.606 0l-.12-25.112-.9-63.752-.304-30.692.122-24.567c0-.788.06-1.638.06-2.426 0-.243.425-.243.425.06zM722.423 71.435l-.728 23.9-.546 27.6-.8 56.958-.303 24.566-.06 2.67c0 .486-.788.486-.788 0l.667-51.56.485-29.055.607-27.902.85-24.506.12-2.67c.06-.303.486-.303.486 0zm-24.143-4.67V94.06l.303 29.36.486 29.965 1.273 60.9c0 .485-.728.485-.728 0l-.606-27.6-.546-29.54-.485-29.965-.243-29.54.06-27.6.06-3.275c-.06-.303.425-.303.425 0zm-23.96-.9c-.182 10.797-.12 21.655 0 32.452l.668 33.908 2.062 68.725.667 32.755.06 4.004c0 .485-.8.485-.8 0l-.606-32.695-1.94-68.664-.667-34.03.06-32.573.06-4.003c-.06-.182.424-.182.424.12zm-25.232 3.7l.243 28.7.728 98.023.182 32.4c0 .485-.728.485-.728 0l-.728-94.14-.425-61.7v-3.276c.12-.364.728-.364.728 0zM625.37 77.5l.485 22.868.486 28.63.364 30.572.06 28.5a691.25 691.25 0 0 1-.364 22.443l-.06 2.184c0 .485-.8.485-.728 0 .303-7.158.364-14.376.424-21.534V163.2l-.303-30.5-.425-29.115-.424-23.718c0-.8-.06-1.577-.06-2.366-.06-.425.546-.425.546 0zm53.258-11.888c-.97-15.043-.12-30.147-.364-45.25-.06-4.428-.364-8.856-.485-13.284 0-.667.97-.667 1.03 0 .728 7.643.667 15.407.607 23.05l-.304 22.443.182 13.04c0 .425-.606.425-.667 0z"/><path d="M677.294.83c-2.305.243-2.245 3.518-1.032 4.853.8.9 2.305 1.334 3.276.546 1.213-.9 1.334-2.548.9-3.943-.182-.546-.485-1.03-1.03-1.213C678.75.83 677.96.83 677.233.9c-.546 0-.546-.8 0-.85 1.456-.12 3.093-.06 3.82 1.456.728 1.577.546 3.64-.606 4.913s-3.094 1.152-4.368.12c-1.03-.85-1.516-2.244-1.395-3.518.122-1.516 1.032-2.73 2.6-2.85.424 0 .364.607 0 .667zm139.33 134.417c-.303-5.277-.303-10.555-.364-15.892-.06-5.156-.243-10.252-.485-15.407 0-.607.9-.607.97 0 .425 5.095.364 10.3.364 15.407l.06 15.892c0 .364-.546.364-.546 0z"/><path d="M817.957 97.457c1.942 1.092 2.002 3.943.728 5.52-.667.85-1.76 1.274-2.85 1.092-1.153-.182-2.063-1.03-2.6-2.063-.606-1.152-.728-2.608.06-3.7.12-.182.364-.303.606-.182.182.12.304.425.182.607-1.152 1.456-.06 3.82 1.578 4.367.788.243 1.698.06 2.244-.546s.85-1.455.85-2.244c0-.9-.364-1.82-1.152-2.305-.364-.12 0-.728.363-.546zM604.323 88.6l-.546 89.4-.242 135.752V467.4l.182 143.516.363 111.428c0 .8-1.273.8-1.273 0l-.304-96.87-.242-293.462.242-140.06.8-96.02.12-7.34c.122-.485.9-.485.9 0zm-66.48 108.275l-.243 100.57.485 103.3.9 104.27.607 103.542-.364 100.996-.12 12.253c0 .85-1.274.85-1.274 0l.546-100.57-.485-103.3-.9-104.27-.607-103.543.546-100.995.243-12.253c0-.424.667-.424.667 0z"/><path d="M537.054 197.664c-44.825.364-89.712-.8-134.537-.425l-38.76.607.546-.546.242 101.177-.727 210.3.242 103.543 1.456 98.75.303 11.707c0 .8-1.213.8-1.213 0l-1.577-97.962-.303-103.118.788-210.483-.06-101.723-.122-12.192c0-.303.243-.546.546-.546 44.886-1.03 89.833-.8 134.78-.303l38.518.546c.303.06.303.667-.122.667zm-6.55 10.2c-30.5.425-61.02-.06-91.47-.364l-46.645-.182-10.858.06-5.883.06h-1.94c-1.76 0-2.184-.243-2.427 1.516-.303 2.8.304 6.005.425 8.795.12 3.033-.303 6.552.303 9.584.304 1.456.06 1.274 1.517 1.456.85.122 1.94-.06 2.8-.12l5.884-.243c1.273-.06 2.608-.485 3.214.8.668 1.516.243 3.82.182 5.398-.06 2.002-.424 4.428.06 6.43.06.303-.12.546-.425.607l-6.732.303c-1.032 0-2.002.06-3.033.06-.486 0-2.73-.243-3.094.06-.364.364-.06 2.063-.06 2.427.06 1.213.06 2.426.06 3.64l.06 6.187c0 1.092.06 2.123.06 3.215 0 .9-.18 1.698.364 2.002.728.424 2.973.182 3.882.182 2.85.06 5.702.12 8.492-.06.243 0 .486.243.486.485l.12 14.983c0 .242-.243.485-.485.485-3.094-.182-6.187-.243-9.28-.303-.85 0-1.698-.06-2.487-.06-.364 0-.728 0-1.092-.06-.485-.182-.606 0-.363.425-.425.667 0 3.215 0 4.003v11.1c-.06 1.516-.304 1.334.9 1.395.668.06 1.396-.12 2.063-.12 3.215-.182 6.5-.486 9.644-.06.243.06.485.182.485.485-.242 5.277.85 10.494.122 15.832-.06.303-.364.425-.607.364-4.246-.97-8.795.485-12.98-.546.182-.182.424-.303.606-.485l-.667 37.426V355c0 3.397-.303 7.097.182 10.433.303 2.123 1.092 2.366 2.9 2.305 1.335-.06 2.67 0 4.064 0 2.002 0 4.064.12 6.066.06.303 0 .485.242.485.485.486 4.367.182 8.735.546 13.102 0 .303-.242.485-.485.485-4.428.425-9.34 1.092-13.77 0l.667-.485c-.12 2.366-.182 4.73-.242 7.097l-.122 4.6c-.06 1.335-.303 1.395 1.092 1.335 3.82-.122 8.007-.607 11.646-1.82.304-.12.607.182.607.485l.242 13.405c0 .182-.182.425-.364.486-2.244.364-4.55.242-6.793.12-2.184-.12-4.67-.12-6.733-.9l.667-.485c-.303 3.397-.242 6.733-.242 10.13v4.6c0-.06-.122 2.244-.243 2.123.12.12.9.06 1.092.06 4.124.243 8.3-.06 12.434.425.243.06.486.182.486.485l-.243 8.917c0 .243-.243.546-.485.485-2.366-.182-4.73-.303-7.097-.424-1.456-.06-2.85-.122-4.307-.243-.182 0-1.213-.182-1.395-.06-.485-.182-.546 0-.242.486v1.03c.303 4.307 0 8.735-.06 13.102l-.182 13.345-.06 12.86c.06 4.246-.303 8.856.304 13.102.182 1.153-.364.728.667.97.424.12 1.092-.06 1.516-.06l4.004-.182c2.365-.06 4.73-.243 7.096-.06.304 0 .486.243.486.486.06 3.942-.304 7.946-.122 11.9 0 .303-.242.485-.485.485-2.426.06-4.792-.06-7.218-.182l-4.003-.182c-.304 0-1.335-.243-1.638-.06-.607.364-.243 2.366-.243 2.972.182 6.612 0 13.163.303 19.714l-.545-.546 13.526-.242c.303 0 .485.242.546.546.485 4.306.06 8.734 0 13.102 0 .303-.243.546-.546.546-4.428 0-8.856-.122-13.344-.122l.545-.546c.06 3.337-.18 6.673-.363 10-.122 1.516-.182 2.972-.243 4.5 0 .667-.243 2.183-.06 2.8.243.606-.364.242.425.485 1.638.607 4.55-.06 6.308-.12l6.612-.425c.303 0 .485.243.485.485.425 4.368-.546 8.735-.182 13.102 0 .243-.182.486-.364.486-2.305.485-4.73.364-7.036.364-2.366 0-4.792.06-7.097-.364.243-.182.425-.364.667-.486l.425 62.053-.546-.546c4.428 0 8.917.304 13.345-.182.242-.06.545.243.545.546-.485 4.004.304 8.068.182 12.07 0 .364-.303.546-.667.486-4.55-.728-9.22-.182-13.83-.304l.546-.546c.607 6.673.486 13.345.425 20.017l-.667-.485c4.428-.85 8.977-.06 13.466-.303.303 0 .485.242.485.485.303 3.64.12 7.28.12 10.92 0 .242-.243.545-.485.485-4.367-.546-8.977-.182-13.345 0l.546-.546v52.772c0 .667-1.03.667-1.03 0v-52.772c0-.303.243-.485.546-.546 2.487-.12 5.034-.182 7.52-.182 1.335 0 2.6 0 3.943.06.243 0 1.03.182 1.274.06.424.122.425 0 .12-.303v-1.82c.06-2.183 0-4.306 0-6.5 0-1.456.122-1.092-.97-1.213-.546-.06-1.213 0-1.76 0-3.276-.06-6.794-.425-10 .242-.303.06-.667-.12-.667-.485.12-6.672.182-13.345-.425-20.017 0-.303.243-.546.546-.546 4.67.12 9.463-.424 14.073.303-.243.182-.425.364-.667.486.06-4.004-.728-8.068-.182-12.07l.545.546c-4.367.546-8.916.242-13.344.182-.303 0-.485-.243-.546-.546l-.425-62.053c0-.364.364-.546.668-.485 2.972.485 6.187.364 9.22.303.727 0 3.76.12 4.003-.243.12-.12-.12-2.062-.12-2.426 0-1.03.06-2.062.12-3.094.06-1.82.243-3.64.243-5.46 0-.303.12-.9 0-1.152-.304-.425.424.182-.243.06-.728-.182-1.82.122-2.548.182-3.518.243-7.097.486-10.554.243-.303 0-.485-.243-.485-.485-.06-6.127.667-12.193.606-18.258 0-.304.243-.546.546-.546l13.345.12-.546.546c0-4.367.485-8.795 0-13.102l.546.546-13.527.182c-.303 0-.485-.243-.546-.546-.303-6.43-.12-12.86-.242-19.3-.06-1.7-.97-4.246 1.213-4.368 2.608-.182 5.398.304 8.067.364 1.213.06 2.548.243 3.76.122h.425c.424.06.485 0 .12-.122.243-.424 0-1.698 0-2.123 0-1.577.06-3.093.12-4.67 0-.546.364-3.822.182-4.004-.485-.546-5.277.06-6.37.06l-6.975.243c-.304 0-.486-.243-.486-.486-.788-18.622.06-37.304-.12-55.987 0-.242.243-.546.485-.485 3.518.303 7.036.364 10.555.606.667.06 1.577-.06 2.244.122.546.182.182.788.243.12l.12-4.003c.06-1.274.12-2.6.12-3.882 0-.85.243-.122 0-.122-.728-.06-1.456-.12-2.244-.12-3.7-.12-7.46.06-11.1-.364-.243-.06-.546-.182-.486-.485.304-5.763-.182-11.586.304-17.348 0-.304.303-.607.667-.486 2.608.97 5.823.9 8.613.97 1.092 0 2.912.364 3.943-.06.546-.242-.303.8.06.06.12-.243 0-.8 0-1.03l-.243-12c.182.182.424.304.606.486-4.124 1.456-9.22 2.123-13.526 1.88-.243 0-.485-.242-.485-.485.06-4.5.12-9.038.424-13.527 0-.303.304-.546.668-.485 2.85.728 5.944.546 8.855.364.85-.06 3.215.182 3.883-.303.606-.486.06-4.246.06-5.338 0-1.88-.06-3.7-.12-5.58-.06-.85.12-.97-.364-1.213-.364-.182-1.335 0-1.76 0-2.73-.06-5.46-.182-8.25-.06-1.88.06-3.032.243-3.275-1.88-.425-4.003-.182-8.3-.182-12.374-.06-7.825.06-15.65.243-23.475l.485-23.474c0-.364.303-.546.606-.486 2.912.668 6.188.182 9.22.243.607 0 2.6.485 3.155.182.667.243.788-.182.242-1.274.06-.606.06-1.213.12-1.82 0-1.152 0-2.365-.06-3.518-.12-2.244-.425-4.488-.364-6.733 0-1.03.303-1.03-.364-1.273-.607-.243-1.698-.06-2.305-.06-3.336 0-6.612.242-9.948.485-.242 0-.485-.243-.485-.485l-.12-18.197c0-.243.242-.546.485-.486 2.184.122 4.367.182 6.5.243s4.73.606 6.794.243c-.182.06 0 .85-.06-.243v-1.577l-.12-10.494V260.5c-.06-.9.242-.06-.06 0-4.064.425-8.492.243-12.556-.242-.242-.06-.485-.182-.485-.486-.303-6.126-.12-12.253-.425-18.38 0-.243.243-.485.486-.485l13.526-.364c-.12.182-.303.364-.425.606-.788-2.972 0-6.5-.06-9.523 0-.485.12-1.76-.182-2.123-.485-.667-2.366-.303-3.154-.303l-9.827.364c-.242 0-.424-.182-.424-.425l-.85-22.2c0-.242.182-.424.425-.424 42.035-.546 84 .364 126.046.546h33.786c-.06.182-.06.788-.486.788z"/><path d="M530.867 207.126c-.424 7.4-.546 14.8-.788 22.2 0 .182-.182.364-.364.364l-6.976-.243c-1.334-.06-4.306-.727-5.52-.182-1.395.668-.667 5.096-.606 6.5.06 1.152.06 2.365.06 3.518 0 .303-.182 1.152-.06 1.456.364.728-.607-.364.364.12.788.425 2.67.12 3.64.182.9 0 1.82.06 2.73.06l6.308.12c.182 0 .425.182.425.425-.304 6.126-.122 12.253-.425 18.38 0 .243-.182.364-.424.425-3.883.485-8.492.85-12.375.242-.727-.12-.182-.667-.363.06-.06.424 0 .97 0 1.456l-.122 10.493v1.76c0 .546.06.546 0 .546 0 0 2.305-.303 2.73-.303 1.213-.06 2.487-.06 3.7-.12l6.854-.243c.243 0 .425.182.425.425l-.122 18.197c0 .182-.182.425-.424.425-3.276-.243-6.612-.486-9.948-.486-.607 0-1.698-.182-2.305.06-.728.303-.425.364-.425 1.335 0 2.244-.242 4.488-.363 6.733-.06 1.152-.122 2.365-.06 3.518 0 .606.06 1.213.12 1.82-.485 1.153-.364 1.578.364 1.335.607.303 2.426-.182 3.154-.182 2.973-.06 6.248.425 9.22-.243.303-.06.607.122.607.486l.667 43.613-.12 11.888c-.06 1.76.788 5.4-1.7 5.763-2.365.364-5.216-.12-7.703-.12-1.153 0-2.426-.122-3.518.06-.8.122-.486-.12-.8.364-.364.667-.182 2.427-.182 3.154-.06 2.245 0 4.428-.12 6.673 0 .364-.182 1.092-.06 1.456.243.667-.182.242.485.546.546.242 1.578.12 2.184.18 3.336.243 6.976.546 10.25-.242.303-.06.607.182.607.485.242 4.5.303 9.038.424 13.527 0 .303-.242.485-.485.485-4.367.182-9.402-.425-13.526-1.88.182-.182.424-.304.606-.486l-.242 12c0 .242-.122.788 0 1.03.363.728-.486-.243.06-.06 1.03.425 2.85.122 3.943.06 2.8-.06 5.944 0 8.613-.97.303-.12.607.182.607.486.485 5.762 0 11.585.303 17.348 0 .303-.243.485-.485.485-3.58.425-7.218.243-10.797.364-.728 0-1.577.182-2.305.12-.607-.06-.243-.667-.243 0 0 1.335.06 2.67.122 4.004.06 1.213.303 2.67.12 3.882-.12.85-.06.06.06 0 .727-.122 1.455-.06 2.183-.122l10.858-.606c.242 0 .485.242.485.485-.12 18.683.728 37.305-.06 55.987 0 .243-.242.485-.485.485l-6.975-.303-3.76-.12c-.425 0-2.426-.243-2.73 0l.243 3.7.12 5.035c0 .303-.182 1.88 0 2.123-.303.12-.303.182-.06.12h.606c1.213.12 2.548-.06 3.76-.12 2.608-.122 5.398-.546 8.067-.425 2.123.12 1.274 2.244 1.213 3.943-.12 6.6.06 13.162-.242 19.714 0 .242-.243.545-.485.485l-8.917-.182c-1.03 0-2.73-.364-3.64-.06-.727.243-.485.243-.545 1.274-.06.728-.06 1.456-.06 2.184 0 1.82.06 3.578.12 5.398 0 .485-.242 2.548.06 2.912.424.485 1.03.303 1.698.303l11.1-.12c.303 0 .545.242.485.485-.06 6.126.728 12.192.606 18.258 0 .303-.242.485-.546.546-4.55.303-9.28-.12-13.83-.485l.546-.546c-.243 2.244.06 4.55.182 6.793l.12 4.064c0 1.274-.546 1.76.606 1.88 3.882.546 8.614.546 12.496-.12.303-.06.667.12.667.485l-.425 62.053c0 .303-.242.485-.485.485-4.428 0-8.916.303-13.344-.182l.545-.546c.486 4.003-.242 8.068-.18 12.07l-.668-.485c4.6-.728 9.402-.243 14.073-.304a.59.59 0 0 1 .546.546c-.607 6.673-.546 13.345-.425 20.017 0 .364-.364.546-.667.486-3.276-.668-6.733-.304-10-.243-.546 0-1.213-.06-1.76 0-1.152.12-.97-.182-.97 1.213a115.14 115.14 0 0 0 0 6.491c0 .485-.06 2.062-.06 2.123.182.12 1.213-.06 1.395-.06 1.335-.06 2.6-.06 3.943-.06 2.487 0 5.035.06 7.52.182.304 0 .546.243.546.546v52.772c0 .668-1.1.668-1.03 0v-52.772l.546.546c-4.367-.182-8.977-.546-13.344 0-.304.06-.486-.243-.486-.485 0-3.64-.182-7.28.122-10.92 0-.242.242-.545.485-.485 4.5.243 9.038-.546 13.466.303-.243.182-.425.364-.667.486-.122-6.673-.182-13.345.424-20.017l.546.546c-4.55.12-9.28-.425-13.83.303-.303.06-.667-.12-.667-.485-.06-4.004.728-8.068.182-12.07-.06-.243.243-.546.546-.546 2.244.303 4.6.242 6.854.242h3.518c.425 0 1.456.122 1.88 0 .788-.242.424-.06.546-1.03.485-3.275.06-6.915.06-10.25l.303-50.285c.243.182.425.303.668.485-4.307.728-9.827.85-14.133 0-.182-.06-.425-.303-.364-.485.364-4.368-.668-8.796-.182-13.102 0-.243.242-.546.546-.546 4.55.424 9.28.85 13.83.546l-.545.546c.06-5.46-.364-10.92-.607-16.378-.06-1.516-.182-1.395-1.638-1.395-1.213 0-2.426 0-3.64.06l-7.522.06c-.303 0-.485-.242-.485-.485-.06-4.367-.485-8.795 0-13.102.06-.303.182-.485.485-.485a352.67 352.67 0 0 1 11.404.182c.303 0 .85.12 1.152 0 .668-.243.364 0 .546-.9.182-1.274.122-2.67.122-3.882.06-2.184.06-4.368.06-6.55v-6.188c0-1.03.425-2.85.122-3.82-.364-1.152-1.214-.728-2.245-.667-3.64.182-7.28.485-10.918.364-.243 0-.485-.243-.485-.485.182-3.943-.182-7.947-.122-11.9 0-.304.243-.486.486-.486 2.244-.12 4.55 0 6.793.06l4.368.182c.424 0 1.03.12 1.516.06 1.092-.122.303.12.667-.486.485-.788.12-3.154.12-4.064 0-1.03.06-2 .06-3.033.06-2 .06-4.003.06-6.005.06-4.428 0-8.916-.06-13.344l-.182-25.9v-1.517c.303-.485.243-.606-.242-.485-.304-.12-1.092.06-1.396.06-1.334.06-2.668.12-3.942.242l-7.4.425c-.304 0-.486-.243-.486-.485l-.242-8.917c0-.303.242-.485.485-.485 4.125-.486 8.3-.182 12.435-.425 1.395-.06.9-.364.85-1.82-.06-1.698 0-3.336 0-5.034 0-3.397.06-6.733-.243-10.13.182.182.425.303.607.485-2.063.728-4.55.8-6.733.9-2.245.12-4.6.303-6.794-.12-.182-.06-.364-.304-.364-.486l.243-13.405c0-.303.303-.606.606-.485 3.64 1.274 7.825 1.76 11.647 1.88 1.334.06 1.152.122 1.1-1.334l-.12-4.125c-.06-2.548-.12-5.035-.303-7.582.182.182.424.303.606.485-4.367 1.153-9.34.425-13.77 0-.242 0-.546-.182-.485-.485.303-4.368.06-8.735.546-13.102 0-.243.182-.486.485-.486 2.002.06 4.064-.06 6.066-.06 1.213 0 2.487-.06 3.7 0 .485 0 1.03.12 1.516.06 1.274-.242 1.517-1.152 1.76-2.365.607-3.094.122-6.794.182-10v-10.494l-.667-37.425c.182.182.425.303.607.485-4.246.97-8.795-.485-13.04.485-.182.06-.486-.06-.546-.303-.728-5.277.364-10.494.12-15.832 0-.242.182-.364.425-.424 3.093-.364 6.247-.122 9.34.06.788.06 1.637.243 2.426.182 1.274-.12.97 0 .97-1.516l.06-7.582v-3.52c0-1.03.425-3.093 0-4.003.182-.546.06-.728-.485-.546-.364 0-.728.06-1.092.06-.728 0-1.456.06-2.184.06-3.214.122-6.43.122-9.583.364-.243 0-.425-.182-.425-.424l.12-14.983c0-.182.182-.424.425-.424 2.8.182 5.64.12 8.492.06.97 0 3.093.304 3.882-.182.9-.546.546-4.064.546-5.338.06-2.062 0-4.124.06-6.187 0-.97.727-5.46-.122-6.187-.424-.303-2.547-.06-3.093-.06-.85 0-1.7-.06-2.6-.06-2.426-.06-4.8-.12-7.218-.303-.242 0-.424-.243-.364-.486.8-2.972-.06-6.5.06-9.523.06-2.73.243-3.093 3.033-3.033 2.73.06 5.398.243 8.128.304 2.184.06 2.487-.122 2.547-2.366l.122-4.064.728-15.286c-.182-.485.424-.485.424-.06zm-26.022 13.466c0 8.3-.242 16.62.06 24.93 0 .242-.182.364-.425.424-4.73.122-9.4-.728-14.072-.728-.243 0-.364-.182-.425-.424-.424-3.943-.424-7.946-.424-11.9 0-4.064.12-8.2.546-12.253 0-.243.182-.425.485-.485l13.466-.364c.667-.06.667 1.03 0 1.03l-13.466.243.485-.486c-.424 4.064-.546 8.2-.546 12.253-.06 3.943-.06 7.946.364 11.9l-.424-.424c4.73 0 9.34.9 14.072.788l-.425.425c-.303-8.3-.242-16.62.06-24.93.06-.424.667-.424.667 0zm-41.975-.302c-.486 4.186-.607 8.37-.486 12.617s.425 8.43.607 12.617c0 .182-.182.424-.425.424-2.365-.303-4.792-.364-7.157-.364-2.426 0-4.853.06-7.28.364-.243.06-.425-.242-.425-.424-.485-7.22-.546-14.497-.485-21.716 0-1.274 0-2.547.12-3.82 0-.243.182-.425.486-.485 2.487-.243 4.974-.243 7.46-.243 2.184 0 4.6 0 6.733.728.607.182.364 1.152-.242.9-2.063-.728-4.5-.668-6.672-.668-2.427-.06-4.853 0-7.28.243l.485-.485c-.303 2.8-.12 5.702-.12 8.553l.182 12.252c.06 1.578.06 3.215.182 4.792l-.425-.424c2.426-.303 4.853-.364 7.28-.364 2.365 0 4.792.06 7.157.364l-.424.424c-.304-8.492-1.03-16.862.12-25.355.06-.363.607-.303.607.06zm-40.276.424c-.242 8.2-1.213 16.438-.06 24.627a.39.39 0 0 1-.364.485l-14.922-.243c-.243 0-.364-.182-.364-.364l-.364-14.497c-.06-3.275-.242-6.672.364-9.948.06-.182.243-.303.425-.303l13.162-.182h1.88c.606 0 .606.9 0 .9l-13.163.12h-1.88c.12-.12.242-.182.424-.303-.606 3.215-.424 6.672-.364 9.948l.304 14.254-.364-.363c4.974 0 9.947.12 14.92.242l-.364.364c-1.1-8.25-.12-16.5.182-24.748-.06-.425.546-.425.546 0z"/><path d="M527.107 229.327c-4.125-.606-8.37-.788-12.496-.364-.485.06-.485-.667 0-.728 4.246-.364 8.492-.242 12.678.546.303.06.12.607-.182.546zm-37.244-1.395c-3.397-.607-6.915-.728-10.312-.8-4.003-.06-8.006 0-11.95.122-1.76.06-3.58.182-5.338.303-.485.06-.485-.667 0-.728 7.46-.606 15.104-.788 22.625-.303 1.76.12 3.518.242 5.217.606.424.122.242.85-.243.8zm-42.823.06l-20.927.12h-3.82c-.364 0-.364-.607 0-.607l20.927-.12h3.82c.425 0 .425.607 0 .607z"/><use xlink:href="#B"/><path d="M447.04 236.06l-20.927.12h-3.82c-.364 0-.364-.606 0-.606l20.927-.12h3.82c.425 0 .425.606 0 .606zm-39.307-7.157l-19.35.12h-3.58c-.364 0-.364-.546 0-.546l19.35-.12h3.578c.364 0 .364.546 0 .546zm0 8.067l-19.35.12h-3.58c-.364 0-.364-.546 0-.546l19.35-.12h3.578c.364-.06.364.546 0 .546zm108.697-6.612c-3.943 0-7.825.122-11.768.182-.242 0-.242-.424 0-.424 3.943 0 7.825-.182 11.768-.182.303.06.303.424 0 .424zm0 8.068c-3.943 0-7.825.12-11.768.182-.242 0-.242-.425 0-.425 3.943 0 7.825-.182 11.768-.182.303 0 .303.425 0 .425zm11.768 106.272c-.364 0-.364-.546 0-.546.364-.06.364.546 0 .546zM497.8 244.734c-.12 4.55-.06 9.1 0 13.588l.303 20.26.546 22.565.607 20.806.485 14.74c0 .425.06.8.06 1.214 0 .485-.728.485-.8 0l-.485-13.7-.546-20.32-.485-22.565-.303-20.806c-.06-4.913-.122-9.766.06-14.68 0-.364 0-.8.06-1.152-.06-.304.546-.304.485.06zm-42.218.606c.606 11.343.85 22.686 1.092 34.1l.667 40.095.182 17.045c0 .485-.8.485-.8 0l-.364-34.1-.788-40.094-.667-17.045c-.06-.425.667-.425.667 0zm-40.216.486l.12 13.587v40.52l.06 19.835.182 14.68.06 1.274c0 .546-.85.546-.85 0l-.18-13.77-.06-19.35.12-40.944-.06-15.7c-.122-.606.606-.606.606-.12z"/><path d="M516.3 268.148c-6.005.364-12.07.243-18.076.182l-25-.485-22.504-.485c-2.487-.06-4.913-.06-7.4-.06-4.125.06-8.25.485-12.435.606-13.526.546-27.113.304-40.64.486l-4.6.06c-.424 0-.424-.667 0-.667l40.216-.424c7.582-.182 15.103-.85 22.686-.8l21.533.425 25.294.546c6.5.12 12.98.242 19.47-.06.485 0 1.03-.06 1.516-.06.364 0 .364.728-.06.728zm.13 32.392c-6.37 0-12.677-.06-19.046-.12l-28.5-.182-31.967-.182c-9.765 0-19.592-.06-29.358 0l-20.623.364c-.546 0-1.092.06-1.638.06-.424 0-.424-.607 0-.668 6.37-.303 12.8-.363 19.168-.424l28.63-.06 31.966.122 51.438.303c.363.06.424.788-.06.788zm-11.585 35.24c0 8.3-.242 16.62.06 24.93 0 .242-.182.364-.425.424-4.73.122-9.4-.727-14.072-.727-.243 0-.364-.182-.425-.425-.424-3.943-.424-7.946-.424-11.9 0-4.064.12-8.2.546-12.253 0-.243.182-.424.485-.485l13.466-.364c.667-.06.667 1.03 0 1.03l-13.466.243.485-.486c-.424 4.065-.546 8.2-.546 12.253-.06 3.943-.06 7.947.364 11.9l-.424-.424c4.73 0 9.34.9 14.072.788l-.425.425c-.303-8.3-.242-16.62.06-24.93.06-.363.667-.424.667 0zm-41.975-.302c-.486 4.186-.607 8.37-.486 12.617s.425 8.43.607 12.617c0 .182-.182.424-.425.424-2.365-.303-4.792-.364-7.157-.364-2.426 0-4.853.06-7.28.364-.243 0-.425-.242-.425-.424-.485-7.218-.546-14.497-.485-21.716 0-1.273 0-2.547.12-3.82 0-.243.182-.425.486-.485 2.487-.243 4.974-.243 7.46-.243 2.184 0 4.6 0 6.733.728.607.182.364 1.152-.242.9-2.063-.728-4.5-.667-6.672-.667-2.427-.06-4.853 0-7.28.242l.485-.485c-.303 2.8-.12 5.702-.12 8.553l.182 12.253c.06 1.577.06 3.214.182 4.8l-.425-.424c2.426-.303 4.853-.364 7.28-.364 2.365 0 4.792.06 7.157.364l-.424.424c-.304-8.492-1.03-16.862.12-25.354.06-.364.607-.243.607.06z"/><path d="M422.594 335.963c-.242 8.2-1.213 16.44-.06 24.628a.39.39 0 0 1-.364.485l-14.922-.243c-.243 0-.364-.182-.364-.364l-.364-14.497c-.06-3.276-.242-6.672.364-9.948.06-.182.243-.303.425-.303l13.162-.182h1.88c.606 0 .606.9 0 .9l-13.163.12h-1.88c.12-.12.242-.182.424-.303-.606 3.215-.424 6.672-.364 9.948l.304 14.254-.364-.364c4.974 0 9.947.122 14.92.243l-.364.364c-1.1-8.25-.12-16.5.182-24.75-.06-.424.546-.424.546 0zm67.27 7.157c-3.397-.607-6.915-.728-10.312-.788-4.003-.06-8.006 0-11.95.12-1.76.06-3.58.182-5.338.303-.485.06-.485-.667 0-.728 7.46-.606 15.104-.788 22.625-.303 1.76.12 3.518.243 5.217.607.424.18.242.9-.243.788z"/><use xlink:href="#C"/><use xlink:href="#D"/><use xlink:href="#E"/><path d="M529.23 352.098c-3.033-.606-6.248-.727-9.342-.788-3.64-.06-7.28 0-10.918.12-1.577.06-3.154.182-4.792.303-.424.06-.424-.667 0-.667 6.794-.606 13.71-.788 20.442-.303 1.577.12 3.154.243 4.73.607.485.12.303.788-.12.727z"/><use xlink:href="#C" y="9.584"/><use xlink:href="#F"/><use xlink:href="#F" y="9.584"/><path d="M497.87 359.984v14.073l.303 19.835.546 22.08.607 20.38.485 15.104.06 1.274c0 .485-.788.485-.788 0l-.485-14.194-.546-19.896-.485-22.08-.304-20.32c-.06-4.974-.12-10.008.06-14.982 0-.425 0-.85.06-1.274-.122-.425.485-.425.485 0zm-42.218.666c.546 11.404.85 22.868 1.092 34.272l.667 38.517.182 17.713c0 .546-.85.546-.85 0l-.364-34.272-.788-38.518-.667-17.712c-.06-.485.667-.485.727 0zm-40.276.486l.12 14.012v39.367l.06 19.23.182 14.982.06 1.395c0 .546-.85.546-.9 0l-.182-14.254-.06-18.865.122-39.73-.06-16.135c-.12-.485.667-.485.667 0z"/><path d="M498.173 383.398c-5.762.364-11.525.242-17.227.12l-20.684-.606c-5.398-.182-10.797-.425-16.195-.364-4.974 0-9.948.606-14.922.9-3.457.182-6.975.122-10.433.182-1.03 0-2.123.06-3.154.06-.425 0-.425-.667 0-.667l12.677-.182c4.853-.243 9.645-.85 14.497-.97 5.035-.12 10.07.122 15.104.304l20.563.667c6.005.12 12.07.303 18.136 0 .546 0 1.153-.06 1.7-.12.364-.06.364.606-.06.667zm.607 32.33c-10.433 0-20.806-.182-31.24-.303l-35.363-.12-16.438.424c-.425 0-.425-.606 0-.667 10.494-.546 20.987-.546 31.48-.485l35.303.364 16.256.12c.424 0 .424.667 0 .667zm6.065 36.516c0 8.3-.242 16.62.06 24.93 0 .242-.182.364-.425.424-4.73.122-9.4-.728-14.072-.728-.243 0-.364-.182-.425-.424-.424-3.943-.424-7.946-.424-11.9 0-4.064.12-8.2.546-12.253 0-.243.182-.425.485-.485l13.466-.364c.667-.06.667 1.03 0 1.03l-13.466.243.485-.486c-.424 4.064-.546 8.2-.546 12.253-.06 3.943-.06 7.946.364 11.9l-.424-.424c4.73 0 9.34.9 14.072.788l-.425.425c-.303-8.3-.242-16.62.06-24.93.06-.364.667-.424.667 0zm-41.975-.304c-.486 4.185-.607 8.37-.486 12.617s.425 8.43.607 12.617c0 .182-.182.424-.425.424-2.365-.303-4.792-.364-7.157-.364-2.426 0-4.853.06-7.28.364-.243 0-.425-.242-.425-.424-.485-7.22-.546-14.497-.485-21.716 0-1.274 0-2.547.12-3.82 0-.243.182-.425.486-.485 2.487-.243 4.974-.243 7.46-.243 2.184 0 4.6 0 6.733.728.607.182.364 1.152-.242.9-2.063-.728-4.5-.668-6.672-.668-2.427-.06-4.853 0-7.28.243l.485-.485c-.303 2.8-.12 5.702-.12 8.553l.182 12.252c.06 1.578.06 3.215.182 4.792l-.425-.424c2.426-.304 4.853-.364 7.28-.364 2.365 0 4.792.06 7.157.364l-.424.424c-.304-8.492-1.03-16.862.12-25.355.06-.363.607-.242.607.06zm-40.276.486c-.242 8.2-1.213 16.44-.06 24.627.06.243-.122.486-.364.486l-14.922-.243c-.243 0-.364-.182-.364-.364l-.364-14.497c-.06-3.276-.242-6.672.364-9.948.06-.182.243-.303.425-.303l13.162-.182h1.88c.606 0 .606.9 0 .9l-13.163.12h-1.88c.12-.12.242-.182.424-.303-.606 3.215-.424 6.672-.364 9.948l.304 14.254-.364-.364c4.974 0 9.947.12 14.92.243l-.364.364c-1.1-8.25-.12-16.5.182-24.75-.06-.424.546-.424.546 0z"/><use xlink:href="#D" y="106.879"/><use xlink:href="#C" y="116.463"/><use xlink:href="#B" y="233.228"/><path d="M529.23 458.977c-3.033-.606-6.248-.728-9.342-.788-3.64-.06-7.28 0-10.918.12-1.577.06-3.154.182-4.792.303-.424.06-.424-.667 0-.667 6.794-.606 13.7-.788 20.442-.303 1.577.12 3.154.243 4.73.607.485.12.303.788-.12.727zm0 9.583c-3.033-.606-6.248-.728-9.342-.788-3.64-.06-7.28 0-10.918.12-1.577.06-3.154.182-4.792.303-.424.06-.424-.667 0-.667 6.794-.606 13.7-.788 20.442-.303 1.577.12 3.154.242 4.73.606.485.122.303.8-.12.728z"/><use xlink:href="#C" y="126.048"/><use xlink:href="#F" y="116.463"/><use xlink:href="#F" y="126.047"/><path d="M497.87 476.447v16.984l.303 24.08.546 26.508.607 24.687.485 18.198.06 1.577s-.85.546-.85 0l-.485-17.106-.546-24.142-.485-26.507-.303-24.627.06-18.076.06-1.577c-.12-.485.546-.485.546 0zm-42.218.788l.607 18.683.485 22.565.364 23.838.243 22.747.182 19.4v2.002c0 .607-.9.607-.9 0l-.12-18.683-.243-22.564-.364-23.84-.485-22.746-.607-21.413c.06-.485.85-.485.85 0zm-40.215.668l.12 16.862v47.556l.06 23.353.182 18.016.06 1.698c0 .607-.97.607-.97 0l-.182-17.105-.06-22.868.122-48.04-.06-19.4c-.12-.667.728-.667.728-.06z"/><path d="M498.173 518.422c-5.762.364-11.525.243-17.227.12l-20.684-.606c-5.398-.182-10.797-.425-16.195-.364-4.974 0-9.948.606-14.922.9-3.457.182-6.975.12-10.433.182-1.03 0-2.123.06-3.154.06-.425 0-.425-.667 0-.667l12.677-.182c4.853-.243 9.645-.85 14.497-.97 5.035-.122 10.07.12 15.104.303l20.563.667c6.005.12 12.07.303 18.136 0 .546 0 1.153-.06 1.7-.12.364-.06.364.667-.06.667zm.607 32.39c-10.433 0-20.806-.182-31.24-.303l-35.363-.12-16.438.424c-.425 0-.425-.606 0-.667 10.494-.546 20.987-.546 31.48-.485l35.303.364 16.256.12c.424-.06.424.667 0 .667zm6.065 37.427c0 8.3-.242 16.62.06 24.93 0 .243-.182.364-.425.425-4.73.12-9.4-.728-14.072-.728-.243 0-.364-.182-.425-.424-.424-3.943-.424-7.947-.424-11.9 0-4.064.12-8.2.546-12.253 0-.243.182-.425.485-.486l13.466-.363c.667-.06.667 1.03 0 1.03l-13.466.242.485-.485c-.424 4.064-.546 8.2-.546 12.253-.06 3.943-.06 7.946.364 11.9l-.424-.425c4.73 0 9.34.9 14.072.8l-.425.424c-.303-8.3-.242-16.62.06-24.93.06-.425.667-.425.667 0zm-41.975-.304c-.486 4.185-.607 8.37-.486 12.617s.425 8.43.607 12.616c0 .182-.182.425-.425.425-2.365-.303-4.792-.364-7.157-.364-2.426 0-4.853.06-7.28.364-.243 0-.425-.243-.425-.425-.485-7.218-.546-14.497-.485-21.715 0-1.274 0-2.548.12-3.82 0-.243.182-.425.486-.486 2.487-.242 4.974-.242 7.46-.242 2.184 0 4.6 0 6.733.728.607.18.364 1.152-.242.9-2.063-.728-4.5-.667-6.672-.667-2.427-.06-4.853 0-7.28.243l.485-.485c-.303 2.8-.12 5.7-.12 8.552l.182 12.253c.06 1.577.06 3.215.182 4.792l-.425-.425c2.426-.303 4.853-.363 7.28-.363 2.365 0 4.792.06 7.157.363l-.424.425c-.304-8.492-1.03-16.863.12-25.355.06-.364.607-.303.607.06z"/><path d="M422.594 588.42c-.242 8.2-1.213 16.438-.06 24.627a.39.39 0 0 1-.364.485l-14.922-.242c-.243 0-.364-.182-.364-.364l-.364-14.497c-.06-3.276-.242-6.673.364-9.948a.46.46 0 0 1 .425-.304l13.162-.182h1.88c.606 0 .606.9 0 .9l-13.163.122h-1.88c.12-.122.242-.182.424-.304-.606 3.215-.424 6.673-.364 9.948l.304 14.255-.364-.364c4.974 0 9.947.12 14.92.242l-.364.364c-1.1-8.25-.12-16.498.182-24.748-.06-.425.546-.425.546 0zm67.27 7.16c-3.397-.607-6.915-.728-10.312-.8-4.003-.06-8.006 0-11.95.12-1.76.06-3.58.182-5.338.304-.485.06-.485-.667 0-.728 7.46-.607 15.104-.8 22.625-.303 1.76.12 3.518.242 5.217.606.424.12.242.85-.243.8z"/><use xlink:href="#C" y="252.398"/><path d="M489.863 605.163c-3.397-.607-6.915-.728-10.312-.8-4.003-.06-8.006 0-11.95.12-1.76.06-3.58.182-5.338.304-.485.06-.485-.668 0-.728 7.46-.607 15.104-.8 22.625-.304 1.76.122 3.518.243 5.217.607.424.182.242.9-.243.8zM529.23 594.9c-3.033-.606-6.248-.727-9.342-.788-3.64-.06-7.28 0-10.918.12-1.577.06-3.154.182-4.792.303-.424.06-.424-.667 0-.667 6.794-.606 13.7-.788 20.442-.303 1.577.12 3.154.243 4.73.607.485.182.303.85-.12.727zm0 9.646c-3.033-.607-6.248-.728-9.342-.8-3.64-.06-7.28 0-10.918.122-1.577.06-3.154.182-4.792.303-.424.06-.424-.667 0-.667 6.794-.607 13.7-.8 20.442-.303 1.577.12 3.154.242 4.73.606.485.12.303.8-.12.728zm-82.2.728l-20.927.12h-3.82c-.364 0-.364-.606 0-.606l20.927-.122h3.82c.425 0 .425.607 0 .607z"/><use xlink:href="#F" y="252.397"/><use xlink:href="#F" y="262.042"/><path d="M504.845 694.148c0 8.3-.242 16.62.06 24.93 0 .243-.182.364-.425.425-4.73.12-9.4-.728-14.072-.728-.243 0-.364-.182-.425-.425-.424-3.943-.424-7.946-.424-11.9 0-4.064.12-8.2.546-12.253 0-.242.182-.424.485-.485l13.466-.364c.667-.06.667 1.03 0 1.03l-13.466.243.485-.485c-.424 4.064-.546 8.188-.546 12.252-.06 3.943-.06 7.947.364 11.9l-.424-.424c4.73 0 9.34.9 14.072.788l-.425.425c-.303-8.3-.242-16.62.06-24.93.06-.364.667-.364.667 0zm-41.975-.304c-.486 4.186-.607 8.37-.486 12.617s.425 8.432.607 12.617c0 .182-.182.425-.425.425-2.365-.304-4.792-.364-7.157-.364-2.426 0-4.853.06-7.28.364-.243 0-.425-.243-.425-.425-.485-7.218-.546-14.497-.485-21.716 0-1.273 0-2.547.12-3.82 0-.243.182-.425.486-.485 2.487-.243 4.974-.243 7.46-.243 2.184 0 4.6 0 6.733.728.607.182.364 1.153-.242.9-2.063-.728-4.5-.667-6.672-.667-2.427-.06-4.853 0-7.28.242l.485-.485c-.303 2.8-.12 5.702-.12 8.553l.182 12.253c.06 1.577.06 3.214.182 4.792l-.425-.425c2.426-.303 4.853-.364 7.28-.364 2.365 0 4.792.06 7.157.364l-.424.425c-.304-8.493-1.03-16.863.12-25.355.06-.364.607-.243.607.06z"/><path d="M422.594 694.33c-.242 8.188-1.213 16.438-.06 24.627a.39.39 0 0 1-.364.485l-14.922-.243c-.243 0-.364-.182-.364-.364l-.364-14.497c-.06-3.275-.242-6.672.364-9.948.06-.182.243-.303.425-.303l13.162-.182h1.88c.606 0 .606.9 0 .9l-13.163.12h-1.88c.12-.12.242-.182.424-.303-.606 3.215-.424 6.672-.364 9.948l.304 14.254-.364-.364c4.974 0 9.947.122 14.92.243l-.364.364c-1.1-8.25-.12-16.5.182-24.748-.06-.425.546-.425.546 0zm67.27 7.157c-3.397-.606-6.915-.728-10.312-.788-4.003-.06-8.006 0-11.95.12-1.76.06-3.58.182-5.338.303-.485.06-.485-.667 0-.728 7.46-.606 15.104-.788 22.625-.303 1.76.12 3.518.243 5.217.607.424.182.242.9-.243.788z"/><use xlink:href="#C" y="358.366"/><path d="M489.863 711.07c-3.397-.607-6.915-.728-10.312-.788-4.003-.06-8.006 0-11.95.12-1.76.06-3.58.182-5.338.303-.485.06-.485-.667 0-.728 7.46-.606 15.104-.788 22.625-.303 1.76.12 3.518.243 5.217.607.424.182.242.9-.243.788zm39.367-10.2c-3.033-.607-6.248-.728-9.342-.8-3.64-.06-7.28 0-10.918.12-1.577.06-3.154.182-4.792.304-.424.06-.424-.668 0-.668 6.794-.606 13.7-.788 20.442-.303 1.577.12 3.154.243 4.73.607.485.12.303.788-.12.728z"/><use xlink:href="#E" y="367.95"/><use xlink:href="#C" y="367.95"/><path d="M406.763 701.67l-12.617.06-17.47.06h-5.52c-.485 0-.485-.727 0-.727l12.617-.06 22.99-.06c.485 0 .485.728 0 .728z"/><use xlink:href="#F" y="367.95"/><path d="M497.8 612.38v12.617l.303 17.894.546 19.835.607 18.38.485 13.527c0 .424.06.788.06 1.213 0 .485-.728.485-.8 0l-.485-12.738-.546-17.955-.485-19.835-.303-18.32c-.06-4.488-.122-8.977.06-13.405 0-.425 0-.8.06-1.213-.06-.364.546-.364.485 0zm-42.218.607c.546 10.252.85 20.503 1.092 30.754l.667 34.817.182 15.893c0 .485-.8.485-.8 0l-.364-30.754-.788-34.817-.667-15.893c-.06-.424.667-.424.667 0zm-40.216.486l.12 29.54V678.8l.243 14.74c0 .546-.85.546-.85 0-.303-9.948-.243-19.896-.243-29.844l.06-35.727-.06-14.497c0-.486.728-.486.728 0z"/><path d="M498.173 635.795c-5.762.364-11.525.242-17.227.12l-20.684-.606c-5.398-.182-10.797-.425-16.195-.364-4.974 0-9.948.606-14.922.9-3.457.182-6.975.122-10.433.182-1.03 0-2.123.06-3.154.06-.425 0-.425-.667 0-.667l12.677-.182c4.853-.243 9.645-.85 14.497-.97 5.035-.12 10.07.122 15.104.304l20.563.667c6.005.12 12.07.303 18.136 0 .546 0 1.153-.06 1.7-.12.364-.06.364.667-.06.667zm.607 32.39c-10.433 0-20.806-.182-31.24-.303l-35.363-.122-16.438.425c-.425 0-.425-.606 0-.667 10.494-.546 20.987-.546 31.48-.485l35.303.363 16.256.122c.424 0 .424.667 0 .667zm-218.548-380.99c-.546-4.307-.607-8.735-.728-13.102l-.425-14.922c-.06-1.517-.12-3.094-.303-4.55 0-.182-.06-.364-.12-.546 0-.06-.06-.12-.06-.18v.06s-.182-.12-.242-.12c-.243-.12-.546-.12-.8-.182-1.76-.303-3.64-.243-5.398-.243a156.03 156.03 0 0 0-7.522.182c-5.277.182-10.554.607-15.77.607-.667 0-.667-1.092 0-1.092 4.732 0 9.463-.364 14.133-.546 2.67-.12 5.4-.182 8.068-.243 2 0 4.064-.06 6.005.182.85.122 2.183.182 2.547 1.153.364 1.092.304 2.426.364 3.518.243 4.853.243 9.766.364 14.62.122 5.095 0 10.3.607 15.407 0 .424-.667.424-.728 0zM247.356 248c.424 3.58.06 7.218.485 10.857 0 .182-.182.425-.425.425-7.703-.667-15.406-.728-23.1-.85l-26.204-.425c-4.003-.12-8.007-.242-12-.606a.46.46 0 0 1-.425-.304c-1.152-3.093-.424-6.55-.242-9.705 0-.242.182-.424.424-.424l47.92.545 12.677-.06c.667 0 .667 1.092 0 1.092-15.953.12-31.906-.182-47.92-.486l-12.678-.242.425-.425c-.243 3.094-.9 6.5.182 9.523-.12-.12-.243-.182-.425-.303 7.704.667 15.407.728 23.1.85l26.204.425c4.003.12 8.006.303 12 .607l-.425.424c-.424-3.58-.06-7.218-.424-10.858.06-.546.788-.546.85-.06z"/><path d="M220.18 247.828a618.48 618.48 0 0 0 .182-30.026l-.424-29.176c0-5.763.182-11.525.364-17.288 0-.728 1.152-.728 1.152 0-.606 10-.485 20.017-.364 30.026l.304 29.176c-.06 5.763-.122 11.525-.486 17.288-.12.424-.788.424-.728 0zm-34.876 5.944c-7.28-.667-14.68.122-22.02-.06-.607 0-.607-.97 0-.97 3.58.182 7.218.182 10.858.182 3.7 0 7.46 0 11.16.364.303.06.303.485 0 .485zm79.4 33.423c4.367-.182 8.734-.122 13.102-.122l13.102-.06c.242 0 .485.242.485.485l-.546 18.015c-.12 6.005-.243 12 0 18.016 0 .667-1.092.667-1.092 0l.06-18.016.546-18.015.485.485h-13.102c-4.367 0-8.735.122-13.102-.06-.424 0-.424-.728.06-.728zm-118.04 62.477c-1.092 4.55.9 9.402-.243 13.95-.12.546-1.03.304-.9-.242 1.214-4.55-.85-9.342.364-13.9.182-.485.9-.303.8.182zm.97 372.924c0-3.397-.18-6.794-.303-10.13l-.424-13.9c-.06-1.517-.06-3.033-.06-4.55 0-.485.788-.485.788 0 0 3.397.122 6.794.243 10.13l.364 13.9.06 4.55c-.06.425-.668.425-.668 0zm7.947-82.434c.545 2.427.606 5.035.545 7.522 0 3.942-.363 7.825-.85 11.767 0 .182-.12.364-.364.364-5.823.182-11.706.182-17.53-.303-.182 0-.424-.182-.364-.364.06-3.275-.242-6.55-.424-9.826-.12-3.276-.425-6.734.182-9.948 0-.122.182-.304.303-.304 2.912-.485 5.945-.303 8.856-.182l9.22.486c.607 0 .607.97 0 .97l-8.977-.485c-2.912-.12-5.945-.364-8.856.12l.303-.303c-.667 3.215-.364 6.672-.243 9.887s.425 6.43.364 9.645l-.364-.364c5.824.485 11.707.485 17.53.303l-.364.364c.486-3.82.85-7.643.9-11.525.06-2.487.06-5.156-.485-7.582-.06-.425.546-.607.607-.243z"/><path d="M155.582 674.858c.545 2.427.606 5.035.545 7.522 0 3.943-.363 7.825-.85 11.768 0 .182-.12.364-.364.364-5.823.182-11.706.182-17.53-.304-.182 0-.424-.182-.364-.364.06-3.275-.242-6.55-.424-9.826-.12-3.276-.425-6.733.182-9.948 0-.12.182-.303.303-.303 2.912-.486 5.945-.304 8.856-.182l9.22.485c.607 0 .607.97 0 .97l-8.977-.485c-2.912-.12-5.945-.364-8.856.12l.303-.303c-.667 3.215-.364 6.673-.243 9.887s.425 6.43.364 9.645l-.364-.364c5.824.485 11.707.485 17.53.303l-.364.364c.486-3.82.85-7.643.9-11.525.06-2.487.06-5.156-.485-7.582-.06-.425.546-.607.607-.243zm-7.582-53.5c.668 6.066.182 12.07-.12 18.137 0 .485-.788.485-.788 0 .12-2.73.364-5.4.424-8.128.122-3.336.06-6.673-.242-10 .06-.364.727-.364.727 0z"/><path d="M148.545 659.4c0 4.974-.667 9.887-.667 14.86 0 .546-.85.546-.85 0 0-4.974.667-9.887.728-14.86 0-.486.788-.486.788 0zm31.057-39.063c-13.83 0-27.66 1.76-41.5.607-3.578-.304-7.157-.8-10.675-1.638a.46.46 0 0 1-.304-.425c-.303-9.523.364-18.986.304-28.5 0-.243.182-.485.485-.485 5.216.182 10.433-.12 15.65-.303l21.3-.728 9.22-.122h1.88c.486 0 1.092-.06 1.577.06.546.12.85.607 1.032 1.092.667 1.638.606 3.58.606 5.338 0 2.73-.12 5.52-.303 8.25-.364 5.156-.97 10.312-1.335 15.468 0 .364-.06.667-.06 1.03 0 .667-1.03.667-.97 0 .243-4.6.85-9.22 1.213-13.83.243-2.85.425-5.702.486-8.553.06-2.062.12-4.246-.243-6.247-.12-.486-.243-1.153-.546-1.456l-.06-.06h-.424c-.607 0-1.213 0-1.82-.06-2.9-.06-5.823 0-8.795.06-6.915.122-13.83.425-20.745.667-5.46.182-10.98.425-16.438.364h-1.213l.485-.485c.06 9.523-.606 18.986-.303 28.5a1.83 1.83 0 0 1-.303-.424c6.43 1.637 13.162 2 19.774 2.062 7.097.06 14.133-.364 21.23-.667 3.64-.182 7.28-.304 10.918-.304.364.06.364.8-.12.8zm106.392 102.27c-.06-3.397.122-6.794.182-10.13l.364-13.9c.06-1.517.122-3.033.06-4.55 0-.485.728-.485.8 0 .06 3.397-.122 6.794-.243 10.13l-.425 13.9-.12 4.55c0 .425-.607.425-.607 0zm-6.734-82.252c-.545 2.487-.545 5.095-.485 7.582.06 3.882.425 7.704.9 11.525l-.364-.364c5.823.182 11.707.122 17.53-.303l-.364.364c-.12-3.215.243-6.43.364-9.645s.425-6.733-.243-9.887l.304.304c-2.912-.486-5.945-.243-8.856-.122l-8.978.485c-.606 0-.606-.9 0-.97l9.22-.485c2.912-.122 5.945-.304 8.856.182.122 0 .304.182.304.303.667 3.215.364 6.672.182 9.948-.122 3.275-.486 6.55-.425 9.826 0 .243-.182.364-.364.364-5.823.486-11.707.486-17.53.304-.243 0-.364-.182-.364-.364-.485-3.882-.788-7.825-.85-11.768 0-2.487 0-5.095.546-7.522.06-.303.667-.12.606.243z"/><path d="M279.26 675.04c-.545 2.487-.545 5.096-.485 7.583.06 3.882.425 7.703.9 11.525l-.364-.364c5.823.182 11.707.12 17.53-.304l-.364.364c-.12-3.215.243-6.43.364-9.644s.425-6.733-.243-9.888l.304.304c-2.912-.485-5.945-.243-8.856-.122l-8.978.486c-.606 0-.606-.9 0-.97l9.22-.485c2.912-.12 5.945-.303 8.856.182.122 0 .304.182.304.303.667 3.215.364 6.673.182 9.948-.122 3.276-.486 6.55-.425 9.827 0 .242-.182.364-.364.364-5.823.485-11.707.485-17.53.303-.243 0-.364-.182-.364-.364-.485-3.882-.788-7.825-.85-11.768 0-2.487 0-5.095.546-7.52.06-.304.667-.122.606.242zm7.584-53.682c-.243 3.336-.304 6.673-.243 10 .06 2.73.303 5.398.425 8.128 0 .485-.728.485-.8 0-.303-6.066-.728-12.07-.12-18.137.12-.364.788-.364.728 0z"/><path d="M286.48 659.4c0 4.974.667 9.887.728 14.86 0 .546-.85.546-.85 0 0-4.974-.667-9.887-.667-14.86-.06-.486.8-.486.8 0zm-31.845-39.8c13.708 0 27.417 1.638 41.125.546 3.64-.303 7.218-.788 10.797-1.698a1.86 1.86 0 0 0-.303.424c.243-9.523-.364-18.986-.303-28.5l.485.485c-5.035.182-10.13-.06-15.164-.242l-20.806-.728-9.28-.12c-1.274 0-2.487 0-3.76.06H257c-.06 0 0 0-.06.06-.06.12-.182.303-.243.485-.606 1.638-.546 3.64-.546 5.338 0 2.73.182 5.46.364 8.2l1.274 15.043c0 .364.06.667.06 1.03a.49.49 0 0 1-.971 0c-.243-4.792-.85-9.523-1.213-14.254-.243-2.85-.425-5.763-.485-8.614-.06-2.062-.06-4.246.364-6.248.12-.546.303-1.213.727-1.637.546-.546 1.456-.364 2.123-.425 2.912-.06 5.824 0 8.674.06l21.23.667c5.642.182 11.283.485 16.924.425h1.213c.243 0 .485.242.485.485-.06 9.523.546 18.986.303 28.5 0 .182-.12.364-.303.425-6.43 1.637-13.162 1.94-19.774 2-7.158.06-14.254-.364-21.35-.667-3.7-.182-7.34-.303-11.04-.303-.607-.06-.606-.8-.12-.8zm-106.332-29.905l-1.03-40.762-.486-39.6-.182-39.427V430.53l.122-45.25c0-.667 1.03-.667 1.03 0l-.122 40.338-.06 39.427.12 39.428.364 39.55.667 40.64.06 5.096c0 .242-.425.242-.485-.06z"/><path d="M193.674 385.824c-17.226.243-34.392-.303-51.558-1.213l-14.376-.667c-.243 0-.485-.182-.485-.486l-.425-13.04c-.06-1.76-.12-3.518 0-5.217.06-.606 0-1.273.667-1.455.425-.122.97-.122 1.395-.182.8-.06 1.578-.06 2.427-.122 2.547-.06 5.156-.06 7.703-.06l21.958.303 22.02.728 7.703.425c1.274.12 2.608.12 3.82.485.182.06.06-.06.243.12.06.06.182.12.243.243.303.546-.486.97-.8.485.06.12.243.12 0 .06-.182-.06-.364-.06-.606-.122-.486-.06-1.335-.12-1.94-.182-2.305-.182-4.6-.303-6.915-.424-6.915-.364-13.9-.546-20.806-.728l-22.08-.364c-4.428-.06-8.977-.243-13.466.182-.12 0-.182 0-.303.06-.12 0 .06 0-.182 0-.364.06 0-.122 0-.122.06 0-.06-.12 0 .06v.182c-.06.243-.06.546-.06.788v2.305l.364 13.042c0 .85.06 1.698.06 2.547l-.485-.485 12.677.8 12.677.606 25.72.728h14.922c.303.06.303.728-.122.728zm.97-36.576c-17.166.545-34.393 1.1-51.56.85-4.913-.06-9.826-.182-14.74-.425-.242 0-.363-.182-.424-.424-.607-5.096-.667-10.312-.607-15.408 0-2.426 0-4.852.304-7.28.06-.606.12-1.334.485-1.88.364-.728 1.213-.485 1.88-.485l19.3-.182h23.1l20.198.243c.668 0 1.335.06 2.002.06s.667 1.092 0 1.03l-18.986-.303-22.443-.06-24.02.06c-.12 0-.303.06-.425 0 .06 0 .122-.06.122 0 .06-.06 0 0-.06.12-.06.182-.182.486-.182.668-.424 2.062-.485 4.246-.485 6.308-.12 5.338 0 10.676.485 15.953.06.364.06.8.12 1.153l-.424-.425c17.045.788 34.15.424 51.194.06l15.104-.243c.425 0 .425.607.06.607zm106.392.252c1.214 4.55-.788 9.34.364 13.9.122.546-.728.788-.9.242-1.152-4.55.85-9.402-.242-13.95-.06-.485.667-.667.788-.182zm-2.85 240.195l.668-40.762.424-39.6.182-39.427V430.53l-.12-40.216-.06-5.035c0-.667 1.03-.667 1.03 0l.122 40.338v39.427l-.182 39.428-.425 39.55-.9 40.64-.182 5.096c-.06.242-.546.242-.546-.06z"/><path d="M253.3 385.157c17.227.243 34.393-.364 51.56-1.274l14.376-.9-.486.485c.06-4.246.304-8.492.425-12.677.06-1.76.12-3.58.06-5.338 0-.242 0-.485-.06-.728 0-.06-.06-.06 0-.182 0-.182-.12-.06.06 0 .182.122.182.06-.06.06-.182 0 .06 0-.12 0-.122 0-.243 0-.364-.06-.304 0-.607-.06-.9-.06-.85-.06-1.7-.06-2.548-.06-2.547-.06-5.095-.06-7.703-.06l-21.534.364-21.533.728-7.703.425c-1.335.06-2.67.12-3.882.424-.243.06-.06.06 0-.06-.304.546-1.092.06-.8-.486.243-.364.485-.364.97-.424.667-.12 1.334-.182 2-.243 2.245-.242 4.55-.364 6.855-.485l21.3-.8 22.504-.364h8.492c1.577 0 3.215 0 4.792.182.364.06.85.06 1.03.425s.182.85.182 1.213a13.27 13.27 0 0 1 0 2.184c0 4.5-.243 8.977-.425 13.466-.06.85-.06 1.698-.06 2.547 0 .243-.182.486-.485.486l-25.355 1.152-25.72.728h-14.92c-.364 0-.364-.667.06-.667zm-.9-36.517l51.56.667c4.913-.06 9.826-.182 14.74-.424l-.425.424c.607-4.974.607-10.07.607-15.043 0-2.426-.06-4.853-.364-7.28-.06-.606-.182-1.274-.364-1.76-.06-.12-.122-.182-.06-.12 0 0 0 .06.06.06h-2.184l-19.3-.06h-22.564l-19.714.242c-.667 0-1.274.06-1.94.06s-.667-1.03 0-1.03c6.5-.182 12.92-.243 19.4-.243h23.1l20.138.182h2.002c.424 0 1.03-.12 1.455.06.486.182.607.788.728 1.213.485 2.002.425 4.246.485 6.308.122 5.4 0 10.92-.424 16.317-.06.425-.06.8-.12 1.213 0 .243-.182.364-.425.425-17.045.8-34.15.485-51.195 0l-15.103-.425c-.546-.18-.546-.788-.122-.788zm-105.2-27.113c-.06-8.613-.607-17.227-.425-25.84.06-2.73.182-5.52.425-8.25 0-.303.242-.546.546-.546 6.55-.182 13.04 0 19.53.182l9.402.243c.728.06.728 1.152 0 1.152-7.643.06-15.285-.606-23-.606l-6.005.06.546-.546c-.364 4.55-.485 9.098-.546 13.708 0 4.125.12 8.25.243 12.314.06 2.67.06 5.338 0 8.067-.06.486-.728.486-.728.06z"/><path d="M265.068 286.588l1.455 16.196.182 2.547c.06.85.243 1.76.122 2.61-.364 3.336-4.974 2.426-7.218 2.365l-11.647-.424-46.1-1.517-26.204-.9c-.243 0-.425-.182-.425-.424l.364-11.647.304-6.55c.06-1.395.12-2.85.424-4.185.304-1.274 1.82-1.213 2.912-1.274 2.365-.182 4.73-.12 7.157-.06 8.007.182 16.014.667 24.02 1.09l28.75 1.274c7.825.243 15.77.425 23.656-.242.728-.06 1.396-.122 2.063-.243.667-.06.667.9 0 1.03-7.28.9-14.68.728-21.958.607-9.402-.182-18.804-.668-28.206-1.153l-25.05-1.213c-2.8-.12-5.64-.182-8.43-.12-.9 0-1.76.06-2.67.12-.243 0-.486.06-.79.12-.12 0-.182.06-.303.06-.122.06.06 0-.122.06l.06-.06c0-.06-.06.243-.12.364-.12.546-.182 1.092-.243 1.638a87.28 87.28 0 0 0-.364 5.702l-.485 12.86c0 .607-.06 1.274-.06 1.88l-.424-.424 44.947 1.516 22.32.728 11.283.425 5.7.242c.97.06 1.88.06 2.85.122.668 0 1.396 0 2.063-.182 1.092-.364 1.213-1.335 1.152-2.366l-.182-2.85c-.12-1.94-.303-3.882-.485-5.762l-.9-11.768c0-.607.607-.607.607-.182z"/><path d="M195.494 307.758l.364 33.058.667 38.033.667 40.762.486 40.216-.06 37-.06 4.185c0 .546-.9.546-.85 0l.182-36.576-.364-39.792-1.274-79.522-.242-33.726v-3.7c0-.243.485-.243.485.06z"/><path d="M273.317 502.894c-9.887.303-19.713.242-29.6.12l-34.028-.546-28.267-.546-8.613-.06c-.788 0-1.577 0-2.365.06-.243 0-.486.06-.546.06l-.122.06c.06.122.122-.303.122-.06 0 .485-.182 1.03-.182 1.516-.06.85-.06 1.76-.122 2.608-.06 2.245 0 4.55.122 6.794.12 2.002.182 4.004.546 6.005.12.546.303 1.03.424 1.517 0 .12.06.06-.06 0h.12c.06 0-.06 0 .12 0h.243c.242 0 .485.06.788.06.8.06 1.517.122 2.305.122l7.4.364 23 .97 27.84 1.03 25.78.8L274.6 524c.606 0 1.213 0 1.76-.06-.12.243-.303.485-.425.728-.424-.97-.606-2.063-.728-3.154-.18-1.517-.303-3.094-.364-4.67-.18-3.458-.18-6.854-.545-10.312-.122-1.274-.243-2.67-.728-3.882-.243-.546.606-1.03.85-.485.425.97.606 2.062.728 3.154.182 1.516.303 3.093.364 4.67.182 3.396.242 6.854.546 10.3.12 1.274.242 2.67.728 3.822.12.364 0 .728-.425.728-1.577.12-3.215.06-4.792.06-2.85 0-5.702-.06-8.553-.12l-24.626-.728-28.327-1.03-24.748-1.092-13.83-.728c-.304 0-.668 0-.97-.12-.85-.303-.97-1.94-1.03-2.67-.667-4.307-.728-8.735-.607-13.04 0-.85.06-1.638.122-2.487.06-.486.06-1.032.242-1.456.182-.485.607-.485 1.092-.546 1.94-.182 3.882-.12 5.763-.12l25.112.424 34.028.667 31.906.243c2.123 0 4.185-.06 6.308-.12.243.303.243.9-.12.9zM251.36 310.548c-.303 8.43-.242 16.863-.182 25.233l.364 77.885-.303 26.022c-.364 18.562 2.123 37.062 2.244 55.684 0 2.002 0 4.004-.12 6.005 0 .607-.97.607-.9 0 .728-18.5-1.76-37-2.062-55.44-.06-4.913.12-9.766.242-14.68l.06-13.587-.06-37.608-.12-39.974.182-27.72c0-.607.06-1.214.06-1.82-.122-.485.606-.485.606 0z"/><path d="M230.13 309.335l.607 33.18.364 39.003.242 41.066.364 39.973.607 35.06.12 3.822c0 .485-.728.485-.788 0l-.668-34.2-.364-39.55-.485-80.554-.424-34.03-.06-3.64c.06-.425.485-.425.485-.12zm-18.5-1.577l.182 31.178.606 39.8.728 42.946.485 41.065-.06 33.97-.06 3.336c0 .485-.788.485-.788 0 .242-10.858.182-21.776.12-32.634l-.425-40.58-1.274-83.405-.18-35.788c.06-.242.667-.242.667.122z"/><use xlink:href="#G"/><use xlink:href="#G" x="93.23"/><path d="M254.33 523.335l.728 33.847 1.153 40.702 1.213 43.37.9 41.43.242 35.242-.06 3.7c0 .545-.85.545-.85 0l-.122-34.272-.788-40.884-2.245-84.556-.728-38.457c.06-.425.546-.425.546-.122zm-33.24-.667c-.12 10.494.122 20.988.364 31.48l1.213 41.55 1.638 45.2 1.638 43.128 1.213 34.575c.06 1.1.06 2.183.12 3.275 0 .546-.788.546-.788 0l-1.092-33.12-1.577-42.4-1.638-45.2-1.274-42.4-.485-33.058v-3.033c-.06-.485.667-.485.667 0zm-24.322-.546c.667 10.98 1.092 21.958 1.456 32.937l1.03 41.975.788 45.07.607 42.582.546 34.393c0 1.152.06 2.305.06 3.457 0 .546-.85.546-.85 0l-.546-33.12-.546-42.036-.667-45.068-.97-42.52-1.335-34.272-.182-3.397c0-.424.607-.424.607 0z"/><path d="M259.245 558.092a800.36 800.36 0 0 0-53.925-2.729l-15.407-.122c-.424 0-.424-.667 0-.667 18.016 0 35.97.607 53.985 1.82l15.347 1.213c.364.06.364.546 0 .485zm-3.275 48.04c-3.7.06-7.4 0-11.16-.12l-35.848-.8-17.6-.242c-4.124 0-8.3-.06-12.434.182-.364 0-.668.06-1.032.06-.546.06-.546-.788 0-.788 3.822-.243 7.704-.243 11.525-.243l17.106.182 18.985.425 17.4.424 12.07.122h.97c.546-.06.546.788 0 .788zm22.503 45.312c-5.217.12-10.372-.06-15.6-.122l-59.323-.788-28.63-.243c-5.944 0-11.9-.12-17.833.182-.364 0-.728.06-1.092.06-.546.06-.546-.8 0-.8 5.277-.364 10.676-.243 16.014-.243l27.72.182 31.845.425 28.448.425 18.5.12c.485-.06.485.8-.06.8zm0 35.12c-5.217.122-10.372-.06-15.6-.12l-59.323-.788-28.63-.243c-5.944 0-11.9-.12-17.833.182-.364 0-.728.06-1.092.06-.546.06-.546-.8 0-.8 5.277-.364 10.676-.243 16.014-.243l27.72.182 31.845.425 28.448.425 18.5.12c.485-.122.485.728-.06.788zm-29.358-228.983c-13.9-.546-27.78.607-41.6.243-3.7-.12-7.34-.303-11.04-.728-.363-.06-.363-.607 0-.546 6.673.85 13.406.9 20.14.9l21.533-.303c3.64-.06 7.34 0 10.98.12.243-.06.243.303 0 .303zm.303-39.792c-6.672.303-13.405.364-20.077.364a1365.44 1365.44 0 0 1-22.262-.182l-10.008-.182c-.485 0-.485-.728 0-.728l19.35.303h22.443l10.554-.303c.485-.06.485.667 0 .728zm1.274-40.943h-53.62c-.425 0-.425-.728 0-.728h53.62c.425.06.425.728 0 .728zm0-39.6l-6.005.122-50.042.9c-.425 0-.425-.667 0-.667l6.005-.06 13.223-.243 15.77-.243 13.77-.242 7.28-.122c.425-.12.425.486 0 .546zm-88.135-49.617l.243-32.088.546-34.27.12-15.53c0-.667 1.03-.667 1.03 0 .122 10-.182 20.017-.364 30.026l-.667 34.878-.243 17.045c-.06.364-.667.364-.667-.06z"/><path d="M164.437 205.125c-2 .242-4.003.242-6.065.303-3.58.12-7.218.12-10.797.182H115.73l-78.976-.364c-10.676-.06-21.29-.06-31.966.06H1.816c-.607 0-.607-.9 0-.9l30.57-.06 78.854.425 33.18.06c6.37 0 12.738.06 19.046-.242.303 0 .667-.06.97-.06.425-.12.425.546 0 .607z"/><path d="M.906 204.7l4.307 310.083 1.88 110.82 2.002 87.53.243 8.3c0 .728-1.152.728-1.152 0l-2.002-83.708-1.88-108.88L1.15 300.54.12 204.64c-.06-.485.788-.485.788.06zm101.054.06l-.607 84.617-.303 85.77.06 86.134.546 85.77 1.395 94.93c0 .546-.85.546-.85 0l-1.334-84.375-.667-85.65-.122-86.134.364-85.83.9-95.1c.06-.485.607-.485.607-.12zm-53.378.486l.97 81.1 2.972 176.1 1.092 87.468.303 82-.06 9.644c0 .607-.9.607-.9 0l-.12-81.1-1.03-86.983L48.96 296.9l-.9-91.654c-.06-.364.485-.364.546 0zm-15.164 20.26c-5.217 0-10.372-.668-15.6-.668-.364 0-.364-.606 0-.606 5.217 0 10.372.667 15.6.728.364 0 .364.546 0 .546zm.79 25.9c-1.152-.243-2.426-.304-3.64-.364l-5.035-.122c-1.638 0-3.336-.06-4.974-.12-1.152-.06-2.366-.12-3.518-.364-.546-.12-.303-1.03.243-.9 1.152.243 2.426.303 3.64.364l10.008.243c1.152.06 2.366.12 3.518.364.546.182.303 1.092-.243.9zm-1.213 24.08c-2.487-.243-5.095-.06-7.582 0-2.487.12-5.095.303-7.582 0-.425-.06-.425-.728 0-.668 2.548.304 5.156.122 7.703 0 2.487-.06 5.095-.303 7.582.06.303.06.243.667-.12.607zm.85 28.206c-2.548.242-5.156.303-7.704.242-2.487 0-5.095-.06-7.52-.788-.485-.122-.303-.9.182-.8 2.366.728 5.035.667 7.522.728l7.522-.243c.546-.06.546.8 0 .85z"/><use xlink:href="#H"/><use xlink:href="#I"/><path d="M35.662 382.55c.182.12.06.06-.06.06-.06 0-.303-.06-.425-.06-.485-.06-.97-.06-1.456-.06l-4.49-.182-9.705-.303c-.667-.06-1.82.12-2.426-.304-.425-.303.182-.91.606-.606-.182-.12-.06-.06.06-.06.06 0 .303.06.425.06l1.456.12 4.49.182 9.705.364c.607.06 1.82-.12 2.366.303.425.243-.12.79-.546.486z"/><use xlink:href="#J"/><use xlink:href="#J" y="115.918"/><path d="M35.056 570.345c-5.035 0-10.07-.243-15.104-.364-.8 0-1.516-.06-2.305-.06-.485 0-.485-.727 0-.727 5.035 0 10.07.303 15.104.424.788 0 1.516.06 2.305.06.425-.06.425.667 0 .667zm0 43.855c-5.035 0-10.07-.243-15.104-.364-.8 0-1.516-.06-2.305-.06-.485 0-.485-.728 0-.728 5.035 0 10.07.303 15.104.425.788 0 1.516.06 2.305.06.425 0 .425.668 0 .668zm568.418-27.84c-11.828.06-23.717 0-35.545-.122-3.64 0-7.28-.06-10.918-.12l.424-.425.243 22.686v28.752l-.122 30.814-.06 28.934.06 25.416c0 .728-1.1.728-1.1 0l-.122-22.14.122-28.45.182-30.814.12-29.176-.06-23.657c0-.788 0-1.577-.06-2.366 0-.242.182-.424.424-.424l36.03.243h10.433c.424.12.424.85-.06.85zm175.724 135.8l-.364-9.947-.182-16.863-.122-20.017-.12-34.697c0-1.395-.546-4.67 1.274-4.973.9-.122 1.82-.122 2.73-.182l12-.425 16.802-.485 16.498-.425 11.1-.243 1.334-.06c.667-.06.667 1.03 0 1.092l-8.856.303-15.407.364-16.984.364-13.77.364-4.125.242c-.364 0-.728.06-1.1.122.18 0-.06 0-.122.06.12-.06.12-.182.06 0-.06.243-.243.425-.303.668-.06.303-.06.606-.06.9v14.073l-.12 38.64v17.712c0 3.943-.06 7.886.12 11.768 0 .546.06 1.03.06 1.577.06.364-.364.364-.364.06zm62.102.365l-.485-28.933-.12-29.6.12-29.965.364-30.147.546-33.605c0-.303.243-.606.607-.606 16.316-.425 32.694-.364 49-.12l48.647.606 27.6-.243c.364 0 .606.304.606.607l.122 29.48v58.595l.06 29.844.303 30.5c0 1.273.06 2.547.06 3.82 0 .8-1.213.8-1.213 0l-.303-30.632-.122-29.722v-58.778l-.12-29.42c0-1.213 0-2.426-.06-3.64l.607.606c-16.317.425-32.694.304-49 .122l-48.647-.607-27.6.243.607-.607-.486 29.904-.364 30.087-.242 30.025v29.662l.242 28.994c0 1.153 0 2.366.06 3.518-.06.425-.8.425-.8 0z"/><path d="M967.477 608.377l25.416.06 26.747-.06 53.56-.303 28.1-.06c.72 0 .72 1.152 0 1.152l-51.5.182-53.743.12c-9.523-.06-19.046 0-28.57-.303-.485 0-.485-.8 0-.8zm135.323-.424c-7.46-3.76-13.95-9.1-20.98-13.587-1.88-1.214-3.83-2.366-5.83-3.337-.48-.242-.06-.9.43-.667 7.46 3.76 13.95 9.16 20.92 13.7a70.04 70.04 0 0 0 5.83 3.397c.3.12 0 .667-.37.485z"/><path d="M1075.63 591.333l-41.92-.486c-14.07-.06-28.2-.12-42.273 0l-23.414.243c-.606 0-.606-.97 0-.97l41.917-.242 42.28.303 23.4.425c.42 0 .42.788 0 .728zm26.75 17.65l.18 13.345.18 23 .12 27.478.06 26.7-.06 20.745v1.88c0 .728-1.1.728-1.1 0l.18-19.653.06-26.265-.12-51.5-.12-14.8v-.9c-.18-.485.6-.485.6 0zm-15.65 12.86c.24 3.822.12 7.643 0 11.465l-.5 14.194c-.12 4.306-.3 8.613-.24 12.98 0 .9 0 1.76.06 2.67 0 .486 0 .8-.42 1.032-.9.546-2.3.485-3.34.485-3.58.12-7.16-.303-10.74-.425a.41.41 0 0 1-.42-.424c-.06-5.702.06-11.404.18-17.106l.37-18.804c.06-1.76.06-3.518.06-5.277 0-.182.12-.364.3-.425 4.6-.97 9.52-1.395 14.13-.667.43.06.37.85-.12.8-4.6-.546-9.34-.243-13.83.667.12-.12.18-.243.3-.425 0 4.186-.13 8.432-.25 12.617l-.36 20.078-.06 8.492-.43-.425 9.1.425c1.34 0 2.8.06 4.07-.243.12-.06.3-.06.48-.182l.06-.06c-.06.12-.06-.182-.06-.304-.06-.85-.06-1.637-.06-2.487-.12-8.734.43-17.47.73-26.204.12-4.185.3-8.43.12-12.616.18-.243.85-.243.85.18zm-29.73 0c.24 3.822.12 7.643 0 11.465l-.5 14.194c-.12 4.306-.3 8.613-.24 12.98 0 .9 0 1.76.06 2.67 0 .486 0 .8-.42 1.032-.9.546-2.3.485-3.34.485-3.58.12-7.16-.303-10.74-.425a.41.41 0 0 1-.42-.424c-.06-5.702.06-11.404.18-17.106l.36-18.804c.06-1.76.06-3.518.06-5.277a.47.47 0 0 1 .3-.425c4.6-.97 9.52-1.395 14.13-.667.43.06.37.85-.12.8-4.6-.546-9.34-.243-13.83.667.12-.12.18-.243.3-.425 0 4.186-.12 8.432-.24 12.617l-.36 20.078-.06 8.492a15.74 15.74 0 0 1-.43-.425l9.1.425c1.33 0 2.8.06 4.06-.243.13-.06.3-.06.5-.182l.06-.06c-.06.12-.06-.182-.06-.304-.06-.85-.06-1.637-.06-2.487-.12-8.734.42-17.47.73-26.204.12-4.185.3-8.43.12-12.616.18-.243.85-.243.85.18z"/><path d="M1027.3 621.843c.24 3.822.12 7.643 0 11.465l-.5 14.194c-.12 4.306-.3 8.613-.24 12.98 0 .9 0 1.76.06 2.67 0 .486 0 .8-.43 1.032-.9.546-2.3.485-3.33.485-3.58.12-7.16-.303-10.74-.425a.41.41 0 0 1-.42-.424c-.06-5.702.06-11.404.18-17.106l.36-18.804c.06-1.76.06-3.518.06-5.277 0-.182.12-.364.3-.425 4.6-.97 9.52-1.395 14.13-.667.42.06.36.85-.12.8-4.6-.546-9.34-.243-13.83.667.12-.12.18-.243.3-.425 0 4.186-.12 8.432-.24 12.617l-.37 20.078-.06 8.492-.42-.425 9.1.425c1.33 0 2.8.06 4.06-.243.12-.06.3-.06.5-.182l.06-.06c-.06.12-.06-.182-.06-.304-.06-.85-.06-1.637-.06-2.487-.12-8.734.42-17.47.72-26.204.13-4.185.3-8.43.13-12.616.18-.243.78-.243.85.18zm-29.737 0c.243 3.822.122 7.643 0 11.465l-.485 14.194c-.12 4.306-.303 8.613-.243 12.98 0 .9 0 1.76.06 2.67 0 .486 0 .8-.425 1.032-.9.546-2.305.485-3.336.485-3.578.12-7.157-.303-10.736-.425-.243 0-.425-.182-.425-.424-.06-5.702.06-11.404.182-17.106l.364-18.804c.06-1.76.06-3.518.06-5.277 0-.182.12-.364.303-.425 4.6-.97 9.523-1.395 14.133-.667.425.06.364.85-.12.8-4.6-.546-9.34-.243-13.83.667.122-.12.182-.243.304-.425 0 4.186-.122 8.432-.243 12.617l-.364 20.078-.06 8.492-.424-.425 9.098.425c1.335 0 2.8.06 4.064-.243.122-.06.304-.06.486-.182l.06-.06c-.06.12-.06-.182-.06-.304-.06-.85-.06-1.637-.06-2.487-.12-8.734.424-17.47.728-26.204.12-4.185.303-8.43.12-12.616.12-.243.8-.243.85.18zm89.167 50.165c.24 3.82.12 7.642 0 11.464l-.5 14.194c-.12 4.306-.3 8.613-.24 12.98 0 .9 0 1.76.06 2.67 0 .486 0 .8-.42 1.032-.9.546-2.3.485-3.34.485-3.58.12-7.16-.303-10.74-.425a.41.41 0 0 1-.42-.424c-.06-5.702.06-11.404.18-17.106l.37-18.804c.06-1.76.06-3.518.06-5.277 0-.182.12-.364.3-.425 4.6-.97 9.52-1.395 14.13-.667.43.06.37.85-.12.8-4.6-.546-9.34-.243-13.83.667.12-.12.18-.243.3-.425 0 4.186-.13 8.432-.25 12.617l-.36 20.078-.06 8.492-.43-.425 9.1.425c1.34 0 2.8.06 4.07-.243.12-.06.3-.06.48-.182l.06-.06c-.06.12-.06-.182-.06-.304-.06-.85-.06-1.637-.06-2.487-.12-8.734.43-17.47.73-26.204.12-4.185.3-8.43.12-12.616.18-.243.85-.243.85.182zm-29.73 0c.24 3.82.12 7.642 0 11.464l-.5 14.194c-.12 4.306-.3 8.613-.24 12.98 0 .9 0 1.76.06 2.67 0 .486 0 .8-.42 1.032-.9.546-2.3.485-3.34.485-3.58.12-7.16-.303-10.74-.425a.41.41 0 0 1-.42-.424c-.06-5.702.06-11.404.18-17.106l.36-18.804c.06-1.76.06-3.518.06-5.277a.47.47 0 0 1 .3-.425c4.6-.97 9.52-1.395 14.13-.667.43.06.37.85-.12.8-4.6-.546-9.34-.243-13.83.667.12-.12.18-.243.3-.425 0 4.186-.12 8.432-.24 12.617l-.36 20.078-.06 8.492a15.74 15.74 0 0 1-.43-.425l9.1.425c1.33 0 2.8.06 4.06-.243.13-.06.3-.06.5-.182l.06-.06c-.06.12-.06-.182-.06-.304-.06-.85-.06-1.637-.06-2.487-.12-8.734.42-17.47.73-26.204.12-4.185.3-8.43.12-12.616.18-.243.85-.243.85.182z"/><path d="M1027.3 672.008c.24 3.82.12 7.642 0 11.464l-.5 14.194c-.12 4.306-.3 8.613-.24 12.98 0 .9 0 1.76.06 2.67 0 .486 0 .8-.43 1.032-.9.546-2.3.485-3.33.485-3.58.12-7.16-.303-10.74-.425a.41.41 0 0 1-.42-.424c-.06-5.702.06-11.404.18-17.106l.36-18.804c.06-1.76.06-3.518.06-5.277 0-.182.12-.364.3-.425 4.6-.97 9.52-1.395 14.13-.667.42.06.36.85-.12.8-4.6-.546-9.34-.243-13.83.667.12-.12.18-.243.3-.425 0 4.186-.12 8.432-.24 12.617l-.37 20.078-.06 8.492-.42-.425 9.1.425c1.33 0 2.8.06 4.06-.243.12-.06.3-.06.5-.182l.06-.06c-.06.12-.06-.182-.06-.304-.06-.85-.06-1.637-.06-2.487-.12-8.734.42-17.47.72-26.204.13-4.185.3-8.43.13-12.616.18-.243.78-.243.85.182zm-29.737 0c.243 3.82.122 7.642 0 11.464l-.485 14.194c-.12 4.306-.303 8.613-.243 12.98 0 .9 0 1.76.06 2.67 0 .486 0 .8-.425 1.032-.9.546-2.305.485-3.336.485-3.578.12-7.157-.303-10.736-.425-.243 0-.425-.182-.425-.424-.06-5.702.06-11.404.182-17.106l.364-18.804c.06-1.76.06-3.518.06-5.277 0-.182.12-.364.303-.425 4.6-.97 9.523-1.395 14.133-.667.425.06.364.85-.12.8-4.6-.546-9.34-.243-13.83.667.122-.12.182-.243.304-.425 0 4.186-.122 8.432-.243 12.617l-.364 20.078-.06 8.492-.424-.425 9.098.425c1.335 0 2.8.06 4.064-.243.122-.06.304-.06.486-.182l.06-.06c-.06.12-.06-.182-.06-.304-.06-.85-.06-1.637-.06-2.487-.12-8.734.424-17.47.728-26.204.12-4.185.303-8.43.12-12.616.12-.243.8-.243.85.182zm-155.585-46.222l20.077.304 23.353.12a168.84 168.84 0 0 0 7.825-.182l1.94-.182c.06 0 .182-.06.243-.06-.06.122-.06.06 0 0 0-.12.06-.182.06-.303.364-2.062.304-4.367.304-6.5l.06-11.525-.364-25.9-.06-2.548.424.425h-5.338l-28.266.12H842.28a.4.4 0 0 1 0-.79h5.338l12.738-.06 33.3-.12h2.183c.243 0 .425.18.425.424l.424 25.658-.06 12.375-.303 7.885c-.06.425 0 1.153-.364 1.456-.304.303-.9.303-1.274.364-2.123.242-4.246.242-6.37.303-7.582.12-15.225.06-22.807-.06l-21.837-.364h-1.76c-.425-.06-.425-.85.06-.85z"/><path d="M874.55 579.08l.303 46.767c0 .606-.97.667-.97 0l-.06-46.767c0-.486.728-.486.728 0zm-19.288-.304c-.243 5.884 0 11.83.182 17.713l.546 20.623c.06 3.033.06 6.066-.06 9.038 0 .607-.97.607-.97 0 .243-5.944.06-11.9-.12-17.833l-.546-20.563c-.06-2.972-.06-6.005.06-8.978.06-.545.9-.545.9 0z"/><path d="M895.538 588.3c-6.672 0-13.345-.06-20.017-.122-7.885-.06-15.77-.06-23.656.06-3.215.06-6.5.12-9.705.364-.546.06-.546-.788 0-.85 6.55-.425 13.102-.364 19.713-.425l23.778.06 9.948.06c.485.06.485.85-.06.85zm-20.988 50.285l.303 46.767c0 .607-.97.667-.97 0l-.06-46.767c0-.485.728-.485.728 0zm-19.288-.303c-.243 5.884 0 11.828.182 17.712l.546 20.624c.06 3.032.06 6.065-.06 9.038 0 .606-.97.606-.97 0 .243-5.945.06-11.9-.12-17.834l-.546-20.563c-.06-2.972-.06-6.005.06-8.977.06-.546.9-.546.9 0z"/><path d="M895.538 647.805c-6.672 0-13.345-.06-20.017-.12-7.885-.06-15.77-.06-23.656.06-3.215.06-6.5.122-9.705.364-.546.06-.546-.788 0-.85 6.55-.424 13.102-.364 19.713-.424l23.778.06 9.948.06c.485.06.485.85-.06.85zm-61.082 2.8c-4.792-.364-9.584-.06-14.376.182.122-.12.243-.303.364-.424.607 4.306.06 8.674.607 12.92 0 .242.06.424.12.667 0 .06.06.06-.06 0-.06-.06.06 0 .12 0l1.76.182c2.062.12 4.185.182 6.248.243l5.58.12-.424.425c.242-4.67-.182-9.402-.364-14.012 0-.607.9-.607.97 0 .12 4.67.546 9.402.243 14.012 0 .242-.182.424-.425.424-3.882 0-7.764-.182-11.646-.424-.8-.06-2.487.182-2.8-.8-.243-.667-.182-1.395-.243-2.123-.06-1.152-.06-2.305-.06-3.458-.06-2.668 0-5.398-.363-8.067-.06-.243.06-.425.363-.425 4.792-.242 9.584-.606 14.376-.182.425.06.425.8 0 .728z"/><path d="M803.157 650.838c-2.608.303-5.216.182-7.825.12-1.334 0-2.67-.06-3.942-.06-.243 0-.607.06-.85 0-.182-.06.06 0 .06-.06 0 .12-.12.303-.12.425-.243 1.273-.06 2.668 0 4.003l.303 5.035c.06.727.06 1.455.06 2.183 0 .425 0 .9-.182 1.274l-.364-.607 6.6.425c2.184.06 4.428.12 6.55-.182-.12.12-.182.243-.303.425l.243-5.035c-.06-2.8-.425-5.64-.667-8.43-.06-.546.788-.546.85 0l.606 8.43c.06 1.7-.12 3.336-.242 5.035 0 .182-.122.364-.304.424-2.183.364-4.428.304-6.6.243l-6.854-.425c-.304 0-.486-.303-.364-.606 0 .06.06-.243.06-.304v-.727l-.06-2.123-.304-5.338c-.06-1.274-.182-2.73.06-4.004.06-.364.182-.667.546-.788.424-.122 1.03-.06 1.456-.06h2.183c3.094.06 6.187.243 9.22-.12.728 0 .728.788.182.85zm31.3 25.234c-4.792-.364-9.584-.06-14.376.182.122-.122.243-.304.364-.425.607 4.307.06 8.674.607 12.92 0 .243.06.425.12.667 0 .06.06.06-.06 0-.06-.06.06 0 .12 0l1.76.182c2.062.122 4.185.182 6.248.243l5.58.12-.424.425c.242-4.67-.182-9.402-.364-14.012 0-.607.9-.607.97 0 .12 4.67.546 9.402.243 14.012 0 .242-.182.424-.425.424-3.882 0-7.764-.182-11.646-.424-.8-.06-2.487.182-2.8-.8-.243-.667-.182-1.395-.243-2.123-.06-1.152-.06-2.305-.06-3.457-.06-2.67 0-5.4-.363-8.068-.06-.242.06-.424.363-.424 4.792-.243 9.584-.607 14.376-.182.425.06.425.788 0 .728zM957.712 580c-4.792-.364-9.584-.06-14.376.182.12-.122.242-.304.364-.425.606 4.307.06 8.674.606 12.92 0 .243.06.425.122.667 0 .06.06.06-.06 0-.06-.06.06 0 .12 0l1.76.182c2.063.122 4.186.182 6.248.243l5.58.12-.424.425c.243-4.67-.182-9.402-.364-14.012 0-.607.9-.607.97 0 .122 4.67.546 9.402.243 14.012 0 .243-.182.424-.425.424-3.882 0-7.764-.18-11.646-.424-.788-.06-2.487.182-2.8-.8-.243-.667-.182-1.395-.243-2.123-.06-1.152-.06-2.305-.06-3.457-.06-2.67 0-5.4-.364-8.068-.06-.242.06-.424.364-.424 4.792-.243 9.584-.607 14.376-.182.485.06.485.728 0 .728zm0 59.556c-4.792-.364-9.584-.06-14.376.182.12-.122.242-.304.364-.425.606 4.307.06 8.674.606 12.92 0 .243.06.425.122.667 0 .06.06.06-.06 0-.06-.06.06 0 .12 0l1.76.182c2.063.122 4.186.182 6.248.243l5.58.12-.424.425c.243-4.67-.182-9.402-.364-14.012 0-.607.9-.607.97 0 .122 4.67.546 9.402.243 14.012 0 .242-.182.424-.425.424-3.882 0-7.764-.182-11.646-.424-.788-.06-2.487.182-2.8-.8-.243-.667-.182-1.395-.243-2.123-.06-1.152-.06-2.305-.06-3.457-.06-2.67 0-5.4-.364-8.068-.06-.242.06-.424.364-.424 4.792-.243 9.584-.607 14.376-.182.485.06.485.728 0 .728z"/><path d="M803.157 676.375c-2.608.303-5.216.182-7.825.12-1.334 0-2.67-.06-3.942-.06-.243 0-.607.06-.85 0-.182-.06.06 0 .06-.06 0 .12-.12.303-.12.424-.243 1.274-.06 2.67 0 4.004l.303 5.034c.06.728.06 1.456.06 2.184 0 .425 0 .9-.182 1.274l-.364-.607 6.6.425c2.184.06 4.428.12 6.55-.182-.12.12-.182.243-.303.425l.243-5.035c-.06-2.8-.425-5.64-.667-8.43-.06-.546.788-.546.85 0l.606 8.43c.06 1.698-.12 3.336-.242 5.035 0 .182-.122.364-.304.424-2.183.364-4.428.304-6.6.243l-6.854-.425c-.304 0-.486-.303-.364-.606 0 .06.06-.243.06-.304v-.728l-.06-2.123-.304-5.337c-.06-1.274-.182-2.73.06-4.004.06-.364.182-.667.546-.788.424-.122 1.03-.06 1.456-.06h2.183c3.094.06 6.187.243 9.22-.12.728 0 .728.788.182.85zm31.3 23.353c-4.792-.364-9.584-.06-14.376.182.122-.12.243-.303.364-.425.607 4.307.06 8.675.607 12.92 0 .242.06.424.12.667 0 .06.06.06-.06 0-.06-.06.06 0 .12 0l1.76.182c2.062.12 4.185.182 6.248.242l5.58.122-.424.424c.242-4.67-.182-9.402-.364-14.012 0-.606.9-.606.97 0 .12 4.67.546 9.402.243 14.012 0 .243-.182.425-.425.425-3.882 0-7.764-.182-11.646-.425-.8-.06-2.487.182-2.8-.788-.243-.667-.182-1.395-.243-2.123-.06-1.153-.06-2.305-.06-3.458-.06-2.67 0-5.398-.363-8.067-.06-.243.06-.425.363-.425 4.792-.242 9.584-.606 14.376-.182.425.06.425.8 0 .728z"/><path d="M803.157 699.97c-2.608.303-5.216.182-7.825.12-1.334 0-2.67-.06-3.942-.06-.243 0-.607.06-.85 0-.182-.06.06 0 .06-.06 0 .12-.12.303-.12.424-.243 1.274-.06 2.67 0 4.004l.303 5.034c.06.728.06 1.456.06 2.184 0 .425 0 .9-.182 1.274l-.364-.607 6.6.425c2.184.06 4.428.12 6.55-.182-.12.12-.182.243-.303.425l.243-5.035c-.06-2.8-.425-5.64-.667-8.432-.06-.545.788-.545.85 0l.606 8.432c.06 1.698-.12 3.336-.242 5.035a.46.46 0 0 1-.304.424c-2.183.364-4.428.303-6.6.243l-6.854-.425c-.304 0-.486-.303-.364-.606 0 .06.06-.243.06-.304v-.728l-.06-2.123-.304-5.338c-.06-1.273-.182-2.73.06-4.003.06-.364.182-.667.546-.788.424-.122 1.03-.06 1.456-.06h2.183c3.094.06 6.187.242 9.22-.12.728 0 .728.788.182.85zm32.21-64.72c-2.184-4.004-3.76-8.25-5.64-12.314l.364.182c-5.095 0-10.25 0-15.346-.06.12-.243.242-.425.364-.668 1.76 4.065 3.64 8.3 6.308 11.9.364.486-.425.9-.8.425-2.67-3.58-4.488-7.825-6.247-11.9-.122-.303 0-.667.364-.667l15.346.06c.12 0 .303.06.364.182 1.82 4.125 3.397 8.37 5.52 12.375.242.546-.364.9-.607.485zm-28.51-.062c.06-1.94 0-3.882-.182-5.823l-.242-2.8c-.06-.425-.06-.9-.182-1.335s-.364-.667-.8-.9c-.788-.424-1.76-.606-2.608-.667s-1.82-.182-2.67 0c-1.03.243-1.577 1.153-2.426 1.638l.182-.364.12 9.22v1.335c0 .545-.85.545-.85 0l-.06-10.555c0-.12.06-.303.182-.364.728-.424 1.213-1.152 2.002-1.516 1.274-.546 2.85-.304 4.185-.122.728.122 1.456.304 2.123.607.485.243 1.153.667 1.335 1.213.242.607.242 1.456.303 2.123l.182 2.487c.12 1.94.12 3.882.06 5.823-.06.364-.667.364-.667 0zm155.828-64.54c-2.183-4.003-3.76-8.25-5.64-12.313l.364.182c-5.095 0-10.25 0-15.346-.06.12-.243.243-.424.364-.667 1.76 4.064 3.64 8.3 6.308 11.9.364.485-.424.9-.788.424-2.67-3.578-4.5-7.824-6.248-11.888-.12-.304 0-.668.364-.668l15.346.06c.122 0 .304.06.364.182 1.82 4.125 3.397 8.37 5.52 12.374.243.546-.425.9-.607.485zm-28.508-.485a46.82 46.82 0 0 0-.182-5.823l-.243-2.8c-.06-.425-.06-.9-.182-1.335s-.364-.667-.8-.9c-.788-.424-1.76-.606-2.608-.667s-1.82-.182-2.67 0c-1.03.243-1.577 1.153-2.426 1.638l.182-.364.12 9.22v1.334c0 .546-.85.546-.85 0l-.06-10.554c0-.12.06-.303.182-.364.728-.425 1.214-1.153 2.002-1.516 1.274-.546 2.85-.304 4.185-.122.728.122 1.456.304 2.123.607.486.242 1.153.667 1.335 1.213.243.607.243 1.456.303 2.123l.182 2.487c.12 1.94.12 3.882.06 5.823-.06.425-.667.425-.667 0zm-12.435 0c.06-1.94 0-3.882-.182-5.823l-.243-2.8c-.06-.425-.06-.9-.182-1.335s-.364-.667-.788-.9c-.8-.424-1.76-.606-2.6-.667s-1.82-.182-2.668 0c-1.032.243-1.578 1.153-2.427 1.638l.182-.364.122 9.22v1.334c0 .546-.85.546-.85 0l-.06-9.22v-1.334c0-.12.06-.303.182-.364.728-.425 1.213-1.153 2-1.516 1.274-.546 2.85-.304 4.186-.122.728.122 1.455.304 2.123.607.485.242 1.152.667 1.334 1.213.243.607.243 1.456.303 2.123l.182 2.487c.122 1.94.122 3.882.06 5.823-.06.425-.667.425-.667 0zm-37.182 0c.06-1.94 0-3.882-.182-5.823l-.243-2.8c-.06-.425-.06-.9-.182-1.335s-.363-.667-.788-.9c-.8-.424-1.76-.606-2.608-.667s-1.82-.182-2.67 0c-1.03.243-1.577 1.153-2.427 1.638l.182-.364.122 9.22v1.334c0 .546-.85.546-.85 0l-.06-10.554c0-.12.06-.303.182-.364.728-.425 1.213-1.153 2.002-1.516 1.273-.546 2.85-.304 4.185-.122.728.122 1.456.304 2.123.607.485.242 1.152.667 1.334 1.213.243.607.243 1.456.304 2.123l.182 2.487c.12 1.94.12 3.882.06 5.823-.06.425-.667.425-.667 0zm-12.254 0c.06-1.94 0-3.882-.182-5.823l-.242-2.8c-.06-.425-.06-.9-.182-1.335s-.364-.667-.8-.9c-.788-.424-1.76-.606-2.608-.667s-1.82-.182-2.67 0c-1.03.243-1.577 1.153-2.426 1.638l.182-.364.12 9.22v1.334c0 .546-.85.546-.85 0l-.06-10.554c0-.12.06-.303.182-.364.728-.425 1.213-1.153 2.002-1.516 1.274-.546 2.85-.304 4.185-.122.728.122 1.456.304 2.123.607.485.242 1.153.667 1.335 1.213.242.607.242 1.456.303 2.123l.182 2.487c.12 1.94.12 3.882.06 5.823-.06.425-.668.425-.668 0zm189.554 20.2c5.28 6.005 11.22 11.404 16.5 17.4.3.364-.18.9-.55.546-5.34-5.945-11.22-11.404-16.5-17.4-.36-.364.2-.9.55-.546zm-12.3.243c1.76 2.244 3.7 4.306 5.58 6.43l7.1 8.007a68.4 68.4 0 0 1 2.67 3.215c.3.364-.24.97-.54.546l-5.52-6.43-7.1-8.006a68.92 68.92 0 0 1-2.67-3.215c-.36-.364.18-.9.5-.546zm24.62 0c1.76 2.244 3.7 4.306 5.58 6.43l7.1 8.007a68.4 68.4 0 0 1 2.67 3.215c.3.364-.24.97-.55.546l-5.52-6.43-7.1-8.006a68.92 68.92 0 0 1-2.67-3.215c-.37-.364.18-.9.48-.546zm-35.72-.607c3.33 5.217 7.1 10.2 10.6 15.286.8 1.152 1.64 2.366 2.37 3.58.24.424-.43.85-.67.424-3.34-5.216-7.1-10.2-10.62-15.285-.78-1.153-1.63-2.366-2.36-3.58-.24-.485.42-.85.67-.425zm-13.23.182c4.73 6.187 10.2 11.707 14.86 17.894.3.425-.42.85-.72.425-4.74-6.127-10.2-11.707-14.86-17.894-.3-.425.42-.85.72-.425zm-12.37-.06c4.73 5.824 9.04 12 13.77 17.834.36.485-.3 1.152-.67.667-4.67-5.884-8.98-12.07-13.65-17.955-.3-.364.25-.9.55-.546zm-13.467-.243l16.257 18.318c.36.425-.24 1.032-.6.607l-13.34-15.043-2.914-3.276c-.364-.424.243-1.03.607-.606zm-11.767.788c3.7 6.066 8.613 11.343 12.313 17.4.3.485-.485.97-.8.485-3.7-6.065-8.613-11.343-12.313-17.408-.243-.546.485-.97.8-.486zm-14.86-.727c3.76 6.55 9.037 12.192 12.86 18.803.303.546-.546 1.032-.85.486-3.76-6.612-8.978-12.253-12.738-18.865-.304-.424.424-.85.728-.424zM137.627 722.17c-.728-.182-.97-1.334-1.092-1.94-.364-1.516-.485-3.093-.546-4.6-.303-4.974-.303-9.947-.242-14.92l.12-17.773c0-4.913.06-9.827-.303-14.74-.122-1.456-.182-2.9-.607-4.307-.12-.364-.242-.788-.364-.97-.12-.12-.06-.12-.182-.12-.303-.06-.606-.122-.9-.122-2.608-.242-5.216-.303-7.824-.303-3.215-.06-6.5 0-9.706.243-1.213.06-2.426.182-3.64.424-.364.06-.788.182-1.152.303-.122.06-.243.122-.304.182s-.06 0-.06.06c-.546.728-.486 2.305-.546 3.276-.304 5.216-.06 10.433.12 15.65l1.03 20.38.9 17.045c.06.9.06 1.82.06 2.8 0 .546-.85.546-.85 0-.12-5.095-.424-10.2-.727-15.225L109.72 686.9c-.243-5.823-.546-11.707-.425-17.6.06-1.638.06-3.336.364-4.974.06-.425.182-.85.425-1.213.364-.485 1.092-.607 1.637-.728 2.6-.607 5.4-.607 8.068-.667 3.275-.06 6.5-.06 9.766.06 1.152.06 2.365.122 3.518.243.546.06 1.274 0 1.698.303.728.425.85 1.7 1.03 2.427.728 4.003.668 8.188.668 12.252.06 5.884-.06 11.768-.122 17.6v16.802c.06 2.063.122 4.125.304 6.187.12 1.214.182 2.548.667 3.64.12.303.242.485.364.485.485 0 .303.607-.06.485zm-46.463-.06c.12-7.4-.12-14.8-.303-22.2l-.425-26.083c0-3.58 0-7.157.182-10.676.12.122.182.243.303.364-3.882-.727-7.885-.546-11.767-.364-4.853.182-9.705.425-14.618.425l.485-.485c-.303 7.52-.06 15.104.12 22.625l.85 27.296c.12 2.85.182 5.763.485 8.614.06.606-.9.606-.97 0-.243-2.427-.303-4.853-.425-7.28l-.425-12.435-.607-28.085.06-10.736c0-.243.182-.485.485-.485 4.974 0 9.887-.304 14.86-.425 3.882-.06 7.885-.243 11.707.485.182.06.303.243.303.364-.425 7.158-.182 14.376-.12 21.534l.485 26.265c.06 3.7.12 7.46 0 11.16 0 .546-.667.546-.667.122zm-41.368.486c.485-7.4 0-14.86-.303-22.26l-1.152-26.508c-.12-3.76-.182-7.582-.06-11.343l.425.425c-5.762-.12-11.525-.607-17.287-.485-1.274 0-2.608.06-3.882.242-.425.06-.85.122-1.213.243-.12.06-.182.06-.303.12-.06.06-.06.06-.06 0-.182 1.274-.12 3.215-.12 4.73.06 6.066.243 12.07.485 18.137l.9 21.3.788 14.437c0 .303.06.545.06.85.06.667-1.03.667-1.03 0l-.667-13.284-.97-21.412-.546-19.047c0-1.82-.06-3.58.06-5.4.06-.727.303-1.1 1.03-1.334.97-.303 2.002-.364 2.972-.425 6.187-.424 12.435.122 18.56.425.364 0 .788.06 1.152.06.243 0 .485.182.425.424-.364 7.522.12 15.104.425 22.626l1.03 26.446c.06 3.7.12 7.4-.182 11.1.06.364-.546.364-.546-.06zm-13.952-246.09c-.728-.303-1.638-.242-2.366-.303l-4.185-.182-9.16-.303c-.9-.06-2.002-.06-2.85-.364-.546-.182-.303-1.092.243-.9.728.303 1.577.303 2.366.303l4.185.182 9.16.304c.9.06 2.002.06 2.85.364.485.303.243 1.1-.243.9zm-.484-45.977c-1.152.364-2.366.425-3.518.485-1.638.06-3.336 0-4.974-.12-2.9-.182-5.762-.546-8.674-1.03-.546-.122-.303-.9.243-.8 2.8.485 5.58.8 8.43.97 1.577.12 3.154.182 4.73.12 1.213 0 2.426-.06 3.58-.425.546-.242.728.607.182.8zm47.918-205.024c-5.216 0-10.372-.668-15.6-.668-.364 0-.364-.606 0-.606 5.217 0 10.373.667 15.6.728.364 0 .364.546 0 .546zm.79 25.9c-1.153-.243-2.426-.304-3.64-.364l-5.034-.122c-1.638 0-3.336-.06-4.974-.12-1.152-.06-2.366-.12-3.518-.364-.546-.12-.303-1.03.243-.9 1.153.243 2.426.303 3.64.364l10.008.243c1.152.06 2.365.12 3.518.364.546.182.303 1.092-.243.9zm-1.213 24.08c-2.487-.243-5.095-.06-7.582 0-2.487.12-5.095.303-7.582 0-.425-.06-.425-.728 0-.668 2.548.304 5.156.122 7.704 0 2.487-.06 5.095-.303 7.582.06.303.06.243.667-.12.607zm.9 28.206c-2.548.242-5.156.303-7.703.242-2.487 0-5.095-.06-7.522-.788-.485-.122-.303-.9.182-.8 2.366.728 5.034.667 7.52.728l7.52-.243c.485-.06.485.8 0 .85z"/><use xlink:href="#H" x="49.862"/><use xlink:href="#I" x="49.86"/><path d="M85.523 382.55c.182.12.06.06-.06.06-.06 0-.303-.06-.424-.06-.485-.06-.97-.06-1.456-.06l-4.49-.182-9.705-.303c-.667-.06-1.82.12-2.426-.304-.425-.303.182-.91.607-.606-.182-.12-.06-.06.06-.06.06 0 .303.06.425.06l1.456.12 4.49.182 9.705.364c.607.06 1.82-.12 2.366.303.425.243-.12.79-.546.486z"/><use xlink:href="#K"/><use xlink:href="#K" y="115.918"/><path d="M84.916 570.345c-5.035 0-10.07-.243-15.104-.364-.788 0-1.516-.06-2.305-.06-.485 0-.485-.727 0-.727 5.035 0 10.07.303 15.104.424.8 0 1.516.06 2.305.06.425-.06.425.667 0 .667zm0 43.855c-5.035 0-10.07-.243-15.104-.364-.788 0-1.516-.06-2.305-.06-.485 0-.485-.728 0-.728 5.035 0 10.07.303 15.104.425.8 0 1.516.06 2.305.06.425 0 .425.668 0 .668zm.79-137.693c-.728-.303-1.638-.242-2.366-.303l-4.185-.182-9.16-.303c-.9-.06-2.002-.06-2.85-.364-.546-.182-.303-1.092.243-.9.728.303 1.577.303 2.366.303l4.185.182 9.16.304c.9.06 2.002.06 2.85.364.485.303.303 1.1-.243.9zm-.485-45.977c-1.153.364-2.366.425-3.518.485-1.638.06-3.336 0-4.974-.12-2.912-.182-5.762-.546-8.674-1.03-.546-.122-.303-.9.243-.8 2.8.485 5.58.8 8.43.97 1.577.12 3.154.182 4.73.12 1.213 0 2.426-.06 3.58-.425.546-.242.788.607.182.8zm45.735-205.024c-5.217 0-10.373-.668-15.6-.668-.364 0-.364-.606 0-.606 5.216 0 10.372.667 15.6.728.364 0 .364.546 0 .546zm.85 25.9c-1.152-.243-2.426-.304-3.64-.364l-5.035-.122c-1.638 0-3.336-.06-4.974-.12-1.152-.06-2.366-.12-3.518-.364-.546-.12-.303-1.03.243-.9 1.152.243 2.426.303 3.64.364l10.008.243c1.153.06 2.366.12 3.52.364.546.182.303 1.092-.243.9zm-1.214 24.08c-2.487-.243-5.095-.06-7.582 0-2.487.12-5.095.303-7.582 0-.425-.06-.425-.728 0-.668 2.547.304 5.155.122 7.703 0 2.487-.06 5.095-.303 7.582.06.303.06.182.667-.12.607zm.85 28.206c-2.548.242-5.156.303-7.703.242-2.487 0-5.096-.06-7.522-.788-.485-.122-.303-.9.182-.8 2.366.728 5.035.667 7.522.728l7.52-.243c.546-.06.546.8 0 .85zm-4.003 27.72c-3.397 0-6.794.303-10.2.425-.546 0-1.03.06-1.577.06-.667 0-.667-1.03 0-1.03 3.397 0 6.794-.242 10.2-.364.545 0 1.03-.06 1.577-.06.606 0 .606.97 0 .97zm4.793 26.568c.182.182.12.06 0 .06.12 0-.06 0-.122 0h-.303c-.485-.06-.9-.06-1.395-.06l-4.307-.12-9.34-.182c-.667 0-1.82.12-2.366-.303-.485-.364.182-1.092.668-.668-.182-.182-.122-.06 0-.06-.122 0 .06 0 .12 0h.303c.485.06.9.06 1.395.06l4.307.122 9.34.182c.667 0 1.82-.122 2.366.303.546.364-.182 1.03-.667.667zm-10.677 24.568c.06.06.06 0 0 0h-.182c-.182-.06-.364-.06-.485-.06l-1.638-.182-3.518-.303c-.364-.06-.8-.06-1.092-.304-.425-.364.182-.97.607-.606 0 0-.122-.06-.06-.06-.12-.06.06 0 0 0 .06 0 .12.06.182.06.182.06.364.06.546.12l1.577.182 3.58.364c.364.06.788.06 1.03.303.364.243-.182.8-.546.486z"/><use xlink:href="#L"/><use xlink:href="#L" y="115.918"/><path d="M132.592 570.345c-5.034 0-10.07-.243-15.103-.364-.8 0-1.517-.06-2.305-.06-.485 0-.485-.727 0-.727 5.034 0 10.07.303 15.104.424.788 0 1.516.06 2.304.06.486-.06.486.667 0 .667zm-8.3 43.492c-2.608 0-5.277-.06-7.885-.06h-1.274c-.485 0-.485-.728 0-.728l7.886.06h1.273c.486 0 .486.728 0 .728zm9.16-137.33c-.728-.303-1.638-.242-2.366-.303l-4.185-.182-9.16-.303c-.9-.06-2-.06-2.85-.364-.546-.182-.304-1.092.242-.9.728.303 1.577.303 2.366.303l4.185.182 9.16.304c.9.06 2.002.06 2.85.364.486.303.243 1.1-.242.9zm-.486-45.977c-1.152.364-2.365.425-3.518.485-1.637.06-3.336 0-4.974-.12-2.9-.182-5.762-.546-8.674-1.03-.545-.122-.303-.9.243-.8 2.8.485 5.58.8 8.43.97 1.578.12 3.155.182 4.732.12 1.213 0 2.426-.06 3.578-.425.486-.242.728.607.182.8zm-.364 211.513H20.316c-.667 0-.667-1.032 0-1.032h112.276c.728-.06.728 1.032 0 1.032zm450.138-38.76l-.12 36.577v57.382c0 .667-1.03.667-1.03 0l.06-37 .122-36.213.182-20.745c0-.485.788-.485.788 0z"/><path d="M603 674.2c-8.492.485-17.045.728-25.537.9-2.123.06-4.185.06-6.308.06-.546 0-.546-.85 0-.85 8.37 0 16.802-.242 25.172-.606 2.245-.06 4.428-.182 6.673-.303.546 0 .546.788 0 .788zm.24-25.475c-4.003.182-8.007.12-12 .12-5.156 0-10.25-.06-15.407-.06h-5.52c-.606 0-.606-.97 0-.97l27.296.12c1.88 0 3.76 0 5.64-.12.546 0 .546.9 0 .9zm-.97-29.42c-11.1.182-22.08-1.638-33.18-1.638-.728 0-.728-1.092 0-1.092 11.1.06 22.08 1.88 33.18 1.7.728-.06.728 1.03 0 1.03zm239.414 73.88h5.338l12.92.06 33.483.12h2.244c.182 0 .364.182.364.364l.182 9.705.303 19.107c0 .486-.727.486-.788 0l-.182-9.705-.243-15.528-.06-3.58.364.364h-5.338c-4.307 0-8.614 0-12.92-.06-5.156 0-10.373 0-15.528-.06-4.5 0-8.978 0-13.527-.06h-4.428c-.667 0-1.456.06-2.123 0h-.12c-.425 0-.425-.728.06-.728zm51.196 29.176l-.485-24.93.364.364h-50.952c-.486 0-.486-.788 0-.788h50.952a.39.39 0 0 1 .364.363l.485 24.93c0 .546-.728.546-.728.06zm-50.892-37.06l20.077.303 23.353.12a168.84 168.84 0 0 0 7.825-.182l1.94-.182c.06 0 .182-.06.243-.06-.06.12-.06.06 0 0 0-.122.06-.182.06-.304.364-2.062.304-4.367.304-6.5l.06-11.525-.364-25.9-.06-2.548.424.425h-5.338l-28.266.12H842.28c-.546 0-.546-.788 0-.788h5.338l12.738-.06 33.3-.12h2.183c.243 0 .425.182.425.424l.424 25.66-.06 12.374-.303 7.885c-.06.425 0 1.153-.364 1.456-.304.303-.9.303-1.274.364-2.123.243-4.246.243-6.37.303-7.582.122-15.225.06-22.807-.06l-21.837-.364h-1.76c-.425-.122-.425-.85.06-.85z"/></g><defs ><path id="B" d="M489.863 235.94c-3.397-.607-6.915-.728-10.312-.79-4.003-.06-8.006 0-11.95.122-1.76.06-3.58.182-5.338.303-.485.06-.485-.667 0-.728 7.46-.607 15.104-.79 22.625-.303 1.76.12 3.518.242 5.217.606.424.182.242.9-.243.79z"/><path id="C" d="M447.04 343.242l-20.927.122h-3.82c-.364 0-.364-.607 0-.607l20.927-.12h3.82c.425 0 .425.606 0 .606z"/><path id="D" d="M489.863 352.705c-3.397-.607-6.915-.728-10.312-.79-4.003-.06-8.006 0-11.95.122-1.76.06-3.58.182-5.338.303-.485.06-.485-.667 0-.728 7.46-.606 15.104-.788 22.625-.303 1.76.12 3.518.242 5.217.606.424.182.242.9-.243.79z"/><path id="E" d="M529.23 342.514c-3.033-.606-6.248-.727-9.342-.788-3.64-.06-7.28 0-10.918.12-1.577.06-3.154.182-4.792.304-.424.06-.424-.668 0-.668 6.794-.606 13.71-.788 20.442-.303 1.577.12 3.154.243 4.73.607.485.12.303.788-.12.727z"/><path id="F" d="M406.763 343.303l-12.617.06-17.47.06h-5.52c-.485 0-.485-.728 0-.728l12.617-.06 22.99-.06c.485 0 .485.728 0 .728z"/><path id="G" d="M178.207 386.127c.303 6.006.364 12.01.424 18.016v24.384l-.12 26.568v24.81l.303 18.986c0 .607.06 1.153.06 1.76 0 .486-.728.486-.79 0-.303-6.005-.303-12-.364-18.015V458.25l.182-26.57.06-24.81c0-6.308-.06-12.677-.303-18.985 0-.607-.06-1.153-.06-1.76 0-.364.546-.364.607 0z"/><path id="H" d="M36.208 331.414l-18.136.485c-.667 0-.667-1.03 0-1.03 5.277 0 10.494-.242 15.77-.364.79 0 1.577-.06 2.366-.06.607 0 .607.97 0 .97z"/><path id="I" d="M34.692 357.982c.182.182.12.06 0 .06.12 0-.06 0-.12 0h-.303c-.485-.06-.9-.06-1.395-.06l-4.307-.12-9.34-.182c-.667 0-1.82.12-2.366-.303-.485-.364.182-1.092.667-.668-.182-.182-.12-.06 0-.06-.12 0 .06 0 .12 0h.303c.485.06.9.06 1.395.06l4.307.122 9.34.182c.667 0 1.82-.122 2.366.303.485.364-.182 1.03-.667.667z"/><path id="J" d="M35.056 405.84c-5.035 0-10.07-.242-15.104-.364-.79 0-1.516-.06-2.305-.06-.485 0-.485-.728 0-.728 5.035 0 10.07.303 15.104.424.788 0 1.516.06 2.305.06.425-.06.425.667 0 .667z"/><path id="K" d="M84.916 405.84c-5.035 0-10.07-.242-15.104-.364-.788 0-1.516-.06-2.305-.06-.485 0-.485-.728 0-.728 5.035 0 10.07.303 15.104.424.79 0 1.516.06 2.305.06.425-.06.425.667 0 .667z"/><path id="L" d="M132.592 405.84c-5.034 0-10.07-.242-15.103-.364-.79 0-1.517-.06-2.305-.06-.485 0-.485-.728 0-.728 5.034 0 10.07.303 15.104.424.788 0 1.516.06 2.304.06.486-.06.486.667 0 .667z"/></defs></svg>