<svg xmlns="http://www.w3.org/2000/svg" width="836" height="954" fill="none"><path d="M371.802 624.802c-13.766 8.398-25.636 27.166-29.85 35.5l-6.305 17.65c2.977-5.4 11.866-19.036 23.6-30.38 14.67-14.18 78.445-32.226 98.01-34.57s59.938 3.79 78.25 4.75 58.75 2.5 58.75-18.5c0-20.348-32.5-27.847-55.75-20.25-17.967 5.87-27.336-2.97-37.317-10.755s-7.946-22.707-37.183-7.995-15.138 13.59-27 24.75-15.394 5.26-23.5 6.5-14.208 6.212-20.002 16.72-4.497 6.085-21.703 16.582zm-24.073 19.844c1.035-1.057 2.07-2.548 2.98-4.478 5.938-8.965 14.787-22.57 18.04-28.468 4.83-8.757 9.198-39.464-9.63-49.845s-17.728-15.484-20.736-29.703 8.686-32.324 3.247-47.313-35.287-24.023-51.05-32.713-15.752-20.104-24.816-45.085-16.594-10.29-40.72-22.452-13.266 12.67-6.272 27.945 25.973 27.452 38.66 45.866 45.26 59.783 77.582 113.003c21.763 35.835 20.53 58.505 15.697 68.765a1212.07 1212.07 0 0 1-2.98 4.478zm62.488-140.262c5.922 17.425 1.52 34.525-1.422 40.896 17.55-38.01 48.674-78.11 56.462-84.78 9.734-8.336 13.688-10.75 10.5-20.5s-10.943-7.716-17.618-14.25 9.39-30.8 12.118-43-11.093-15.816-22.04-21.85-8.2-13.086-17.79-19.514-11.548 3.34-25.543.762-5.62-10.52-17.97-15.046-2.88 10.403-.686 28.17 21.886 40.044 23.446 56.89-17.7 22.785-22.452 40.72 15.588 29.72 22.992 51.5zm80.54-212.884c9.726 16.325 15.042 34.344 16.63 44.926l32.832-59.55c11.83-21.455 22.105-18.676 31.038-34.877s.41-32.733 0-39.24 6.43-12.556 8.75-31.26-9.56-33.677-25.25-49.75-57.045-42.575-64.292-46-12.578 9.38-18.71 6-2.077-6-13.75-6c-9.576 0-18.693 14.838-23.75 31-5.72 18.3 7.3 40.88 13.75 53s27.903 22.48 32 43.01c4.072 20.404-3.16 31.355-9.876 41.523l-.124.187c-5.63 8.527 8.592 26.623 20.75 47.03z" fill="#7dca78"/><path d="M718.44 258.09c-21.448-.863-41.018 10.882-48.12 16.862l-96.485 34.16c3.125-14.644.658-64.156 19.42-76.65 23.455-15.616 43.9-.918 58 4.573s22.158-19.142 43.502-26.787 18.054 4.2 36.534 12.105 51.08-18.085 60.083 2.866-46.124 33.95-72.935 32.87zm-111.432 225.3c-34.662-1.753-104.344 23.513-121.5 34.608l-9.446-31.554c5.865-8.566 13.59-24.025 28.418-27.725 18.537-4.625 22.85 12.977 38.278 7.78s-4-23.322 15-31c14.423-5.828 21.88 3.668 37.25 11s34.587-9.858 54-14 27.307 6.018 46 19.75 18.46 23.088 5.75 27.5-50.424 5.833-93.75 3.642zM475.74 627.867c-16.464-5.617-34.733-7.367-45.983-7.367 18.563 1.246 25.25 18.35 25.25 24.75 0 9.75-6.25 23 0 50 2.107 9.105 27.967 33.012 44 35s2.27-7.89-4.5-28.75 1.56-19.737 10.25-35.5c7.667-13.907-7.482-30.786-29.017-38.133z" fill="#008361"/><g fill="#55a250"><path d="M509.256 330c1.455 17.246-4.988 43.25-19 76.985 8.623-6.665 35.37-32.44 54.233-38.485 23.578-7.555 85.72-31.158 108.03-40.555S720.6 303.938 720.257 295c-.65-16.916-24.06-6.71-36.5-9s-4.738-14.31-20.5-23-26.482 16.534-43.75 23-22.314-6.83-38.953-16.003-5.73 3.733-18.047 9.503-13.743-3.62-38.23-6.845-16.838 35.79-15.02 57.345zm-40.85-32.5c5.002 9.153 1.767 53.467-3.713 71l-17.893-9.512c-.224-9.26-1.418-34.738-13.794-61.488-13.984-30.223-45.607-76.902-76.02-110.8s-28.117-29.777-21.268-44.27-6-23.292 2.6-36.82 39.91 42.56 48.702 57.684 31.497 23.647 44.15 31.765 10.817 25.947 7.3 46.84 23.692 44.16 29.946 55.6zm-38.4 214.25c-12.054 17.618-26.303 56.226-30.365 71.877 13.115-13.627 48.26-18.48 68.765-20.877 25.632-2.996 55.056-3.74 60.85-14.25s-15.343-15.985-33.25-27-6.88-20.812-19-35.75c-10.75-13.25-30.75 2.25-47 26zm-37.413 24.598c8.433 12.87-10.965 53.715-21.718 72.528-1.504-14.532-5.854-50.274-11.223-76.987-6.713-33.39-36.857-73.99-69.47-97.682s-38.352-25.713-45.694-43.464 24.724-13.775 46.1-11.124 21.656 29.07 34.04 43.9 15.55 2.863 34.153 18.83 9.316 57.664 14.907 74.45 8.364 3.47 18.906 19.56zM290.798 685.77c16.76-7.203 6.087-40.037-1.344-55.554-16.9-6.647-56.89-21.087-81.77-25.67-31.1-5.727-6.276 11.385 1.065 29.136s-19.502 6.376-12.553 22.768 16.516 1.113 44.718 12.095 28.932 26.228 49.883 17.225zm58.205-22.72c-11.543 10.993-15.432 23.846-15.934 28.898 1.31 1.77 4.36 4.517 6.1 1.365 2.172-3.94 33.97-7.25 46.585-3.72s9.547-6.44 20.286-11.94 16.772.528 25.967 5.598c7.356 4.056 16.372-1.158 20-3.25-.524-1.81 1.85-5.287 2.5-14.75.81-11.828 3.846-22.418-6.982-36.952s-11.81-9.13-23.768-12.298-35.667 7.22-48.618 12.07-5.794 10.508-5.006 21.506-6.703-.27-21.13 13.472z"/><path fill-rule="evenodd" d="M544.5 426.54c-36.68 10.608-53.116 9.35-69.044 19.6 5.06-7.78 0-10.426-7.04-14.158 3.47-8.364 5.154-21.64 21.85-24.996 8.154-1.64 19.407 2.42 23 4.265 3.762 1.932 7.66 5.008 16 2.596 6.415-1.855 14.652-17.103 21.382-23.313 10.37-9.57 27.527-13.096 37.618-7.533 5.393 2.974 21.028 20.163 26.394 23.985 11.2 7.97 11.673 6.573 27.106 4.265 9-1.345 10.43-.81 15.98-1.636 11.356-1.688 20.415-3.248 30.482 9.955 8.547 11.2 5.478 26.53-4.462 28.07-.81-.638-1.044-3.585-17-11.925s-29.88-1.71-34.846 2.646c-17.36-5.96-53.213-21.712-87.42-11.82z"/></g><g fill="#181d23"><path d="M287.507 628.523c-9.983-5.3-20.115-10.203-30.8-13.978-10.663-3.694-21.66-6.41-32.86-8.013a110.127 110.127 0 0 0-8.285-.949l-4.107-.352c-1.12-.072-2.323-.12-3.403.104-4.828.956-4.897 6.653-4.037 10.54.99 4.643 3.195 9.067 2.41 13.96-.717 4.52-4.414 7.26-8.088 9.47-1.7.975-3.45 1.92-4.996 3.117.22-.152-.278.256-.36.28-.138.128-.277.256-.445.437-.14.128-.278.256-.446.437-.058.104-.168.18-.226.285 0 0-.283.4-.167.18.057-.105-.255.337-.284.4l-.288.523-.174.314c.092-.3.03-.052 0 0-.063.24-.097.425-.16.663-.19.715-.14 1.493.047 2.143l.165.568c.094.325.076.1.023.082.076.1.1.19.176.3.1.19.227.33.326.522.076.1.1.19.176.3.128.14-.076-.1.076.1a4.72 4.72 0 0 0 .978.949c.18.168.338.255.518.423.286.225.157.086.053.03.157.086.233.196.4.283a24.788 24.788 0 0 0 2.618 1.443c.97.468 1.5.623 2.6.962a36.1 36.1 0 0 0 3.418.86c2.836.676 5.73 1.247 8.595 1.87 5.783 1.277 11.59 2.634 17.095 4.783 10.96 4.268 20.334 11.415 30.227 17.62 4.853 3.085 9.955 5.967 15.328 8.1.053.03.2.115 0 0 .105.057.29.092.396.15.3.092.5.208.79.3.53.155 1.03.363 1.587.465a26.65 26.65 0 0 0 3.155.716c1.116.205 1.755.285 2.905.304.482-.007.964-.015 1.394-.05.267.01.5-.06.778-.05.133.006.673-.106.5-.06.46-.09.946-.23 1.405-.32l.73-.21a.812.812 0 0 0 .272-.123l.273-.123a4.52 4.52 0 0 0 1.177-.648l.66-.455s.25-.204.11-.076c.1-.076.22-.152.277-.256 1.97-1.714 3.025-4 3.632-6.464.614-2.598.773-5.24.852-7.86.073-2.486.042-5.03-.152-7.526-.642-9.98-3.03-19.765-6.917-28.94l-1.35-2.998c-.544-1.12-.977-2.314-1.602-3.41-1.023-1.86 1.858-3.62 2.85-1.705.597 1.148 1.303 2.22 1.87 3.42.62 1.23 1.158 2.482 1.696 3.734a119.536 119.536 0 0 1 2.759 7.257 93.16 93.16 0 0 1 3.557 15.343 88.091 88.091 0 0 1 .956 15.48c-.12 5.668-.838 12.17-5.256 16.22-7.753 7.128-19.5 2.427-27.417-1.665-10.802-5.546-20.287-13.234-30.974-18.99-5.265-2.835-10.77-4.983-16.595-6.556s-11.775-2.668-17.685-4.084c-4.214-1.026-8.64-2.783-11.386-6.345-2.642-3.505-2.024-8.217 1.096-11.276 1.476-1.44 3.285-2.5 5.093-3.542l2.713-1.576c.794-.45 1.785-1.133 2.312-1.593 1.58-1.382 2.57-2.68 2.976-4.778s-.113-4.5-.672-6.583c-1.252-4.787-3.162-9.868-1.33-14.8.904-2.506 2.67-4.47 5.244-5.302 2.495-.81 5.3-.43 7.85-.246 11.735 1.008 23.397 3.136 34.715 6.51 11.213 3.315 22.28 7.64 32.57 13.246 2.513 1.386 4.945 2.795 7.29 4.36 1.35 1.018.225 3.06-1.218 2.333z"/><path d="M252.898 638.664l3.29-1.26a95.25 95.25 0 0 1 3.365-1.149l6.26-1.943c4.01-1.203 8.094-2.296 12.197-3.175 8.206-1.757 16.64-2.568 24.9-.95 8 1.606 15.35 5.595 20.47 12.036 4.816 6 7.71 13.263 9.225 20.8.94 4.614 1.337 9.34 1.602 14.06.236 4.773.34 9.54.203 14.245-.04 2.3-3.442 2.404-3.59.07-.263-4.105-.177-8.223-.33-12.404-.16-4.047-.427-8.02-1.015-12.03-1.074-7.215-3.356-14.345-7.476-20.37-1.896-2.753-4.28-5.364-7-7.348-3.12-2.266-6.667-3.88-10.347-4.885-7.65-2.1-15.744-1.785-23.51-.33-4.475.8-8.885 1.998-13.318 3.104l-6.842 1.758-3.754.866c-1.242.27-2.56.432-3.802.703-1.224.486-1.764-1.382-.517-1.787z"/><path d="M279.94 635.685c-3.96 5.942-5.596 13.37-3.872 20.396.323 1.27-1.626 1.835-1.95.564-1.73-7.51-.143-15.714 4.704-21.78.532-.594 1.627.146 1.118.82zm-7.585 3.602c-2.075 3.02-4.15 6.04-5.806 9.293a61.274 61.274 0 0 0-4.236 10.159c-.402 1.35-2.576.833-2.174-.516 2.294-7.133 5.9-14.293 11.1-19.757.532-.594 1.574.117 1.117.82zm-10.582 1.608c-5.507 1.196-11.056 2.097-16.563 3.293s-10.945 2.637-16.335 4.24c-1.247.405-1.81-1.544-.563-1.95a191.344 191.344 0 0 1 16.543-4.125c5.48-1.144 11.167-2.173 16.747-2.5.592-.083.792.915.17 1.05zm.877-3.82c-5.945-1.23-11.816-2.964-17.688-4.7-5.842-1.787-11.626-3.68-17.377-5.757-.633-.213-1.065-.792-.904-1.455.13-.6.85-1.17 1.454-.905 5.75 2.078 11.477 4.075 17.343 5.943l17.556 5.3c1.005.28.65 1.792-.384 1.563zm37.553 29.718c1.488.274 2.773.914 4.082 1.636l3.77 2.08 7.582 4.453 15.105 9.01 42.72 25.67 2.008 1.312c.494.34.884.624 1.188 1.065.227.33.484.608.74.886.746.753.07 2.224-1.04 1.885-.715-.19-1.464-.193-2.12-.487-.7-.323-1.443-.727-2.124-1.102l-3.683-2.236-7.524-4.558-15.076-9.063-30.02-18.12-8.408-5.182a134.085 134.085 0 0 1-4.149-2.629c-1.46-.942-2.87-1.855-3.913-3.182-.374-.684-.017-1.58.86-1.437z"/><path d="M379.3 715.792c-3.944 8.886-8.335 17.594-12.78 26.273a1159.08 1159.08 0 0 1-13.629 25.463c-9.296 16.86-18.958 33.518-29.04 49.945l-17.27 27.484c-.514.81-1.518 1.143-2.355.68-.786-.433-1.196-1.546-.682-2.355 10.53-16.25 20.64-32.728 30.464-49.433 9.714-16.63 19.062-33.46 28.148-50.435l15.28-28.58c.64-1.286 2.39-.252 1.86.958z"/><path d="M307.54 840.848c-5.28 6.852-13.73 10.66-22.157 11.954-9.64 1.51-19.363-.298-28.4-3.846-8.59-3.37-16.688-8.245-23.815-14.018-6.533-5.24-12.384-11.47-16.86-18.582-4.454-7.03-7.482-14.913-8.327-23.162a38.067 38.067 0 0 1-.225-3.06c-.053-2.01 3.002-2.1 3.107-.062.327 7.827 2.78 15.392 6.6 22.21 3.948 6.956 9.24 13.084 15.292 18.33 6.488 5.694 13.873 10.38 21.678 13.932 8.433 3.9 17.78 6.39 27.145 5.75 8.076-.53 16.063-3.5 22.295-8.736a44.554 44.554 0 0 0 2.334-2.127c.886-.74 2.04.5 1.334 1.418zm-99.48-56.964l21.632-38.12a1788.558 1788.558 0 0 0 21.033-38.519l11.428-21.965c.847-1.786 3.704-.28 2.722 1.5l-10.338 19.494-10.404 19.117-21.63 38.12L209.6 784.67c-.654.937-2.12.13-1.548-.785zm151.7-80.225c3.755 1.115 7.188 2.94 10.274 5.39 2.62 2.06 5.78 4.622 6.28 8.174.232 1.562-.338 3.09-1.712 3.972-1.425.853-3.18.568-4.686.08-3.83-1.224-7.628-2.635-11.343-4.07a253.536 253.536 0 0 1-43.469-21.713c-3.812-2.375-7.566-4.854-11.18-7.462-3.75-2.613-7.63-5.23-10.928-8.414-.903-.84.207-2.48 1.33-1.793 3.235 2.057 6.24 4.533 9.39 6.747a340.564 340.564 0 0 0 9.324 6.369c6.4 4.138 13.005 8 19.713 11.552s13.565 6.728 20.537 9.684c3.5 1.453 7.03 2.852 10.566 4.12l5.436 1.904c1.03.363 2.628 1.177 3.77.714 1.195-.433.545-2.226.147-2.99-.87-1.64-2.263-2.955-3.63-4.187-3.047-2.772-6.48-5.212-10.007-7.36-.5-.207-.287-.84.19-.715z"/><path d="M365.667 707.19l2.17 1.264c.4.284.694.724.54 1.253-.584 2.546-3.6 2.584-5.72 2.446a67.759 67.759 0 0 1-7.744-1.061c-5.044-1.006-9.986-2.57-14.754-4.447-9.717-3.924-18.73-9.37-27.35-15.285-4.947-3.4-9.756-6.95-14.535-10.54-.96-.734.26-2.45 1.3-1.74 8.138 5.92 16.195 11.864 24.818 17.028 8.466 5.078 17.418 9.4 26.98 11.87a86.261 86.261 0 0 0 8.124 1.611c1.33.188 2.7.323 3.997.43.72.056 2.428.178 2.68-.775l.306 1.056c-.676-.51-1.24-1.094-1.887-1.655-.613-.747.266-1.97 1.075-1.455z"/><path d="M310.093 675.73c-2.18-.998-4.932-2.447-7.346-1.66-.354.147-.817.37-1.205.7.138-.128-.14.128-.168.18-.1.075-.168.18-.307.308-.1.076-.168.18-.255.338.168-.18-.086.157-.115.21l-.346.63c.144-.262-.058.104-.035.186-.057.104-.063.238-.068.372s-.006.133 0 0c-.03.052-.006.133-.034.186-.006.133-.01.267.012.348-.018-.215.047.162.047.162l.047.163c-.076-.1-.076-.1 0 0 .246.545.167 1.184-.384 1.563-.493.275-1.318.16-1.563-.384-.96-2.1-.17-4.395 1.625-5.795a5.928 5.928 0 0 1 3.05-1.322c1.237-.138 2.567.05 3.782.446 1.425.513 2.7 1.153 4 1.927.995.55.22 1.83-.727 1.443zm22.07 11.485l-.444 8.36c-.08.64-.45 1.186-1.146 1.21-.563.03-1.238-.478-1.21-1.146l.79-8.37c.022-.534.363-1.03.98-1.03.5-.06 1.08.392 1.03.978zm90.762-70.876c9.65-1.03 19.35 3.295 25.888 10.382 3.3 3.532 5.868 7.8 7.288 12.416 1.538 5.013 1.647 10.262 1.17 15.46-.512 5.386-1.557 10.75-2.306 16.07-.7 5.003-1.135 10.23-.294 15.27 1.646 9.647 7.455 17.56 14.527 24.054 3.768 3.443 7.692 6.358 11.86 9.2a166.568 166.568 0 0 0 6.495 4.196c1.93 1.2 3.9 2.566 5.987 3.506 1.628.76 3.796 1.4 5.59 1.375l.644-.054c.325-.094.082-.024 0 0 .082-.024.215-.018.296-.042.215-.018.407-.117.57-.164.08-.024.325-.094 0 0 .1-.076.273-.123.383-.2s.498-.408.22-.15c.168-.18.307-.31.474-.5-.144.262.168-.18 0 0l.145-.262a3.42 3.42 0 0 0 .323-.709c.286-1.14.04-2.3-.3-3.437-.4-1.38-1.014-2.744-1.575-4.078-1.223-2.86-2.638-5.62-4.023-8.43-2.567-5.375-4.86-10.873-5.478-16.812-.265-2.74-.152-5.546.467-8.277.733-2.94 2.096-5.536 3.853-7.98 1.752-2.312 3.8-4.397 5.7-6.622 1.823-2.067 3.627-4.35 4.536-6.99 1.582-4.727.144-9.548-2.42-13.692-2.9-4.666-7.147-8.584-11.624-11.734-4.866-3.434-10.298-6.088-15.944-8.108-11.85-4.144-24.392-5.665-36.8-6.566l-9.26-.667c-.8-.033-1.5-.623-1.52-1.453.003-.75.65-1.553 1.453-1.52l9.508.462c3.282.24 6.616.508 9.893.88 6.367.712 12.805 1.667 19.06 3.203 12.083 2.975 23.836 8.158 32.74 17.026 3.78 3.792 7.13 8.37 8.522 13.643.67 2.623.83 5.306.19 7.956-.682 2.97-2.26 5.582-4.12 7.97-3.5 4.488-8.36 8.227-10.084 13.83-1.603 5.26-.708 10.944 1.068 16.02 2.087 5.998 5.345 11.48 7.815 17.28 1.176 2.696 2.45 5.584 1.955 8.588-.416 2.365-2.204 4.247-4.53 4.876-4.44 1.24-9.162-1.09-12.898-3.356-4.44-2.72-8.85-5.494-13.036-8.553-8.2-5.95-16.065-13.1-20.618-22.292a37.932 37.932 0 0 1-3.922-14.93c-.262-5.47.546-10.897 1.457-16.266 1.63-9.89 3.802-20.64-.85-30.033-4.157-8.436-12.407-14.897-21.67-16.795-2.255-.492-4.49-.77-6.82-.756-1.25-.21-1.226-2.1.01-2.248z"/><path d="M438.586 620.876c-3.985-2.06-8.18-2.872-12.646-2.944-4.68-.055-9.308.535-13.982.962l-15.176 1.396c-4.46.4-8.964.656-13.27 1.902-3.846 1.156-7.678 3.276-9.775 6.832-2.04 3.45-1.498 7.3-1.4 11.102.082 3.937-.63 7.7-4.02 10.14-3.17 2.28-7.27 2.4-10.8 3.74-6.955 2.584-12.633 8.67-14.764 15.757-.305.924-.505 1.906-.676 2.836-.372 1.912-3.26 1.207-2.9-.705 1.444-7.943 6.682-15.092 13.772-19.035a26.627 26.627 0 0 1 5.608-2.37c1.868-.54 3.836-.9 5.68-1.5 1.6-.55 3.2-1.45 4.13-2.9.913-1.408 1.117-3.14 1.2-4.795.1-4.036-.53-8.076 1.123-11.943 1.74-4.025 5.4-6.93 9.34-8.643 4.193-1.785 8.762-2.27 13.273-2.65l15.466-1.305c4.9-.445 9.806-.943 14.684-1.12 4.5-.113 9.28.132 13.4 2.198.97.468 1.856 1.092 2.735 1.85.647.56-.227 1.65-1.012 1.217zm13.423 60.1c-5.16 5.894-14.354 4.24-20.848 2.024-7.1-2.48-13.884-6.767-21.677-6.626-1.713.01-3.52.313-5.125.998-1.798.784-3.27 2.1-4.56 3.563-1.626 1.835-3.043 3.785-5.053 5.202a14.278 14.278 0 0 1-4.906 2.211c-3.702.895-7.595.524-11.32-.027-3.83-.6-7.566-1.5-11.4-1.984-4.207-.544-8.555-.2-12.664.8-4.242 1.007-8.115 2.832-11.796 5.172-.933.578-1.732 1.16-2.642 1.82-1.187.915-2.872-1.106-1.656-2.074 6.76-5.696 15.606-8.738 24.4-8.732 4.094.004 8.104.78 12.113 1.558 3.638.7 7.328 1.446 11.056 1.248 1.7-.093 3.413-.37 5.02-1.056 1.77-.73 3.263-1.956 4.577-3.348 1.678-1.806 3.124-3.808 5.134-5.226 1.46-1.038 3.23-1.77 4.96-2.182 7.666-1.645 15.285 1.873 22.148 4.906 3.47 1.504 7.1 2.828 10.888 3.408 3.405.512 7.05.338 10.065-1.414a16.704 16.704 0 0 0 2.121-1.494c.834-.77 1.744.552 1.154 1.25zM331.867 692.58c6.833-6.2 13.765-12.2 21.2-17.664 7.115-5.227 14.632-9.82 22.728-13.483 7.66-3.492 15.613-6.276 23.754-8.4 8.1-2.163 16.342-3.758 24.665-5.1a564.196 564.196 0 0 1 25.211-3.374c1.022-.12 2.067-.158 3.14-.248 1.637-.122 2.17 2.63.445 2.908-4.202.687-8.423 1.16-12.62 1.713-4.168.5-8.365 1.055-12.486 1.72-8.185 1.222-16.3 2.7-24.3 4.695-7.973 1.954-15.886 4.418-23.507 7.6-7.893 3.295-15.476 7.513-22.574 12.338-8.5 5.76-16.42 12.32-24.488 18.657-.88.607-1.873-.7-1.178-1.332z"/><path d="M447.962 643.25c-14.918 2.29-29.807 4.527-44.464 8.326-13.602 3.493-26.914 8.443-39 15.77-6.637 3.987-12.795 8.717-18.34 14.194-.724.693-1.778-.366-1.107-1.088 9.922-9.824 22.02-17.15 34.865-22.494 13.664-5.713 28.12-9.145 42.647-11.718 8.4-1.508 16.857-2.586 25.28-3.746.645-.054.64.695.13.755zm23.307-11.934c6.904 1.348 10.094 9.184 9.516 15.556-.712 7.732-5.18 14.35-7.24 21.68-1.034 3.73-1.462 7.728-.248 11.47.38 1.166-1.377 1.63-1.787.517-2.194-6.672.305-13.556 2.933-19.685 2.86-6.55 6.47-13.843 3.794-21.122-1.23-3.342-3.79-6.254-7.288-7.09-.767-.218-.504-1.44.32-1.325z"/><path d="M477.875 639.397c-3.58-4.158-7.91-7.57-12.757-10.174-1.257-.693-.19-2.63 1.068-1.938 5.027 2.772 9.342 6.585 12.795 11.22.484.608-.593 1.448-1.106.892z"/><path d="M470.728 638.12l-3.524-4.878c-1.277-1.524-2.635-3.023-4.16-4.343-.903-.84.463-2.202 1.314-1.392 3.017 2.824 5.827 6.15 7.604 9.86.502.823-.703 1.524-1.234.753zm-134.912 27.486c4.21-9.49 9.518-18.377 14.826-27.262 5.337-8.937 10.908-17.678 16.507-26.47 11.082-17.377 22.3-34.748 32.415-52.725 10.06-17.873 19.076-36.457 25.454-55.95 5.826-17.75 9.297-36.18 10.236-54.85a212.07 212.07 0 0 0-4.391-54.448 390.073 390.073 0 0 0-1.445-6.668c-.53-2.136 2.75-3.128 3.33-.964 4.69 17.744 6.673 36.316 6.337 54.634-.265 18.56-3.045 37.102-8.098 54.935-5.697 19.868-14.167 38.822-23.97 56.973-9.918 18.36-21.145 36-32.477 53.58-11.36 17.634-22.64 35.243-33.034 53.477-1.294 2.223-2.692 4.388-4.12 6.605-.63 1.018-2.014.186-1.57-.866z"/><path d="M413.728 521.074c2.535-9.8 5.9-19.352 8.82-29.002 2.902-9.597 5.594-19.3 7.676-29.155 1.974-9.153 3.495-18.35 4.273-27.686.755-8.8.843-17.628.18-26.46-.7-8.78-2.158-17.508-4.572-26.01l-.946-3.115c-.4-1.38 1.713-1.992 2.194-.634 2.815 8.516 4.55 17.256 5.45 26.15s.97 17.81.318 26.667c-.586 9.236-1.973 18.44-3.756 27.493-2.035 10.007-4.6 19.86-7.535 29.642-2.907 9.73-5.948 19.457-9.646 28.888-.45 1.187-.95 2.344-1.48 3.553-.2.715-1.2.3-.977-.333zm14.308-142.73c-4.405-10.213-10.39-19.793-17.565-28.325-.92-1.054.642-2.65 1.562-1.596 5.69 6.893 10.5 14.392 14.324 22.44a87.195 87.195 0 0 1 2.961 6.89c.316.79-.965 1.38-1.282.59z"/><path d="M432.656 447.735c-2.93-10.288-7.62-20.1-13.74-28.947-.858-1.292 1.2-2.547 2.1-1.226 6.14 9.05 10.55 19.13 13.146 29.78.177.917-1.233 1.368-1.515.394zM411.33 532.1c-.422-17.438-4.862-34.77-13.182-50.146-4.306-8.04-9.53-15.904-11.602-24.9-1.96-8.455-1.184-17.8 4.683-24.592 2.835-3.285 6.492-5.707 9.74-8.627 3.1-2.792 5.54-5.96 6.402-10.125 1.596-7.724-1.636-15.855-4.864-22.756-6.263-13.284-15.413-25.294-19.85-39.415-1.068-3.388-1.8-6.87-2.124-10.388a36.275 36.275 0 0 1-.105-5.383c.115-2.2.3-4.403 1.1-6.433 1.54-3.657 5.477-5.105 9.122-3.914 3.698 1.22 6.157 3.94 8.223 7.128 2.014 3.16 4.06 6.88 7.82 7.86 2.94.734 6.156-.02 9.127-.703 3.296-.777 6.65-1.66 10.1-1.333 4.346.416 7.78 2.855 10.485 6.122 2.758 3.296 4.936 7.023 8.1 9.934 2.7 2.517 5.92 4.493 9.08 6.44 6.138 3.726 13.236 7.57 16.498 14.285 1.754 3.63 2.185 7.555 1.518 11.488s-2.397 7.7-4.28 11.228c-3.412 6.312-7.667 12.296-8.444 19.65-.34 3.1.066 6.318 1.782 8.903 2.47 3.82 7.426 4.982 11.364 6.88 3.28 1.604 6.647 4.415 7.512 8.17 1.1 4.834-2.2 8.555-5.473 11.66-14.555 13.892-27.67 29.26-39.047 45.93-2.786 4.063-5.467 8.183-8.02 12.443-1.173 1.88-4.158.234-2.985-1.646 10.375-17.084 22.525-33.053 36.2-47.703 3.386-3.664 6.9-7.188 10.518-10.655 2.588-2.465 6.764-5.83 5.107-9.884-1.335-3.4-5.202-5.053-8.278-6.408-4.077-1.77-8.2-3.702-10.392-7.777-3.388-6.238-1.664-13.822 1.016-19.923 3-6.944 8.147-12.92 9.865-20.37.808-3.447.6-7.175-.974-10.37-1.537-3.033-3.93-5.377-6.633-7.413-5.92-4.493-12.945-7.478-18.438-12.624-3.122-2.882-5.196-6.55-7.877-9.736-2.426-2.908-5.412-5.17-9.263-5.244-6.446-.072-12.758 3.822-19.2 1.903-4.1-1.235-6.612-4.6-8.8-8.06-1.787-2.83-3.7-5.796-6.927-6.755-1.296-.374-2.522-.503-3.537.098-1.588.9-2.05 3.102-2.23 4.915a37.23 37.23 0 0 0 .317 10.075c1.143 6.843 3.905 13.35 7.084 19.472 3.377 6.505 7.22 12.788 10.707 19.217 3.587 6.62 7.18 13.724 8.593 21.193.745 4.098.974 8.4-.233 12.435-1.27 4.284-4.03 7.678-7.382 10.54-3.214 2.734-6.737 5.16-9.543 8.393-2.586 3.08-3.974 6.96-4.425 10.874-.913 8.714 2.5 17.014 6.478 24.533l6.654 12.203a106.882 106.882 0 0 1 5.12 11.767c2.912 8.092 4.74 16.542 5.545 25.1.397 4.1.416 8.286.25 12.427-.235 1.168-1.977 1.232-1.98.001zm-65.016 114.703c.862-8.127 1.295-16.22.74-24.376-.53-8.077-1.87-16.052-3.828-23.9-4.2-16.654-11.273-32.433-19.718-47.33-8.924-15.64-19.274-30.427-29.902-44.958-11.036-15.03-22.623-29.68-34.765-43.815a725.31 725.31 0 0 0-37.899-41.105c-1.567-1.616-3.216-3.207-4.812-4.77-1.5-1.505.8-3.93 2.344-2.395 13.325 13.355 26.262 27.042 38.666 41.324 12.352 14.252 24.205 28.912 35.503 44.086 10.943 14.704 21.63 29.745 30.95 45.535 8.922 15.024 16.575 30.987 21.276 47.848 4.37 15.724 6.2 32.095 4.075 48.334-.295 2.022-.614 3.963-1.096 5.95-.2.982-1.6.55-1.534-.436zm5.25-45.3c-.53-2.136-1.14-4.248-1.75-6.36s-1.06-4.27-1.67-6.383c-1.193-4.276-2.467-8.53-3.903-12.735a171.745 171.745 0 0 0-10.584-24.27c-3.704-7.027-7.988-13.622-12.104-20.397-3.918-6.393-7.667-12.967-10.518-19.932-2.675-6.665-4.423-13.773-4.185-21.016.038-.935.075-1.87.165-2.776.05-.587.392-1.082 1.007-1.084.535.022 1.157.502 1.084 1.007-.692 7.198.574 14.314 3.03 21.13 2.555 7.007 6.252 13.55 10.088 19.968 3.988 6.637 8.25 13.15 11.935 19.962 4.265 7.745 7.874 15.812 10.885 24.095 1.495 4.1 2.85 8.33 4.07 12.554 1.17 4.195 2.23 8.466 2.83 12.826l.43 3.3c.14.487-.666.588-.807.1zm-46.1-116.623l-.675 6.797c-.203 1.73-.145 3.606-.75 5.322-.42 1.133-1.247 2.385-2.612 2.383-.75-.003-1.372-.483-1.885-1.04-.688-.857-1.294-1.738-1.982-2.595a461.185 461.185 0 0 0-15.697-19.579c-10.832-12.8-22.3-25.063-34.4-36.656-6.828-6.564-13.823-12.947-21.015-19.097-.88-.758.377-2.045 1.256-1.287a501.503 501.503 0 0 1 35.085 33.204 489.224 489.224 0 0 1 31.554 36.514l4.094 5.33 2.006 2.676c.432.58.863 1.16 1.424.513.423-.52.664-1.205.796-1.815.205-1.116.225-2.265.378-3.4l.772-7.22c.148-1 1.8-1.05 1.66-.04z"/><path d="M222.607 420.547c-4.57-4.84-9.284-10.034-11.216-16.56-1.75-5.744-.935-12.67 3.26-17.183 9.058-9.618 23.977-.64 32.728 4.662 5.906 3.53 11.576 7.61 16.186 12.748s7.556 11.062 9.593 17.647c1.937 6.393 3.4 13.01 7.255 18.542 3.617 5.204 8.845 8.974 14.342 12.005 11.677 6.437 24.912 10.048 35.433 18.58 9.695 7.803 15.46 20.13 15.36 32.57-.05 5.912-1.617 11.602-3.05 17.298-1.336 5.272-2.788 10.753-2.154 16.29 1.536 13.683 17.8 16.506 25.542 25.622 7.818 9.226 8.318 22.064 6.386 33.494-1.19 7-3.312 13.81-5.72 20.402-2.71 7.518-5.922 14.828-9.343 22.023-1.667 3.52-3.467 7.032-5.187 10.522-1.073 2.07-4.267.3-3.193-1.76 6.976-13.768 13.644-27.844 17.83-42.742 2.997-10.637 4.943-23.083.333-33.544-2.503-5.614-6.9-9.404-11.986-12.686-5.296-3.398-11.032-6.492-14.673-11.777-6.652-9.607-2.37-21.584.13-31.813 1.347-5.54 2.078-11.076 1.264-16.782-.81-5.84-3.07-11.524-6.377-16.42-7.23-10.54-19.47-15.583-30.724-20.558-11.41-5.062-23.51-10.982-29.354-22.67-3-5.954-4.205-12.56-6.39-18.75-2.162-6.108-5.722-11.416-10.493-15.9-4.846-4.584-10.56-8.213-16.344-11.47-4.788-2.71-9.995-5.648-15.62-6.222-2.585-.265-5.25.1-7.498 1.464-2.36 1.43-3.954 3.83-4.782 6.445-1.943 6.37.4 12.647 3.85 18.03 1.71 2.718 3.722 5.26 5.682 7.775.327.522-.583 1.18-1.072.706z"/><path d="M363.172 563.73c-1.927-8.64-3.64-17.3-6.105-25.83-2.443-8.447-5.264-16.83-8.6-25.02a193.325 193.325 0 0 0-6.2-13.523c-.397-.766-.226-1.695.54-2.093.684-.374 1.748-.197 2.093.54 3.876 8.078 7.422 16.383 10.37 24.904 2.925 8.44 5.305 17.127 7.012 25.92.95 4.963 1.768 9.92 2.075 14.936.001.616-1.05.788-1.185.167zm-39.04-92.532c-8.588-12.04-18.473-23.09-29.78-32.67-3.186-2.643-6.43-5.182-9.8-7.593-.6-.4-.916-1.188-.54-1.87.318-.576 1.27-.94 1.868-.54 12.306 8.765 23.3 19.27 32.513 31.308 2.566 3.395 5.022 6.865 7.258 10.488.578.933-.9 1.757-1.507.876z"/><path d="M292.252 437.507c-5.56-4.158-10.923-8.548-16.233-12.9-1.112-.954.474-2.47 1.563-1.596 5.392 4.338 10.702 8.7 15.787 13.347.827.73-.285 1.755-1.117 1.16zm-39.245-40.89c-3.887-2.485-4.154-7.82-2.128-11.62 2.517-4.7 8.638-6.503 13.46-7.326 9.804-1.56 19.845.3 28.63 4.792 8.68 4.444 16.182 11.516 20.647 20.26 2.43 4.755 3.738 10.186 6.853 14.567 3.6 4.988 9.76 6.815 15.157 9.04 19.086 7.86 33.042 26.138 35.698 46.583 1.185 9.12.088 18.415.925 27.548.396 4.1 1.165 8.3 3.105 11.953a20.29 20.29 0 0 0 3.546 4.96c2.08 2.17 4.64 3.72 7.028 5.58 3.918 3.048 6.615 7.197 7.867 11.985 1.206 4.624 1.117 9.5.418 14.226-1.707 11.145-8.035 20.765-11.38 31.415-.863 2.802-1.568 5.7-1.872 8.595-.1.906-.685 1.738-1.678 1.806-.83.02-1.844-.744-1.806-1.68 1.14-11.73 7.428-21.645 11.133-32.575 2.732-8.052 4.094-17.952-.333-25.65-1.25-2.2-2.922-3.864-4.866-5.414-2.283-1.805-4.8-3.324-6.795-5.385-2.93-2.982-4.975-6.703-6.26-10.7-2.606-8.4-1.973-17.474-2.053-26.12-.003-4.576-.192-9.187-1.136-13.667a53.934 53.934 0 0 0-4.701-13.516c-4.337-8.604-10.854-16.226-18.88-21.607-4.534-3.046-9.406-4.98-14.408-7.056-2.762-1.182-5.414-2.44-7.8-4.3-2.154-1.666-3.915-3.797-5.264-6.18-2.628-4.52-3.893-9.657-6.47-14.15-2.25-3.97-5.18-7.568-8.617-10.623-6.896-6.192-15.702-10.16-24.94-11.36-4.607-.56-9.352-.376-13.942.643-4.347.95-9.682 3.197-10.34 8.228-.272 2.103.397 4.1 2.085 5.383.914.572-.075 1.87-.884 1.356zM411.9 529.483c-1.423 3.45-3.004 6.8-4.637 10.143l-4.95 9.97a695.124 695.124 0 0 1-10.611 19.617l-6.295 10.8c-.688 1.123-2.52.112-1.833-1 7.66-12.777 14.766-25.8 21.64-39.002l5.77-11.088c.265-.605 1.156-.114.914.572zM357.573 635.68c5.46-9.28 11.33-18.197 17.778-26.795s13.413-16.774 20.74-24.615 15.1-15.235 23.24-22.213c8.177-7.03 16.687-13.672 25.47-19.82a310.825 310.825 0 0 1 27.148-16.918l3.582-1.916c1.832-.97 3.566 1.83 1.705 2.852-9.385 5.135-18.543 10.6-27.427 16.558a305.374 305.374 0 0 0-25.335 19.078 319.557 319.557 0 0 0-23.351 21.673c-7.426 7.65-14.544 15.605-21.248 23.925-6.675 8.268-12.96 16.82-18.803 25.683-.74 1.094-1.427 2.217-2.167 3.312-.538.727-1.794.034-1.333-.803z"/><path d="M403.98 575.782c5.187-7.177 11.78-13.44 18.57-19.19 6.816-5.8 14.065-11.022 21.768-15.582 4.36-2.58 8.765-5 13.346-7.117 1.12-.543 2.176 1.132 1.028 1.728-8.02 3.77-15.794 8.088-23.09 13.147a158.341 158.341 0 0 0-20.452 16.785c-3.566 3.496-6.952 7.16-10.442 10.766-.388.332-1.01-.148-.728-.538z"/><path d="M445.932 543.404c6.273-8.9 10.613-19 12.8-29.67.2-.982 1.7-.627 1.5.356-2.15 10.832-6.843 21.08-13.592 29.853-.312.442-1.04-.095-.728-.538zm-.875 7.78c6.983-4.616 14.738-7.783 22.985-9.244 2.345-.414 4.766-.718 7.153-.836 1.474-.074 1.517 2.202.042 2.276-10.353.574-20.593 3.667-29.48 9-.742.478-1.47-.675-.7-1.206zm-47.56 33.383c2.003-1.9 4.087-3.823 6.347-5.445s4.62-3.052 7.082-4.425c4.9-2.693 10.153-4.917 15.467-6.63 10.982-3.572 22.452-5.304 33.953-6.474 12.575-1.26 25.17-1.7 37.78-3.136 6.13-.716 12.3-1.485 18.266-3.038 4.84-1.223 10.052-3.743 11.203-9.05 1.218-5.678-4.64-8.43-8.833-10.605l-18.3-9.407c-5.375-2.76-11.075-5.423-14.42-10.75-2.288-3.65-3.266-7.945-4.063-12.072s-1.375-8.405-3.008-12.377c-.685-1.607-1.736-3.415-2.9-4.666-1.6-1.697-3.604-2.875-5.853-3.5-5.295-1.417-10.795.262-15.275 3.186-5.03 3.303-8.894 8.205-12.613 12.846a199.11 199.11 0 0 0-21.184 32.973c-6.008 11.64-10.916 23.886-14.53 36.506l-2.514 9.265c-.476 1.854-3.364 1.15-2.888-.705.802-3.313 1.576-6.573 2.564-9.852.96-3.226 1.943-6.37 3.06-9.5 2.2-6.36 4.7-12.63 7.524-18.724 5.63-12.2 12.386-23.827 20.26-34.643 3.8-5.28 7.73-10.553 12.25-15.162 4.162-4.328 9.237-8.084 15.227-9.288 5.45-1.092 11.324-.107 15.5 3.835 3.146 2.963 4.72 7.04 5.733 11.15 1.06 4.27 1.527 8.625 2.696 12.82.558 2.083 1.232 3.957 2.336 5.794 1.302 2.22 3.05 4.003 5.2 5.535 2.76 1.93 5.807 3.338 8.797 4.85l18.72 9.64c2.57 1.28 5.3 2.65 7.246 4.814 1.818 2.027 2.866 4.585 2.567 7.356-.27 2.72-1.47 5.266-3.263 7.28-4 4.55-10.482 5.76-16.088 6.766-12.752 2.323-25.654 3.062-38.6 3.986-12.13.823-24.263 1.78-36.12 4.46-11 2.475-21.85 6.32-31.308 12.576-2.336 1.5-4.67 3.023-6.83 4.836-.858.688-1.94-.32-1.217-1.012zm-27.64 58.43c-4.3 2.825-8.548 5.597-12.6 8.752-4.085 3.074-7.965 6.396-11.74 9.777-1.112 1.025-2.76-.566-1.7-1.62 3.757-3.595 7.77-6.912 12.018-10.033 4.218-3.068 8.535-5.945 13.156-8.382.956-.497 1.785.848.876 1.507zm65.696-25.91c7.998-3.238 16.524-4.955 25.064-5.7 8.62-.777 17.234-.67 25.883-.135 8.835.57 17.654 1.54 26.444 2.563 8.685.965 17.4 1.878 26.13 2.4s17.453.542 26.162-.392c4.22-.472 8.394-1.107 12.554-2.1 4.457-1.025 9.36-2.487 12.525-6 2.83-3.15 3.107-7.368 1.74-11.33-1.413-4.124-4.35-7.588-7.583-10.394-7.268-6.26-16.954-9.62-26.518-9.363-5.25.1-10.338 1.537-15.422 2.83-4.973 1.218-10.04 2.112-15.215 1.716-9.7-.63-19.058-4.567-26.205-11.17-1.782-1.597-3.263-3.37-4.738-5.275-.484-.608-.122-1.637.48-1.988.713-.426 1.504-.126 1.988.482 5.773 7.484 14.67 12.526 23.857 14.314 4.753.914 9.625.87 14.425-.035 5.42-1.04 10.6-2.758 16.093-3.554 9.932-1.42 20.352.98 28.75 6.43 7.408 4.768 15.135 12.92 13.975 22.453-1.255 10.574-13.656 13.5-22.333 14.997-8.707 1.55-17.584 2.05-26.436 1.88-8.984-.174-17.9-.988-26.8-1.935l-26.35-2.853c-8.772-.808-17.555-1.35-26.34-1.14-8.6.243-17.203 1.235-25.583 3.306a107.661 107.661 0 0 0-6.196 1.704c-1.033.387-1.474-1.3-.36-1.7zm17.836-48.202c-2.97.684-5.34 2.38-7.308 4.7-2.054 2.486-3.717 5.256-5.433 7.996-1.77 2.712-3.676 5.553-6.248 7.617-2.93 2.344-6.395 3.302-10.117 3.366-4 .053-7.923-.613-11.853-.05-3.767.517-7.44 1.975-10.574 4.07-3.38 2.166-6.012 5.084-8.103 8.505-1.26 2.037-2.467 4.102-4.244 5.717-1.64 1.486-3.6 2.584-5.523 3.577-1.966.965-3.903 1.877-5.716 3.062-1.867 1.156-3.634 2.503-5.325 3.96-3.382 2.915-6.432 6.218-9.377 9.578l-2.216 2.533c-1.122 1.293-3.028-.576-1.905-1.87 5.867-6.802 11.954-13.756 20.018-17.98 1.995-1.017 4.065-1.924 5.93-3.08a14.845 14.845 0 0 0 4.788-4.598c1.254-1.903 2.35-3.893 3.815-5.68 1.238-1.503 2.633-2.918 4.18-4.114 3.07-2.472 6.676-4.307 10.546-5.382 3.923-1.047 7.854-.996 11.885-.753 3.712.203 7.586.36 10.93-1.62 2.74-1.63 4.77-4.196 6.534-6.775 3.492-4.97 6.705-11.665 12.965-13.608a10.526 10.526 0 0 1 2.264-.39c.62-.136.787 1.048.085 1.207zm38.68-54.8c12.223-5.824 24.868-10.8 37.635-15.505 12.656-4.63 25.454-8.77 38.58-11.774 13.208-3.028 26.606-4.8 40.17-5.368 13.454-.502 26.9-.122 40.327.044s26.866.065 40.177-1.54c1.666-.173 3.3-.428 4.975-.602 1.83-.22 2.268 2.82.486 3.204-6.58 1.287-13.45 1.733-20.127 2.08s-13.397.397-20.14.367c-13.485-.06-26.897-.628-40.37-.34-13.34.292-26.6 1.578-39.697 4.262-13.17 2.708-26.1 6.577-38.764 11s-25.2 9.53-37.75 14.35c-1.55.58-3.202 1.102-4.75 1.682-1.003.334-1.793-1.33-.755-1.85z"/><path d="M670.105 483.678l-49.756-1.146c-4.653-.107-9.352-.376-14.01-.35-.697.026-.903-.84-.352-1.218 11.558-8.58 24.926-14.25 38.295-19.306l11.596-4.19c1.357-.48 1.916 1.602.61 2.112l-20.03 7.596a222.426 222.426 0 0 0-19.385 8.908 137.634 137.634 0 0 0-10.359 6.032l-.352-1.218c4.165.248 8.31.28 12.48.395l12.51.343 24.724.728 14.027.564c.453.045.45.794-.003.75z"/><path d="M641.403 481.372c-5.9 1.396-12.195.446-17.396-2.627a.536.536 0 0 1-.212-.731l1.056-2.285c.294-.658 1.29-.11.994.548-.35.762-.703 1.524-1.107 2.257l-.212-.73c4.935 3.062 10.966 4.134 16.636 2.89.488-.14.7.6.24.678zm-4.84-18.713c-11.685 9.057-26.098 12.785-40.393 15.555l-22.108 4.06c-8.014 1.657-15.836 3.83-23.522 6.626-9.344 3.45-18.402 7.743-27.302 12.12-1.148.596-2.228-1.16-1.028-1.727 15.43-7.675 31.284-14.637 48.207-18.21 14.468-3.084 29.377-4.49 43.598-8.735 7.855-2.36 15.453-5.614 22.122-10.403.388-.332.814.38.426.713z"/><path d="M541.308 494.872a112.18 112.18 0 0 1-7.495 4.06c-2.24 1.088-4.616 2.303-7.013 2.688-2.182.368-4.414-.043-5.703-1.915-1.2-1.68-1.204-4.01.534-5.304.8-.583 1.577.733.83 1.345-1.326 1.044-.29 3.253.803 3.993 1.537 1.052 3.806.527 5.407-.024 4.258-1.407 8.328-3.464 12.19-5.637.47-.356.97.467.45.794zm-66.153-9.3c1.34-2.675 2.677-5.35 4.226-7.91a73.7 73.7 0 0 1 5.086-7.369c3.384-4.28 7.42-8.13 12.23-10.667 4.267-2.3 9.117-3.78 14.013-3.744 2.515.02 5.095.42 7.496 1.265 2.954 1.082 5.647 2.636 8.34 4.19 4.288 2.5 8.948 5.07 14.12 4.235 1.94-.297 3.876-1.21 5.1-2.793 1.3-1.74 1.526-4.006 1.45-6.096-.09-2.44-.504-4.784-.54-7.194-.09-2.44.327-4.804 1.3-7.066 2.024-4.414 6.085-7.57 10.516-9.29 10.655-4.094 21.72 1.597 30.42 7.486 4.82 3.272 9.8 6.496 15.92 6.047 5.18-.354 10.195-2.64 14.88-4.7 9.592-4.27 19.11-9.4 29.747-10.363 10.392-.893 20.56 2.46 29.393 7.74 9.304 5.54 17.412 12.878 25.026 20.5 3.578 3.542 8.155 7.5 6.617 13.138-1.354 5.057-6.026 8.08-10.935 9.06-2.537.513-5.2.62-7.792.757-2.1.076-2.123-3.083-.085-3.188 4.69-.213 10.185-.393 13.6-4.11 1.343-1.445 2.277-3.387 2.062-5.35-.28-2.34-2.162-4.128-3.758-5.7-7.307-7.306-14.885-14.488-23.487-20.187-8.16-5.386-17.55-9.404-27.482-9.348-10.197.044-19.51 4.674-28.56 8.832-4.744 2.164-9.545 4.433-14.652 5.645-2.512.595-5.096.946-7.68.68-2.904-.304-5.625-1.19-8.22-2.552-5.084-2.666-9.457-6.375-14.6-8.937-4.6-2.325-9.665-3.894-14.902-3.436-4.43.357-8.8 2.59-11.642 6.007a11.976 11.976 0 0 0-2.502 5.653c-.33 2.208-.02 4.495.237 6.754.485 4.568.577 9.603-3.327 12.845-3.516 2.91-8.504 3.163-12.8 2.16-5.643-1.405-10.22-5.363-15.478-7.715-4.286-1.885-9.066-2.13-13.605-1.083-10.456 2.496-17.986 10.703-23.69 19.438l-4.68 7.252c-.485.756-1.794.034-1.356-.885zm-2.6-47.792c2.062-5.35 4.967-10.37 7.843-15.34 2.957-4.992 6.02-9.927 9.262-14.693a315.262 315.262 0 0 1 20.887-27.606c7.446-8.8 15.387-17.257 23.788-25.188a331.136 331.136 0 0 1 26.433-22.433c9.165-6.963 18.743-13.562 28.742-19.315 1.235-.753 2.493-1.425 3.75-2.097 1.97-1.098 3.752 1.864 1.804 3.043-9.842 5.84-19.485 12.06-28.72 18.78-9.154 6.697-17.93 13.944-26.238 21.584a314.45 314.45 0 0 0-23.975 24.538 304.579 304.579 0 0 0-21.099 26.875c-6.532 9.37-12.384 19.117-18.264 28.916l-2.288 3.655c-.648.803-2.316.36-1.925-.72z"/><path d="M489.947 411.933c2.032-3.932 4.535-7.605 7.038-11.277s5.08-7.236 7.74-10.82c5.18-7.044 10.676-13.915 16.322-20.565 11.35-13.405 23.605-25.97 36.71-37.727 7.384-6.58 14.97-12.912 22.838-18.884.47-.356 1.26-.056 1.564.384.38.55.114 1.155-.384 1.563a381.722 381.722 0 0 0-39.635 34.613c-12.324 12.322-23.88 25.478-34.42 39.398-2.967 3.895-5.858 7.9-8.696 11.933-2.8 3.982-5.4 8.078-8.4 11.892-.36.28-.878-.142-.676-.51z"/><path d="M530.023 359.06c11.342-12.523 14.927-29.8 16.3-46.175.403-4.694.673-9.393.913-14.04.043-1.07 1.72-1.5 2.02-.32 1.573 6.807 2.147 13.815 1.786 20.785a73.096 73.096 0 0 1-1.279 10.492c-.605 3.08-1.583 6.1-2.2 9.17-.537 2.708-.776 6 1.525 8 .88.758-.348 1.993-1.257 1.287-2.258-1.723-2.76-4.527-2.52-7.193.257-3.067 1.3-5.968 2.02-9 1.616-6.892 2.168-13.962 1.756-21.017a71.39 71.39 0 0 0-1.74-11.951l2.02-.32c-.87 16.932-1.788 34.45-9.898 49.78-2.257 4.217-4.957 8.123-8.227 11.577-.834.77-1.94-.32-1.24-1.093zm34.84-15.27c14.165-8.85 30.563-13.328 46.778-16.6l13.808-2.63c.62-.135 1.225.13 1.413.78.165.568-.158 1.278-.78 1.413-16.176 2.962-32.648 5.965-48 12.118a119.21 119.21 0 0 0-12.658 5.994c-.603.35-1.204-.664-.573-1.067zm-61.533 45.48c8.32-5.927 17.224-11.055 26.298-15.747 9.102-4.745 18.427-9.027 27.822-13.064 18.923-8.07 38.28-14.944 57.714-21.708l58.164-20.914c9.518-3.765 18.988-7.693 28.26-12.002l6.958-3.333c2.32-1.1 4.6-2.17 6.73-3.663 1.68-1.2 3.493-3 3.503-5.238.005-2.114-1.6-3.892-3.28-4.95-6.03-3.802-14.16-1.935-20.876-1.27-3.547.366-7.14.57-10.645-.134-3.6-.76-6.74-2.76-8.812-5.814-2.55-3.795-3.024-8.63-5.574-12.427-2.422-3.657-6.805-5.118-11-5.046-10.36.092-17.714 8.6-24.877 15.03-7.082 6.405-16.06 12.038-25.998 9.63-10.363-2.505-17.332-11.536-26.078-16.973-3.107-1.918-8.12-4.34-10.716-.377-1.398 2.164-2.163 4.542-3.928 6.505-1.458 1.654-3.353 2.862-5.394 3.717-4.165 1.732-8.9 1.916-13.32 1.123-5.578-1.028-10.715-3.723-15.844-5.937-4.287-1.885-9.183-3.902-14-3.213-1.805.302-3.655 1.058-4.76 2.565-1.555 2.08-1.65 5.1-1.938 7.603-1.246 9.7-1.186 19.487-1.015 29.208.4 19.338 1.984 39.125-2.687 58.124-1.124 4.638-2.695 9.097-4.6 13.436-.38.814-1.54 1.062-2.274.658-.838-.462-.986-1.43-.658-2.275 7.898-18.04 7.722-38.278 7.16-57.57-.265-10.046-.663-20.097-.23-30.17.2-4.942.636-9.822 1.34-14.7.432-2.766 1.108-5.602 3.222-7.577 1.586-1.515 3.6-2.317 5.78-2.685 5.172-.835 10.236 1 14.946 2.984 5.2 2.2 10.237 4.96 15.8 6.122 4.167.864 8.882.732 12.7-1.255 1.803-.917 3.355-2.246 4.413-3.916 1.5-2.456 2.27-5.234 4.722-6.955 3.8-2.684 8.813-.877 12.34 1.272 4.65 2.837 8.755 6.534 13.035 9.918 3.94 3.13 8.313 6.222 13.328 7.28 4.6.96 9.2-.1 13.286-2.302 9.136-4.93 15.17-13.893 24.103-19.073 4.1-2.377 8.85-3.792 13.706-3.436 4.775.38 9.27 2.38 12.054 6.372 2.655 3.854 3.07 8.795 5.726 12.648 1.867 2.805 4.758 4.125 8.006 4.55 3.486.5 7.172-.005 10.667-.4 3.8-.436 7.558-.953 11.322-.722 3.897.238 7.792 1.224 10.872 3.8 1.863 1.574 3.218 3.823 3.412 6.32.165 2.55-1.1 4.986-2.84 6.763-1.87 1.905-4.28 3.307-6.682 4.44l-6.958 3.333a389.061 389.061 0 0 1-14.498 6.481c-19.144 8.22-38.745 15.166-58.37 22.03l-59.03 21.12c-19.355 7.5-38.242 16-56.364 26.07-4.406 2.42-8.736 4.948-13.066 7.476-1.177.65-2.18-.998-1.08-1.756zm-24.792 54.13c2.5-.943 4.9-2.078 7.372-2.97l7.495-2.695 14.973-5c10-3.157 20.173-5.88 30.423-7.875s20.576-3.266 30.994-3.462c10.203-.178 20.364.713 30.365 2.88 9.897 2.1 19.578 5.605 28.45 10.565 1.1.607 2.17 1.265 3.24 1.924.86.543 1.22 1.628.728 2.518-.462.838-1.628 1.22-2.518.728a98.35 98.35 0 0 0-27.221-11.184c-9.67-2.397-19.582-3.5-29.56-3.6-10.14-.06-20.295.896-30.266 2.636-10.215 1.8-20.3 4.374-30.292 7.264-10.02 2.94-19.794 6.428-29.738 9.48-1.247.405-2.5.676-3.736 1.08-1.5.475-2.097-1.77-.7-2.303z"/><path d="M687.5 443.086c6.287-5.955 4.786-15.864.26-22.388-5.595-7.932-15.84-10.03-24.975-9.8-5.116.116-10.178.875-15.245 1.768-4.852.876-9.704 1.75-14.605 1.848s-9.875-.665-14.307-2.904c-4.17-2.095-7.678-5.394-10.75-8.863-6.067-6.827-11.35-15.202-20.142-18.82-8.374-3.387-18.254-1.938-26.15 2.106-9.37 4.734-16.534 12.527-23.065 20.534-2.6 3.214-5.432 6.632-9.253 8.485-2.047.988-4.235 1.5-6.477 1.345-2.533-.236-4.905-1.134-7.133-2.294s-4.317-2.45-6.603-3.504c-2.024-.9-4.14-1.53-6.32-1.914-4.224-.758-8.677-.483-12.82.715-9.18 2.655-16.176 10.268-18.58 19.457a29.628 29.628 0 0 0-.89 6.815c.001 1.98-3.054 2.072-3.054.1-.12-10.308 5.178-20.3 13.807-25.9 7.778-5.065 18.047-6.23 26.78-3.123 2.4.846 4.6 2.058 6.852 3.3 2.147 1.183 4.265 2.42 6.653 2.917 4.43 1.008 8.143-1.52 11.13-4.583 3.52-3.66 6.467-7.768 9.882-11.484 3.663-3.92 7.636-7.534 12.092-10.54 8.142-5.48 18.033-8.56 27.876-7.094 4.788.728 9.178 2.67 13.02 5.6 3.895 2.967 7.06 6.76 10.12 10.496s6.145 7.553 9.93 10.596 8.262 4.828 13.06 5.3c5.065.47 10.15-.207 15.136-1.077 5.172-.835 10.297-1.833 15.528-2.158 9.66-.68 21.118.583 28.18 7.958 3.083 3.202 5.245 7.33 6.194 11.677.83 3.94.7 8.5-1.372 12.147-.953 1.728-2.377 3.196-3.976 4.363-.532.594-1.424-.512-.787-1.05zm-202.504-5.206c9.664-5.4 20.407-9.027 31.1-11.808 10.764-2.805 21.804-4.5 32.964-5.176 6.224-.392 12.484-.354 18.682-.078 1.44.112 1.5 2.336.07 2.224a166.628 166.628 0 0 0-32.895 1.46c-10.9 1.568-21.66 4.24-32.055 7.862-5.835 2.04-11.577 4.404-17.238 6.745-.788.316-1.303-.855-.62-1.23zm68-19.314c9.596-3.04 18.65-7.946 26.377-14.406a74.691 74.691 0 0 0 6.201-5.798c.95-.98 2.522.503 1.544 1.534-7.206 7.497-15.898 13.356-25.403 17.47a75.186 75.186 0 0 1-8.226 2.907c-1.056.305-1.497-1.372-.493-1.706zm67.44 11.92l5.416-.906c.296-.04.563-.03.825.114.2.115.466.393.536.637.112.54-.13 1.226-.75 1.36l-5.363.935c-.297.042-.564.03-.825-.113s-.466-.394-.537-.637c-.193-.517.077-1.255.698-1.4zm-175.354-73.398c-.6-6.607-.86-13.174-1.83-19.716a155.166 155.166 0 0 0-4.168-19.436c-3.677-13.02-8.98-25.57-15.214-37.542-6.907-13.23-14.962-25.865-23.348-38.272-8.688-12.847-17.707-25.466-26.616-38.162l-31.003-44.2c-1.2-1.68 1.55-3.3 2.74-1.63l27.812 39.7 27.048 38.74c8.52 12.412 16.76 25.08 23.934 38.322 6.602 12.174 12.27 24.926 16.367 38.177 3.932 12.683 6.548 26.142 6.358 39.488-.012 1.632-.18 3.177-.38 4.775-.142.877-1.578.632-1.703-.256z"/><path d="M399.125 233.635c-7.63-7.21-14.984-14.68-22.25-22.304-7.243-7.544-14.37-15.297-21.417-23.074L343.58 174.88c-.793-.915.492-2.254 1.285-1.34a1347.406 1347.406 0 0 0 20.999 23.458 1249.513 1249.513 0 0 0 21.556 22.945l12.324 12.94c.5.475-.182 1.197-.62.75z"/><path d="M382.65 219.43c-13.687-12.326-27.1-25.04-38.52-39.604-4.863-6.164-10.268-12.83-12.448-20.52-.963-3.33-1.166-6.924.1-10.192 1.4-3.797 4.578-6.693 5.303-10.732 1-5.793-2-11.748-3.755-17.1-.98-2.93-1.767-5.958-1.9-9.04-.175-3.647.642-7.976 4.015-10.008 2.77-1.68 6.223-1.007 8.916.546 3.1 1.704 5.473 4.315 7.776 6.95 5.17 5.855 9.5 12.345 13.633 18.987 8.015 12.954 15.163 26.863 25.797 37.915 5.395 5.57 11.646 9.835 18.482 13.536 6.783 3.67 13.873 7.034 19.883 11.986 5.67 4.697 9.675 10.933 10.878 18.287 1.137 6.977-.03 14.05-1.03 20.94-.948 6.92-1.738 13.926.072 20.796 1.77 6.574 5.418 12.34 9.483 17.722 8.486 11.234 19.048 21.427 22.873 35.416 3.938 14.53.933 30-3.272 44.077a355.19 355.19 0 0 1-3.398 10.622c-.673 2.087-3.986 1.284-3.313-.803 4.485-13.708 8.95-28.247 8.172-42.8-.4-7.054-2.25-13.872-5.668-20.058-3.266-5.965-7.656-11.253-11.94-16.483s-8.676-10.52-12.05-16.408-5.418-12.34-5.544-19.17c-.122-6.963 1.28-13.837 2.064-20.7.746-6.553.84-13.534-2.154-19.622-3.296-6.53-9.274-10.918-15.47-14.54-6.563-3.823-13.554-6.995-19.857-11.3-12.45-8.503-20.958-21.182-28.607-33.934-3.964-6.555-7.737-13.2-11.95-19.562-2.043-3.106-4.196-6.136-6.487-9.038-2.216-2.792-4.56-5.723-7.303-8.055-1.887-1.655-4.832-3.62-7.484-2.897-3.435.906-3.6 5.662-3.34 8.536.536 5.963 3.474 11.406 4.875 17.163.7 2.837 1.052 5.77.5 8.6-.25 1.568-.82 3.098-1.57 4.46-1.097 2-2.7 3.638-3.734 5.657-3.475 6.55.55 14.232 4.182 19.784 9.886 15 22.56 27.937 35.247 40.463l9.316 9.233c.618.613-.164 1.412-.758.88zm65.94 115.694c-1.28-10.06 1-20.405 6.568-28.88.798-1.2 2.735-.13 1.937 1.068-5.438 8.13-8.03 18.035-7.193 27.783.073.86-1.2.834-1.312.028z"/><path d="M445.045 320.13c2.323-5.206 5.223-10.093 8.646-14.692.908-1.275 2.648.026 1.688 1.272-3.417 4.465-6.445 9.214-9.13 14.084-.433.785-1.556.097-1.204-.664zm-38.218-77.058l-.002-25.878c-.022-1.446 2.283-1.54 2.277-.042l-.48 25.885c-.072 1.12-1.733 1.16-1.795.035zm80.668 164.642c3.797-9.24 7.856-18.336 12.02-27.374.646-1.42 2.74-.265 2.094 1.154l-12.858 26.913c-.485.756-1.637.12-1.256-.693zm19.882-69.126c-1.767-18.6-10.637-35.565-20.12-51.308l-14.556-24c-2.3-4-4.73-8.14-5.372-12.794-.356-2.45-.15-4.93.72-7.25.956-2.477 2.412-4.747 3.997-6.878 2.8-3.98 5.317-7.787 6.446-12.56.974-4.242 1.017-8.656.388-12.963-1.4-9.102-5.6-17.567-10.848-25.03-6.026-8.512-13.293-16.137-19.54-24.497-5.9-7.9-10.63-16.5-13.08-26.056a70.23 70.23 0 0 1-1.501-27.865c1.227-8.54 3.934-17.3 9.324-24.218 4.46-5.735 11.592-10.747 19.228-8.994 2.174.516 4.193 1.56 6.125 2.762 1.856 1.092 3.887 2.485 6.048 2.652 3.654.308 6.476-3.325 9.555-4.7 2.1-.96 4.248-1.14 6.4-.358 2.53.985 4.73 2.813 6.97 4.322l14.818 10.15 28.514 19.613c16.467 11.742 32.628 25.773 39.2 45.572 2.815 8.517 3.832 17.817 1.95 26.68-.984 4.5-2.76 8.72-5.005 12.67-2.276 4.003-5.287 8.35-4.76 13.215.257 2.26 1.27 4.387 2.176 6.457.982 2.18 1.936 4.413 2.455 6.816.92 4.4.708 8.993-.352 13.393-2.378 9.886-8.833 18.002-16.35 24.577-4.106 3.608-8.515 6.776-12.872 9.973-.718.56-1.852.14-2.33-.603-.503-.823-.17-1.8.602-2.33 8.465-6.2 17.456-12.84 23.066-21.9 4.576-7.3 7.037-16.603 4.112-25.043-1.507-4.45-4.342-8.47-4-13.408.303-4.885 3.014-9.058 5.375-13.218 4.378-7.692 5.948-16.112 5.042-24.872-.88-8.68-4.126-17.16-8.807-24.52-5.534-8.786-13.055-16.073-21.06-22.604-8.396-6.814-17.522-12.8-26.427-18.94l-28.96-19.8c-1.85-1.226-4-3.292-6.347-3.226-1.608.07-3.068 1.107-4.337 2.046-3.413 2.352-6.844 4.488-11.123 3.085-4.04-1.34-7.303-4.7-11.643-5.26-3.277-.373-6.35.868-8.993 2.7-6.467 4.423-10.056 11.798-12.17 19.1-2.574 8.754-3.264 17.932-2.103 26.97 1.156 9.172 4.333 18.024 9.207 25.9 5.377 8.7 12.324 16.285 18.75 24.197 5.988 7.467 11.455 15.26 14.73 24.304 2.935 8.173 4.144 17.374 1.558 25.78-.673 2.087-1.532 4.14-2.57 6.024-1.323 2.275-2.96 4.377-4.5 6.537s-3.017 4.48-3.63 7.08c-.516 2.174-.3 4.403.3 6.515 1.245 4.305 3.8 8.234 6.044 12.072l7.2 11.957c9.336 15.4 19.242 31.23 23.103 48.993.926 4.265 1.555 8.572 1.755 12.916.028 1.312-1.686 1.323-1.8.168zm40.323-66.324c-2.988 1.084-5.758 2.765-8.068 4.974-.892.874-2.308-.52-1.416-1.395a22.727 22.727 0 0 1 9.014-5.204c1.056-.305 1.502 1.238.47 1.625zm-26.48.968c-2.38-4.725-3.854-9.976-5.28-15.065s-2.45-10.294-3.337-15.495c-1.875-10.593-2.996-21.315-4.035-32.062l-3.123-32.105c-1.265-10.46-2.908-20.856-5.548-31.05-2.593-10.033-6.156-19.918-11.278-28.955l-1.927-3.316c-.98-1.564 1.57-3.094 2.47-1.506 5.308 9.072 9.33 18.868 12.16 28.963 2.907 10.206 4.736 20.636 6.105 31.155 1.364 10.652 2.247 21.312 3.18 32s1.974 21.435 3.553 32.07a215.377 215.377 0 0 0 7.022 30.978c.405 1.247.73 2.518 1.052 3.8.212.73-.664 1.204-1.014.6zm4.214-.954c-5.666-15.482-10.862-31.32-11.665-47.944-.808-16.5 3.384-32.887 11.876-47.05 4.76-7.9 10.77-14.954 17.78-20.854.608-.484 1.415-.585 1.98-.001.5.475.6 1.497.001 1.98-12.425 10.15-21.474 24.2-26 39.603-2.264 7.696-3.336 15.708-3.257 23.74.107 7.98 1.3 15.95 3.113 23.7 2.05 8.914 4.773 17.72 7.606 26.452.34.87-1.122 1.293-1.433.37z"/><path d="M542.2 156.65c-4.345 6.9-9.342 13.352-14.828 19.34-1.343 1.444-2.714 2.94-4.162 4.328-1.256 1.288-2.517 2.7-4.03 3.718-1.1.76-2.516 1.344-3.87 1.076-1.592-.332-2.445-1.758-2.786-3.244-.384-1.78-.576-3.662-.878-5.467l-1-5.474-2.417-11.096c-1.818-7.352-3.9-14.58-6.377-21.745-2.755-8.006-5.893-15.812-9.518-23.478-.568-1.2 1.16-2.228 1.727-1.028 6.134 13.146 11.097 26.806 14.76 40.843 1.858 7.032 3.362 14.2 4.6 21.38l.783 5.143c.266 1.376.828 2.7 2.452 2.24 1.434-.37 2.522-1.477 3.552-2.48a152.278 152.278 0 0 0 4.18-4.113 176.777 176.777 0 0 0 17.014-20.457c.335-.36 1.097-.01.8.515zm-34.428 13.654c-7.46-15.447-17.727-29.643-30.095-41.514-3.477-3.35-7.152-6.47-10.965-9.46-.466-.393-.434-1.195-.017-1.58.474-.5 1.114-.4 1.58-.017 6.824 5.333 13.086 11.312 18.793 17.803 5.758 6.52 10.8 13.6 15.207 21.085a138.973 138.973 0 0 1 6.675 13.033c.345.737-.78 1.414-1.177.65zm66.87 99.887c2.5-13.84 5.997-29.33 17.17-38.942 9.816-8.516 23.575-9.943 35.8-6.48 3.017.844 5.994 2.007 8.804 3.35 3.018 1.46 5.893 3.18 8.94 4.588 2.756 1.316 5.762 2.427 8.887 2.58 2.992.147 5.887-.646 8.466-2.228 5.594-3.334 9.565-8.928 14.267-13.368 5.147-4.878 11.132-9.293 18.013-11.37 6.445-1.908 13.88-1.77 19.872 1.603 3.35 1.847 5.724 4.726 8.375 7.348 2.47 2.454 5.182 4.223 8.576 5.002 6.58 1.442 13.402-.53 19.6-2.717 6.434-2.257 12.964-4.938 19.898-5.007 5.703-.065 11.744 2.105 15.642 6.303a13.957 13.957 0 0 1 3.631 7.532c.458 3.257-.426 6.593-2.142 9.334-3.6 5.662-9.814 9.132-15.957 11.48-5.626 2.156-11.52 3.685-17.43 4.865-11.978 2.408-24.165 3.336-36.216 4.885-11.674 1.483-23.5 3.63-34.254 8.63a82.734 82.734 0 0 0-7.577 4.083c-1.866 1.156-3.595-1.777-1.728-2.933 10-6.234 21.445-9.546 33.007-11.57 11.776-2.04 23.696-2.98 35.5-4.592 5.787-.837 11.527-1.837 17.232-3.267 5.785-1.453 11.72-3.3 16.902-6.384 4.9-2.96 10.138-7.86 9.2-14.107-.712-4.9-5.23-8.346-9.723-9.73-5.895-1.816-12.052-.432-17.75 1.48-6.428 2.123-12.668 4.896-19.495 5.638-3.36.4-6.863.312-10.118-.595-3.494-.97-6.467-2.883-9.014-5.447-2.47-2.455-4.686-5.247-7.827-6.98-2.723-1.5-5.85-2.27-8.975-2.422-6.708-.216-12.995 2.394-18.395 6.245-5.5 3.926-9.838 9.05-14.55 13.758-4.515 4.475-9.997 8.348-16.624 8.108-6.708-.216-12.556-3.85-18.32-6.892-10.512-5.454-23.156-7.783-34.42-3.205-13.085 5.28-18.83 19.045-22.524 31.688-.965 3.36-1.906 6.8-2.685 10.195-.426 1.267-2.28.8-2.07-.458z"/><path d="M754.54 248.182l-16.226 3.548a354.932 354.932 0 0 0-15.9 4.07c-10.612 3.025-21.112 6.6-31.395 10.752-5.765 2.284-11.46 4.81-17.08 7.448-.545.246-1.184.167-1.563-.384-.275-.493-.16-1.318.384-1.563a314.558 314.558 0 0 1 31.012-12.534 304.343 304.343 0 0 1 32.185-9.088c6.076-1.36 12.2-2.56 18.38-3.247.62-.136.77.833.2.998zM607.588 283.64l8.882-35.18 2.68-10.06c.407-1.482 2.686-.91 2.307.52a1778.42 1778.42 0 0 1-9.493 35.05l-2.865 10.027c-.253.953-1.764.598-1.51-.356z"/><path d="M613.653 287.87a43.337 43.337 0 0 1-3.575-26.209c.25-1.57 2.744-1.014 2.412.58-1.617 8.257-.63 16.994 2.81 24.626.543 1.12-1.103 2.123-1.646 1.004zm64.242-25.005c14.076-5.963 28.76-11.795 40.18-22.227a63.05 63.05 0 0 0 8.489-9.452c.37-.548.996-.817 1.625-.47.523.288.84 1.077.47 1.624-8.702 13.432-23.427 21.563-37.775 27.65a234.38 234.38 0 0 1-12.401 4.907c-.516.193-1.168-.235-1.31-.722-.164-.568.206-1.116.722-1.31z"/><path d="M687.755 262.567a564.873 564.873 0 0 1 4.63-13.97c.426-1.267 2.495-.81 2.04.5l-4.577 14c-.426 1.268-2.547.78-2.093-.54zM490.398 690.613c-1.257-.693-.188-2.63 1.068-1.937s.19 2.63-1.068 1.937zm-21.912-375.107c-.146 1.626-.582 3.16-.966 4.724l-1.2 4.795-2.52 9.4a422.436 422.436 0 0 1-5.788 18.794l-3.63 10.425c-.39 1.08-2.14.663-1.75-.42a498.336 498.336 0 0 0 11.889-37.415l1.36-5.2c.447-1.802.842-3.632 1.55-5.3.184-.58 1.113-.4 1.063.177zm-5.603-12.375c-1.155 7.42-2.92 14.708-4.82 21.99-1.84 7.178-3.973 14.264-6.343 21.287-1.31 3.988-2.652 8.028-4.306 11.896-.357.895-1.886.325-1.58-.6 1.213-3.564 2.584-7.04 3.798-10.605l3.364-10.435a333.175 333.175 0 0 0 5.866-21.414l2.8-12.384c.218-.768 1.33-.43 1.22.263zm-4.888-8.225l-5.537 17.225a289.759 289.759 0 0 0-4.717 17.472c-.83 3.366-1.53 6.736-2.28 10.078-.23 1.034-1.764.598-1.563-.384 2.354-11.948 5.666-23.777 9.608-35.26a146.466 146.466 0 0 1 3.622-9.542c.23-.42 1.02-.12.866.4zm-5.538-17.323c-1.77 5.44-3.25 10.975-4.308 16.605-.998 5.526-1.23 11.27-2.495 16.786-.74 3.075-1.845 5.947-3.713 8.468-.51.675-1.68-.175-1.222-.88 3.104-4.64 3.94-10.118 4.613-15.55.68-5.566 1.625-11.12 3.048-16.55.82-3.098 1.775-6.19 2.91-9.116.27-.738 1.358-.48 1.168.235zm-6.773-5.92l-7.906 33.535c-.23 1.034-1.792.65-1.563-.384l8.25-33.414c.166-.796 1.438-.504 1.22.263zm-4.382-8.15c-.1 1.174-.55 2.36-.836 3.5l-.947 3.575-1.888 7.015-3.886 14.107c-.282 1.006-1.845.622-1.564-.384l3.94-14.078 1.94-6.987.994-3.412c.316-1.19.555-2.493 1.08-3.57.265-.605 1.248-.405 1.168.234zm-5.392-18.95c-1.43 4.946-2.89 9.945-4.08 14.955a223.815 223.815 0 0 0-3.075 15.237c-.148 1.01-1.71.627-1.51-.355 1.692-10.128 4.057-20.362 7.447-30.1.247-.82 1.467-.556 1.22.264zm-5.243-33.957c-.07 1.737-.488 3.486-.773 5.24l-.912 5.37-1.905 10.76a1352.97 1352.97 0 0 1-4.061 21.112c-.806 4.062-1.53 8.1-2.522 12.128-.252.953-1.71.627-1.51-.355.627-3.614 1.464-7.113 2.196-10.67l2.138-10.565a1362.33 1362.33 0 0 0 4.061-21.111l1.148-5.92c.348-1.994.567-4.126 1.235-6.08.155-.53.956-.497.906.1zm-7.156-18.352c-1.99 7.574-2.89 15.272-3.683 23.027-.823 7.808-1.78 15.6-3.694 23.294-1.084 4.318-2.254 8.794-4.024 12.87-.352.76-1.643.255-1.395-.565 1.172-3.86 2.5-7.633 3.54-11.5s1.84-7.793 2.535-11.78c1.24-7.577 1.79-15.262 2.9-22.845.654-4.282 1.47-8.61 2.87-12.756.13-.6 1.085-.358.953.252zm-10.243-6.808c-.268 3.334-.832 6.7-1.367 10.034l-1.687 9.994c-1.233 6.694-2.652 13.354-4.175 19.956-.9 3.737-1.747 7.503-2.885 11.177-.305.925-1.71.627-1.51-.355l4.727-19.72c1.443-6.578 2.78-13.215 3.932-19.885.66-3.8 1.137-7.635 1.932-11.43.045-.453 1.032-.386 1.034.23zm-13.093-9.813c.005 3.212-.3 6.383-.573 9.584l-1.05 9.458c-.897 6.333-2.062 12.655-3.57 18.857-.837 3.498-1.807 6.992-2.83 10.456-.28 1.006-1.926.645-1.615-.413 3.567-12.166 6.128-24.614 7.517-37.162.412-3.596.6-7.174.97-10.8.055-.72 1.182-.782 1.15.02zm-12.47-7.968c.253 3.007.1 6.132.006 9.152a208.613 208.613 0 0 1-.714 9.097 137.06 137.06 0 0 1-3.327 18.171c-.832 3.365-1.85 6.696-2.97 9.97-.333.977-1.978.616-1.616-.413 3.837-11.54 6.353-23.535 7.14-35.733.244-3.415.222-6.842.385-10.234.027-.668 1.072-.706 1.098-.01zm-10.93-18.316c-.96 12.512-2.423 24.95-4.02 37.383a685.195 685.195 0 0 1-1.47 10.592c-.177 1.063-1.74.68-1.564-.384l4.764-37.247 1.145-10.498c.05-.586 1.224-.486 1.145.154zm-9.627-10.156c-.146 6.952-.692 13.888-1.106 20.83a1409.84 1409.84 0 0 1-.634 10.438c-.187 3.31-.32 6.65-.746 9.9-.494 3.62-1.516 7.084-3.72 9.966-.566.78-1.917-.238-1.35-1.018 3.88-5.303 3.735-12.347 4.145-18.54l1.375-20.203.863-11.472c.056-.72 1.148-.597 1.173.1zm-11.595-21.072c.35 3.948.24 7.984.16 11.968-.05 3.932-.236 7.858-.42 11.785a318.082 318.082 0 0 1-2.235 23.62c-.578 4.392-1.237 8.808-2.135 13.16-.177 1.063-1.793.65-1.616-.413 1.276-7.763 2.5-15.555 3.35-23.415.875-7.78 1.35-15.574 1.61-23.35l.24-13.317c-.025-.697.968-.764 1.046-.038zm-9 13.74c.11 1.29-.026 2.648-.103 3.903l-.18 3.793-.45 7.876a599.074 599.074 0 0 1-1.158 15.475l-.837 8.824c-.118.96-1.797.784-1.73-.203l2.722-31.067.31-4.403c.112-1.44.12-2.94.364-4.375.13-.6 1.01-.467 1.063.177zm-6.936 10.104l-1.198 21.12c-.1 1.173-1.895 1.208-1.795.035l1.494-21.162c.1-.906 1.565-.98 1.5.007zm293.616 186.942c-3.943 3.56-7.776 7.046-11.283 11.053-.56.647-1.487-.274-.926-.92 3.53-3.926 7.35-7.76 11.597-10.88.44-.304 1.03.362.612.747zm-9.598.443c-4.81 5.132-9.176 10.576-13.078 16.414-.514.808-1.823.087-1.31-.722a114.007 114.007 0 0 1 13.589-16.473c.527-.46 1.273.292.798.78zm-8.447-.902c-2.513 3.94-5.29 7.735-8.14 11.42s-5.836 7.365-9.182 10.71c-.724.694-1.726-.337-1.107-1.088 2.95-3.494 6.058-6.9 8.933-10.505 2.904-3.657 5.62-7.348 8.368-11.09.51-.675 1.585-.15 1.128.554zm-11.035 1.563c-3.587 4.03-7.1 8.17-10.56 12.34l-5.038 6.167c-1.718 2.125-3.36 4.36-5.183 6.428-.56.646-1.68-.175-1.222-.88 1.56-2.212 3.33-4.308 5.05-6.434a369.329 369.329 0 0 1 5.201-6.213 383.528 383.528 0 0 1 10.849-12.248c.538-.728 1.464.193.903.84zm-11.63 1.03c-3.197 4.313-6.576 8.46-9.878 12.715l-10.064 12.68c-.677.856-1.86-.342-1.212-1.146 3.274-4.203 6.652-8.35 10.03-12.495l10.135-12.437c.422-.52 1.412.164.99.682zm-11.87-3.61c-2.86 4.568-6.01 9.044-9.028 13.526l-9.08 13.496c-1.734 2.526-3.392 5.162-5.23 7.63-.595.832-2.067.157-1.466-.81 2.86-4.568 6.063-9.015 9.132-13.468l9.185-13.438c1.734-2.527 3.445-5.134 5.284-7.602.485-.757 1.718-.145 1.204.664zm-12.286 2.717c-5.806 11.273-12.45 22.085-19.768 32.388-2.04 2.834-4.012 5.913-6.4 8.493-.562.647-1.76-.15-1.246-.96 1.658-2.636 3.683-5.07 5.55-7.59l5.48-7.834a326.558 326.558 0 0 0 10.007-15.921l5.22-9.344c.352-.762 1.608-.07 1.146.77zm-16.15 10.964c-3.277 4.953-6.71 9.82-9.86 14.9-3.2 5.063-6.164 10.19-9.103 15.396-.49.9-1.905.11-1.414-.78 2.864-5.317 5.96-10.438 9.2-15.553 3.2-5.063 6.506-10.068 10.202-14.8.37-.547 1.383.217.984.816zm-15.093 14.62c-4.273 5.77-8.156 11.822-11.358 18.25-.468.972-1.986.134-1.466-.808 3.365-6.475 7.282-12.713 11.95-18.332.51-.675 1.383.216.874.89zm-3.47-6.83c-.607 1.1-1.4 2.165-2.057 3.236-.71 1.042-1.34 2.06-2.052 3.102a4429.09 4429.09 0 0 1-4.166 6.442c-2.687 4.254-5.32 8.537-7.85 12.877l-4.372 7.558c-.55.995-2.067.158-1.518-.837 5.04-8.896 10.396-17.618 16.09-26.086l2.445-3.568c.798-1.2 1.624-2.45 2.55-3.5.37-.547 1.226.13.932.786zm-12.025-1.1c-.852 2.535-2.156 5.025-3.246 7.496l-3.46 7.515-7.16 14.965-4.328 8.47c-.52.942-1.904.1-1.414-.78l14.47-29.71 1.908-4.205c.646-1.42 1.27-2.92 2.02-4.28.37-.548 1.45-.156 1.2.53zm-4.978-85.086c-.2.982-.238 1.917-.572 2.894a50.014 50.014 0 0 1-.995 2.796l-1.986 5.46-4.03 11.024c-.386.948-1.897.592-1.564-.384l4.036-11.158 2.038-5.43c.357-.896.662-1.82 1.02-2.716.18-.448.305-.924.617-1.367.26-.47.624-.884.884-1.355.168-.18.563-.03.553.236zm-1.39-9.37c-.736 2.325-1.74 4.64-2.632 6.88l-2.77 7.007a1258.86 1258.86 0 0 0-5.298 13.943l-3 8.04c-.328.843-1.734.546-1.46-.326 3.402-9.4 7.043-18.717 10.87-28.01 1.095-2.606 2.114-5.32 3.42-7.81.312-.442.998-.2.872.276zm-1.214-9.067l-6.32 14.063-6.01 14.37-3.25 8.245c-.328.844-1.734.546-1.377-.35 3.685-9.78 7.818-19.382 12.213-28.84l3.906-7.95c.265-.605 1.103-.143.838.462zm-2.34-10.986c-1.78 4.96-3.9 9.798-6.074 14.608-2.203 4.862-4.563 9.637-7.132 14.297-.433.786-1.7.093-1.257-.692 2.436-4.666 4.82-9.36 7.045-14.14s4.215-9.625 6.284-14.492c.317-.576 1.318-.16 1.134.42zm-1.747-10.454c-1.577 4.593-3.577 9.09-5.55 13.532-2 4.496-4.106 8.934-6.42 13.256-.462.838-1.72.145-1.31-.722 2.18-4.328 4.3-8.684 6.334-13.1s3.758-8.92 5.73-13.363c.27-.74 1.456-.3 1.215.396zm.233-15.78c-2.03 4.548-4.402 8.975-6.64 13.407l-6.746 13.35c-.46.838-1.637.122-1.256-.693 2.186-4.46 4.507-8.917 6.798-13.32s4.455-8.946 6.955-13.234c.294-.657 1.185-.166.9.49zm-1.646-11.627a844.549 844.549 0 0 1-10.376 25.754c-.323.7-1.643.255-1.343-.535 3.317-8.618 6.902-17.224 10.562-25.72.213-.633 1.4-.184 1.157.502zm-2.267-11.492c-1.363 3.96-2.936 7.803-4.486 11.728l-4.7 11.747c-.323.71-1.56.23-1.29-.507 1.47-3.902 3.07-7.798 4.59-11.67l4.806-11.688c.317-.576 1.265-.2 1.08.39zm-1.91-18.328c-1.13 4.156-2.9 8.233-4.48 12.2-1.636 4.083-3.273 8.165-5.223 12.074-.41.866-1.718.144-1.31-.722l5.136-11.916c1.66-4 3.03-8.094 4.74-12.066.346-.628 1.347-.213 1.134.42zm-6.483-11.152a358.272 358.272 0 0 1-4.996 19.093c-.276.872-1.6.55-1.325-.32 1.54-6.387 3.35-12.764 5.287-19 .16-.663 1.143-.463 1.034.23zm-5.868-11.77a96.178 96.178 0 0 1-2.151 10.216 75.819 75.819 0 0 1-1.482 4.918c-.547 1.6-1.07 3.302-1.802 4.878-.352.762-1.59.284-1.344-.536.495-1.64 1.175-3.244 1.72-4.854s1.04-3.25 1.535-4.89c.988-3.28 1.82-6.644 2.488-9.962.16-.663 1.195-.434 1.035.23zm-8.16-7.367c-1.006 5.044-2.227 10.106-3.552 15.11-.252.953-1.763.598-1.51-.355a262.128 262.128 0 0 1 3.843-15.019c.165-.796 1.386-.533 1.22.263zm-6.932-6.62c-1.434 3.715-2.473 7.58-2.768 11.583-.072 1.12-1.698.975-1.545-.17.486-4.102 1.396-8.106 3.074-11.892.294-.658 1.48-.208 1.24.478zm-8.196-11.142c-.32 1.94-.905 3.87-1.357 5.806s-.958 3.842-1.463 5.75c-.252.953-1.763.598-1.51-.356l1.596-5.742c.505-1.907 1-3.813 1.65-5.714.212-.634 1.195-.434 1.086.257zm-4.945-10.1c-.704 1.524-1.43 2.966-1.977 4.577a23.04 23.04 0 0 0-1.053 4.881c-.045.453-.6.7-.933.578-.425-.097-.647-.56-.578-.933.255-1.702.697-3.37 1.273-5.033.6-1.582 1.308-3.24 2.273-4.62.4-.6 1.29-.108.995.55zm-5.062-1.22a8.37 8.37 0 0 1-1.075 5.416c-.346.628-1.422.103-.995-.548a7.98 7.98 0 0 0 .92-4.887c-.042-.296.265-.605.532-.595.372.07.576.318.618.614zm184.98 321.566c-2.322 1.86-4.85 3.47-7.324 5.11l-7.562 5.048c-.852.554-1.68-.79-.83-1.345l7.476-4.89c2.474-1.64 4.925-3.36 7.522-4.728.55-.38 1.297.373.717.805zm-5.593-3.972c-2.533 1.745-5.374 3.182-8.058 4.707l-8.104 4.544c-.794.45-1.495-.756-.753-1.234a351.786 351.786 0 0 1 8.133-4.597c2.736-1.496 5.426-3.154 8.233-4.405.597-.217 1.128.553.55.985zm-6.118-6.24l-17.17 11.7c-.77.53-1.524-.704-.753-1.235 5.62-4.002 11.473-7.807 17.222-11.67.718-.56 1.47.674.7 1.205zm-8.942-1.243c-6.086 3.61-12.073 7.41-17.728 11.597-.8.583-1.576-.733-.776-1.316 5.707-4.16 11.67-8.04 17.93-11.347.632-.403 1.286.64.573 1.066zm-9.752-2.372c-6.49 2.976-12.5 6.695-18.183 10.935-.718.56-1.42-.645-.7-1.205 5.555-4.38 11.775-7.983 18.26-10.826.736-.345 1.413.78.625 1.096zm-9.367-3.32c-5.8 4.717-12.004 9.017-18.496 12.743-.823.502-1.6-.814-.777-1.316 6.435-3.62 12.542-7.764 18.347-12.348.69-.507 1.644.36.926.92zm-8.648-1.9c-4.743 2.164-9.458 4.275-14.05 6.66s-9.113 5.012-13.506 7.78c-.852.554-1.68-.79-.83-1.345 4.422-2.82 8.967-5.366 13.64-7.774 4.644-2.355 9.364-4.6 14.225-6.358.68-.24 1.147.768.52 1.038zm-16-7.12c-8.416 6.967-17.45 13.32-27.003 18.636-.794.45-1.547-.785-.753-1.235 9.32-5.512 18.367-11.517 26.882-18.293.58-.43 1.482.408.874.892zm-15.696-2.987c-2.06 2.005-4.25 3.87-6.387 5.764l-6.243 5.503-12.758 11.127c-.747.612-1.778-.366-1.054-1.06l12.844-11.285c4.298-3.707 8.467-7.553 12.915-11.04.5-.408 1.158.502.683.99zm-11.393-1.502c-7.872 8.086-16.595 15.362-25.668 22.035a163.029 163.029 0 0 1-7.845 5.438c-.823.502-1.577-.733-.777-1.316 9.196-6.4 18.106-13.026 26.462-20.504 2.386-2.1 4.696-4.307 7.03-6.434.503-.542 1.3.24.798.78zm-25.224 13.677a248.051 248.051 0 0 0-20.425 18.097c-.642.67-1.726-.337-1.054-1.06 6.547-6.427 13.48-12.436 20.82-17.948.492-.275 1.128.554.66.9zM511.97 412c-8.58 8.38-17.52 16.422-26.25 24.58-.805.717-1.936-.452-1.212-1.146l26.613-24.245c.58-.43 1.377.35.85.81zm-14.976.414c-6.697 6.822-13.598 13.395-20.5 19.968-.753.746-1.912-.37-1.16-1.117l20.81-19.66c.556-.513 1.406.297.85.8zm179.923 65.608c-.302.175-.527.46-.83.635s-.602.35-.927.445l-1.885.94c-1.258.672-2.516 1.343-3.75 2.097-2.44 1.454-4.753 3.046-7.065 4.64-.77.53-1.42-.646-.753-1.234 2.265-1.756 4.682-3.29 7.175-4.716 1.205-.7 2.434-1.32 3.664-1.94.655-.32 1.28-.6 1.908-.86.353-.147.626-.27.95-.364.354-.146.754-.13 1.16-.247.488-.14.68.375.35.603zm-9.516-.945c-2.992 1.217-5.88 2.492-8.65 4.174-2.742 1.63-5.256 3.588-7.67 5.74-.694.64-1.725-.337-1.083-1.007 4.783-4.464 10.764-8.13 17.042-9.858.73-.21 1 .682.363.952zm-6.36-3.575c-6.406 3.57-12.584 7.47-18.383 11.918-.8.584-1.576-.732-.776-1.316a130.017 130.017 0 0 1 18.558-11.616c.655-.322 1.285.64.6 1.014zm-4.376-8.284c-9.46 7.005-19.33 13.512-29.573 19.335-.905.525-1.705-.872-.8-1.397 10.2-5.852 20.16-12.168 29.748-19.034.66-.455 1.285.64.625 1.096zm-14.545-6.313c-4.286 3.44-8.858 6.655-13.296 9.875l-13.535 9.812-7.717 5.577c-.88.606-1.68-.79-.853-1.426l27.06-19.357c2.56-1.797 5.07-3.622 7.706-5.31.464-.222 1.105.472.636.828zm-18.568 1.233c-8.12 6.926-16.985 13.098-26.044 18.755a214.75 214.75 0 0 1-7.953 4.764c-.904.526-1.756-.9-.852-1.425 9.34-5.298 18.298-11.146 26.954-17.434 2.48-1.773 4.855-3.605 7.31-5.46.388-.333 1 .415.584.8zm-17.865-2.27l-23.524 20.622a1268.595 1268.595 0 0 1-6.712 5.859c-.805.716-2.12-.487-1.235-1.228l23.832-20.315 6.87-5.772c.58-.43 1.378.35.77.834zm-15.186.3c-8.81 6.817-17.39 13.83-25.588 21.395-2.334 2.128-4.563 4.313-6.763 6.445-.752.746-1.964-.4-1.21-1.146 7.942-7.842 16.48-15.152 25.342-21.94 2.515-1.96 5.052-3.837 7.666-5.605.55-.38 1.023.496.554.852zm-18.087-.755c-9.07 9.27-18.473 18.15-27.7 27.332-2.594 2.598-5.082 5.254-7.804 7.714-.776.665-1.86-.342-1.16-1.117 2.21-2.4 4.602-4.632 6.94-6.893 2.286-2.29 4.596-4.498 6.906-6.706l14.03-13.432 8.06-7.436c.498-.408 1.092.124.727.538zm-20.386 6.512c-9.448 9.334-16.73 20.682-26.566 29.732-2.75 2.512-5.624 4.752-8.782 6.765-.962.63-1.89-.905-.93-1.536 11.297-6.744 19.055-17.965 27.607-27.657 2.44-2.818 5.04-5.55 7.843-8.033.556-.513 1.354.268.827.73zm-17.27 6.182c-8.32 9.888-17.104 19.383-26.146 28.6-2.54 2.627-5.186 5.197-7.75 7.743-.752.746-2.016-.43-1.183-1.198 9.275-9.02 18.212-18.294 26.973-27.87l7.367-8.16c.422-.518 1.273.292.74.886zm-13.8 1.746l-25.465 28.974-7.21 8.247c-.73.827-1.86-.343-1.212-1.146 8.343-9.807 16.994-19.306 25.646-28.806a692.293 692.293 0 0 1 7.442-8.05c.527-.46 1.273.292.798.78zm-15.793.783c-1.56 2.212-3.384 4.28-5.102 6.405-1.747 2.177-3.517 4.274-5.316 6.422l-10.633 12.846c-.677.856-1.94-.32-1.235-1.227l15.985-18.84c1.77-2.096 3.546-4.326 5.445-6.284.417-.384 1.226.13.856.677zm-9.1-1.945a158.217 158.217 0 0 0-12.025 16.857c-.6.966-2.12.13-1.52-.837 3.773-5.977 7.936-11.67 12.513-16.998.62-.752 1.62.28 1.03.978zm-81.56 50.346c-.752-4.58-1.48-9.078-2.64-13.54s-2.56-8.854-4.287-13.152c-.416-.98 1.21-1.45 1.543-.446 3.24 8.613 5.87 17.71 6.516 26.943.107.673-1.025.868-1.132.195zm3.982-7.84c-.56-2.083-1.007-4.242-1.536-6.378a328.62 328.62 0 0 0-1.733-6.144c-1.28-4.12-2.72-8.192-4.407-12.193-.34-.87 1.013-1.217 1.38-.4a122.43 122.43 0 0 1 4.32 12.35c1.227 4.09 2.42 8.367 2.944 12.616.136.62-.805.717-.97.15zm3.326-9.5l-3.885-14.5a358.762 358.762 0 0 0-4.454-14.336c-.31-.922 1.122-1.292 1.38-.4 3.097 9.49 6.003 19.08 8.044 28.878.21.73-.874 1.09-1.085.358zm3.4-11.986a496.218 496.218 0 0 1-9.053-30.391c-.23-.945 1.204-1.316 1.462-.422 2.664 10.276 5.63 20.377 8.73 30.484.16.702-.95.978-1.138.33zm2.94-11.898c-3.44-9.612-6.584-19.265-9.832-28.976-.287-.84 1.093-1.24 1.38-.4l9.374 29.066a.49.49 0 0 1-.923.31zm1.446-17.978c-2.295-4.134-4.098-8.542-5.82-12.973s-3.17-8.985-4.457-13.586c-.23-.946 1.232-1.37 1.462-.423a154.627 154.627 0 0 0 4.253 13.337c1.67 4.403 3.61 8.682 5.553 12.962.345.736-.617 1.367-.99.683zm3.72-20.617c-2.393-3.71-4.455-7.646-6.437-11.606-1.93-3.93-3.72-7.99-5.376-12.045-.34-.87 1.042-1.27 1.38-.4a149.576 149.576 0 0 0 5.271 11.987c1.877 3.902 4.027 7.682 6.066 11.537.35.603-.554 1.13-.905.526zm.205-17.708c-1.26-1.924-2.36-3.895-3.51-5.895a682.064 682.064 0 0 1-3.405-5.837L419.778 400c-.502-.823.814-1.6 1.316-.777l10.156 17.616 3.4 5.97c.293.708-.67 1.338-1.124.677zm-.28-18.315c-6.414-8.18-12.134-17-16.764-26.312-.42-.847.843-1.652 1.316-.777 4.792 9.265 10.297 18.104 16.544 26.464.455.66-.64 1.285-1.096.625zm-6.806-21.7c-1.55-1.4-2.902-3.034-4.203-4.638a82.98 82.98 0 0 1-3.814-4.971c-2.485-3.418-4.668-7.012-6.632-10.757-.42-.846.814-1.6 1.235-.753a107.736 107.736 0 0 0 6.475 10.671 71.331 71.331 0 0 0 3.837 5.051c1.3 1.605 2.66 3.105 3.878 4.733.38.55-.392 1.08-.776.664zm-6.03-18.413c-3.94-4.494-7.58-9.163-11.3-13.81-.688-.857.528-1.825 1.187-.915 3.64 4.67 7.44 9.29 10.883 14.193.332.388-.386.948-.77.53zm-37.136 209.9c-.748 1.977-1.735 3.89-2.59 5.8l-2.727 5.938-5.56 11.82c-.38.814-1.637.12-1.256-.693 1.764-3.943 3.604-7.776 5.473-11.662l2.746-5.723c.935-1.943 1.793-3.996 2.833-5.88.317-.576 1.294-.242 1.08.392zm-1.8-10.483c-.586 1.93-1.463 3.768-2.183 5.693a215.509 215.509 0 0 0-2.078 5.75 201.568 201.568 0 0 0-3.574 11.685c-.253.953-1.764.598-1.51-.356a167.501 167.501 0 0 1 3.713-11.812c.64-1.9 1.382-3.745 2.102-5.67.772-1.896 1.416-3.93 2.478-5.734.29-.524 1.213-.22 1.053.443zm.845-11.687c-3.594 7.51-6.763 15.115-9.462 22.982-.305.924-1.816.57-1.51-.356a167.93 167.93 0 0 1 9.821-23.261c.404-.733 1.504-.127 1.152.635zM381 540.576c-.712 2.407-1.796 4.745-2.695 7.117l-2.556 6.99L370.855 569c-.276.872-1.682.574-1.377-.35 1.453-4.866 3.197-9.64 4.942-14.413l2.637-7.012c.95-2.343 1.744-4.773 2.904-7 .37-.548 1.213-.22 1.03.362zm-2.182-6.94c-.812 2.216-2.02 4.28-2.936 6.44-.945 2.2-1.9 4.42-2.702 6.635-1.704 4.454-3.118 9-4.294 13.61-.253.953-1.682.574-1.46-.327 1.205-4.66 2.7-9.23 4.433-13.737.864-2.186 1.757-4.425 2.726-6.554.496-1.023.94-2.076 1.517-3.123.554-1.128 1.056-2.286 1.767-3.328.283-.4 1.132-.195.948.386zm-3.09-12.97c-1.63 5.93-3.79 11.702-5.74 17.592l-5.844 17.534c-.305.924-1.816.57-1.51-.356l6.035-17.633c1.973-5.808 3.818-11.755 6.135-17.442.16-.663 1.108-.277.924.305zm-4.62-10.195c-1.567 5.69-3.372 11.318-5.125 16.974l-5.178 16.946c-.28 1.005-1.926.645-1.616-.413l5.26-16.97 5.312-16.94c.323-.7 1.543-.446 1.348.402zm-1.85-17.2c-1.83 5.546-3.925 11.08-5.858 16.57l-5.94 16.593c-.334.977-1.897.593-1.563-.384l6.13-16.693 6.178-16.53c.184-.58 1.265-.2 1.052.444zm-6.613-15.868l-9.068 31.802c-.28 1.005-1.926.645-1.615-.413l9.49-31.705c.242-.686 1.4-.45 1.192.316zm-2.323-10.77c-1.67 9.593-4.434 19.062-7.72 28.243-.933 2.558-1.894 5.17-2.96 7.722-.386.948-1.8.168-1.414-.78 3.624-8.926 6.59-18.146 8.948-27.498l1.873-7.98c.195-.85 1.415-.586 1.273.292zm-5.48-8.758c-1.006 5.045-2.436 9.99-3.68 14.972l-3.784 14.914c-.282 1.006-1.845.622-1.564-.384l3.92-14.908c1.296-4.953 2.436-9.99 3.97-14.88.2-.715 1.277-.457 1.14.286zm-6.177-8.116c-1.03 4.347-2.515 8.65-3.866 12.957l-4.024 12.87c-.334.977-1.897.593-1.563-.384l4.215-12.97c1.403-4.28 2.65-8.644 4.343-12.83.207-.5.998-.2.895.357zm-6.475-7.325c-.936 5.287-2.295 10.478-3.736 15.692-1.493 5.185-3.09 10.312-4.846 15.353-.334.976-1.98.616-1.616-.413a239.383 239.383 0 0 0 4.98-15.348c1.493-5.185 2.8-10.404 4.16-15.595.213-.633 1.166-.38 1.058.31zm-9.824-4.597c-.322 4.67-1.393 9.337-2.458 13.87a155.363 155.363 0 0 1-3.923 13.677c-.333.977-1.897.593-1.563-.384 1.57-4.46 2.904-8.98 4.05-13.538s1.87-9.21 2.963-13.797c-.007-.482.928-.444.93.172zm-7.98-9.18c.27 9.912-2.328 19.95-6.777 28.762-.4.867-1.77.116-1.31-.72 2.233-4.3 3.943-8.887 5.148-13.548 1.18-4.743 1.723-9.565 1.945-14.426.056-.72 1.02-.735.993-.067zm-7.388-3.937c-1.714 8.682-3.748 17.324-5.648 25.97-.23 1.035-1.845.622-1.564-.384l6.125-25.845c.137-.744 1.224-.486 1.087.258zm-6.927-8.736l-5.302 27.324c-.23 1.035-1.873.674-1.644-.36l5.806-27.25c.2-.715 1.277-.457 1.14.286zm-10.577-5.83c.22 3.81-.23 7.725-.782 11.45-.557 3.858-1.404 7.624-2.437 11.356-.282 1.005-1.926.645-1.616-.413a100.547 100.547 0 0 0 2.537-11.165c.58-3.776.84-7.593 1.287-11.375.074-.505.95-.363 1.01.148zm-6.547-9.55c.442 8.983-.94 18.053-4.142 26.46-.415 1-2.06.64-1.645-.36 3.092-8.332 4.65-17.1 4.446-26.02-.015-.964 1.298-.99 1.34-.08zm-8.228-6.994c.154 10.122-1.032 20.323-3.277 30.215-.258 1.087-1.955.697-1.697-.4 2.268-9.8 3.444-19.744 3.795-29.792.032-.802 1.21-.835 1.18-.033zm-7.35-4.257l-2.762 24.08c-.124 1.092-1.792.65-1.645-.36l3.24-23.955c.166-.796 1.276-.457 1.168.234zm-8.723-2c.148 6.295.215 12.613.12 18.978-.014 1.017-1.54 1.062-1.527.046-.067-6.318.08-12.655.23-18.99.003-.75 1.182-.782 1.18-.033zm-6.833-6.43c-.52 2.923-.56 5.972-.064 8.91.22 1.213-1.476 1.44-1.643.255-.463-3.123-.386-6.358.3-9.46.17-.93 1.548-.58 1.406.297zM732.33 250.82a30.367 30.367 0 0 1-1.774 2.846c-.6.966-1.2 1.932-1.907 2.84-.45.57-1.36-.135-1.013-.763.496-1.024 1.202-1.932 1.826-2.817.653-.937 1.254-1.903 1.96-2.81.393-.466 1.197.182.908.705zm-3.938-3.878c-2.34 2.26-3.927 5.14-4.486 8.383-.142.877-1.548.58-1.377-.35.645-3.4 2.406-6.593 5.094-8.867.498-.408 1.296.374.77.834zm-5.597-1.242c-2.602 3.48-4.58 7.442-5.555 11.685-.252.953-1.763.598-1.51-.355 1.304-4.47 3.29-8.565 6.14-12.25.56-.646 1.435.246.926.92zm-5.92-.533a81.3 81.3 0 0 1-8.287 14.412c-.538.728-1.795.035-1.257-.693 3.284-4.47 6.074-9.282 8.444-14.325.352-.762 1.452-.156 1.1.606zm-7.385.64l-9.11 14.913c-.543.862-1.904.11-1.36-.75l9.32-14.798c.51-.676 1.608-.07 1.152.635z"/><path d="M700.512 247.48c-3.558 5.958-7.378 11.772-11.093 17.644-.515.81-1.905.11-1.362-.75l11.355-17.5c.428-.652 1.504-.127 1.1.606zm-8.94.737c-1.627 3.2-3.36 6.34-5.12 9.535l-5.225 9.477c-.433.786-1.637.122-1.204-.664 1.68-3.17 3.412-6.312 5.225-9.477l5.33-9.42c.323-.7 1.37-.132.995.548zm-6.29-.6l-6.252 11.71a247.483 247.483 0 0 0-5.624 12.057c-.386.948-1.8.168-1.36-.75 3.51-8.1 7.422-16.186 12.137-23.623.428-.652 1.475-.074 1.1.606zm-7.938.403a554.32 554.32 0 0 1-8.671 17.956c-.38.814-1.585.15-1.204-.664l8.776-17.898c.404-.733 1.422-.103 1.1.606zm-7.05 1.643c-3.313 4.523-5.97 9.34-7.548 14.683-.224.9-1.683.574-1.46-.327 1.637-5.447 4.286-10.746 8.123-14.98.417-.385 1.225.13.884.624zm-7.442.744c-2.447 4.933-5.184 9.774-7.92 14.614-.433.786-1.637.122-1.257-.693 2.55-4.875 5.236-9.744 8.13-14.498.376-.68 1.423-.103 1.048.577zm-7.077-1.034c-2.618 5.863-5.835 11.326-9.552 16.582-.653.937-1.98.001-1.246-.96 3.735-5.04 6.93-10.586 9.646-16.257.404-.733 1.504-.127 1.152.635zm-7.962-1.658c-.764 2.377-1.79 4.61-2.765 6.873l-3.01 6.944c-.974 2.262-2 4.495-3.056 6.78-.502 1.157-1.085 2.338-1.638 3.467s-1.032 2.367-1.796 3.38c-.422.518-1.404.318-1.238-.478.315-1.192.95-2.344 1.423-3.45a76.919 76.919 0 0 0 1.581-3.362l3.166-6.857 3.027-6.73c1.032-2.367 1.983-4.7 3.12-7.02.422-.52 1.4-.185 1.186.45zm-9.68 5.176l-14.475 31.825c-.443 1.053-2.066.158-1.57-.866l14.893-31.594c.38-.814 1.503-.127 1.152.635zm-7.775 2.337l-12.467 29.176c-.415 1-1.934.163-1.52-.837l12.782-29.003c.38-.815 1.504-.127 1.204.664zm-7.713 1.482l-11.56 25.92c-.472 1.105-2.095.2-1.623-.895l11.927-25.72c.4-.866 1.666-.173 1.257.693zM475.905 520.124c-2.187 2.48-3.856 5.385-5.13 8.438-.323.71-1.51.26-1.238-.478 1.255-3.268 3.168-6.242 5.518-8.77.532-.594 1.383.216.85.8zm-2.282-7.13c-.785 1.548-1.57 3.095-2.51 4.556l-2.72 4.44c-1.832 2.95-3.56 5.96-5.547 8.822-.567.78-1.77.116-1.31-.72 1.755-3.06 3.773-5.977 5.657-8.898l2.825-4.382c.942-1.46 1.96-2.812 3.007-4.214.254-.338.772.084.6.398zm-.362-9.62c-2.638 5.032-5.485 9.948-8.28 14.893l-8.437 14.807c-.49.89-1.904.11-1.36-.75l8.594-14.72c2.847-4.916 5.642-9.86 8.7-14.662.288-.524 1.074-.09.785.433zm1.464-12.44c-6.27 5.555-9.405 13.59-12.89 21.024-3.748 8.038-7.788 15.984-12.037 23.814-.578 1.048-1.78 4.344-3.613 3.334-1.362-.75.048-3.183 1.23-1.984.64.694-.28 1.62-.978 1.03.244-.07.54-.112.755-.13-.006.134-.03.053-.18-.167.1-.907-.335.36-.013-.35.145-.262.37-.547.515-.81l1.443-2.618 2.748-5.107a349.225 349.225 0 0 0 5.113-10.017l5.048-10.394c1.465-3.153 2.93-6.305 4.71-9.284 1.958-3.427 4.387-6.594 7.38-9.177.58-.43 1.325.32.77.834zm-10.564-.157c-6.937 13.45-13.508 27.1-19.264 41.132l-2.38 5.925c-.777 2.03-1.502 4.088-2.385 6.06-.35.762-1.67.308-1.395-.564.528-1.826 1.347-3.56 2.033-5.298l2.143-5.372 4.403-10.34c3.062-6.915 6.31-13.796 9.766-20.56l6.136-11.5c.294-.657 1.237-.138.943.52zm-10.878 1.65c-9.055 12.213-12.788 27.156-18.167 41.123-1.52 3.873-3.018 7.826-5.09 11.463-.5.9-1.8.168-1.36-.75 1.638-3.466 3.276-6.933 4.676-10.462s2.666-7.065 3.932-10.6c2.533-7.07 5.013-14.17 8.44-20.882 1.916-3.723 4.123-7.354 6.772-10.672.4-.6 1.25.2.798.78zM440.97 502.5l-18.86 51.05c-.39 1.08-2.14.663-1.697-.39l15.203-39.958 4.302-11.147c.184-.58 1.266-.2 1.053.444zm-13.564 15.19l-12.696 37.517c-.362 1.03-2.06.64-1.697-.4a5392.9 5392.9 0 0 1 10.162-29.081l2.93-8.285c.223-.9 1.548-.58 1.3.24zM571.8 608.977c-2.626 1.42-4.844 3.337-6.444 5.87-.428.652-1.475.074-1.048-.578 1.763-2.578 4.126-4.758 7.014-6.033.545-.246 1.023.496.478.742zm-2.9-4.4l-11.3 11.72c-.585.566-1.54-.302-.927-.92 3.745-3.944 7.67-7.72 11.543-11.524.446-.437 1.14.286.694.723zm-6.278-3.597l-7.655 8.683-7.475 8.852c-.6.698-1.62-.28-1.03-.98 2.37-3.062 4.975-5.928 7.527-8.822s5.208-5.73 7.836-8.516c.527-.46 1.273.292.798.782zm-8.13-3.46c-5.75 6.593-11.165 13.44-16.45 20.426-.51.675-1.68-.175-1.17-.85 5.158-7.125 10.84-13.96 16.8-20.438.452-.57 1.273.292.822.862zm-6.29-3.33c-3.13 3.94-6.41 7.663-9.824 11.38-3.385 3.664-6.876 7.27-10.6 10.68-.695.64-1.726-.337-1.03-.978 3.514-3.525 7.132-6.992 10.547-10.708 3.438-3.635 6.747-7.41 10.028-11.13.56-.647 1.33.187.88.758zm-9.683-.765l-10.76 11.342L516.924 616c-.642.67-1.726-.337-1.054-1.06l10.887-11.202 10.993-11.146c.527-.46 1.273.293.77.834zm-10.902-.412c-2.613 3.75-5.592 7.295-8.566 10.708-3.055 3.436-6.268 6.786-9.632 9.915-.752.746-1.964-.4-1.16-1.117 3.312-3.158 6.52-6.374 9.626-9.782 3.08-3.355 5.977-6.878 8.875-10.4.365-.414 1.197.18.856.676zm-6.018-4.07l-23.478 22.15c-.694.64-1.778-.366-1.054-1.06 7.793-7.447 15.79-14.645 23.71-21.953.526-.46 1.377.35.82.862zm-12.264-3.143c-3.847 4.502-8.032 8.75-12.217 12.996a806.776 806.776 0 0 1-12.527 12.689c-.723.693-1.778-.366-1.107-1.088l12.58-12.66c4.185-4.247 8.213-8.58 12.527-12.69.498-.408 1.168.234.745.752zm-10.523-1.842c-6.702 8.936-14.47 17.08-22.768 24.453-.776.665-1.83-.395-1.106-1.088 8.38-7.397 16.036-15.465 23.18-24.088.393-.466 1.034.23.693.723zm-9.05-5.877c-7.006 8.496-14.273 16.847-21.64 25.007l-6.406 6.914c-.643.67-1.674-.308-1.084-1.007l11.065-12.266a783.397 783.397 0 0 0 10.936-12.405l6.173-7.11c.637-.536 1.488.274.956.868zm-12.202-2.016c-7.536 9.705-15.747 18.9-24.443 27.5l-7.538 7.11c-.695.64-1.778-.366-1.054-1.06 4.452-4.237 8.928-8.392 13.2-12.796a310.707 310.707 0 0 0 12.402-13.577 303.45 303.45 0 0 0 6.635-7.949c.4-.6 1.25.21.8.782zm-13.176-8.425c-7.44 12.01-16.215 23.218-25.8 33.563a211.005 211.005 0 0 1-8.457 8.651c-.695.64-1.726-.337-1.054-1.06 9.98-9.928 19.313-20.417 27.64-31.804 2.377-3.195 4.65-6.45 6.897-9.784.312-.442 1.074-.09.785.433zm-17.394 8.64c-7.523 10.054-15.622 19.8-24 29.167a323.987 323.987 0 0 1-7.194 7.846c-.67.722-1.725-.337-1.054-1.06 8.612-9.18 16.938-18.586 24.85-28.357l6.623-8.297c.428-.652 1.174.1.775.7zm-21.25 14.64a238.848 238.848 0 0 1-17.069 21.176c-.672.723-1.726-.337-1.055-1.06a231.217 231.217 0 0 0 17.106-20.747c.422-.518 1.417.03 1.018.63zm-12.83-.383c-5.3 8.27-11.115 16.198-17.153 23.93-.648.803-1.807-.314-1.16-1.117 6.16-7.46 11.91-15.283 17.266-23.4.4-.6 1.475-.075 1.047.577zm-11.487 8.824c-4.33 6.49-8.84 12.8-13.377 19.184-.538.728-1.794.035-1.257-.693l13.696-19.144c.423-.52 1.307.106.938.653zm-27.818 21.6c-.473 1.105-.893 2.24-1.418 3.315l-1.575 3.228-3.22 6.213c-1.073 2.07-2.2 4.113-3.325 6.155-1.155 2.094-2.205 4.246-3.592 6.144-.538.728-1.72.145-1.31-.722 1.05-2.152 2.36-4.16 3.54-6.173s2.304-4.055 3.43-6.097l3.325-6.155c.577-1.047 1.102-2.123 1.68-3.17s1.207-2.066 1.784-3.113c.23-.42.86-.073.68.375zm-9.61 8.016l-10.317 18.96c-.5.9-1.904.11-1.413-.78l10.735-18.73c.376-.68 1.37-.132.995.548zm88.034 42.802c-1.254 1.903-2.74 3.6-4.124 5.374l-4.286 5.42c-.537.728-1.62-.28-1.03-.978l4.2-5.263c1.382-1.765 2.74-3.6 4.304-5.206.445-.437 1.307.106.937.653zm1.763-13.23c-2.584 3.696-5.296 7.253-8.06 10.78l-8.275 10.8c-.62.75-1.622-.28-1.055-1.06 2.66-3.586 5.477-7.085 8.19-10.642 2.765-3.528 5.425-7.114 8.37-10.475.364-.413 1.144.154.832.596zm-.263-9.43l-11.747 14.62c-3.84 4.983-7.42 10.11-11.078 15.263-.538.727-1.824.087-1.31-.722 5.415-8.212 11.482-15.996 17.7-23.56 1.828-2.2 3.628-4.35 5.532-6.44.584-.565 1.354.27.902.84zm-2.14-6.027l-11.415 15.01c-3.736 5.04-7.314 10.17-10.84 15.326-.566.78-1.904.1-1.36-.75a406.254 406.254 0 0 1 17.473-23.89l5.322-6.556c.45-.57 1.22.263.82.862zm-3.227-4.92c-.052-.03-1.93 2.76-2.156 3.045l-2.325 3.224-4.533 6.24-9.228 12.527c-1.73 2.392-3.533 4.675-5.314 7.038-.48.623-1.598-.198-1.17-.85 6.435-8.946 13.08-17.778 19.776-26.58.96-1.246 1.867-2.52 2.88-3.738.508-.675 1.46-2.403 2.503-1.692.524.29.12 1.022-.433.785zm-5.006-5.286c-1.8 2.416-3.853 4.635-5.767 6.994l-5.553 6.975a293.966 293.966 0 0 0-10.545 14.668c-.625.885-2.038.106-1.466-.808 3.387-5.028 6.954-9.89 10.68-14.663a231.479 231.479 0 0 1 5.715-7.022c1.967-2.33 3.9-4.74 6.163-6.844.527-.46 1.115.206.774.7zm-4.498-4.596c-1.647 2.37-3.586 4.646-5.338 6.957a419.19 419.19 0 0 0-5.303 6.771l-10.7 13.833c-.508.675-1.783-.233-1.274-.908 3.452-4.65 7.06-9.216 10.64-13.728l5.41-6.713c1.885-2.306 3.72-4.64 5.733-6.808.364-.413 1.173.1.832.596z"/><path d="M418.394 655.147c-1.15 1.96-2.613 3.748-3.972 5.593l-4.134 5.64-8.158 11.206c-.625.884-1.9-.023-1.223-.88l8.234-11.096 4.1-5.454 4.262-5.502c.452-.57 1.18-.033.89.49zm-4.28-3.384c-2.605 4.23-5.577 8.26-8.392 12.374L397.33 676.5l-4.756 7.14c-.543.862-2.038.106-1.414-.78 5.583-8.392 11.27-16.727 17.14-24.894 1.618-2.316 3.237-4.633 4.984-6.8.34-.495 1.12.07.832.595zm-11.44 2.296c-.698 1.4-1.658 2.636-2.513 3.94l-2.62 3.882a255.907 255.907 0 0 1-5.388 7.544l-5.487 7.352c-1.92 2.492-3.788 5.012-5.836 7.365-.562.647-1.732-.203-1.223-.88 1.84-2.468 3.864-4.902 5.755-7.34l5.57-7.376 5.522-7.54 2.723-3.824c.878-1.222 1.68-2.555 2.665-3.72.422-.52 1.12.07.832.595zm-9.934.804c-.814-.38-1.635.737-2.034 1.337l-2.293 3.788-4.47 7.367-9.192 14.937c-.572.913-1.986.134-1.414-.78l16.05-25.767c.856-1.303 2.372-3.062 4.036-1.87.542.504-.077 1.255-.682.99zm-10.222 3.31c-1.81 3.78-4.1 7.435-6.33 10.985a145.495 145.495 0 0 1-7.291 10.25c-.618.75-1.754-.285-1.106-1.088a175.095 175.095 0 0 0 7.284-10.117c2.306-3.44 4.298-7.053 6.447-10.58.4-.6 1.29-.108.995.55zm-12.154 9.412l-6.385 9.725c-.515.81-1.824.087-1.31-.722l6.5-9.667c.538-.727 1.7-.092 1.204.664zm57.915-35.32c-2.976 2.797-5.848 5.652-8.463 8.784s-4.92 6.573-6.936 10.104c-.49.89-1.957.082-1.414-.78 4.246-7.08 9.578-13.905 16.153-19.02.47-.356 1.105.473.66.9z"/><path d="M415.985 633.882l-14.5 20.477c-.682 1-2.033-.028-1.3-.99l14.89-20.194c.342-.495 1.28.16.91.706zM404.6 639.07a35.515 35.515 0 0 0-9.626 11.762c-.438.92-1.852.14-1.414-.78 2.465-4.717 5.948-8.806 10.3-11.868.55-.38 1.24.478.74.886zm-6.843 1.143c-3.1 3.89-5.677 8.067-7.707 12.615-.438.92-1.8.168-1.36-.75a63.947 63.947 0 0 1 8.089-12.814c.538-.727 1.516.222.98.95zm89.8 77.983c-.757.88-1.54 1.677-2.297 2.557-.225.285-.76.263-1.016-.014s-.345-.737.014-1.017c.834-.77 1.644-1.62 2.425-2.418.25-.204.627-.27.883.01.204.25.217.598-.01.883zm-2.794-5.706c-.777 2.03-2.05 3.718-3.764 5.094-.25.204-.697.025-.85-.195-.175-.3-.054-.644.195-.848a10.19 10.19 0 0 0 3.389-4.413c.265-.605 1.294-.242 1.03.362zm-3.505-2.683l-5.223 4.767c-.584.566-1.51-.355-.874-.89l5.352-4.63c.498-.408 1.272.293.745.753zm-4.12-6.026c-2.077 2.405-4.283 4.67-6.383 6.995-.614.617-1.592-.332-.98-.95l6.64-6.718c.445-.437 1.168.235.722.672zm-3.948-6.957a44.813 44.813 0 0 0-8.46 11.381c-.433.786-1.637.122-1.204-.664 2.315-4.322 5.28-8.217 8.813-11.527.585-.565 1.407.298.85.8zm-1.947-9.47c-4.115 4.49-7.688 9.485-10.685 14.797-.462.838-1.77.116-1.256-.693 3.107-5.388 6.813-10.377 11.143-14.886.48-.622 1.33.188.798.782zm-3.987-9.982a1135.313 1135.313 0 0 1-11.527 16.449c-.567.78-1.824.087-1.31-.722l11.736-16.333c.532-.594 1.58-.017 1.1.606zm-3.25-8.346c-4 4.28-7.742 8.84-10.938 13.77-.485.756-1.742.063-1.256-.693 3.358-4.977 7.106-9.67 11.448-13.83.498-.408 1.19.316.746.753zm-.78-7.873l-10.224 13.344c-.6.7-1.488-.274-.98-.95 3.365-4.495 6.912-8.82 10.405-13.176.428-.652 1.25.21.798.78zM460.4 650.04l-5.427 6.5c-.532.594-1.435-.245-.874-.892l5.53-6.44c.423-.518 1.22.264.77.834zM276.432 623.1c-.045.453-.1.906-.164 1.412-.068.37-.166.796-.234 1.168-.195.848-.337 1.725-.56 2.626-.39 1.697-.726 3.423-1.168 5.09-.224.9-1.63.604-1.46-.326.337-1.726.727-3.423 1.116-5.12l.555-2.493.293-1.273c.126-.476.328-.843.454-1.32.294-.657 1.276-.457 1.168.235zm-6.87-5.495c-.74 6.42-1.83 12.852-2.836 19.26-.17.93-1.578.632-1.46-.327l2.993-19.174c.17-.93 1.415-.585 1.302.24zm-6.752.852c-.772 7.22-2.212 14.416-3.862 21.494-.23 1.035-1.792.65-1.564-.384 1.703-7.05 2.928-14.226 4.1-21.43.114-.825 1.358-.48 1.325.32zm-5.243 1.957c-.552 1.744-1.3 3.453-1.842 5.198s-1.08 3.57-1.446 5.347c-.842 3.632-1.312 7.333-1.463 11.074-.043 1.068-1.704 1.11-1.66.04.18-3.793.708-7.6 1.607-11.336.476-1.854.952-3.708 1.586-5.475s1.27-3.67 2.166-5.292c.29-.524 1.266-.2 1.053.444zm-7.04-3.95c-.91 4.62-2.084 9.23-3.18 13.815l-3.312 13.81c-.23 1.034-1.873.674-1.616-.413l3.446-13.804 3.603-13.717c.213-.634 1.218-.352 1.058.3zm-7.664-1.084c-.644 5.38-1.527 10.696-2.33 15.99l-2.516 15.955c-.176 1.064-1.82.703-1.644-.36l2.62-15.898 2.754-15.892c.113-.825 1.2-.567 1.115.206zm-7.702 1.215l-5.604 28.864c-.206 1.115-1.955.697-1.75-.42l6.03-28.766c.194-.848 1.467-.556 1.325.32zm-5.9-.318l-3.84 16.25a711.342 711.342 0 0 0-3.496 16.371c-.205 1.116-1.955.697-1.75-.418a492.4 492.4 0 0 1 3.6-16.314c1.29-5.434 2.63-10.84 4.263-16.152.247-.82 1.386-.533 1.22.263zm-9.79-3.418l-3.187 16.678c-1.027 5.578-1.84 11.138-2.6 16.728-.153 1.144-1.874.674-1.697-.4.76-5.59 1.654-11.173 2.734-16.722s2.21-11.07 3.797-16.546c.13-.61 1.06-.44.953.252zm-7.658 6.088c-.3 2.77-.998 5.526-1.536 8.234l-1.548 7.885-3.218 16.115c-.234 1.168-2.036.72-1.75-.42l5.085-23.96c.6-2.68 1.05-5.497 1.827-8.142.218-.767 1.224-.486 1.14.287zm-8.496 16.276l-.404.733a.542.542 0 0 1-.197.233.454.454 0 0 1-.22.152c-.08.023-.163.047-.267-.01-.082.024-.186-.034-.29-.092a.675.675 0 0 1-.332-.388.676.676 0 0 1 .074-.505l.404-.733a.677.677 0 0 1 .388-.333c.08-.023.162-.047.267.01.08-.023.186.034.238.063a.683.683 0 0 1 .333.388c.075.1.094.325.007.482z"/></g></svg>